M48
;DRILL file {Pcbnew (2013-june-11)-stable} date Thu 26 Jul 2018 16:46:34 EDT
;FORMAT={-:-/ absolute / metric / decimal}
FMAT,2
METRIC,TZ
T1C0.610
T2C0.635
T3C0.813
T4C0.889
T5C1.000
T6C1.001
T7C1.016
T8C1.250
T9C1.524
T10C2.499
%
G90
G05
M71
T1
X100.33Y-173.99
X100.33Y-181.61
T2
X104.521Y-133.477
X105.41Y-162.687
X109.093Y-152.4
X110.49Y-154.94
X113.157Y-157.48
X115.57Y-160.02
X117.983Y-162.56
X120.65Y-165.1
X120.777Y-139.573
X133.35Y-162.56
X138.176Y-139.7
X138.176Y-143.51
X139.065Y-135.89
X139.954Y-140.97
X142.875Y-151.13
X160.655Y-143.51
X163.195Y-148.59
X163.195Y-157.48
X164.465Y-146.05
X168.275Y-153.67
X168.91Y-156.21
X169.291Y-147.32
X170.18Y-157.48
T3
X92.71Y-154.94
X92.71Y-160.02
X92.71Y-165.1
X95.25Y-154.94
X95.25Y-157.48
X95.25Y-160.02
X95.25Y-162.56
X95.25Y-165.1
X95.25Y-167.64
X97.79Y-157.48
X97.79Y-162.56
X97.79Y-167.64
X102.87Y-186.69
X102.87Y-194.31
X105.41Y-186.69
X105.41Y-194.31
X107.95Y-128.27
X107.95Y-186.69
X107.95Y-194.31
X110.49Y-128.27
X110.49Y-132.08
X110.49Y-134.62
X110.49Y-137.16
X110.49Y-139.7
X110.49Y-186.69
X110.49Y-194.31
X113.03Y-186.69
X113.03Y-194.31
X115.57Y-186.69
X115.57Y-194.31
X118.11Y-132.08
X118.11Y-134.62
X118.11Y-137.16
X118.11Y-139.7
X118.11Y-186.69
X118.11Y-194.31
X120.65Y-186.69
X120.65Y-194.31
X121.92Y-132.08
X121.92Y-134.62
X130.81Y-172.72
X130.81Y-180.34
X133.35Y-172.72
X133.35Y-180.34
X135.89Y-172.72
X135.89Y-180.34
X138.43Y-172.72
X138.43Y-180.34
X147.32Y-139.7
X147.32Y-142.24
X151.13Y-139.7
X151.13Y-142.24
X151.13Y-147.32
X151.13Y-149.86
X151.13Y-153.67
X151.13Y-156.21
X158.75Y-139.7
X158.75Y-142.24
X158.75Y-144.78
X158.75Y-147.32
X158.75Y-149.86
X158.75Y-152.4
X158.75Y-154.94
X158.75Y-157.48
X161.29Y-133.35
X163.83Y-133.35
X166.37Y-139.7
X166.37Y-142.24
X166.37Y-144.78
X166.37Y-147.32
X166.37Y-149.86
X166.37Y-152.4
X166.37Y-154.94
X166.37Y-157.48
T4
X121.92Y-147.32
X121.92Y-173.99
T7
X88.9Y-152.4
X88.9Y-154.94
X88.9Y-157.48
X88.9Y-160.02
X88.9Y-162.56
X88.9Y-165.1
X88.9Y-167.64
X88.9Y-170.18
X125.72Y-132.08
X125.72Y-134.62
X125.72Y-137.16
X125.72Y-139.7
X125.72Y-142.24
X125.72Y-144.78
X125.72Y-147.32
X125.72Y-149.86
X125.72Y-152.4
X125.72Y-154.94
X125.72Y-157.48
X125.72Y-160.02
X125.72Y-162.56
X125.72Y-165.1
X128.27Y-185.42
X128.27Y-190.5
X130.81Y-185.42
X130.81Y-190.5
X133.35Y-185.42
X133.35Y-190.5
X135.89Y-185.42
X135.89Y-190.5
X138.43Y-185.42
X138.43Y-190.5
X140.98Y-132.08
X140.98Y-134.62
X140.98Y-137.16
X140.98Y-139.7
X140.98Y-142.24
X140.98Y-144.78
X140.98Y-147.32
X140.98Y-149.86
X140.98Y-152.4
X140.98Y-154.94
X140.98Y-157.48
X140.98Y-160.02
X140.98Y-162.56
X140.98Y-165.1
X171.45Y-139.7
X171.45Y-142.24
X171.45Y-144.78
X171.45Y-147.32
X171.45Y-151.13
X171.45Y-153.67
X171.45Y-156.21
X171.45Y-158.75
T8
X88.9Y-134.62
X88.9Y-139.7
X92.075Y-187.325
X97.155Y-187.325
T9
X100.33Y-129.51
X100.33Y-134.61
X100.33Y-139.71
X100.33Y-144.81
T10
X86.995Y-117.475
X86.995Y-193.675
X172.085Y-117.475
X172.085Y-193.675
T5
X93.83Y-180.36G85X93.83Y-182.86
G05
T6
X87.83Y-180.611G85X87.83Y-182.609
G05
T0
M30
