G04 (created by PCBNEW (2013-june-11)-stable) date Thu 26 Jul 2018 16:45:46 EDT*
%MOIN*%
G04 Gerber Fmt 3.4, Leading zero omitted, Abs format*
%FSLAX34Y34*%
G01*
G70*
G90*
G04 APERTURE LIST*
%ADD10C,0.00590551*%
%ADD11R,0.06X0.06*%
%ADD12C,0.06*%
%ADD13C,0.055*%
%ADD14R,0.1181X0.1181*%
%ADD15C,0.1181*%
%ADD16C,0.0866142*%
%ADD17R,0.1X0.1*%
%ADD18C,0.1*%
%ADD19R,0.056X0.056*%
%ADD20C,0.056*%
%ADD21R,0.055X0.055*%
%ADD22R,0.1378X0.15748*%
%ADD23R,0.1378X0.1378*%
G04 APERTURE END LIST*
G54D10*
G54D11*
X35000Y-67000D03*
G54D12*
X35000Y-66000D03*
X35000Y-65000D03*
X35000Y-64000D03*
X35000Y-63000D03*
X35000Y-62000D03*
X35000Y-61000D03*
X35000Y-60000D03*
G54D13*
X36500Y-61000D03*
X37500Y-61000D03*
X37500Y-62000D03*
X38500Y-62000D03*
X36500Y-63000D03*
X37500Y-63000D03*
X37500Y-64000D03*
X38500Y-64000D03*
X36500Y-65000D03*
X37500Y-65000D03*
X37500Y-66000D03*
X38500Y-66000D03*
X48000Y-52000D03*
X48000Y-53000D03*
X42500Y-50500D03*
X43500Y-50500D03*
G54D11*
X54500Y-75000D03*
G54D12*
X53500Y-75000D03*
X52500Y-75000D03*
X51500Y-75000D03*
X50500Y-75000D03*
G54D11*
X54500Y-73000D03*
G54D12*
X53500Y-73000D03*
X52500Y-73000D03*
X51500Y-73000D03*
X50500Y-73000D03*
G54D11*
X67500Y-55000D03*
G54D12*
X67500Y-56000D03*
X67500Y-57000D03*
X67500Y-58000D03*
G54D11*
X67500Y-59500D03*
G54D12*
X67500Y-60500D03*
X67500Y-61500D03*
X67500Y-62500D03*
G54D14*
X35000Y-55000D03*
G54D15*
X35000Y-53000D03*
G54D16*
X55250Y-50750D03*
X49750Y-50750D03*
X55250Y-66250D03*
X49750Y-66250D03*
G54D12*
X55503Y-58000D03*
X55503Y-57000D03*
X55503Y-56000D03*
X55503Y-55000D03*
X55503Y-54000D03*
X55503Y-53000D03*
G54D11*
X55503Y-52000D03*
G54D12*
X55503Y-59000D03*
X55503Y-60000D03*
X55503Y-61000D03*
X55503Y-62000D03*
X55503Y-63000D03*
X55503Y-64000D03*
X55503Y-65000D03*
X49496Y-65000D03*
X49496Y-64000D03*
X49496Y-63000D03*
X49496Y-62000D03*
X49496Y-61000D03*
X49496Y-60000D03*
X49496Y-59000D03*
X49496Y-58000D03*
X49496Y-57000D03*
X49496Y-56000D03*
X49496Y-55000D03*
X49496Y-54000D03*
X49496Y-53000D03*
X49496Y-52000D03*
G54D17*
X39500Y-50988D03*
G54D18*
X39500Y-52996D03*
X39500Y-55003D03*
X39500Y-57011D03*
G54D19*
X39500Y-68500D03*
G54D20*
X39500Y-71500D03*
G54D21*
X43500Y-52000D03*
G54D13*
X43500Y-53000D03*
X43500Y-54000D03*
X43500Y-55000D03*
X46500Y-55000D03*
X46500Y-54000D03*
X46500Y-53000D03*
X46500Y-52000D03*
G54D21*
X54500Y-68000D03*
G54D13*
X53500Y-68000D03*
X52500Y-68000D03*
X51500Y-68000D03*
X51500Y-71000D03*
X52500Y-71000D03*
X53500Y-71000D03*
X54500Y-71000D03*
G54D21*
X62500Y-55000D03*
G54D13*
X62500Y-56000D03*
X62500Y-57000D03*
X62500Y-58000D03*
X62500Y-59000D03*
X62500Y-60000D03*
X62500Y-61000D03*
X62500Y-62000D03*
X65500Y-62000D03*
X65500Y-61000D03*
X65500Y-60000D03*
X65500Y-59000D03*
X65500Y-58000D03*
X65500Y-57000D03*
X65500Y-56000D03*
X65500Y-55000D03*
X59500Y-55000D03*
X59500Y-56000D03*
X59500Y-58000D03*
X59500Y-59000D03*
X58000Y-55000D03*
X58000Y-56000D03*
X59500Y-60500D03*
X59500Y-61500D03*
X64500Y-52500D03*
X63500Y-52500D03*
G54D22*
X36940Y-71500D03*
G54D23*
X34578Y-71500D03*
G54D21*
X40500Y-76500D03*
G54D13*
X41500Y-76500D03*
X42500Y-76500D03*
X43500Y-76500D03*
X44500Y-76500D03*
X45500Y-76500D03*
X46500Y-76500D03*
X47500Y-76500D03*
X47500Y-73500D03*
X46500Y-73500D03*
X45500Y-73500D03*
X44500Y-73500D03*
X43500Y-73500D03*
X42500Y-73500D03*
X41500Y-73500D03*
X40500Y-73500D03*
G54D14*
X38250Y-73750D03*
G54D15*
X36250Y-73750D03*
M02*
