G04 (created by PCBNEW (2013-june-11)-stable) date Thu 26 Jul 2018 16:45:45 EDT*
%MOIN*%
G04 Gerber Fmt 3.4, Leading zero omitted, Abs format*
%FSLAX34Y34*%
G01*
G70*
G90*
G04 APERTURE LIST*
%ADD10C,0.00590551*%
%ADD11R,0.06X0.06*%
%ADD12C,0.06*%
%ADD13C,0.055*%
%ADD14R,0.1181X0.1181*%
%ADD15C,0.1181*%
%ADD16R,0.1X0.1*%
%ADD17C,0.1*%
%ADD18R,0.056X0.056*%
%ADD19C,0.056*%
%ADD20R,0.055X0.055*%
%ADD21R,0.1378X0.15748*%
%ADD22R,0.1378X0.1378*%
%ADD23C,0.035*%
%ADD24C,0.05*%
%ADD25C,0.01*%
%ADD26C,0.0551181*%
%ADD27C,0.015748*%
G04 APERTURE END LIST*
G54D10*
G54D11*
X35000Y-67000D03*
G54D12*
X35000Y-66000D03*
X35000Y-65000D03*
X35000Y-64000D03*
X35000Y-63000D03*
X35000Y-62000D03*
X35000Y-61000D03*
X35000Y-60000D03*
G54D13*
X36500Y-61000D03*
X37500Y-61000D03*
X37500Y-62000D03*
X38500Y-62000D03*
X36500Y-63000D03*
X37500Y-63000D03*
X37500Y-64000D03*
X38500Y-64000D03*
X36500Y-65000D03*
X37500Y-65000D03*
X37500Y-66000D03*
X38500Y-66000D03*
X48000Y-52000D03*
X48000Y-53000D03*
X42500Y-50500D03*
X43500Y-50500D03*
G54D11*
X54500Y-75000D03*
G54D12*
X53500Y-75000D03*
X52500Y-75000D03*
X51500Y-75000D03*
X50500Y-75000D03*
G54D11*
X54500Y-73000D03*
G54D12*
X53500Y-73000D03*
X52500Y-73000D03*
X51500Y-73000D03*
X50500Y-73000D03*
G54D11*
X67500Y-55000D03*
G54D12*
X67500Y-56000D03*
X67500Y-57000D03*
X67500Y-58000D03*
G54D11*
X67500Y-59500D03*
G54D12*
X67500Y-60500D03*
X67500Y-61500D03*
X67500Y-62500D03*
G54D14*
X35000Y-55000D03*
G54D15*
X35000Y-53000D03*
G54D12*
X55503Y-58000D03*
X55503Y-57000D03*
X55503Y-56000D03*
X55503Y-55000D03*
X55503Y-54000D03*
X55503Y-53000D03*
G54D11*
X55503Y-52000D03*
G54D12*
X55503Y-59000D03*
X55503Y-60000D03*
X55503Y-61000D03*
X55503Y-62000D03*
X55503Y-63000D03*
X55503Y-64000D03*
X55503Y-65000D03*
X49496Y-65000D03*
X49496Y-64000D03*
X49496Y-63000D03*
X49496Y-62000D03*
X49496Y-61000D03*
X49496Y-60000D03*
X49496Y-59000D03*
X49496Y-58000D03*
X49496Y-57000D03*
X49496Y-56000D03*
X49496Y-55000D03*
X49496Y-54000D03*
X49496Y-53000D03*
X49496Y-52000D03*
G54D16*
X39500Y-50988D03*
G54D17*
X39500Y-52996D03*
X39500Y-55003D03*
X39500Y-57011D03*
G54D18*
X39500Y-68500D03*
G54D19*
X39500Y-71500D03*
G54D20*
X43500Y-52000D03*
G54D13*
X43500Y-53000D03*
X43500Y-54000D03*
X43500Y-55000D03*
X46500Y-55000D03*
X46500Y-54000D03*
X46500Y-53000D03*
X46500Y-52000D03*
G54D20*
X54500Y-68000D03*
G54D13*
X53500Y-68000D03*
X52500Y-68000D03*
X51500Y-68000D03*
X51500Y-71000D03*
X52500Y-71000D03*
X53500Y-71000D03*
X54500Y-71000D03*
G54D20*
X62500Y-55000D03*
G54D13*
X62500Y-56000D03*
X62500Y-57000D03*
X62500Y-58000D03*
X62500Y-59000D03*
X62500Y-60000D03*
X62500Y-61000D03*
X62500Y-62000D03*
X65500Y-62000D03*
X65500Y-61000D03*
X65500Y-60000D03*
X65500Y-59000D03*
X65500Y-58000D03*
X65500Y-57000D03*
X65500Y-56000D03*
X65500Y-55000D03*
X59500Y-55000D03*
X59500Y-56000D03*
X59500Y-58000D03*
X59500Y-59000D03*
X58000Y-55000D03*
X58000Y-56000D03*
X59500Y-60500D03*
X59500Y-61500D03*
X64500Y-52500D03*
X63500Y-52500D03*
G54D21*
X36940Y-71500D03*
G54D22*
X34578Y-71500D03*
G54D20*
X40500Y-76500D03*
G54D13*
X41500Y-76500D03*
X42500Y-76500D03*
X43500Y-76500D03*
X44500Y-76500D03*
X45500Y-76500D03*
X46500Y-76500D03*
X47500Y-76500D03*
X47500Y-73500D03*
X46500Y-73500D03*
X45500Y-73500D03*
X44500Y-73500D03*
X43500Y-73500D03*
X42500Y-73500D03*
X41500Y-73500D03*
X40500Y-73500D03*
G54D14*
X38250Y-73750D03*
G54D15*
X36250Y-73750D03*
G54D23*
X47550Y-54950D03*
X66250Y-60500D03*
X56250Y-59500D03*
X64250Y-62000D03*
X64250Y-58500D03*
X45500Y-63000D03*
X46450Y-64000D03*
X47500Y-65000D03*
X67000Y-62000D03*
X41150Y-52550D03*
X41500Y-64050D03*
X42950Y-60000D03*
X43500Y-61000D03*
X44550Y-62000D03*
X64750Y-57500D03*
X54750Y-53500D03*
X66650Y-58000D03*
X66500Y-61500D03*
X54400Y-55000D03*
X54400Y-56500D03*
X55100Y-55500D03*
X63250Y-56500D03*
G54D24*
X48000Y-58000D03*
X48000Y-68500D03*
G54D23*
X52500Y-64000D03*
G54D25*
X47600Y-55000D02*
X49496Y-55000D01*
X47550Y-54950D02*
X47600Y-55000D01*
X35000Y-66000D02*
X37500Y-66000D01*
X35000Y-64000D02*
X37500Y-64000D01*
X36500Y-65000D02*
X35000Y-65000D01*
X36500Y-63000D02*
X35000Y-63000D01*
X36500Y-61000D02*
X35000Y-61000D01*
X35000Y-62000D02*
X37500Y-62000D01*
X67500Y-60500D02*
X66250Y-60500D01*
X59500Y-58000D02*
X62500Y-58000D01*
X59500Y-59000D02*
X62500Y-59000D01*
X59500Y-56000D02*
X60000Y-56000D01*
X61000Y-57000D02*
X62500Y-57000D01*
X60000Y-56000D02*
X61000Y-57000D01*
X59500Y-60500D02*
X62000Y-60500D01*
X62000Y-60500D02*
X62500Y-60000D01*
X58000Y-55000D02*
X58250Y-55000D01*
X62000Y-55500D02*
X62500Y-56000D01*
X58750Y-55500D02*
X62000Y-55500D01*
X58250Y-55000D02*
X58750Y-55500D01*
X65500Y-59000D02*
X65000Y-59500D01*
X61500Y-59500D02*
X56250Y-59500D01*
X65000Y-59500D02*
X61500Y-59500D01*
X55503Y-58000D02*
X58000Y-58000D01*
X64250Y-62000D02*
X65500Y-62000D01*
X58500Y-58500D02*
X64250Y-58500D01*
X58000Y-58000D02*
X58500Y-58500D01*
X49496Y-63000D02*
X45500Y-63000D01*
X46450Y-64000D02*
X49496Y-64000D01*
X49496Y-65000D02*
X47500Y-65000D01*
X63000Y-62500D02*
X62500Y-62000D01*
X66500Y-62500D02*
X63000Y-62500D01*
X67000Y-62000D02*
X66500Y-62500D01*
X55300Y-53000D02*
X55503Y-53000D01*
X54800Y-52500D02*
X55300Y-53000D01*
X41200Y-52500D02*
X54800Y-52500D01*
X41150Y-52550D02*
X41200Y-52500D01*
X55503Y-63000D02*
X50550Y-63000D01*
X42050Y-63500D02*
X41500Y-64050D01*
X50050Y-63500D02*
X42050Y-63500D01*
X50550Y-63000D02*
X50050Y-63500D01*
X42950Y-60000D02*
X49496Y-60000D01*
X49496Y-61000D02*
X43500Y-61000D01*
X44550Y-62000D02*
X49496Y-62000D01*
X55503Y-57000D02*
X60250Y-57000D01*
X60750Y-57500D02*
X64750Y-57500D01*
X60250Y-57000D02*
X60750Y-57500D01*
X48000Y-53000D02*
X48500Y-53500D01*
X50000Y-53500D02*
X54750Y-53500D01*
X48500Y-53500D02*
X50000Y-53500D01*
X46500Y-53000D02*
X48000Y-53000D01*
X67500Y-61500D02*
X66500Y-61500D01*
X66650Y-58000D02*
X65500Y-58000D01*
X39500Y-52996D02*
X43496Y-52996D01*
X43496Y-52996D02*
X43500Y-53000D01*
G54D26*
X35000Y-53000D02*
X39496Y-53000D01*
X39496Y-53000D02*
X39500Y-52996D01*
G54D25*
X38500Y-66000D02*
X38500Y-65800D01*
X55003Y-62500D02*
X55503Y-62000D01*
X41800Y-62500D02*
X55003Y-62500D01*
X38500Y-65800D02*
X41800Y-62500D01*
X38500Y-62000D02*
X38500Y-60850D01*
X54400Y-55000D02*
X55503Y-55000D01*
X42850Y-56500D02*
X54400Y-56500D01*
X38500Y-60850D02*
X42850Y-56500D01*
X37500Y-61000D02*
X37850Y-61000D01*
X43350Y-55500D02*
X55100Y-55500D01*
X37850Y-61000D02*
X43350Y-55500D01*
X67500Y-57000D02*
X66500Y-57000D01*
X66000Y-56500D02*
X63250Y-56500D01*
X66500Y-57000D02*
X66000Y-56500D01*
G54D27*
X39500Y-68500D02*
X48000Y-68500D01*
X48000Y-58000D02*
X49496Y-58000D01*
G54D25*
X37500Y-65000D02*
X38400Y-65000D01*
X55003Y-60500D02*
X55503Y-60000D01*
X42900Y-60500D02*
X55003Y-60500D01*
X38400Y-65000D02*
X42900Y-60500D01*
X38500Y-64000D02*
X38500Y-63600D01*
X55003Y-58500D02*
X55503Y-59000D01*
X43600Y-58500D02*
X55003Y-58500D01*
X38500Y-63600D02*
X43600Y-58500D01*
X37500Y-63000D02*
X38300Y-63000D01*
X54003Y-57500D02*
X55503Y-56000D01*
X49000Y-57500D02*
X54003Y-57500D01*
X48500Y-57000D02*
X49000Y-57500D01*
X44300Y-57000D02*
X48500Y-57000D01*
X38300Y-63000D02*
X44300Y-57000D01*
G54D27*
X38250Y-73750D02*
X38250Y-72809D01*
X38250Y-72809D02*
X36940Y-71500D01*
X36940Y-71500D02*
X39500Y-71500D01*
G54D26*
X35000Y-55000D02*
X39496Y-55000D01*
X39496Y-55000D02*
X39500Y-55003D01*
G54D25*
X52500Y-64000D02*
X55503Y-64000D01*
X59500Y-55000D02*
X62500Y-55000D01*
G54D10*
G36*
X55273Y-54499D02*
X55192Y-54533D01*
X55037Y-54688D01*
X55032Y-54700D01*
X54701Y-54700D01*
X54641Y-54639D01*
X54484Y-54575D01*
X54315Y-54574D01*
X54159Y-54639D01*
X54039Y-54758D01*
X53975Y-54915D01*
X53974Y-55084D01*
X54022Y-55200D01*
X46985Y-55200D01*
X47024Y-55104D01*
X47025Y-54896D01*
X46945Y-54703D01*
X46797Y-54555D01*
X46664Y-54499D01*
X46797Y-54445D01*
X46944Y-54297D01*
X47024Y-54104D01*
X47025Y-53896D01*
X46945Y-53703D01*
X46797Y-53555D01*
X46664Y-53499D01*
X46797Y-53445D01*
X46942Y-53300D01*
X47557Y-53300D01*
X47702Y-53444D01*
X47895Y-53524D01*
X48100Y-53525D01*
X48287Y-53712D01*
X48287Y-53712D01*
X48385Y-53777D01*
X48500Y-53800D01*
X48983Y-53800D01*
X48946Y-53890D01*
X48945Y-54108D01*
X49029Y-54311D01*
X49184Y-54465D01*
X49386Y-54549D01*
X49604Y-54550D01*
X49807Y-54466D01*
X49962Y-54311D01*
X50045Y-54109D01*
X50046Y-53891D01*
X50008Y-53800D01*
X54448Y-53800D01*
X54508Y-53860D01*
X54665Y-53924D01*
X54834Y-53925D01*
X54961Y-53872D01*
X54954Y-53890D01*
X54953Y-54108D01*
X55037Y-54311D01*
X55191Y-54465D01*
X55273Y-54499D01*
X55273Y-54499D01*
G37*
G54D25*
X55273Y-54499D02*
X55192Y-54533D01*
X55037Y-54688D01*
X55032Y-54700D01*
X54701Y-54700D01*
X54641Y-54639D01*
X54484Y-54575D01*
X54315Y-54574D01*
X54159Y-54639D01*
X54039Y-54758D01*
X53975Y-54915D01*
X53974Y-55084D01*
X54022Y-55200D01*
X46985Y-55200D01*
X47024Y-55104D01*
X47025Y-54896D01*
X46945Y-54703D01*
X46797Y-54555D01*
X46664Y-54499D01*
X46797Y-54445D01*
X46944Y-54297D01*
X47024Y-54104D01*
X47025Y-53896D01*
X46945Y-53703D01*
X46797Y-53555D01*
X46664Y-53499D01*
X46797Y-53445D01*
X46942Y-53300D01*
X47557Y-53300D01*
X47702Y-53444D01*
X47895Y-53524D01*
X48100Y-53525D01*
X48287Y-53712D01*
X48287Y-53712D01*
X48385Y-53777D01*
X48500Y-53800D01*
X48983Y-53800D01*
X48946Y-53890D01*
X48945Y-54108D01*
X49029Y-54311D01*
X49184Y-54465D01*
X49386Y-54549D01*
X49604Y-54550D01*
X49807Y-54466D01*
X49962Y-54311D01*
X50045Y-54109D01*
X50046Y-53891D01*
X50008Y-53800D01*
X54448Y-53800D01*
X54508Y-53860D01*
X54665Y-53924D01*
X54834Y-53925D01*
X54961Y-53872D01*
X54954Y-53890D01*
X54953Y-54108D01*
X55037Y-54311D01*
X55191Y-54465D01*
X55273Y-54499D01*
G54D10*
G36*
X68730Y-77230D02*
X68492Y-77230D01*
X68492Y-76103D01*
X68492Y-46103D01*
X68379Y-45830D01*
X68170Y-45621D01*
X67898Y-45508D01*
X67603Y-45507D01*
X67330Y-45620D01*
X67121Y-45829D01*
X67008Y-46101D01*
X67007Y-46396D01*
X67120Y-46669D01*
X67329Y-46878D01*
X67601Y-46991D01*
X67896Y-46992D01*
X68169Y-46879D01*
X68378Y-46670D01*
X68491Y-46398D01*
X68492Y-46103D01*
X68492Y-76103D01*
X68379Y-75830D01*
X68170Y-75621D01*
X68050Y-75571D01*
X68050Y-62391D01*
X67966Y-62188D01*
X67811Y-62034D01*
X67730Y-62000D01*
X67811Y-61966D01*
X67965Y-61811D01*
X68049Y-61609D01*
X68050Y-61391D01*
X67966Y-61188D01*
X67811Y-61034D01*
X67730Y-61000D01*
X67811Y-60966D01*
X67965Y-60811D01*
X68049Y-60609D01*
X68050Y-60391D01*
X67966Y-60188D01*
X67827Y-60050D01*
X67849Y-60050D01*
X67941Y-60012D01*
X68011Y-59941D01*
X68049Y-59849D01*
X68050Y-59750D01*
X68050Y-59150D01*
X68012Y-59058D01*
X67941Y-58988D01*
X67849Y-58950D01*
X67750Y-58949D01*
X67150Y-58949D01*
X67058Y-58987D01*
X66988Y-59058D01*
X66950Y-59150D01*
X66949Y-59249D01*
X66949Y-59849D01*
X66987Y-59941D01*
X67058Y-60011D01*
X67150Y-60049D01*
X67172Y-60049D01*
X67034Y-60188D01*
X67029Y-60200D01*
X66551Y-60200D01*
X66491Y-60139D01*
X66334Y-60075D01*
X66165Y-60074D01*
X66010Y-60139D01*
X66024Y-60104D01*
X66025Y-59896D01*
X65945Y-59703D01*
X65797Y-59555D01*
X65664Y-59499D01*
X65797Y-59445D01*
X65944Y-59297D01*
X66024Y-59104D01*
X66025Y-58896D01*
X65945Y-58703D01*
X65797Y-58555D01*
X65664Y-58499D01*
X65797Y-58445D01*
X65942Y-58300D01*
X66348Y-58300D01*
X66408Y-58360D01*
X66565Y-58424D01*
X66734Y-58425D01*
X66890Y-58360D01*
X67006Y-58245D01*
X67033Y-58311D01*
X67188Y-58465D01*
X67390Y-58549D01*
X67608Y-58550D01*
X67811Y-58466D01*
X67965Y-58311D01*
X68049Y-58109D01*
X68050Y-57891D01*
X67966Y-57688D01*
X67811Y-57534D01*
X67730Y-57500D01*
X67811Y-57466D01*
X67965Y-57311D01*
X68049Y-57109D01*
X68050Y-56891D01*
X67966Y-56688D01*
X67811Y-56534D01*
X67730Y-56500D01*
X67811Y-56466D01*
X67965Y-56311D01*
X68049Y-56109D01*
X68050Y-55891D01*
X67966Y-55688D01*
X67827Y-55550D01*
X67849Y-55550D01*
X67941Y-55512D01*
X68011Y-55441D01*
X68049Y-55349D01*
X68050Y-55250D01*
X68050Y-54650D01*
X68012Y-54558D01*
X67941Y-54488D01*
X67849Y-54450D01*
X67750Y-54449D01*
X67150Y-54449D01*
X67058Y-54487D01*
X66988Y-54558D01*
X66950Y-54650D01*
X66949Y-54749D01*
X66949Y-55349D01*
X66987Y-55441D01*
X67058Y-55511D01*
X67150Y-55549D01*
X67172Y-55549D01*
X67034Y-55688D01*
X66950Y-55890D01*
X66949Y-56108D01*
X67033Y-56311D01*
X67188Y-56465D01*
X67269Y-56499D01*
X67188Y-56533D01*
X67034Y-56688D01*
X67029Y-56700D01*
X66624Y-56700D01*
X66212Y-56287D01*
X66114Y-56222D01*
X66000Y-56200D01*
X65985Y-56200D01*
X66024Y-56104D01*
X66025Y-55896D01*
X65945Y-55703D01*
X65797Y-55555D01*
X65604Y-55475D01*
X65396Y-55474D01*
X65203Y-55554D01*
X65055Y-55702D01*
X64975Y-55895D01*
X64974Y-56103D01*
X65014Y-56200D01*
X64025Y-56200D01*
X64025Y-52396D01*
X63945Y-52203D01*
X63797Y-52055D01*
X63604Y-51975D01*
X63396Y-51974D01*
X63203Y-52054D01*
X63055Y-52202D01*
X62975Y-52395D01*
X62974Y-52603D01*
X63054Y-52797D01*
X63202Y-52944D01*
X63395Y-53024D01*
X63603Y-53025D01*
X63797Y-52945D01*
X63944Y-52797D01*
X64024Y-52604D01*
X64025Y-52396D01*
X64025Y-56200D01*
X63551Y-56200D01*
X63491Y-56139D01*
X63334Y-56075D01*
X63165Y-56074D01*
X63010Y-56139D01*
X63024Y-56104D01*
X63025Y-55896D01*
X62945Y-55703D01*
X62797Y-55555D01*
X62725Y-55525D01*
X62824Y-55525D01*
X62916Y-55487D01*
X62986Y-55416D01*
X63024Y-55324D01*
X63025Y-55225D01*
X63025Y-54675D01*
X62987Y-54583D01*
X62916Y-54513D01*
X62824Y-54475D01*
X62725Y-54474D01*
X62175Y-54474D01*
X62083Y-54512D01*
X62013Y-54583D01*
X61975Y-54675D01*
X61975Y-54700D01*
X59942Y-54700D01*
X59797Y-54555D01*
X59604Y-54475D01*
X59396Y-54474D01*
X59203Y-54554D01*
X59055Y-54702D01*
X58975Y-54895D01*
X58974Y-55103D01*
X59014Y-55200D01*
X58874Y-55200D01*
X58493Y-54818D01*
X58445Y-54703D01*
X58297Y-54555D01*
X58104Y-54475D01*
X57896Y-54474D01*
X57703Y-54554D01*
X57555Y-54702D01*
X57475Y-54895D01*
X57474Y-55103D01*
X57554Y-55297D01*
X57702Y-55444D01*
X57835Y-55500D01*
X57703Y-55554D01*
X57555Y-55702D01*
X57475Y-55895D01*
X57474Y-56103D01*
X57554Y-56297D01*
X57702Y-56444D01*
X57895Y-56524D01*
X58103Y-56525D01*
X58297Y-56445D01*
X58444Y-56297D01*
X58524Y-56104D01*
X58525Y-55896D01*
X58445Y-55703D01*
X58297Y-55555D01*
X58164Y-55499D01*
X58278Y-55452D01*
X58537Y-55712D01*
X58537Y-55712D01*
X58635Y-55777D01*
X58750Y-55800D01*
X59014Y-55800D01*
X58975Y-55895D01*
X58974Y-56103D01*
X59054Y-56297D01*
X59202Y-56444D01*
X59395Y-56524D01*
X59603Y-56525D01*
X59797Y-56445D01*
X59909Y-56333D01*
X60282Y-56706D01*
X60250Y-56700D01*
X55975Y-56700D01*
X55970Y-56688D01*
X55815Y-56534D01*
X55734Y-56500D01*
X55815Y-56466D01*
X55969Y-56311D01*
X56053Y-56109D01*
X56054Y-55891D01*
X55970Y-55688D01*
X55815Y-55534D01*
X55734Y-55500D01*
X55815Y-55466D01*
X55969Y-55311D01*
X56053Y-55109D01*
X56054Y-54891D01*
X55970Y-54688D01*
X55815Y-54534D01*
X55734Y-54500D01*
X55815Y-54466D01*
X55969Y-54311D01*
X56053Y-54109D01*
X56054Y-53891D01*
X55970Y-53688D01*
X55815Y-53534D01*
X55734Y-53500D01*
X55815Y-53466D01*
X55969Y-53311D01*
X56053Y-53109D01*
X56054Y-52891D01*
X55970Y-52688D01*
X55831Y-52550D01*
X55853Y-52550D01*
X55945Y-52512D01*
X56015Y-52441D01*
X56053Y-52349D01*
X56053Y-52250D01*
X56053Y-51650D01*
X56016Y-51558D01*
X55945Y-51488D01*
X55933Y-51482D01*
X55933Y-50614D01*
X55829Y-50363D01*
X55637Y-50171D01*
X55386Y-50067D01*
X55114Y-50066D01*
X54863Y-50170D01*
X54671Y-50362D01*
X54567Y-50613D01*
X54566Y-50885D01*
X54670Y-51136D01*
X54862Y-51328D01*
X55113Y-51432D01*
X55385Y-51433D01*
X55636Y-51329D01*
X55828Y-51137D01*
X55932Y-50886D01*
X55933Y-50614D01*
X55933Y-51482D01*
X55853Y-51450D01*
X55754Y-51449D01*
X55154Y-51449D01*
X55062Y-51487D01*
X54992Y-51558D01*
X54953Y-51650D01*
X54953Y-51749D01*
X54953Y-52248D01*
X54914Y-52222D01*
X54800Y-52200D01*
X50433Y-52200D01*
X50433Y-50614D01*
X50329Y-50363D01*
X50137Y-50171D01*
X49886Y-50067D01*
X49614Y-50066D01*
X49363Y-50170D01*
X49171Y-50362D01*
X49067Y-50613D01*
X49066Y-50885D01*
X49170Y-51136D01*
X49362Y-51328D01*
X49613Y-51432D01*
X49885Y-51433D01*
X50136Y-51329D01*
X50328Y-51137D01*
X50432Y-50886D01*
X50433Y-50614D01*
X50433Y-52200D01*
X50008Y-52200D01*
X50045Y-52109D01*
X50046Y-51891D01*
X49962Y-51688D01*
X49808Y-51534D01*
X49605Y-51450D01*
X49387Y-51449D01*
X49184Y-51533D01*
X49030Y-51688D01*
X48946Y-51890D01*
X48945Y-52108D01*
X48983Y-52200D01*
X46985Y-52200D01*
X47024Y-52104D01*
X47025Y-51896D01*
X46945Y-51703D01*
X46797Y-51555D01*
X46604Y-51475D01*
X46396Y-51474D01*
X46203Y-51554D01*
X46055Y-51702D01*
X45975Y-51895D01*
X45974Y-52103D01*
X46014Y-52200D01*
X44025Y-52200D01*
X44025Y-50396D01*
X43945Y-50203D01*
X43797Y-50055D01*
X43604Y-49975D01*
X43396Y-49974D01*
X43203Y-50054D01*
X43055Y-50202D01*
X42999Y-50335D01*
X42945Y-50203D01*
X42797Y-50055D01*
X42604Y-49975D01*
X42396Y-49974D01*
X42203Y-50054D01*
X42055Y-50202D01*
X41975Y-50395D01*
X41974Y-50603D01*
X42054Y-50797D01*
X42202Y-50944D01*
X42395Y-51024D01*
X42603Y-51025D01*
X42797Y-50945D01*
X42944Y-50797D01*
X43000Y-50664D01*
X43054Y-50797D01*
X43202Y-50944D01*
X43395Y-51024D01*
X43603Y-51025D01*
X43797Y-50945D01*
X43944Y-50797D01*
X44024Y-50604D01*
X44025Y-50396D01*
X44025Y-52200D01*
X44025Y-52200D01*
X44025Y-51675D01*
X43987Y-51583D01*
X43916Y-51513D01*
X43824Y-51475D01*
X43725Y-51474D01*
X43175Y-51474D01*
X43083Y-51512D01*
X43013Y-51583D01*
X42975Y-51675D01*
X42974Y-51774D01*
X42974Y-52200D01*
X41401Y-52200D01*
X41391Y-52189D01*
X41234Y-52125D01*
X41065Y-52124D01*
X40909Y-52189D01*
X40789Y-52308D01*
X40725Y-52465D01*
X40724Y-52634D01*
X40750Y-52696D01*
X40250Y-52696D01*
X40250Y-51438D01*
X40250Y-50438D01*
X40212Y-50346D01*
X40141Y-50276D01*
X40049Y-50238D01*
X39950Y-50238D01*
X38950Y-50238D01*
X38858Y-50276D01*
X38788Y-50346D01*
X38750Y-50438D01*
X38749Y-50537D01*
X38749Y-51537D01*
X38787Y-51629D01*
X38858Y-51700D01*
X38950Y-51738D01*
X39049Y-51738D01*
X40049Y-51738D01*
X40141Y-51700D01*
X40211Y-51629D01*
X40249Y-51538D01*
X40250Y-51438D01*
X40250Y-52696D01*
X40187Y-52696D01*
X40136Y-52571D01*
X39925Y-52360D01*
X39649Y-52246D01*
X39351Y-52245D01*
X39075Y-52359D01*
X38960Y-52474D01*
X35662Y-52474D01*
X35476Y-52287D01*
X35167Y-52159D01*
X34992Y-52159D01*
X34992Y-46103D01*
X34879Y-45830D01*
X34670Y-45621D01*
X34398Y-45508D01*
X34103Y-45507D01*
X33830Y-45620D01*
X33621Y-45829D01*
X33508Y-46101D01*
X33507Y-46396D01*
X33620Y-46669D01*
X33829Y-46878D01*
X34101Y-46991D01*
X34396Y-46992D01*
X34669Y-46879D01*
X34878Y-46670D01*
X34991Y-46398D01*
X34992Y-46103D01*
X34992Y-52159D01*
X34833Y-52159D01*
X34524Y-52287D01*
X34287Y-52523D01*
X34159Y-52832D01*
X34159Y-53166D01*
X34287Y-53475D01*
X34523Y-53712D01*
X34832Y-53840D01*
X35166Y-53840D01*
X35475Y-53712D01*
X35663Y-53525D01*
X38968Y-53525D01*
X39074Y-53631D01*
X39350Y-53745D01*
X39648Y-53746D01*
X39924Y-53632D01*
X40135Y-53421D01*
X40187Y-53296D01*
X43054Y-53296D01*
X43054Y-53297D01*
X43202Y-53444D01*
X43335Y-53500D01*
X43203Y-53554D01*
X43055Y-53702D01*
X42975Y-53895D01*
X42974Y-54103D01*
X43054Y-54297D01*
X43202Y-54444D01*
X43335Y-54500D01*
X43203Y-54554D01*
X43055Y-54702D01*
X42975Y-54895D01*
X42974Y-55103D01*
X43054Y-55297D01*
X43091Y-55334D01*
X40250Y-58175D01*
X40250Y-56863D01*
X40250Y-54855D01*
X40136Y-54579D01*
X39925Y-54368D01*
X39649Y-54254D01*
X39351Y-54253D01*
X39075Y-54367D01*
X38968Y-54474D01*
X35840Y-54474D01*
X35840Y-54359D01*
X35802Y-54268D01*
X35732Y-54197D01*
X35640Y-54159D01*
X35540Y-54159D01*
X34359Y-54159D01*
X34268Y-54197D01*
X34197Y-54267D01*
X34159Y-54359D01*
X34159Y-54459D01*
X34159Y-55640D01*
X34197Y-55731D01*
X34267Y-55802D01*
X34359Y-55840D01*
X34459Y-55840D01*
X35640Y-55840D01*
X35731Y-55802D01*
X35802Y-55732D01*
X35840Y-55640D01*
X35840Y-55540D01*
X35840Y-55525D01*
X38961Y-55525D01*
X39074Y-55639D01*
X39350Y-55753D01*
X39648Y-55754D01*
X39924Y-55640D01*
X40135Y-55429D01*
X40249Y-55153D01*
X40250Y-54855D01*
X40250Y-56863D01*
X40136Y-56587D01*
X39925Y-56376D01*
X39649Y-56261D01*
X39351Y-56261D01*
X39075Y-56375D01*
X38864Y-56586D01*
X38750Y-56861D01*
X38749Y-57160D01*
X38863Y-57436D01*
X39074Y-57647D01*
X39350Y-57761D01*
X39648Y-57761D01*
X39924Y-57648D01*
X40135Y-57437D01*
X40249Y-57161D01*
X40250Y-56863D01*
X40250Y-58175D01*
X37834Y-60591D01*
X37797Y-60555D01*
X37604Y-60475D01*
X37396Y-60474D01*
X37203Y-60554D01*
X37055Y-60702D01*
X36999Y-60835D01*
X36945Y-60703D01*
X36797Y-60555D01*
X36604Y-60475D01*
X36396Y-60474D01*
X36203Y-60554D01*
X36057Y-60700D01*
X35471Y-60700D01*
X35466Y-60688D01*
X35311Y-60534D01*
X35230Y-60500D01*
X35311Y-60466D01*
X35465Y-60311D01*
X35549Y-60109D01*
X35550Y-59891D01*
X35466Y-59688D01*
X35311Y-59534D01*
X35109Y-59450D01*
X34891Y-59449D01*
X34688Y-59533D01*
X34534Y-59688D01*
X34450Y-59890D01*
X34449Y-60108D01*
X34533Y-60311D01*
X34688Y-60465D01*
X34769Y-60499D01*
X34688Y-60533D01*
X34534Y-60688D01*
X34450Y-60890D01*
X34449Y-61108D01*
X34533Y-61311D01*
X34688Y-61465D01*
X34769Y-61499D01*
X34688Y-61533D01*
X34534Y-61688D01*
X34450Y-61890D01*
X34449Y-62108D01*
X34533Y-62311D01*
X34688Y-62465D01*
X34769Y-62499D01*
X34688Y-62533D01*
X34534Y-62688D01*
X34450Y-62890D01*
X34449Y-63108D01*
X34533Y-63311D01*
X34688Y-63465D01*
X34769Y-63499D01*
X34688Y-63533D01*
X34534Y-63688D01*
X34450Y-63890D01*
X34449Y-64108D01*
X34533Y-64311D01*
X34688Y-64465D01*
X34769Y-64499D01*
X34688Y-64533D01*
X34534Y-64688D01*
X34450Y-64890D01*
X34449Y-65108D01*
X34533Y-65311D01*
X34688Y-65465D01*
X34769Y-65499D01*
X34688Y-65533D01*
X34534Y-65688D01*
X34450Y-65890D01*
X34449Y-66108D01*
X34533Y-66311D01*
X34688Y-66465D01*
X34890Y-66549D01*
X35108Y-66550D01*
X35311Y-66466D01*
X35465Y-66311D01*
X35470Y-66300D01*
X37057Y-66300D01*
X37202Y-66444D01*
X37395Y-66524D01*
X37603Y-66525D01*
X37797Y-66445D01*
X37944Y-66297D01*
X38000Y-66164D01*
X38054Y-66297D01*
X38202Y-66444D01*
X38395Y-66524D01*
X38603Y-66525D01*
X38797Y-66445D01*
X38944Y-66297D01*
X39024Y-66104D01*
X39025Y-65896D01*
X38967Y-65756D01*
X41924Y-62800D01*
X45122Y-62800D01*
X45075Y-62915D01*
X45074Y-63084D01*
X45122Y-63200D01*
X42050Y-63200D01*
X41935Y-63222D01*
X41837Y-63287D01*
X41500Y-63625D01*
X41415Y-63624D01*
X41259Y-63689D01*
X41139Y-63808D01*
X41075Y-63965D01*
X41074Y-64134D01*
X41139Y-64290D01*
X41258Y-64410D01*
X41415Y-64474D01*
X41584Y-64475D01*
X41740Y-64410D01*
X41860Y-64291D01*
X41924Y-64134D01*
X41925Y-64049D01*
X42174Y-63800D01*
X46072Y-63800D01*
X46025Y-63915D01*
X46024Y-64084D01*
X46089Y-64240D01*
X46208Y-64360D01*
X46365Y-64424D01*
X46534Y-64425D01*
X46690Y-64360D01*
X46751Y-64300D01*
X49024Y-64300D01*
X49029Y-64311D01*
X49184Y-64465D01*
X49265Y-64499D01*
X49184Y-64533D01*
X49030Y-64688D01*
X49025Y-64700D01*
X47801Y-64700D01*
X47741Y-64639D01*
X47584Y-64575D01*
X47415Y-64574D01*
X47259Y-64639D01*
X47139Y-64758D01*
X47075Y-64915D01*
X47074Y-65084D01*
X47139Y-65240D01*
X47258Y-65360D01*
X47415Y-65424D01*
X47584Y-65425D01*
X47740Y-65360D01*
X47801Y-65300D01*
X49024Y-65300D01*
X49029Y-65311D01*
X49184Y-65465D01*
X49386Y-65549D01*
X49604Y-65550D01*
X49807Y-65466D01*
X49962Y-65311D01*
X50045Y-65109D01*
X50046Y-64891D01*
X49962Y-64688D01*
X49808Y-64534D01*
X49726Y-64500D01*
X49807Y-64466D01*
X49962Y-64311D01*
X50045Y-64109D01*
X50046Y-63891D01*
X50008Y-63800D01*
X50050Y-63800D01*
X50050Y-63799D01*
X50164Y-63777D01*
X50164Y-63777D01*
X50262Y-63712D01*
X50674Y-63300D01*
X55032Y-63300D01*
X55037Y-63311D01*
X55191Y-63465D01*
X55273Y-63499D01*
X55192Y-63533D01*
X55037Y-63688D01*
X55032Y-63700D01*
X52801Y-63700D01*
X52741Y-63639D01*
X52584Y-63575D01*
X52415Y-63574D01*
X52259Y-63639D01*
X52139Y-63758D01*
X52075Y-63915D01*
X52074Y-64084D01*
X52139Y-64240D01*
X52258Y-64360D01*
X52415Y-64424D01*
X52584Y-64425D01*
X52740Y-64360D01*
X52801Y-64300D01*
X55032Y-64300D01*
X55037Y-64311D01*
X55191Y-64465D01*
X55273Y-64499D01*
X55192Y-64533D01*
X55037Y-64688D01*
X54954Y-64890D01*
X54953Y-65108D01*
X55037Y-65311D01*
X55191Y-65465D01*
X55394Y-65549D01*
X55612Y-65550D01*
X55815Y-65466D01*
X55969Y-65311D01*
X56053Y-65109D01*
X56054Y-64891D01*
X55970Y-64688D01*
X55815Y-64534D01*
X55734Y-64500D01*
X55815Y-64466D01*
X55969Y-64311D01*
X56053Y-64109D01*
X56054Y-63891D01*
X55970Y-63688D01*
X55815Y-63534D01*
X55734Y-63500D01*
X55815Y-63466D01*
X55969Y-63311D01*
X56053Y-63109D01*
X56054Y-62891D01*
X55970Y-62688D01*
X55815Y-62534D01*
X55734Y-62500D01*
X55815Y-62466D01*
X55969Y-62311D01*
X56053Y-62109D01*
X56054Y-61891D01*
X55970Y-61688D01*
X55815Y-61534D01*
X55734Y-61500D01*
X55815Y-61466D01*
X55969Y-61311D01*
X56053Y-61109D01*
X56054Y-60891D01*
X55970Y-60688D01*
X55815Y-60534D01*
X55734Y-60500D01*
X55815Y-60466D01*
X55969Y-60311D01*
X56053Y-60109D01*
X56054Y-59891D01*
X56047Y-59876D01*
X56165Y-59924D01*
X56334Y-59925D01*
X56490Y-59860D01*
X56551Y-59800D01*
X61500Y-59800D01*
X62014Y-59800D01*
X61975Y-59895D01*
X61974Y-60100D01*
X61875Y-60200D01*
X59942Y-60200D01*
X59797Y-60055D01*
X59604Y-59975D01*
X59396Y-59974D01*
X59203Y-60054D01*
X59055Y-60202D01*
X58975Y-60395D01*
X58974Y-60603D01*
X59054Y-60797D01*
X59202Y-60944D01*
X59335Y-61000D01*
X59203Y-61054D01*
X59055Y-61202D01*
X58975Y-61395D01*
X58974Y-61603D01*
X59054Y-61797D01*
X59202Y-61944D01*
X59395Y-62024D01*
X59603Y-62025D01*
X59797Y-61945D01*
X59944Y-61797D01*
X60024Y-61604D01*
X60025Y-61396D01*
X59945Y-61203D01*
X59797Y-61055D01*
X59664Y-60999D01*
X59797Y-60945D01*
X59942Y-60800D01*
X62000Y-60800D01*
X62000Y-60799D01*
X62015Y-60796D01*
X61975Y-60895D01*
X61974Y-61103D01*
X62054Y-61297D01*
X62202Y-61444D01*
X62335Y-61500D01*
X62203Y-61554D01*
X62055Y-61702D01*
X61975Y-61895D01*
X61974Y-62103D01*
X62054Y-62297D01*
X62202Y-62444D01*
X62395Y-62524D01*
X62600Y-62525D01*
X62787Y-62712D01*
X62787Y-62712D01*
X62885Y-62777D01*
X63000Y-62800D01*
X66500Y-62800D01*
X66500Y-62799D01*
X66614Y-62777D01*
X66614Y-62777D01*
X66712Y-62712D01*
X66950Y-62474D01*
X66949Y-62608D01*
X67033Y-62811D01*
X67188Y-62965D01*
X67390Y-63049D01*
X67608Y-63050D01*
X67811Y-62966D01*
X67965Y-62811D01*
X68049Y-62609D01*
X68050Y-62391D01*
X68050Y-75571D01*
X67898Y-75508D01*
X67603Y-75507D01*
X67330Y-75620D01*
X67121Y-75829D01*
X67008Y-76101D01*
X67007Y-76396D01*
X67120Y-76669D01*
X67329Y-76878D01*
X67601Y-76991D01*
X67896Y-76992D01*
X68169Y-76879D01*
X68378Y-76670D01*
X68491Y-76398D01*
X68492Y-76103D01*
X68492Y-77230D01*
X55933Y-77230D01*
X55933Y-66114D01*
X55829Y-65863D01*
X55637Y-65671D01*
X55386Y-65567D01*
X55114Y-65566D01*
X54863Y-65670D01*
X54671Y-65862D01*
X54567Y-66113D01*
X54566Y-66385D01*
X54670Y-66636D01*
X54862Y-66828D01*
X55113Y-66932D01*
X55385Y-66933D01*
X55636Y-66829D01*
X55828Y-66637D01*
X55932Y-66386D01*
X55933Y-66114D01*
X55933Y-77230D01*
X55050Y-77230D01*
X55050Y-75250D01*
X55050Y-74650D01*
X55050Y-73250D01*
X55050Y-72650D01*
X55025Y-72590D01*
X55025Y-70896D01*
X54945Y-70703D01*
X54797Y-70555D01*
X54604Y-70475D01*
X54396Y-70474D01*
X54203Y-70554D01*
X54055Y-70702D01*
X54025Y-70774D01*
X54025Y-67896D01*
X53945Y-67703D01*
X53797Y-67555D01*
X53604Y-67475D01*
X53396Y-67474D01*
X53203Y-67554D01*
X53055Y-67702D01*
X52999Y-67835D01*
X52945Y-67703D01*
X52797Y-67555D01*
X52604Y-67475D01*
X52396Y-67474D01*
X52203Y-67554D01*
X52055Y-67702D01*
X51999Y-67835D01*
X51945Y-67703D01*
X51797Y-67555D01*
X51604Y-67475D01*
X51396Y-67474D01*
X51203Y-67554D01*
X51055Y-67702D01*
X50975Y-67895D01*
X50974Y-68103D01*
X51054Y-68297D01*
X51202Y-68444D01*
X51395Y-68524D01*
X51603Y-68525D01*
X51797Y-68445D01*
X51944Y-68297D01*
X52000Y-68164D01*
X52054Y-68297D01*
X52202Y-68444D01*
X52395Y-68524D01*
X52603Y-68525D01*
X52797Y-68445D01*
X52944Y-68297D01*
X53000Y-68164D01*
X53054Y-68297D01*
X53202Y-68444D01*
X53395Y-68524D01*
X53603Y-68525D01*
X53797Y-68445D01*
X53944Y-68297D01*
X54024Y-68104D01*
X54025Y-67896D01*
X54025Y-70774D01*
X53999Y-70835D01*
X53945Y-70703D01*
X53797Y-70555D01*
X53604Y-70475D01*
X53396Y-70474D01*
X53203Y-70554D01*
X53055Y-70702D01*
X52999Y-70835D01*
X52945Y-70703D01*
X52797Y-70555D01*
X52604Y-70475D01*
X52396Y-70474D01*
X52203Y-70554D01*
X52055Y-70702D01*
X51999Y-70835D01*
X51945Y-70703D01*
X51797Y-70555D01*
X51604Y-70475D01*
X51396Y-70474D01*
X51203Y-70554D01*
X51055Y-70702D01*
X50975Y-70895D01*
X50974Y-71103D01*
X51054Y-71297D01*
X51202Y-71444D01*
X51395Y-71524D01*
X51603Y-71525D01*
X51797Y-71445D01*
X51944Y-71297D01*
X52000Y-71164D01*
X52054Y-71297D01*
X52202Y-71444D01*
X52395Y-71524D01*
X52603Y-71525D01*
X52797Y-71445D01*
X52944Y-71297D01*
X53000Y-71164D01*
X53054Y-71297D01*
X53202Y-71444D01*
X53395Y-71524D01*
X53603Y-71525D01*
X53797Y-71445D01*
X53944Y-71297D01*
X54000Y-71164D01*
X54054Y-71297D01*
X54202Y-71444D01*
X54395Y-71524D01*
X54603Y-71525D01*
X54797Y-71445D01*
X54944Y-71297D01*
X55024Y-71104D01*
X55025Y-70896D01*
X55025Y-72590D01*
X55012Y-72558D01*
X54941Y-72488D01*
X54849Y-72450D01*
X54750Y-72449D01*
X54150Y-72449D01*
X54058Y-72487D01*
X53988Y-72558D01*
X53950Y-72650D01*
X53950Y-72672D01*
X53811Y-72534D01*
X53609Y-72450D01*
X53391Y-72449D01*
X53188Y-72533D01*
X53034Y-72688D01*
X53000Y-72769D01*
X52966Y-72688D01*
X52811Y-72534D01*
X52609Y-72450D01*
X52391Y-72449D01*
X52188Y-72533D01*
X52034Y-72688D01*
X52000Y-72769D01*
X51966Y-72688D01*
X51811Y-72534D01*
X51609Y-72450D01*
X51391Y-72449D01*
X51188Y-72533D01*
X51034Y-72688D01*
X51000Y-72769D01*
X50966Y-72688D01*
X50811Y-72534D01*
X50609Y-72450D01*
X50433Y-72449D01*
X50433Y-66114D01*
X50329Y-65863D01*
X50137Y-65671D01*
X49886Y-65567D01*
X49614Y-65566D01*
X49363Y-65670D01*
X49171Y-65862D01*
X49067Y-66113D01*
X49066Y-66385D01*
X49170Y-66636D01*
X49362Y-66828D01*
X49613Y-66932D01*
X49885Y-66933D01*
X50136Y-66829D01*
X50328Y-66637D01*
X50432Y-66386D01*
X50433Y-66114D01*
X50433Y-72449D01*
X50391Y-72449D01*
X50188Y-72533D01*
X50034Y-72688D01*
X49950Y-72890D01*
X49949Y-73108D01*
X50033Y-73311D01*
X50188Y-73465D01*
X50390Y-73549D01*
X50608Y-73550D01*
X50811Y-73466D01*
X50965Y-73311D01*
X50999Y-73230D01*
X51033Y-73311D01*
X51188Y-73465D01*
X51390Y-73549D01*
X51608Y-73550D01*
X51811Y-73466D01*
X51965Y-73311D01*
X51999Y-73230D01*
X52033Y-73311D01*
X52188Y-73465D01*
X52390Y-73549D01*
X52608Y-73550D01*
X52811Y-73466D01*
X52965Y-73311D01*
X52999Y-73230D01*
X53033Y-73311D01*
X53188Y-73465D01*
X53390Y-73549D01*
X53608Y-73550D01*
X53811Y-73466D01*
X53949Y-73327D01*
X53949Y-73349D01*
X53987Y-73441D01*
X54058Y-73511D01*
X54150Y-73549D01*
X54249Y-73550D01*
X54849Y-73550D01*
X54941Y-73512D01*
X55011Y-73441D01*
X55049Y-73349D01*
X55050Y-73250D01*
X55050Y-74650D01*
X55012Y-74558D01*
X54941Y-74488D01*
X54849Y-74450D01*
X54750Y-74449D01*
X54150Y-74449D01*
X54058Y-74487D01*
X53988Y-74558D01*
X53950Y-74650D01*
X53950Y-74672D01*
X53811Y-74534D01*
X53609Y-74450D01*
X53391Y-74449D01*
X53188Y-74533D01*
X53034Y-74688D01*
X53000Y-74769D01*
X52966Y-74688D01*
X52811Y-74534D01*
X52609Y-74450D01*
X52391Y-74449D01*
X52188Y-74533D01*
X52034Y-74688D01*
X52000Y-74769D01*
X51966Y-74688D01*
X51811Y-74534D01*
X51609Y-74450D01*
X51391Y-74449D01*
X51188Y-74533D01*
X51034Y-74688D01*
X51000Y-74769D01*
X50966Y-74688D01*
X50811Y-74534D01*
X50609Y-74450D01*
X50391Y-74449D01*
X50188Y-74533D01*
X50034Y-74688D01*
X49950Y-74890D01*
X49949Y-75108D01*
X50033Y-75311D01*
X50188Y-75465D01*
X50390Y-75549D01*
X50608Y-75550D01*
X50811Y-75466D01*
X50965Y-75311D01*
X50999Y-75230D01*
X51033Y-75311D01*
X51188Y-75465D01*
X51390Y-75549D01*
X51608Y-75550D01*
X51811Y-75466D01*
X51965Y-75311D01*
X51999Y-75230D01*
X52033Y-75311D01*
X52188Y-75465D01*
X52390Y-75549D01*
X52608Y-75550D01*
X52811Y-75466D01*
X52965Y-75311D01*
X52999Y-75230D01*
X53033Y-75311D01*
X53188Y-75465D01*
X53390Y-75549D01*
X53608Y-75550D01*
X53811Y-75466D01*
X53949Y-75327D01*
X53949Y-75349D01*
X53987Y-75441D01*
X54058Y-75511D01*
X54150Y-75549D01*
X54249Y-75550D01*
X54849Y-75550D01*
X54941Y-75512D01*
X55011Y-75441D01*
X55049Y-75349D01*
X55050Y-75250D01*
X55050Y-77230D01*
X48500Y-77230D01*
X48500Y-68400D01*
X48424Y-68217D01*
X48283Y-68076D01*
X48099Y-68000D01*
X47900Y-67999D01*
X47717Y-68075D01*
X47621Y-68171D01*
X40030Y-68171D01*
X40030Y-68170D01*
X39992Y-68078D01*
X39921Y-68008D01*
X39829Y-67970D01*
X39730Y-67969D01*
X39170Y-67969D01*
X39078Y-68007D01*
X39008Y-68078D01*
X38970Y-68170D01*
X38969Y-68269D01*
X38969Y-68829D01*
X39007Y-68921D01*
X39078Y-68991D01*
X39170Y-69029D01*
X39269Y-69030D01*
X39829Y-69030D01*
X39921Y-68992D01*
X39991Y-68921D01*
X40029Y-68829D01*
X40029Y-68828D01*
X47621Y-68828D01*
X47716Y-68923D01*
X47900Y-68999D01*
X48099Y-69000D01*
X48282Y-68924D01*
X48423Y-68783D01*
X48499Y-68599D01*
X48500Y-68400D01*
X48500Y-77230D01*
X48025Y-77230D01*
X48025Y-76396D01*
X48025Y-73396D01*
X47945Y-73203D01*
X47797Y-73055D01*
X47604Y-72975D01*
X47396Y-72974D01*
X47203Y-73054D01*
X47055Y-73202D01*
X46999Y-73335D01*
X46945Y-73203D01*
X46797Y-73055D01*
X46604Y-72975D01*
X46396Y-72974D01*
X46203Y-73054D01*
X46055Y-73202D01*
X45999Y-73335D01*
X45945Y-73203D01*
X45797Y-73055D01*
X45604Y-72975D01*
X45396Y-72974D01*
X45203Y-73054D01*
X45055Y-73202D01*
X44999Y-73335D01*
X44945Y-73203D01*
X44797Y-73055D01*
X44604Y-72975D01*
X44396Y-72974D01*
X44203Y-73054D01*
X44055Y-73202D01*
X43999Y-73335D01*
X43945Y-73203D01*
X43797Y-73055D01*
X43604Y-72975D01*
X43396Y-72974D01*
X43203Y-73054D01*
X43055Y-73202D01*
X42999Y-73335D01*
X42945Y-73203D01*
X42797Y-73055D01*
X42604Y-72975D01*
X42396Y-72974D01*
X42203Y-73054D01*
X42055Y-73202D01*
X41999Y-73335D01*
X41945Y-73203D01*
X41797Y-73055D01*
X41604Y-72975D01*
X41396Y-72974D01*
X41203Y-73054D01*
X41055Y-73202D01*
X40999Y-73335D01*
X40945Y-73203D01*
X40797Y-73055D01*
X40604Y-72975D01*
X40396Y-72974D01*
X40203Y-73054D01*
X40055Y-73202D01*
X40030Y-73262D01*
X40030Y-71395D01*
X39949Y-71200D01*
X39800Y-71050D01*
X39605Y-70970D01*
X39395Y-70969D01*
X39200Y-71050D01*
X39079Y-71171D01*
X37879Y-71171D01*
X37879Y-70663D01*
X37842Y-70571D01*
X37771Y-70500D01*
X37679Y-70462D01*
X37580Y-70462D01*
X36202Y-70462D01*
X36110Y-70500D01*
X36040Y-70570D01*
X36001Y-70662D01*
X36001Y-70762D01*
X36001Y-72336D01*
X36039Y-72428D01*
X36110Y-72499D01*
X36201Y-72537D01*
X36301Y-72537D01*
X37513Y-72537D01*
X37885Y-72909D01*
X37609Y-72909D01*
X37518Y-72947D01*
X37447Y-73017D01*
X37409Y-73109D01*
X37409Y-73209D01*
X37409Y-74390D01*
X37447Y-74481D01*
X37517Y-74552D01*
X37609Y-74590D01*
X37709Y-74590D01*
X38890Y-74590D01*
X38981Y-74552D01*
X39052Y-74482D01*
X39090Y-74390D01*
X39090Y-74290D01*
X39090Y-73109D01*
X39052Y-73018D01*
X38982Y-72947D01*
X38890Y-72909D01*
X38790Y-72909D01*
X38578Y-72909D01*
X38578Y-72809D01*
X38553Y-72683D01*
X38553Y-72683D01*
X38482Y-72576D01*
X37879Y-71974D01*
X37879Y-71828D01*
X39079Y-71828D01*
X39199Y-71949D01*
X39394Y-72029D01*
X39604Y-72030D01*
X39799Y-71949D01*
X39949Y-71800D01*
X40029Y-71605D01*
X40030Y-71395D01*
X40030Y-73262D01*
X39975Y-73395D01*
X39974Y-73603D01*
X40054Y-73797D01*
X40202Y-73944D01*
X40395Y-74024D01*
X40603Y-74025D01*
X40797Y-73945D01*
X40944Y-73797D01*
X41000Y-73664D01*
X41054Y-73797D01*
X41202Y-73944D01*
X41395Y-74024D01*
X41603Y-74025D01*
X41797Y-73945D01*
X41944Y-73797D01*
X42000Y-73664D01*
X42054Y-73797D01*
X42202Y-73944D01*
X42395Y-74024D01*
X42603Y-74025D01*
X42797Y-73945D01*
X42944Y-73797D01*
X43000Y-73664D01*
X43054Y-73797D01*
X43202Y-73944D01*
X43395Y-74024D01*
X43603Y-74025D01*
X43797Y-73945D01*
X43944Y-73797D01*
X44000Y-73664D01*
X44054Y-73797D01*
X44202Y-73944D01*
X44395Y-74024D01*
X44603Y-74025D01*
X44797Y-73945D01*
X44944Y-73797D01*
X45000Y-73664D01*
X45054Y-73797D01*
X45202Y-73944D01*
X45395Y-74024D01*
X45603Y-74025D01*
X45797Y-73945D01*
X45944Y-73797D01*
X46000Y-73664D01*
X46054Y-73797D01*
X46202Y-73944D01*
X46395Y-74024D01*
X46603Y-74025D01*
X46797Y-73945D01*
X46944Y-73797D01*
X47000Y-73664D01*
X47054Y-73797D01*
X47202Y-73944D01*
X47395Y-74024D01*
X47603Y-74025D01*
X47797Y-73945D01*
X47944Y-73797D01*
X48024Y-73604D01*
X48025Y-73396D01*
X48025Y-76396D01*
X47945Y-76203D01*
X47797Y-76055D01*
X47604Y-75975D01*
X47396Y-75974D01*
X47203Y-76054D01*
X47055Y-76202D01*
X46999Y-76335D01*
X46945Y-76203D01*
X46797Y-76055D01*
X46604Y-75975D01*
X46396Y-75974D01*
X46203Y-76054D01*
X46055Y-76202D01*
X45999Y-76335D01*
X45945Y-76203D01*
X45797Y-76055D01*
X45604Y-75975D01*
X45396Y-75974D01*
X45203Y-76054D01*
X45055Y-76202D01*
X44999Y-76335D01*
X44945Y-76203D01*
X44797Y-76055D01*
X44604Y-75975D01*
X44396Y-75974D01*
X44203Y-76054D01*
X44055Y-76202D01*
X43999Y-76335D01*
X43945Y-76203D01*
X43797Y-76055D01*
X43604Y-75975D01*
X43396Y-75974D01*
X43203Y-76054D01*
X43055Y-76202D01*
X42999Y-76335D01*
X42945Y-76203D01*
X42797Y-76055D01*
X42604Y-75975D01*
X42396Y-75974D01*
X42203Y-76054D01*
X42055Y-76202D01*
X41999Y-76335D01*
X41945Y-76203D01*
X41797Y-76055D01*
X41604Y-75975D01*
X41396Y-75974D01*
X41203Y-76054D01*
X41055Y-76202D01*
X41025Y-76274D01*
X41025Y-76175D01*
X40987Y-76083D01*
X40916Y-76013D01*
X40824Y-75975D01*
X40725Y-75974D01*
X40175Y-75974D01*
X40083Y-76012D01*
X40013Y-76083D01*
X39975Y-76175D01*
X39974Y-76274D01*
X39974Y-76824D01*
X40012Y-76916D01*
X40083Y-76986D01*
X40175Y-77024D01*
X40274Y-77025D01*
X40824Y-77025D01*
X40916Y-76987D01*
X40986Y-76916D01*
X41024Y-76824D01*
X41025Y-76725D01*
X41025Y-76725D01*
X41054Y-76797D01*
X41202Y-76944D01*
X41395Y-77024D01*
X41603Y-77025D01*
X41797Y-76945D01*
X41944Y-76797D01*
X42000Y-76664D01*
X42054Y-76797D01*
X42202Y-76944D01*
X42395Y-77024D01*
X42603Y-77025D01*
X42797Y-76945D01*
X42944Y-76797D01*
X43000Y-76664D01*
X43054Y-76797D01*
X43202Y-76944D01*
X43395Y-77024D01*
X43603Y-77025D01*
X43797Y-76945D01*
X43944Y-76797D01*
X44000Y-76664D01*
X44054Y-76797D01*
X44202Y-76944D01*
X44395Y-77024D01*
X44603Y-77025D01*
X44797Y-76945D01*
X44944Y-76797D01*
X45000Y-76664D01*
X45054Y-76797D01*
X45202Y-76944D01*
X45395Y-77024D01*
X45603Y-77025D01*
X45797Y-76945D01*
X45944Y-76797D01*
X46000Y-76664D01*
X46054Y-76797D01*
X46202Y-76944D01*
X46395Y-77024D01*
X46603Y-77025D01*
X46797Y-76945D01*
X46944Y-76797D01*
X47000Y-76664D01*
X47054Y-76797D01*
X47202Y-76944D01*
X47395Y-77024D01*
X47603Y-77025D01*
X47797Y-76945D01*
X47944Y-76797D01*
X48024Y-76604D01*
X48025Y-76396D01*
X48025Y-77230D01*
X37090Y-77230D01*
X37090Y-73583D01*
X36962Y-73274D01*
X36726Y-73037D01*
X36417Y-72909D01*
X36083Y-72909D01*
X35774Y-73037D01*
X35537Y-73273D01*
X35517Y-73321D01*
X35517Y-72139D01*
X35517Y-70761D01*
X35479Y-70669D01*
X35409Y-70599D01*
X35317Y-70561D01*
X35218Y-70560D01*
X33840Y-70560D01*
X33748Y-70598D01*
X33677Y-70669D01*
X33639Y-70761D01*
X33639Y-70860D01*
X33639Y-72238D01*
X33677Y-72330D01*
X33747Y-72400D01*
X33839Y-72438D01*
X33939Y-72439D01*
X35317Y-72439D01*
X35409Y-72401D01*
X35479Y-72330D01*
X35517Y-72238D01*
X35517Y-72139D01*
X35517Y-73321D01*
X35409Y-73582D01*
X35409Y-73916D01*
X35537Y-74225D01*
X35773Y-74462D01*
X36082Y-74590D01*
X36416Y-74590D01*
X36725Y-74462D01*
X36962Y-74226D01*
X37090Y-73917D01*
X37090Y-73583D01*
X37090Y-77230D01*
X34992Y-77230D01*
X34992Y-76103D01*
X34879Y-75830D01*
X34670Y-75621D01*
X34398Y-75508D01*
X34103Y-75507D01*
X33830Y-75620D01*
X33621Y-75829D01*
X33508Y-76101D01*
X33507Y-76396D01*
X33620Y-76669D01*
X33829Y-76878D01*
X34101Y-76991D01*
X34396Y-76992D01*
X34669Y-76879D01*
X34878Y-76670D01*
X34991Y-76398D01*
X34992Y-76103D01*
X34992Y-77230D01*
X33269Y-77230D01*
X33269Y-45269D01*
X68730Y-45269D01*
X68730Y-77230D01*
X68730Y-77230D01*
G37*
G54D25*
X68730Y-77230D02*
X68492Y-77230D01*
X68492Y-76103D01*
X68492Y-46103D01*
X68379Y-45830D01*
X68170Y-45621D01*
X67898Y-45508D01*
X67603Y-45507D01*
X67330Y-45620D01*
X67121Y-45829D01*
X67008Y-46101D01*
X67007Y-46396D01*
X67120Y-46669D01*
X67329Y-46878D01*
X67601Y-46991D01*
X67896Y-46992D01*
X68169Y-46879D01*
X68378Y-46670D01*
X68491Y-46398D01*
X68492Y-46103D01*
X68492Y-76103D01*
X68379Y-75830D01*
X68170Y-75621D01*
X68050Y-75571D01*
X68050Y-62391D01*
X67966Y-62188D01*
X67811Y-62034D01*
X67730Y-62000D01*
X67811Y-61966D01*
X67965Y-61811D01*
X68049Y-61609D01*
X68050Y-61391D01*
X67966Y-61188D01*
X67811Y-61034D01*
X67730Y-61000D01*
X67811Y-60966D01*
X67965Y-60811D01*
X68049Y-60609D01*
X68050Y-60391D01*
X67966Y-60188D01*
X67827Y-60050D01*
X67849Y-60050D01*
X67941Y-60012D01*
X68011Y-59941D01*
X68049Y-59849D01*
X68050Y-59750D01*
X68050Y-59150D01*
X68012Y-59058D01*
X67941Y-58988D01*
X67849Y-58950D01*
X67750Y-58949D01*
X67150Y-58949D01*
X67058Y-58987D01*
X66988Y-59058D01*
X66950Y-59150D01*
X66949Y-59249D01*
X66949Y-59849D01*
X66987Y-59941D01*
X67058Y-60011D01*
X67150Y-60049D01*
X67172Y-60049D01*
X67034Y-60188D01*
X67029Y-60200D01*
X66551Y-60200D01*
X66491Y-60139D01*
X66334Y-60075D01*
X66165Y-60074D01*
X66010Y-60139D01*
X66024Y-60104D01*
X66025Y-59896D01*
X65945Y-59703D01*
X65797Y-59555D01*
X65664Y-59499D01*
X65797Y-59445D01*
X65944Y-59297D01*
X66024Y-59104D01*
X66025Y-58896D01*
X65945Y-58703D01*
X65797Y-58555D01*
X65664Y-58499D01*
X65797Y-58445D01*
X65942Y-58300D01*
X66348Y-58300D01*
X66408Y-58360D01*
X66565Y-58424D01*
X66734Y-58425D01*
X66890Y-58360D01*
X67006Y-58245D01*
X67033Y-58311D01*
X67188Y-58465D01*
X67390Y-58549D01*
X67608Y-58550D01*
X67811Y-58466D01*
X67965Y-58311D01*
X68049Y-58109D01*
X68050Y-57891D01*
X67966Y-57688D01*
X67811Y-57534D01*
X67730Y-57500D01*
X67811Y-57466D01*
X67965Y-57311D01*
X68049Y-57109D01*
X68050Y-56891D01*
X67966Y-56688D01*
X67811Y-56534D01*
X67730Y-56500D01*
X67811Y-56466D01*
X67965Y-56311D01*
X68049Y-56109D01*
X68050Y-55891D01*
X67966Y-55688D01*
X67827Y-55550D01*
X67849Y-55550D01*
X67941Y-55512D01*
X68011Y-55441D01*
X68049Y-55349D01*
X68050Y-55250D01*
X68050Y-54650D01*
X68012Y-54558D01*
X67941Y-54488D01*
X67849Y-54450D01*
X67750Y-54449D01*
X67150Y-54449D01*
X67058Y-54487D01*
X66988Y-54558D01*
X66950Y-54650D01*
X66949Y-54749D01*
X66949Y-55349D01*
X66987Y-55441D01*
X67058Y-55511D01*
X67150Y-55549D01*
X67172Y-55549D01*
X67034Y-55688D01*
X66950Y-55890D01*
X66949Y-56108D01*
X67033Y-56311D01*
X67188Y-56465D01*
X67269Y-56499D01*
X67188Y-56533D01*
X67034Y-56688D01*
X67029Y-56700D01*
X66624Y-56700D01*
X66212Y-56287D01*
X66114Y-56222D01*
X66000Y-56200D01*
X65985Y-56200D01*
X66024Y-56104D01*
X66025Y-55896D01*
X65945Y-55703D01*
X65797Y-55555D01*
X65604Y-55475D01*
X65396Y-55474D01*
X65203Y-55554D01*
X65055Y-55702D01*
X64975Y-55895D01*
X64974Y-56103D01*
X65014Y-56200D01*
X64025Y-56200D01*
X64025Y-52396D01*
X63945Y-52203D01*
X63797Y-52055D01*
X63604Y-51975D01*
X63396Y-51974D01*
X63203Y-52054D01*
X63055Y-52202D01*
X62975Y-52395D01*
X62974Y-52603D01*
X63054Y-52797D01*
X63202Y-52944D01*
X63395Y-53024D01*
X63603Y-53025D01*
X63797Y-52945D01*
X63944Y-52797D01*
X64024Y-52604D01*
X64025Y-52396D01*
X64025Y-56200D01*
X63551Y-56200D01*
X63491Y-56139D01*
X63334Y-56075D01*
X63165Y-56074D01*
X63010Y-56139D01*
X63024Y-56104D01*
X63025Y-55896D01*
X62945Y-55703D01*
X62797Y-55555D01*
X62725Y-55525D01*
X62824Y-55525D01*
X62916Y-55487D01*
X62986Y-55416D01*
X63024Y-55324D01*
X63025Y-55225D01*
X63025Y-54675D01*
X62987Y-54583D01*
X62916Y-54513D01*
X62824Y-54475D01*
X62725Y-54474D01*
X62175Y-54474D01*
X62083Y-54512D01*
X62013Y-54583D01*
X61975Y-54675D01*
X61975Y-54700D01*
X59942Y-54700D01*
X59797Y-54555D01*
X59604Y-54475D01*
X59396Y-54474D01*
X59203Y-54554D01*
X59055Y-54702D01*
X58975Y-54895D01*
X58974Y-55103D01*
X59014Y-55200D01*
X58874Y-55200D01*
X58493Y-54818D01*
X58445Y-54703D01*
X58297Y-54555D01*
X58104Y-54475D01*
X57896Y-54474D01*
X57703Y-54554D01*
X57555Y-54702D01*
X57475Y-54895D01*
X57474Y-55103D01*
X57554Y-55297D01*
X57702Y-55444D01*
X57835Y-55500D01*
X57703Y-55554D01*
X57555Y-55702D01*
X57475Y-55895D01*
X57474Y-56103D01*
X57554Y-56297D01*
X57702Y-56444D01*
X57895Y-56524D01*
X58103Y-56525D01*
X58297Y-56445D01*
X58444Y-56297D01*
X58524Y-56104D01*
X58525Y-55896D01*
X58445Y-55703D01*
X58297Y-55555D01*
X58164Y-55499D01*
X58278Y-55452D01*
X58537Y-55712D01*
X58537Y-55712D01*
X58635Y-55777D01*
X58750Y-55800D01*
X59014Y-55800D01*
X58975Y-55895D01*
X58974Y-56103D01*
X59054Y-56297D01*
X59202Y-56444D01*
X59395Y-56524D01*
X59603Y-56525D01*
X59797Y-56445D01*
X59909Y-56333D01*
X60282Y-56706D01*
X60250Y-56700D01*
X55975Y-56700D01*
X55970Y-56688D01*
X55815Y-56534D01*
X55734Y-56500D01*
X55815Y-56466D01*
X55969Y-56311D01*
X56053Y-56109D01*
X56054Y-55891D01*
X55970Y-55688D01*
X55815Y-55534D01*
X55734Y-55500D01*
X55815Y-55466D01*
X55969Y-55311D01*
X56053Y-55109D01*
X56054Y-54891D01*
X55970Y-54688D01*
X55815Y-54534D01*
X55734Y-54500D01*
X55815Y-54466D01*
X55969Y-54311D01*
X56053Y-54109D01*
X56054Y-53891D01*
X55970Y-53688D01*
X55815Y-53534D01*
X55734Y-53500D01*
X55815Y-53466D01*
X55969Y-53311D01*
X56053Y-53109D01*
X56054Y-52891D01*
X55970Y-52688D01*
X55831Y-52550D01*
X55853Y-52550D01*
X55945Y-52512D01*
X56015Y-52441D01*
X56053Y-52349D01*
X56053Y-52250D01*
X56053Y-51650D01*
X56016Y-51558D01*
X55945Y-51488D01*
X55933Y-51482D01*
X55933Y-50614D01*
X55829Y-50363D01*
X55637Y-50171D01*
X55386Y-50067D01*
X55114Y-50066D01*
X54863Y-50170D01*
X54671Y-50362D01*
X54567Y-50613D01*
X54566Y-50885D01*
X54670Y-51136D01*
X54862Y-51328D01*
X55113Y-51432D01*
X55385Y-51433D01*
X55636Y-51329D01*
X55828Y-51137D01*
X55932Y-50886D01*
X55933Y-50614D01*
X55933Y-51482D01*
X55853Y-51450D01*
X55754Y-51449D01*
X55154Y-51449D01*
X55062Y-51487D01*
X54992Y-51558D01*
X54953Y-51650D01*
X54953Y-51749D01*
X54953Y-52248D01*
X54914Y-52222D01*
X54800Y-52200D01*
X50433Y-52200D01*
X50433Y-50614D01*
X50329Y-50363D01*
X50137Y-50171D01*
X49886Y-50067D01*
X49614Y-50066D01*
X49363Y-50170D01*
X49171Y-50362D01*
X49067Y-50613D01*
X49066Y-50885D01*
X49170Y-51136D01*
X49362Y-51328D01*
X49613Y-51432D01*
X49885Y-51433D01*
X50136Y-51329D01*
X50328Y-51137D01*
X50432Y-50886D01*
X50433Y-50614D01*
X50433Y-52200D01*
X50008Y-52200D01*
X50045Y-52109D01*
X50046Y-51891D01*
X49962Y-51688D01*
X49808Y-51534D01*
X49605Y-51450D01*
X49387Y-51449D01*
X49184Y-51533D01*
X49030Y-51688D01*
X48946Y-51890D01*
X48945Y-52108D01*
X48983Y-52200D01*
X46985Y-52200D01*
X47024Y-52104D01*
X47025Y-51896D01*
X46945Y-51703D01*
X46797Y-51555D01*
X46604Y-51475D01*
X46396Y-51474D01*
X46203Y-51554D01*
X46055Y-51702D01*
X45975Y-51895D01*
X45974Y-52103D01*
X46014Y-52200D01*
X44025Y-52200D01*
X44025Y-50396D01*
X43945Y-50203D01*
X43797Y-50055D01*
X43604Y-49975D01*
X43396Y-49974D01*
X43203Y-50054D01*
X43055Y-50202D01*
X42999Y-50335D01*
X42945Y-50203D01*
X42797Y-50055D01*
X42604Y-49975D01*
X42396Y-49974D01*
X42203Y-50054D01*
X42055Y-50202D01*
X41975Y-50395D01*
X41974Y-50603D01*
X42054Y-50797D01*
X42202Y-50944D01*
X42395Y-51024D01*
X42603Y-51025D01*
X42797Y-50945D01*
X42944Y-50797D01*
X43000Y-50664D01*
X43054Y-50797D01*
X43202Y-50944D01*
X43395Y-51024D01*
X43603Y-51025D01*
X43797Y-50945D01*
X43944Y-50797D01*
X44024Y-50604D01*
X44025Y-50396D01*
X44025Y-52200D01*
X44025Y-52200D01*
X44025Y-51675D01*
X43987Y-51583D01*
X43916Y-51513D01*
X43824Y-51475D01*
X43725Y-51474D01*
X43175Y-51474D01*
X43083Y-51512D01*
X43013Y-51583D01*
X42975Y-51675D01*
X42974Y-51774D01*
X42974Y-52200D01*
X41401Y-52200D01*
X41391Y-52189D01*
X41234Y-52125D01*
X41065Y-52124D01*
X40909Y-52189D01*
X40789Y-52308D01*
X40725Y-52465D01*
X40724Y-52634D01*
X40750Y-52696D01*
X40250Y-52696D01*
X40250Y-51438D01*
X40250Y-50438D01*
X40212Y-50346D01*
X40141Y-50276D01*
X40049Y-50238D01*
X39950Y-50238D01*
X38950Y-50238D01*
X38858Y-50276D01*
X38788Y-50346D01*
X38750Y-50438D01*
X38749Y-50537D01*
X38749Y-51537D01*
X38787Y-51629D01*
X38858Y-51700D01*
X38950Y-51738D01*
X39049Y-51738D01*
X40049Y-51738D01*
X40141Y-51700D01*
X40211Y-51629D01*
X40249Y-51538D01*
X40250Y-51438D01*
X40250Y-52696D01*
X40187Y-52696D01*
X40136Y-52571D01*
X39925Y-52360D01*
X39649Y-52246D01*
X39351Y-52245D01*
X39075Y-52359D01*
X38960Y-52474D01*
X35662Y-52474D01*
X35476Y-52287D01*
X35167Y-52159D01*
X34992Y-52159D01*
X34992Y-46103D01*
X34879Y-45830D01*
X34670Y-45621D01*
X34398Y-45508D01*
X34103Y-45507D01*
X33830Y-45620D01*
X33621Y-45829D01*
X33508Y-46101D01*
X33507Y-46396D01*
X33620Y-46669D01*
X33829Y-46878D01*
X34101Y-46991D01*
X34396Y-46992D01*
X34669Y-46879D01*
X34878Y-46670D01*
X34991Y-46398D01*
X34992Y-46103D01*
X34992Y-52159D01*
X34833Y-52159D01*
X34524Y-52287D01*
X34287Y-52523D01*
X34159Y-52832D01*
X34159Y-53166D01*
X34287Y-53475D01*
X34523Y-53712D01*
X34832Y-53840D01*
X35166Y-53840D01*
X35475Y-53712D01*
X35663Y-53525D01*
X38968Y-53525D01*
X39074Y-53631D01*
X39350Y-53745D01*
X39648Y-53746D01*
X39924Y-53632D01*
X40135Y-53421D01*
X40187Y-53296D01*
X43054Y-53296D01*
X43054Y-53297D01*
X43202Y-53444D01*
X43335Y-53500D01*
X43203Y-53554D01*
X43055Y-53702D01*
X42975Y-53895D01*
X42974Y-54103D01*
X43054Y-54297D01*
X43202Y-54444D01*
X43335Y-54500D01*
X43203Y-54554D01*
X43055Y-54702D01*
X42975Y-54895D01*
X42974Y-55103D01*
X43054Y-55297D01*
X43091Y-55334D01*
X40250Y-58175D01*
X40250Y-56863D01*
X40250Y-54855D01*
X40136Y-54579D01*
X39925Y-54368D01*
X39649Y-54254D01*
X39351Y-54253D01*
X39075Y-54367D01*
X38968Y-54474D01*
X35840Y-54474D01*
X35840Y-54359D01*
X35802Y-54268D01*
X35732Y-54197D01*
X35640Y-54159D01*
X35540Y-54159D01*
X34359Y-54159D01*
X34268Y-54197D01*
X34197Y-54267D01*
X34159Y-54359D01*
X34159Y-54459D01*
X34159Y-55640D01*
X34197Y-55731D01*
X34267Y-55802D01*
X34359Y-55840D01*
X34459Y-55840D01*
X35640Y-55840D01*
X35731Y-55802D01*
X35802Y-55732D01*
X35840Y-55640D01*
X35840Y-55540D01*
X35840Y-55525D01*
X38961Y-55525D01*
X39074Y-55639D01*
X39350Y-55753D01*
X39648Y-55754D01*
X39924Y-55640D01*
X40135Y-55429D01*
X40249Y-55153D01*
X40250Y-54855D01*
X40250Y-56863D01*
X40136Y-56587D01*
X39925Y-56376D01*
X39649Y-56261D01*
X39351Y-56261D01*
X39075Y-56375D01*
X38864Y-56586D01*
X38750Y-56861D01*
X38749Y-57160D01*
X38863Y-57436D01*
X39074Y-57647D01*
X39350Y-57761D01*
X39648Y-57761D01*
X39924Y-57648D01*
X40135Y-57437D01*
X40249Y-57161D01*
X40250Y-56863D01*
X40250Y-58175D01*
X37834Y-60591D01*
X37797Y-60555D01*
X37604Y-60475D01*
X37396Y-60474D01*
X37203Y-60554D01*
X37055Y-60702D01*
X36999Y-60835D01*
X36945Y-60703D01*
X36797Y-60555D01*
X36604Y-60475D01*
X36396Y-60474D01*
X36203Y-60554D01*
X36057Y-60700D01*
X35471Y-60700D01*
X35466Y-60688D01*
X35311Y-60534D01*
X35230Y-60500D01*
X35311Y-60466D01*
X35465Y-60311D01*
X35549Y-60109D01*
X35550Y-59891D01*
X35466Y-59688D01*
X35311Y-59534D01*
X35109Y-59450D01*
X34891Y-59449D01*
X34688Y-59533D01*
X34534Y-59688D01*
X34450Y-59890D01*
X34449Y-60108D01*
X34533Y-60311D01*
X34688Y-60465D01*
X34769Y-60499D01*
X34688Y-60533D01*
X34534Y-60688D01*
X34450Y-60890D01*
X34449Y-61108D01*
X34533Y-61311D01*
X34688Y-61465D01*
X34769Y-61499D01*
X34688Y-61533D01*
X34534Y-61688D01*
X34450Y-61890D01*
X34449Y-62108D01*
X34533Y-62311D01*
X34688Y-62465D01*
X34769Y-62499D01*
X34688Y-62533D01*
X34534Y-62688D01*
X34450Y-62890D01*
X34449Y-63108D01*
X34533Y-63311D01*
X34688Y-63465D01*
X34769Y-63499D01*
X34688Y-63533D01*
X34534Y-63688D01*
X34450Y-63890D01*
X34449Y-64108D01*
X34533Y-64311D01*
X34688Y-64465D01*
X34769Y-64499D01*
X34688Y-64533D01*
X34534Y-64688D01*
X34450Y-64890D01*
X34449Y-65108D01*
X34533Y-65311D01*
X34688Y-65465D01*
X34769Y-65499D01*
X34688Y-65533D01*
X34534Y-65688D01*
X34450Y-65890D01*
X34449Y-66108D01*
X34533Y-66311D01*
X34688Y-66465D01*
X34890Y-66549D01*
X35108Y-66550D01*
X35311Y-66466D01*
X35465Y-66311D01*
X35470Y-66300D01*
X37057Y-66300D01*
X37202Y-66444D01*
X37395Y-66524D01*
X37603Y-66525D01*
X37797Y-66445D01*
X37944Y-66297D01*
X38000Y-66164D01*
X38054Y-66297D01*
X38202Y-66444D01*
X38395Y-66524D01*
X38603Y-66525D01*
X38797Y-66445D01*
X38944Y-66297D01*
X39024Y-66104D01*
X39025Y-65896D01*
X38967Y-65756D01*
X41924Y-62800D01*
X45122Y-62800D01*
X45075Y-62915D01*
X45074Y-63084D01*
X45122Y-63200D01*
X42050Y-63200D01*
X41935Y-63222D01*
X41837Y-63287D01*
X41500Y-63625D01*
X41415Y-63624D01*
X41259Y-63689D01*
X41139Y-63808D01*
X41075Y-63965D01*
X41074Y-64134D01*
X41139Y-64290D01*
X41258Y-64410D01*
X41415Y-64474D01*
X41584Y-64475D01*
X41740Y-64410D01*
X41860Y-64291D01*
X41924Y-64134D01*
X41925Y-64049D01*
X42174Y-63800D01*
X46072Y-63800D01*
X46025Y-63915D01*
X46024Y-64084D01*
X46089Y-64240D01*
X46208Y-64360D01*
X46365Y-64424D01*
X46534Y-64425D01*
X46690Y-64360D01*
X46751Y-64300D01*
X49024Y-64300D01*
X49029Y-64311D01*
X49184Y-64465D01*
X49265Y-64499D01*
X49184Y-64533D01*
X49030Y-64688D01*
X49025Y-64700D01*
X47801Y-64700D01*
X47741Y-64639D01*
X47584Y-64575D01*
X47415Y-64574D01*
X47259Y-64639D01*
X47139Y-64758D01*
X47075Y-64915D01*
X47074Y-65084D01*
X47139Y-65240D01*
X47258Y-65360D01*
X47415Y-65424D01*
X47584Y-65425D01*
X47740Y-65360D01*
X47801Y-65300D01*
X49024Y-65300D01*
X49029Y-65311D01*
X49184Y-65465D01*
X49386Y-65549D01*
X49604Y-65550D01*
X49807Y-65466D01*
X49962Y-65311D01*
X50045Y-65109D01*
X50046Y-64891D01*
X49962Y-64688D01*
X49808Y-64534D01*
X49726Y-64500D01*
X49807Y-64466D01*
X49962Y-64311D01*
X50045Y-64109D01*
X50046Y-63891D01*
X50008Y-63800D01*
X50050Y-63800D01*
X50050Y-63799D01*
X50164Y-63777D01*
X50164Y-63777D01*
X50262Y-63712D01*
X50674Y-63300D01*
X55032Y-63300D01*
X55037Y-63311D01*
X55191Y-63465D01*
X55273Y-63499D01*
X55192Y-63533D01*
X55037Y-63688D01*
X55032Y-63700D01*
X52801Y-63700D01*
X52741Y-63639D01*
X52584Y-63575D01*
X52415Y-63574D01*
X52259Y-63639D01*
X52139Y-63758D01*
X52075Y-63915D01*
X52074Y-64084D01*
X52139Y-64240D01*
X52258Y-64360D01*
X52415Y-64424D01*
X52584Y-64425D01*
X52740Y-64360D01*
X52801Y-64300D01*
X55032Y-64300D01*
X55037Y-64311D01*
X55191Y-64465D01*
X55273Y-64499D01*
X55192Y-64533D01*
X55037Y-64688D01*
X54954Y-64890D01*
X54953Y-65108D01*
X55037Y-65311D01*
X55191Y-65465D01*
X55394Y-65549D01*
X55612Y-65550D01*
X55815Y-65466D01*
X55969Y-65311D01*
X56053Y-65109D01*
X56054Y-64891D01*
X55970Y-64688D01*
X55815Y-64534D01*
X55734Y-64500D01*
X55815Y-64466D01*
X55969Y-64311D01*
X56053Y-64109D01*
X56054Y-63891D01*
X55970Y-63688D01*
X55815Y-63534D01*
X55734Y-63500D01*
X55815Y-63466D01*
X55969Y-63311D01*
X56053Y-63109D01*
X56054Y-62891D01*
X55970Y-62688D01*
X55815Y-62534D01*
X55734Y-62500D01*
X55815Y-62466D01*
X55969Y-62311D01*
X56053Y-62109D01*
X56054Y-61891D01*
X55970Y-61688D01*
X55815Y-61534D01*
X55734Y-61500D01*
X55815Y-61466D01*
X55969Y-61311D01*
X56053Y-61109D01*
X56054Y-60891D01*
X55970Y-60688D01*
X55815Y-60534D01*
X55734Y-60500D01*
X55815Y-60466D01*
X55969Y-60311D01*
X56053Y-60109D01*
X56054Y-59891D01*
X56047Y-59876D01*
X56165Y-59924D01*
X56334Y-59925D01*
X56490Y-59860D01*
X56551Y-59800D01*
X61500Y-59800D01*
X62014Y-59800D01*
X61975Y-59895D01*
X61974Y-60100D01*
X61875Y-60200D01*
X59942Y-60200D01*
X59797Y-60055D01*
X59604Y-59975D01*
X59396Y-59974D01*
X59203Y-60054D01*
X59055Y-60202D01*
X58975Y-60395D01*
X58974Y-60603D01*
X59054Y-60797D01*
X59202Y-60944D01*
X59335Y-61000D01*
X59203Y-61054D01*
X59055Y-61202D01*
X58975Y-61395D01*
X58974Y-61603D01*
X59054Y-61797D01*
X59202Y-61944D01*
X59395Y-62024D01*
X59603Y-62025D01*
X59797Y-61945D01*
X59944Y-61797D01*
X60024Y-61604D01*
X60025Y-61396D01*
X59945Y-61203D01*
X59797Y-61055D01*
X59664Y-60999D01*
X59797Y-60945D01*
X59942Y-60800D01*
X62000Y-60800D01*
X62000Y-60799D01*
X62015Y-60796D01*
X61975Y-60895D01*
X61974Y-61103D01*
X62054Y-61297D01*
X62202Y-61444D01*
X62335Y-61500D01*
X62203Y-61554D01*
X62055Y-61702D01*
X61975Y-61895D01*
X61974Y-62103D01*
X62054Y-62297D01*
X62202Y-62444D01*
X62395Y-62524D01*
X62600Y-62525D01*
X62787Y-62712D01*
X62787Y-62712D01*
X62885Y-62777D01*
X63000Y-62800D01*
X66500Y-62800D01*
X66500Y-62799D01*
X66614Y-62777D01*
X66614Y-62777D01*
X66712Y-62712D01*
X66950Y-62474D01*
X66949Y-62608D01*
X67033Y-62811D01*
X67188Y-62965D01*
X67390Y-63049D01*
X67608Y-63050D01*
X67811Y-62966D01*
X67965Y-62811D01*
X68049Y-62609D01*
X68050Y-62391D01*
X68050Y-75571D01*
X67898Y-75508D01*
X67603Y-75507D01*
X67330Y-75620D01*
X67121Y-75829D01*
X67008Y-76101D01*
X67007Y-76396D01*
X67120Y-76669D01*
X67329Y-76878D01*
X67601Y-76991D01*
X67896Y-76992D01*
X68169Y-76879D01*
X68378Y-76670D01*
X68491Y-76398D01*
X68492Y-76103D01*
X68492Y-77230D01*
X55933Y-77230D01*
X55933Y-66114D01*
X55829Y-65863D01*
X55637Y-65671D01*
X55386Y-65567D01*
X55114Y-65566D01*
X54863Y-65670D01*
X54671Y-65862D01*
X54567Y-66113D01*
X54566Y-66385D01*
X54670Y-66636D01*
X54862Y-66828D01*
X55113Y-66932D01*
X55385Y-66933D01*
X55636Y-66829D01*
X55828Y-66637D01*
X55932Y-66386D01*
X55933Y-66114D01*
X55933Y-77230D01*
X55050Y-77230D01*
X55050Y-75250D01*
X55050Y-74650D01*
X55050Y-73250D01*
X55050Y-72650D01*
X55025Y-72590D01*
X55025Y-70896D01*
X54945Y-70703D01*
X54797Y-70555D01*
X54604Y-70475D01*
X54396Y-70474D01*
X54203Y-70554D01*
X54055Y-70702D01*
X54025Y-70774D01*
X54025Y-67896D01*
X53945Y-67703D01*
X53797Y-67555D01*
X53604Y-67475D01*
X53396Y-67474D01*
X53203Y-67554D01*
X53055Y-67702D01*
X52999Y-67835D01*
X52945Y-67703D01*
X52797Y-67555D01*
X52604Y-67475D01*
X52396Y-67474D01*
X52203Y-67554D01*
X52055Y-67702D01*
X51999Y-67835D01*
X51945Y-67703D01*
X51797Y-67555D01*
X51604Y-67475D01*
X51396Y-67474D01*
X51203Y-67554D01*
X51055Y-67702D01*
X50975Y-67895D01*
X50974Y-68103D01*
X51054Y-68297D01*
X51202Y-68444D01*
X51395Y-68524D01*
X51603Y-68525D01*
X51797Y-68445D01*
X51944Y-68297D01*
X52000Y-68164D01*
X52054Y-68297D01*
X52202Y-68444D01*
X52395Y-68524D01*
X52603Y-68525D01*
X52797Y-68445D01*
X52944Y-68297D01*
X53000Y-68164D01*
X53054Y-68297D01*
X53202Y-68444D01*
X53395Y-68524D01*
X53603Y-68525D01*
X53797Y-68445D01*
X53944Y-68297D01*
X54024Y-68104D01*
X54025Y-67896D01*
X54025Y-70774D01*
X53999Y-70835D01*
X53945Y-70703D01*
X53797Y-70555D01*
X53604Y-70475D01*
X53396Y-70474D01*
X53203Y-70554D01*
X53055Y-70702D01*
X52999Y-70835D01*
X52945Y-70703D01*
X52797Y-70555D01*
X52604Y-70475D01*
X52396Y-70474D01*
X52203Y-70554D01*
X52055Y-70702D01*
X51999Y-70835D01*
X51945Y-70703D01*
X51797Y-70555D01*
X51604Y-70475D01*
X51396Y-70474D01*
X51203Y-70554D01*
X51055Y-70702D01*
X50975Y-70895D01*
X50974Y-71103D01*
X51054Y-71297D01*
X51202Y-71444D01*
X51395Y-71524D01*
X51603Y-71525D01*
X51797Y-71445D01*
X51944Y-71297D01*
X52000Y-71164D01*
X52054Y-71297D01*
X52202Y-71444D01*
X52395Y-71524D01*
X52603Y-71525D01*
X52797Y-71445D01*
X52944Y-71297D01*
X53000Y-71164D01*
X53054Y-71297D01*
X53202Y-71444D01*
X53395Y-71524D01*
X53603Y-71525D01*
X53797Y-71445D01*
X53944Y-71297D01*
X54000Y-71164D01*
X54054Y-71297D01*
X54202Y-71444D01*
X54395Y-71524D01*
X54603Y-71525D01*
X54797Y-71445D01*
X54944Y-71297D01*
X55024Y-71104D01*
X55025Y-70896D01*
X55025Y-72590D01*
X55012Y-72558D01*
X54941Y-72488D01*
X54849Y-72450D01*
X54750Y-72449D01*
X54150Y-72449D01*
X54058Y-72487D01*
X53988Y-72558D01*
X53950Y-72650D01*
X53950Y-72672D01*
X53811Y-72534D01*
X53609Y-72450D01*
X53391Y-72449D01*
X53188Y-72533D01*
X53034Y-72688D01*
X53000Y-72769D01*
X52966Y-72688D01*
X52811Y-72534D01*
X52609Y-72450D01*
X52391Y-72449D01*
X52188Y-72533D01*
X52034Y-72688D01*
X52000Y-72769D01*
X51966Y-72688D01*
X51811Y-72534D01*
X51609Y-72450D01*
X51391Y-72449D01*
X51188Y-72533D01*
X51034Y-72688D01*
X51000Y-72769D01*
X50966Y-72688D01*
X50811Y-72534D01*
X50609Y-72450D01*
X50433Y-72449D01*
X50433Y-66114D01*
X50329Y-65863D01*
X50137Y-65671D01*
X49886Y-65567D01*
X49614Y-65566D01*
X49363Y-65670D01*
X49171Y-65862D01*
X49067Y-66113D01*
X49066Y-66385D01*
X49170Y-66636D01*
X49362Y-66828D01*
X49613Y-66932D01*
X49885Y-66933D01*
X50136Y-66829D01*
X50328Y-66637D01*
X50432Y-66386D01*
X50433Y-66114D01*
X50433Y-72449D01*
X50391Y-72449D01*
X50188Y-72533D01*
X50034Y-72688D01*
X49950Y-72890D01*
X49949Y-73108D01*
X50033Y-73311D01*
X50188Y-73465D01*
X50390Y-73549D01*
X50608Y-73550D01*
X50811Y-73466D01*
X50965Y-73311D01*
X50999Y-73230D01*
X51033Y-73311D01*
X51188Y-73465D01*
X51390Y-73549D01*
X51608Y-73550D01*
X51811Y-73466D01*
X51965Y-73311D01*
X51999Y-73230D01*
X52033Y-73311D01*
X52188Y-73465D01*
X52390Y-73549D01*
X52608Y-73550D01*
X52811Y-73466D01*
X52965Y-73311D01*
X52999Y-73230D01*
X53033Y-73311D01*
X53188Y-73465D01*
X53390Y-73549D01*
X53608Y-73550D01*
X53811Y-73466D01*
X53949Y-73327D01*
X53949Y-73349D01*
X53987Y-73441D01*
X54058Y-73511D01*
X54150Y-73549D01*
X54249Y-73550D01*
X54849Y-73550D01*
X54941Y-73512D01*
X55011Y-73441D01*
X55049Y-73349D01*
X55050Y-73250D01*
X55050Y-74650D01*
X55012Y-74558D01*
X54941Y-74488D01*
X54849Y-74450D01*
X54750Y-74449D01*
X54150Y-74449D01*
X54058Y-74487D01*
X53988Y-74558D01*
X53950Y-74650D01*
X53950Y-74672D01*
X53811Y-74534D01*
X53609Y-74450D01*
X53391Y-74449D01*
X53188Y-74533D01*
X53034Y-74688D01*
X53000Y-74769D01*
X52966Y-74688D01*
X52811Y-74534D01*
X52609Y-74450D01*
X52391Y-74449D01*
X52188Y-74533D01*
X52034Y-74688D01*
X52000Y-74769D01*
X51966Y-74688D01*
X51811Y-74534D01*
X51609Y-74450D01*
X51391Y-74449D01*
X51188Y-74533D01*
X51034Y-74688D01*
X51000Y-74769D01*
X50966Y-74688D01*
X50811Y-74534D01*
X50609Y-74450D01*
X50391Y-74449D01*
X50188Y-74533D01*
X50034Y-74688D01*
X49950Y-74890D01*
X49949Y-75108D01*
X50033Y-75311D01*
X50188Y-75465D01*
X50390Y-75549D01*
X50608Y-75550D01*
X50811Y-75466D01*
X50965Y-75311D01*
X50999Y-75230D01*
X51033Y-75311D01*
X51188Y-75465D01*
X51390Y-75549D01*
X51608Y-75550D01*
X51811Y-75466D01*
X51965Y-75311D01*
X51999Y-75230D01*
X52033Y-75311D01*
X52188Y-75465D01*
X52390Y-75549D01*
X52608Y-75550D01*
X52811Y-75466D01*
X52965Y-75311D01*
X52999Y-75230D01*
X53033Y-75311D01*
X53188Y-75465D01*
X53390Y-75549D01*
X53608Y-75550D01*
X53811Y-75466D01*
X53949Y-75327D01*
X53949Y-75349D01*
X53987Y-75441D01*
X54058Y-75511D01*
X54150Y-75549D01*
X54249Y-75550D01*
X54849Y-75550D01*
X54941Y-75512D01*
X55011Y-75441D01*
X55049Y-75349D01*
X55050Y-75250D01*
X55050Y-77230D01*
X48500Y-77230D01*
X48500Y-68400D01*
X48424Y-68217D01*
X48283Y-68076D01*
X48099Y-68000D01*
X47900Y-67999D01*
X47717Y-68075D01*
X47621Y-68171D01*
X40030Y-68171D01*
X40030Y-68170D01*
X39992Y-68078D01*
X39921Y-68008D01*
X39829Y-67970D01*
X39730Y-67969D01*
X39170Y-67969D01*
X39078Y-68007D01*
X39008Y-68078D01*
X38970Y-68170D01*
X38969Y-68269D01*
X38969Y-68829D01*
X39007Y-68921D01*
X39078Y-68991D01*
X39170Y-69029D01*
X39269Y-69030D01*
X39829Y-69030D01*
X39921Y-68992D01*
X39991Y-68921D01*
X40029Y-68829D01*
X40029Y-68828D01*
X47621Y-68828D01*
X47716Y-68923D01*
X47900Y-68999D01*
X48099Y-69000D01*
X48282Y-68924D01*
X48423Y-68783D01*
X48499Y-68599D01*
X48500Y-68400D01*
X48500Y-77230D01*
X48025Y-77230D01*
X48025Y-76396D01*
X48025Y-73396D01*
X47945Y-73203D01*
X47797Y-73055D01*
X47604Y-72975D01*
X47396Y-72974D01*
X47203Y-73054D01*
X47055Y-73202D01*
X46999Y-73335D01*
X46945Y-73203D01*
X46797Y-73055D01*
X46604Y-72975D01*
X46396Y-72974D01*
X46203Y-73054D01*
X46055Y-73202D01*
X45999Y-73335D01*
X45945Y-73203D01*
X45797Y-73055D01*
X45604Y-72975D01*
X45396Y-72974D01*
X45203Y-73054D01*
X45055Y-73202D01*
X44999Y-73335D01*
X44945Y-73203D01*
X44797Y-73055D01*
X44604Y-72975D01*
X44396Y-72974D01*
X44203Y-73054D01*
X44055Y-73202D01*
X43999Y-73335D01*
X43945Y-73203D01*
X43797Y-73055D01*
X43604Y-72975D01*
X43396Y-72974D01*
X43203Y-73054D01*
X43055Y-73202D01*
X42999Y-73335D01*
X42945Y-73203D01*
X42797Y-73055D01*
X42604Y-72975D01*
X42396Y-72974D01*
X42203Y-73054D01*
X42055Y-73202D01*
X41999Y-73335D01*
X41945Y-73203D01*
X41797Y-73055D01*
X41604Y-72975D01*
X41396Y-72974D01*
X41203Y-73054D01*
X41055Y-73202D01*
X40999Y-73335D01*
X40945Y-73203D01*
X40797Y-73055D01*
X40604Y-72975D01*
X40396Y-72974D01*
X40203Y-73054D01*
X40055Y-73202D01*
X40030Y-73262D01*
X40030Y-71395D01*
X39949Y-71200D01*
X39800Y-71050D01*
X39605Y-70970D01*
X39395Y-70969D01*
X39200Y-71050D01*
X39079Y-71171D01*
X37879Y-71171D01*
X37879Y-70663D01*
X37842Y-70571D01*
X37771Y-70500D01*
X37679Y-70462D01*
X37580Y-70462D01*
X36202Y-70462D01*
X36110Y-70500D01*
X36040Y-70570D01*
X36001Y-70662D01*
X36001Y-70762D01*
X36001Y-72336D01*
X36039Y-72428D01*
X36110Y-72499D01*
X36201Y-72537D01*
X36301Y-72537D01*
X37513Y-72537D01*
X37885Y-72909D01*
X37609Y-72909D01*
X37518Y-72947D01*
X37447Y-73017D01*
X37409Y-73109D01*
X37409Y-73209D01*
X37409Y-74390D01*
X37447Y-74481D01*
X37517Y-74552D01*
X37609Y-74590D01*
X37709Y-74590D01*
X38890Y-74590D01*
X38981Y-74552D01*
X39052Y-74482D01*
X39090Y-74390D01*
X39090Y-74290D01*
X39090Y-73109D01*
X39052Y-73018D01*
X38982Y-72947D01*
X38890Y-72909D01*
X38790Y-72909D01*
X38578Y-72909D01*
X38578Y-72809D01*
X38553Y-72683D01*
X38553Y-72683D01*
X38482Y-72576D01*
X37879Y-71974D01*
X37879Y-71828D01*
X39079Y-71828D01*
X39199Y-71949D01*
X39394Y-72029D01*
X39604Y-72030D01*
X39799Y-71949D01*
X39949Y-71800D01*
X40029Y-71605D01*
X40030Y-71395D01*
X40030Y-73262D01*
X39975Y-73395D01*
X39974Y-73603D01*
X40054Y-73797D01*
X40202Y-73944D01*
X40395Y-74024D01*
X40603Y-74025D01*
X40797Y-73945D01*
X40944Y-73797D01*
X41000Y-73664D01*
X41054Y-73797D01*
X41202Y-73944D01*
X41395Y-74024D01*
X41603Y-74025D01*
X41797Y-73945D01*
X41944Y-73797D01*
X42000Y-73664D01*
X42054Y-73797D01*
X42202Y-73944D01*
X42395Y-74024D01*
X42603Y-74025D01*
X42797Y-73945D01*
X42944Y-73797D01*
X43000Y-73664D01*
X43054Y-73797D01*
X43202Y-73944D01*
X43395Y-74024D01*
X43603Y-74025D01*
X43797Y-73945D01*
X43944Y-73797D01*
X44000Y-73664D01*
X44054Y-73797D01*
X44202Y-73944D01*
X44395Y-74024D01*
X44603Y-74025D01*
X44797Y-73945D01*
X44944Y-73797D01*
X45000Y-73664D01*
X45054Y-73797D01*
X45202Y-73944D01*
X45395Y-74024D01*
X45603Y-74025D01*
X45797Y-73945D01*
X45944Y-73797D01*
X46000Y-73664D01*
X46054Y-73797D01*
X46202Y-73944D01*
X46395Y-74024D01*
X46603Y-74025D01*
X46797Y-73945D01*
X46944Y-73797D01*
X47000Y-73664D01*
X47054Y-73797D01*
X47202Y-73944D01*
X47395Y-74024D01*
X47603Y-74025D01*
X47797Y-73945D01*
X47944Y-73797D01*
X48024Y-73604D01*
X48025Y-73396D01*
X48025Y-76396D01*
X47945Y-76203D01*
X47797Y-76055D01*
X47604Y-75975D01*
X47396Y-75974D01*
X47203Y-76054D01*
X47055Y-76202D01*
X46999Y-76335D01*
X46945Y-76203D01*
X46797Y-76055D01*
X46604Y-75975D01*
X46396Y-75974D01*
X46203Y-76054D01*
X46055Y-76202D01*
X45999Y-76335D01*
X45945Y-76203D01*
X45797Y-76055D01*
X45604Y-75975D01*
X45396Y-75974D01*
X45203Y-76054D01*
X45055Y-76202D01*
X44999Y-76335D01*
X44945Y-76203D01*
X44797Y-76055D01*
X44604Y-75975D01*
X44396Y-75974D01*
X44203Y-76054D01*
X44055Y-76202D01*
X43999Y-76335D01*
X43945Y-76203D01*
X43797Y-76055D01*
X43604Y-75975D01*
X43396Y-75974D01*
X43203Y-76054D01*
X43055Y-76202D01*
X42999Y-76335D01*
X42945Y-76203D01*
X42797Y-76055D01*
X42604Y-75975D01*
X42396Y-75974D01*
X42203Y-76054D01*
X42055Y-76202D01*
X41999Y-76335D01*
X41945Y-76203D01*
X41797Y-76055D01*
X41604Y-75975D01*
X41396Y-75974D01*
X41203Y-76054D01*
X41055Y-76202D01*
X41025Y-76274D01*
X41025Y-76175D01*
X40987Y-76083D01*
X40916Y-76013D01*
X40824Y-75975D01*
X40725Y-75974D01*
X40175Y-75974D01*
X40083Y-76012D01*
X40013Y-76083D01*
X39975Y-76175D01*
X39974Y-76274D01*
X39974Y-76824D01*
X40012Y-76916D01*
X40083Y-76986D01*
X40175Y-77024D01*
X40274Y-77025D01*
X40824Y-77025D01*
X40916Y-76987D01*
X40986Y-76916D01*
X41024Y-76824D01*
X41025Y-76725D01*
X41025Y-76725D01*
X41054Y-76797D01*
X41202Y-76944D01*
X41395Y-77024D01*
X41603Y-77025D01*
X41797Y-76945D01*
X41944Y-76797D01*
X42000Y-76664D01*
X42054Y-76797D01*
X42202Y-76944D01*
X42395Y-77024D01*
X42603Y-77025D01*
X42797Y-76945D01*
X42944Y-76797D01*
X43000Y-76664D01*
X43054Y-76797D01*
X43202Y-76944D01*
X43395Y-77024D01*
X43603Y-77025D01*
X43797Y-76945D01*
X43944Y-76797D01*
X44000Y-76664D01*
X44054Y-76797D01*
X44202Y-76944D01*
X44395Y-77024D01*
X44603Y-77025D01*
X44797Y-76945D01*
X44944Y-76797D01*
X45000Y-76664D01*
X45054Y-76797D01*
X45202Y-76944D01*
X45395Y-77024D01*
X45603Y-77025D01*
X45797Y-76945D01*
X45944Y-76797D01*
X46000Y-76664D01*
X46054Y-76797D01*
X46202Y-76944D01*
X46395Y-77024D01*
X46603Y-77025D01*
X46797Y-76945D01*
X46944Y-76797D01*
X47000Y-76664D01*
X47054Y-76797D01*
X47202Y-76944D01*
X47395Y-77024D01*
X47603Y-77025D01*
X47797Y-76945D01*
X47944Y-76797D01*
X48024Y-76604D01*
X48025Y-76396D01*
X48025Y-77230D01*
X37090Y-77230D01*
X37090Y-73583D01*
X36962Y-73274D01*
X36726Y-73037D01*
X36417Y-72909D01*
X36083Y-72909D01*
X35774Y-73037D01*
X35537Y-73273D01*
X35517Y-73321D01*
X35517Y-72139D01*
X35517Y-70761D01*
X35479Y-70669D01*
X35409Y-70599D01*
X35317Y-70561D01*
X35218Y-70560D01*
X33840Y-70560D01*
X33748Y-70598D01*
X33677Y-70669D01*
X33639Y-70761D01*
X33639Y-70860D01*
X33639Y-72238D01*
X33677Y-72330D01*
X33747Y-72400D01*
X33839Y-72438D01*
X33939Y-72439D01*
X35317Y-72439D01*
X35409Y-72401D01*
X35479Y-72330D01*
X35517Y-72238D01*
X35517Y-72139D01*
X35517Y-73321D01*
X35409Y-73582D01*
X35409Y-73916D01*
X35537Y-74225D01*
X35773Y-74462D01*
X36082Y-74590D01*
X36416Y-74590D01*
X36725Y-74462D01*
X36962Y-74226D01*
X37090Y-73917D01*
X37090Y-73583D01*
X37090Y-77230D01*
X34992Y-77230D01*
X34992Y-76103D01*
X34879Y-75830D01*
X34670Y-75621D01*
X34398Y-75508D01*
X34103Y-75507D01*
X33830Y-75620D01*
X33621Y-75829D01*
X33508Y-76101D01*
X33507Y-76396D01*
X33620Y-76669D01*
X33829Y-76878D01*
X34101Y-76991D01*
X34396Y-76992D01*
X34669Y-76879D01*
X34878Y-76670D01*
X34991Y-76398D01*
X34992Y-76103D01*
X34992Y-77230D01*
X33269Y-77230D01*
X33269Y-45269D01*
X68730Y-45269D01*
X68730Y-77230D01*
M02*
