G04 (created by PCBNEW (2013-june-11)-stable) date Sat 16 Jun 2018 15:02:10 EDT*
%MOIN*%
G04 Gerber Fmt 3.4, Leading zero omitted, Abs format*
%FSLAX34Y34*%
G01*
G70*
G90*
G04 APERTURE LIST*
%ADD10C,0.00590551*%
%ADD11R,0.06X0.06*%
%ADD12C,0.06*%
%ADD13C,0.055*%
%ADD14R,0.1181X0.1181*%
%ADD15C,0.1181*%
%ADD16R,0.1X0.1*%
%ADD17C,0.1*%
%ADD18R,0.056X0.056*%
%ADD19C,0.056*%
%ADD20R,0.055X0.055*%
%ADD21R,0.1378X0.15748*%
%ADD22R,0.1378X0.1378*%
%ADD23C,0.035*%
%ADD24C,0.05*%
%ADD25C,0.01*%
%ADD26C,0.0551181*%
%ADD27C,0.015748*%
G04 APERTURE END LIST*
G54D10*
G54D11*
X35000Y-67000D03*
G54D12*
X35000Y-66000D03*
X35000Y-65000D03*
X35000Y-64000D03*
X35000Y-63000D03*
X35000Y-62000D03*
X35000Y-61000D03*
X35000Y-60000D03*
G54D13*
X36500Y-61000D03*
X37500Y-61000D03*
X37500Y-62000D03*
X38500Y-62000D03*
X36500Y-63000D03*
X37500Y-63000D03*
X37500Y-64000D03*
X38500Y-64000D03*
X36500Y-65000D03*
X37500Y-65000D03*
X37500Y-66000D03*
X38500Y-66000D03*
X48000Y-52000D03*
X48000Y-53000D03*
X42500Y-50500D03*
X43500Y-50500D03*
G54D11*
X54500Y-75000D03*
G54D12*
X53500Y-75000D03*
X52500Y-75000D03*
X51500Y-75000D03*
X50500Y-75000D03*
G54D11*
X54500Y-73000D03*
G54D12*
X53500Y-73000D03*
X52500Y-73000D03*
X51500Y-73000D03*
X50500Y-73000D03*
G54D11*
X67500Y-55000D03*
G54D12*
X67500Y-56000D03*
X67500Y-57000D03*
X67500Y-58000D03*
G54D11*
X67500Y-59500D03*
G54D12*
X67500Y-60500D03*
X67500Y-61500D03*
X67500Y-62500D03*
G54D14*
X35000Y-55000D03*
G54D15*
X35000Y-53000D03*
G54D12*
X55503Y-58000D03*
X55503Y-57000D03*
X55503Y-56000D03*
X55503Y-55000D03*
X55503Y-54000D03*
X55503Y-53000D03*
G54D11*
X55503Y-52000D03*
G54D12*
X55503Y-59000D03*
X55503Y-60000D03*
X55503Y-61000D03*
X55503Y-62000D03*
X55503Y-63000D03*
X55503Y-64000D03*
X55503Y-65000D03*
X49496Y-65000D03*
X49496Y-64000D03*
X49496Y-63000D03*
X49496Y-62000D03*
X49496Y-61000D03*
X49496Y-60000D03*
X49496Y-59000D03*
X49496Y-58000D03*
X49496Y-57000D03*
X49496Y-56000D03*
X49496Y-55000D03*
X49496Y-54000D03*
X49496Y-53000D03*
X49496Y-52000D03*
G54D16*
X39500Y-50988D03*
G54D17*
X39500Y-52996D03*
X39500Y-55003D03*
X39500Y-57011D03*
G54D18*
X39500Y-68500D03*
G54D19*
X39500Y-71500D03*
G54D20*
X43500Y-52000D03*
G54D13*
X43500Y-53000D03*
X43500Y-54000D03*
X43500Y-55000D03*
X46500Y-55000D03*
X46500Y-54000D03*
X46500Y-53000D03*
X46500Y-52000D03*
G54D20*
X54500Y-68000D03*
G54D13*
X53500Y-68000D03*
X52500Y-68000D03*
X51500Y-68000D03*
X51500Y-71000D03*
X52500Y-71000D03*
X53500Y-71000D03*
X54500Y-71000D03*
G54D20*
X62500Y-55000D03*
G54D13*
X62500Y-56000D03*
X62500Y-57000D03*
X62500Y-58000D03*
X62500Y-59000D03*
X62500Y-60000D03*
X62500Y-61000D03*
X62500Y-62000D03*
X65500Y-62000D03*
X65500Y-61000D03*
X65500Y-60000D03*
X65500Y-59000D03*
X65500Y-58000D03*
X65500Y-57000D03*
X65500Y-56000D03*
X65500Y-55000D03*
X59500Y-55000D03*
X59500Y-56000D03*
X59500Y-58000D03*
X59500Y-59000D03*
X58000Y-55000D03*
X58000Y-56000D03*
X59500Y-60500D03*
X59500Y-61500D03*
X64500Y-52500D03*
X63500Y-52500D03*
G54D21*
X36940Y-71500D03*
G54D22*
X34578Y-71500D03*
G54D20*
X40500Y-76500D03*
G54D13*
X41500Y-76500D03*
X42500Y-76500D03*
X43500Y-76500D03*
X44500Y-76500D03*
X45500Y-76500D03*
X46500Y-76500D03*
X47500Y-76500D03*
X47500Y-73500D03*
X46500Y-73500D03*
X45500Y-73500D03*
X44500Y-73500D03*
X43500Y-73500D03*
X42500Y-73500D03*
X41500Y-73500D03*
X40500Y-73500D03*
G54D23*
X47550Y-54950D03*
X67000Y-62000D03*
X56250Y-59500D03*
X64250Y-62000D03*
X64250Y-58500D03*
X41150Y-52550D03*
X41500Y-64050D03*
X66650Y-58000D03*
X66500Y-61500D03*
X42950Y-60000D03*
X43500Y-61000D03*
X44550Y-62000D03*
X45500Y-63000D03*
X46450Y-64000D03*
X47500Y-65000D03*
X63250Y-56500D03*
X64750Y-57500D03*
X54750Y-53500D03*
G54D24*
X48000Y-58000D03*
X48000Y-68500D03*
G54D23*
X66250Y-60500D03*
X54400Y-55000D03*
X54400Y-56500D03*
X55100Y-55500D03*
X52500Y-64000D03*
G54D25*
X48000Y-52000D02*
X47300Y-52700D01*
X47300Y-54700D02*
X47550Y-54950D01*
X47300Y-52700D02*
X47300Y-54700D01*
X67500Y-56000D02*
X67000Y-56500D01*
X67000Y-56500D02*
X67000Y-62000D01*
X55750Y-61000D02*
X55503Y-61000D01*
X56250Y-60500D02*
X55750Y-61000D01*
X56250Y-59500D02*
X56250Y-60500D01*
X64250Y-58500D02*
X64250Y-62000D01*
X40500Y-73500D02*
X40500Y-54850D01*
X41150Y-54200D02*
X41150Y-52550D01*
X40500Y-54850D02*
X41150Y-54200D01*
X41500Y-64050D02*
X41500Y-73500D01*
X66500Y-61500D02*
X66650Y-61250D01*
X66650Y-61250D02*
X66650Y-58000D01*
X42500Y-73500D02*
X42500Y-60450D01*
X42500Y-60450D02*
X42950Y-60000D01*
X43500Y-61000D02*
X43500Y-73500D01*
X44500Y-73500D02*
X44500Y-62050D01*
X44500Y-62050D02*
X44550Y-62000D01*
X45500Y-63000D02*
X45500Y-73500D01*
X46500Y-73500D02*
X46500Y-64050D01*
X46500Y-64050D02*
X46450Y-64000D01*
X47500Y-65000D02*
X47500Y-73500D01*
X52500Y-73000D02*
X52500Y-75000D01*
X52500Y-71000D02*
X52500Y-73000D01*
X53500Y-73000D02*
X53500Y-75000D01*
X53500Y-71000D02*
X53500Y-73000D01*
X54500Y-73000D02*
X54500Y-75000D01*
X54500Y-71000D02*
X54500Y-73000D01*
X43500Y-53000D02*
X43750Y-53000D01*
X44250Y-54250D02*
X43500Y-55000D01*
X44250Y-53500D02*
X44250Y-54250D01*
X43750Y-53000D02*
X44250Y-53500D01*
X63000Y-61000D02*
X62500Y-61000D01*
X63250Y-60750D02*
X63000Y-61000D01*
X63250Y-56500D02*
X63250Y-60750D01*
G54D26*
X39500Y-50988D02*
X39500Y-51000D01*
X38250Y-55761D02*
X39500Y-57011D01*
X38250Y-52250D02*
X38250Y-55761D01*
X39500Y-51000D02*
X38250Y-52250D01*
G54D25*
X65500Y-60000D02*
X65500Y-61000D01*
X64750Y-60000D02*
X65500Y-60000D01*
X64750Y-57500D02*
X64750Y-60000D01*
X55250Y-57000D02*
X55503Y-57000D01*
X54750Y-56500D02*
X55250Y-57000D01*
X54750Y-53500D02*
X54750Y-56500D01*
X46500Y-53000D02*
X46500Y-54000D01*
G54D27*
X48000Y-68500D02*
X48000Y-58000D01*
G54D25*
X65750Y-57000D02*
X65500Y-57000D01*
X66250Y-57500D02*
X65750Y-57000D01*
X66250Y-60500D02*
X66250Y-57500D01*
X54400Y-56500D02*
X54400Y-55000D01*
X55050Y-54453D02*
X55503Y-54000D01*
X55050Y-55450D02*
X55050Y-54453D01*
X55100Y-55500D02*
X55050Y-55450D01*
X52500Y-68000D02*
X52500Y-64000D01*
X39500Y-55003D02*
X39500Y-55000D01*
X41500Y-50500D02*
X42500Y-50500D01*
X40500Y-51500D02*
X41500Y-50500D01*
X40500Y-54000D02*
X40500Y-51500D01*
X39500Y-55000D02*
X40500Y-54000D01*
X43500Y-50500D02*
X43500Y-52000D01*
X43500Y-52000D02*
X42750Y-52750D01*
X42750Y-52750D02*
X42750Y-53750D01*
X42750Y-53750D02*
X43000Y-54000D01*
X43000Y-54000D02*
X43500Y-54000D01*
X53500Y-68000D02*
X53500Y-66000D01*
X54500Y-65000D02*
X55503Y-65000D01*
X53500Y-66000D02*
X54500Y-65000D01*
X51500Y-73000D02*
X51500Y-75000D01*
X51500Y-71000D02*
X51500Y-73000D01*
G54D10*
G36*
X68730Y-77230D02*
X68492Y-77230D01*
X68492Y-76103D01*
X68492Y-46103D01*
X68379Y-45830D01*
X68170Y-45621D01*
X67898Y-45508D01*
X67603Y-45507D01*
X67330Y-45620D01*
X67121Y-45829D01*
X67008Y-46101D01*
X67007Y-46396D01*
X67120Y-46669D01*
X67329Y-46878D01*
X67601Y-46991D01*
X67896Y-46992D01*
X68169Y-46879D01*
X68378Y-46670D01*
X68491Y-46398D01*
X68492Y-46103D01*
X68492Y-76103D01*
X68379Y-75830D01*
X68170Y-75621D01*
X68050Y-75571D01*
X68050Y-61391D01*
X67966Y-61188D01*
X67811Y-61034D01*
X67730Y-61000D01*
X67811Y-60966D01*
X67965Y-60811D01*
X68049Y-60609D01*
X68050Y-60391D01*
X67966Y-60188D01*
X67811Y-60034D01*
X67609Y-59950D01*
X67391Y-59949D01*
X67300Y-59987D01*
X67300Y-57512D01*
X67390Y-57549D01*
X67608Y-57550D01*
X67811Y-57466D01*
X67965Y-57311D01*
X68049Y-57109D01*
X68050Y-56891D01*
X67966Y-56688D01*
X67811Y-56534D01*
X67730Y-56500D01*
X67811Y-56466D01*
X67965Y-56311D01*
X68049Y-56109D01*
X68050Y-55891D01*
X67966Y-55688D01*
X67811Y-55534D01*
X67609Y-55450D01*
X67391Y-55449D01*
X67188Y-55533D01*
X67034Y-55688D01*
X66950Y-55890D01*
X66949Y-56108D01*
X66954Y-56120D01*
X66787Y-56287D01*
X66722Y-56385D01*
X66700Y-56500D01*
X66700Y-57575D01*
X66565Y-57574D01*
X66550Y-57581D01*
X66550Y-57500D01*
X66527Y-57385D01*
X66462Y-57287D01*
X66462Y-57287D01*
X66025Y-56850D01*
X66025Y-54896D01*
X65945Y-54703D01*
X65797Y-54555D01*
X65604Y-54475D01*
X65396Y-54474D01*
X65203Y-54554D01*
X65055Y-54702D01*
X65025Y-54774D01*
X65025Y-52396D01*
X64945Y-52203D01*
X64797Y-52055D01*
X64604Y-51975D01*
X64396Y-51974D01*
X64203Y-52054D01*
X64055Y-52202D01*
X63975Y-52395D01*
X63974Y-52603D01*
X64054Y-52797D01*
X64202Y-52944D01*
X64395Y-53024D01*
X64603Y-53025D01*
X64797Y-52945D01*
X64944Y-52797D01*
X65024Y-52604D01*
X65025Y-52396D01*
X65025Y-54774D01*
X64975Y-54895D01*
X64974Y-55103D01*
X65054Y-55297D01*
X65202Y-55444D01*
X65395Y-55524D01*
X65603Y-55525D01*
X65797Y-55445D01*
X65944Y-55297D01*
X66024Y-55104D01*
X66025Y-54896D01*
X66025Y-56850D01*
X65993Y-56818D01*
X65945Y-56703D01*
X65797Y-56555D01*
X65604Y-56475D01*
X65396Y-56474D01*
X65203Y-56554D01*
X65055Y-56702D01*
X64975Y-56895D01*
X64974Y-57103D01*
X64989Y-57139D01*
X64834Y-57075D01*
X64665Y-57074D01*
X64509Y-57139D01*
X64389Y-57258D01*
X64325Y-57415D01*
X64324Y-57584D01*
X64389Y-57740D01*
X64450Y-57801D01*
X64450Y-58122D01*
X64334Y-58075D01*
X64165Y-58074D01*
X64009Y-58139D01*
X63889Y-58258D01*
X63825Y-58415D01*
X63824Y-58584D01*
X63889Y-58740D01*
X63950Y-58801D01*
X63950Y-61698D01*
X63889Y-61758D01*
X63825Y-61915D01*
X63824Y-62084D01*
X63889Y-62240D01*
X64008Y-62360D01*
X64165Y-62424D01*
X64334Y-62425D01*
X64490Y-62360D01*
X64610Y-62241D01*
X64674Y-62084D01*
X64675Y-61915D01*
X64610Y-61759D01*
X64550Y-61698D01*
X64550Y-60220D01*
X64635Y-60277D01*
X64750Y-60300D01*
X65057Y-60300D01*
X65200Y-60442D01*
X65200Y-60557D01*
X65055Y-60702D01*
X64975Y-60895D01*
X64974Y-61103D01*
X65054Y-61297D01*
X65202Y-61444D01*
X65335Y-61500D01*
X65203Y-61554D01*
X65055Y-61702D01*
X64975Y-61895D01*
X64974Y-62103D01*
X65054Y-62297D01*
X65202Y-62444D01*
X65395Y-62524D01*
X65603Y-62525D01*
X65797Y-62445D01*
X65944Y-62297D01*
X66024Y-62104D01*
X66025Y-61896D01*
X65945Y-61703D01*
X65797Y-61555D01*
X65664Y-61499D01*
X65797Y-61445D01*
X65944Y-61297D01*
X66024Y-61104D01*
X66025Y-60896D01*
X66010Y-60860D01*
X66165Y-60924D01*
X66334Y-60925D01*
X66350Y-60918D01*
X66350Y-61102D01*
X66259Y-61139D01*
X66139Y-61258D01*
X66075Y-61415D01*
X66074Y-61584D01*
X66139Y-61740D01*
X66258Y-61860D01*
X66415Y-61924D01*
X66575Y-61925D01*
X66574Y-62084D01*
X66639Y-62240D01*
X66758Y-62360D01*
X66915Y-62424D01*
X67084Y-62425D01*
X67240Y-62360D01*
X67360Y-62241D01*
X67424Y-62084D01*
X67424Y-62049D01*
X67608Y-62050D01*
X67811Y-61966D01*
X67965Y-61811D01*
X68049Y-61609D01*
X68050Y-61391D01*
X68050Y-75571D01*
X67898Y-75508D01*
X67603Y-75507D01*
X67330Y-75620D01*
X67121Y-75829D01*
X67008Y-76101D01*
X67007Y-76396D01*
X67120Y-76669D01*
X67329Y-76878D01*
X67601Y-76991D01*
X67896Y-76992D01*
X68169Y-76879D01*
X68378Y-76670D01*
X68491Y-76398D01*
X68492Y-76103D01*
X68492Y-77230D01*
X63675Y-77230D01*
X63675Y-56415D01*
X63610Y-56259D01*
X63491Y-56139D01*
X63334Y-56075D01*
X63165Y-56074D01*
X63010Y-56139D01*
X63024Y-56104D01*
X63025Y-55896D01*
X62945Y-55703D01*
X62797Y-55555D01*
X62725Y-55525D01*
X62824Y-55525D01*
X62916Y-55487D01*
X62986Y-55416D01*
X63024Y-55324D01*
X63025Y-55225D01*
X63025Y-54675D01*
X62987Y-54583D01*
X62916Y-54513D01*
X62824Y-54475D01*
X62725Y-54474D01*
X62175Y-54474D01*
X62083Y-54512D01*
X62013Y-54583D01*
X61975Y-54675D01*
X61974Y-54774D01*
X61974Y-55324D01*
X62012Y-55416D01*
X62083Y-55486D01*
X62175Y-55524D01*
X62274Y-55525D01*
X62274Y-55525D01*
X62203Y-55554D01*
X62055Y-55702D01*
X61975Y-55895D01*
X61974Y-56103D01*
X62054Y-56297D01*
X62202Y-56444D01*
X62335Y-56500D01*
X62203Y-56554D01*
X62055Y-56702D01*
X61975Y-56895D01*
X61974Y-57103D01*
X62054Y-57297D01*
X62202Y-57444D01*
X62335Y-57500D01*
X62203Y-57554D01*
X62055Y-57702D01*
X61975Y-57895D01*
X61974Y-58103D01*
X62054Y-58297D01*
X62202Y-58444D01*
X62335Y-58500D01*
X62203Y-58554D01*
X62055Y-58702D01*
X61975Y-58895D01*
X61974Y-59103D01*
X62054Y-59297D01*
X62202Y-59444D01*
X62335Y-59500D01*
X62203Y-59554D01*
X62055Y-59702D01*
X61975Y-59895D01*
X61974Y-60103D01*
X62054Y-60297D01*
X62202Y-60444D01*
X62335Y-60500D01*
X62203Y-60554D01*
X62055Y-60702D01*
X61975Y-60895D01*
X61974Y-61103D01*
X62054Y-61297D01*
X62202Y-61444D01*
X62335Y-61500D01*
X62203Y-61554D01*
X62055Y-61702D01*
X61975Y-61895D01*
X61974Y-62103D01*
X62054Y-62297D01*
X62202Y-62444D01*
X62395Y-62524D01*
X62603Y-62525D01*
X62797Y-62445D01*
X62944Y-62297D01*
X63024Y-62104D01*
X63025Y-61896D01*
X62945Y-61703D01*
X62797Y-61555D01*
X62664Y-61499D01*
X62797Y-61445D01*
X62942Y-61300D01*
X63000Y-61300D01*
X63000Y-61299D01*
X63114Y-61277D01*
X63114Y-61277D01*
X63212Y-61212D01*
X63462Y-60962D01*
X63462Y-60962D01*
X63527Y-60864D01*
X63549Y-60750D01*
X63550Y-60750D01*
X63550Y-56801D01*
X63610Y-56741D01*
X63674Y-56584D01*
X63675Y-56415D01*
X63675Y-77230D01*
X60025Y-77230D01*
X60025Y-60396D01*
X60025Y-58896D01*
X59945Y-58703D01*
X59797Y-58555D01*
X59664Y-58499D01*
X59797Y-58445D01*
X59944Y-58297D01*
X60024Y-58104D01*
X60025Y-57896D01*
X60025Y-55896D01*
X59945Y-55703D01*
X59797Y-55555D01*
X59664Y-55499D01*
X59797Y-55445D01*
X59944Y-55297D01*
X60024Y-55104D01*
X60025Y-54896D01*
X59945Y-54703D01*
X59797Y-54555D01*
X59604Y-54475D01*
X59396Y-54474D01*
X59203Y-54554D01*
X59055Y-54702D01*
X58975Y-54895D01*
X58974Y-55103D01*
X59054Y-55297D01*
X59202Y-55444D01*
X59335Y-55500D01*
X59203Y-55554D01*
X59055Y-55702D01*
X58975Y-55895D01*
X58974Y-56103D01*
X59054Y-56297D01*
X59202Y-56444D01*
X59395Y-56524D01*
X59603Y-56525D01*
X59797Y-56445D01*
X59944Y-56297D01*
X60024Y-56104D01*
X60025Y-55896D01*
X60025Y-57896D01*
X59945Y-57703D01*
X59797Y-57555D01*
X59604Y-57475D01*
X59396Y-57474D01*
X59203Y-57554D01*
X59055Y-57702D01*
X58975Y-57895D01*
X58974Y-58103D01*
X59054Y-58297D01*
X59202Y-58444D01*
X59335Y-58500D01*
X59203Y-58554D01*
X59055Y-58702D01*
X58975Y-58895D01*
X58974Y-59103D01*
X59054Y-59297D01*
X59202Y-59444D01*
X59395Y-59524D01*
X59603Y-59525D01*
X59797Y-59445D01*
X59944Y-59297D01*
X60024Y-59104D01*
X60025Y-58896D01*
X60025Y-60396D01*
X59945Y-60203D01*
X59797Y-60055D01*
X59604Y-59975D01*
X59396Y-59974D01*
X59203Y-60054D01*
X59055Y-60202D01*
X58975Y-60395D01*
X58974Y-60603D01*
X59054Y-60797D01*
X59202Y-60944D01*
X59395Y-61024D01*
X59603Y-61025D01*
X59797Y-60945D01*
X59944Y-60797D01*
X60024Y-60604D01*
X60025Y-60396D01*
X60025Y-77230D01*
X58525Y-77230D01*
X58525Y-54896D01*
X58445Y-54703D01*
X58297Y-54555D01*
X58104Y-54475D01*
X57896Y-54474D01*
X57703Y-54554D01*
X57555Y-54702D01*
X57475Y-54895D01*
X57474Y-55103D01*
X57554Y-55297D01*
X57702Y-55444D01*
X57895Y-55524D01*
X58103Y-55525D01*
X58297Y-55445D01*
X58444Y-55297D01*
X58524Y-55104D01*
X58525Y-54896D01*
X58525Y-77230D01*
X56675Y-77230D01*
X56675Y-59415D01*
X56610Y-59259D01*
X56491Y-59139D01*
X56334Y-59075D01*
X56165Y-59074D01*
X56048Y-59123D01*
X56053Y-59109D01*
X56054Y-58891D01*
X55970Y-58688D01*
X55815Y-58534D01*
X55734Y-58500D01*
X55815Y-58466D01*
X55969Y-58311D01*
X56053Y-58109D01*
X56054Y-57891D01*
X55970Y-57688D01*
X55815Y-57534D01*
X55734Y-57500D01*
X55815Y-57466D01*
X55969Y-57311D01*
X56053Y-57109D01*
X56054Y-56891D01*
X55970Y-56688D01*
X55815Y-56534D01*
X55734Y-56500D01*
X55815Y-56466D01*
X55969Y-56311D01*
X56053Y-56109D01*
X56054Y-55891D01*
X55970Y-55688D01*
X55815Y-55534D01*
X55734Y-55500D01*
X55815Y-55466D01*
X55969Y-55311D01*
X56053Y-55109D01*
X56054Y-54891D01*
X55970Y-54688D01*
X55815Y-54534D01*
X55734Y-54500D01*
X55815Y-54466D01*
X55969Y-54311D01*
X56053Y-54109D01*
X56054Y-53891D01*
X55970Y-53688D01*
X55815Y-53534D01*
X55734Y-53500D01*
X55815Y-53466D01*
X55969Y-53311D01*
X56053Y-53109D01*
X56054Y-52891D01*
X55970Y-52688D01*
X55831Y-52550D01*
X55853Y-52550D01*
X55945Y-52512D01*
X56015Y-52441D01*
X56053Y-52349D01*
X56053Y-52250D01*
X56053Y-51650D01*
X56016Y-51558D01*
X55945Y-51488D01*
X55933Y-51482D01*
X55933Y-50614D01*
X55829Y-50363D01*
X55637Y-50171D01*
X55386Y-50067D01*
X55114Y-50066D01*
X54863Y-50170D01*
X54671Y-50362D01*
X54567Y-50613D01*
X54566Y-50885D01*
X54670Y-51136D01*
X54862Y-51328D01*
X55113Y-51432D01*
X55385Y-51433D01*
X55636Y-51329D01*
X55828Y-51137D01*
X55932Y-50886D01*
X55933Y-50614D01*
X55933Y-51482D01*
X55853Y-51450D01*
X55754Y-51449D01*
X55154Y-51449D01*
X55062Y-51487D01*
X54992Y-51558D01*
X54953Y-51650D01*
X54953Y-51749D01*
X54953Y-52349D01*
X54991Y-52441D01*
X55062Y-52511D01*
X55153Y-52549D01*
X55176Y-52549D01*
X55037Y-52688D01*
X54954Y-52890D01*
X54953Y-53108D01*
X54961Y-53127D01*
X54834Y-53075D01*
X54665Y-53074D01*
X54509Y-53139D01*
X54389Y-53258D01*
X54325Y-53415D01*
X54324Y-53584D01*
X54389Y-53740D01*
X54450Y-53801D01*
X54450Y-54575D01*
X54315Y-54574D01*
X54159Y-54639D01*
X54039Y-54758D01*
X53975Y-54915D01*
X53974Y-55084D01*
X54039Y-55240D01*
X54100Y-55301D01*
X54100Y-56198D01*
X54039Y-56258D01*
X53975Y-56415D01*
X53974Y-56584D01*
X54039Y-56740D01*
X54158Y-56860D01*
X54315Y-56924D01*
X54484Y-56925D01*
X54640Y-56860D01*
X54663Y-56837D01*
X54967Y-57141D01*
X55037Y-57311D01*
X55191Y-57465D01*
X55273Y-57499D01*
X55192Y-57533D01*
X55037Y-57688D01*
X54954Y-57890D01*
X54953Y-58108D01*
X55037Y-58311D01*
X55191Y-58465D01*
X55273Y-58499D01*
X55192Y-58533D01*
X55037Y-58688D01*
X54954Y-58890D01*
X54953Y-59108D01*
X55037Y-59311D01*
X55191Y-59465D01*
X55273Y-59499D01*
X55192Y-59533D01*
X55037Y-59688D01*
X54954Y-59890D01*
X54953Y-60108D01*
X55037Y-60311D01*
X55191Y-60465D01*
X55273Y-60499D01*
X55192Y-60533D01*
X55037Y-60688D01*
X54954Y-60890D01*
X54953Y-61108D01*
X55037Y-61311D01*
X55191Y-61465D01*
X55273Y-61499D01*
X55192Y-61533D01*
X55037Y-61688D01*
X54954Y-61890D01*
X54953Y-62108D01*
X55037Y-62311D01*
X55191Y-62465D01*
X55273Y-62499D01*
X55192Y-62533D01*
X55037Y-62688D01*
X54954Y-62890D01*
X54953Y-63108D01*
X55037Y-63311D01*
X55191Y-63465D01*
X55273Y-63499D01*
X55192Y-63533D01*
X55037Y-63688D01*
X54954Y-63890D01*
X54953Y-64108D01*
X55037Y-64311D01*
X55191Y-64465D01*
X55273Y-64499D01*
X55192Y-64533D01*
X55037Y-64688D01*
X55032Y-64700D01*
X54500Y-64700D01*
X54385Y-64722D01*
X54287Y-64787D01*
X53287Y-65787D01*
X53222Y-65885D01*
X53200Y-66000D01*
X53200Y-67557D01*
X53055Y-67702D01*
X52999Y-67835D01*
X52945Y-67703D01*
X52800Y-67557D01*
X52800Y-64301D01*
X52860Y-64241D01*
X52924Y-64084D01*
X52925Y-63915D01*
X52860Y-63759D01*
X52741Y-63639D01*
X52584Y-63575D01*
X52415Y-63574D01*
X52259Y-63639D01*
X52139Y-63758D01*
X52075Y-63915D01*
X52074Y-64084D01*
X52139Y-64240D01*
X52200Y-64301D01*
X52200Y-67557D01*
X52055Y-67702D01*
X51975Y-67895D01*
X51974Y-68103D01*
X52054Y-68297D01*
X52202Y-68444D01*
X52395Y-68524D01*
X52603Y-68525D01*
X52797Y-68445D01*
X52944Y-68297D01*
X53000Y-68164D01*
X53054Y-68297D01*
X53202Y-68444D01*
X53395Y-68524D01*
X53603Y-68525D01*
X53797Y-68445D01*
X53944Y-68297D01*
X53974Y-68225D01*
X53974Y-68324D01*
X54012Y-68416D01*
X54083Y-68486D01*
X54175Y-68524D01*
X54274Y-68525D01*
X54824Y-68525D01*
X54916Y-68487D01*
X54986Y-68416D01*
X55024Y-68324D01*
X55025Y-68225D01*
X55025Y-67675D01*
X54987Y-67583D01*
X54916Y-67513D01*
X54824Y-67475D01*
X54725Y-67474D01*
X54175Y-67474D01*
X54083Y-67512D01*
X54013Y-67583D01*
X53975Y-67675D01*
X53974Y-67774D01*
X53974Y-67774D01*
X53945Y-67703D01*
X53800Y-67557D01*
X53800Y-66124D01*
X54624Y-65300D01*
X55032Y-65300D01*
X55037Y-65311D01*
X55191Y-65465D01*
X55394Y-65549D01*
X55612Y-65550D01*
X55815Y-65466D01*
X55969Y-65311D01*
X56053Y-65109D01*
X56054Y-64891D01*
X55970Y-64688D01*
X55815Y-64534D01*
X55734Y-64500D01*
X55815Y-64466D01*
X55969Y-64311D01*
X56053Y-64109D01*
X56054Y-63891D01*
X55970Y-63688D01*
X55815Y-63534D01*
X55734Y-63500D01*
X55815Y-63466D01*
X55969Y-63311D01*
X56053Y-63109D01*
X56054Y-62891D01*
X55970Y-62688D01*
X55815Y-62534D01*
X55734Y-62500D01*
X55815Y-62466D01*
X55969Y-62311D01*
X56053Y-62109D01*
X56054Y-61891D01*
X55970Y-61688D01*
X55815Y-61534D01*
X55734Y-61500D01*
X55815Y-61466D01*
X55969Y-61311D01*
X56046Y-61127D01*
X56462Y-60712D01*
X56462Y-60712D01*
X56527Y-60614D01*
X56549Y-60500D01*
X56550Y-60500D01*
X56550Y-59801D01*
X56610Y-59741D01*
X56674Y-59584D01*
X56675Y-59415D01*
X56675Y-77230D01*
X55933Y-77230D01*
X55933Y-66114D01*
X55829Y-65863D01*
X55637Y-65671D01*
X55386Y-65567D01*
X55114Y-65566D01*
X54863Y-65670D01*
X54671Y-65862D01*
X54567Y-66113D01*
X54566Y-66385D01*
X54670Y-66636D01*
X54862Y-66828D01*
X55113Y-66932D01*
X55385Y-66933D01*
X55636Y-66829D01*
X55828Y-66637D01*
X55932Y-66386D01*
X55933Y-66114D01*
X55933Y-77230D01*
X55050Y-77230D01*
X55050Y-75250D01*
X55050Y-74650D01*
X55012Y-74558D01*
X54941Y-74488D01*
X54849Y-74450D01*
X54800Y-74450D01*
X54800Y-73550D01*
X54849Y-73550D01*
X54941Y-73512D01*
X55011Y-73441D01*
X55049Y-73349D01*
X55050Y-73250D01*
X55050Y-72650D01*
X55012Y-72558D01*
X54941Y-72488D01*
X54849Y-72450D01*
X54800Y-72450D01*
X54800Y-71442D01*
X54944Y-71297D01*
X55024Y-71104D01*
X55025Y-70896D01*
X54945Y-70703D01*
X54797Y-70555D01*
X54604Y-70475D01*
X54396Y-70474D01*
X54203Y-70554D01*
X54055Y-70702D01*
X53999Y-70835D01*
X53945Y-70703D01*
X53797Y-70555D01*
X53604Y-70475D01*
X53396Y-70474D01*
X53203Y-70554D01*
X53055Y-70702D01*
X52999Y-70835D01*
X52945Y-70703D01*
X52797Y-70555D01*
X52604Y-70475D01*
X52396Y-70474D01*
X52203Y-70554D01*
X52055Y-70702D01*
X51999Y-70835D01*
X51945Y-70703D01*
X51797Y-70555D01*
X51604Y-70475D01*
X51396Y-70474D01*
X51203Y-70554D01*
X51055Y-70702D01*
X50975Y-70895D01*
X50974Y-71103D01*
X51054Y-71297D01*
X51200Y-71442D01*
X51200Y-72528D01*
X51188Y-72533D01*
X51034Y-72688D01*
X50950Y-72890D01*
X50949Y-73108D01*
X51033Y-73311D01*
X51188Y-73465D01*
X51200Y-73470D01*
X51200Y-74528D01*
X51188Y-74533D01*
X51034Y-74688D01*
X50950Y-74890D01*
X50949Y-75108D01*
X51033Y-75311D01*
X51188Y-75465D01*
X51390Y-75549D01*
X51608Y-75550D01*
X51811Y-75466D01*
X51965Y-75311D01*
X51999Y-75230D01*
X52033Y-75311D01*
X52188Y-75465D01*
X52390Y-75549D01*
X52608Y-75550D01*
X52811Y-75466D01*
X52965Y-75311D01*
X52999Y-75230D01*
X53033Y-75311D01*
X53188Y-75465D01*
X53390Y-75549D01*
X53608Y-75550D01*
X53811Y-75466D01*
X53949Y-75327D01*
X53949Y-75349D01*
X53987Y-75441D01*
X54058Y-75511D01*
X54150Y-75549D01*
X54249Y-75550D01*
X54849Y-75550D01*
X54941Y-75512D01*
X55011Y-75441D01*
X55049Y-75349D01*
X55050Y-75250D01*
X55050Y-77230D01*
X50433Y-77230D01*
X50433Y-66114D01*
X50433Y-50614D01*
X50329Y-50363D01*
X50137Y-50171D01*
X49886Y-50067D01*
X49614Y-50066D01*
X49363Y-50170D01*
X49171Y-50362D01*
X49067Y-50613D01*
X49066Y-50885D01*
X49170Y-51136D01*
X49362Y-51328D01*
X49613Y-51432D01*
X49885Y-51433D01*
X50136Y-51329D01*
X50328Y-51137D01*
X50432Y-50886D01*
X50433Y-50614D01*
X50433Y-66114D01*
X50329Y-65863D01*
X50137Y-65671D01*
X50046Y-65633D01*
X50046Y-64891D01*
X49962Y-64688D01*
X49808Y-64534D01*
X49726Y-64500D01*
X49807Y-64466D01*
X49962Y-64311D01*
X50045Y-64109D01*
X50046Y-63891D01*
X49962Y-63688D01*
X49808Y-63534D01*
X49726Y-63500D01*
X49807Y-63466D01*
X49962Y-63311D01*
X50045Y-63109D01*
X50046Y-62891D01*
X49962Y-62688D01*
X49808Y-62534D01*
X49726Y-62500D01*
X49807Y-62466D01*
X49962Y-62311D01*
X50045Y-62109D01*
X50046Y-61891D01*
X49962Y-61688D01*
X49808Y-61534D01*
X49726Y-61500D01*
X49807Y-61466D01*
X49962Y-61311D01*
X50045Y-61109D01*
X50046Y-60891D01*
X49962Y-60688D01*
X49808Y-60534D01*
X49726Y-60500D01*
X49807Y-60466D01*
X49962Y-60311D01*
X50045Y-60109D01*
X50046Y-59891D01*
X49962Y-59688D01*
X49808Y-59534D01*
X49726Y-59500D01*
X49807Y-59466D01*
X49962Y-59311D01*
X50045Y-59109D01*
X50046Y-58891D01*
X49962Y-58688D01*
X49808Y-58534D01*
X49726Y-58500D01*
X49807Y-58466D01*
X49962Y-58311D01*
X50045Y-58109D01*
X50046Y-57891D01*
X50046Y-54891D01*
X49962Y-54688D01*
X49808Y-54534D01*
X49726Y-54500D01*
X49807Y-54466D01*
X49962Y-54311D01*
X50045Y-54109D01*
X50046Y-53891D01*
X49962Y-53688D01*
X49808Y-53534D01*
X49726Y-53500D01*
X49807Y-53466D01*
X49962Y-53311D01*
X50045Y-53109D01*
X50046Y-52891D01*
X49962Y-52688D01*
X49808Y-52534D01*
X49726Y-52500D01*
X49807Y-52466D01*
X49962Y-52311D01*
X50045Y-52109D01*
X50046Y-51891D01*
X49962Y-51688D01*
X49808Y-51534D01*
X49605Y-51450D01*
X49387Y-51449D01*
X49184Y-51533D01*
X49030Y-51688D01*
X48946Y-51890D01*
X48945Y-52108D01*
X49029Y-52311D01*
X49184Y-52465D01*
X49265Y-52499D01*
X49184Y-52533D01*
X49030Y-52688D01*
X48946Y-52890D01*
X48945Y-53108D01*
X49029Y-53311D01*
X49184Y-53465D01*
X49265Y-53499D01*
X49184Y-53533D01*
X49030Y-53688D01*
X48946Y-53890D01*
X48945Y-54108D01*
X49029Y-54311D01*
X49184Y-54465D01*
X49265Y-54499D01*
X49184Y-54533D01*
X49030Y-54688D01*
X48946Y-54890D01*
X48945Y-55108D01*
X49029Y-55311D01*
X49184Y-55465D01*
X49386Y-55549D01*
X49604Y-55550D01*
X49807Y-55466D01*
X49962Y-55311D01*
X50045Y-55109D01*
X50046Y-54891D01*
X50046Y-57891D01*
X49962Y-57688D01*
X49808Y-57534D01*
X49605Y-57450D01*
X49387Y-57449D01*
X49184Y-57533D01*
X49030Y-57688D01*
X48946Y-57890D01*
X48945Y-58108D01*
X49029Y-58311D01*
X49184Y-58465D01*
X49265Y-58499D01*
X49184Y-58533D01*
X49030Y-58688D01*
X48946Y-58890D01*
X48945Y-59108D01*
X49029Y-59311D01*
X49184Y-59465D01*
X49265Y-59499D01*
X49184Y-59533D01*
X49030Y-59688D01*
X48946Y-59890D01*
X48945Y-60108D01*
X49029Y-60311D01*
X49184Y-60465D01*
X49265Y-60499D01*
X49184Y-60533D01*
X49030Y-60688D01*
X48946Y-60890D01*
X48945Y-61108D01*
X49029Y-61311D01*
X49184Y-61465D01*
X49265Y-61499D01*
X49184Y-61533D01*
X49030Y-61688D01*
X48946Y-61890D01*
X48945Y-62108D01*
X49029Y-62311D01*
X49184Y-62465D01*
X49265Y-62499D01*
X49184Y-62533D01*
X49030Y-62688D01*
X48946Y-62890D01*
X48945Y-63108D01*
X49029Y-63311D01*
X49184Y-63465D01*
X49265Y-63499D01*
X49184Y-63533D01*
X49030Y-63688D01*
X48946Y-63890D01*
X48945Y-64108D01*
X49029Y-64311D01*
X49184Y-64465D01*
X49265Y-64499D01*
X49184Y-64533D01*
X49030Y-64688D01*
X48946Y-64890D01*
X48945Y-65108D01*
X49029Y-65311D01*
X49184Y-65465D01*
X49386Y-65549D01*
X49604Y-65550D01*
X49807Y-65466D01*
X49962Y-65311D01*
X50045Y-65109D01*
X50046Y-64891D01*
X50046Y-65633D01*
X49886Y-65567D01*
X49614Y-65566D01*
X49363Y-65670D01*
X49171Y-65862D01*
X49067Y-66113D01*
X49066Y-66385D01*
X49170Y-66636D01*
X49362Y-66828D01*
X49613Y-66932D01*
X49885Y-66933D01*
X50136Y-66829D01*
X50328Y-66637D01*
X50432Y-66386D01*
X50433Y-66114D01*
X50433Y-77230D01*
X48525Y-77230D01*
X48525Y-52896D01*
X48445Y-52703D01*
X48297Y-52555D01*
X48164Y-52499D01*
X48297Y-52445D01*
X48444Y-52297D01*
X48524Y-52104D01*
X48525Y-51896D01*
X48445Y-51703D01*
X48297Y-51555D01*
X48104Y-51475D01*
X47896Y-51474D01*
X47703Y-51554D01*
X47555Y-51702D01*
X47475Y-51895D01*
X47474Y-52100D01*
X47087Y-52487D01*
X47022Y-52585D01*
X47000Y-52700D01*
X47000Y-52835D01*
X46945Y-52703D01*
X46797Y-52555D01*
X46604Y-52475D01*
X46396Y-52474D01*
X46203Y-52554D01*
X46055Y-52702D01*
X45975Y-52895D01*
X45974Y-53103D01*
X46054Y-53297D01*
X46200Y-53442D01*
X46200Y-53557D01*
X46055Y-53702D01*
X45975Y-53895D01*
X45974Y-54103D01*
X46054Y-54297D01*
X46202Y-54444D01*
X46395Y-54524D01*
X46603Y-54525D01*
X46797Y-54445D01*
X46944Y-54297D01*
X47000Y-54164D01*
X47000Y-54700D01*
X47022Y-54814D01*
X47087Y-54912D01*
X47125Y-54949D01*
X47124Y-55034D01*
X47189Y-55190D01*
X47308Y-55310D01*
X47465Y-55374D01*
X47634Y-55375D01*
X47790Y-55310D01*
X47910Y-55191D01*
X47974Y-55034D01*
X47975Y-54865D01*
X47910Y-54709D01*
X47791Y-54589D01*
X47634Y-54525D01*
X47600Y-54525D01*
X47600Y-53342D01*
X47702Y-53444D01*
X47895Y-53524D01*
X48103Y-53525D01*
X48297Y-53445D01*
X48444Y-53297D01*
X48524Y-53104D01*
X48525Y-52896D01*
X48525Y-77230D01*
X48500Y-77230D01*
X48500Y-68400D01*
X48424Y-68217D01*
X48328Y-68121D01*
X48328Y-58378D01*
X48423Y-58283D01*
X48499Y-58099D01*
X48500Y-57900D01*
X48424Y-57717D01*
X48283Y-57576D01*
X48099Y-57500D01*
X47900Y-57499D01*
X47717Y-57575D01*
X47576Y-57716D01*
X47500Y-57900D01*
X47499Y-58099D01*
X47575Y-58282D01*
X47671Y-58378D01*
X47671Y-64610D01*
X47584Y-64575D01*
X47415Y-64574D01*
X47259Y-64639D01*
X47139Y-64758D01*
X47075Y-64915D01*
X47074Y-65084D01*
X47139Y-65240D01*
X47200Y-65301D01*
X47200Y-73057D01*
X47055Y-73202D01*
X46999Y-73335D01*
X46945Y-73203D01*
X46800Y-73057D01*
X46800Y-64251D01*
X46810Y-64241D01*
X46874Y-64084D01*
X46875Y-63915D01*
X46810Y-63759D01*
X46691Y-63639D01*
X46534Y-63575D01*
X46365Y-63574D01*
X46209Y-63639D01*
X46089Y-63758D01*
X46025Y-63915D01*
X46024Y-64084D01*
X46089Y-64240D01*
X46200Y-64351D01*
X46200Y-73057D01*
X46055Y-73202D01*
X45999Y-73335D01*
X45945Y-73203D01*
X45800Y-73057D01*
X45800Y-63301D01*
X45860Y-63241D01*
X45924Y-63084D01*
X45925Y-62915D01*
X45860Y-62759D01*
X45741Y-62639D01*
X45584Y-62575D01*
X45415Y-62574D01*
X45259Y-62639D01*
X45139Y-62758D01*
X45075Y-62915D01*
X45074Y-63084D01*
X45139Y-63240D01*
X45200Y-63301D01*
X45200Y-73057D01*
X45055Y-73202D01*
X44999Y-73335D01*
X44945Y-73203D01*
X44800Y-73057D01*
X44800Y-62350D01*
X44910Y-62241D01*
X44974Y-62084D01*
X44975Y-61915D01*
X44910Y-61759D01*
X44791Y-61639D01*
X44634Y-61575D01*
X44465Y-61574D01*
X44309Y-61639D01*
X44189Y-61758D01*
X44125Y-61915D01*
X44124Y-62084D01*
X44189Y-62240D01*
X44200Y-62250D01*
X44200Y-73057D01*
X44055Y-73202D01*
X43999Y-73335D01*
X43945Y-73203D01*
X43800Y-73057D01*
X43800Y-61301D01*
X43860Y-61241D01*
X43924Y-61084D01*
X43925Y-60915D01*
X43860Y-60759D01*
X43741Y-60639D01*
X43584Y-60575D01*
X43415Y-60574D01*
X43259Y-60639D01*
X43139Y-60758D01*
X43075Y-60915D01*
X43074Y-61084D01*
X43139Y-61240D01*
X43200Y-61301D01*
X43200Y-73057D01*
X43055Y-73202D01*
X42999Y-73335D01*
X42945Y-73203D01*
X42800Y-73057D01*
X42800Y-60574D01*
X42949Y-60424D01*
X43034Y-60425D01*
X43190Y-60360D01*
X43310Y-60241D01*
X43374Y-60084D01*
X43375Y-59915D01*
X43310Y-59759D01*
X43191Y-59639D01*
X43034Y-59575D01*
X42865Y-59574D01*
X42709Y-59639D01*
X42589Y-59758D01*
X42525Y-59915D01*
X42524Y-60000D01*
X42287Y-60237D01*
X42222Y-60335D01*
X42200Y-60450D01*
X42200Y-73057D01*
X42055Y-73202D01*
X41999Y-73335D01*
X41945Y-73203D01*
X41800Y-73057D01*
X41800Y-64351D01*
X41860Y-64291D01*
X41924Y-64134D01*
X41925Y-63965D01*
X41860Y-63809D01*
X41741Y-63689D01*
X41584Y-63625D01*
X41415Y-63624D01*
X41259Y-63689D01*
X41139Y-63808D01*
X41075Y-63965D01*
X41074Y-64134D01*
X41139Y-64290D01*
X41200Y-64351D01*
X41200Y-73057D01*
X41055Y-73202D01*
X40999Y-73335D01*
X40945Y-73203D01*
X40800Y-73057D01*
X40800Y-54974D01*
X41362Y-54412D01*
X41362Y-54412D01*
X41427Y-54314D01*
X41449Y-54200D01*
X41450Y-54200D01*
X41450Y-52851D01*
X41510Y-52791D01*
X41574Y-52634D01*
X41575Y-52465D01*
X41510Y-52309D01*
X41391Y-52189D01*
X41234Y-52125D01*
X41065Y-52124D01*
X40909Y-52189D01*
X40800Y-52298D01*
X40800Y-51624D01*
X41624Y-50800D01*
X42057Y-50800D01*
X42202Y-50944D01*
X42395Y-51024D01*
X42603Y-51025D01*
X42797Y-50945D01*
X42944Y-50797D01*
X43000Y-50664D01*
X43054Y-50797D01*
X43200Y-50942D01*
X43200Y-51474D01*
X43175Y-51474D01*
X43083Y-51512D01*
X43013Y-51583D01*
X42975Y-51675D01*
X42974Y-51774D01*
X42974Y-52100D01*
X42537Y-52537D01*
X42472Y-52635D01*
X42450Y-52750D01*
X42450Y-53750D01*
X42472Y-53864D01*
X42537Y-53962D01*
X42787Y-54212D01*
X42787Y-54212D01*
X42885Y-54277D01*
X43000Y-54300D01*
X43057Y-54300D01*
X43202Y-54444D01*
X43335Y-54500D01*
X43203Y-54554D01*
X43055Y-54702D01*
X42975Y-54895D01*
X42974Y-55103D01*
X43054Y-55297D01*
X43202Y-55444D01*
X43395Y-55524D01*
X43603Y-55525D01*
X43797Y-55445D01*
X43944Y-55297D01*
X44024Y-55104D01*
X44025Y-54899D01*
X44462Y-54462D01*
X44462Y-54462D01*
X44527Y-54364D01*
X44549Y-54250D01*
X44550Y-54250D01*
X44550Y-53500D01*
X44527Y-53385D01*
X44462Y-53287D01*
X44462Y-53287D01*
X43993Y-52818D01*
X43945Y-52703D01*
X43797Y-52555D01*
X43725Y-52525D01*
X43824Y-52525D01*
X43916Y-52487D01*
X43986Y-52416D01*
X44024Y-52324D01*
X44025Y-52225D01*
X44025Y-51675D01*
X43987Y-51583D01*
X43916Y-51513D01*
X43824Y-51475D01*
X43800Y-51475D01*
X43800Y-50942D01*
X43944Y-50797D01*
X44024Y-50604D01*
X44025Y-50396D01*
X43945Y-50203D01*
X43797Y-50055D01*
X43604Y-49975D01*
X43396Y-49974D01*
X43203Y-50054D01*
X43055Y-50202D01*
X42999Y-50335D01*
X42945Y-50203D01*
X42797Y-50055D01*
X42604Y-49975D01*
X42396Y-49974D01*
X42203Y-50054D01*
X42057Y-50200D01*
X41500Y-50200D01*
X41385Y-50222D01*
X41287Y-50287D01*
X40287Y-51287D01*
X40250Y-51344D01*
X40250Y-50438D01*
X40212Y-50346D01*
X40141Y-50276D01*
X40049Y-50238D01*
X39950Y-50238D01*
X38950Y-50238D01*
X38858Y-50276D01*
X38788Y-50346D01*
X38750Y-50438D01*
X38749Y-50537D01*
X38749Y-51006D01*
X37878Y-51878D01*
X37764Y-52048D01*
X37724Y-52250D01*
X37724Y-52250D01*
X37724Y-55761D01*
X37724Y-55761D01*
X37764Y-55962D01*
X37878Y-56133D01*
X38750Y-57005D01*
X38749Y-57160D01*
X38863Y-57436D01*
X39074Y-57647D01*
X39350Y-57761D01*
X39648Y-57761D01*
X39924Y-57648D01*
X40135Y-57437D01*
X40200Y-57281D01*
X40200Y-73057D01*
X40055Y-73202D01*
X40030Y-73262D01*
X40030Y-71395D01*
X40030Y-71394D01*
X40030Y-68730D01*
X40030Y-68170D01*
X39992Y-68078D01*
X39921Y-68008D01*
X39829Y-67970D01*
X39730Y-67969D01*
X39170Y-67969D01*
X39078Y-68007D01*
X39025Y-68061D01*
X39025Y-65896D01*
X38945Y-65703D01*
X38797Y-65555D01*
X38604Y-65475D01*
X38396Y-65474D01*
X38203Y-65554D01*
X38055Y-65702D01*
X37999Y-65835D01*
X37945Y-65703D01*
X37797Y-65555D01*
X37664Y-65499D01*
X37797Y-65445D01*
X37944Y-65297D01*
X38024Y-65104D01*
X38025Y-64896D01*
X37945Y-64703D01*
X37797Y-64555D01*
X37664Y-64499D01*
X37797Y-64445D01*
X37944Y-64297D01*
X38000Y-64164D01*
X38054Y-64297D01*
X38202Y-64444D01*
X38395Y-64524D01*
X38603Y-64525D01*
X38797Y-64445D01*
X38944Y-64297D01*
X39024Y-64104D01*
X39025Y-63896D01*
X38945Y-63703D01*
X38797Y-63555D01*
X38604Y-63475D01*
X38396Y-63474D01*
X38203Y-63554D01*
X38055Y-63702D01*
X37999Y-63835D01*
X37945Y-63703D01*
X37797Y-63555D01*
X37664Y-63499D01*
X37797Y-63445D01*
X37944Y-63297D01*
X38024Y-63104D01*
X38025Y-62896D01*
X37945Y-62703D01*
X37797Y-62555D01*
X37664Y-62499D01*
X37797Y-62445D01*
X37944Y-62297D01*
X38000Y-62164D01*
X38054Y-62297D01*
X38202Y-62444D01*
X38395Y-62524D01*
X38603Y-62525D01*
X38797Y-62445D01*
X38944Y-62297D01*
X39024Y-62104D01*
X39025Y-61896D01*
X38945Y-61703D01*
X38797Y-61555D01*
X38604Y-61475D01*
X38396Y-61474D01*
X38203Y-61554D01*
X38055Y-61702D01*
X37999Y-61835D01*
X37945Y-61703D01*
X37797Y-61555D01*
X37664Y-61499D01*
X37797Y-61445D01*
X37944Y-61297D01*
X38024Y-61104D01*
X38025Y-60896D01*
X37945Y-60703D01*
X37797Y-60555D01*
X37604Y-60475D01*
X37396Y-60474D01*
X37203Y-60554D01*
X37055Y-60702D01*
X36999Y-60835D01*
X36945Y-60703D01*
X36797Y-60555D01*
X36604Y-60475D01*
X36396Y-60474D01*
X36203Y-60554D01*
X36055Y-60702D01*
X35975Y-60895D01*
X35974Y-61103D01*
X36054Y-61297D01*
X36202Y-61444D01*
X36395Y-61524D01*
X36603Y-61525D01*
X36797Y-61445D01*
X36944Y-61297D01*
X37000Y-61164D01*
X37054Y-61297D01*
X37202Y-61444D01*
X37335Y-61500D01*
X37203Y-61554D01*
X37055Y-61702D01*
X36975Y-61895D01*
X36974Y-62103D01*
X37054Y-62297D01*
X37202Y-62444D01*
X37335Y-62500D01*
X37203Y-62554D01*
X37055Y-62702D01*
X36999Y-62835D01*
X36945Y-62703D01*
X36797Y-62555D01*
X36604Y-62475D01*
X36396Y-62474D01*
X36203Y-62554D01*
X36055Y-62702D01*
X35975Y-62895D01*
X35974Y-63103D01*
X36054Y-63297D01*
X36202Y-63444D01*
X36395Y-63524D01*
X36603Y-63525D01*
X36797Y-63445D01*
X36944Y-63297D01*
X37000Y-63164D01*
X37054Y-63297D01*
X37202Y-63444D01*
X37335Y-63500D01*
X37203Y-63554D01*
X37055Y-63702D01*
X36975Y-63895D01*
X36974Y-64103D01*
X37054Y-64297D01*
X37202Y-64444D01*
X37335Y-64500D01*
X37203Y-64554D01*
X37055Y-64702D01*
X36999Y-64835D01*
X36945Y-64703D01*
X36797Y-64555D01*
X36604Y-64475D01*
X36396Y-64474D01*
X36203Y-64554D01*
X36055Y-64702D01*
X35975Y-64895D01*
X35974Y-65103D01*
X36054Y-65297D01*
X36202Y-65444D01*
X36395Y-65524D01*
X36603Y-65525D01*
X36797Y-65445D01*
X36944Y-65297D01*
X37000Y-65164D01*
X37054Y-65297D01*
X37202Y-65444D01*
X37335Y-65500D01*
X37203Y-65554D01*
X37055Y-65702D01*
X36975Y-65895D01*
X36974Y-66103D01*
X37054Y-66297D01*
X37202Y-66444D01*
X37395Y-66524D01*
X37603Y-66525D01*
X37797Y-66445D01*
X37944Y-66297D01*
X38000Y-66164D01*
X38054Y-66297D01*
X38202Y-66444D01*
X38395Y-66524D01*
X38603Y-66525D01*
X38797Y-66445D01*
X38944Y-66297D01*
X39024Y-66104D01*
X39025Y-65896D01*
X39025Y-68061D01*
X39008Y-68078D01*
X38970Y-68170D01*
X38969Y-68269D01*
X38969Y-68829D01*
X39007Y-68921D01*
X39078Y-68991D01*
X39170Y-69029D01*
X39269Y-69030D01*
X39829Y-69030D01*
X39921Y-68992D01*
X39991Y-68921D01*
X40029Y-68829D01*
X40030Y-68730D01*
X40030Y-71394D01*
X39949Y-71200D01*
X39800Y-71050D01*
X39605Y-70970D01*
X39395Y-70969D01*
X39200Y-71050D01*
X39050Y-71199D01*
X38970Y-71394D01*
X38969Y-71604D01*
X39050Y-71799D01*
X39199Y-71949D01*
X39394Y-72029D01*
X39604Y-72030D01*
X39799Y-71949D01*
X39949Y-71800D01*
X40029Y-71605D01*
X40030Y-71395D01*
X40030Y-73262D01*
X39975Y-73395D01*
X39974Y-73603D01*
X40054Y-73797D01*
X40202Y-73944D01*
X40395Y-74024D01*
X40603Y-74025D01*
X40797Y-73945D01*
X40944Y-73797D01*
X41000Y-73664D01*
X41054Y-73797D01*
X41202Y-73944D01*
X41395Y-74024D01*
X41603Y-74025D01*
X41797Y-73945D01*
X41944Y-73797D01*
X42000Y-73664D01*
X42054Y-73797D01*
X42202Y-73944D01*
X42395Y-74024D01*
X42603Y-74025D01*
X42797Y-73945D01*
X42944Y-73797D01*
X43000Y-73664D01*
X43054Y-73797D01*
X43202Y-73944D01*
X43395Y-74024D01*
X43603Y-74025D01*
X43797Y-73945D01*
X43944Y-73797D01*
X44000Y-73664D01*
X44054Y-73797D01*
X44202Y-73944D01*
X44395Y-74024D01*
X44603Y-74025D01*
X44797Y-73945D01*
X44944Y-73797D01*
X45000Y-73664D01*
X45054Y-73797D01*
X45202Y-73944D01*
X45395Y-74024D01*
X45603Y-74025D01*
X45797Y-73945D01*
X45944Y-73797D01*
X46000Y-73664D01*
X46054Y-73797D01*
X46202Y-73944D01*
X46395Y-74024D01*
X46603Y-74025D01*
X46797Y-73945D01*
X46944Y-73797D01*
X47000Y-73664D01*
X47054Y-73797D01*
X47202Y-73944D01*
X47395Y-74024D01*
X47603Y-74025D01*
X47797Y-73945D01*
X47944Y-73797D01*
X48024Y-73604D01*
X48025Y-73396D01*
X47945Y-73203D01*
X47800Y-73057D01*
X47800Y-68958D01*
X47900Y-68999D01*
X48099Y-69000D01*
X48282Y-68924D01*
X48423Y-68783D01*
X48499Y-68599D01*
X48500Y-68400D01*
X48500Y-77230D01*
X37879Y-77230D01*
X37879Y-72237D01*
X37879Y-70663D01*
X37842Y-70571D01*
X37771Y-70500D01*
X37679Y-70462D01*
X37580Y-70462D01*
X36202Y-70462D01*
X36110Y-70500D01*
X36040Y-70570D01*
X36001Y-70662D01*
X36001Y-70762D01*
X36001Y-72336D01*
X36039Y-72428D01*
X36110Y-72499D01*
X36201Y-72537D01*
X36301Y-72537D01*
X37679Y-72537D01*
X37771Y-72499D01*
X37841Y-72429D01*
X37879Y-72337D01*
X37879Y-72237D01*
X37879Y-77230D01*
X35840Y-77230D01*
X35840Y-52833D01*
X35712Y-52524D01*
X35476Y-52287D01*
X35167Y-52159D01*
X34992Y-52159D01*
X34992Y-46103D01*
X34879Y-45830D01*
X34670Y-45621D01*
X34398Y-45508D01*
X34103Y-45507D01*
X33830Y-45620D01*
X33621Y-45829D01*
X33508Y-46101D01*
X33507Y-46396D01*
X33620Y-46669D01*
X33829Y-46878D01*
X34101Y-46991D01*
X34396Y-46992D01*
X34669Y-46879D01*
X34878Y-46670D01*
X34991Y-46398D01*
X34992Y-46103D01*
X34992Y-52159D01*
X34833Y-52159D01*
X34524Y-52287D01*
X34287Y-52523D01*
X34159Y-52832D01*
X34159Y-53166D01*
X34287Y-53475D01*
X34523Y-53712D01*
X34832Y-53840D01*
X35166Y-53840D01*
X35475Y-53712D01*
X35712Y-53476D01*
X35840Y-53167D01*
X35840Y-52833D01*
X35840Y-77230D01*
X35840Y-77230D01*
X35840Y-55540D01*
X35840Y-54359D01*
X35802Y-54268D01*
X35732Y-54197D01*
X35640Y-54159D01*
X35540Y-54159D01*
X34359Y-54159D01*
X34268Y-54197D01*
X34197Y-54267D01*
X34159Y-54359D01*
X34159Y-54459D01*
X34159Y-55640D01*
X34197Y-55731D01*
X34267Y-55802D01*
X34359Y-55840D01*
X34459Y-55840D01*
X35640Y-55840D01*
X35731Y-55802D01*
X35802Y-55732D01*
X35840Y-55640D01*
X35840Y-55540D01*
X35840Y-77230D01*
X35550Y-77230D01*
X35550Y-65891D01*
X35466Y-65688D01*
X35311Y-65534D01*
X35230Y-65500D01*
X35311Y-65466D01*
X35465Y-65311D01*
X35549Y-65109D01*
X35550Y-64891D01*
X35466Y-64688D01*
X35311Y-64534D01*
X35230Y-64500D01*
X35311Y-64466D01*
X35465Y-64311D01*
X35549Y-64109D01*
X35550Y-63891D01*
X35466Y-63688D01*
X35311Y-63534D01*
X35230Y-63500D01*
X35311Y-63466D01*
X35465Y-63311D01*
X35549Y-63109D01*
X35550Y-62891D01*
X35466Y-62688D01*
X35311Y-62534D01*
X35230Y-62500D01*
X35311Y-62466D01*
X35465Y-62311D01*
X35549Y-62109D01*
X35550Y-61891D01*
X35466Y-61688D01*
X35311Y-61534D01*
X35230Y-61500D01*
X35311Y-61466D01*
X35465Y-61311D01*
X35549Y-61109D01*
X35550Y-60891D01*
X35466Y-60688D01*
X35311Y-60534D01*
X35109Y-60450D01*
X34891Y-60449D01*
X34688Y-60533D01*
X34534Y-60688D01*
X34450Y-60890D01*
X34449Y-61108D01*
X34533Y-61311D01*
X34688Y-61465D01*
X34769Y-61499D01*
X34688Y-61533D01*
X34534Y-61688D01*
X34450Y-61890D01*
X34449Y-62108D01*
X34533Y-62311D01*
X34688Y-62465D01*
X34769Y-62499D01*
X34688Y-62533D01*
X34534Y-62688D01*
X34450Y-62890D01*
X34449Y-63108D01*
X34533Y-63311D01*
X34688Y-63465D01*
X34769Y-63499D01*
X34688Y-63533D01*
X34534Y-63688D01*
X34450Y-63890D01*
X34449Y-64108D01*
X34533Y-64311D01*
X34688Y-64465D01*
X34769Y-64499D01*
X34688Y-64533D01*
X34534Y-64688D01*
X34450Y-64890D01*
X34449Y-65108D01*
X34533Y-65311D01*
X34688Y-65465D01*
X34769Y-65499D01*
X34688Y-65533D01*
X34534Y-65688D01*
X34450Y-65890D01*
X34449Y-66108D01*
X34533Y-66311D01*
X34672Y-66449D01*
X34650Y-66449D01*
X34558Y-66487D01*
X34488Y-66558D01*
X34450Y-66650D01*
X34449Y-66749D01*
X34449Y-67349D01*
X34487Y-67441D01*
X34558Y-67511D01*
X34650Y-67549D01*
X34749Y-67550D01*
X35349Y-67550D01*
X35441Y-67512D01*
X35511Y-67441D01*
X35549Y-67349D01*
X35550Y-67250D01*
X35550Y-66650D01*
X35512Y-66558D01*
X35441Y-66488D01*
X35349Y-66450D01*
X35327Y-66450D01*
X35465Y-66311D01*
X35549Y-66109D01*
X35550Y-65891D01*
X35550Y-77230D01*
X34992Y-77230D01*
X34992Y-76103D01*
X34879Y-75830D01*
X34670Y-75621D01*
X34398Y-75508D01*
X34103Y-75507D01*
X33830Y-75620D01*
X33621Y-75829D01*
X33508Y-76101D01*
X33507Y-76396D01*
X33620Y-76669D01*
X33829Y-76878D01*
X34101Y-76991D01*
X34396Y-76992D01*
X34669Y-76879D01*
X34878Y-76670D01*
X34991Y-76398D01*
X34992Y-76103D01*
X34992Y-77230D01*
X33269Y-77230D01*
X33269Y-45269D01*
X68730Y-45269D01*
X68730Y-77230D01*
X68730Y-77230D01*
G37*
G54D25*
X68730Y-77230D02*
X68492Y-77230D01*
X68492Y-76103D01*
X68492Y-46103D01*
X68379Y-45830D01*
X68170Y-45621D01*
X67898Y-45508D01*
X67603Y-45507D01*
X67330Y-45620D01*
X67121Y-45829D01*
X67008Y-46101D01*
X67007Y-46396D01*
X67120Y-46669D01*
X67329Y-46878D01*
X67601Y-46991D01*
X67896Y-46992D01*
X68169Y-46879D01*
X68378Y-46670D01*
X68491Y-46398D01*
X68492Y-46103D01*
X68492Y-76103D01*
X68379Y-75830D01*
X68170Y-75621D01*
X68050Y-75571D01*
X68050Y-61391D01*
X67966Y-61188D01*
X67811Y-61034D01*
X67730Y-61000D01*
X67811Y-60966D01*
X67965Y-60811D01*
X68049Y-60609D01*
X68050Y-60391D01*
X67966Y-60188D01*
X67811Y-60034D01*
X67609Y-59950D01*
X67391Y-59949D01*
X67300Y-59987D01*
X67300Y-57512D01*
X67390Y-57549D01*
X67608Y-57550D01*
X67811Y-57466D01*
X67965Y-57311D01*
X68049Y-57109D01*
X68050Y-56891D01*
X67966Y-56688D01*
X67811Y-56534D01*
X67730Y-56500D01*
X67811Y-56466D01*
X67965Y-56311D01*
X68049Y-56109D01*
X68050Y-55891D01*
X67966Y-55688D01*
X67811Y-55534D01*
X67609Y-55450D01*
X67391Y-55449D01*
X67188Y-55533D01*
X67034Y-55688D01*
X66950Y-55890D01*
X66949Y-56108D01*
X66954Y-56120D01*
X66787Y-56287D01*
X66722Y-56385D01*
X66700Y-56500D01*
X66700Y-57575D01*
X66565Y-57574D01*
X66550Y-57581D01*
X66550Y-57500D01*
X66527Y-57385D01*
X66462Y-57287D01*
X66462Y-57287D01*
X66025Y-56850D01*
X66025Y-54896D01*
X65945Y-54703D01*
X65797Y-54555D01*
X65604Y-54475D01*
X65396Y-54474D01*
X65203Y-54554D01*
X65055Y-54702D01*
X65025Y-54774D01*
X65025Y-52396D01*
X64945Y-52203D01*
X64797Y-52055D01*
X64604Y-51975D01*
X64396Y-51974D01*
X64203Y-52054D01*
X64055Y-52202D01*
X63975Y-52395D01*
X63974Y-52603D01*
X64054Y-52797D01*
X64202Y-52944D01*
X64395Y-53024D01*
X64603Y-53025D01*
X64797Y-52945D01*
X64944Y-52797D01*
X65024Y-52604D01*
X65025Y-52396D01*
X65025Y-54774D01*
X64975Y-54895D01*
X64974Y-55103D01*
X65054Y-55297D01*
X65202Y-55444D01*
X65395Y-55524D01*
X65603Y-55525D01*
X65797Y-55445D01*
X65944Y-55297D01*
X66024Y-55104D01*
X66025Y-54896D01*
X66025Y-56850D01*
X65993Y-56818D01*
X65945Y-56703D01*
X65797Y-56555D01*
X65604Y-56475D01*
X65396Y-56474D01*
X65203Y-56554D01*
X65055Y-56702D01*
X64975Y-56895D01*
X64974Y-57103D01*
X64989Y-57139D01*
X64834Y-57075D01*
X64665Y-57074D01*
X64509Y-57139D01*
X64389Y-57258D01*
X64325Y-57415D01*
X64324Y-57584D01*
X64389Y-57740D01*
X64450Y-57801D01*
X64450Y-58122D01*
X64334Y-58075D01*
X64165Y-58074D01*
X64009Y-58139D01*
X63889Y-58258D01*
X63825Y-58415D01*
X63824Y-58584D01*
X63889Y-58740D01*
X63950Y-58801D01*
X63950Y-61698D01*
X63889Y-61758D01*
X63825Y-61915D01*
X63824Y-62084D01*
X63889Y-62240D01*
X64008Y-62360D01*
X64165Y-62424D01*
X64334Y-62425D01*
X64490Y-62360D01*
X64610Y-62241D01*
X64674Y-62084D01*
X64675Y-61915D01*
X64610Y-61759D01*
X64550Y-61698D01*
X64550Y-60220D01*
X64635Y-60277D01*
X64750Y-60300D01*
X65057Y-60300D01*
X65200Y-60442D01*
X65200Y-60557D01*
X65055Y-60702D01*
X64975Y-60895D01*
X64974Y-61103D01*
X65054Y-61297D01*
X65202Y-61444D01*
X65335Y-61500D01*
X65203Y-61554D01*
X65055Y-61702D01*
X64975Y-61895D01*
X64974Y-62103D01*
X65054Y-62297D01*
X65202Y-62444D01*
X65395Y-62524D01*
X65603Y-62525D01*
X65797Y-62445D01*
X65944Y-62297D01*
X66024Y-62104D01*
X66025Y-61896D01*
X65945Y-61703D01*
X65797Y-61555D01*
X65664Y-61499D01*
X65797Y-61445D01*
X65944Y-61297D01*
X66024Y-61104D01*
X66025Y-60896D01*
X66010Y-60860D01*
X66165Y-60924D01*
X66334Y-60925D01*
X66350Y-60918D01*
X66350Y-61102D01*
X66259Y-61139D01*
X66139Y-61258D01*
X66075Y-61415D01*
X66074Y-61584D01*
X66139Y-61740D01*
X66258Y-61860D01*
X66415Y-61924D01*
X66575Y-61925D01*
X66574Y-62084D01*
X66639Y-62240D01*
X66758Y-62360D01*
X66915Y-62424D01*
X67084Y-62425D01*
X67240Y-62360D01*
X67360Y-62241D01*
X67424Y-62084D01*
X67424Y-62049D01*
X67608Y-62050D01*
X67811Y-61966D01*
X67965Y-61811D01*
X68049Y-61609D01*
X68050Y-61391D01*
X68050Y-75571D01*
X67898Y-75508D01*
X67603Y-75507D01*
X67330Y-75620D01*
X67121Y-75829D01*
X67008Y-76101D01*
X67007Y-76396D01*
X67120Y-76669D01*
X67329Y-76878D01*
X67601Y-76991D01*
X67896Y-76992D01*
X68169Y-76879D01*
X68378Y-76670D01*
X68491Y-76398D01*
X68492Y-76103D01*
X68492Y-77230D01*
X63675Y-77230D01*
X63675Y-56415D01*
X63610Y-56259D01*
X63491Y-56139D01*
X63334Y-56075D01*
X63165Y-56074D01*
X63010Y-56139D01*
X63024Y-56104D01*
X63025Y-55896D01*
X62945Y-55703D01*
X62797Y-55555D01*
X62725Y-55525D01*
X62824Y-55525D01*
X62916Y-55487D01*
X62986Y-55416D01*
X63024Y-55324D01*
X63025Y-55225D01*
X63025Y-54675D01*
X62987Y-54583D01*
X62916Y-54513D01*
X62824Y-54475D01*
X62725Y-54474D01*
X62175Y-54474D01*
X62083Y-54512D01*
X62013Y-54583D01*
X61975Y-54675D01*
X61974Y-54774D01*
X61974Y-55324D01*
X62012Y-55416D01*
X62083Y-55486D01*
X62175Y-55524D01*
X62274Y-55525D01*
X62274Y-55525D01*
X62203Y-55554D01*
X62055Y-55702D01*
X61975Y-55895D01*
X61974Y-56103D01*
X62054Y-56297D01*
X62202Y-56444D01*
X62335Y-56500D01*
X62203Y-56554D01*
X62055Y-56702D01*
X61975Y-56895D01*
X61974Y-57103D01*
X62054Y-57297D01*
X62202Y-57444D01*
X62335Y-57500D01*
X62203Y-57554D01*
X62055Y-57702D01*
X61975Y-57895D01*
X61974Y-58103D01*
X62054Y-58297D01*
X62202Y-58444D01*
X62335Y-58500D01*
X62203Y-58554D01*
X62055Y-58702D01*
X61975Y-58895D01*
X61974Y-59103D01*
X62054Y-59297D01*
X62202Y-59444D01*
X62335Y-59500D01*
X62203Y-59554D01*
X62055Y-59702D01*
X61975Y-59895D01*
X61974Y-60103D01*
X62054Y-60297D01*
X62202Y-60444D01*
X62335Y-60500D01*
X62203Y-60554D01*
X62055Y-60702D01*
X61975Y-60895D01*
X61974Y-61103D01*
X62054Y-61297D01*
X62202Y-61444D01*
X62335Y-61500D01*
X62203Y-61554D01*
X62055Y-61702D01*
X61975Y-61895D01*
X61974Y-62103D01*
X62054Y-62297D01*
X62202Y-62444D01*
X62395Y-62524D01*
X62603Y-62525D01*
X62797Y-62445D01*
X62944Y-62297D01*
X63024Y-62104D01*
X63025Y-61896D01*
X62945Y-61703D01*
X62797Y-61555D01*
X62664Y-61499D01*
X62797Y-61445D01*
X62942Y-61300D01*
X63000Y-61300D01*
X63000Y-61299D01*
X63114Y-61277D01*
X63114Y-61277D01*
X63212Y-61212D01*
X63462Y-60962D01*
X63462Y-60962D01*
X63527Y-60864D01*
X63549Y-60750D01*
X63550Y-60750D01*
X63550Y-56801D01*
X63610Y-56741D01*
X63674Y-56584D01*
X63675Y-56415D01*
X63675Y-77230D01*
X60025Y-77230D01*
X60025Y-60396D01*
X60025Y-58896D01*
X59945Y-58703D01*
X59797Y-58555D01*
X59664Y-58499D01*
X59797Y-58445D01*
X59944Y-58297D01*
X60024Y-58104D01*
X60025Y-57896D01*
X60025Y-55896D01*
X59945Y-55703D01*
X59797Y-55555D01*
X59664Y-55499D01*
X59797Y-55445D01*
X59944Y-55297D01*
X60024Y-55104D01*
X60025Y-54896D01*
X59945Y-54703D01*
X59797Y-54555D01*
X59604Y-54475D01*
X59396Y-54474D01*
X59203Y-54554D01*
X59055Y-54702D01*
X58975Y-54895D01*
X58974Y-55103D01*
X59054Y-55297D01*
X59202Y-55444D01*
X59335Y-55500D01*
X59203Y-55554D01*
X59055Y-55702D01*
X58975Y-55895D01*
X58974Y-56103D01*
X59054Y-56297D01*
X59202Y-56444D01*
X59395Y-56524D01*
X59603Y-56525D01*
X59797Y-56445D01*
X59944Y-56297D01*
X60024Y-56104D01*
X60025Y-55896D01*
X60025Y-57896D01*
X59945Y-57703D01*
X59797Y-57555D01*
X59604Y-57475D01*
X59396Y-57474D01*
X59203Y-57554D01*
X59055Y-57702D01*
X58975Y-57895D01*
X58974Y-58103D01*
X59054Y-58297D01*
X59202Y-58444D01*
X59335Y-58500D01*
X59203Y-58554D01*
X59055Y-58702D01*
X58975Y-58895D01*
X58974Y-59103D01*
X59054Y-59297D01*
X59202Y-59444D01*
X59395Y-59524D01*
X59603Y-59525D01*
X59797Y-59445D01*
X59944Y-59297D01*
X60024Y-59104D01*
X60025Y-58896D01*
X60025Y-60396D01*
X59945Y-60203D01*
X59797Y-60055D01*
X59604Y-59975D01*
X59396Y-59974D01*
X59203Y-60054D01*
X59055Y-60202D01*
X58975Y-60395D01*
X58974Y-60603D01*
X59054Y-60797D01*
X59202Y-60944D01*
X59395Y-61024D01*
X59603Y-61025D01*
X59797Y-60945D01*
X59944Y-60797D01*
X60024Y-60604D01*
X60025Y-60396D01*
X60025Y-77230D01*
X58525Y-77230D01*
X58525Y-54896D01*
X58445Y-54703D01*
X58297Y-54555D01*
X58104Y-54475D01*
X57896Y-54474D01*
X57703Y-54554D01*
X57555Y-54702D01*
X57475Y-54895D01*
X57474Y-55103D01*
X57554Y-55297D01*
X57702Y-55444D01*
X57895Y-55524D01*
X58103Y-55525D01*
X58297Y-55445D01*
X58444Y-55297D01*
X58524Y-55104D01*
X58525Y-54896D01*
X58525Y-77230D01*
X56675Y-77230D01*
X56675Y-59415D01*
X56610Y-59259D01*
X56491Y-59139D01*
X56334Y-59075D01*
X56165Y-59074D01*
X56048Y-59123D01*
X56053Y-59109D01*
X56054Y-58891D01*
X55970Y-58688D01*
X55815Y-58534D01*
X55734Y-58500D01*
X55815Y-58466D01*
X55969Y-58311D01*
X56053Y-58109D01*
X56054Y-57891D01*
X55970Y-57688D01*
X55815Y-57534D01*
X55734Y-57500D01*
X55815Y-57466D01*
X55969Y-57311D01*
X56053Y-57109D01*
X56054Y-56891D01*
X55970Y-56688D01*
X55815Y-56534D01*
X55734Y-56500D01*
X55815Y-56466D01*
X55969Y-56311D01*
X56053Y-56109D01*
X56054Y-55891D01*
X55970Y-55688D01*
X55815Y-55534D01*
X55734Y-55500D01*
X55815Y-55466D01*
X55969Y-55311D01*
X56053Y-55109D01*
X56054Y-54891D01*
X55970Y-54688D01*
X55815Y-54534D01*
X55734Y-54500D01*
X55815Y-54466D01*
X55969Y-54311D01*
X56053Y-54109D01*
X56054Y-53891D01*
X55970Y-53688D01*
X55815Y-53534D01*
X55734Y-53500D01*
X55815Y-53466D01*
X55969Y-53311D01*
X56053Y-53109D01*
X56054Y-52891D01*
X55970Y-52688D01*
X55831Y-52550D01*
X55853Y-52550D01*
X55945Y-52512D01*
X56015Y-52441D01*
X56053Y-52349D01*
X56053Y-52250D01*
X56053Y-51650D01*
X56016Y-51558D01*
X55945Y-51488D01*
X55933Y-51482D01*
X55933Y-50614D01*
X55829Y-50363D01*
X55637Y-50171D01*
X55386Y-50067D01*
X55114Y-50066D01*
X54863Y-50170D01*
X54671Y-50362D01*
X54567Y-50613D01*
X54566Y-50885D01*
X54670Y-51136D01*
X54862Y-51328D01*
X55113Y-51432D01*
X55385Y-51433D01*
X55636Y-51329D01*
X55828Y-51137D01*
X55932Y-50886D01*
X55933Y-50614D01*
X55933Y-51482D01*
X55853Y-51450D01*
X55754Y-51449D01*
X55154Y-51449D01*
X55062Y-51487D01*
X54992Y-51558D01*
X54953Y-51650D01*
X54953Y-51749D01*
X54953Y-52349D01*
X54991Y-52441D01*
X55062Y-52511D01*
X55153Y-52549D01*
X55176Y-52549D01*
X55037Y-52688D01*
X54954Y-52890D01*
X54953Y-53108D01*
X54961Y-53127D01*
X54834Y-53075D01*
X54665Y-53074D01*
X54509Y-53139D01*
X54389Y-53258D01*
X54325Y-53415D01*
X54324Y-53584D01*
X54389Y-53740D01*
X54450Y-53801D01*
X54450Y-54575D01*
X54315Y-54574D01*
X54159Y-54639D01*
X54039Y-54758D01*
X53975Y-54915D01*
X53974Y-55084D01*
X54039Y-55240D01*
X54100Y-55301D01*
X54100Y-56198D01*
X54039Y-56258D01*
X53975Y-56415D01*
X53974Y-56584D01*
X54039Y-56740D01*
X54158Y-56860D01*
X54315Y-56924D01*
X54484Y-56925D01*
X54640Y-56860D01*
X54663Y-56837D01*
X54967Y-57141D01*
X55037Y-57311D01*
X55191Y-57465D01*
X55273Y-57499D01*
X55192Y-57533D01*
X55037Y-57688D01*
X54954Y-57890D01*
X54953Y-58108D01*
X55037Y-58311D01*
X55191Y-58465D01*
X55273Y-58499D01*
X55192Y-58533D01*
X55037Y-58688D01*
X54954Y-58890D01*
X54953Y-59108D01*
X55037Y-59311D01*
X55191Y-59465D01*
X55273Y-59499D01*
X55192Y-59533D01*
X55037Y-59688D01*
X54954Y-59890D01*
X54953Y-60108D01*
X55037Y-60311D01*
X55191Y-60465D01*
X55273Y-60499D01*
X55192Y-60533D01*
X55037Y-60688D01*
X54954Y-60890D01*
X54953Y-61108D01*
X55037Y-61311D01*
X55191Y-61465D01*
X55273Y-61499D01*
X55192Y-61533D01*
X55037Y-61688D01*
X54954Y-61890D01*
X54953Y-62108D01*
X55037Y-62311D01*
X55191Y-62465D01*
X55273Y-62499D01*
X55192Y-62533D01*
X55037Y-62688D01*
X54954Y-62890D01*
X54953Y-63108D01*
X55037Y-63311D01*
X55191Y-63465D01*
X55273Y-63499D01*
X55192Y-63533D01*
X55037Y-63688D01*
X54954Y-63890D01*
X54953Y-64108D01*
X55037Y-64311D01*
X55191Y-64465D01*
X55273Y-64499D01*
X55192Y-64533D01*
X55037Y-64688D01*
X55032Y-64700D01*
X54500Y-64700D01*
X54385Y-64722D01*
X54287Y-64787D01*
X53287Y-65787D01*
X53222Y-65885D01*
X53200Y-66000D01*
X53200Y-67557D01*
X53055Y-67702D01*
X52999Y-67835D01*
X52945Y-67703D01*
X52800Y-67557D01*
X52800Y-64301D01*
X52860Y-64241D01*
X52924Y-64084D01*
X52925Y-63915D01*
X52860Y-63759D01*
X52741Y-63639D01*
X52584Y-63575D01*
X52415Y-63574D01*
X52259Y-63639D01*
X52139Y-63758D01*
X52075Y-63915D01*
X52074Y-64084D01*
X52139Y-64240D01*
X52200Y-64301D01*
X52200Y-67557D01*
X52055Y-67702D01*
X51975Y-67895D01*
X51974Y-68103D01*
X52054Y-68297D01*
X52202Y-68444D01*
X52395Y-68524D01*
X52603Y-68525D01*
X52797Y-68445D01*
X52944Y-68297D01*
X53000Y-68164D01*
X53054Y-68297D01*
X53202Y-68444D01*
X53395Y-68524D01*
X53603Y-68525D01*
X53797Y-68445D01*
X53944Y-68297D01*
X53974Y-68225D01*
X53974Y-68324D01*
X54012Y-68416D01*
X54083Y-68486D01*
X54175Y-68524D01*
X54274Y-68525D01*
X54824Y-68525D01*
X54916Y-68487D01*
X54986Y-68416D01*
X55024Y-68324D01*
X55025Y-68225D01*
X55025Y-67675D01*
X54987Y-67583D01*
X54916Y-67513D01*
X54824Y-67475D01*
X54725Y-67474D01*
X54175Y-67474D01*
X54083Y-67512D01*
X54013Y-67583D01*
X53975Y-67675D01*
X53974Y-67774D01*
X53974Y-67774D01*
X53945Y-67703D01*
X53800Y-67557D01*
X53800Y-66124D01*
X54624Y-65300D01*
X55032Y-65300D01*
X55037Y-65311D01*
X55191Y-65465D01*
X55394Y-65549D01*
X55612Y-65550D01*
X55815Y-65466D01*
X55969Y-65311D01*
X56053Y-65109D01*
X56054Y-64891D01*
X55970Y-64688D01*
X55815Y-64534D01*
X55734Y-64500D01*
X55815Y-64466D01*
X55969Y-64311D01*
X56053Y-64109D01*
X56054Y-63891D01*
X55970Y-63688D01*
X55815Y-63534D01*
X55734Y-63500D01*
X55815Y-63466D01*
X55969Y-63311D01*
X56053Y-63109D01*
X56054Y-62891D01*
X55970Y-62688D01*
X55815Y-62534D01*
X55734Y-62500D01*
X55815Y-62466D01*
X55969Y-62311D01*
X56053Y-62109D01*
X56054Y-61891D01*
X55970Y-61688D01*
X55815Y-61534D01*
X55734Y-61500D01*
X55815Y-61466D01*
X55969Y-61311D01*
X56046Y-61127D01*
X56462Y-60712D01*
X56462Y-60712D01*
X56527Y-60614D01*
X56549Y-60500D01*
X56550Y-60500D01*
X56550Y-59801D01*
X56610Y-59741D01*
X56674Y-59584D01*
X56675Y-59415D01*
X56675Y-77230D01*
X55933Y-77230D01*
X55933Y-66114D01*
X55829Y-65863D01*
X55637Y-65671D01*
X55386Y-65567D01*
X55114Y-65566D01*
X54863Y-65670D01*
X54671Y-65862D01*
X54567Y-66113D01*
X54566Y-66385D01*
X54670Y-66636D01*
X54862Y-66828D01*
X55113Y-66932D01*
X55385Y-66933D01*
X55636Y-66829D01*
X55828Y-66637D01*
X55932Y-66386D01*
X55933Y-66114D01*
X55933Y-77230D01*
X55050Y-77230D01*
X55050Y-75250D01*
X55050Y-74650D01*
X55012Y-74558D01*
X54941Y-74488D01*
X54849Y-74450D01*
X54800Y-74450D01*
X54800Y-73550D01*
X54849Y-73550D01*
X54941Y-73512D01*
X55011Y-73441D01*
X55049Y-73349D01*
X55050Y-73250D01*
X55050Y-72650D01*
X55012Y-72558D01*
X54941Y-72488D01*
X54849Y-72450D01*
X54800Y-72450D01*
X54800Y-71442D01*
X54944Y-71297D01*
X55024Y-71104D01*
X55025Y-70896D01*
X54945Y-70703D01*
X54797Y-70555D01*
X54604Y-70475D01*
X54396Y-70474D01*
X54203Y-70554D01*
X54055Y-70702D01*
X53999Y-70835D01*
X53945Y-70703D01*
X53797Y-70555D01*
X53604Y-70475D01*
X53396Y-70474D01*
X53203Y-70554D01*
X53055Y-70702D01*
X52999Y-70835D01*
X52945Y-70703D01*
X52797Y-70555D01*
X52604Y-70475D01*
X52396Y-70474D01*
X52203Y-70554D01*
X52055Y-70702D01*
X51999Y-70835D01*
X51945Y-70703D01*
X51797Y-70555D01*
X51604Y-70475D01*
X51396Y-70474D01*
X51203Y-70554D01*
X51055Y-70702D01*
X50975Y-70895D01*
X50974Y-71103D01*
X51054Y-71297D01*
X51200Y-71442D01*
X51200Y-72528D01*
X51188Y-72533D01*
X51034Y-72688D01*
X50950Y-72890D01*
X50949Y-73108D01*
X51033Y-73311D01*
X51188Y-73465D01*
X51200Y-73470D01*
X51200Y-74528D01*
X51188Y-74533D01*
X51034Y-74688D01*
X50950Y-74890D01*
X50949Y-75108D01*
X51033Y-75311D01*
X51188Y-75465D01*
X51390Y-75549D01*
X51608Y-75550D01*
X51811Y-75466D01*
X51965Y-75311D01*
X51999Y-75230D01*
X52033Y-75311D01*
X52188Y-75465D01*
X52390Y-75549D01*
X52608Y-75550D01*
X52811Y-75466D01*
X52965Y-75311D01*
X52999Y-75230D01*
X53033Y-75311D01*
X53188Y-75465D01*
X53390Y-75549D01*
X53608Y-75550D01*
X53811Y-75466D01*
X53949Y-75327D01*
X53949Y-75349D01*
X53987Y-75441D01*
X54058Y-75511D01*
X54150Y-75549D01*
X54249Y-75550D01*
X54849Y-75550D01*
X54941Y-75512D01*
X55011Y-75441D01*
X55049Y-75349D01*
X55050Y-75250D01*
X55050Y-77230D01*
X50433Y-77230D01*
X50433Y-66114D01*
X50433Y-50614D01*
X50329Y-50363D01*
X50137Y-50171D01*
X49886Y-50067D01*
X49614Y-50066D01*
X49363Y-50170D01*
X49171Y-50362D01*
X49067Y-50613D01*
X49066Y-50885D01*
X49170Y-51136D01*
X49362Y-51328D01*
X49613Y-51432D01*
X49885Y-51433D01*
X50136Y-51329D01*
X50328Y-51137D01*
X50432Y-50886D01*
X50433Y-50614D01*
X50433Y-66114D01*
X50329Y-65863D01*
X50137Y-65671D01*
X50046Y-65633D01*
X50046Y-64891D01*
X49962Y-64688D01*
X49808Y-64534D01*
X49726Y-64500D01*
X49807Y-64466D01*
X49962Y-64311D01*
X50045Y-64109D01*
X50046Y-63891D01*
X49962Y-63688D01*
X49808Y-63534D01*
X49726Y-63500D01*
X49807Y-63466D01*
X49962Y-63311D01*
X50045Y-63109D01*
X50046Y-62891D01*
X49962Y-62688D01*
X49808Y-62534D01*
X49726Y-62500D01*
X49807Y-62466D01*
X49962Y-62311D01*
X50045Y-62109D01*
X50046Y-61891D01*
X49962Y-61688D01*
X49808Y-61534D01*
X49726Y-61500D01*
X49807Y-61466D01*
X49962Y-61311D01*
X50045Y-61109D01*
X50046Y-60891D01*
X49962Y-60688D01*
X49808Y-60534D01*
X49726Y-60500D01*
X49807Y-60466D01*
X49962Y-60311D01*
X50045Y-60109D01*
X50046Y-59891D01*
X49962Y-59688D01*
X49808Y-59534D01*
X49726Y-59500D01*
X49807Y-59466D01*
X49962Y-59311D01*
X50045Y-59109D01*
X50046Y-58891D01*
X49962Y-58688D01*
X49808Y-58534D01*
X49726Y-58500D01*
X49807Y-58466D01*
X49962Y-58311D01*
X50045Y-58109D01*
X50046Y-57891D01*
X50046Y-54891D01*
X49962Y-54688D01*
X49808Y-54534D01*
X49726Y-54500D01*
X49807Y-54466D01*
X49962Y-54311D01*
X50045Y-54109D01*
X50046Y-53891D01*
X49962Y-53688D01*
X49808Y-53534D01*
X49726Y-53500D01*
X49807Y-53466D01*
X49962Y-53311D01*
X50045Y-53109D01*
X50046Y-52891D01*
X49962Y-52688D01*
X49808Y-52534D01*
X49726Y-52500D01*
X49807Y-52466D01*
X49962Y-52311D01*
X50045Y-52109D01*
X50046Y-51891D01*
X49962Y-51688D01*
X49808Y-51534D01*
X49605Y-51450D01*
X49387Y-51449D01*
X49184Y-51533D01*
X49030Y-51688D01*
X48946Y-51890D01*
X48945Y-52108D01*
X49029Y-52311D01*
X49184Y-52465D01*
X49265Y-52499D01*
X49184Y-52533D01*
X49030Y-52688D01*
X48946Y-52890D01*
X48945Y-53108D01*
X49029Y-53311D01*
X49184Y-53465D01*
X49265Y-53499D01*
X49184Y-53533D01*
X49030Y-53688D01*
X48946Y-53890D01*
X48945Y-54108D01*
X49029Y-54311D01*
X49184Y-54465D01*
X49265Y-54499D01*
X49184Y-54533D01*
X49030Y-54688D01*
X48946Y-54890D01*
X48945Y-55108D01*
X49029Y-55311D01*
X49184Y-55465D01*
X49386Y-55549D01*
X49604Y-55550D01*
X49807Y-55466D01*
X49962Y-55311D01*
X50045Y-55109D01*
X50046Y-54891D01*
X50046Y-57891D01*
X49962Y-57688D01*
X49808Y-57534D01*
X49605Y-57450D01*
X49387Y-57449D01*
X49184Y-57533D01*
X49030Y-57688D01*
X48946Y-57890D01*
X48945Y-58108D01*
X49029Y-58311D01*
X49184Y-58465D01*
X49265Y-58499D01*
X49184Y-58533D01*
X49030Y-58688D01*
X48946Y-58890D01*
X48945Y-59108D01*
X49029Y-59311D01*
X49184Y-59465D01*
X49265Y-59499D01*
X49184Y-59533D01*
X49030Y-59688D01*
X48946Y-59890D01*
X48945Y-60108D01*
X49029Y-60311D01*
X49184Y-60465D01*
X49265Y-60499D01*
X49184Y-60533D01*
X49030Y-60688D01*
X48946Y-60890D01*
X48945Y-61108D01*
X49029Y-61311D01*
X49184Y-61465D01*
X49265Y-61499D01*
X49184Y-61533D01*
X49030Y-61688D01*
X48946Y-61890D01*
X48945Y-62108D01*
X49029Y-62311D01*
X49184Y-62465D01*
X49265Y-62499D01*
X49184Y-62533D01*
X49030Y-62688D01*
X48946Y-62890D01*
X48945Y-63108D01*
X49029Y-63311D01*
X49184Y-63465D01*
X49265Y-63499D01*
X49184Y-63533D01*
X49030Y-63688D01*
X48946Y-63890D01*
X48945Y-64108D01*
X49029Y-64311D01*
X49184Y-64465D01*
X49265Y-64499D01*
X49184Y-64533D01*
X49030Y-64688D01*
X48946Y-64890D01*
X48945Y-65108D01*
X49029Y-65311D01*
X49184Y-65465D01*
X49386Y-65549D01*
X49604Y-65550D01*
X49807Y-65466D01*
X49962Y-65311D01*
X50045Y-65109D01*
X50046Y-64891D01*
X50046Y-65633D01*
X49886Y-65567D01*
X49614Y-65566D01*
X49363Y-65670D01*
X49171Y-65862D01*
X49067Y-66113D01*
X49066Y-66385D01*
X49170Y-66636D01*
X49362Y-66828D01*
X49613Y-66932D01*
X49885Y-66933D01*
X50136Y-66829D01*
X50328Y-66637D01*
X50432Y-66386D01*
X50433Y-66114D01*
X50433Y-77230D01*
X48525Y-77230D01*
X48525Y-52896D01*
X48445Y-52703D01*
X48297Y-52555D01*
X48164Y-52499D01*
X48297Y-52445D01*
X48444Y-52297D01*
X48524Y-52104D01*
X48525Y-51896D01*
X48445Y-51703D01*
X48297Y-51555D01*
X48104Y-51475D01*
X47896Y-51474D01*
X47703Y-51554D01*
X47555Y-51702D01*
X47475Y-51895D01*
X47474Y-52100D01*
X47087Y-52487D01*
X47022Y-52585D01*
X47000Y-52700D01*
X47000Y-52835D01*
X46945Y-52703D01*
X46797Y-52555D01*
X46604Y-52475D01*
X46396Y-52474D01*
X46203Y-52554D01*
X46055Y-52702D01*
X45975Y-52895D01*
X45974Y-53103D01*
X46054Y-53297D01*
X46200Y-53442D01*
X46200Y-53557D01*
X46055Y-53702D01*
X45975Y-53895D01*
X45974Y-54103D01*
X46054Y-54297D01*
X46202Y-54444D01*
X46395Y-54524D01*
X46603Y-54525D01*
X46797Y-54445D01*
X46944Y-54297D01*
X47000Y-54164D01*
X47000Y-54700D01*
X47022Y-54814D01*
X47087Y-54912D01*
X47125Y-54949D01*
X47124Y-55034D01*
X47189Y-55190D01*
X47308Y-55310D01*
X47465Y-55374D01*
X47634Y-55375D01*
X47790Y-55310D01*
X47910Y-55191D01*
X47974Y-55034D01*
X47975Y-54865D01*
X47910Y-54709D01*
X47791Y-54589D01*
X47634Y-54525D01*
X47600Y-54525D01*
X47600Y-53342D01*
X47702Y-53444D01*
X47895Y-53524D01*
X48103Y-53525D01*
X48297Y-53445D01*
X48444Y-53297D01*
X48524Y-53104D01*
X48525Y-52896D01*
X48525Y-77230D01*
X48500Y-77230D01*
X48500Y-68400D01*
X48424Y-68217D01*
X48328Y-68121D01*
X48328Y-58378D01*
X48423Y-58283D01*
X48499Y-58099D01*
X48500Y-57900D01*
X48424Y-57717D01*
X48283Y-57576D01*
X48099Y-57500D01*
X47900Y-57499D01*
X47717Y-57575D01*
X47576Y-57716D01*
X47500Y-57900D01*
X47499Y-58099D01*
X47575Y-58282D01*
X47671Y-58378D01*
X47671Y-64610D01*
X47584Y-64575D01*
X47415Y-64574D01*
X47259Y-64639D01*
X47139Y-64758D01*
X47075Y-64915D01*
X47074Y-65084D01*
X47139Y-65240D01*
X47200Y-65301D01*
X47200Y-73057D01*
X47055Y-73202D01*
X46999Y-73335D01*
X46945Y-73203D01*
X46800Y-73057D01*
X46800Y-64251D01*
X46810Y-64241D01*
X46874Y-64084D01*
X46875Y-63915D01*
X46810Y-63759D01*
X46691Y-63639D01*
X46534Y-63575D01*
X46365Y-63574D01*
X46209Y-63639D01*
X46089Y-63758D01*
X46025Y-63915D01*
X46024Y-64084D01*
X46089Y-64240D01*
X46200Y-64351D01*
X46200Y-73057D01*
X46055Y-73202D01*
X45999Y-73335D01*
X45945Y-73203D01*
X45800Y-73057D01*
X45800Y-63301D01*
X45860Y-63241D01*
X45924Y-63084D01*
X45925Y-62915D01*
X45860Y-62759D01*
X45741Y-62639D01*
X45584Y-62575D01*
X45415Y-62574D01*
X45259Y-62639D01*
X45139Y-62758D01*
X45075Y-62915D01*
X45074Y-63084D01*
X45139Y-63240D01*
X45200Y-63301D01*
X45200Y-73057D01*
X45055Y-73202D01*
X44999Y-73335D01*
X44945Y-73203D01*
X44800Y-73057D01*
X44800Y-62350D01*
X44910Y-62241D01*
X44974Y-62084D01*
X44975Y-61915D01*
X44910Y-61759D01*
X44791Y-61639D01*
X44634Y-61575D01*
X44465Y-61574D01*
X44309Y-61639D01*
X44189Y-61758D01*
X44125Y-61915D01*
X44124Y-62084D01*
X44189Y-62240D01*
X44200Y-62250D01*
X44200Y-73057D01*
X44055Y-73202D01*
X43999Y-73335D01*
X43945Y-73203D01*
X43800Y-73057D01*
X43800Y-61301D01*
X43860Y-61241D01*
X43924Y-61084D01*
X43925Y-60915D01*
X43860Y-60759D01*
X43741Y-60639D01*
X43584Y-60575D01*
X43415Y-60574D01*
X43259Y-60639D01*
X43139Y-60758D01*
X43075Y-60915D01*
X43074Y-61084D01*
X43139Y-61240D01*
X43200Y-61301D01*
X43200Y-73057D01*
X43055Y-73202D01*
X42999Y-73335D01*
X42945Y-73203D01*
X42800Y-73057D01*
X42800Y-60574D01*
X42949Y-60424D01*
X43034Y-60425D01*
X43190Y-60360D01*
X43310Y-60241D01*
X43374Y-60084D01*
X43375Y-59915D01*
X43310Y-59759D01*
X43191Y-59639D01*
X43034Y-59575D01*
X42865Y-59574D01*
X42709Y-59639D01*
X42589Y-59758D01*
X42525Y-59915D01*
X42524Y-60000D01*
X42287Y-60237D01*
X42222Y-60335D01*
X42200Y-60450D01*
X42200Y-73057D01*
X42055Y-73202D01*
X41999Y-73335D01*
X41945Y-73203D01*
X41800Y-73057D01*
X41800Y-64351D01*
X41860Y-64291D01*
X41924Y-64134D01*
X41925Y-63965D01*
X41860Y-63809D01*
X41741Y-63689D01*
X41584Y-63625D01*
X41415Y-63624D01*
X41259Y-63689D01*
X41139Y-63808D01*
X41075Y-63965D01*
X41074Y-64134D01*
X41139Y-64290D01*
X41200Y-64351D01*
X41200Y-73057D01*
X41055Y-73202D01*
X40999Y-73335D01*
X40945Y-73203D01*
X40800Y-73057D01*
X40800Y-54974D01*
X41362Y-54412D01*
X41362Y-54412D01*
X41427Y-54314D01*
X41449Y-54200D01*
X41450Y-54200D01*
X41450Y-52851D01*
X41510Y-52791D01*
X41574Y-52634D01*
X41575Y-52465D01*
X41510Y-52309D01*
X41391Y-52189D01*
X41234Y-52125D01*
X41065Y-52124D01*
X40909Y-52189D01*
X40800Y-52298D01*
X40800Y-51624D01*
X41624Y-50800D01*
X42057Y-50800D01*
X42202Y-50944D01*
X42395Y-51024D01*
X42603Y-51025D01*
X42797Y-50945D01*
X42944Y-50797D01*
X43000Y-50664D01*
X43054Y-50797D01*
X43200Y-50942D01*
X43200Y-51474D01*
X43175Y-51474D01*
X43083Y-51512D01*
X43013Y-51583D01*
X42975Y-51675D01*
X42974Y-51774D01*
X42974Y-52100D01*
X42537Y-52537D01*
X42472Y-52635D01*
X42450Y-52750D01*
X42450Y-53750D01*
X42472Y-53864D01*
X42537Y-53962D01*
X42787Y-54212D01*
X42787Y-54212D01*
X42885Y-54277D01*
X43000Y-54300D01*
X43057Y-54300D01*
X43202Y-54444D01*
X43335Y-54500D01*
X43203Y-54554D01*
X43055Y-54702D01*
X42975Y-54895D01*
X42974Y-55103D01*
X43054Y-55297D01*
X43202Y-55444D01*
X43395Y-55524D01*
X43603Y-55525D01*
X43797Y-55445D01*
X43944Y-55297D01*
X44024Y-55104D01*
X44025Y-54899D01*
X44462Y-54462D01*
X44462Y-54462D01*
X44527Y-54364D01*
X44549Y-54250D01*
X44550Y-54250D01*
X44550Y-53500D01*
X44527Y-53385D01*
X44462Y-53287D01*
X44462Y-53287D01*
X43993Y-52818D01*
X43945Y-52703D01*
X43797Y-52555D01*
X43725Y-52525D01*
X43824Y-52525D01*
X43916Y-52487D01*
X43986Y-52416D01*
X44024Y-52324D01*
X44025Y-52225D01*
X44025Y-51675D01*
X43987Y-51583D01*
X43916Y-51513D01*
X43824Y-51475D01*
X43800Y-51475D01*
X43800Y-50942D01*
X43944Y-50797D01*
X44024Y-50604D01*
X44025Y-50396D01*
X43945Y-50203D01*
X43797Y-50055D01*
X43604Y-49975D01*
X43396Y-49974D01*
X43203Y-50054D01*
X43055Y-50202D01*
X42999Y-50335D01*
X42945Y-50203D01*
X42797Y-50055D01*
X42604Y-49975D01*
X42396Y-49974D01*
X42203Y-50054D01*
X42057Y-50200D01*
X41500Y-50200D01*
X41385Y-50222D01*
X41287Y-50287D01*
X40287Y-51287D01*
X40250Y-51344D01*
X40250Y-50438D01*
X40212Y-50346D01*
X40141Y-50276D01*
X40049Y-50238D01*
X39950Y-50238D01*
X38950Y-50238D01*
X38858Y-50276D01*
X38788Y-50346D01*
X38750Y-50438D01*
X38749Y-50537D01*
X38749Y-51006D01*
X37878Y-51878D01*
X37764Y-52048D01*
X37724Y-52250D01*
X37724Y-52250D01*
X37724Y-55761D01*
X37724Y-55761D01*
X37764Y-55962D01*
X37878Y-56133D01*
X38750Y-57005D01*
X38749Y-57160D01*
X38863Y-57436D01*
X39074Y-57647D01*
X39350Y-57761D01*
X39648Y-57761D01*
X39924Y-57648D01*
X40135Y-57437D01*
X40200Y-57281D01*
X40200Y-73057D01*
X40055Y-73202D01*
X40030Y-73262D01*
X40030Y-71395D01*
X40030Y-71394D01*
X40030Y-68730D01*
X40030Y-68170D01*
X39992Y-68078D01*
X39921Y-68008D01*
X39829Y-67970D01*
X39730Y-67969D01*
X39170Y-67969D01*
X39078Y-68007D01*
X39025Y-68061D01*
X39025Y-65896D01*
X38945Y-65703D01*
X38797Y-65555D01*
X38604Y-65475D01*
X38396Y-65474D01*
X38203Y-65554D01*
X38055Y-65702D01*
X37999Y-65835D01*
X37945Y-65703D01*
X37797Y-65555D01*
X37664Y-65499D01*
X37797Y-65445D01*
X37944Y-65297D01*
X38024Y-65104D01*
X38025Y-64896D01*
X37945Y-64703D01*
X37797Y-64555D01*
X37664Y-64499D01*
X37797Y-64445D01*
X37944Y-64297D01*
X38000Y-64164D01*
X38054Y-64297D01*
X38202Y-64444D01*
X38395Y-64524D01*
X38603Y-64525D01*
X38797Y-64445D01*
X38944Y-64297D01*
X39024Y-64104D01*
X39025Y-63896D01*
X38945Y-63703D01*
X38797Y-63555D01*
X38604Y-63475D01*
X38396Y-63474D01*
X38203Y-63554D01*
X38055Y-63702D01*
X37999Y-63835D01*
X37945Y-63703D01*
X37797Y-63555D01*
X37664Y-63499D01*
X37797Y-63445D01*
X37944Y-63297D01*
X38024Y-63104D01*
X38025Y-62896D01*
X37945Y-62703D01*
X37797Y-62555D01*
X37664Y-62499D01*
X37797Y-62445D01*
X37944Y-62297D01*
X38000Y-62164D01*
X38054Y-62297D01*
X38202Y-62444D01*
X38395Y-62524D01*
X38603Y-62525D01*
X38797Y-62445D01*
X38944Y-62297D01*
X39024Y-62104D01*
X39025Y-61896D01*
X38945Y-61703D01*
X38797Y-61555D01*
X38604Y-61475D01*
X38396Y-61474D01*
X38203Y-61554D01*
X38055Y-61702D01*
X37999Y-61835D01*
X37945Y-61703D01*
X37797Y-61555D01*
X37664Y-61499D01*
X37797Y-61445D01*
X37944Y-61297D01*
X38024Y-61104D01*
X38025Y-60896D01*
X37945Y-60703D01*
X37797Y-60555D01*
X37604Y-60475D01*
X37396Y-60474D01*
X37203Y-60554D01*
X37055Y-60702D01*
X36999Y-60835D01*
X36945Y-60703D01*
X36797Y-60555D01*
X36604Y-60475D01*
X36396Y-60474D01*
X36203Y-60554D01*
X36055Y-60702D01*
X35975Y-60895D01*
X35974Y-61103D01*
X36054Y-61297D01*
X36202Y-61444D01*
X36395Y-61524D01*
X36603Y-61525D01*
X36797Y-61445D01*
X36944Y-61297D01*
X37000Y-61164D01*
X37054Y-61297D01*
X37202Y-61444D01*
X37335Y-61500D01*
X37203Y-61554D01*
X37055Y-61702D01*
X36975Y-61895D01*
X36974Y-62103D01*
X37054Y-62297D01*
X37202Y-62444D01*
X37335Y-62500D01*
X37203Y-62554D01*
X37055Y-62702D01*
X36999Y-62835D01*
X36945Y-62703D01*
X36797Y-62555D01*
X36604Y-62475D01*
X36396Y-62474D01*
X36203Y-62554D01*
X36055Y-62702D01*
X35975Y-62895D01*
X35974Y-63103D01*
X36054Y-63297D01*
X36202Y-63444D01*
X36395Y-63524D01*
X36603Y-63525D01*
X36797Y-63445D01*
X36944Y-63297D01*
X37000Y-63164D01*
X37054Y-63297D01*
X37202Y-63444D01*
X37335Y-63500D01*
X37203Y-63554D01*
X37055Y-63702D01*
X36975Y-63895D01*
X36974Y-64103D01*
X37054Y-64297D01*
X37202Y-64444D01*
X37335Y-64500D01*
X37203Y-64554D01*
X37055Y-64702D01*
X36999Y-64835D01*
X36945Y-64703D01*
X36797Y-64555D01*
X36604Y-64475D01*
X36396Y-64474D01*
X36203Y-64554D01*
X36055Y-64702D01*
X35975Y-64895D01*
X35974Y-65103D01*
X36054Y-65297D01*
X36202Y-65444D01*
X36395Y-65524D01*
X36603Y-65525D01*
X36797Y-65445D01*
X36944Y-65297D01*
X37000Y-65164D01*
X37054Y-65297D01*
X37202Y-65444D01*
X37335Y-65500D01*
X37203Y-65554D01*
X37055Y-65702D01*
X36975Y-65895D01*
X36974Y-66103D01*
X37054Y-66297D01*
X37202Y-66444D01*
X37395Y-66524D01*
X37603Y-66525D01*
X37797Y-66445D01*
X37944Y-66297D01*
X38000Y-66164D01*
X38054Y-66297D01*
X38202Y-66444D01*
X38395Y-66524D01*
X38603Y-66525D01*
X38797Y-66445D01*
X38944Y-66297D01*
X39024Y-66104D01*
X39025Y-65896D01*
X39025Y-68061D01*
X39008Y-68078D01*
X38970Y-68170D01*
X38969Y-68269D01*
X38969Y-68829D01*
X39007Y-68921D01*
X39078Y-68991D01*
X39170Y-69029D01*
X39269Y-69030D01*
X39829Y-69030D01*
X39921Y-68992D01*
X39991Y-68921D01*
X40029Y-68829D01*
X40030Y-68730D01*
X40030Y-71394D01*
X39949Y-71200D01*
X39800Y-71050D01*
X39605Y-70970D01*
X39395Y-70969D01*
X39200Y-71050D01*
X39050Y-71199D01*
X38970Y-71394D01*
X38969Y-71604D01*
X39050Y-71799D01*
X39199Y-71949D01*
X39394Y-72029D01*
X39604Y-72030D01*
X39799Y-71949D01*
X39949Y-71800D01*
X40029Y-71605D01*
X40030Y-71395D01*
X40030Y-73262D01*
X39975Y-73395D01*
X39974Y-73603D01*
X40054Y-73797D01*
X40202Y-73944D01*
X40395Y-74024D01*
X40603Y-74025D01*
X40797Y-73945D01*
X40944Y-73797D01*
X41000Y-73664D01*
X41054Y-73797D01*
X41202Y-73944D01*
X41395Y-74024D01*
X41603Y-74025D01*
X41797Y-73945D01*
X41944Y-73797D01*
X42000Y-73664D01*
X42054Y-73797D01*
X42202Y-73944D01*
X42395Y-74024D01*
X42603Y-74025D01*
X42797Y-73945D01*
X42944Y-73797D01*
X43000Y-73664D01*
X43054Y-73797D01*
X43202Y-73944D01*
X43395Y-74024D01*
X43603Y-74025D01*
X43797Y-73945D01*
X43944Y-73797D01*
X44000Y-73664D01*
X44054Y-73797D01*
X44202Y-73944D01*
X44395Y-74024D01*
X44603Y-74025D01*
X44797Y-73945D01*
X44944Y-73797D01*
X45000Y-73664D01*
X45054Y-73797D01*
X45202Y-73944D01*
X45395Y-74024D01*
X45603Y-74025D01*
X45797Y-73945D01*
X45944Y-73797D01*
X46000Y-73664D01*
X46054Y-73797D01*
X46202Y-73944D01*
X46395Y-74024D01*
X46603Y-74025D01*
X46797Y-73945D01*
X46944Y-73797D01*
X47000Y-73664D01*
X47054Y-73797D01*
X47202Y-73944D01*
X47395Y-74024D01*
X47603Y-74025D01*
X47797Y-73945D01*
X47944Y-73797D01*
X48024Y-73604D01*
X48025Y-73396D01*
X47945Y-73203D01*
X47800Y-73057D01*
X47800Y-68958D01*
X47900Y-68999D01*
X48099Y-69000D01*
X48282Y-68924D01*
X48423Y-68783D01*
X48499Y-68599D01*
X48500Y-68400D01*
X48500Y-77230D01*
X37879Y-77230D01*
X37879Y-72237D01*
X37879Y-70663D01*
X37842Y-70571D01*
X37771Y-70500D01*
X37679Y-70462D01*
X37580Y-70462D01*
X36202Y-70462D01*
X36110Y-70500D01*
X36040Y-70570D01*
X36001Y-70662D01*
X36001Y-70762D01*
X36001Y-72336D01*
X36039Y-72428D01*
X36110Y-72499D01*
X36201Y-72537D01*
X36301Y-72537D01*
X37679Y-72537D01*
X37771Y-72499D01*
X37841Y-72429D01*
X37879Y-72337D01*
X37879Y-72237D01*
X37879Y-77230D01*
X35840Y-77230D01*
X35840Y-52833D01*
X35712Y-52524D01*
X35476Y-52287D01*
X35167Y-52159D01*
X34992Y-52159D01*
X34992Y-46103D01*
X34879Y-45830D01*
X34670Y-45621D01*
X34398Y-45508D01*
X34103Y-45507D01*
X33830Y-45620D01*
X33621Y-45829D01*
X33508Y-46101D01*
X33507Y-46396D01*
X33620Y-46669D01*
X33829Y-46878D01*
X34101Y-46991D01*
X34396Y-46992D01*
X34669Y-46879D01*
X34878Y-46670D01*
X34991Y-46398D01*
X34992Y-46103D01*
X34992Y-52159D01*
X34833Y-52159D01*
X34524Y-52287D01*
X34287Y-52523D01*
X34159Y-52832D01*
X34159Y-53166D01*
X34287Y-53475D01*
X34523Y-53712D01*
X34832Y-53840D01*
X35166Y-53840D01*
X35475Y-53712D01*
X35712Y-53476D01*
X35840Y-53167D01*
X35840Y-52833D01*
X35840Y-77230D01*
X35840Y-77230D01*
X35840Y-55540D01*
X35840Y-54359D01*
X35802Y-54268D01*
X35732Y-54197D01*
X35640Y-54159D01*
X35540Y-54159D01*
X34359Y-54159D01*
X34268Y-54197D01*
X34197Y-54267D01*
X34159Y-54359D01*
X34159Y-54459D01*
X34159Y-55640D01*
X34197Y-55731D01*
X34267Y-55802D01*
X34359Y-55840D01*
X34459Y-55840D01*
X35640Y-55840D01*
X35731Y-55802D01*
X35802Y-55732D01*
X35840Y-55640D01*
X35840Y-55540D01*
X35840Y-77230D01*
X35550Y-77230D01*
X35550Y-65891D01*
X35466Y-65688D01*
X35311Y-65534D01*
X35230Y-65500D01*
X35311Y-65466D01*
X35465Y-65311D01*
X35549Y-65109D01*
X35550Y-64891D01*
X35466Y-64688D01*
X35311Y-64534D01*
X35230Y-64500D01*
X35311Y-64466D01*
X35465Y-64311D01*
X35549Y-64109D01*
X35550Y-63891D01*
X35466Y-63688D01*
X35311Y-63534D01*
X35230Y-63500D01*
X35311Y-63466D01*
X35465Y-63311D01*
X35549Y-63109D01*
X35550Y-62891D01*
X35466Y-62688D01*
X35311Y-62534D01*
X35230Y-62500D01*
X35311Y-62466D01*
X35465Y-62311D01*
X35549Y-62109D01*
X35550Y-61891D01*
X35466Y-61688D01*
X35311Y-61534D01*
X35230Y-61500D01*
X35311Y-61466D01*
X35465Y-61311D01*
X35549Y-61109D01*
X35550Y-60891D01*
X35466Y-60688D01*
X35311Y-60534D01*
X35109Y-60450D01*
X34891Y-60449D01*
X34688Y-60533D01*
X34534Y-60688D01*
X34450Y-60890D01*
X34449Y-61108D01*
X34533Y-61311D01*
X34688Y-61465D01*
X34769Y-61499D01*
X34688Y-61533D01*
X34534Y-61688D01*
X34450Y-61890D01*
X34449Y-62108D01*
X34533Y-62311D01*
X34688Y-62465D01*
X34769Y-62499D01*
X34688Y-62533D01*
X34534Y-62688D01*
X34450Y-62890D01*
X34449Y-63108D01*
X34533Y-63311D01*
X34688Y-63465D01*
X34769Y-63499D01*
X34688Y-63533D01*
X34534Y-63688D01*
X34450Y-63890D01*
X34449Y-64108D01*
X34533Y-64311D01*
X34688Y-64465D01*
X34769Y-64499D01*
X34688Y-64533D01*
X34534Y-64688D01*
X34450Y-64890D01*
X34449Y-65108D01*
X34533Y-65311D01*
X34688Y-65465D01*
X34769Y-65499D01*
X34688Y-65533D01*
X34534Y-65688D01*
X34450Y-65890D01*
X34449Y-66108D01*
X34533Y-66311D01*
X34672Y-66449D01*
X34650Y-66449D01*
X34558Y-66487D01*
X34488Y-66558D01*
X34450Y-66650D01*
X34449Y-66749D01*
X34449Y-67349D01*
X34487Y-67441D01*
X34558Y-67511D01*
X34650Y-67549D01*
X34749Y-67550D01*
X35349Y-67550D01*
X35441Y-67512D01*
X35511Y-67441D01*
X35549Y-67349D01*
X35550Y-67250D01*
X35550Y-66650D01*
X35512Y-66558D01*
X35441Y-66488D01*
X35349Y-66450D01*
X35327Y-66450D01*
X35465Y-66311D01*
X35549Y-66109D01*
X35550Y-65891D01*
X35550Y-77230D01*
X34992Y-77230D01*
X34992Y-76103D01*
X34879Y-75830D01*
X34670Y-75621D01*
X34398Y-75508D01*
X34103Y-75507D01*
X33830Y-75620D01*
X33621Y-75829D01*
X33508Y-76101D01*
X33507Y-76396D01*
X33620Y-76669D01*
X33829Y-76878D01*
X34101Y-76991D01*
X34396Y-76992D01*
X34669Y-76879D01*
X34878Y-76670D01*
X34991Y-76398D01*
X34992Y-76103D01*
X34992Y-77230D01*
X33269Y-77230D01*
X33269Y-45269D01*
X68730Y-45269D01*
X68730Y-77230D01*
M02*
