G04 (created by PCBNEW (2013-june-11)-stable) date Sat 16 Jun 2018 15:02:18 EDT*
%MOIN*%
G04 Gerber Fmt 3.4, Leading zero omitted, Abs format*
%FSLAX34Y34*%
G01*
G70*
G90*
G04 APERTURE LIST*
%ADD10C,0.005*%
%ADD11C,0.00393701*%
%ADD12C,0.00787402*%
%ADD13C,0.011811*%
G04 APERTURE END LIST*
G54D10*
G54D11*
X69000Y-77500D02*
X33000Y-77500D01*
X69000Y-45000D02*
X69000Y-77500D01*
X33000Y-45000D02*
X69000Y-45000D01*
X33000Y-77500D02*
X33000Y-45000D01*
G54D12*
X39380Y-68380D02*
X39620Y-68620D01*
X39620Y-68380D02*
X39380Y-68620D01*
X39380Y-71380D02*
X39620Y-71620D01*
X39620Y-71380D02*
X39380Y-71620D01*
X41275Y-52550D02*
G75*
G03X41275Y-52550I-125J0D01*
G74*
G01*
X41625Y-64050D02*
G75*
G03X41625Y-64050I-125J0D01*
G74*
G01*
X43075Y-60000D02*
G75*
G03X43075Y-60000I-125J0D01*
G74*
G01*
X43625Y-61000D02*
G75*
G03X43625Y-61000I-125J0D01*
G74*
G01*
X44675Y-62000D02*
G75*
G03X44675Y-62000I-125J0D01*
G74*
G01*
X45625Y-63000D02*
G75*
G03X45625Y-63000I-125J0D01*
G74*
G01*
X46575Y-64000D02*
G75*
G03X46575Y-64000I-125J0D01*
G74*
G01*
X47625Y-65000D02*
G75*
G03X47625Y-65000I-125J0D01*
G74*
G01*
X47675Y-54950D02*
G75*
G03X47675Y-54950I-125J0D01*
G74*
G01*
X52625Y-64000D02*
G75*
G03X52625Y-64000I-125J0D01*
G74*
G01*
X54525Y-55000D02*
G75*
G03X54525Y-55000I-125J0D01*
G74*
G01*
X54525Y-56500D02*
G75*
G03X54525Y-56500I-125J0D01*
G74*
G01*
X54875Y-53500D02*
G75*
G03X54875Y-53500I-125J0D01*
G74*
G01*
X55225Y-55500D02*
G75*
G03X55225Y-55500I-125J0D01*
G74*
G01*
X56375Y-59500D02*
G75*
G03X56375Y-59500I-125J0D01*
G74*
G01*
X63375Y-56500D02*
G75*
G03X63375Y-56500I-125J0D01*
G74*
G01*
X64375Y-58500D02*
G75*
G03X64375Y-58500I-125J0D01*
G74*
G01*
X64375Y-62000D02*
G75*
G03X64375Y-62000I-125J0D01*
G74*
G01*
X64875Y-57500D02*
G75*
G03X64875Y-57500I-125J0D01*
G74*
G01*
X66375Y-60500D02*
G75*
G03X66375Y-60500I-125J0D01*
G74*
G01*
X66625Y-61500D02*
G75*
G03X66625Y-61500I-125J0D01*
G74*
G01*
X66775Y-58000D02*
G75*
G03X66775Y-58000I-125J0D01*
G74*
G01*
X67125Y-62000D02*
G75*
G03X67125Y-62000I-125J0D01*
G74*
G01*
X36500Y-60840D02*
X36500Y-61160D01*
X36340Y-61000D02*
X36660Y-61000D01*
X36500Y-62840D02*
X36500Y-63160D01*
X36340Y-63000D02*
X36660Y-63000D01*
X36500Y-64840D02*
X36500Y-65160D01*
X36340Y-65000D02*
X36660Y-65000D01*
X37500Y-60840D02*
X37500Y-61160D01*
X37340Y-61000D02*
X37660Y-61000D01*
X37500Y-61840D02*
X37500Y-62160D01*
X37340Y-62000D02*
X37660Y-62000D01*
X37500Y-62840D02*
X37500Y-63160D01*
X37340Y-63000D02*
X37660Y-63000D01*
X37500Y-63840D02*
X37500Y-64160D01*
X37340Y-64000D02*
X37660Y-64000D01*
X37500Y-64840D02*
X37500Y-65160D01*
X37340Y-65000D02*
X37660Y-65000D01*
X37500Y-65840D02*
X37500Y-66160D01*
X37340Y-66000D02*
X37660Y-66000D01*
X38500Y-61840D02*
X38500Y-62160D01*
X38340Y-62000D02*
X38660Y-62000D01*
X38500Y-63840D02*
X38500Y-64160D01*
X38340Y-64000D02*
X38660Y-64000D01*
X38500Y-65840D02*
X38500Y-66160D01*
X38340Y-66000D02*
X38660Y-66000D01*
X40500Y-73340D02*
X40500Y-73660D01*
X40340Y-73500D02*
X40660Y-73500D01*
X40500Y-76340D02*
X40500Y-76660D01*
X40340Y-76500D02*
X40660Y-76500D01*
X41500Y-73340D02*
X41500Y-73660D01*
X41340Y-73500D02*
X41660Y-73500D01*
X41500Y-76340D02*
X41500Y-76660D01*
X41340Y-76500D02*
X41660Y-76500D01*
X42500Y-50340D02*
X42500Y-50660D01*
X42340Y-50500D02*
X42660Y-50500D01*
X42500Y-73340D02*
X42500Y-73660D01*
X42340Y-73500D02*
X42660Y-73500D01*
X42500Y-76340D02*
X42500Y-76660D01*
X42340Y-76500D02*
X42660Y-76500D01*
X43500Y-50340D02*
X43500Y-50660D01*
X43340Y-50500D02*
X43660Y-50500D01*
X43500Y-51840D02*
X43500Y-52160D01*
X43340Y-52000D02*
X43660Y-52000D01*
X43500Y-52840D02*
X43500Y-53160D01*
X43340Y-53000D02*
X43660Y-53000D01*
X43500Y-53840D02*
X43500Y-54160D01*
X43340Y-54000D02*
X43660Y-54000D01*
X43500Y-54840D02*
X43500Y-55160D01*
X43340Y-55000D02*
X43660Y-55000D01*
X43500Y-73340D02*
X43500Y-73660D01*
X43340Y-73500D02*
X43660Y-73500D01*
X43500Y-76340D02*
X43500Y-76660D01*
X43340Y-76500D02*
X43660Y-76500D01*
X44500Y-73340D02*
X44500Y-73660D01*
X44340Y-73500D02*
X44660Y-73500D01*
X44500Y-76340D02*
X44500Y-76660D01*
X44340Y-76500D02*
X44660Y-76500D01*
X45500Y-73340D02*
X45500Y-73660D01*
X45340Y-73500D02*
X45660Y-73500D01*
X45500Y-76340D02*
X45500Y-76660D01*
X45340Y-76500D02*
X45660Y-76500D01*
X46500Y-51840D02*
X46500Y-52160D01*
X46340Y-52000D02*
X46660Y-52000D01*
X46500Y-52840D02*
X46500Y-53160D01*
X46340Y-53000D02*
X46660Y-53000D01*
X46500Y-53840D02*
X46500Y-54160D01*
X46340Y-54000D02*
X46660Y-54000D01*
X46500Y-54840D02*
X46500Y-55160D01*
X46340Y-55000D02*
X46660Y-55000D01*
X46500Y-73340D02*
X46500Y-73660D01*
X46340Y-73500D02*
X46660Y-73500D01*
X46500Y-76340D02*
X46500Y-76660D01*
X46340Y-76500D02*
X46660Y-76500D01*
X47500Y-73340D02*
X47500Y-73660D01*
X47340Y-73500D02*
X47660Y-73500D01*
X47500Y-76340D02*
X47500Y-76660D01*
X47340Y-76500D02*
X47660Y-76500D01*
X48000Y-51840D02*
X48000Y-52160D01*
X47840Y-52000D02*
X48160Y-52000D01*
X48000Y-52840D02*
X48000Y-53160D01*
X47840Y-53000D02*
X48160Y-53000D01*
X51500Y-67840D02*
X51500Y-68160D01*
X51340Y-68000D02*
X51660Y-68000D01*
X51500Y-70840D02*
X51500Y-71160D01*
X51340Y-71000D02*
X51660Y-71000D01*
X52500Y-67840D02*
X52500Y-68160D01*
X52340Y-68000D02*
X52660Y-68000D01*
X52500Y-70840D02*
X52500Y-71160D01*
X52340Y-71000D02*
X52660Y-71000D01*
X53500Y-67840D02*
X53500Y-68160D01*
X53340Y-68000D02*
X53660Y-68000D01*
X53500Y-70840D02*
X53500Y-71160D01*
X53340Y-71000D02*
X53660Y-71000D01*
X54500Y-67840D02*
X54500Y-68160D01*
X54340Y-68000D02*
X54660Y-68000D01*
X54500Y-70840D02*
X54500Y-71160D01*
X54340Y-71000D02*
X54660Y-71000D01*
X58000Y-54840D02*
X58000Y-55160D01*
X57840Y-55000D02*
X58160Y-55000D01*
X58000Y-55840D02*
X58000Y-56160D01*
X57840Y-56000D02*
X58160Y-56000D01*
X59500Y-54840D02*
X59500Y-55160D01*
X59340Y-55000D02*
X59660Y-55000D01*
X59500Y-55840D02*
X59500Y-56160D01*
X59340Y-56000D02*
X59660Y-56000D01*
X59500Y-57840D02*
X59500Y-58160D01*
X59340Y-58000D02*
X59660Y-58000D01*
X59500Y-58840D02*
X59500Y-59160D01*
X59340Y-59000D02*
X59660Y-59000D01*
X59500Y-60340D02*
X59500Y-60660D01*
X59340Y-60500D02*
X59660Y-60500D01*
X59500Y-61340D02*
X59500Y-61660D01*
X59340Y-61500D02*
X59660Y-61500D01*
X62500Y-54840D02*
X62500Y-55160D01*
X62340Y-55000D02*
X62660Y-55000D01*
X62500Y-55840D02*
X62500Y-56160D01*
X62340Y-56000D02*
X62660Y-56000D01*
X62500Y-56840D02*
X62500Y-57160D01*
X62340Y-57000D02*
X62660Y-57000D01*
X62500Y-57840D02*
X62500Y-58160D01*
X62340Y-58000D02*
X62660Y-58000D01*
X62500Y-58840D02*
X62500Y-59160D01*
X62340Y-59000D02*
X62660Y-59000D01*
X62500Y-59840D02*
X62500Y-60160D01*
X62340Y-60000D02*
X62660Y-60000D01*
X62500Y-60840D02*
X62500Y-61160D01*
X62340Y-61000D02*
X62660Y-61000D01*
X62500Y-61840D02*
X62500Y-62160D01*
X62340Y-62000D02*
X62660Y-62000D01*
X63500Y-52340D02*
X63500Y-52660D01*
X63340Y-52500D02*
X63660Y-52500D01*
X64500Y-52340D02*
X64500Y-52660D01*
X64340Y-52500D02*
X64660Y-52500D01*
X65500Y-54840D02*
X65500Y-55160D01*
X65340Y-55000D02*
X65660Y-55000D01*
X65500Y-55840D02*
X65500Y-56160D01*
X65340Y-56000D02*
X65660Y-56000D01*
X65500Y-56840D02*
X65500Y-57160D01*
X65340Y-57000D02*
X65660Y-57000D01*
X65500Y-57840D02*
X65500Y-58160D01*
X65340Y-58000D02*
X65660Y-58000D01*
X65500Y-58840D02*
X65500Y-59160D01*
X65340Y-59000D02*
X65660Y-59000D01*
X65500Y-59840D02*
X65500Y-60160D01*
X65340Y-60000D02*
X65660Y-60000D01*
X65500Y-60840D02*
X65500Y-61160D01*
X65340Y-61000D02*
X65660Y-61000D01*
X65500Y-61840D02*
X65500Y-62160D01*
X65340Y-62000D02*
X65660Y-62000D01*
X48123Y-58123D02*
X48123Y-57876D01*
X47876Y-57876D01*
X47876Y-58123D01*
X48123Y-58123D01*
X48123Y-68623D02*
X48123Y-68376D01*
X47876Y-68376D01*
X47876Y-68623D01*
X48123Y-68623D01*
X36940Y-71696D02*
X37137Y-71500D01*
X36940Y-71303D01*
X36744Y-71500D01*
X36940Y-71696D01*
X36783Y-71007D02*
X36783Y-71992D01*
X37098Y-71007D02*
X37098Y-71992D01*
X36783Y-71992D02*
G75*
G03X37098Y-71992I157J0D01*
G74*
G01*
X37098Y-71007D02*
G75*
G03X36783Y-71007I-157J0D01*
G74*
G01*
X34381Y-71303D02*
X34775Y-71697D01*
X34775Y-71303D02*
X34381Y-71697D01*
X34775Y-71500D02*
G75*
G03X34775Y-71500I-197J0D01*
G74*
G01*
X34421Y-71106D02*
X34421Y-71893D01*
X34736Y-71106D02*
X34736Y-71893D01*
X34421Y-71893D02*
G75*
G03X34736Y-71893I157J0D01*
G74*
G01*
X34736Y-71106D02*
G75*
G03X34421Y-71106I-157J0D01*
G74*
G01*
X34800Y-59800D02*
X35200Y-60200D01*
X35200Y-59800D02*
X34800Y-60200D01*
X35000Y-59800D02*
X35000Y-60200D01*
X34800Y-60000D02*
X35200Y-60000D01*
X34800Y-60800D02*
X35200Y-61200D01*
X35200Y-60800D02*
X34800Y-61200D01*
X35000Y-60800D02*
X35000Y-61200D01*
X34800Y-61000D02*
X35200Y-61000D01*
X34800Y-61800D02*
X35200Y-62200D01*
X35200Y-61800D02*
X34800Y-62200D01*
X35000Y-61800D02*
X35000Y-62200D01*
X34800Y-62000D02*
X35200Y-62000D01*
X34800Y-62800D02*
X35200Y-63200D01*
X35200Y-62800D02*
X34800Y-63200D01*
X35000Y-62800D02*
X35000Y-63200D01*
X34800Y-63000D02*
X35200Y-63000D01*
X34800Y-63800D02*
X35200Y-64200D01*
X35200Y-63800D02*
X34800Y-64200D01*
X35000Y-63800D02*
X35000Y-64200D01*
X34800Y-64000D02*
X35200Y-64000D01*
X34800Y-64800D02*
X35200Y-65200D01*
X35200Y-64800D02*
X34800Y-65200D01*
X35000Y-64800D02*
X35000Y-65200D01*
X34800Y-65000D02*
X35200Y-65000D01*
X34800Y-65800D02*
X35200Y-66200D01*
X35200Y-65800D02*
X34800Y-66200D01*
X35000Y-65800D02*
X35000Y-66200D01*
X34800Y-66000D02*
X35200Y-66000D01*
X34800Y-66800D02*
X35200Y-67200D01*
X35200Y-66800D02*
X34800Y-67200D01*
X35000Y-66800D02*
X35000Y-67200D01*
X34800Y-67000D02*
X35200Y-67000D01*
X49296Y-51800D02*
X49696Y-52200D01*
X49696Y-51800D02*
X49296Y-52200D01*
X49496Y-51800D02*
X49496Y-52200D01*
X49296Y-52000D02*
X49696Y-52000D01*
X49296Y-52800D02*
X49696Y-53200D01*
X49696Y-52800D02*
X49296Y-53200D01*
X49496Y-52800D02*
X49496Y-53200D01*
X49296Y-53000D02*
X49696Y-53000D01*
X49296Y-53800D02*
X49696Y-54200D01*
X49696Y-53800D02*
X49296Y-54200D01*
X49496Y-53800D02*
X49496Y-54200D01*
X49296Y-54000D02*
X49696Y-54000D01*
X49296Y-54800D02*
X49696Y-55200D01*
X49696Y-54800D02*
X49296Y-55200D01*
X49496Y-54800D02*
X49496Y-55200D01*
X49296Y-55000D02*
X49696Y-55000D01*
X49296Y-55800D02*
X49696Y-56200D01*
X49696Y-55800D02*
X49296Y-56200D01*
X49496Y-55800D02*
X49496Y-56200D01*
X49296Y-56000D02*
X49696Y-56000D01*
X49296Y-56800D02*
X49696Y-57200D01*
X49696Y-56800D02*
X49296Y-57200D01*
X49496Y-56800D02*
X49496Y-57200D01*
X49296Y-57000D02*
X49696Y-57000D01*
X49296Y-57800D02*
X49696Y-58200D01*
X49696Y-57800D02*
X49296Y-58200D01*
X49496Y-57800D02*
X49496Y-58200D01*
X49296Y-58000D02*
X49696Y-58000D01*
X49296Y-58800D02*
X49696Y-59200D01*
X49696Y-58800D02*
X49296Y-59200D01*
X49496Y-58800D02*
X49496Y-59200D01*
X49296Y-59000D02*
X49696Y-59000D01*
X49296Y-59800D02*
X49696Y-60200D01*
X49696Y-59800D02*
X49296Y-60200D01*
X49496Y-59800D02*
X49496Y-60200D01*
X49296Y-60000D02*
X49696Y-60000D01*
X49296Y-60800D02*
X49696Y-61200D01*
X49696Y-60800D02*
X49296Y-61200D01*
X49496Y-60800D02*
X49496Y-61200D01*
X49296Y-61000D02*
X49696Y-61000D01*
X49296Y-61800D02*
X49696Y-62200D01*
X49696Y-61800D02*
X49296Y-62200D01*
X49496Y-61800D02*
X49496Y-62200D01*
X49296Y-62000D02*
X49696Y-62000D01*
X49296Y-62800D02*
X49696Y-63200D01*
X49696Y-62800D02*
X49296Y-63200D01*
X49496Y-62800D02*
X49496Y-63200D01*
X49296Y-63000D02*
X49696Y-63000D01*
X49296Y-63800D02*
X49696Y-64200D01*
X49696Y-63800D02*
X49296Y-64200D01*
X49496Y-63800D02*
X49496Y-64200D01*
X49296Y-64000D02*
X49696Y-64000D01*
X49296Y-64800D02*
X49696Y-65200D01*
X49696Y-64800D02*
X49296Y-65200D01*
X49496Y-64800D02*
X49496Y-65200D01*
X49296Y-65000D02*
X49696Y-65000D01*
X50300Y-72800D02*
X50700Y-73200D01*
X50700Y-72800D02*
X50300Y-73200D01*
X50500Y-72800D02*
X50500Y-73200D01*
X50300Y-73000D02*
X50700Y-73000D01*
X50300Y-74800D02*
X50700Y-75200D01*
X50700Y-74800D02*
X50300Y-75200D01*
X50500Y-74800D02*
X50500Y-75200D01*
X50300Y-75000D02*
X50700Y-75000D01*
X51300Y-72800D02*
X51700Y-73200D01*
X51700Y-72800D02*
X51300Y-73200D01*
X51500Y-72800D02*
X51500Y-73200D01*
X51300Y-73000D02*
X51700Y-73000D01*
X51300Y-74800D02*
X51700Y-75200D01*
X51700Y-74800D02*
X51300Y-75200D01*
X51500Y-74800D02*
X51500Y-75200D01*
X51300Y-75000D02*
X51700Y-75000D01*
X52300Y-72800D02*
X52700Y-73200D01*
X52700Y-72800D02*
X52300Y-73200D01*
X52500Y-72800D02*
X52500Y-73200D01*
X52300Y-73000D02*
X52700Y-73000D01*
X52300Y-74800D02*
X52700Y-75200D01*
X52700Y-74800D02*
X52300Y-75200D01*
X52500Y-74800D02*
X52500Y-75200D01*
X52300Y-75000D02*
X52700Y-75000D01*
X53300Y-72800D02*
X53700Y-73200D01*
X53700Y-72800D02*
X53300Y-73200D01*
X53500Y-72800D02*
X53500Y-73200D01*
X53300Y-73000D02*
X53700Y-73000D01*
X53300Y-74800D02*
X53700Y-75200D01*
X53700Y-74800D02*
X53300Y-75200D01*
X53500Y-74800D02*
X53500Y-75200D01*
X53300Y-75000D02*
X53700Y-75000D01*
X54300Y-72800D02*
X54700Y-73200D01*
X54700Y-72800D02*
X54300Y-73200D01*
X54500Y-72800D02*
X54500Y-73200D01*
X54300Y-73000D02*
X54700Y-73000D01*
X54300Y-74800D02*
X54700Y-75200D01*
X54700Y-74800D02*
X54300Y-75200D01*
X54500Y-74800D02*
X54500Y-75200D01*
X54300Y-75000D02*
X54700Y-75000D01*
X55303Y-51800D02*
X55703Y-52200D01*
X55703Y-51800D02*
X55303Y-52200D01*
X55503Y-51800D02*
X55503Y-52200D01*
X55303Y-52000D02*
X55703Y-52000D01*
X55303Y-52800D02*
X55703Y-53200D01*
X55703Y-52800D02*
X55303Y-53200D01*
X55503Y-52800D02*
X55503Y-53200D01*
X55303Y-53000D02*
X55703Y-53000D01*
X55303Y-53800D02*
X55703Y-54200D01*
X55703Y-53800D02*
X55303Y-54200D01*
X55503Y-53800D02*
X55503Y-54200D01*
X55303Y-54000D02*
X55703Y-54000D01*
X55303Y-54800D02*
X55703Y-55200D01*
X55703Y-54800D02*
X55303Y-55200D01*
X55503Y-54800D02*
X55503Y-55200D01*
X55303Y-55000D02*
X55703Y-55000D01*
X55303Y-55800D02*
X55703Y-56200D01*
X55703Y-55800D02*
X55303Y-56200D01*
X55503Y-55800D02*
X55503Y-56200D01*
X55303Y-56000D02*
X55703Y-56000D01*
X55303Y-56800D02*
X55703Y-57200D01*
X55703Y-56800D02*
X55303Y-57200D01*
X55503Y-56800D02*
X55503Y-57200D01*
X55303Y-57000D02*
X55703Y-57000D01*
X55303Y-57800D02*
X55703Y-58200D01*
X55703Y-57800D02*
X55303Y-58200D01*
X55503Y-57800D02*
X55503Y-58200D01*
X55303Y-58000D02*
X55703Y-58000D01*
X55303Y-58800D02*
X55703Y-59200D01*
X55703Y-58800D02*
X55303Y-59200D01*
X55503Y-58800D02*
X55503Y-59200D01*
X55303Y-59000D02*
X55703Y-59000D01*
X55303Y-59800D02*
X55703Y-60200D01*
X55703Y-59800D02*
X55303Y-60200D01*
X55503Y-59800D02*
X55503Y-60200D01*
X55303Y-60000D02*
X55703Y-60000D01*
X55303Y-60800D02*
X55703Y-61200D01*
X55703Y-60800D02*
X55303Y-61200D01*
X55503Y-60800D02*
X55503Y-61200D01*
X55303Y-61000D02*
X55703Y-61000D01*
X55303Y-61800D02*
X55703Y-62200D01*
X55703Y-61800D02*
X55303Y-62200D01*
X55503Y-61800D02*
X55503Y-62200D01*
X55303Y-62000D02*
X55703Y-62000D01*
X55303Y-62800D02*
X55703Y-63200D01*
X55703Y-62800D02*
X55303Y-63200D01*
X55503Y-62800D02*
X55503Y-63200D01*
X55303Y-63000D02*
X55703Y-63000D01*
X55303Y-63800D02*
X55703Y-64200D01*
X55703Y-63800D02*
X55303Y-64200D01*
X55503Y-63800D02*
X55503Y-64200D01*
X55303Y-64000D02*
X55703Y-64000D01*
X55303Y-64800D02*
X55703Y-65200D01*
X55703Y-64800D02*
X55303Y-65200D01*
X55503Y-64800D02*
X55503Y-65200D01*
X55303Y-65000D02*
X55703Y-65000D01*
X67300Y-54800D02*
X67700Y-55200D01*
X67700Y-54800D02*
X67300Y-55200D01*
X67500Y-54800D02*
X67500Y-55200D01*
X67300Y-55000D02*
X67700Y-55000D01*
X67300Y-55800D02*
X67700Y-56200D01*
X67700Y-55800D02*
X67300Y-56200D01*
X67500Y-55800D02*
X67500Y-56200D01*
X67300Y-56000D02*
X67700Y-56000D01*
X67300Y-56800D02*
X67700Y-57200D01*
X67700Y-56800D02*
X67300Y-57200D01*
X67500Y-56800D02*
X67500Y-57200D01*
X67300Y-57000D02*
X67700Y-57000D01*
X67300Y-57800D02*
X67700Y-58200D01*
X67700Y-57800D02*
X67300Y-58200D01*
X67500Y-57800D02*
X67500Y-58200D01*
X67300Y-58000D02*
X67700Y-58000D01*
X67300Y-59300D02*
X67700Y-59700D01*
X67700Y-59300D02*
X67300Y-59700D01*
X67500Y-59300D02*
X67500Y-59700D01*
X67300Y-59500D02*
X67700Y-59500D01*
X67300Y-60300D02*
X67700Y-60700D01*
X67700Y-60300D02*
X67300Y-60700D01*
X67500Y-60300D02*
X67500Y-60700D01*
X67300Y-60500D02*
X67700Y-60500D01*
X67300Y-61300D02*
X67700Y-61700D01*
X67700Y-61300D02*
X67300Y-61700D01*
X67500Y-61300D02*
X67500Y-61700D01*
X67300Y-61500D02*
X67700Y-61500D01*
X67300Y-62300D02*
X67700Y-62700D01*
X67700Y-62300D02*
X67300Y-62700D01*
X67500Y-62300D02*
X67500Y-62700D01*
X67300Y-62500D02*
X67700Y-62500D01*
X34754Y-52754D02*
X35246Y-53246D01*
X35246Y-52754D02*
X34754Y-53246D01*
X35173Y-53173D02*
X35173Y-52826D01*
X34826Y-52826D01*
X34826Y-53173D01*
X35173Y-53173D01*
X34754Y-54754D02*
X35246Y-55246D01*
X35246Y-54754D02*
X34754Y-55246D01*
X35173Y-55173D02*
X35173Y-54826D01*
X34826Y-54826D01*
X34826Y-55173D01*
X35173Y-55173D01*
X39200Y-50688D02*
X39800Y-51288D01*
X39800Y-50688D02*
X39200Y-51288D01*
X39500Y-51288D02*
X39800Y-50988D01*
X39500Y-50688D01*
X39200Y-50988D01*
X39500Y-51288D01*
X39200Y-52696D02*
X39800Y-53296D01*
X39800Y-52696D02*
X39200Y-53296D01*
X39500Y-53296D02*
X39800Y-52996D01*
X39500Y-52696D01*
X39200Y-52996D01*
X39500Y-53296D01*
X39200Y-54703D02*
X39800Y-55303D01*
X39800Y-54703D02*
X39200Y-55303D01*
X39500Y-55303D02*
X39800Y-55003D01*
X39500Y-54703D01*
X39200Y-55003D01*
X39500Y-55303D01*
X39200Y-56711D02*
X39800Y-57311D01*
X39800Y-56711D02*
X39200Y-57311D01*
X39500Y-57311D02*
X39800Y-57011D01*
X39500Y-56711D01*
X39200Y-57011D01*
X39500Y-57311D01*
X34250Y-45758D02*
X34250Y-46742D01*
X33758Y-46250D02*
X34742Y-46250D01*
X34742Y-46250D02*
G75*
G03X34742Y-46250I-492J0D01*
G74*
G01*
X34250Y-75758D02*
X34250Y-76742D01*
X33758Y-76250D02*
X34742Y-76250D01*
X34742Y-76250D02*
G75*
G03X34742Y-76250I-492J0D01*
G74*
G01*
X67750Y-45758D02*
X67750Y-46742D01*
X67258Y-46250D02*
X68242Y-46250D01*
X68242Y-46250D02*
G75*
G03X68242Y-46250I-492J0D01*
G74*
G01*
X67750Y-75758D02*
X67750Y-76742D01*
X67258Y-76250D02*
X68242Y-76250D01*
X68242Y-76250D02*
G75*
G03X68242Y-76250I-492J0D01*
G74*
G01*
G54D13*
X34048Y-79296D02*
X34048Y-78115D01*
X34330Y-78115D01*
X34498Y-78172D01*
X34611Y-78284D01*
X34667Y-78397D01*
X34723Y-78622D01*
X34723Y-78790D01*
X34667Y-79015D01*
X34611Y-79128D01*
X34498Y-79240D01*
X34330Y-79296D01*
X34048Y-79296D01*
X35230Y-79296D02*
X35230Y-78509D01*
X35230Y-78734D02*
X35286Y-78622D01*
X35342Y-78565D01*
X35455Y-78509D01*
X35567Y-78509D01*
X35961Y-79296D02*
X35961Y-78509D01*
X35961Y-78115D02*
X35904Y-78172D01*
X35961Y-78228D01*
X36017Y-78172D01*
X35961Y-78115D01*
X35961Y-78228D01*
X36692Y-79296D02*
X36579Y-79240D01*
X36523Y-79128D01*
X36523Y-78115D01*
X37311Y-79296D02*
X37198Y-79240D01*
X37142Y-79128D01*
X37142Y-78115D01*
X38660Y-79296D02*
X38660Y-78115D01*
X39054Y-78959D01*
X39448Y-78115D01*
X39448Y-79296D01*
X40516Y-79296D02*
X40516Y-78678D01*
X40460Y-78565D01*
X40348Y-78509D01*
X40123Y-78509D01*
X40010Y-78565D01*
X40516Y-79240D02*
X40404Y-79296D01*
X40123Y-79296D01*
X40010Y-79240D01*
X39954Y-79128D01*
X39954Y-79015D01*
X40010Y-78903D01*
X40123Y-78847D01*
X40404Y-78847D01*
X40516Y-78790D01*
X41079Y-78509D02*
X41079Y-79690D01*
X41079Y-78565D02*
X41191Y-78509D01*
X41416Y-78509D01*
X41529Y-78565D01*
X41585Y-78622D01*
X41641Y-78734D01*
X41641Y-79071D01*
X41585Y-79184D01*
X41529Y-79240D01*
X41416Y-79296D01*
X41191Y-79296D01*
X41079Y-79240D01*
X42147Y-79184D02*
X42204Y-79240D01*
X42147Y-79296D01*
X42091Y-79240D01*
X42147Y-79184D01*
X42147Y-79296D01*
X42147Y-78565D02*
X42204Y-78622D01*
X42147Y-78678D01*
X42091Y-78622D01*
X42147Y-78565D01*
X42147Y-78678D01*
X32740Y-81179D02*
X32980Y-81419D01*
X32980Y-81179D02*
X32740Y-81419D01*
X34273Y-80596D02*
X34386Y-80596D01*
X34498Y-80652D01*
X34555Y-80708D01*
X34611Y-80821D01*
X34667Y-81046D01*
X34667Y-81327D01*
X34611Y-81552D01*
X34555Y-81664D01*
X34498Y-81721D01*
X34386Y-81777D01*
X34273Y-81777D01*
X34161Y-81721D01*
X34105Y-81664D01*
X34048Y-81552D01*
X33992Y-81327D01*
X33992Y-81046D01*
X34048Y-80821D01*
X34105Y-80708D01*
X34161Y-80652D01*
X34273Y-80596D01*
X35173Y-81664D02*
X35230Y-81721D01*
X35173Y-81777D01*
X35117Y-81721D01*
X35173Y-81664D01*
X35173Y-81777D01*
X36242Y-80596D02*
X36017Y-80596D01*
X35904Y-80652D01*
X35848Y-80708D01*
X35736Y-80877D01*
X35679Y-81102D01*
X35679Y-81552D01*
X35736Y-81664D01*
X35792Y-81721D01*
X35904Y-81777D01*
X36129Y-81777D01*
X36242Y-81721D01*
X36298Y-81664D01*
X36354Y-81552D01*
X36354Y-81271D01*
X36298Y-81158D01*
X36242Y-81102D01*
X36129Y-81046D01*
X35904Y-81046D01*
X35792Y-81102D01*
X35736Y-81158D01*
X35679Y-81271D01*
X37479Y-81777D02*
X36804Y-81777D01*
X37142Y-81777D02*
X37142Y-80596D01*
X37029Y-80764D01*
X36917Y-80877D01*
X36804Y-80933D01*
X37985Y-81777D02*
X37985Y-80989D01*
X37985Y-81102D02*
X38042Y-81046D01*
X38154Y-80989D01*
X38323Y-80989D01*
X38435Y-81046D01*
X38492Y-81158D01*
X38492Y-81777D01*
X38492Y-81158D02*
X38548Y-81046D01*
X38660Y-80989D01*
X38829Y-80989D01*
X38942Y-81046D01*
X38998Y-81158D01*
X38998Y-81777D01*
X39560Y-81777D02*
X39560Y-80989D01*
X39560Y-81102D02*
X39616Y-81046D01*
X39729Y-80989D01*
X39898Y-80989D01*
X40010Y-81046D01*
X40066Y-81158D01*
X40066Y-81777D01*
X40066Y-81158D02*
X40123Y-81046D01*
X40235Y-80989D01*
X40404Y-80989D01*
X40516Y-81046D01*
X40573Y-81158D01*
X40573Y-81777D01*
X42879Y-80539D02*
X41866Y-82058D01*
X44397Y-80596D02*
X44510Y-80596D01*
X44622Y-80652D01*
X44678Y-80708D01*
X44735Y-80821D01*
X44791Y-81046D01*
X44791Y-81327D01*
X44735Y-81552D01*
X44678Y-81664D01*
X44622Y-81721D01*
X44510Y-81777D01*
X44397Y-81777D01*
X44285Y-81721D01*
X44228Y-81664D01*
X44172Y-81552D01*
X44116Y-81327D01*
X44116Y-81046D01*
X44172Y-80821D01*
X44228Y-80708D01*
X44285Y-80652D01*
X44397Y-80596D01*
X45297Y-81664D02*
X45353Y-81721D01*
X45297Y-81777D01*
X45241Y-81721D01*
X45297Y-81664D01*
X45297Y-81777D01*
X46084Y-80596D02*
X46197Y-80596D01*
X46309Y-80652D01*
X46366Y-80708D01*
X46422Y-80821D01*
X46478Y-81046D01*
X46478Y-81327D01*
X46422Y-81552D01*
X46366Y-81664D01*
X46309Y-81721D01*
X46197Y-81777D01*
X46084Y-81777D01*
X45972Y-81721D01*
X45916Y-81664D01*
X45859Y-81552D01*
X45803Y-81327D01*
X45803Y-81046D01*
X45859Y-80821D01*
X45916Y-80708D01*
X45972Y-80652D01*
X46084Y-80596D01*
X46928Y-80708D02*
X46984Y-80652D01*
X47097Y-80596D01*
X47378Y-80596D01*
X47491Y-80652D01*
X47547Y-80708D01*
X47603Y-80821D01*
X47603Y-80933D01*
X47547Y-81102D01*
X46872Y-81777D01*
X47603Y-81777D01*
X48615Y-80989D02*
X48615Y-81777D01*
X48334Y-80539D02*
X48053Y-81383D01*
X48784Y-81383D01*
X49178Y-80596D02*
X49178Y-80821D01*
X49628Y-80596D02*
X49628Y-80821D01*
X51371Y-82227D02*
X51315Y-82170D01*
X51203Y-82002D01*
X51146Y-81889D01*
X51090Y-81721D01*
X51034Y-81439D01*
X51034Y-81214D01*
X51090Y-80933D01*
X51146Y-80764D01*
X51203Y-80652D01*
X51315Y-80483D01*
X51371Y-80427D01*
X51765Y-80708D02*
X51821Y-80652D01*
X51934Y-80596D01*
X52215Y-80596D01*
X52327Y-80652D01*
X52384Y-80708D01*
X52440Y-80821D01*
X52440Y-80933D01*
X52384Y-81102D01*
X51709Y-81777D01*
X52440Y-81777D01*
X53846Y-81777D02*
X53846Y-80596D01*
X54352Y-81777D02*
X54352Y-81158D01*
X54296Y-81046D01*
X54183Y-80989D01*
X54015Y-80989D01*
X53902Y-81046D01*
X53846Y-81102D01*
X55083Y-81777D02*
X54971Y-81721D01*
X54915Y-81664D01*
X54858Y-81552D01*
X54858Y-81214D01*
X54915Y-81102D01*
X54971Y-81046D01*
X55083Y-80989D01*
X55252Y-80989D01*
X55365Y-81046D01*
X55421Y-81102D01*
X55477Y-81214D01*
X55477Y-81552D01*
X55421Y-81664D01*
X55365Y-81721D01*
X55252Y-81777D01*
X55083Y-81777D01*
X56152Y-81777D02*
X56039Y-81721D01*
X55983Y-81608D01*
X55983Y-80596D01*
X57052Y-81721D02*
X56939Y-81777D01*
X56714Y-81777D01*
X56602Y-81721D01*
X56546Y-81608D01*
X56546Y-81158D01*
X56602Y-81046D01*
X56714Y-80989D01*
X56939Y-80989D01*
X57052Y-81046D01*
X57108Y-81158D01*
X57108Y-81271D01*
X56546Y-81383D01*
X57558Y-81721D02*
X57670Y-81777D01*
X57895Y-81777D01*
X58008Y-81721D01*
X58064Y-81608D01*
X58064Y-81552D01*
X58008Y-81439D01*
X57895Y-81383D01*
X57727Y-81383D01*
X57614Y-81327D01*
X57558Y-81214D01*
X57558Y-81158D01*
X57614Y-81046D01*
X57727Y-80989D01*
X57895Y-80989D01*
X58008Y-81046D01*
X58458Y-82227D02*
X58514Y-82170D01*
X58627Y-82002D01*
X58683Y-81889D01*
X58739Y-81721D01*
X58795Y-81439D01*
X58795Y-81214D01*
X58739Y-80933D01*
X58683Y-80764D01*
X58627Y-80652D01*
X58514Y-80483D01*
X58458Y-80427D01*
G54D12*
X32980Y-82858D02*
G75*
G03X32980Y-82858I-125J0D01*
G74*
G01*
G54D13*
X34273Y-82155D02*
X34386Y-82155D01*
X34498Y-82211D01*
X34555Y-82267D01*
X34611Y-82380D01*
X34667Y-82605D01*
X34667Y-82886D01*
X34611Y-83111D01*
X34555Y-83223D01*
X34498Y-83280D01*
X34386Y-83336D01*
X34273Y-83336D01*
X34161Y-83280D01*
X34105Y-83223D01*
X34048Y-83111D01*
X33992Y-82886D01*
X33992Y-82605D01*
X34048Y-82380D01*
X34105Y-82267D01*
X34161Y-82211D01*
X34273Y-82155D01*
X35173Y-83223D02*
X35230Y-83280D01*
X35173Y-83336D01*
X35117Y-83280D01*
X35173Y-83223D01*
X35173Y-83336D01*
X36242Y-82155D02*
X36017Y-82155D01*
X35904Y-82211D01*
X35848Y-82267D01*
X35736Y-82436D01*
X35679Y-82661D01*
X35679Y-83111D01*
X35736Y-83223D01*
X35792Y-83280D01*
X35904Y-83336D01*
X36129Y-83336D01*
X36242Y-83280D01*
X36298Y-83223D01*
X36354Y-83111D01*
X36354Y-82830D01*
X36298Y-82717D01*
X36242Y-82661D01*
X36129Y-82605D01*
X35904Y-82605D01*
X35792Y-82661D01*
X35736Y-82717D01*
X35679Y-82830D01*
X37367Y-82548D02*
X37367Y-83336D01*
X37086Y-82098D02*
X36804Y-82942D01*
X37535Y-82942D01*
X37985Y-83336D02*
X37985Y-82548D01*
X37985Y-82661D02*
X38042Y-82605D01*
X38154Y-82548D01*
X38323Y-82548D01*
X38435Y-82605D01*
X38492Y-82717D01*
X38492Y-83336D01*
X38492Y-82717D02*
X38548Y-82605D01*
X38660Y-82548D01*
X38829Y-82548D01*
X38942Y-82605D01*
X38998Y-82717D01*
X38998Y-83336D01*
X39560Y-83336D02*
X39560Y-82548D01*
X39560Y-82661D02*
X39616Y-82605D01*
X39729Y-82548D01*
X39898Y-82548D01*
X40010Y-82605D01*
X40066Y-82717D01*
X40066Y-83336D01*
X40066Y-82717D02*
X40123Y-82605D01*
X40235Y-82548D01*
X40404Y-82548D01*
X40516Y-82605D01*
X40573Y-82717D01*
X40573Y-83336D01*
X42879Y-82098D02*
X41866Y-83617D01*
X44397Y-82155D02*
X44510Y-82155D01*
X44622Y-82211D01*
X44678Y-82267D01*
X44735Y-82380D01*
X44791Y-82605D01*
X44791Y-82886D01*
X44735Y-83111D01*
X44678Y-83223D01*
X44622Y-83280D01*
X44510Y-83336D01*
X44397Y-83336D01*
X44285Y-83280D01*
X44228Y-83223D01*
X44172Y-83111D01*
X44116Y-82886D01*
X44116Y-82605D01*
X44172Y-82380D01*
X44228Y-82267D01*
X44285Y-82211D01*
X44397Y-82155D01*
X45297Y-83223D02*
X45353Y-83280D01*
X45297Y-83336D01*
X45241Y-83280D01*
X45297Y-83223D01*
X45297Y-83336D01*
X46084Y-82155D02*
X46197Y-82155D01*
X46309Y-82211D01*
X46366Y-82267D01*
X46422Y-82380D01*
X46478Y-82605D01*
X46478Y-82886D01*
X46422Y-83111D01*
X46366Y-83223D01*
X46309Y-83280D01*
X46197Y-83336D01*
X46084Y-83336D01*
X45972Y-83280D01*
X45916Y-83223D01*
X45859Y-83111D01*
X45803Y-82886D01*
X45803Y-82605D01*
X45859Y-82380D01*
X45916Y-82267D01*
X45972Y-82211D01*
X46084Y-82155D01*
X46928Y-82267D02*
X46984Y-82211D01*
X47097Y-82155D01*
X47378Y-82155D01*
X47491Y-82211D01*
X47547Y-82267D01*
X47603Y-82380D01*
X47603Y-82492D01*
X47547Y-82661D01*
X46872Y-83336D01*
X47603Y-83336D01*
X48672Y-82155D02*
X48109Y-82155D01*
X48053Y-82717D01*
X48109Y-82661D01*
X48222Y-82605D01*
X48503Y-82605D01*
X48615Y-82661D01*
X48672Y-82717D01*
X48728Y-82830D01*
X48728Y-83111D01*
X48672Y-83223D01*
X48615Y-83280D01*
X48503Y-83336D01*
X48222Y-83336D01*
X48109Y-83280D01*
X48053Y-83223D01*
X49178Y-82155D02*
X49178Y-82380D01*
X49628Y-82155D02*
X49628Y-82380D01*
X51371Y-83786D02*
X51315Y-83730D01*
X51203Y-83561D01*
X51146Y-83448D01*
X51090Y-83280D01*
X51034Y-82998D01*
X51034Y-82773D01*
X51090Y-82492D01*
X51146Y-82323D01*
X51203Y-82211D01*
X51315Y-82042D01*
X51371Y-81986D01*
X51765Y-82267D02*
X51821Y-82211D01*
X51934Y-82155D01*
X52215Y-82155D01*
X52327Y-82211D01*
X52384Y-82267D01*
X52440Y-82380D01*
X52440Y-82492D01*
X52384Y-82661D01*
X51709Y-83336D01*
X52440Y-83336D01*
X52834Y-82155D02*
X53565Y-82155D01*
X53171Y-82605D01*
X53340Y-82605D01*
X53452Y-82661D01*
X53508Y-82717D01*
X53565Y-82830D01*
X53565Y-83111D01*
X53508Y-83223D01*
X53452Y-83280D01*
X53340Y-83336D01*
X53002Y-83336D01*
X52890Y-83280D01*
X52834Y-83223D01*
X54971Y-83336D02*
X54971Y-82155D01*
X55477Y-83336D02*
X55477Y-82717D01*
X55421Y-82605D01*
X55308Y-82548D01*
X55140Y-82548D01*
X55027Y-82605D01*
X54971Y-82661D01*
X56208Y-83336D02*
X56096Y-83280D01*
X56039Y-83223D01*
X55983Y-83111D01*
X55983Y-82773D01*
X56039Y-82661D01*
X56096Y-82605D01*
X56208Y-82548D01*
X56377Y-82548D01*
X56489Y-82605D01*
X56546Y-82661D01*
X56602Y-82773D01*
X56602Y-83111D01*
X56546Y-83223D01*
X56489Y-83280D01*
X56377Y-83336D01*
X56208Y-83336D01*
X57277Y-83336D02*
X57164Y-83280D01*
X57108Y-83167D01*
X57108Y-82155D01*
X58177Y-83280D02*
X58064Y-83336D01*
X57839Y-83336D01*
X57727Y-83280D01*
X57670Y-83167D01*
X57670Y-82717D01*
X57727Y-82605D01*
X57839Y-82548D01*
X58064Y-82548D01*
X58177Y-82605D01*
X58233Y-82717D01*
X58233Y-82830D01*
X57670Y-82942D01*
X58683Y-83280D02*
X58795Y-83336D01*
X59020Y-83336D01*
X59133Y-83280D01*
X59189Y-83167D01*
X59189Y-83111D01*
X59133Y-82998D01*
X59020Y-82942D01*
X58852Y-82942D01*
X58739Y-82886D01*
X58683Y-82773D01*
X58683Y-82717D01*
X58739Y-82605D01*
X58852Y-82548D01*
X59020Y-82548D01*
X59133Y-82605D01*
X59583Y-83786D02*
X59639Y-83730D01*
X59751Y-83561D01*
X59808Y-83448D01*
X59864Y-83280D01*
X59920Y-82998D01*
X59920Y-82773D01*
X59864Y-82492D01*
X59808Y-82323D01*
X59751Y-82211D01*
X59639Y-82042D01*
X59583Y-81986D01*
X32820Y-84257D02*
X32820Y-84577D01*
X32660Y-84417D02*
X32980Y-84417D01*
X34273Y-83714D02*
X34386Y-83714D01*
X34498Y-83770D01*
X34555Y-83826D01*
X34611Y-83939D01*
X34667Y-84164D01*
X34667Y-84445D01*
X34611Y-84670D01*
X34555Y-84782D01*
X34498Y-84839D01*
X34386Y-84895D01*
X34273Y-84895D01*
X34161Y-84839D01*
X34105Y-84782D01*
X34048Y-84670D01*
X33992Y-84445D01*
X33992Y-84164D01*
X34048Y-83939D01*
X34105Y-83826D01*
X34161Y-83770D01*
X34273Y-83714D01*
X35173Y-84782D02*
X35230Y-84839D01*
X35173Y-84895D01*
X35117Y-84839D01*
X35173Y-84782D01*
X35173Y-84895D01*
X35904Y-84220D02*
X35792Y-84164D01*
X35736Y-84107D01*
X35679Y-83995D01*
X35679Y-83939D01*
X35736Y-83826D01*
X35792Y-83770D01*
X35904Y-83714D01*
X36129Y-83714D01*
X36242Y-83770D01*
X36298Y-83826D01*
X36354Y-83939D01*
X36354Y-83995D01*
X36298Y-84107D01*
X36242Y-84164D01*
X36129Y-84220D01*
X35904Y-84220D01*
X35792Y-84276D01*
X35736Y-84332D01*
X35679Y-84445D01*
X35679Y-84670D01*
X35736Y-84782D01*
X35792Y-84839D01*
X35904Y-84895D01*
X36129Y-84895D01*
X36242Y-84839D01*
X36298Y-84782D01*
X36354Y-84670D01*
X36354Y-84445D01*
X36298Y-84332D01*
X36242Y-84276D01*
X36129Y-84220D01*
X37479Y-84895D02*
X36804Y-84895D01*
X37142Y-84895D02*
X37142Y-83714D01*
X37029Y-83883D01*
X36917Y-83995D01*
X36804Y-84051D01*
X37985Y-84895D02*
X37985Y-84107D01*
X37985Y-84220D02*
X38042Y-84164D01*
X38154Y-84107D01*
X38323Y-84107D01*
X38435Y-84164D01*
X38492Y-84276D01*
X38492Y-84895D01*
X38492Y-84276D02*
X38548Y-84164D01*
X38660Y-84107D01*
X38829Y-84107D01*
X38942Y-84164D01*
X38998Y-84276D01*
X38998Y-84895D01*
X39560Y-84895D02*
X39560Y-84107D01*
X39560Y-84220D02*
X39616Y-84164D01*
X39729Y-84107D01*
X39898Y-84107D01*
X40010Y-84164D01*
X40066Y-84276D01*
X40066Y-84895D01*
X40066Y-84276D02*
X40123Y-84164D01*
X40235Y-84107D01*
X40404Y-84107D01*
X40516Y-84164D01*
X40573Y-84276D01*
X40573Y-84895D01*
X42879Y-83658D02*
X41866Y-85176D01*
X44397Y-83714D02*
X44510Y-83714D01*
X44622Y-83770D01*
X44678Y-83826D01*
X44735Y-83939D01*
X44791Y-84164D01*
X44791Y-84445D01*
X44735Y-84670D01*
X44678Y-84782D01*
X44622Y-84839D01*
X44510Y-84895D01*
X44397Y-84895D01*
X44285Y-84839D01*
X44228Y-84782D01*
X44172Y-84670D01*
X44116Y-84445D01*
X44116Y-84164D01*
X44172Y-83939D01*
X44228Y-83826D01*
X44285Y-83770D01*
X44397Y-83714D01*
X45297Y-84782D02*
X45353Y-84839D01*
X45297Y-84895D01*
X45241Y-84839D01*
X45297Y-84782D01*
X45297Y-84895D01*
X46084Y-83714D02*
X46197Y-83714D01*
X46309Y-83770D01*
X46366Y-83826D01*
X46422Y-83939D01*
X46478Y-84164D01*
X46478Y-84445D01*
X46422Y-84670D01*
X46366Y-84782D01*
X46309Y-84839D01*
X46197Y-84895D01*
X46084Y-84895D01*
X45972Y-84839D01*
X45916Y-84782D01*
X45859Y-84670D01*
X45803Y-84445D01*
X45803Y-84164D01*
X45859Y-83939D01*
X45916Y-83826D01*
X45972Y-83770D01*
X46084Y-83714D01*
X46872Y-83714D02*
X47603Y-83714D01*
X47209Y-84164D01*
X47378Y-84164D01*
X47491Y-84220D01*
X47547Y-84276D01*
X47603Y-84389D01*
X47603Y-84670D01*
X47547Y-84782D01*
X47491Y-84839D01*
X47378Y-84895D01*
X47041Y-84895D01*
X46928Y-84839D01*
X46872Y-84782D01*
X48053Y-83826D02*
X48109Y-83770D01*
X48222Y-83714D01*
X48503Y-83714D01*
X48615Y-83770D01*
X48672Y-83826D01*
X48728Y-83939D01*
X48728Y-84051D01*
X48672Y-84220D01*
X47997Y-84895D01*
X48728Y-84895D01*
X49178Y-83714D02*
X49178Y-83939D01*
X49628Y-83714D02*
X49628Y-83939D01*
X51371Y-85345D02*
X51315Y-85289D01*
X51203Y-85120D01*
X51146Y-85007D01*
X51090Y-84839D01*
X51034Y-84557D01*
X51034Y-84332D01*
X51090Y-84051D01*
X51146Y-83883D01*
X51203Y-83770D01*
X51315Y-83601D01*
X51371Y-83545D01*
X51709Y-83714D02*
X52496Y-83714D01*
X51990Y-84895D01*
X53452Y-84107D02*
X53452Y-84895D01*
X53171Y-83658D02*
X52890Y-84501D01*
X53621Y-84501D01*
X54971Y-84895D02*
X54971Y-83714D01*
X55477Y-84895D02*
X55477Y-84276D01*
X55421Y-84164D01*
X55308Y-84107D01*
X55140Y-84107D01*
X55027Y-84164D01*
X54971Y-84220D01*
X56208Y-84895D02*
X56096Y-84839D01*
X56039Y-84782D01*
X55983Y-84670D01*
X55983Y-84332D01*
X56039Y-84220D01*
X56096Y-84164D01*
X56208Y-84107D01*
X56377Y-84107D01*
X56489Y-84164D01*
X56546Y-84220D01*
X56602Y-84332D01*
X56602Y-84670D01*
X56546Y-84782D01*
X56489Y-84839D01*
X56377Y-84895D01*
X56208Y-84895D01*
X57277Y-84895D02*
X57164Y-84839D01*
X57108Y-84726D01*
X57108Y-83714D01*
X58177Y-84839D02*
X58064Y-84895D01*
X57839Y-84895D01*
X57727Y-84839D01*
X57670Y-84726D01*
X57670Y-84276D01*
X57727Y-84164D01*
X57839Y-84107D01*
X58064Y-84107D01*
X58177Y-84164D01*
X58233Y-84276D01*
X58233Y-84389D01*
X57670Y-84501D01*
X58683Y-84839D02*
X58795Y-84895D01*
X59020Y-84895D01*
X59133Y-84839D01*
X59189Y-84726D01*
X59189Y-84670D01*
X59133Y-84557D01*
X59020Y-84501D01*
X58852Y-84501D01*
X58739Y-84445D01*
X58683Y-84332D01*
X58683Y-84276D01*
X58739Y-84164D01*
X58852Y-84107D01*
X59020Y-84107D01*
X59133Y-84164D01*
X59583Y-85345D02*
X59639Y-85289D01*
X59751Y-85120D01*
X59808Y-85007D01*
X59864Y-84839D01*
X59920Y-84557D01*
X59920Y-84332D01*
X59864Y-84051D01*
X59808Y-83883D01*
X59751Y-83770D01*
X59639Y-83601D01*
X59583Y-83545D01*
G54D12*
X32929Y-86100D02*
X32929Y-85852D01*
X32681Y-85852D01*
X32681Y-86100D01*
X32929Y-86100D01*
G54D13*
X34273Y-85273D02*
X34386Y-85273D01*
X34498Y-85329D01*
X34555Y-85385D01*
X34611Y-85498D01*
X34667Y-85723D01*
X34667Y-86004D01*
X34611Y-86229D01*
X34555Y-86341D01*
X34498Y-86398D01*
X34386Y-86454D01*
X34273Y-86454D01*
X34161Y-86398D01*
X34105Y-86341D01*
X34048Y-86229D01*
X33992Y-86004D01*
X33992Y-85723D01*
X34048Y-85498D01*
X34105Y-85385D01*
X34161Y-85329D01*
X34273Y-85273D01*
X35173Y-86341D02*
X35230Y-86398D01*
X35173Y-86454D01*
X35117Y-86398D01*
X35173Y-86341D01*
X35173Y-86454D01*
X35904Y-85779D02*
X35792Y-85723D01*
X35736Y-85667D01*
X35679Y-85554D01*
X35679Y-85498D01*
X35736Y-85385D01*
X35792Y-85329D01*
X35904Y-85273D01*
X36129Y-85273D01*
X36242Y-85329D01*
X36298Y-85385D01*
X36354Y-85498D01*
X36354Y-85554D01*
X36298Y-85667D01*
X36242Y-85723D01*
X36129Y-85779D01*
X35904Y-85779D01*
X35792Y-85835D01*
X35736Y-85892D01*
X35679Y-86004D01*
X35679Y-86229D01*
X35736Y-86341D01*
X35792Y-86398D01*
X35904Y-86454D01*
X36129Y-86454D01*
X36242Y-86398D01*
X36298Y-86341D01*
X36354Y-86229D01*
X36354Y-86004D01*
X36298Y-85892D01*
X36242Y-85835D01*
X36129Y-85779D01*
X36917Y-86454D02*
X37142Y-86454D01*
X37254Y-86398D01*
X37311Y-86341D01*
X37423Y-86173D01*
X37479Y-85948D01*
X37479Y-85498D01*
X37423Y-85385D01*
X37367Y-85329D01*
X37254Y-85273D01*
X37029Y-85273D01*
X36917Y-85329D01*
X36861Y-85385D01*
X36804Y-85498D01*
X36804Y-85779D01*
X36861Y-85892D01*
X36917Y-85948D01*
X37029Y-86004D01*
X37254Y-86004D01*
X37367Y-85948D01*
X37423Y-85892D01*
X37479Y-85779D01*
X37985Y-86454D02*
X37985Y-85667D01*
X37985Y-85779D02*
X38042Y-85723D01*
X38154Y-85667D01*
X38323Y-85667D01*
X38435Y-85723D01*
X38492Y-85835D01*
X38492Y-86454D01*
X38492Y-85835D02*
X38548Y-85723D01*
X38660Y-85667D01*
X38829Y-85667D01*
X38942Y-85723D01*
X38998Y-85835D01*
X38998Y-86454D01*
X39560Y-86454D02*
X39560Y-85667D01*
X39560Y-85779D02*
X39616Y-85723D01*
X39729Y-85667D01*
X39898Y-85667D01*
X40010Y-85723D01*
X40066Y-85835D01*
X40066Y-86454D01*
X40066Y-85835D02*
X40123Y-85723D01*
X40235Y-85667D01*
X40404Y-85667D01*
X40516Y-85723D01*
X40573Y-85835D01*
X40573Y-86454D01*
X42879Y-85217D02*
X41866Y-86735D01*
X44397Y-85273D02*
X44510Y-85273D01*
X44622Y-85329D01*
X44678Y-85385D01*
X44735Y-85498D01*
X44791Y-85723D01*
X44791Y-86004D01*
X44735Y-86229D01*
X44678Y-86341D01*
X44622Y-86398D01*
X44510Y-86454D01*
X44397Y-86454D01*
X44285Y-86398D01*
X44228Y-86341D01*
X44172Y-86229D01*
X44116Y-86004D01*
X44116Y-85723D01*
X44172Y-85498D01*
X44228Y-85385D01*
X44285Y-85329D01*
X44397Y-85273D01*
X45297Y-86341D02*
X45353Y-86398D01*
X45297Y-86454D01*
X45241Y-86398D01*
X45297Y-86341D01*
X45297Y-86454D01*
X46084Y-85273D02*
X46197Y-85273D01*
X46309Y-85329D01*
X46366Y-85385D01*
X46422Y-85498D01*
X46478Y-85723D01*
X46478Y-86004D01*
X46422Y-86229D01*
X46366Y-86341D01*
X46309Y-86398D01*
X46197Y-86454D01*
X46084Y-86454D01*
X45972Y-86398D01*
X45916Y-86341D01*
X45859Y-86229D01*
X45803Y-86004D01*
X45803Y-85723D01*
X45859Y-85498D01*
X45916Y-85385D01*
X45972Y-85329D01*
X46084Y-85273D01*
X46872Y-85273D02*
X47603Y-85273D01*
X47209Y-85723D01*
X47378Y-85723D01*
X47491Y-85779D01*
X47547Y-85835D01*
X47603Y-85948D01*
X47603Y-86229D01*
X47547Y-86341D01*
X47491Y-86398D01*
X47378Y-86454D01*
X47041Y-86454D01*
X46928Y-86398D01*
X46872Y-86341D01*
X48672Y-85273D02*
X48109Y-85273D01*
X48053Y-85835D01*
X48109Y-85779D01*
X48222Y-85723D01*
X48503Y-85723D01*
X48615Y-85779D01*
X48672Y-85835D01*
X48728Y-85948D01*
X48728Y-86229D01*
X48672Y-86341D01*
X48615Y-86398D01*
X48503Y-86454D01*
X48222Y-86454D01*
X48109Y-86398D01*
X48053Y-86341D01*
X49178Y-85273D02*
X49178Y-85498D01*
X49628Y-85273D02*
X49628Y-85498D01*
X51371Y-86904D02*
X51315Y-86848D01*
X51203Y-86679D01*
X51146Y-86566D01*
X51090Y-86398D01*
X51034Y-86116D01*
X51034Y-85892D01*
X51090Y-85610D01*
X51146Y-85442D01*
X51203Y-85329D01*
X51315Y-85160D01*
X51371Y-85104D01*
X51765Y-85385D02*
X51821Y-85329D01*
X51934Y-85273D01*
X52215Y-85273D01*
X52327Y-85329D01*
X52384Y-85385D01*
X52440Y-85498D01*
X52440Y-85610D01*
X52384Y-85779D01*
X51709Y-86454D01*
X52440Y-86454D01*
X53846Y-86454D02*
X53846Y-85273D01*
X54352Y-86454D02*
X54352Y-85835D01*
X54296Y-85723D01*
X54183Y-85667D01*
X54015Y-85667D01*
X53902Y-85723D01*
X53846Y-85779D01*
X55083Y-86454D02*
X54971Y-86398D01*
X54915Y-86341D01*
X54858Y-86229D01*
X54858Y-85892D01*
X54915Y-85779D01*
X54971Y-85723D01*
X55083Y-85667D01*
X55252Y-85667D01*
X55365Y-85723D01*
X55421Y-85779D01*
X55477Y-85892D01*
X55477Y-86229D01*
X55421Y-86341D01*
X55365Y-86398D01*
X55252Y-86454D01*
X55083Y-86454D01*
X56152Y-86454D02*
X56039Y-86398D01*
X55983Y-86285D01*
X55983Y-85273D01*
X57052Y-86398D02*
X56939Y-86454D01*
X56714Y-86454D01*
X56602Y-86398D01*
X56546Y-86285D01*
X56546Y-85835D01*
X56602Y-85723D01*
X56714Y-85667D01*
X56939Y-85667D01*
X57052Y-85723D01*
X57108Y-85835D01*
X57108Y-85948D01*
X56546Y-86060D01*
X57558Y-86398D02*
X57670Y-86454D01*
X57895Y-86454D01*
X58008Y-86398D01*
X58064Y-86285D01*
X58064Y-86229D01*
X58008Y-86116D01*
X57895Y-86060D01*
X57727Y-86060D01*
X57614Y-86004D01*
X57558Y-85892D01*
X57558Y-85835D01*
X57614Y-85723D01*
X57727Y-85667D01*
X57895Y-85667D01*
X58008Y-85723D01*
X58458Y-86904D02*
X58514Y-86848D01*
X58627Y-86679D01*
X58683Y-86566D01*
X58739Y-86398D01*
X58795Y-86116D01*
X58795Y-85892D01*
X58739Y-85610D01*
X58683Y-85442D01*
X58627Y-85329D01*
X58514Y-85160D01*
X58458Y-85104D01*
G54D12*
X32783Y-87732D02*
X32980Y-87535D01*
X32783Y-87338D01*
X32586Y-87535D01*
X32783Y-87732D01*
G54D13*
X34667Y-88013D02*
X33992Y-88013D01*
X34330Y-88013D02*
X34330Y-86832D01*
X34217Y-87001D01*
X34105Y-87113D01*
X33992Y-87169D01*
X35173Y-87901D02*
X35230Y-87957D01*
X35173Y-88013D01*
X35117Y-87957D01*
X35173Y-87901D01*
X35173Y-88013D01*
X35961Y-86832D02*
X36073Y-86832D01*
X36186Y-86888D01*
X36242Y-86944D01*
X36298Y-87057D01*
X36354Y-87282D01*
X36354Y-87563D01*
X36298Y-87788D01*
X36242Y-87901D01*
X36186Y-87957D01*
X36073Y-88013D01*
X35961Y-88013D01*
X35848Y-87957D01*
X35792Y-87901D01*
X35736Y-87788D01*
X35679Y-87563D01*
X35679Y-87282D01*
X35736Y-87057D01*
X35792Y-86944D01*
X35848Y-86888D01*
X35961Y-86832D01*
X37086Y-86832D02*
X37198Y-86832D01*
X37311Y-86888D01*
X37367Y-86944D01*
X37423Y-87057D01*
X37479Y-87282D01*
X37479Y-87563D01*
X37423Y-87788D01*
X37367Y-87901D01*
X37311Y-87957D01*
X37198Y-88013D01*
X37086Y-88013D01*
X36973Y-87957D01*
X36917Y-87901D01*
X36861Y-87788D01*
X36804Y-87563D01*
X36804Y-87282D01*
X36861Y-87057D01*
X36917Y-86944D01*
X36973Y-86888D01*
X37086Y-86832D01*
X37985Y-88013D02*
X37985Y-87226D01*
X37985Y-87338D02*
X38042Y-87282D01*
X38154Y-87226D01*
X38323Y-87226D01*
X38435Y-87282D01*
X38492Y-87394D01*
X38492Y-88013D01*
X38492Y-87394D02*
X38548Y-87282D01*
X38660Y-87226D01*
X38829Y-87226D01*
X38942Y-87282D01*
X38998Y-87394D01*
X38998Y-88013D01*
X39560Y-88013D02*
X39560Y-87226D01*
X39560Y-87338D02*
X39616Y-87282D01*
X39729Y-87226D01*
X39898Y-87226D01*
X40010Y-87282D01*
X40066Y-87394D01*
X40066Y-88013D01*
X40066Y-87394D02*
X40123Y-87282D01*
X40235Y-87226D01*
X40404Y-87226D01*
X40516Y-87282D01*
X40573Y-87394D01*
X40573Y-88013D01*
X42879Y-86776D02*
X41866Y-88294D01*
X44397Y-86832D02*
X44510Y-86832D01*
X44622Y-86888D01*
X44678Y-86944D01*
X44735Y-87057D01*
X44791Y-87282D01*
X44791Y-87563D01*
X44735Y-87788D01*
X44678Y-87901D01*
X44622Y-87957D01*
X44510Y-88013D01*
X44397Y-88013D01*
X44285Y-87957D01*
X44228Y-87901D01*
X44172Y-87788D01*
X44116Y-87563D01*
X44116Y-87282D01*
X44172Y-87057D01*
X44228Y-86944D01*
X44285Y-86888D01*
X44397Y-86832D01*
X45297Y-87901D02*
X45353Y-87957D01*
X45297Y-88013D01*
X45241Y-87957D01*
X45297Y-87901D01*
X45297Y-88013D01*
X46084Y-86832D02*
X46197Y-86832D01*
X46309Y-86888D01*
X46366Y-86944D01*
X46422Y-87057D01*
X46478Y-87282D01*
X46478Y-87563D01*
X46422Y-87788D01*
X46366Y-87901D01*
X46309Y-87957D01*
X46197Y-88013D01*
X46084Y-88013D01*
X45972Y-87957D01*
X45916Y-87901D01*
X45859Y-87788D01*
X45803Y-87563D01*
X45803Y-87282D01*
X45859Y-87057D01*
X45916Y-86944D01*
X45972Y-86888D01*
X46084Y-86832D01*
X46872Y-86832D02*
X47603Y-86832D01*
X47209Y-87282D01*
X47378Y-87282D01*
X47491Y-87338D01*
X47547Y-87394D01*
X47603Y-87507D01*
X47603Y-87788D01*
X47547Y-87901D01*
X47491Y-87957D01*
X47378Y-88013D01*
X47041Y-88013D01*
X46928Y-87957D01*
X46872Y-87901D01*
X48165Y-88013D02*
X48390Y-88013D01*
X48503Y-87957D01*
X48559Y-87901D01*
X48672Y-87732D01*
X48728Y-87507D01*
X48728Y-87057D01*
X48672Y-86944D01*
X48615Y-86888D01*
X48503Y-86832D01*
X48278Y-86832D01*
X48165Y-86888D01*
X48109Y-86944D01*
X48053Y-87057D01*
X48053Y-87338D01*
X48109Y-87451D01*
X48165Y-87507D01*
X48278Y-87563D01*
X48503Y-87563D01*
X48615Y-87507D01*
X48672Y-87451D01*
X48728Y-87338D01*
X49178Y-86832D02*
X49178Y-87057D01*
X49628Y-86832D02*
X49628Y-87057D01*
X51371Y-88463D02*
X51315Y-88407D01*
X51203Y-88238D01*
X51146Y-88125D01*
X51090Y-87957D01*
X51034Y-87676D01*
X51034Y-87451D01*
X51090Y-87169D01*
X51146Y-87001D01*
X51203Y-86888D01*
X51315Y-86719D01*
X51371Y-86663D01*
X52440Y-88013D02*
X51765Y-88013D01*
X52102Y-88013D02*
X52102Y-86832D01*
X51990Y-87001D01*
X51877Y-87113D01*
X51765Y-87169D01*
X53790Y-87957D02*
X53902Y-88013D01*
X54127Y-88013D01*
X54240Y-87957D01*
X54296Y-87844D01*
X54296Y-87788D01*
X54240Y-87676D01*
X54127Y-87619D01*
X53958Y-87619D01*
X53846Y-87563D01*
X53790Y-87451D01*
X53790Y-87394D01*
X53846Y-87282D01*
X53958Y-87226D01*
X54127Y-87226D01*
X54240Y-87282D01*
X54971Y-88013D02*
X54858Y-87957D01*
X54802Y-87844D01*
X54802Y-86832D01*
X55589Y-88013D02*
X55477Y-87957D01*
X55421Y-87901D01*
X55365Y-87788D01*
X55365Y-87451D01*
X55421Y-87338D01*
X55477Y-87282D01*
X55589Y-87226D01*
X55758Y-87226D01*
X55871Y-87282D01*
X55927Y-87338D01*
X55983Y-87451D01*
X55983Y-87788D01*
X55927Y-87901D01*
X55871Y-87957D01*
X55758Y-88013D01*
X55589Y-88013D01*
X56321Y-87226D02*
X56771Y-87226D01*
X56489Y-86832D02*
X56489Y-87844D01*
X56546Y-87957D01*
X56658Y-88013D01*
X56771Y-88013D01*
X57052Y-88463D02*
X57108Y-88407D01*
X57221Y-88238D01*
X57277Y-88125D01*
X57333Y-87957D01*
X57389Y-87676D01*
X57389Y-87451D01*
X57333Y-87169D01*
X57277Y-87001D01*
X57221Y-86888D01*
X57108Y-86719D01*
X57052Y-86663D01*
X32586Y-88897D02*
X32980Y-89291D01*
X32980Y-88897D02*
X32586Y-89291D01*
G54D12*
X32980Y-89094D02*
G75*
G03X32980Y-89094I-197J0D01*
G74*
G01*
G54D13*
X34667Y-89572D02*
X33992Y-89572D01*
X34330Y-89572D02*
X34330Y-88391D01*
X34217Y-88560D01*
X34105Y-88672D01*
X33992Y-88728D01*
X35173Y-89460D02*
X35230Y-89516D01*
X35173Y-89572D01*
X35117Y-89516D01*
X35173Y-89460D01*
X35173Y-89572D01*
X35961Y-88391D02*
X36073Y-88391D01*
X36186Y-88447D01*
X36242Y-88503D01*
X36298Y-88616D01*
X36354Y-88841D01*
X36354Y-89122D01*
X36298Y-89347D01*
X36242Y-89460D01*
X36186Y-89516D01*
X36073Y-89572D01*
X35961Y-89572D01*
X35848Y-89516D01*
X35792Y-89460D01*
X35736Y-89347D01*
X35679Y-89122D01*
X35679Y-88841D01*
X35736Y-88616D01*
X35792Y-88503D01*
X35848Y-88447D01*
X35961Y-88391D01*
X37086Y-88391D02*
X37198Y-88391D01*
X37311Y-88447D01*
X37367Y-88503D01*
X37423Y-88616D01*
X37479Y-88841D01*
X37479Y-89122D01*
X37423Y-89347D01*
X37367Y-89460D01*
X37311Y-89516D01*
X37198Y-89572D01*
X37086Y-89572D01*
X36973Y-89516D01*
X36917Y-89460D01*
X36861Y-89347D01*
X36804Y-89122D01*
X36804Y-88841D01*
X36861Y-88616D01*
X36917Y-88503D01*
X36973Y-88447D01*
X37086Y-88391D01*
X37985Y-89572D02*
X37985Y-88785D01*
X37985Y-88897D02*
X38042Y-88841D01*
X38154Y-88785D01*
X38323Y-88785D01*
X38435Y-88841D01*
X38492Y-88953D01*
X38492Y-89572D01*
X38492Y-88953D02*
X38548Y-88841D01*
X38660Y-88785D01*
X38829Y-88785D01*
X38942Y-88841D01*
X38998Y-88953D01*
X38998Y-89572D01*
X39560Y-89572D02*
X39560Y-88785D01*
X39560Y-88897D02*
X39616Y-88841D01*
X39729Y-88785D01*
X39898Y-88785D01*
X40010Y-88841D01*
X40066Y-88953D01*
X40066Y-89572D01*
X40066Y-88953D02*
X40123Y-88841D01*
X40235Y-88785D01*
X40404Y-88785D01*
X40516Y-88841D01*
X40573Y-88953D01*
X40573Y-89572D01*
X42879Y-88335D02*
X41866Y-89853D01*
X44397Y-88391D02*
X44510Y-88391D01*
X44622Y-88447D01*
X44678Y-88503D01*
X44735Y-88616D01*
X44791Y-88841D01*
X44791Y-89122D01*
X44735Y-89347D01*
X44678Y-89460D01*
X44622Y-89516D01*
X44510Y-89572D01*
X44397Y-89572D01*
X44285Y-89516D01*
X44228Y-89460D01*
X44172Y-89347D01*
X44116Y-89122D01*
X44116Y-88841D01*
X44172Y-88616D01*
X44228Y-88503D01*
X44285Y-88447D01*
X44397Y-88391D01*
X45297Y-89460D02*
X45353Y-89516D01*
X45297Y-89572D01*
X45241Y-89516D01*
X45297Y-89460D01*
X45297Y-89572D01*
X46084Y-88391D02*
X46197Y-88391D01*
X46309Y-88447D01*
X46366Y-88503D01*
X46422Y-88616D01*
X46478Y-88841D01*
X46478Y-89122D01*
X46422Y-89347D01*
X46366Y-89460D01*
X46309Y-89516D01*
X46197Y-89572D01*
X46084Y-89572D01*
X45972Y-89516D01*
X45916Y-89460D01*
X45859Y-89347D01*
X45803Y-89122D01*
X45803Y-88841D01*
X45859Y-88616D01*
X45916Y-88503D01*
X45972Y-88447D01*
X46084Y-88391D01*
X46872Y-88391D02*
X47603Y-88391D01*
X47209Y-88841D01*
X47378Y-88841D01*
X47491Y-88897D01*
X47547Y-88953D01*
X47603Y-89066D01*
X47603Y-89347D01*
X47547Y-89460D01*
X47491Y-89516D01*
X47378Y-89572D01*
X47041Y-89572D01*
X46928Y-89516D01*
X46872Y-89460D01*
X48165Y-89572D02*
X48390Y-89572D01*
X48503Y-89516D01*
X48559Y-89460D01*
X48672Y-89291D01*
X48728Y-89066D01*
X48728Y-88616D01*
X48672Y-88503D01*
X48615Y-88447D01*
X48503Y-88391D01*
X48278Y-88391D01*
X48165Y-88447D01*
X48109Y-88503D01*
X48053Y-88616D01*
X48053Y-88897D01*
X48109Y-89010D01*
X48165Y-89066D01*
X48278Y-89122D01*
X48503Y-89122D01*
X48615Y-89066D01*
X48672Y-89010D01*
X48728Y-88897D01*
X49178Y-88391D02*
X49178Y-88616D01*
X49628Y-88391D02*
X49628Y-88616D01*
X51371Y-90022D02*
X51315Y-89966D01*
X51203Y-89797D01*
X51146Y-89685D01*
X51090Y-89516D01*
X51034Y-89235D01*
X51034Y-89010D01*
X51090Y-88728D01*
X51146Y-88560D01*
X51203Y-88447D01*
X51315Y-88278D01*
X51371Y-88222D01*
X52440Y-89572D02*
X51765Y-89572D01*
X52102Y-89572D02*
X52102Y-88391D01*
X51990Y-88560D01*
X51877Y-88672D01*
X51765Y-88728D01*
X53790Y-89516D02*
X53902Y-89572D01*
X54127Y-89572D01*
X54240Y-89516D01*
X54296Y-89403D01*
X54296Y-89347D01*
X54240Y-89235D01*
X54127Y-89178D01*
X53958Y-89178D01*
X53846Y-89122D01*
X53790Y-89010D01*
X53790Y-88953D01*
X53846Y-88841D01*
X53958Y-88785D01*
X54127Y-88785D01*
X54240Y-88841D01*
X54971Y-89572D02*
X54858Y-89516D01*
X54802Y-89403D01*
X54802Y-88391D01*
X55589Y-89572D02*
X55477Y-89516D01*
X55421Y-89460D01*
X55365Y-89347D01*
X55365Y-89010D01*
X55421Y-88897D01*
X55477Y-88841D01*
X55589Y-88785D01*
X55758Y-88785D01*
X55871Y-88841D01*
X55927Y-88897D01*
X55983Y-89010D01*
X55983Y-89347D01*
X55927Y-89460D01*
X55871Y-89516D01*
X55758Y-89572D01*
X55589Y-89572D01*
X56321Y-88785D02*
X56771Y-88785D01*
X56489Y-88391D02*
X56489Y-89403D01*
X56546Y-89516D01*
X56658Y-89572D01*
X56771Y-89572D01*
X57052Y-90022D02*
X57108Y-89966D01*
X57221Y-89797D01*
X57277Y-89685D01*
X57333Y-89516D01*
X57389Y-89235D01*
X57389Y-89010D01*
X57333Y-88728D01*
X57277Y-88560D01*
X57221Y-88447D01*
X57108Y-88278D01*
X57052Y-88222D01*
X32580Y-90453D02*
X32980Y-90853D01*
X32980Y-90453D02*
X32580Y-90853D01*
X32780Y-90453D02*
X32780Y-90853D01*
X32580Y-90653D02*
X32980Y-90653D01*
X34667Y-91131D02*
X33992Y-91131D01*
X34330Y-91131D02*
X34330Y-89950D01*
X34217Y-90119D01*
X34105Y-90231D01*
X33992Y-90287D01*
X35173Y-91019D02*
X35230Y-91075D01*
X35173Y-91131D01*
X35117Y-91075D01*
X35173Y-91019D01*
X35173Y-91131D01*
X35961Y-89950D02*
X36073Y-89950D01*
X36186Y-90006D01*
X36242Y-90062D01*
X36298Y-90175D01*
X36354Y-90400D01*
X36354Y-90681D01*
X36298Y-90906D01*
X36242Y-91019D01*
X36186Y-91075D01*
X36073Y-91131D01*
X35961Y-91131D01*
X35848Y-91075D01*
X35792Y-91019D01*
X35736Y-90906D01*
X35679Y-90681D01*
X35679Y-90400D01*
X35736Y-90175D01*
X35792Y-90062D01*
X35848Y-90006D01*
X35961Y-89950D01*
X36804Y-90062D02*
X36861Y-90006D01*
X36973Y-89950D01*
X37254Y-89950D01*
X37367Y-90006D01*
X37423Y-90062D01*
X37479Y-90175D01*
X37479Y-90287D01*
X37423Y-90456D01*
X36748Y-91131D01*
X37479Y-91131D01*
X37985Y-91131D02*
X37985Y-90344D01*
X37985Y-90456D02*
X38042Y-90400D01*
X38154Y-90344D01*
X38323Y-90344D01*
X38435Y-90400D01*
X38492Y-90512D01*
X38492Y-91131D01*
X38492Y-90512D02*
X38548Y-90400D01*
X38660Y-90344D01*
X38829Y-90344D01*
X38942Y-90400D01*
X38998Y-90512D01*
X38998Y-91131D01*
X39560Y-91131D02*
X39560Y-90344D01*
X39560Y-90456D02*
X39616Y-90400D01*
X39729Y-90344D01*
X39898Y-90344D01*
X40010Y-90400D01*
X40066Y-90512D01*
X40066Y-91131D01*
X40066Y-90512D02*
X40123Y-90400D01*
X40235Y-90344D01*
X40404Y-90344D01*
X40516Y-90400D01*
X40573Y-90512D01*
X40573Y-91131D01*
X42879Y-89894D02*
X41866Y-91412D01*
X44397Y-89950D02*
X44510Y-89950D01*
X44622Y-90006D01*
X44678Y-90062D01*
X44735Y-90175D01*
X44791Y-90400D01*
X44791Y-90681D01*
X44735Y-90906D01*
X44678Y-91019D01*
X44622Y-91075D01*
X44510Y-91131D01*
X44397Y-91131D01*
X44285Y-91075D01*
X44228Y-91019D01*
X44172Y-90906D01*
X44116Y-90681D01*
X44116Y-90400D01*
X44172Y-90175D01*
X44228Y-90062D01*
X44285Y-90006D01*
X44397Y-89950D01*
X45297Y-91019D02*
X45353Y-91075D01*
X45297Y-91131D01*
X45241Y-91075D01*
X45297Y-91019D01*
X45297Y-91131D01*
X46084Y-89950D02*
X46197Y-89950D01*
X46309Y-90006D01*
X46366Y-90062D01*
X46422Y-90175D01*
X46478Y-90400D01*
X46478Y-90681D01*
X46422Y-90906D01*
X46366Y-91019D01*
X46309Y-91075D01*
X46197Y-91131D01*
X46084Y-91131D01*
X45972Y-91075D01*
X45916Y-91019D01*
X45859Y-90906D01*
X45803Y-90681D01*
X45803Y-90400D01*
X45859Y-90175D01*
X45916Y-90062D01*
X45972Y-90006D01*
X46084Y-89950D01*
X47491Y-90344D02*
X47491Y-91131D01*
X47209Y-89894D02*
X46928Y-90737D01*
X47659Y-90737D01*
X48334Y-89950D02*
X48447Y-89950D01*
X48559Y-90006D01*
X48615Y-90062D01*
X48672Y-90175D01*
X48728Y-90400D01*
X48728Y-90681D01*
X48672Y-90906D01*
X48615Y-91019D01*
X48559Y-91075D01*
X48447Y-91131D01*
X48334Y-91131D01*
X48222Y-91075D01*
X48165Y-91019D01*
X48109Y-90906D01*
X48053Y-90681D01*
X48053Y-90400D01*
X48109Y-90175D01*
X48165Y-90062D01*
X48222Y-90006D01*
X48334Y-89950D01*
X49178Y-89950D02*
X49178Y-90175D01*
X49628Y-89950D02*
X49628Y-90175D01*
X51371Y-91581D02*
X51315Y-91525D01*
X51203Y-91356D01*
X51146Y-91244D01*
X51090Y-91075D01*
X51034Y-90794D01*
X51034Y-90569D01*
X51090Y-90287D01*
X51146Y-90119D01*
X51203Y-90006D01*
X51315Y-89838D01*
X51371Y-89781D01*
X52384Y-89950D02*
X51821Y-89950D01*
X51765Y-90512D01*
X51821Y-90456D01*
X51934Y-90400D01*
X52215Y-90400D01*
X52327Y-90456D01*
X52384Y-90512D01*
X52440Y-90625D01*
X52440Y-90906D01*
X52384Y-91019D01*
X52327Y-91075D01*
X52215Y-91131D01*
X51934Y-91131D01*
X51821Y-91075D01*
X51765Y-91019D01*
X53452Y-90344D02*
X53452Y-91131D01*
X53171Y-89894D02*
X52890Y-90737D01*
X53621Y-90737D01*
X54971Y-91131D02*
X54971Y-89950D01*
X55477Y-91131D02*
X55477Y-90512D01*
X55421Y-90400D01*
X55308Y-90344D01*
X55140Y-90344D01*
X55027Y-90400D01*
X54971Y-90456D01*
X56208Y-91131D02*
X56096Y-91075D01*
X56039Y-91019D01*
X55983Y-90906D01*
X55983Y-90569D01*
X56039Y-90456D01*
X56096Y-90400D01*
X56208Y-90344D01*
X56377Y-90344D01*
X56489Y-90400D01*
X56546Y-90456D01*
X56602Y-90569D01*
X56602Y-90906D01*
X56546Y-91019D01*
X56489Y-91075D01*
X56377Y-91131D01*
X56208Y-91131D01*
X57277Y-91131D02*
X57164Y-91075D01*
X57108Y-90962D01*
X57108Y-89950D01*
X58177Y-91075D02*
X58064Y-91131D01*
X57839Y-91131D01*
X57727Y-91075D01*
X57670Y-90962D01*
X57670Y-90512D01*
X57727Y-90400D01*
X57839Y-90344D01*
X58064Y-90344D01*
X58177Y-90400D01*
X58233Y-90512D01*
X58233Y-90625D01*
X57670Y-90737D01*
X58683Y-91075D02*
X58795Y-91131D01*
X59020Y-91131D01*
X59133Y-91075D01*
X59189Y-90962D01*
X59189Y-90906D01*
X59133Y-90794D01*
X59020Y-90737D01*
X58852Y-90737D01*
X58739Y-90681D01*
X58683Y-90569D01*
X58683Y-90512D01*
X58739Y-90400D01*
X58852Y-90344D01*
X59020Y-90344D01*
X59133Y-90400D01*
X59583Y-91581D02*
X59639Y-91525D01*
X59751Y-91356D01*
X59808Y-91244D01*
X59864Y-91075D01*
X59920Y-90794D01*
X59920Y-90569D01*
X59864Y-90287D01*
X59808Y-90119D01*
X59751Y-90006D01*
X59639Y-89838D01*
X59583Y-89781D01*
X32488Y-91966D02*
X32980Y-92458D01*
X32980Y-91966D02*
X32488Y-92458D01*
G54D12*
X32908Y-92386D02*
X32908Y-92038D01*
X32560Y-92038D01*
X32560Y-92386D01*
X32908Y-92386D01*
G54D13*
X34667Y-92690D02*
X33992Y-92690D01*
X34330Y-92690D02*
X34330Y-91509D01*
X34217Y-91678D01*
X34105Y-91790D01*
X33992Y-91847D01*
X35173Y-92578D02*
X35230Y-92634D01*
X35173Y-92690D01*
X35117Y-92634D01*
X35173Y-92578D01*
X35173Y-92690D01*
X35679Y-91622D02*
X35736Y-91565D01*
X35848Y-91509D01*
X36129Y-91509D01*
X36242Y-91565D01*
X36298Y-91622D01*
X36354Y-91734D01*
X36354Y-91847D01*
X36298Y-92015D01*
X35623Y-92690D01*
X36354Y-92690D01*
X37423Y-91509D02*
X36861Y-91509D01*
X36804Y-92071D01*
X36861Y-92015D01*
X36973Y-91959D01*
X37254Y-91959D01*
X37367Y-92015D01*
X37423Y-92071D01*
X37479Y-92184D01*
X37479Y-92465D01*
X37423Y-92578D01*
X37367Y-92634D01*
X37254Y-92690D01*
X36973Y-92690D01*
X36861Y-92634D01*
X36804Y-92578D01*
X37985Y-92690D02*
X37985Y-91903D01*
X37985Y-92015D02*
X38042Y-91959D01*
X38154Y-91903D01*
X38323Y-91903D01*
X38435Y-91959D01*
X38492Y-92071D01*
X38492Y-92690D01*
X38492Y-92071D02*
X38548Y-91959D01*
X38660Y-91903D01*
X38829Y-91903D01*
X38942Y-91959D01*
X38998Y-92071D01*
X38998Y-92690D01*
X39560Y-92690D02*
X39560Y-91903D01*
X39560Y-92015D02*
X39616Y-91959D01*
X39729Y-91903D01*
X39898Y-91903D01*
X40010Y-91959D01*
X40066Y-92071D01*
X40066Y-92690D01*
X40066Y-92071D02*
X40123Y-91959D01*
X40235Y-91903D01*
X40404Y-91903D01*
X40516Y-91959D01*
X40573Y-92071D01*
X40573Y-92690D01*
X42879Y-91453D02*
X41866Y-92971D01*
X44397Y-91509D02*
X44510Y-91509D01*
X44622Y-91565D01*
X44678Y-91622D01*
X44735Y-91734D01*
X44791Y-91959D01*
X44791Y-92240D01*
X44735Y-92465D01*
X44678Y-92578D01*
X44622Y-92634D01*
X44510Y-92690D01*
X44397Y-92690D01*
X44285Y-92634D01*
X44228Y-92578D01*
X44172Y-92465D01*
X44116Y-92240D01*
X44116Y-91959D01*
X44172Y-91734D01*
X44228Y-91622D01*
X44285Y-91565D01*
X44397Y-91509D01*
X45297Y-92578D02*
X45353Y-92634D01*
X45297Y-92690D01*
X45241Y-92634D01*
X45297Y-92578D01*
X45297Y-92690D01*
X46084Y-91509D02*
X46197Y-91509D01*
X46309Y-91565D01*
X46366Y-91622D01*
X46422Y-91734D01*
X46478Y-91959D01*
X46478Y-92240D01*
X46422Y-92465D01*
X46366Y-92578D01*
X46309Y-92634D01*
X46197Y-92690D01*
X46084Y-92690D01*
X45972Y-92634D01*
X45916Y-92578D01*
X45859Y-92465D01*
X45803Y-92240D01*
X45803Y-91959D01*
X45859Y-91734D01*
X45916Y-91622D01*
X45972Y-91565D01*
X46084Y-91509D01*
X47491Y-91903D02*
X47491Y-92690D01*
X47209Y-91453D02*
X46928Y-92296D01*
X47659Y-92296D01*
X48165Y-92690D02*
X48390Y-92690D01*
X48503Y-92634D01*
X48559Y-92578D01*
X48672Y-92409D01*
X48728Y-92184D01*
X48728Y-91734D01*
X48672Y-91622D01*
X48615Y-91565D01*
X48503Y-91509D01*
X48278Y-91509D01*
X48165Y-91565D01*
X48109Y-91622D01*
X48053Y-91734D01*
X48053Y-92015D01*
X48109Y-92128D01*
X48165Y-92184D01*
X48278Y-92240D01*
X48503Y-92240D01*
X48615Y-92184D01*
X48672Y-92128D01*
X48728Y-92015D01*
X49178Y-91509D02*
X49178Y-91734D01*
X49628Y-91509D02*
X49628Y-91734D01*
X51371Y-93140D02*
X51315Y-93084D01*
X51203Y-92915D01*
X51146Y-92803D01*
X51090Y-92634D01*
X51034Y-92353D01*
X51034Y-92128D01*
X51090Y-91847D01*
X51146Y-91678D01*
X51203Y-91565D01*
X51315Y-91397D01*
X51371Y-91340D01*
X51765Y-91622D02*
X51821Y-91565D01*
X51934Y-91509D01*
X52215Y-91509D01*
X52327Y-91565D01*
X52384Y-91622D01*
X52440Y-91734D01*
X52440Y-91847D01*
X52384Y-92015D01*
X51709Y-92690D01*
X52440Y-92690D01*
X53846Y-92690D02*
X53846Y-91509D01*
X54352Y-92690D02*
X54352Y-92071D01*
X54296Y-91959D01*
X54183Y-91903D01*
X54015Y-91903D01*
X53902Y-91959D01*
X53846Y-92015D01*
X55083Y-92690D02*
X54971Y-92634D01*
X54915Y-92578D01*
X54858Y-92465D01*
X54858Y-92128D01*
X54915Y-92015D01*
X54971Y-91959D01*
X55083Y-91903D01*
X55252Y-91903D01*
X55365Y-91959D01*
X55421Y-92015D01*
X55477Y-92128D01*
X55477Y-92465D01*
X55421Y-92578D01*
X55365Y-92634D01*
X55252Y-92690D01*
X55083Y-92690D01*
X56152Y-92690D02*
X56039Y-92634D01*
X55983Y-92521D01*
X55983Y-91509D01*
X57052Y-92634D02*
X56939Y-92690D01*
X56714Y-92690D01*
X56602Y-92634D01*
X56546Y-92521D01*
X56546Y-92071D01*
X56602Y-91959D01*
X56714Y-91903D01*
X56939Y-91903D01*
X57052Y-91959D01*
X57108Y-92071D01*
X57108Y-92184D01*
X56546Y-92296D01*
X57558Y-92634D02*
X57670Y-92690D01*
X57895Y-92690D01*
X58008Y-92634D01*
X58064Y-92521D01*
X58064Y-92465D01*
X58008Y-92353D01*
X57895Y-92296D01*
X57727Y-92296D01*
X57614Y-92240D01*
X57558Y-92128D01*
X57558Y-92071D01*
X57614Y-91959D01*
X57727Y-91903D01*
X57895Y-91903D01*
X58008Y-91959D01*
X58458Y-93140D02*
X58514Y-93084D01*
X58627Y-92915D01*
X58683Y-92803D01*
X58739Y-92634D01*
X58795Y-92353D01*
X58795Y-92128D01*
X58739Y-91847D01*
X58683Y-91678D01*
X58627Y-91565D01*
X58514Y-91397D01*
X58458Y-91340D01*
X32380Y-93471D02*
X32980Y-94071D01*
X32980Y-93471D02*
X32380Y-94071D01*
G54D12*
X32680Y-94071D02*
X32980Y-93771D01*
X32680Y-93471D01*
X32380Y-93771D01*
X32680Y-94071D01*
G54D13*
X34667Y-94249D02*
X33992Y-94249D01*
X34330Y-94249D02*
X34330Y-93068D01*
X34217Y-93237D01*
X34105Y-93349D01*
X33992Y-93406D01*
X35173Y-94137D02*
X35230Y-94193D01*
X35173Y-94249D01*
X35117Y-94193D01*
X35173Y-94137D01*
X35173Y-94249D01*
X36298Y-93068D02*
X35736Y-93068D01*
X35679Y-93631D01*
X35736Y-93574D01*
X35848Y-93518D01*
X36129Y-93518D01*
X36242Y-93574D01*
X36298Y-93631D01*
X36354Y-93743D01*
X36354Y-94024D01*
X36298Y-94137D01*
X36242Y-94193D01*
X36129Y-94249D01*
X35848Y-94249D01*
X35736Y-94193D01*
X35679Y-94137D01*
X36804Y-93181D02*
X36861Y-93124D01*
X36973Y-93068D01*
X37254Y-93068D01*
X37367Y-93124D01*
X37423Y-93181D01*
X37479Y-93293D01*
X37479Y-93406D01*
X37423Y-93574D01*
X36748Y-94249D01*
X37479Y-94249D01*
X37985Y-94249D02*
X37985Y-93462D01*
X37985Y-93574D02*
X38042Y-93518D01*
X38154Y-93462D01*
X38323Y-93462D01*
X38435Y-93518D01*
X38492Y-93631D01*
X38492Y-94249D01*
X38492Y-93631D02*
X38548Y-93518D01*
X38660Y-93462D01*
X38829Y-93462D01*
X38942Y-93518D01*
X38998Y-93631D01*
X38998Y-94249D01*
X39560Y-94249D02*
X39560Y-93462D01*
X39560Y-93574D02*
X39616Y-93518D01*
X39729Y-93462D01*
X39898Y-93462D01*
X40010Y-93518D01*
X40066Y-93631D01*
X40066Y-94249D01*
X40066Y-93631D02*
X40123Y-93518D01*
X40235Y-93462D01*
X40404Y-93462D01*
X40516Y-93518D01*
X40573Y-93631D01*
X40573Y-94249D01*
X42879Y-93012D02*
X41866Y-94530D01*
X44397Y-93068D02*
X44510Y-93068D01*
X44622Y-93124D01*
X44678Y-93181D01*
X44735Y-93293D01*
X44791Y-93518D01*
X44791Y-93799D01*
X44735Y-94024D01*
X44678Y-94137D01*
X44622Y-94193D01*
X44510Y-94249D01*
X44397Y-94249D01*
X44285Y-94193D01*
X44228Y-94137D01*
X44172Y-94024D01*
X44116Y-93799D01*
X44116Y-93518D01*
X44172Y-93293D01*
X44228Y-93181D01*
X44285Y-93124D01*
X44397Y-93068D01*
X45297Y-94137D02*
X45353Y-94193D01*
X45297Y-94249D01*
X45241Y-94193D01*
X45297Y-94137D01*
X45297Y-94249D01*
X46084Y-93068D02*
X46197Y-93068D01*
X46309Y-93124D01*
X46366Y-93181D01*
X46422Y-93293D01*
X46478Y-93518D01*
X46478Y-93799D01*
X46422Y-94024D01*
X46366Y-94137D01*
X46309Y-94193D01*
X46197Y-94249D01*
X46084Y-94249D01*
X45972Y-94193D01*
X45916Y-94137D01*
X45859Y-94024D01*
X45803Y-93799D01*
X45803Y-93518D01*
X45859Y-93293D01*
X45916Y-93181D01*
X45972Y-93124D01*
X46084Y-93068D01*
X47491Y-93068D02*
X47266Y-93068D01*
X47153Y-93124D01*
X47097Y-93181D01*
X46984Y-93349D01*
X46928Y-93574D01*
X46928Y-94024D01*
X46984Y-94137D01*
X47041Y-94193D01*
X47153Y-94249D01*
X47378Y-94249D01*
X47491Y-94193D01*
X47547Y-94137D01*
X47603Y-94024D01*
X47603Y-93743D01*
X47547Y-93631D01*
X47491Y-93574D01*
X47378Y-93518D01*
X47153Y-93518D01*
X47041Y-93574D01*
X46984Y-93631D01*
X46928Y-93743D01*
X48334Y-93068D02*
X48447Y-93068D01*
X48559Y-93124D01*
X48615Y-93181D01*
X48672Y-93293D01*
X48728Y-93518D01*
X48728Y-93799D01*
X48672Y-94024D01*
X48615Y-94137D01*
X48559Y-94193D01*
X48447Y-94249D01*
X48334Y-94249D01*
X48222Y-94193D01*
X48165Y-94137D01*
X48109Y-94024D01*
X48053Y-93799D01*
X48053Y-93518D01*
X48109Y-93293D01*
X48165Y-93181D01*
X48222Y-93124D01*
X48334Y-93068D01*
X49178Y-93068D02*
X49178Y-93293D01*
X49628Y-93068D02*
X49628Y-93293D01*
X51371Y-94699D02*
X51315Y-94643D01*
X51203Y-94474D01*
X51146Y-94362D01*
X51090Y-94193D01*
X51034Y-93912D01*
X51034Y-93687D01*
X51090Y-93406D01*
X51146Y-93237D01*
X51203Y-93124D01*
X51315Y-92956D01*
X51371Y-92899D01*
X52327Y-93462D02*
X52327Y-94249D01*
X52046Y-93012D02*
X51765Y-93856D01*
X52496Y-93856D01*
X53846Y-94249D02*
X53846Y-93068D01*
X54352Y-94249D02*
X54352Y-93631D01*
X54296Y-93518D01*
X54183Y-93462D01*
X54015Y-93462D01*
X53902Y-93518D01*
X53846Y-93574D01*
X55083Y-94249D02*
X54971Y-94193D01*
X54915Y-94137D01*
X54858Y-94024D01*
X54858Y-93687D01*
X54915Y-93574D01*
X54971Y-93518D01*
X55083Y-93462D01*
X55252Y-93462D01*
X55365Y-93518D01*
X55421Y-93574D01*
X55477Y-93687D01*
X55477Y-94024D01*
X55421Y-94137D01*
X55365Y-94193D01*
X55252Y-94249D01*
X55083Y-94249D01*
X56152Y-94249D02*
X56039Y-94193D01*
X55983Y-94080D01*
X55983Y-93068D01*
X57052Y-94193D02*
X56939Y-94249D01*
X56714Y-94249D01*
X56602Y-94193D01*
X56546Y-94080D01*
X56546Y-93631D01*
X56602Y-93518D01*
X56714Y-93462D01*
X56939Y-93462D01*
X57052Y-93518D01*
X57108Y-93631D01*
X57108Y-93743D01*
X56546Y-93856D01*
X57558Y-94193D02*
X57670Y-94249D01*
X57895Y-94249D01*
X58008Y-94193D01*
X58064Y-94080D01*
X58064Y-94024D01*
X58008Y-93912D01*
X57895Y-93856D01*
X57727Y-93856D01*
X57614Y-93799D01*
X57558Y-93687D01*
X57558Y-93631D01*
X57614Y-93518D01*
X57727Y-93462D01*
X57895Y-93462D01*
X58008Y-93518D01*
X58458Y-94699D02*
X58514Y-94643D01*
X58627Y-94474D01*
X58683Y-94362D01*
X58739Y-94193D01*
X58795Y-93912D01*
X58795Y-93687D01*
X58739Y-93406D01*
X58683Y-93237D01*
X58627Y-93124D01*
X58514Y-92956D01*
X58458Y-92899D01*
X32488Y-94838D02*
X32488Y-95822D01*
X31996Y-95330D02*
X32980Y-95330D01*
G54D12*
X32980Y-95330D02*
G75*
G03X32980Y-95330I-492J0D01*
G74*
G01*
G54D13*
X33992Y-94740D02*
X34048Y-94683D01*
X34161Y-94627D01*
X34442Y-94627D01*
X34555Y-94683D01*
X34611Y-94740D01*
X34667Y-94852D01*
X34667Y-94965D01*
X34611Y-95133D01*
X33936Y-95808D01*
X34667Y-95808D01*
X35173Y-95696D02*
X35230Y-95752D01*
X35173Y-95808D01*
X35117Y-95752D01*
X35173Y-95696D01*
X35173Y-95808D01*
X36298Y-94627D02*
X35736Y-94627D01*
X35679Y-95190D01*
X35736Y-95133D01*
X35848Y-95077D01*
X36129Y-95077D01*
X36242Y-95133D01*
X36298Y-95190D01*
X36354Y-95302D01*
X36354Y-95583D01*
X36298Y-95696D01*
X36242Y-95752D01*
X36129Y-95808D01*
X35848Y-95808D01*
X35736Y-95752D01*
X35679Y-95696D01*
X37086Y-94627D02*
X37198Y-94627D01*
X37311Y-94683D01*
X37367Y-94740D01*
X37423Y-94852D01*
X37479Y-95077D01*
X37479Y-95358D01*
X37423Y-95583D01*
X37367Y-95696D01*
X37311Y-95752D01*
X37198Y-95808D01*
X37086Y-95808D01*
X36973Y-95752D01*
X36917Y-95696D01*
X36861Y-95583D01*
X36804Y-95358D01*
X36804Y-95077D01*
X36861Y-94852D01*
X36917Y-94740D01*
X36973Y-94683D01*
X37086Y-94627D01*
X37985Y-95808D02*
X37985Y-95021D01*
X37985Y-95133D02*
X38042Y-95077D01*
X38154Y-95021D01*
X38323Y-95021D01*
X38435Y-95077D01*
X38492Y-95190D01*
X38492Y-95808D01*
X38492Y-95190D02*
X38548Y-95077D01*
X38660Y-95021D01*
X38829Y-95021D01*
X38942Y-95077D01*
X38998Y-95190D01*
X38998Y-95808D01*
X39560Y-95808D02*
X39560Y-95021D01*
X39560Y-95133D02*
X39616Y-95077D01*
X39729Y-95021D01*
X39898Y-95021D01*
X40010Y-95077D01*
X40066Y-95190D01*
X40066Y-95808D01*
X40066Y-95190D02*
X40123Y-95077D01*
X40235Y-95021D01*
X40404Y-95021D01*
X40516Y-95077D01*
X40573Y-95190D01*
X40573Y-95808D01*
X42879Y-94571D02*
X41866Y-96089D01*
X44397Y-94627D02*
X44510Y-94627D01*
X44622Y-94683D01*
X44678Y-94740D01*
X44735Y-94852D01*
X44791Y-95077D01*
X44791Y-95358D01*
X44735Y-95583D01*
X44678Y-95696D01*
X44622Y-95752D01*
X44510Y-95808D01*
X44397Y-95808D01*
X44285Y-95752D01*
X44228Y-95696D01*
X44172Y-95583D01*
X44116Y-95358D01*
X44116Y-95077D01*
X44172Y-94852D01*
X44228Y-94740D01*
X44285Y-94683D01*
X44397Y-94627D01*
X45297Y-95696D02*
X45353Y-95752D01*
X45297Y-95808D01*
X45241Y-95752D01*
X45297Y-95696D01*
X45297Y-95808D01*
X46084Y-94627D02*
X46197Y-94627D01*
X46309Y-94683D01*
X46366Y-94740D01*
X46422Y-94852D01*
X46478Y-95077D01*
X46478Y-95358D01*
X46422Y-95583D01*
X46366Y-95696D01*
X46309Y-95752D01*
X46197Y-95808D01*
X46084Y-95808D01*
X45972Y-95752D01*
X45916Y-95696D01*
X45859Y-95583D01*
X45803Y-95358D01*
X45803Y-95077D01*
X45859Y-94852D01*
X45916Y-94740D01*
X45972Y-94683D01*
X46084Y-94627D01*
X47041Y-95808D02*
X47266Y-95808D01*
X47378Y-95752D01*
X47434Y-95696D01*
X47547Y-95527D01*
X47603Y-95302D01*
X47603Y-94852D01*
X47547Y-94740D01*
X47491Y-94683D01*
X47378Y-94627D01*
X47153Y-94627D01*
X47041Y-94683D01*
X46984Y-94740D01*
X46928Y-94852D01*
X46928Y-95133D01*
X46984Y-95246D01*
X47041Y-95302D01*
X47153Y-95358D01*
X47378Y-95358D01*
X47491Y-95302D01*
X47547Y-95246D01*
X47603Y-95133D01*
X48278Y-95133D02*
X48165Y-95077D01*
X48109Y-95021D01*
X48053Y-94908D01*
X48053Y-94852D01*
X48109Y-94740D01*
X48165Y-94683D01*
X48278Y-94627D01*
X48503Y-94627D01*
X48615Y-94683D01*
X48672Y-94740D01*
X48728Y-94852D01*
X48728Y-94908D01*
X48672Y-95021D01*
X48615Y-95077D01*
X48503Y-95133D01*
X48278Y-95133D01*
X48165Y-95190D01*
X48109Y-95246D01*
X48053Y-95358D01*
X48053Y-95583D01*
X48109Y-95696D01*
X48165Y-95752D01*
X48278Y-95808D01*
X48503Y-95808D01*
X48615Y-95752D01*
X48672Y-95696D01*
X48728Y-95583D01*
X48728Y-95358D01*
X48672Y-95246D01*
X48615Y-95190D01*
X48503Y-95133D01*
X49178Y-94627D02*
X49178Y-94852D01*
X49628Y-94627D02*
X49628Y-94852D01*
X51371Y-96258D02*
X51315Y-96202D01*
X51203Y-96033D01*
X51146Y-95921D01*
X51090Y-95752D01*
X51034Y-95471D01*
X51034Y-95246D01*
X51090Y-94965D01*
X51146Y-94796D01*
X51203Y-94683D01*
X51315Y-94515D01*
X51371Y-94458D01*
X52327Y-95021D02*
X52327Y-95808D01*
X52046Y-94571D02*
X51765Y-95415D01*
X52496Y-95415D01*
X53846Y-95808D02*
X53846Y-94627D01*
X54352Y-95808D02*
X54352Y-95190D01*
X54296Y-95077D01*
X54183Y-95021D01*
X54015Y-95021D01*
X53902Y-95077D01*
X53846Y-95133D01*
X55083Y-95808D02*
X54971Y-95752D01*
X54915Y-95696D01*
X54858Y-95583D01*
X54858Y-95246D01*
X54915Y-95133D01*
X54971Y-95077D01*
X55083Y-95021D01*
X55252Y-95021D01*
X55365Y-95077D01*
X55421Y-95133D01*
X55477Y-95246D01*
X55477Y-95583D01*
X55421Y-95696D01*
X55365Y-95752D01*
X55252Y-95808D01*
X55083Y-95808D01*
X56152Y-95808D02*
X56039Y-95752D01*
X55983Y-95640D01*
X55983Y-94627D01*
X57052Y-95752D02*
X56939Y-95808D01*
X56714Y-95808D01*
X56602Y-95752D01*
X56546Y-95640D01*
X56546Y-95190D01*
X56602Y-95077D01*
X56714Y-95021D01*
X56939Y-95021D01*
X57052Y-95077D01*
X57108Y-95190D01*
X57108Y-95302D01*
X56546Y-95415D01*
X57558Y-95752D02*
X57670Y-95808D01*
X57895Y-95808D01*
X58008Y-95752D01*
X58064Y-95640D01*
X58064Y-95583D01*
X58008Y-95471D01*
X57895Y-95415D01*
X57727Y-95415D01*
X57614Y-95358D01*
X57558Y-95246D01*
X57558Y-95190D01*
X57614Y-95077D01*
X57727Y-95021D01*
X57895Y-95021D01*
X58008Y-95077D01*
X58458Y-96258D02*
X58514Y-96202D01*
X58627Y-96033D01*
X58683Y-95921D01*
X58739Y-95752D01*
X58795Y-95471D01*
X58795Y-95246D01*
X58739Y-94965D01*
X58683Y-94796D01*
X58627Y-94683D01*
X58514Y-94515D01*
X58458Y-94458D01*
M02*
