G04 (created by PCBNEW (2013-june-11)-stable) date Sat 16 Jun 2018 15:02:18 EDT*
%MOIN*%
G04 Gerber Fmt 3.4, Leading zero omitted, Abs format*
%FSLAX34Y34*%
G01*
G70*
G90*
G04 APERTURE LIST*
%ADD10C,0.005*%
%ADD11C,0.00393701*%
%ADD12C,0.00787402*%
%ADD13C,0.011811*%
G04 APERTURE END LIST*
G54D10*
G54D11*
X69000Y-77500D02*
X33000Y-77500D01*
X69000Y-45000D02*
X69000Y-77500D01*
X33000Y-45000D02*
X69000Y-45000D01*
X33000Y-77500D02*
X33000Y-45000D01*
G54D12*
X49316Y-50316D02*
X50183Y-51183D01*
X50183Y-50316D02*
X49316Y-51183D01*
X49316Y-65816D02*
X50183Y-66683D01*
X50183Y-65816D02*
X49316Y-66683D01*
X54816Y-50316D02*
X55683Y-51183D01*
X55683Y-50316D02*
X54816Y-51183D01*
X54816Y-65816D02*
X55683Y-66683D01*
X55683Y-65816D02*
X54816Y-66683D01*
G54D13*
X34048Y-79296D02*
X34048Y-78115D01*
X34330Y-78115D01*
X34498Y-78172D01*
X34611Y-78284D01*
X34667Y-78397D01*
X34723Y-78622D01*
X34723Y-78790D01*
X34667Y-79015D01*
X34611Y-79128D01*
X34498Y-79240D01*
X34330Y-79296D01*
X34048Y-79296D01*
X35230Y-79296D02*
X35230Y-78509D01*
X35230Y-78734D02*
X35286Y-78622D01*
X35342Y-78565D01*
X35455Y-78509D01*
X35567Y-78509D01*
X35961Y-79296D02*
X35961Y-78509D01*
X35961Y-78115D02*
X35904Y-78172D01*
X35961Y-78228D01*
X36017Y-78172D01*
X35961Y-78115D01*
X35961Y-78228D01*
X36692Y-79296D02*
X36579Y-79240D01*
X36523Y-79128D01*
X36523Y-78115D01*
X37311Y-79296D02*
X37198Y-79240D01*
X37142Y-79128D01*
X37142Y-78115D01*
X38660Y-79296D02*
X38660Y-78115D01*
X39054Y-78959D01*
X39448Y-78115D01*
X39448Y-79296D01*
X40516Y-79296D02*
X40516Y-78678D01*
X40460Y-78565D01*
X40348Y-78509D01*
X40123Y-78509D01*
X40010Y-78565D01*
X40516Y-79240D02*
X40404Y-79296D01*
X40123Y-79296D01*
X40010Y-79240D01*
X39954Y-79128D01*
X39954Y-79015D01*
X40010Y-78903D01*
X40123Y-78847D01*
X40404Y-78847D01*
X40516Y-78790D01*
X41079Y-78509D02*
X41079Y-79690D01*
X41079Y-78565D02*
X41191Y-78509D01*
X41416Y-78509D01*
X41529Y-78565D01*
X41585Y-78622D01*
X41641Y-78734D01*
X41641Y-79071D01*
X41585Y-79184D01*
X41529Y-79240D01*
X41416Y-79296D01*
X41191Y-79296D01*
X41079Y-79240D01*
X42147Y-79184D02*
X42204Y-79240D01*
X42147Y-79296D01*
X42091Y-79240D01*
X42147Y-79184D01*
X42147Y-79296D01*
X42147Y-78565D02*
X42204Y-78622D01*
X42147Y-78678D01*
X42091Y-78622D01*
X42147Y-78565D01*
X42147Y-78678D01*
X32114Y-80866D02*
X32980Y-81732D01*
X32980Y-80866D02*
X32114Y-81732D01*
X33992Y-80708D02*
X34048Y-80652D01*
X34161Y-80596D01*
X34442Y-80596D01*
X34555Y-80652D01*
X34611Y-80708D01*
X34667Y-80821D01*
X34667Y-80933D01*
X34611Y-81102D01*
X33936Y-81777D01*
X34667Y-81777D01*
X35173Y-81664D02*
X35230Y-81721D01*
X35173Y-81777D01*
X35117Y-81721D01*
X35173Y-81664D01*
X35173Y-81777D01*
X35679Y-80708D02*
X35736Y-80652D01*
X35848Y-80596D01*
X36129Y-80596D01*
X36242Y-80652D01*
X36298Y-80708D01*
X36354Y-80821D01*
X36354Y-80933D01*
X36298Y-81102D01*
X35623Y-81777D01*
X36354Y-81777D01*
X37086Y-80596D02*
X37198Y-80596D01*
X37311Y-80652D01*
X37367Y-80708D01*
X37423Y-80821D01*
X37479Y-81046D01*
X37479Y-81327D01*
X37423Y-81552D01*
X37367Y-81664D01*
X37311Y-81721D01*
X37198Y-81777D01*
X37086Y-81777D01*
X36973Y-81721D01*
X36917Y-81664D01*
X36861Y-81552D01*
X36804Y-81327D01*
X36804Y-81046D01*
X36861Y-80821D01*
X36917Y-80708D01*
X36973Y-80652D01*
X37086Y-80596D01*
X37985Y-81777D02*
X37985Y-80989D01*
X37985Y-81102D02*
X38042Y-81046D01*
X38154Y-80989D01*
X38323Y-80989D01*
X38435Y-81046D01*
X38492Y-81158D01*
X38492Y-81777D01*
X38492Y-81158D02*
X38548Y-81046D01*
X38660Y-80989D01*
X38829Y-80989D01*
X38942Y-81046D01*
X38998Y-81158D01*
X38998Y-81777D01*
X39560Y-81777D02*
X39560Y-80989D01*
X39560Y-81102D02*
X39616Y-81046D01*
X39729Y-80989D01*
X39898Y-80989D01*
X40010Y-81046D01*
X40066Y-81158D01*
X40066Y-81777D01*
X40066Y-81158D02*
X40123Y-81046D01*
X40235Y-80989D01*
X40404Y-80989D01*
X40516Y-81046D01*
X40573Y-81158D01*
X40573Y-81777D01*
X42879Y-80539D02*
X41866Y-82058D01*
X44397Y-80596D02*
X44510Y-80596D01*
X44622Y-80652D01*
X44678Y-80708D01*
X44735Y-80821D01*
X44791Y-81046D01*
X44791Y-81327D01*
X44735Y-81552D01*
X44678Y-81664D01*
X44622Y-81721D01*
X44510Y-81777D01*
X44397Y-81777D01*
X44285Y-81721D01*
X44228Y-81664D01*
X44172Y-81552D01*
X44116Y-81327D01*
X44116Y-81046D01*
X44172Y-80821D01*
X44228Y-80708D01*
X44285Y-80652D01*
X44397Y-80596D01*
X45297Y-81664D02*
X45353Y-81721D01*
X45297Y-81777D01*
X45241Y-81721D01*
X45297Y-81664D01*
X45297Y-81777D01*
X46084Y-80596D02*
X46197Y-80596D01*
X46309Y-80652D01*
X46366Y-80708D01*
X46422Y-80821D01*
X46478Y-81046D01*
X46478Y-81327D01*
X46422Y-81552D01*
X46366Y-81664D01*
X46309Y-81721D01*
X46197Y-81777D01*
X46084Y-81777D01*
X45972Y-81721D01*
X45916Y-81664D01*
X45859Y-81552D01*
X45803Y-81327D01*
X45803Y-81046D01*
X45859Y-80821D01*
X45916Y-80708D01*
X45972Y-80652D01*
X46084Y-80596D01*
X47153Y-81102D02*
X47041Y-81046D01*
X46984Y-80989D01*
X46928Y-80877D01*
X46928Y-80821D01*
X46984Y-80708D01*
X47041Y-80652D01*
X47153Y-80596D01*
X47378Y-80596D01*
X47491Y-80652D01*
X47547Y-80708D01*
X47603Y-80821D01*
X47603Y-80877D01*
X47547Y-80989D01*
X47491Y-81046D01*
X47378Y-81102D01*
X47153Y-81102D01*
X47041Y-81158D01*
X46984Y-81214D01*
X46928Y-81327D01*
X46928Y-81552D01*
X46984Y-81664D01*
X47041Y-81721D01*
X47153Y-81777D01*
X47378Y-81777D01*
X47491Y-81721D01*
X47547Y-81664D01*
X47603Y-81552D01*
X47603Y-81327D01*
X47547Y-81214D01*
X47491Y-81158D01*
X47378Y-81102D01*
X47997Y-80596D02*
X48784Y-80596D01*
X48278Y-81777D01*
X49178Y-80596D02*
X49178Y-80821D01*
X49628Y-80596D02*
X49628Y-80821D01*
X51371Y-82227D02*
X51315Y-82170D01*
X51203Y-82002D01*
X51146Y-81889D01*
X51090Y-81721D01*
X51034Y-81439D01*
X51034Y-81214D01*
X51090Y-80933D01*
X51146Y-80764D01*
X51203Y-80652D01*
X51315Y-80483D01*
X51371Y-80427D01*
X52327Y-80989D02*
X52327Y-81777D01*
X52046Y-80539D02*
X51765Y-81383D01*
X52496Y-81383D01*
X53846Y-81777D02*
X53846Y-80596D01*
X54352Y-81777D02*
X54352Y-81158D01*
X54296Y-81046D01*
X54183Y-80989D01*
X54015Y-80989D01*
X53902Y-81046D01*
X53846Y-81102D01*
X55083Y-81777D02*
X54971Y-81721D01*
X54915Y-81664D01*
X54858Y-81552D01*
X54858Y-81214D01*
X54915Y-81102D01*
X54971Y-81046D01*
X55083Y-80989D01*
X55252Y-80989D01*
X55365Y-81046D01*
X55421Y-81102D01*
X55477Y-81214D01*
X55477Y-81552D01*
X55421Y-81664D01*
X55365Y-81721D01*
X55252Y-81777D01*
X55083Y-81777D01*
X56152Y-81777D02*
X56039Y-81721D01*
X55983Y-81608D01*
X55983Y-80596D01*
X57052Y-81721D02*
X56939Y-81777D01*
X56714Y-81777D01*
X56602Y-81721D01*
X56546Y-81608D01*
X56546Y-81158D01*
X56602Y-81046D01*
X56714Y-80989D01*
X56939Y-80989D01*
X57052Y-81046D01*
X57108Y-81158D01*
X57108Y-81271D01*
X56546Y-81383D01*
X57558Y-81721D02*
X57670Y-81777D01*
X57895Y-81777D01*
X58008Y-81721D01*
X58064Y-81608D01*
X58064Y-81552D01*
X58008Y-81439D01*
X57895Y-81383D01*
X57727Y-81383D01*
X57614Y-81327D01*
X57558Y-81214D01*
X57558Y-81158D01*
X57614Y-81046D01*
X57727Y-80989D01*
X57895Y-80989D01*
X58008Y-81046D01*
X58458Y-82227D02*
X58514Y-82170D01*
X58627Y-82002D01*
X58683Y-81889D01*
X58739Y-81721D01*
X58795Y-81439D01*
X58795Y-81214D01*
X58739Y-80933D01*
X58683Y-80764D01*
X58627Y-80652D01*
X58514Y-80483D01*
X58458Y-80427D01*
M02*
