G04 (created by PCBNEW (2013-june-11)-stable) date Thu 26 Jul 2018 16:45:46 EDT*
%MOIN*%
G04 Gerber Fmt 3.4, Leading zero omitted, Abs format*
%FSLAX34Y34*%
G01*
G70*
G90*
G04 APERTURE LIST*
%ADD10C,0.00590551*%
%ADD11C,0.011811*%
%ADD12C,0.015*%
G04 APERTURE END LIST*
G54D10*
G54D11*
X70929Y-63724D02*
X70929Y-63330D01*
X71520Y-63584D01*
X70929Y-62852D02*
X70929Y-62965D01*
X70958Y-63021D01*
X70986Y-63049D01*
X71070Y-63106D01*
X71183Y-63134D01*
X71408Y-63134D01*
X71464Y-63106D01*
X71492Y-63077D01*
X71520Y-63021D01*
X71520Y-62909D01*
X71492Y-62852D01*
X71464Y-62824D01*
X71408Y-62796D01*
X71267Y-62796D01*
X71211Y-62824D01*
X71183Y-62852D01*
X71154Y-62909D01*
X71154Y-63021D01*
X71183Y-63077D01*
X71211Y-63106D01*
X71267Y-63134D01*
X71464Y-62543D02*
X71492Y-62515D01*
X71520Y-62543D01*
X71492Y-62571D01*
X71464Y-62543D01*
X71520Y-62543D01*
X70986Y-62290D02*
X70958Y-62262D01*
X70929Y-62206D01*
X70929Y-62065D01*
X70958Y-62009D01*
X70986Y-61981D01*
X71042Y-61953D01*
X71098Y-61953D01*
X71183Y-61981D01*
X71520Y-62318D01*
X71520Y-61953D01*
X70929Y-61587D02*
X70929Y-61531D01*
X70958Y-61474D01*
X70986Y-61446D01*
X71042Y-61418D01*
X71154Y-61390D01*
X71295Y-61390D01*
X71408Y-61418D01*
X71464Y-61446D01*
X71492Y-61474D01*
X71520Y-61531D01*
X71520Y-61587D01*
X71492Y-61643D01*
X71464Y-61671D01*
X71408Y-61699D01*
X71295Y-61728D01*
X71154Y-61728D01*
X71042Y-61699D01*
X70986Y-61671D01*
X70958Y-61643D01*
X70929Y-61587D01*
X70929Y-61025D02*
X70929Y-60968D01*
X70958Y-60912D01*
X70986Y-60884D01*
X71042Y-60856D01*
X71154Y-60828D01*
X71295Y-60828D01*
X71408Y-60856D01*
X71464Y-60884D01*
X71492Y-60912D01*
X71520Y-60968D01*
X71520Y-61025D01*
X71492Y-61081D01*
X71464Y-61109D01*
X71408Y-61137D01*
X71295Y-61165D01*
X71154Y-61165D01*
X71042Y-61137D01*
X70986Y-61109D01*
X70958Y-61081D01*
X70929Y-61025D01*
X71520Y-60125D02*
X71126Y-60125D01*
X71183Y-60125D02*
X71154Y-60097D01*
X71126Y-60040D01*
X71126Y-59956D01*
X71154Y-59900D01*
X71211Y-59872D01*
X71520Y-59872D01*
X71211Y-59872D02*
X71154Y-59843D01*
X71126Y-59787D01*
X71126Y-59703D01*
X71154Y-59647D01*
X71211Y-59618D01*
X71520Y-59618D01*
X71520Y-59337D02*
X71126Y-59337D01*
X71183Y-59337D02*
X71154Y-59309D01*
X71126Y-59253D01*
X71126Y-59169D01*
X71154Y-59112D01*
X71211Y-59084D01*
X71520Y-59084D01*
X71211Y-59084D02*
X71154Y-59056D01*
X71126Y-59000D01*
X71126Y-58915D01*
X71154Y-58859D01*
X71211Y-58831D01*
X71520Y-58831D01*
X70750Y-76250D02*
X70750Y-46250D01*
X67750Y-76250D02*
X71812Y-76250D01*
X67750Y-46250D02*
X71812Y-46250D01*
X70750Y-46250D02*
X70980Y-46693D01*
X70750Y-46250D02*
X70519Y-46693D01*
X70750Y-76250D02*
X70980Y-75806D01*
X70750Y-76250D02*
X70519Y-75806D01*
X48665Y-79433D02*
X48609Y-79404D01*
X48581Y-79376D01*
X48553Y-79320D01*
X48553Y-79292D01*
X48581Y-79236D01*
X48609Y-79208D01*
X48665Y-79179D01*
X48778Y-79179D01*
X48834Y-79208D01*
X48862Y-79236D01*
X48890Y-79292D01*
X48890Y-79320D01*
X48862Y-79376D01*
X48834Y-79404D01*
X48778Y-79433D01*
X48665Y-79433D01*
X48609Y-79461D01*
X48581Y-79489D01*
X48553Y-79545D01*
X48553Y-79658D01*
X48581Y-79714D01*
X48609Y-79742D01*
X48665Y-79770D01*
X48778Y-79770D01*
X48834Y-79742D01*
X48862Y-79714D01*
X48890Y-79658D01*
X48890Y-79545D01*
X48862Y-79489D01*
X48834Y-79461D01*
X48778Y-79433D01*
X49425Y-79179D02*
X49143Y-79179D01*
X49115Y-79461D01*
X49143Y-79433D01*
X49200Y-79404D01*
X49340Y-79404D01*
X49397Y-79433D01*
X49425Y-79461D01*
X49453Y-79517D01*
X49453Y-79658D01*
X49425Y-79714D01*
X49397Y-79742D01*
X49340Y-79770D01*
X49200Y-79770D01*
X49143Y-79742D01*
X49115Y-79714D01*
X49706Y-79714D02*
X49734Y-79742D01*
X49706Y-79770D01*
X49678Y-79742D01*
X49706Y-79714D01*
X49706Y-79770D01*
X50100Y-79179D02*
X50156Y-79179D01*
X50212Y-79208D01*
X50240Y-79236D01*
X50268Y-79292D01*
X50296Y-79404D01*
X50296Y-79545D01*
X50268Y-79658D01*
X50240Y-79714D01*
X50212Y-79742D01*
X50156Y-79770D01*
X50100Y-79770D01*
X50043Y-79742D01*
X50015Y-79714D01*
X49987Y-79658D01*
X49959Y-79545D01*
X49959Y-79404D01*
X49987Y-79292D01*
X50015Y-79236D01*
X50043Y-79208D01*
X50100Y-79179D01*
X50578Y-79770D02*
X50690Y-79770D01*
X50746Y-79742D01*
X50775Y-79714D01*
X50831Y-79629D01*
X50859Y-79517D01*
X50859Y-79292D01*
X50831Y-79236D01*
X50803Y-79208D01*
X50746Y-79179D01*
X50634Y-79179D01*
X50578Y-79208D01*
X50550Y-79236D01*
X50521Y-79292D01*
X50521Y-79433D01*
X50550Y-79489D01*
X50578Y-79517D01*
X50634Y-79545D01*
X50746Y-79545D01*
X50803Y-79517D01*
X50831Y-79489D01*
X50859Y-79433D01*
X51224Y-79179D02*
X51281Y-79179D01*
X51337Y-79208D01*
X51365Y-79236D01*
X51393Y-79292D01*
X51421Y-79404D01*
X51421Y-79545D01*
X51393Y-79658D01*
X51365Y-79714D01*
X51337Y-79742D01*
X51281Y-79770D01*
X51224Y-79770D01*
X51168Y-79742D01*
X51140Y-79714D01*
X51112Y-79658D01*
X51084Y-79545D01*
X51084Y-79404D01*
X51112Y-79292D01*
X51140Y-79236D01*
X51168Y-79208D01*
X51224Y-79179D01*
X52124Y-79770D02*
X52124Y-79376D01*
X52124Y-79433D02*
X52152Y-79404D01*
X52209Y-79376D01*
X52293Y-79376D01*
X52349Y-79404D01*
X52377Y-79461D01*
X52377Y-79770D01*
X52377Y-79461D02*
X52406Y-79404D01*
X52462Y-79376D01*
X52546Y-79376D01*
X52602Y-79404D01*
X52631Y-79461D01*
X52631Y-79770D01*
X52912Y-79770D02*
X52912Y-79376D01*
X52912Y-79433D02*
X52940Y-79404D01*
X52996Y-79376D01*
X53080Y-79376D01*
X53137Y-79404D01*
X53165Y-79461D01*
X53165Y-79770D01*
X53165Y-79461D02*
X53193Y-79404D01*
X53249Y-79376D01*
X53334Y-79376D01*
X53390Y-79404D01*
X53418Y-79461D01*
X53418Y-79770D01*
X34250Y-78999D02*
X67750Y-78999D01*
X34250Y-76250D02*
X34250Y-80062D01*
X67750Y-76250D02*
X67750Y-80062D01*
X67750Y-78999D02*
X67306Y-79230D01*
X67750Y-78999D02*
X67306Y-78769D01*
X34250Y-78999D02*
X34693Y-79230D01*
X34250Y-78999D02*
X34693Y-78769D01*
X74683Y-63584D02*
X74654Y-63640D01*
X74626Y-63668D01*
X74570Y-63696D01*
X74542Y-63696D01*
X74486Y-63668D01*
X74458Y-63640D01*
X74429Y-63584D01*
X74429Y-63471D01*
X74458Y-63415D01*
X74486Y-63387D01*
X74542Y-63359D01*
X74570Y-63359D01*
X74626Y-63387D01*
X74654Y-63415D01*
X74683Y-63471D01*
X74683Y-63584D01*
X74711Y-63640D01*
X74739Y-63668D01*
X74795Y-63696D01*
X74908Y-63696D01*
X74964Y-63668D01*
X74992Y-63640D01*
X75020Y-63584D01*
X75020Y-63471D01*
X74992Y-63415D01*
X74964Y-63387D01*
X74908Y-63359D01*
X74795Y-63359D01*
X74739Y-63387D01*
X74711Y-63415D01*
X74683Y-63471D01*
X74486Y-63134D02*
X74458Y-63106D01*
X74429Y-63049D01*
X74429Y-62909D01*
X74458Y-62852D01*
X74486Y-62824D01*
X74542Y-62796D01*
X74598Y-62796D01*
X74683Y-62824D01*
X75020Y-63162D01*
X75020Y-62796D01*
X74964Y-62543D02*
X74992Y-62515D01*
X75020Y-62543D01*
X74992Y-62571D01*
X74964Y-62543D01*
X75020Y-62543D01*
X74429Y-61981D02*
X74429Y-62262D01*
X74711Y-62290D01*
X74683Y-62262D01*
X74654Y-62206D01*
X74654Y-62065D01*
X74683Y-62009D01*
X74711Y-61981D01*
X74767Y-61953D01*
X74908Y-61953D01*
X74964Y-61981D01*
X74992Y-62009D01*
X75020Y-62065D01*
X75020Y-62206D01*
X74992Y-62262D01*
X74964Y-62290D01*
X74429Y-61418D02*
X74429Y-61699D01*
X74711Y-61728D01*
X74683Y-61699D01*
X74654Y-61643D01*
X74654Y-61503D01*
X74683Y-61446D01*
X74711Y-61418D01*
X74767Y-61390D01*
X74908Y-61390D01*
X74964Y-61418D01*
X74992Y-61446D01*
X75020Y-61503D01*
X75020Y-61643D01*
X74992Y-61699D01*
X74964Y-61728D01*
X74429Y-61025D02*
X74429Y-60968D01*
X74458Y-60912D01*
X74486Y-60884D01*
X74542Y-60856D01*
X74654Y-60828D01*
X74795Y-60828D01*
X74908Y-60856D01*
X74964Y-60884D01*
X74992Y-60912D01*
X75020Y-60968D01*
X75020Y-61025D01*
X74992Y-61081D01*
X74964Y-61109D01*
X74908Y-61137D01*
X74795Y-61165D01*
X74654Y-61165D01*
X74542Y-61137D01*
X74486Y-61109D01*
X74458Y-61081D01*
X74429Y-61025D01*
X75020Y-60125D02*
X74626Y-60125D01*
X74683Y-60125D02*
X74654Y-60097D01*
X74626Y-60040D01*
X74626Y-59956D01*
X74654Y-59900D01*
X74711Y-59872D01*
X75020Y-59872D01*
X74711Y-59872D02*
X74654Y-59843D01*
X74626Y-59787D01*
X74626Y-59703D01*
X74654Y-59647D01*
X74711Y-59618D01*
X75020Y-59618D01*
X75020Y-59337D02*
X74626Y-59337D01*
X74683Y-59337D02*
X74654Y-59309D01*
X74626Y-59253D01*
X74626Y-59169D01*
X74654Y-59112D01*
X74711Y-59084D01*
X75020Y-59084D01*
X74711Y-59084D02*
X74654Y-59056D01*
X74626Y-59000D01*
X74626Y-58915D01*
X74654Y-58859D01*
X74711Y-58831D01*
X75020Y-58831D01*
X74250Y-77500D02*
X74250Y-45000D01*
X69000Y-77500D02*
X75312Y-77500D01*
X69000Y-45000D02*
X75312Y-45000D01*
X74250Y-45000D02*
X74480Y-45443D01*
X74250Y-45000D02*
X74019Y-45443D01*
X74250Y-77500D02*
X74480Y-77056D01*
X74250Y-77500D02*
X74019Y-77056D01*
X48609Y-82020D02*
X48722Y-82020D01*
X48778Y-81992D01*
X48806Y-81964D01*
X48862Y-81879D01*
X48890Y-81767D01*
X48890Y-81542D01*
X48862Y-81486D01*
X48834Y-81458D01*
X48778Y-81429D01*
X48665Y-81429D01*
X48609Y-81458D01*
X48581Y-81486D01*
X48553Y-81542D01*
X48553Y-81683D01*
X48581Y-81739D01*
X48609Y-81767D01*
X48665Y-81795D01*
X48778Y-81795D01*
X48834Y-81767D01*
X48862Y-81739D01*
X48890Y-81683D01*
X49453Y-82020D02*
X49115Y-82020D01*
X49284Y-82020D02*
X49284Y-81429D01*
X49228Y-81514D01*
X49172Y-81570D01*
X49115Y-81598D01*
X49706Y-81964D02*
X49734Y-81992D01*
X49706Y-82020D01*
X49678Y-81992D01*
X49706Y-81964D01*
X49706Y-82020D01*
X50240Y-81626D02*
X50240Y-82020D01*
X50100Y-81401D02*
X49959Y-81823D01*
X50325Y-81823D01*
X50803Y-81626D02*
X50803Y-82020D01*
X50662Y-81401D02*
X50521Y-81823D01*
X50887Y-81823D01*
X51224Y-81429D02*
X51281Y-81429D01*
X51337Y-81458D01*
X51365Y-81486D01*
X51393Y-81542D01*
X51421Y-81654D01*
X51421Y-81795D01*
X51393Y-81908D01*
X51365Y-81964D01*
X51337Y-81992D01*
X51281Y-82020D01*
X51224Y-82020D01*
X51168Y-81992D01*
X51140Y-81964D01*
X51112Y-81908D01*
X51084Y-81795D01*
X51084Y-81654D01*
X51112Y-81542D01*
X51140Y-81486D01*
X51168Y-81458D01*
X51224Y-81429D01*
X52124Y-82020D02*
X52124Y-81626D01*
X52124Y-81683D02*
X52152Y-81654D01*
X52209Y-81626D01*
X52293Y-81626D01*
X52349Y-81654D01*
X52377Y-81711D01*
X52377Y-82020D01*
X52377Y-81711D02*
X52406Y-81654D01*
X52462Y-81626D01*
X52546Y-81626D01*
X52602Y-81654D01*
X52631Y-81711D01*
X52631Y-82020D01*
X52912Y-82020D02*
X52912Y-81626D01*
X52912Y-81683D02*
X52940Y-81654D01*
X52996Y-81626D01*
X53080Y-81626D01*
X53137Y-81654D01*
X53165Y-81711D01*
X53165Y-82020D01*
X53165Y-81711D02*
X53193Y-81654D01*
X53249Y-81626D01*
X53334Y-81626D01*
X53390Y-81654D01*
X53418Y-81711D01*
X53418Y-82020D01*
X33000Y-81249D02*
X69000Y-81249D01*
X33000Y-77500D02*
X33000Y-82312D01*
X69000Y-77500D02*
X69000Y-82312D01*
X69000Y-81249D02*
X68556Y-81480D01*
X69000Y-81249D02*
X68556Y-81019D01*
X33000Y-81249D02*
X33443Y-81480D01*
X33000Y-81249D02*
X33443Y-81019D01*
G54D12*
X35234Y-46250D02*
G75*
G03X35234Y-46250I-984J0D01*
G74*
G01*
X68734Y-46250D02*
G75*
G03X68734Y-46250I-984J0D01*
G74*
G01*
X68734Y-76250D02*
G75*
G03X68734Y-76250I-984J0D01*
G74*
G01*
X35234Y-76250D02*
G75*
G03X35234Y-76250I-984J0D01*
G74*
G01*
M02*
