M48
;DRILL file {Pcbnew (2013-june-11)-stable} date Tue 31 Jul 2018 13:16:23 EDT
;FORMAT={-:-/ absolute / metric / decimal}
FMAT,2
METRIC,TZ
T1C0.400
T2C0.813
T3C1.016
T4C1.250
T5C1.524
T6C3.048
%
G90
G05
M71
T1
X112.395Y-78.74
X112.395Y-117.475
X127.635Y-104.648
X128.27Y-83.185
X128.27Y-92.71
X130.81Y-83.82
X135.89Y-98.933
X137.16Y-102.87
X138.811Y-95.377
X144.78Y-88.9
X144.78Y-104.775
X146.05Y-102.87
X152.4Y-86.36
X152.654Y-105.41
X154.051Y-90.043
X154.051Y-104.14
X154.178Y-87.503
X154.305Y-83.058
X156.21Y-116.84
X156.337Y-97.79
X161.163Y-121.412
X165.1Y-97.917
X170.18Y-120.65
T2
X118.11Y-100.33
X118.11Y-102.87
X118.11Y-106.68
X118.11Y-109.22
X119.38Y-91.44
X119.38Y-93.98
X123.19Y-85.09
X123.19Y-87.63
X123.19Y-91.44
X123.19Y-93.98
X123.19Y-97.79
X123.19Y-100.33
X125.73Y-85.09
X125.73Y-87.63
X125.73Y-90.17
X125.73Y-92.71
X125.73Y-95.25
X125.73Y-97.79
X125.73Y-100.33
X125.73Y-102.87
X128.27Y-80.01
X128.27Y-111.76
X128.27Y-119.38
X130.81Y-80.01
X130.81Y-111.76
X130.81Y-119.38
X130.81Y-123.19
X133.35Y-85.09
X133.35Y-87.63
X133.35Y-90.17
X133.35Y-92.71
X133.35Y-95.25
X133.35Y-97.79
X133.35Y-100.33
X133.35Y-102.87
X133.35Y-111.76
X133.35Y-119.38
X133.35Y-123.19
X135.89Y-111.76
X135.89Y-119.38
X137.16Y-91.44
X137.16Y-93.98
X140.97Y-85.09
X140.97Y-87.63
X140.97Y-91.44
X140.97Y-93.98
X140.97Y-97.79
X140.97Y-100.33
X143.51Y-85.09
X143.51Y-87.63
X143.51Y-90.17
X143.51Y-92.71
X143.51Y-95.25
X143.51Y-97.79
X143.51Y-100.33
X143.51Y-102.87
X144.78Y-107.95
X146.05Y-80.01
X147.32Y-107.95
X148.59Y-80.01
X149.86Y-107.95
X149.86Y-110.49
X149.86Y-113.03
X149.86Y-115.57
X151.13Y-85.09
X151.13Y-87.63
X151.13Y-90.17
X151.13Y-92.71
X151.13Y-95.25
X151.13Y-97.79
X151.13Y-100.33
X151.13Y-102.87
X157.48Y-102.87
X157.48Y-105.41
X157.48Y-107.95
X157.48Y-110.49
X157.48Y-113.03
X157.48Y-115.57
T3
X114.3Y-101.6
X114.3Y-104.14
X114.3Y-106.68
X114.3Y-109.22
X114.3Y-111.76
X129.794Y-75.565
X132.334Y-75.565
X134.874Y-75.565
X137.414Y-75.565
X138.938Y-123.825
X139.7Y-118.11
X139.954Y-75.565
X141.478Y-123.825
X142.24Y-118.11
X142.494Y-75.565
X144.018Y-123.825
X144.78Y-118.11
X145.034Y-75.565
X146.558Y-123.825
X147.32Y-118.11
X147.574Y-75.565
X149.098Y-123.825
X150.114Y-75.565
X151.638Y-123.825
X152.654Y-75.565
X154.178Y-123.825
X156.21Y-83.82
X156.21Y-86.36
X156.21Y-88.9
X156.21Y-91.44
X156.718Y-75.565
X156.718Y-123.825
X159.258Y-75.565
X161.29Y-83.82
X161.29Y-86.36
X161.29Y-88.9
X161.29Y-91.44
X161.798Y-75.565
X161.798Y-123.825
X164.338Y-75.565
X164.338Y-123.825
X166.37Y-83.82
X166.37Y-86.36
X166.37Y-88.9
X166.37Y-91.44
X166.878Y-75.565
X166.878Y-123.825
X169.418Y-75.565
X169.418Y-123.825
X171.958Y-75.565
X171.958Y-123.825
X174.498Y-75.565
X174.498Y-123.825
T4
X173.99Y-105.41
X173.99Y-110.49
T5
X163.83Y-100.3
X163.83Y-105.4
X163.83Y-110.5
X163.83Y-115.6
T6
X124.968Y-123.825
X126.238Y-75.565
X177.038Y-90.805
X177.038Y-118.745
T0
M30
