<?xml version="1.0" standalone="no"?>
 <!DOCTYPE svg PUBLIC "-//W3C//DTD SVG 1.1//EN" 
 "http://www.w3.org/Graphics/SVG/1.1/DTD/svg11.dtd"> 
<svg xmlns="http://www.w3.org/2000/svg" version="1.1" 
    width="29.7002cm" height="21.0007cm" viewBox="0 0 116930 82680 ">
<title>SVG Picture created as STM32ShieldForMetroMiniSlaves-F_SilkS.svg date 2018/06/17 18:04:21 </title>
  <desc>Picture generated by PCBNEW </desc>
<g style="fill:#000000; fill-opacity:1;stroke:#000000; stroke-opacity:1;
stroke-linecap:round; stroke-linejoin:round; "
 transform="translate(0 0) scale(1 1)">
</g>
<g style="fill:#000000; fill-opacity:0.0; 
stroke:#000000; stroke-width:39.3701; stroke-opacity:1; 
stroke-linecap:round; stroke-linejoin:round;">
<path d="M4000 4000
L112930 4000
L112930 78680
L4000 78680
L4000 4000
" />
<path d="M4700 4700
L112230 4700
L112230 77980
L4700 77980
L4700 4700
" />
<path d="M25780 4000
L25780 4700
" />
<path d="M15032 4552
L14747 4552
" />
<path d="M14890 4552
L14890 4052
L14842 4123
L14794 4171
L14747 4195
" />
<path d="M25780 78680
L25780 77980
" />
<path d="M15032 78532
L14747 78532
" />
<path d="M14890 78532
L14890 78032
L14842 78103
L14794 78151
L14747 78175
" />
<path d="M47560 4000
L47560 4700
" />
<path d="M36527 4100
L36550 4076
L36598 4052
L36717 4052
L36765 4076
L36789 4100
L36812 4147
L36812 4195
L36789 4266
L36503 4552
L36812 4552
" />
<path d="M47560 78680
L47560 77980
" />
<path d="M36527 78080
L36550 78056
L36598 78032
L36717 78032
L36765 78056
L36789 78080
L36812 78127
L36812 78175
L36789 78246
L36503 78532
L36812 78532
" />
<path d="M69340 4000
L69340 4700
" />
<path d="M58283 4052
L58592 4052
L58426 4242
L58497 4242
L58545 4266
L58569 4290
L58592 4338
L58592 4457
L58569 4504
L58545 4528
L58497 4552
L58354 4552
L58307 4528
L58283 4504
" />
<path d="M69340 78680
L69340 77980
" />
<path d="M58283 78032
L58592 78032
L58426 78222
L58497 78222
L58545 78246
L58569 78270
L58592 78318
L58592 78437
L58569 78484
L58545 78508
L58497 78532
L58354 78532
L58307 78508
L58283 78484
" />
<path d="M91120 4000
L91120 4700
" />
<path d="M80325 4219
L80325 4552
" />
<path d="M80206 4028
L80087 4385
L80396 4385
" />
<path d="M91120 78680
L91120 77980
" />
<path d="M80325 78199
L80325 78532
" />
<path d="M80206 78008
L80087 78365
L80396 78365
" />
<path d="M102129 4052
L101890 4052
L101867 4290
L101890 4266
L101938 4242
L102057 4242
L102105 4266
L102129 4290
L102152 4338
L102152 4457
L102129 4504
L102105 4528
L102057 4552
L101938 4552
L101890 4528
L101867 4504
" />
<path d="M102129 78032
L101890 78032
L101867 78270
L101890 78246
L101938 78222
L102057 78222
L102105 78246
L102129 78270
L102152 78318
L102152 78437
L102129 78484
L102105 78508
L102057 78532
L101938 78532
L101890 78508
L101867 78484
" />
<path d="M4000 28890
L4700 28890
" />
<path d="M4230 16509
L4469 16509
" />
<path d="M4183 16652
L4350 16152
L4516 16652
" />
<path d="M112930 28890
L112230 28890
" />
<path d="M112460 16509
L112699 16509
" />
<path d="M112413 16652
L112580 16152
L112746 16652
" />
<path d="M4000 53780
L4700 53780
" />
<path d="M4385 41280
L4457 41304
L4480 41328
L4504 41375
L4504 41447
L4480 41494
L4457 41518
L4409 41542
L4219 41542
L4219 41042
L4385 41042
L4433 41066
L4457 41090
L4480 41137
L4480 41185
L4457 41232
L4433 41256
L4385 41280
L4219 41280
" />
<path d="M112930 53780
L112230 53780
" />
<path d="M112615 41280
L112687 41304
L112710 41328
L112734 41375
L112734 41447
L112710 41494
L112687 41518
L112639 41542
L112449 41542
L112449 41042
L112615 41042
L112663 41066
L112687 41090
L112710 41137
L112710 41185
L112687 41232
L112663 41256
L112615 41280
L112449 41280
" />
<path d="M4504 66384
L4480 66408
L4409 66432
L4361 66432
L4290 66408
L4242 66360
L4219 66313
L4195 66218
L4195 66146
L4219 66051
L4242 66003
L4290 65956
L4361 65932
L4409 65932
L4480 65956
L4504 65980
" />
<path d="M112734 66384
L112710 66408
L112639 66432
L112591 66432
L112520 66408
L112472 66360
L112449 66313
L112425 66218
L112425 66146
L112449 66051
L112472 66003
L112520 65956
L112591 65932
L112639 65932
L112710 65956
L112734 65980
" />
<path d="M79380 76422
L79455 75822
L79597 75822
L79680 75851
L79730 75908
L79751 75965
L79765 76080
L79755 76165
L79712 76280
L79676 76337
L79612 76394
L79522 76422
L79380 76422
" />
<path d="M80237 76422
L80276 76108
L80255 76051
L80201 76022
L80087 76022
L80026 76051
" />
<path d="M80240 76394
L80180 76422
L80037 76422
L79983 76394
L79962 76337
L79969 76280
L80005 76222
L80065 76194
L80208 76194
L80269 76165
" />
<path d="M80487 76022
L80715 76022
" />
<path d="M80597 75822
L80533 76337
L80555 76394
L80608 76422
L80665 76422
" />
<path d="M81097 76394
L81037 76422
L80922 76422
L80869 76394
L80847 76337
L80876 76108
L80912 76051
L80972 76022
L81087 76022
L81140 76051
L81162 76108
L81155 76165
L80862 76222
" />
<path d="M81387 76365
L81412 76394
L81380 76422
L81355 76394
L81387 76365
L81380 76422
" />
<path d="M81426 76051
L81451 76080
L81419 76108
L81394 76080
L81426 76051
L81419 76108
" />
<path d="M82437 76422
L82094 76422
" />
<path d="M82265 76422
L82340 75822
L82272 75908
L82208 75965
L82147 75994
" />
<path d="M82712 75822
L83112 75822
L82780 76422
" />
<path d="M83772 76022
L83708 76537
L83672 76594
L83612 76622
L83583 76622
" />
<path d="M83797 75822
L83765 75851
L83790 75880
L83822 75851
L83797 75822
L83790 75880
" />
<path d="M84315 76022
L84265 76422
" />
<path d="M84058 76022
L84019 76337
L84040 76394
L84094 76422
L84180 76422
L84240 76394
L84272 76365
" />
<path d="M84601 76022
L84551 76422
" />
<path d="M84594 76080
L84626 76051
L84687 76022
L84772 76022
L84826 76051
L84847 76108
L84808 76422
" />
<path d="M85590 75880
L85622 75851
L85683 75822
L85826 75822
L85880 75851
L85905 75880
L85926 75937
L85919 75994
L85880 76080
L85494 76422
L85865 76422
" />
<path d="M86312 75822
L86369 75822
L86422 75851
L86447 75880
L86469 75937
L86483 76051
L86465 76194
L86422 76308
L86387 76365
L86355 76394
L86294 76422
L86237 76422
L86183 76394
L86158 76365
L86137 76308
L86122 76194
L86140 76051
L86183 75937
L86219 75880
L86251 75851
L86312 75822
" />
<path d="M87008 76422
L86665 76422
" />
<path d="M86837 76422
L86912 75822
L86844 75908
L86780 75965
L86719 75994
" />
<path d="M87394 76080
L87340 76051
L87315 76022
L87294 75965
L87297 75937
L87333 75880
L87365 75851
L87426 75822
L87540 75822
L87594 75851
L87619 75880
L87640 75937
L87637 75965
L87601 76022
L87569 76051
L87508 76080
L87394 76080
L87333 76108
L87301 76137
L87265 76194
L87251 76308
L87272 76365
L87297 76394
L87351 76422
L87465 76422
L87526 76394
L87558 76365
L87594 76308
L87608 76194
L87587 76137
L87562 76108
L87508 76080
" />
<path d="M70972 77622
L70972 77022
" />
<path d="M71315 77622
L71058 77280
" />
<path d="M71315 77022
L70972 77365
" />
<path d="M71572 77622
L71572 77222
" />
<path d="M71572 77022
L71544 77051
L71572 77080
L71601 77051
L71572 77022
L71572 77080
" />
<path d="M72201 77565
L72172 77594
L72087 77622
L72030 77622
L71944 77594
L71887 77537
L71858 77480
L71830 77365
L71830 77280
L71858 77165
L71887 77108
L71944 77051
L72030 77022
L72087 77022
L72172 77051
L72201 77080
" />
<path d="M72715 77622
L72715 77308
L72687 77251
L72630 77222
L72515 77222
L72458 77251
" />
<path d="M72715 77594
L72658 77622
L72515 77622
L72458 77594
L72430 77537
L72430 77480
L72458 77422
L72515 77394
L72658 77394
L72715 77365
" />
<path d="M73258 77622
L73258 77022
" />
<path d="M73258 77594
L73201 77622
L73087 77622
L73030 77594
L73001 77565
L72972 77508
L72972 77337
L73001 77280
L73030 77251
L73087 77222
L73201 77222
L73258 77251
" />
<path d="M74001 77308
L74201 77308
" />
<path d="M74287 77622
L74001 77622
L74001 77022
L74287 77022
" />
<path d="M74544 77565
L74572 77594
L74544 77622
L74515 77594
L74544 77565
L74544 77622
" />
<path d="M74829 77622
L74829 77022
L74972 77022
L75058 77051
L75115 77108
L75144 77165
L75172 77280
L75172 77365
L75144 77480
L75115 77537
L75058 77594
L74972 77622
L74829 77622
" />
<path d="M75429 77565
L75458 77594
L75429 77622
L75401 77594
L75429 77565
L75429 77622
" />
<path d="M75687 77451
L75972 77451
" />
<path d="M75629 77622
L75829 77022
L76029 77622
" />
<path d="M76229 77565
L76258 77594
L76229 77622
L76201 77594
L76229 77565
L76229 77622
" />
<path d="M104522 76422
L104358 76137
" />
<path d="M104180 76422
L104255 75822
L104483 75822
L104537 75851
L104562 75880
L104583 75937
L104572 76022
L104537 76080
L104505 76108
L104444 76137
L104215 76137
" />
<path d="M105012 76394
L104951 76422
L104837 76422
L104783 76394
L104762 76337
L104790 76108
L104826 76051
L104887 76022
L105001 76022
L105055 76051
L105076 76108
L105069 76165
L104776 76222
" />
<path d="M105287 76022
L105380 76422
L105572 76022
" />
<path d="M105758 76365
L105783 76394
L105751 76422
L105726 76394
L105758 76365
L105751 76422
" />
<path d="M105797 76051
L105822 76080
L105790 76108
L105765 76080
L105797 76051
L105790 76108
" />
<path d="M70944 76394
L71030 76422
L71172 76422
L71230 76394
L71258 76365
L71287 76308
L71287 76251
L71258 76194
L71230 76165
L71172 76137
L71058 76108
L71001 76080
L70972 76051
L70944 75994
L70944 75937
L70972 75880
L71001 75851
L71058 75822
L71201 75822
L71287 75851
" />
<path d="M71544 76422
L71544 76022
" />
<path d="M71544 75822
L71515 75851
L71544 75880
L71572 75851
L71544 75822
L71544 75880
" />
<path d="M71772 76022
L72087 76022
L71772 76422
L72087 76422
" />
<path d="M72544 76394
L72487 76422
L72372 76422
L72315 76394
L72287 76337
L72287 76108
L72315 76051
L72372 76022
L72487 76022
L72544 76051
L72572 76108
L72572 76165
L72287 76222
" />
<path d="M72830 76365
L72858 76394
L72830 76422
L72801 76394
L72830 76365
L72830 76422
" />
<path d="M72830 76051
L72858 76080
L72830 76108
L72801 76080
L72830 76051
L72830 76108
" />
<path d="M73544 76251
L73830 76251
" />
<path d="M73487 76422
L73687 75822
L73887 76422
" />
<path d="M74344 76022
L74344 76422
" />
<path d="M74201 75794
L74058 76222
L74430 76222
" />
<path d="M104172 77622
L104172 77022
" />
<path d="M104715 77622
L104715 77022
" />
<path d="M104715 77594
L104658 77622
L104544 77622
L104487 77594
L104458 77565
L104430 77508
L104430 77337
L104458 77280
L104487 77251
L104544 77222
L104658 77222
L104715 77251
" />
<path d="M105001 77565
L105030 77594
L105001 77622
L104972 77594
L105001 77565
L105001 77622
" />
<path d="M105001 77251
L105030 77280
L105001 77308
L104972 77280
L105001 77251
L105001 77308
" />
<path d="M106058 77622
L105715 77622
" />
<path d="M105887 77622
L105887 77022
L105829 77108
L105772 77165
L105715 77194
" />
<path d="M106744 76994
L106230 77765
" />
<path d="M107258 77622
L106915 77622
" />
<path d="M107087 77622
L107087 77022
L107029 77108
L106972 77165
L106915 77194
" />
<path d="M70969 74622
L71312 74622
" />
<path d="M71065 75222
L71140 74622
" />
<path d="M71437 75222
L71487 74822
" />
<path d="M71512 74622
L71480 74651
L71505 74680
L71537 74651
L71512 74622
L71505 74680
" />
<path d="M71687 74822
L71915 74822
" />
<path d="M71797 74622
L71733 75137
L71755 75194
L71808 75222
L71865 75222
" />
<path d="M72151 75222
L72097 75194
L72076 75137
L72140 74622
" />
<path d="M72612 75194
L72551 75222
L72437 75222
L72383 75194
L72362 75137
L72390 74908
L72426 74851
L72487 74822
L72601 74822
L72655 74851
L72676 74908
L72669 74965
L72376 75022
" />
<path d="M72901 75165
L72926 75194
L72894 75222
L72869 75194
L72901 75165
L72894 75222
" />
<path d="M72940 74851
L72965 74880
L72933 74908
L72908 74880
L72940 74851
L72933 74908
" />
<path d="M71172 72508
L70972 72508
" />
<path d="M70972 72822
L70972 72222
L71258 72222
" />
<path d="M71487 72822
L71487 72422
" />
<path d="M71487 72222
L71458 72251
L71487 72280
L71515 72251
L71487 72222
L71487 72280
" />
<path d="M71858 72822
L71801 72794
L71772 72737
L71772 72222
" />
<path d="M72315 72794
L72258 72822
L72144 72822
L72087 72794
L72058 72737
L72058 72508
L72087 72451
L72144 72422
L72258 72422
L72315 72451
L72344 72508
L72344 72565
L72058 72622
" />
<path d="M72601 72765
L72630 72794
L72601 72822
L72572 72794
L72601 72765
L72601 72822
" />
<path d="M72601 72451
L72630 72480
L72601 72508
L72572 72480
L72601 72451
L72601 72508
" />
<path d="M73315 72794
L73401 72822
L73544 72822
L73601 72794
L73630 72765
L73658 72708
L73658 72651
L73630 72594
L73601 72565
L73544 72537
L73430 72508
L73372 72480
L73344 72451
L73315 72394
L73315 72337
L73344 72280
L73372 72251
L73430 72222
L73572 72222
L73658 72251
" />
<path d="M73830 72222
L74172 72222
" />
<path d="M74001 72822
L74001 72222
" />
<path d="M74372 72822
L74372 72222
L74572 72651
L74772 72222
L74772 72822
" />
<path d="M75001 72222
L75372 72222
L75172 72451
L75258 72451
L75315 72480
L75344 72508
L75372 72565
L75372 72708
L75344 72765
L75315 72794
L75258 72822
L75087 72822
L75030 72794
L75001 72765
" />
<path d="M75601 72280
L75630 72251
L75687 72222
L75830 72222
L75887 72251
L75915 72280
L75944 72337
L75944 72394
L75915 72480
L75572 72822
L75944 72822
" />
<path d="M76172 72794
L76258 72822
L76401 72822
L76458 72794
L76487 72765
L76515 72708
L76515 72651
L76487 72594
L76458 72565
L76401 72537
L76287 72508
L76230 72480
L76201 72451
L76172 72394
L76172 72337
L76201 72280
L76230 72251
L76287 72222
L76430 72222
L76515 72251
" />
<path d="M76772 72822
L76772 72222
" />
<path d="M77030 72822
L77030 72508
L77001 72451
L76944 72422
L76858 72422
L76801 72451
L76772 72480
" />
<path d="M77315 72822
L77315 72422
" />
<path d="M77315 72222
L77287 72251
L77315 72280
L77344 72251
L77315 72222
L77315 72280
" />
<path d="M77830 72794
L77772 72822
L77658 72822
L77601 72794
L77572 72737
L77572 72508
L77601 72451
L77658 72422
L77772 72422
L77830 72451
L77858 72508
L77858 72565
L77572 72622
" />
<path d="M78201 72822
L78144 72794
L78115 72737
L78115 72222
" />
<path d="M78687 72822
L78687 72222
" />
<path d="M78687 72794
L78630 72822
L78515 72822
L78458 72794
L78430 72765
L78401 72708
L78401 72537
L78430 72480
L78458 72451
L78515 72422
L78630 72422
L78687 72451
" />
<path d="M79172 72508
L78972 72508
" />
<path d="M78972 72822
L78972 72222
L79258 72222
" />
<path d="M79572 72822
L79515 72794
L79487 72765
L79458 72708
L79458 72537
L79487 72480
L79515 72451
L79572 72422
L79658 72422
L79715 72451
L79744 72480
L79772 72537
L79772 72708
L79744 72765
L79715 72794
L79658 72822
L79572 72822
" />
<path d="M80030 72822
L80030 72422
" />
<path d="M80030 72537
L80058 72480
L80087 72451
L80144 72422
L80201 72422
" />
<path d="M80401 72822
L80401 72222
L80601 72651
L80801 72222
L80801 72822
" />
<path d="M81315 72794
L81258 72822
L81144 72822
L81087 72794
L81058 72737
L81058 72508
L81087 72451
L81144 72422
L81258 72422
L81315 72451
L81344 72508
L81344 72565
L81058 72622
" />
<path d="M81515 72422
L81744 72422
" />
<path d="M81601 72222
L81601 72737
L81630 72794
L81687 72822
L81744 72822
" />
<path d="M81944 72822
L81944 72422
" />
<path d="M81944 72537
L81972 72480
L82001 72451
L82058 72422
L82115 72422
" />
<path d="M82401 72822
L82344 72794
L82315 72765
L82287 72708
L82287 72537
L82315 72480
L82344 72451
L82401 72422
L82487 72422
L82544 72451
L82572 72480
L82601 72537
L82601 72708
L82572 72765
L82544 72794
L82487 72822
L82401 72822
" />
<path d="M82858 72822
L82858 72222
L83058 72651
L83258 72222
L83258 72822
" />
<path d="M83544 72822
L83544 72422
" />
<path d="M83544 72222
L83515 72251
L83544 72280
L83572 72251
L83544 72222
L83544 72280
" />
<path d="M83830 72422
L83830 72822
" />
<path d="M83830 72480
L83858 72451
L83915 72422
L84001 72422
L84058 72451
L84087 72508
L84087 72822
" />
<path d="M84372 72822
L84372 72422
" />
<path d="M84372 72222
L84344 72251
L84372 72280
L84401 72251
L84372 72222
L84372 72280
" />
<path d="M84630 72794
L84715 72822
L84858 72822
L84915 72794
L84944 72765
L84972 72708
L84972 72651
L84944 72594
L84915 72565
L84858 72537
L84744 72508
L84687 72480
L84658 72451
L84630 72394
L84630 72337
L84658 72280
L84687 72251
L84744 72222
L84887 72222
L84972 72251
" />
<path d="M85315 72822
L85258 72794
L85230 72737
L85230 72222
" />
<path d="M85801 72822
L85801 72508
L85772 72451
L85715 72422
L85601 72422
L85544 72451
" />
<path d="M85801 72794
L85744 72822
L85601 72822
L85544 72794
L85515 72737
L85515 72680
L85544 72622
L85601 72594
L85744 72594
L85801 72565
" />
<path d="M86030 72422
L86172 72822
L86315 72422
" />
<path d="M86772 72794
L86715 72822
L86601 72822
L86544 72794
L86515 72737
L86515 72508
L86544 72451
L86601 72422
L86715 72422
L86772 72451
L86801 72508
L86801 72565
L86515 72622
" />
<path d="M87030 72794
L87087 72822
L87201 72822
L87258 72794
L87287 72737
L87287 72708
L87258 72651
L87201 72622
L87115 72622
L87058 72594
L87030 72537
L87030 72508
L87058 72451
L87115 72422
L87201 72422
L87258 72451
" />
<path d="M87544 72765
L87572 72794
L87544 72822
L87515 72794
L87544 72765
L87544 72822
" />
<path d="M87830 72822
L87830 72222
" />
<path d="M87887 72594
L88058 72822
" />
<path d="M88058 72422
L87830 72651
" />
<path d="M88315 72822
L88315 72422
" />
<path d="M88315 72222
L88287 72251
L88315 72280
L88344 72251
L88315 72222
L88315 72280
" />
<path d="M88858 72794
L88801 72822
L88687 72822
L88630 72794
L88601 72765
L88572 72708
L88572 72537
L88601 72480
L88630 72451
L88687 72422
L88801 72422
L88858 72451
" />
<path d="M89372 72822
L89372 72508
L89344 72451
L89287 72422
L89172 72422
L89115 72451
" />
<path d="M89372 72794
L89315 72822
L89172 72822
L89115 72794
L89087 72737
L89087 72680
L89115 72622
L89172 72594
L89315 72594
L89372 72565
" />
<path d="M89915 72822
L89915 72222
" />
<path d="M89915 72794
L89858 72822
L89744 72822
L89687 72794
L89658 72765
L89630 72708
L89630 72537
L89658 72480
L89687 72451
L89744 72422
L89858 72422
L89915 72451
" />
<path d="M90058 72880
L90515 72880
" />
<path d="M90658 72422
L90658 73022
" />
<path d="M90658 72451
L90715 72422
L90830 72422
L90887 72451
L90915 72480
L90944 72537
L90944 72708
L90915 72765
L90887 72794
L90830 72822
L90715 72822
L90658 72794
" />
<path d="M91458 72794
L91401 72822
L91287 72822
L91230 72794
L91201 72765
L91172 72708
L91172 72537
L91201 72480
L91230 72451
L91287 72422
L91401 72422
L91458 72451
" />
<path d="M91715 72822
L91715 72222
" />
<path d="M91715 72451
L91772 72422
L91887 72422
L91944 72451
L91972 72480
L92001 72537
L92001 72708
L91972 72765
L91944 72794
L91887 72822
L91772 72822
L91715 72794
" />
<path d="M70944 73994
L71030 74022
L71172 74022
L71230 73994
L71258 73965
L71287 73908
L71287 73851
L71258 73794
L71230 73765
L71172 73737
L71058 73708
L71001 73680
L70972 73651
L70944 73594
L70944 73537
L70972 73480
L71001 73451
L71058 73422
L71201 73422
L71287 73451
" />
<path d="M71544 74022
L71544 73422
" />
<path d="M71801 74022
L71801 73708
L71772 73651
L71715 73622
L71630 73622
L71572 73651
L71544 73680
" />
<path d="M72315 73994
L72258 74022
L72144 74022
L72087 73994
L72058 73937
L72058 73708
L72087 73651
L72144 73622
L72258 73622
L72315 73651
L72344 73708
L72344 73765
L72058 73822
" />
<path d="M72830 73994
L72772 74022
L72658 74022
L72601 73994
L72572 73937
L72572 73708
L72601 73651
L72658 73622
L72772 73622
L72830 73651
L72858 73708
L72858 73765
L72572 73822
" />
<path d="M73030 73622
L73258 73622
" />
<path d="M73115 73422
L73115 73937
L73144 73994
L73201 74022
L73258 74022
" />
<path d="M73458 73965
L73487 73994
L73458 74022
L73430 73994
L73458 73965
L73458 74022
" />
<path d="M73458 73651
L73487 73680
L73458 73708
L73430 73680
L73458 73651
L73458 73708
" />
<path d="M70230 71980
L70230 77980
" />
<path d="M70230 71980
L112230 71980
" />
<path d="M70230 71980
L112230 71980
" />
<path d="M70230 74380
L112230 74380
" />
<path d="M103430 75580
L103430 77980
" />
<path d="M70230 76780
L112230 76780
" />
<path d="M70230 75580
L112230 75580
" />
<path d="M76830 75580
L76830 76780
" />
</g>
<g style="fill:#00A0A0; fill-opacity:0.0; 
stroke:#00A0A0; stroke-width:59.0551; stroke-opacity:1; 
stroke-linecap:round; stroke-linejoin:round;">
<path d="M54859 47637
L54859 47862
" />
<path d="M54859 47750
L54465 47750
L54521 47787
L54559 47824
L54578 47862
" />
</g>
<g style="fill:#FFFF00; fill-opacity:0.0; 
stroke:#FFFF00; stroke-width:59.0551; stroke-opacity:1; 
stroke-linecap:round; stroke-linejoin:round;">
<path d="M69700 29350
L69100 28750
" />
<path d="M69700 33850
L69700 29350
" />
<path d="M70700 34850
L69700 33850
" />
<path d="M70700 47750
L70700 34850
" />
<path d="M69700 48750
L70700 47750
" />
<path d="M69700 49750
L69700 48750
" />
<path d="M43700 49750
L69700 49750
" />
<path d="M43700 28750
L43700 49750
" />
<path d="M69100 28750
L43700 28750
" />
</g>
<g style="fill:#00A0A0; fill-opacity:0.0; 
stroke:#00A0A0; stroke-width:59.0551; stroke-opacity:1; 
stroke-linecap:round; stroke-linejoin:round;">
<path d="M57909 47909
L57909 47515
L58059 47515
L58096 47534
L58115 47553
L58134 47590
L58134 47646
L58115 47684
L58096 47703
L58059 47721
L57909 47721
" />
<path d="M58509 47909
L58284 47909
" />
<path d="M58396 47909
L58396 47515
L58359 47571
L58321 47609
L58284 47628
" />
<path d="M57421 47309
L57421 46915
L57571 46915
L57609 46934
L57628 46953
L57646 46990
L57646 47046
L57628 47084
L57609 47103
L57571 47121
L57421 47121
" />
<path d="M57871 47309
L57834 47290
L57815 47271
L57796 47234
L57796 47121
L57815 47084
L57834 47065
L57871 47046
L57928 47046
L57965 47065
L57984 47084
L58003 47121
L58003 47234
L57984 47271
L57965 47290
L57928 47309
L57871 47309
" />
<path d="M58134 47046
L58209 47309
L58284 47121
L58359 47309
L58434 47046
" />
<path d="M58734 47290
L58696 47309
L58621 47309
L58584 47290
L58565 47253
L58565 47103
L58584 47065
L58621 47046
L58696 47046
L58734 47065
L58753 47103
L58753 47140
L58565 47178
" />
<path d="M58921 47309
L58921 47046
" />
<path d="M58921 47121
L58940 47084
L58959 47065
L58996 47046
L59034 47046
" />
<path d="M66009 47909
L66009 47515
L66159 47515
L66196 47534
L66215 47553
L66234 47590
L66234 47646
L66215 47684
L66196 47703
L66159 47721
L66009 47721
" />
<path d="M66384 47553
L66403 47534
L66440 47515
L66534 47515
L66571 47534
L66590 47553
L66609 47590
L66609 47628
L66590 47684
L66365 47909
L66609 47909
" />
<path d="M65390 47196
L65578 47196
" />
<path d="M65353 47309
L65484 46915
L65615 47309
" />
<path d="M65746 47046
L65746 47309
" />
<path d="M65746 47084
L65765 47065
L65803 47046
L65859 47046
L65896 47065
L65915 47103
L65915 47309
" />
<path d="M66271 47309
L66271 47103
L66253 47065
L66215 47046
L66140 47046
L66103 47065
" />
<path d="M66271 47290
L66234 47309
L66140 47309
L66103 47290
L66084 47253
L66084 47215
L66103 47178
L66140 47159
L66234 47159
L66271 47140
" />
<path d="M66515 47309
L66478 47290
L66459 47253
L66459 46915
" />
<path d="M66721 47309
L66684 47290
L66665 47271
L66646 47234
L66646 47121
L66665 47084
L66684 47065
L66721 47046
L66778 47046
L66815 47065
L66834 47084
L66853 47121
L66853 47234
L66834 47271
L66815 47290
L66778 47309
L66721 47309
" />
<path d="M67190 47046
L67190 47365
L67171 47403
L67153 47421
L67115 47440
L67059 47440
L67021 47421
" />
<path d="M67190 47290
L67153 47309
L67078 47309
L67040 47290
L67021 47271
L67003 47234
L67003 47121
L67021 47084
L67040 47065
L67078 47046
L67153 47046
L67190 47065
" />
<path d="M55309 31009
L55309 30615
L55459 30615
L55496 30634
L55515 30653
L55534 30690
L55534 30746
L55515 30784
L55496 30803
L55459 30821
L55309 30821
" />
<path d="M55665 30615
L55909 30615
L55778 30765
L55834 30765
L55871 30784
L55890 30803
L55909 30840
L55909 30934
L55890 30971
L55871 30990
L55834 31009
L55721 31009
L55684 30990
L55665 30971
" />
<path d="M54737 31609
L54737 31215
L54831 31215
L54887 31234
L54925 31271
L54943 31309
L54962 31384
L54962 31440
L54943 31515
L54925 31553
L54887 31590
L54831 31609
L54737 31609
" />
<path d="M55131 31609
L55131 31346
" />
<path d="M55131 31215
L55112 31234
L55131 31253
L55150 31234
L55131 31215
L55131 31253
" />
<path d="M55487 31346
L55487 31665
L55468 31703
L55450 31721
L55412 31740
L55356 31740
L55318 31721
" />
<path d="M55487 31590
L55450 31609
L55375 31609
L55337 31590
L55318 31571
L55300 31534
L55300 31421
L55318 31384
L55337 31365
L55375 31346
L55450 31346
L55487 31365
" />
<path d="M55674 31609
L55674 31346
" />
<path d="M55674 31215
L55656 31234
L55674 31253
L55693 31234
L55674 31215
L55674 31253
" />
<path d="M55806 31346
L55956 31346
" />
<path d="M55862 31215
L55862 31553
L55881 31590
L55918 31609
L55956 31609
" />
<path d="M56256 31609
L56256 31403
L56237 31365
L56199 31346
L56124 31346
L56087 31365
" />
<path d="M56256 31590
L56218 31609
L56124 31609
L56087 31590
L56068 31553
L56068 31515
L56087 31478
L56124 31459
L56218 31459
L56256 31440
" />
<path d="M56499 31609
L56462 31590
L56443 31553
L56443 31215
" />
<path d="M64909 31009
L64909 30615
L65059 30615
L65096 30634
L65115 30653
L65134 30690
L65134 30746
L65115 30784
L65096 30803
L65059 30821
L64909 30821
" />
<path d="M65471 30746
L65471 31009
" />
<path d="M65378 30596
L65284 30878
L65528 30878
" />
<path d="M64337 31609
L64337 31215
L64431 31215
L64487 31234
L64525 31271
L64543 31309
L64562 31384
L64562 31440
L64543 31515
L64525 31553
L64487 31590
L64431 31609
L64337 31609
" />
<path d="M64731 31609
L64731 31346
" />
<path d="M64731 31215
L64712 31234
L64731 31253
L64750 31234
L64731 31215
L64731 31253
" />
<path d="M65087 31346
L65087 31665
L65068 31703
L65050 31721
L65012 31740
L64956 31740
L64918 31721
" />
<path d="M65087 31590
L65050 31609
L64975 31609
L64937 31590
L64918 31571
L64900 31534
L64900 31421
L64918 31384
L64937 31365
L64975 31346
L65050 31346
L65087 31365
" />
<path d="M65274 31609
L65274 31346
" />
<path d="M65274 31215
L65256 31234
L65274 31253
L65293 31234
L65274 31215
L65274 31253
" />
<path d="M65406 31346
L65556 31346
" />
<path d="M65462 31215
L65462 31553
L65481 31590
L65518 31609
L65556 31609
" />
<path d="M65856 31609
L65856 31403
L65837 31365
L65799 31346
L65724 31346
L65687 31365
" />
<path d="M65856 31590
L65818 31609
L65724 31609
L65687 31590
L65668 31553
L65668 31515
L65687 31478
L65724 31459
L65818 31459
L65856 31440
" />
<path d="M66099 31609
L66062 31590
L66043 31553
L66043 31215
" />
</g>
<g style="fill:#00A0A0; fill-opacity:0.0; 
stroke:#00A0A0; stroke-width:80; stroke-opacity:1; 
stroke-linecap:round; stroke-linejoin:round;">
<path d="M47722 42983
L47460 43150
" />
<path d="M47722 43269
L47172 43269
L47172 43078
L47198 43030
L47225 43007
L47277 42983
L47355 42983
L47408 43007
L47434 43030
L47460 43078
L47460 43269
" />
<path d="M47355 42554
L47722 42554
" />
<path d="M47146 42673
L47539 42792
L47539 42483
" />
<path d="M47722 40483
L47460 40650
" />
<path d="M47722 40769
L47172 40769
L47172 40578
L47198 40530
L47225 40507
L47277 40483
L47355 40483
L47408 40507
L47434 40530
L47460 40578
L47460 40769
" />
<path d="M47172 40316
L47172 40007
L47382 40173
L47382 40102
L47408 40054
L47434 40030
L47486 40007
L47617 40007
L47670 40030
L47696 40054
L47722 40102
L47722 40245
L47696 40292
L47670 40316
" />
<path d="M63222 41483
L62960 41650
" />
<path d="M63222 41769
L62672 41769
L62672 41578
L62698 41530
L62725 41507
L62777 41483
L62855 41483
L62908 41507
L62934 41530
L62960 41578
L62960 41769
" />
<path d="M62725 41292
L62698 41269
L62672 41221
L62672 41102
L62698 41054
L62725 41030
L62777 41007
L62829 41007
L62908 41030
L63222 41316
L63222 41007
" />
<path d="M57016 43722
L56850 43460
" />
<path d="M56730 43722
L56730 43172
L56921 43172
L56969 43198
L56992 43225
L57016 43277
L57016 43355
L56992 43408
L56969 43434
L56921 43460
L56730 43460
" />
<path d="M57492 43722
L57207 43722
" />
<path d="M57350 43722
L57350 43172
L57302 43251
L57254 43303
L57207 43329
" />
<path d="M46161 42485
L45761 42485
L45761 42333
L45780 42295
L45800 42276
L45838 42257
L45895 42257
L45933 42276
L45952 42295
L45971 42333
L45971 42485
" />
<path d="M46161 41876
L46161 42104
" />
<path d="M46161 41990
L45761 41990
L45819 42028
L45857 42066
L45876 42104
" />
<path d="M45800 41723
L45780 41704
L45761 41666
L45761 41571
L45780 41533
L45800 41514
L45838 41495
L45876 41495
L45933 41514
L46161 41742
L46161 41495
" />
<path d="M64661 34985
L64261 34985
L64261 34833
L64280 34795
L64300 34776
L64338 34757
L64395 34757
L64433 34776
L64452 34795
L64471 34833
L64471 34985
" />
<path d="M64661 34376
L64661 34604
" />
<path d="M64661 34490
L64261 34490
L64319 34528
L64357 34566
L64376 34604
" />
<path d="M64261 34242
L64261 33995
L64414 34128
L64414 34071
L64433 34033
L64452 34014
L64490 33995
L64585 33995
L64623 34014
L64642 34033
L64661 34071
L64661 34185
L64642 34223
L64623 34242
" />
<path d="M62661 34985
L62261 34985
L62261 34833
L62280 34795
L62300 34776
L62338 34757
L62395 34757
L62433 34776
L62452 34795
L62471 34833
L62471 34985
" />
<path d="M62661 34376
L62661 34604
" />
<path d="M62661 34490
L62261 34490
L62319 34528
L62357 34566
L62376 34604
" />
<path d="M62661 33995
L62661 34223
" />
<path d="M62661 34109
L62261 34109
L62319 34147
L62357 34185
L62376 34223
" />
<path d="M60661 34985
L60261 34985
L60261 34833
L60280 34795
L60300 34776
L60338 34757
L60395 34757
L60433 34776
L60452 34795
L60471 34833
L60471 34985
" />
<path d="M60661 34376
L60661 34604
" />
<path d="M60661 34490
L60261 34490
L60319 34528
L60357 34566
L60376 34604
" />
<path d="M60261 34128
L60261 34090
L60280 34052
L60300 34033
L60338 34014
L60414 33995
L60509 33995
L60585 34014
L60623 34033
L60642 34052
L60661 34090
L60661 34128
L60642 34166
L60623 34185
L60585 34204
L60509 34223
L60414 34223
L60338 34204
L60300 34185
L60280 34166
L60261 34128
" />
<path d="M60060 41702
L60060 41202
" />
<path d="M60532 41654
L60510 41678
L60446 41702
L60403 41702
L60339 41678
L60296 41630
L60275 41583
L60253 41488
L60253 41416
L60275 41321
L60296 41273
L60339 41226
L60403 41202
L60446 41202
L60510 41226
L60532 41250
" />
<path d="M60960 41702
L60703 41702
" />
<path d="M60832 41702
L60832 41202
L60789 41273
L60746 41321
L60703 41345
" />
<path d="M60702 44885
L60202 44885
L60559 44752
L60202 44619
L60702 44619
" />
<path d="M60654 44200
L60678 44219
L60702 44276
L60702 44314
L60678 44371
L60630 44409
L60583 44428
L60488 44447
L60416 44447
L60321 44428
L60273 44409
L60226 44371
L60202 44314
L60202 44276
L60226 44219
L60250 44200
" />
<path d="M60202 44085
L60202 43857
" />
<path d="M60702 43971
L60202 43971
" />
<path d="M60202 43552
L60202 43628
L60226 43666
L60250 43685
L60321 43723
L60416 43742
L60607 43742
L60654 43723
L60678 43704
L60702 43666
L60702 43590
L60678 43552
L60654 43533
L60607 43514
L60488 43514
L60440 43533
L60416 43552
L60392 43590
L60392 43666
L60416 43704
L60440 43723
L60488 43742
" />
<path d="M60702 43342
L60202 43342
" />
<path d="M60440 43342
L60440 43114
" />
<path d="M60702 43114
L60202 43114
" />
<path d="M49202 45842
L49607 45842
L49654 45821
L49678 45800
L49702 45757
L49702 45671
L49678 45628
L49654 45607
L49607 45585
L49202 45585
" />
<path d="M49250 45392
L49226 45371
L49202 45328
L49202 45221
L49226 45178
L49250 45157
L49297 45135
L49345 45135
L49416 45157
L49702 45414
L49702 45135
" />
<path d="M50161 45678
L50219 45702
L50314 45702
L50352 45678
L50371 45654
L50390 45607
L50390 45559
L50371 45511
L50352 45488
L50314 45464
L50238 45440
L50200 45416
L50180 45392
L50161 45345
L50161 45297
L50180 45250
L50200 45226
L50238 45202
L50333 45202
L50390 45226
" />
<path d="M50561 45702
L50561 45202
L50790 45702
L50790 45202
" />
<path d="M50942 45202
L51209 45202
L51038 45702
" />
<path d="M51552 45202
L51361 45202
L51342 45440
L51361 45416
L51400 45392
L51495 45392
L51533 45416
L51552 45440
L51571 45488
L51571 45607
L51552 45654
L51533 45678
L51495 45702
L51400 45702
L51361 45678
L51342 45654
" />
<path d="M51933 45702
L51742 45702
L51742 45202
" />
<path d="M52200 45440
L52257 45464
L52276 45488
L52295 45535
L52295 45607
L52276 45654
L52257 45678
L52219 45702
L52066 45702
L52066 45202
L52200 45202
L52238 45226
L52257 45250
L52276 45297
L52276 45345
L52257 45392
L52238 45416
L52200 45440
L52066 45440
" />
<path d="M52695 45654
L52676 45678
L52619 45702
L52580 45702
L52523 45678
L52485 45630
L52466 45583
L52447 45488
L52447 45416
L52466 45321
L52485 45273
L52523 45226
L52580 45202
L52619 45202
L52676 45226
L52695 45250
" />
<path d="M53076 45702
L52847 45702
" />
<path d="M52961 45702
L52961 45202
L52923 45273
L52885 45321
L52847 45345
" />
<path d="M53209 45202
L53476 45202
L53304 45702
" />
<path d="M53647 45702
L53723 45702
L53761 45678
L53780 45654
L53819 45583
L53838 45488
L53838 45297
L53819 45250
L53800 45226
L53761 45202
L53685 45202
L53647 45226
L53628 45250
L53609 45297
L53609 45416
L53628 45464
L53647 45488
L53685 45511
L53761 45511
L53800 45488
L53819 45464
L53838 45416
" />
</g>
<g style="fill:#00A0A0; fill-opacity:0.0; 
stroke:#00A0A0; stroke-width:120; stroke-opacity:1; 
stroke-linecap:round; stroke-linejoin:round;">
</g>
<g style="fill:#00A0A0; fill-opacity:0.0; 
stroke:#00A0A0; stroke-width:112.5; stroke-opacity:1; 
stroke-linecap:round; stroke-linejoin:round;">
<path d="M58142 34842
L58628 34842
L58685 34821
L58714 34800
L58742 34757
L58742 34671
L58714 34628
L58685 34607
L58628 34585
L58142 34585
" />
<path d="M58142 34414
L58142 34135
L58371 34285
L58371 34221
L58400 34178
L58428 34157
L58485 34135
L58628 34135
L58685 34157
L58714 34178
L58742 34221
L58742 34350
L58714 34392
L58685 34414
" />
</g>
<g style="fill:#00A0A0; fill-opacity:0.0; 
stroke:#00A0A0; stroke-width:120; stroke-opacity:1; 
stroke-linecap:round; stroke-linejoin:round;">
</g>
<g style="fill:#00A0A0; fill-opacity:0.0; 
stroke:#00A0A0; stroke-width:112.5; stroke-opacity:1; 
stroke-linecap:round; stroke-linejoin:round;">
<path d="M57142 39414
L57142 39157
" />
<path d="M57742 39285
L57142 39285
" />
<path d="M57742 38749
L57457 38899
" />
<path d="M57742 39007
L57142 39007
L57142 38835
L57171 38792
L57200 38771
L57257 38749
L57342 38749
L57400 38771
L57428 38792
L57457 38835
L57457 39007
" />
<path d="M57714 38578
L57742 38514
L57742 38407
L57714 38364
L57685 38342
L57628 38321
L57571 38321
L57514 38342
L57485 38364
L57457 38407
L57428 38492
L57400 38535
L57371 38557
L57314 38578
L57257 38578
L57200 38557
L57171 38535
L57142 38492
L57142 38385
L57171 38321
" />
<path d="M57200 38150
L57171 38128
L57142 38085
L57142 37978
L57171 37935
L57200 37914
L57257 37892
L57314 37892
L57400 37914
L57742 38171
L57742 37892
" />
<path d="M57142 37614
L57142 37571
L57171 37528
L57200 37507
L57257 37485
L57371 37464
L57514 37464
L57628 37485
L57685 37507
L57714 37528
L57742 37571
L57742 37614
L57714 37657
L57685 37678
L57628 37700
L57514 37721
L57371 37721
L57257 37700
L57200 37678
L57171 37657
L57142 37614
" />
<path d="M57200 37292
L57171 37271
L57142 37228
L57142 37121
L57171 37078
L57200 37057
L57257 37035
L57314 37035
L57400 37057
L57742 37314
L57742 37035
" />
<path d="M57428 36842
L57428 36692
" />
<path d="M57742 36628
L57742 36842
L57142 36842
L57142 36628
" />
</g>
<g style="fill:#00A0A0; fill-opacity:0.0; 
stroke:#00A0A0; stroke-width:120; stroke-opacity:1; 
stroke-linecap:round; stroke-linejoin:round;">
</g>
<g style="fill:#00A0A0; fill-opacity:0.0; 
stroke:#00A0A0; stroke-width:112.5; stroke-opacity:1; 
stroke-linecap:round; stroke-linejoin:round;">
<path d="M51142 34842
L51628 34842
L51685 34821
L51714 34800
L51742 34757
L51742 34671
L51714 34628
L51685 34607
L51628 34585
L51142 34585
" />
<path d="M51742 34135
L51742 34392
" />
<path d="M51742 34264
L51142 34264
L51228 34307
L51285 34350
L51314 34392
" />
</g>
<g style="fill:#00A0A0; fill-opacity:0.0; 
stroke:#00A0A0; stroke-width:120; stroke-opacity:1; 
stroke-linecap:round; stroke-linejoin:round;">
</g>
<g style="fill:#00A0A0; fill-opacity:0.0; 
stroke:#00A0A0; stroke-width:112.5; stroke-opacity:1; 
stroke-linecap:round; stroke-linejoin:round;">
<path d="M50142 39414
L50142 39157
" />
<path d="M50742 39285
L50142 39285
" />
<path d="M50742 38749
L50457 38899
" />
<path d="M50742 39007
L50142 39007
L50142 38835
L50171 38792
L50200 38771
L50257 38749
L50342 38749
L50400 38771
L50428 38792
L50457 38835
L50457 39007
" />
<path d="M50714 38578
L50742 38514
L50742 38407
L50714 38364
L50685 38342
L50628 38321
L50571 38321
L50514 38342
L50485 38364
L50457 38407
L50428 38492
L50400 38535
L50371 38557
L50314 38578
L50257 38578
L50200 38557
L50171 38535
L50142 38492
L50142 38385
L50171 38321
" />
<path d="M50200 38150
L50171 38128
L50142 38085
L50142 37978
L50171 37935
L50200 37914
L50257 37892
L50314 37892
L50400 37914
L50742 38171
L50742 37892
" />
<path d="M50142 37614
L50142 37571
L50171 37528
L50200 37507
L50257 37485
L50371 37464
L50514 37464
L50628 37485
L50685 37507
L50714 37528
L50742 37571
L50742 37614
L50714 37657
L50685 37678
L50628 37700
L50514 37721
L50371 37721
L50257 37700
L50200 37678
L50171 37657
L50142 37614
" />
<path d="M50200 37292
L50171 37271
L50142 37228
L50142 37121
L50171 37078
L50200 37057
L50257 37035
L50314 37035
L50400 37057
L50742 37314
L50742 37035
" />
<path d="M50428 36842
L50428 36692
" />
<path d="M50742 36628
L50742 36842
L50142 36842
L50142 36628
" />
</g>
<g style="fill:#00A0A0; fill-opacity:0.0; 
stroke:#00A0A0; stroke-width:120; stroke-opacity:1; 
stroke-linecap:round; stroke-linejoin:round;">
</g>
<g style="fill:#00A0A0; fill-opacity:0.0; 
stroke:#00A0A0; stroke-width:80; stroke-opacity:1; 
stroke-linecap:round; stroke-linejoin:round;">
<path d="M49523 39166
L49542 39185
L49561 39242
L49561 39280
L49542 39338
L49504 39376
L49466 39395
L49390 39414
L49333 39414
L49257 39395
L49219 39376
L49180 39338
L49161 39280
L49161 39242
L49180 39185
L49200 39166
" />
<path d="M49295 38823
L49561 38823
" />
<path d="M49142 38919
L49428 39014
L49428 38766
" />
<path d="M50833 32523
L50814 32542
L50757 32561
L50719 32561
L50661 32542
L50623 32504
L50604 32466
L50585 32390
L50585 32333
L50604 32257
L50623 32219
L50661 32180
L50719 32161
L50757 32161
L50814 32180
L50833 32200
" />
<path d="M51195 32161
L51004 32161
L50985 32352
L51004 32333
L51042 32314
L51138 32314
L51176 32333
L51195 32352
L51214 32390
L51214 32485
L51195 32523
L51176 32542
L51138 32561
L51042 32561
L51004 32542
L50985 32523
" />
<path d="M48023 36666
L48042 36685
L48061 36742
L48061 36780
L48042 36838
L48004 36876
L47966 36895
L47890 36914
L47833 36914
L47757 36895
L47719 36876
L47680 36838
L47661 36780
L47661 36742
L47680 36685
L47700 36666
" />
<path d="M47661 36533
L47661 36285
L47814 36419
L47814 36361
L47833 36323
L47852 36304
L47890 36285
L47985 36285
L48023 36304
L48042 36323
L48061 36361
L48061 36476
L48042 36514
L48023 36533
" />
<path d="M49523 36666
L49542 36685
L49561 36742
L49561 36780
L49542 36838
L49504 36876
L49466 36895
L49390 36914
L49333 36914
L49257 36895
L49219 36876
L49180 36838
L49161 36780
L49161 36742
L49180 36685
L49200 36666
" />
<path d="M49200 36514
L49180 36495
L49161 36457
L49161 36361
L49180 36323
L49200 36304
L49238 36285
L49276 36285
L49333 36304
L49561 36533
L49561 36285
" />
<path d="M56523 34166
L56542 34185
L56561 34242
L56561 34280
L56542 34338
L56504 34376
L56466 34395
L56390 34414
L56333 34414
L56257 34395
L56219 34376
L56180 34338
L56161 34280
L56161 34242
L56180 34185
L56200 34166
" />
<path d="M56161 33823
L56161 33899
L56180 33938
L56200 33957
L56257 33995
L56333 34014
L56485 34014
L56523 33995
L56542 33976
L56561 33938
L56561 33861
L56542 33823
L56523 33804
L56485 33785
L56390 33785
L56352 33804
L56333 33823
L56314 33861
L56314 33938
L56333 33976
L56352 33995
L56390 34014
" />
<path d="M56523 36666
L56542 36685
L56561 36742
L56561 36780
L56542 36838
L56504 36876
L56466 36895
L56390 36914
L56333 36914
L56257 36895
L56219 36876
L56180 36838
L56161 36780
L56161 36742
L56180 36685
L56200 36666
" />
<path d="M56161 36533
L56161 36266
L56561 36438
" />
<path d="M55023 36666
L55042 36685
L55061 36742
L55061 36780
L55042 36838
L55004 36876
L54966 36895
L54890 36914
L54833 36914
L54757 36895
L54719 36876
L54680 36838
L54661 36780
L54661 36742
L54680 36685
L54700 36666
" />
<path d="M54833 36438
L54814 36476
L54795 36495
L54757 36514
L54738 36514
L54700 36495
L54680 36476
L54661 36438
L54661 36361
L54680 36323
L54700 36304
L54738 36285
L54757 36285
L54795 36304
L54814 36323
L54833 36361
L54833 36438
L54852 36476
L54871 36495
L54909 36514
L54985 36514
L55023 36495
L55042 36476
L55061 36438
L55061 36361
L55042 36323
L55023 36304
L54985 36285
L54909 36285
L54871 36304
L54852 36323
L54833 36361
" />
<path d="M56523 39166
L56542 39185
L56561 39242
L56561 39280
L56542 39338
L56504 39376
L56466 39395
L56390 39414
L56333 39414
L56257 39395
L56219 39376
L56180 39338
L56161 39280
L56161 39242
L56180 39185
L56200 39166
" />
<path d="M56561 38976
L56561 38899
L56542 38861
L56523 38842
L56466 38804
L56390 38785
L56238 38785
L56200 38804
L56180 38823
L56161 38861
L56161 38938
L56180 38976
L56200 38995
L56238 39014
L56333 39014
L56371 38995
L56390 38976
L56409 38938
L56409 38861
L56390 38823
L56371 38804
L56333 38785
" />
<path d="M57642 32523
L57623 32542
L57566 32561
L57528 32561
L57471 32542
L57433 32504
L57414 32466
L57395 32390
L57395 32333
L57414 32257
L57433 32219
L57471 32180
L57528 32161
L57566 32161
L57623 32180
L57642 32200
" />
<path d="M58023 32561
L57795 32561
" />
<path d="M57909 32561
L57909 32161
L57871 32219
L57833 32257
L57795 32276
" />
<path d="M58271 32161
L58309 32161
L58347 32180
L58366 32200
L58385 32238
L58404 32314
L58404 32409
L58385 32485
L58366 32523
L58347 32542
L58309 32561
L58271 32561
L58233 32542
L58214 32523
L58195 32485
L58176 32409
L58176 32314
L58195 32238
L58214 32200
L58233 32180
L58271 32161
" />
<path d="M49523 34166
L49542 34185
L49561 34242
L49561 34280
L49542 34338
L49504 34376
L49466 34395
L49390 34414
L49333 34414
L49257 34395
L49219 34376
L49180 34338
L49161 34280
L49161 34242
L49180 34185
L49200 34166
" />
<path d="M49561 33785
L49561 34014
" />
<path d="M49561 33899
L49161 33899
L49219 33938
L49257 33976
L49276 34014
" />
</g>
<g style="fill:#00A0A0; fill-opacity:0.0; 
stroke:#00A0A0; stroke-width:120; stroke-opacity:1; 
stroke-linecap:round; stroke-linejoin:round;">
<path d="M71042 42942
L70442 42942
L70442 42714
L70471 42657
L70500 42628
L70557 42600
L70642 42600
L70700 42628
L70728 42657
L70757 42714
L70757 42942
" />
<path d="M71042 42314
L71042 42200
L71014 42142
L70985 42114
L70900 42057
L70785 42028
L70557 42028
L70500 42057
L70471 42085
L70442 42142
L70442 42257
L70471 42314
L70500 42342
L70557 42371
L70700 42371
L70757 42342
L70785 42314
L70814 42257
L70814 42142
L70785 42085
L70757 42057
L70700 42028
" />
<path d="M66385 43771
L66414 43799
L66442 43885
L66442 43942
L66414 44028
L66357 44085
L66300 44114
L66185 44142
L66100 44142
L65985 44114
L65928 44085
L65871 44028
L65842 43942
L65842 43885
L65871 43799
L65900 43771
" />
<path d="M65842 43399
L65842 43285
L65871 43228
L65928 43171
L66042 43142
L66242 43142
L66357 43171
L66414 43228
L66442 43285
L66442 43399
L66414 43457
L66357 43514
L66242 43542
L66042 43542
L65928 43514
L65871 43457
L65842 43399
" />
<path d="M66442 42885
L65842 42885
L66442 42542
L65842 42542
" />
<path d="M66442 42257
L65842 42257
L66442 41914
L65842 41914
" />
<path d="M66500 41771
L66500 41314
" />
<path d="M65900 41200
L65871 41171
L65842 41114
L65842 40971
L65871 40914
L65900 40885
L65957 40857
L66014 40857
L66100 40885
L66442 41228
L66442 40857
" />
</g>
<g style="fill:#00A0A0; fill-opacity:0.0; 
stroke:#00A0A0; stroke-width:59.0551; stroke-opacity:1; 
stroke-linecap:round; stroke-linejoin:round;">
<path d="M66076 40507
L65682 40507
L65682 40413
L65701 40357
L65739 40319
L65776 40300
L65851 40282
L65907 40282
L65982 40300
L66020 40319
L66057 40357
L66076 40413
L66076 40507
" />
<path d="M66076 39907
L66076 40132
" />
<path d="M66076 40019
L65682 40019
L65739 40057
L65776 40094
L65795 40132
" />
<path d="M65831 45263
L65849 45207
L65868 45188
L65906 45169
L65962 45169
L65999 45188
L66018 45207
L66037 45244
L66037 45394
L65643 45394
L65643 45263
L65662 45225
L65681 45207
L65718 45188
L65756 45188
L65793 45207
L65812 45225
L65831 45263
L65831 45394
" />
<path d="M66037 44775
L65849 44907
" />
<path d="M66037 45000
L65643 45000
L65643 44850
L65662 44813
L65681 44794
L65718 44775
L65774 44775
L65812 44794
L65831 44813
L65849 44850
L65849 45000
" />
<path d="M66037 44607
L65643 44607
" />
<path d="M66037 44419
L65643 44419
L65643 44326
L65662 44269
L65699 44232
L65737 44213
L65812 44194
L65868 44194
L65943 44213
L65981 44232
L66018 44269
L66037 44326
L66037 44419
" />
<path d="M65662 43819
L65643 43857
L65643 43913
L65662 43969
L65699 44007
L65737 44026
L65812 44044
L65868 44044
L65943 44026
L65981 44007
L66018 43969
L66037 43913
L66037 43876
L66018 43819
L65999 43801
L65868 43801
L65868 43876
" />
<path d="M65831 43632
L65831 43501
" />
<path d="M66037 43444
L66037 43632
L65643 43632
L65643 43444
" />
<path d="M65452 42751
L65452 42563
" />
<path d="M65564 42788
L65171 42657
L65564 42526
" />
<path d="M65527 42170
L65546 42188
L65564 42245
L65564 42282
L65546 42338
L65508 42376
L65471 42395
L65396 42413
L65339 42413
L65264 42395
L65227 42376
L65189 42338
L65171 42282
L65171 42245
L65189 42188
L65208 42170
" />
<path d="M65454 39618
L65454 39318
" />
<path d="M65414 45681
L65414 45381
" />
<path d="M65564 45531
L65264 45531
" />
</g>
<g style="fill:#00A0A0; fill-opacity:0.0; 
stroke:#00A0A0; stroke-width:80; stroke-opacity:1; 
stroke-linecap:round; stroke-linejoin:round;">
<path d="M50222 48183
L49960 48350
" />
<path d="M50222 48469
L49672 48469
L49672 48278
L49698 48230
L49725 48207
L49777 48183
L49855 48183
L49908 48207
L49934 48230
L49960 48278
L49960 48469
" />
<path d="M49672 47730
L49672 47969
L49934 47992
L49908 47969
L49882 47921
L49882 47802
L49908 47754
L49934 47730
L49986 47707
L50117 47707
L50170 47730
L50196 47754
L50222 47802
L50222 47921
L50196 47969
L50170 47992
" />
<path d="M53222 48983
L52960 49150
" />
<path d="M53222 49269
L52672 49269
L52672 49078
L52698 49030
L52725 49007
L52777 48983
L52855 48983
L52908 49007
L52934 49030
L52960 49078
L52960 49269
" />
<path d="M52672 48554
L52672 48650
L52698 48697
L52725 48721
L52803 48769
L52908 48792
L53117 48792
L53170 48769
L53196 48745
L53222 48697
L53222 48602
L53196 48554
L53170 48530
L53117 48507
L52986 48507
L52934 48530
L52908 48554
L52882 48602
L52882 48697
L52908 48745
L52934 48769
L52986 48792
" />
<path d="M55222 44183
L54960 44350
" />
<path d="M55222 44469
L54672 44469
L54672 44278
L54698 44230
L54725 44207
L54777 44183
L54855 44183
L54908 44207
L54934 44230
L54960 44278
L54960 44469
" />
<path d="M54672 44016
L54672 43683
L55222 43897
" />
<path d="M58222 44983
L57960 45150
" />
<path d="M58222 45269
L57672 45269
L57672 45078
L57698 45030
L57725 45007
L57777 44983
L57855 44983
L57908 45007
L57934 45030
L57960 45078
L57960 45269
" />
<path d="M57908 44697
L57882 44745
L57855 44769
L57803 44792
L57777 44792
L57725 44769
L57698 44745
L57672 44697
L57672 44602
L57698 44554
L57725 44530
L57777 44507
L57803 44507
L57855 44530
L57882 44554
L57908 44602
L57908 44697
L57934 44745
L57960 44769
L58013 44792
L58117 44792
L58170 44769
L58196 44745
L58222 44697
L58222 44602
L58196 44554
L58170 44530
L58117 44507
L58013 44507
L57960 44530
L57934 44554
L57908 44602
" />
<path d="M60316 46222
L60150 45960
" />
<path d="M60030 46222
L60030 45672
L60221 45672
L60269 45698
L60292 45725
L60316 45777
L60316 45855
L60292 45908
L60269 45934
L60221 45960
L60030 45960
" />
<path d="M60554 46222
L60650 46222
L60697 46196
L60721 46170
L60769 46091
L60792 45986
L60792 45777
L60769 45725
L60745 45698
L60697 45672
L60602 45672
L60554 45698
L60530 45725
L60507 45777
L60507 45908
L60530 45960
L60554 45986
L60602 46013
L60697 46013
L60745 45986
L60769 45960
L60792 45908
" />
<path d="M61778 48222
L61611 47960
" />
<path d="M61492 48222
L61492 47672
L61683 47672
L61730 47698
L61754 47725
L61778 47777
L61778 47855
L61754 47908
L61730 47934
L61683 47960
L61492 47960
" />
<path d="M62254 48222
L61969 48222
" />
<path d="M62111 48222
L62111 47672
L62064 47751
L62016 47803
L61969 47829
" />
<path d="M62564 47672
L62611 47672
L62659 47698
L62683 47725
L62707 47777
L62730 47882
L62730 48013
L62707 48117
L62683 48170
L62659 48196
L62611 48222
L62564 48222
L62516 48196
L62492 48170
L62469 48117
L62445 48013
L62445 47882
L62469 47777
L62492 47725
L62516 47698
L62564 47672
" />
<path d="M56014 45661
L56014 45261
L56166 45261
L56204 45280
L56223 45300
L56242 45338
L56242 45395
L56223 45433
L56204 45452
L56166 45471
L56014 45471
" />
<path d="M56623 45661
L56395 45661
" />
<path d="M56509 45661
L56509 45261
L56471 45319
L56433 45357
L56395 45376
" />
<path d="M56966 45395
L56966 45661
" />
<path d="M56871 45242
L56776 45528
L57023 45528
" />
<path d="M67222 31421
L66960 31588
" />
<path d="M67222 31707
L66672 31707
L66672 31516
L66698 31469
L66725 31445
L66777 31421
L66855 31421
L66908 31445
L66934 31469
L66960 31516
L66960 31707
" />
<path d="M67222 30945
L67222 31230
" />
<path d="M67222 31088
L66672 31088
L66751 31135
L66803 31183
L66829 31230
" />
<path d="M66725 30754
L66698 30730
L66672 30683
L66672 30564
L66698 30516
L66725 30492
L66777 30469
L66829 30469
L66908 30492
L67222 30778
L67222 30469
" />
<path d="M68222 32221
L67960 32388
" />
<path d="M68222 32507
L67672 32507
L67672 32316
L67698 32269
L67725 32245
L67777 32221
L67855 32221
L67908 32245
L67934 32269
L67960 32316
L67960 32507
" />
<path d="M68222 31745
L68222 32030
" />
<path d="M68222 31888
L67672 31888
L67751 31935
L67803 31983
L67829 32030
" />
<path d="M68222 31269
L68222 31554
" />
<path d="M68222 31411
L67672 31411
L67751 31459
L67803 31507
L67829 31554
" />
</g>
<g style="fill:#00A0A0; fill-opacity:0.0; 
stroke:#00A0A0; stroke-width:59.0551; stroke-opacity:1; 
stroke-linecap:round; stroke-linejoin:round;">
<path d="M55200 49250
L62200 49250
" />
<path d="M62200 49250
L62200 48250
" />
<path d="M62200 48250
L55200 48250
" />
<path d="M54089 49360
L54700 49360
" />
<path d="M55200 49250
L55200 48250
" />
<path d="M54700 48139
L54089 48139
" />
<path d="M54089 48139
L54089 49360
" />
<path d="M64200 49250
L69200 49250
" />
<path d="M69200 49250
L69200 48250
" />
<path d="M69200 48250
L64200 48250
" />
<path d="M63089 49360
L63700 49360
" />
<path d="M64200 49250
L64200 48250
" />
<path d="M63700 48139
L63089 48139
" />
<path d="M63089 48139
L63089 49360
" />
<path d="M51600 30250
L60600 30250
" />
<path d="M60600 30250
L60600 29250
" />
<path d="M60600 29250
L51600 29250
" />
<path d="M50489 30360
L51100 30360
" />
<path d="M51600 30250
L51600 29250
" />
<path d="M51100 29139
L50489 29139
" />
<path d="M50489 29139
L50489 30360
" />
<path d="M62200 30250
L69200 30250
" />
<path d="M69200 30250
L69200 29250
" />
<path d="M69200 29250
L62200 29250
" />
<path d="M61089 30360
L61700 30360
" />
<path d="M62200 30250
L62200 29250
" />
<path d="M61700 29139
L61089 29139
" />
<path d="M61089 29139
L61089 30360
" />
<circle cx="49200" cy="48750" r="900" /> 
<circle cx="69700" cy="46750" r="900" /> 
<circle cx="49700" cy="29750" r="900" /> 
<circle cx="69700" cy="35750" r="900" /> 
</g>
<g style="fill:#00A0A0; fill-opacity:0.0; 
stroke:#00A0A0; stroke-width:150; stroke-opacity:1; 
stroke-linecap:round; stroke-linejoin:round;">
<path d="M46500 43000
L46500 42000
" />
<circle cx="46500" cy="43000" r="559.017" /> 
<path d="M46500 40500
L46500 39500
" />
<circle cx="46500" cy="40500" r="559.017" /> 
<path d="M62000 41500
L62000 40500
" />
<circle cx="62000" cy="41500" r="559.017" /> 
<path d="M57000 42500
L58000 42500
" />
<circle cx="57000" cy="42500" r="559.017" /> 
</g>
<g style="fill:#00A0A0; fill-opacity:0.0; 
stroke:#00A0A0; stroke-width:120; stroke-opacity:1; 
stroke-linecap:round; stroke-linejoin:round;">
<path d="M45500 39500
L44500 39500
" />
<path d="M44500 44500
L45500 44500
" />
<path d="M45500 39500
L45500 44500
" />
<path d="M44500 44500
L44500 39500
" />
</g>
<g style="fill:#00A0A0; fill-opacity:0.0; 
stroke:#00A0A0; stroke-width:100; stroke-opacity:1; 
stroke-linecap:round; stroke-linejoin:round;">
<path d="M66000 32500
L66000 36500
" />
<path d="M65000 32500
L65000 36500
" />
<path d="M65000 36500
L66000 36500
" />
<path d="M66000 32500
L65000 32500
" />
<path d="M64000 32500
L64000 36500
" />
<path d="M63000 32500
L63000 36500
" />
<path d="M63000 36500
L64000 36500
" />
<path d="M64000 32500
L63000 32500
" />
<path d="M62000 32500
L62000 36500
" />
<path d="M61000 32500
L61000 36500
" />
<path d="M61000 36500
L62000 36500
" />
<path d="M62000 32500
L61000 32500
" />
<path d="M61000 42000
L61000 42500
" />
<path d="M61000 42500
L60000 42500
" />
<path d="M60000 42500
L60000 42000
" />
<path d="M61500 42000
L61500 46000
" />
<path d="M61500 46000
L59500 46000
" />
<path d="M59500 46000
L59500 42000
" />
<path d="M59500 42000
L61500 42000
" />
<path d="M50000 45000
L50500 45000
" />
<path d="M50500 45000
L50500 46000
" />
<path d="M50500 46000
L50000 46000
" />
<path d="M50000 44500
L54000 44500
" />
<path d="M54000 44500
L54000 46500
" />
<path d="M54000 46500
L50000 46500
" />
<path d="M50000 46500
L50000 44500
" />
</g>
<g style="fill:#00A0A0; fill-opacity:0.0; 
stroke:#00A0A0; stroke-width:150; stroke-opacity:1; 
stroke-linecap:round; stroke-linejoin:round;">
<path d="M58500 32500
L58500 32500
" />
<path d="M58500 32500
L58500 33000
" />
<path d="M58500 33000
L57500 33000
" />
<path d="M57500 33000
L57500 32500
" />
<path d="M59000 32500
L59000 41500
" />
<path d="M59000 41500
L57000 41500
" />
<path d="M57000 41500
L57000 32500
" />
<path d="M57000 32500
L59000 32500
" />
<path d="M51500 32500
L51500 32500
" />
<path d="M51500 32500
L51500 33000
" />
<path d="M51500 33000
L50500 33000
" />
<path d="M50500 33000
L50500 32500
" />
<path d="M52000 32500
L52000 41500
" />
<path d="M52000 41500
L50000 41500
" />
<path d="M50000 41500
L50000 32500
" />
<path d="M50000 32500
L52000 32500
" />
</g>
<g style="fill:#00A0A0; fill-opacity:0.0; 
stroke:#00A0A0; stroke-width:120; stroke-opacity:1; 
stroke-linecap:round; stroke-linejoin:round;">
<path d="M49000 38020
L49000 40000
" />
<path d="M49000 40000
L48000 40000
" />
<path d="M48000 40000
L48000 38000
" />
<path d="M48000 38000
L49000 38000
" />
<path d="M48750 38000
L49000 38250
" />
<path d="M51980 32000
L50000 32000
" />
<path d="M50000 32000
L50000 31000
" />
<path d="M50000 31000
L52000 31000
" />
<path d="M52000 31000
L52000 32000
" />
<path d="M52000 31750
L51750 32000
" />
<path d="M47500 35520
L47500 37500
" />
<path d="M47500 37500
L46500 37500
" />
<path d="M46500 37500
L46500 35500
" />
<path d="M46500 35500
L47500 35500
" />
<path d="M47250 35500
L47500 35750
" />
<path d="M49000 35520
L49000 37500
" />
<path d="M49000 37500
L48000 37500
" />
<path d="M48000 37500
L48000 35500
" />
<path d="M48000 35500
L49000 35500
" />
<path d="M48750 35500
L49000 35750
" />
<path d="M56000 33020
L56000 35000
" />
<path d="M56000 35000
L55000 35000
" />
<path d="M55000 35000
L55000 33000
" />
<path d="M55000 33000
L56000 33000
" />
<path d="M55750 33000
L56000 33250
" />
<path d="M56000 35520
L56000 37500
" />
<path d="M56000 37500
L55000 37500
" />
<path d="M55000 37500
L55000 35500
" />
<path d="M55000 35500
L56000 35500
" />
<path d="M55750 35500
L56000 35750
" />
<path d="M54500 35520
L54500 37500
" />
<path d="M54500 37500
L53500 37500
" />
<path d="M53500 37500
L53500 35500
" />
<path d="M53500 35500
L54500 35500
" />
<path d="M54250 35500
L54500 35750
" />
<path d="M56000 38020
L56000 40000
" />
<path d="M56000 40000
L55000 40000
" />
<path d="M55000 40000
L55000 38000
" />
<path d="M55000 38000
L56000 38000
" />
<path d="M55750 38000
L56000 38250
" />
<path d="M58980 32000
L57000 32000
" />
<path d="M57000 32000
L57000 31000
" />
<path d="M57000 31000
L59000 31000
" />
<path d="M59000 31000
L59000 32000
" />
<path d="M59000 31750
L58750 32000
" />
<path d="M49000 33020
L49000 35000
" />
<path d="M49000 35000
L48000 35000
" />
<path d="M48000 35000
L48000 33000
" />
<path d="M48000 33000
L49000 33000
" />
<path d="M48750 33000
L49000 33250
" />
</g>
<g style="fill:#00A0A0; fill-opacity:0.0; 
stroke:#00A0A0; stroke-width:100; stroke-opacity:1; 
stroke-linecap:round; stroke-linejoin:round;">
<path d="M70000 44500
L70300 44500
" />
<path d="M70300 44500
L70300 40500
" />
<path d="M70300 40500
L70000 40500
" />
<path d="M66700 44500
L66700 40500
" />
<path d="M66700 40500
L67100 40500
" />
<path d="M67100 40500
L67100 44500
" />
<path d="M67100 44500
L66700 44500
" />
<path d="M67000 44500
L70000 44500
" />
<path d="M70000 40500
L67000 40500
" />
</g>
<g style="fill:#00A0A0; fill-opacity:0.0; 
stroke:#00A0A0; stroke-width:59.0551; stroke-opacity:1; 
stroke-linecap:round; stroke-linejoin:round;">
<path d="M63712 46240
L63712 38759
" />
<path d="M63712 38759
L66173 38759
" />
<path d="M66173 38759
L66173 46240
" />
<path d="M66173 46240
L63712 46240
" />
<path d="M63712 46240
L63712 46279
" />
</g>
<g style="fill:#00A0A0; fill-opacity:0.0; 
stroke:#00A0A0; stroke-width:150; stroke-opacity:1; 
stroke-linecap:round; stroke-linejoin:round;">
<path d="M51000 48000
L51000 49000
" />
<circle cx="51000" cy="48000" r="559.017" /> 
<path d="M52000 49000
L52000 48000
" />
<circle cx="52000" cy="49000" r="559.017" /> 
<path d="M56000 44000
L56000 45000
" />
<circle cx="56000" cy="44000" r="559.017" /> 
<path d="M57000 45000
L57000 44000
" />
<circle cx="57000" cy="45000" r="559.017" /> 
<path d="M60500 47000
L59500 47000
" />
<circle cx="60500" cy="47000" r="559.017" /> 
<path d="M62000 47000
L63000 47000
" />
<circle cx="62000" cy="47000" r="559.017" /> 
</g>
<g style="fill:#00A0A0; fill-opacity:0.0; 
stroke:#00A0A0; stroke-width:100; stroke-opacity:1; 
stroke-linecap:round; stroke-linejoin:round;">
<path d="M58500 47000
L54500 47000
" />
<path d="M58500 46000
L54500 46000
" />
<path d="M54500 46000
L54500 47000
" />
<path d="M58500 47000
L58500 46000
" />
</g>
<g style="fill:#00A0A0; fill-opacity:0.0; 
stroke:#00A0A0; stroke-width:150; stroke-opacity:1; 
stroke-linecap:round; stroke-linejoin:round;">
<path d="M68000 31000
L68000 32000
" />
<circle cx="68000" cy="31000" r="559.017" /> 
<path d="M67000 32000
L67000 31000
" />
<circle cx="67000" cy="32000" r="559.017" /> 
</g>
<g style="fill:#808000; fill-opacity:0.0; 
stroke:#808000; stroke-width:680; stroke-opacity:1; 
stroke-linecap:round; stroke-linejoin:round;">
<path d="M54700 48690
L54700 48810
" />
<path d="M55700 48690
L55700 48810
" />
<path d="M56700 48690
L56700 48810
" />
<path d="M57700 48690
L57700 48810
" />
<path d="M58700 48690
L58700 48810
" />
<path d="M59700 48690
L59700 48810
" />
<path d="M60700 48690
L60700 48810
" />
<path d="M61700 48690
L61700 48810
" />
<path d="M63700 48690
L63700 48810
" />
<path d="M64700 48690
L64700 48810
" />
<path d="M65700 48690
L65700 48810
" />
<path d="M66700 48690
L66700 48810
" />
<path d="M67700 48690
L67700 48810
" />
<path d="M68700 48690
L68700 48810
" />
<path d="M51100 29690
L51100 29810
" />
<path d="M52100 29690
L52100 29810
" />
<path d="M53100 29690
L53100 29810
" />
<path d="M54100 29690
L54100 29810
" />
<path d="M55100 29690
L55100 29810
" />
<path d="M56100 29690
L56100 29810
" />
<path d="M57100 29690
L57100 29810
" />
<path d="M58100 29690
L58100 29810
" />
<path d="M59100 29690
L59100 29810
" />
<path d="M60100 29690
L60100 29810
" />
<path d="M61700 29690
L61700 29810
" />
<path d="M62700 29690
L62700 29810
" />
<path d="M63700 29690
L63700 29810
" />
<path d="M64700 29690
L64700 29810
" />
<path d="M65700 29690
L65700 29810
" />
<path d="M66700 29690
L66700 29810
" />
<path d="M67700 29690
L67700 29810
" />
<path d="M68700 29690
L68700 29810
" />
</g>
<g style="fill:#808000; fill-opacity:0.0; 
stroke:#808000; stroke-width:39.3701; stroke-opacity:1; 
stroke-linecap:round; stroke-linejoin:round;">
</g>
<g style="fill:#808000; fill-opacity:1.0; 
stroke:#808000; stroke-width:39.3701; stroke-opacity:1; 
stroke-linecap:round; stroke-linejoin:round;">
<circle cx="49200" cy="48750" r="780.315" /> 
<circle cx="69700" cy="46750" r="780.315" /> 
<circle cx="49700" cy="29750" r="780.315" /> 
<circle cx="69700" cy="35750" r="780.315" /> 
<circle cx="46500" cy="43000" r="255.315" /> 
<circle cx="46500" cy="42000" r="255.315" /> 
<circle cx="46500" cy="40500" r="255.315" /> 
<circle cx="46500" cy="39500" r="255.315" /> 
<circle cx="62000" cy="41500" r="255.315" /> 
<circle cx="62000" cy="40500" r="255.315" /> 
<circle cx="57000" cy="42500" r="255.315" /> 
<circle cx="58000" cy="42500" r="255.315" /> 
<polyline style="fill-rule:evenodd;"
points="44719,39719
45280,39719
45280,40280
44719,40280
44719,39719
" /> 
<circle cx="45000" cy="41000" r="280.315" /> 
<circle cx="45000" cy="42000" r="280.315" /> 
<circle cx="45000" cy="43000" r="280.315" /> 
<circle cx="45000" cy="44000" r="280.315" /> 
<polyline style="fill-rule:evenodd;"
points="65780,36280
65219,36280
65219,35719
65780,35719
65780,36280
" /> 
<circle cx="65500" cy="35000" r="280.315" /> 
<circle cx="65500" cy="34000" r="280.315" /> 
<circle cx="65500" cy="33000" r="280.315" /> 
<polyline style="fill-rule:evenodd;"
points="63780,36280
63219,36280
63219,35719
63780,35719
63780,36280
" /> 
<circle cx="63500" cy="35000" r="280.315" /> 
<circle cx="63500" cy="34000" r="280.315" /> 
<circle cx="63500" cy="33000" r="280.315" /> 
<polyline style="fill-rule:evenodd;"
points="61780,36280
61219,36280
61219,35719
61780,35719
61780,36280
" /> 
<circle cx="61500" cy="35000" r="280.315" /> 
<circle cx="61500" cy="34000" r="280.315" /> 
<circle cx="61500" cy="33000" r="280.315" /> 
<polyline style="fill-rule:evenodd;"
points="58744,42244
59255,42244
59255,42755
58744,42755
58744,42244
" /> 
<circle cx="59000" cy="43500" r="255.315" /> 
<circle cx="59000" cy="44500" r="255.315" /> 
<circle cx="59000" cy="45500" r="255.315" /> 
<circle cx="62000" cy="45500" r="255.315" /> 
<circle cx="62000" cy="44500" r="255.315" /> 
<circle cx="62000" cy="43500" r="255.315" /> 
<circle cx="62000" cy="42500" r="255.315" /> 
<polyline style="fill-rule:evenodd;"
points="50244,47255
50244,46744
50755,46744
50755,47255
50244,47255
" /> 
<circle cx="51500" cy="47000" r="255.315" /> 
<circle cx="52500" cy="47000" r="255.315" /> 
<circle cx="53500" cy="47000" r="255.315" /> 
<circle cx="53500" cy="44000" r="255.315" /> 
<circle cx="52500" cy="44000" r="255.315" /> 
<circle cx="51500" cy="44000" r="255.315" /> 
<circle cx="50500" cy="44000" r="255.315" /> 
<polyline style="fill-rule:evenodd;"
points="56244,33244
56755,33244
56755,33755
56244,33755
56244,33244
" /> 
<circle cx="56500" cy="34500" r="255.315" /> 
<circle cx="56500" cy="35500" r="255.315" /> 
<circle cx="56500" cy="36500" r="255.315" /> 
<circle cx="56500" cy="37500" r="255.315" /> 
<circle cx="56500" cy="38500" r="255.315" /> 
<circle cx="56500" cy="39500" r="255.315" /> 
<circle cx="56500" cy="40500" r="255.315" /> 
<circle cx="59500" cy="40500" r="255.315" /> 
<circle cx="59500" cy="39500" r="255.315" /> 
<circle cx="59500" cy="38500" r="255.315" /> 
<circle cx="59500" cy="37500" r="255.315" /> 
<circle cx="59500" cy="36500" r="255.315" /> 
<circle cx="59500" cy="35500" r="255.315" /> 
<circle cx="59500" cy="34500" r="255.315" /> 
<circle cx="59500" cy="33500" r="255.315" /> 
<polyline style="fill-rule:evenodd;"
points="49244,33244
49755,33244
49755,33755
49244,33755
49244,33244
" /> 
<circle cx="49500" cy="34500" r="255.315" /> 
<circle cx="49500" cy="35500" r="255.315" /> 
<circle cx="49500" cy="36500" r="255.315" /> 
<circle cx="49500" cy="37500" r="255.315" /> 
<circle cx="49500" cy="38500" r="255.315" /> 
<circle cx="49500" cy="39500" r="255.315" /> 
<circle cx="49500" cy="40500" r="255.315" /> 
<circle cx="52500" cy="40500" r="255.315" /> 
<circle cx="52500" cy="39500" r="255.315" /> 
<circle cx="52500" cy="38500" r="255.315" /> 
<circle cx="52500" cy="37500" r="255.315" /> 
<circle cx="52500" cy="36500" r="255.315" /> 
<circle cx="52500" cy="35500" r="255.315" /> 
<circle cx="52500" cy="34500" r="255.315" /> 
<circle cx="52500" cy="33500" r="255.315" /> 
<circle cx="48500" cy="38500" r="255.315" /> 
<circle cx="48500" cy="39500" r="255.315" /> 
<circle cx="51500" cy="31500" r="255.315" /> 
<circle cx="50500" cy="31500" r="255.315" /> 
<circle cx="47000" cy="36000" r="255.315" /> 
<circle cx="47000" cy="37000" r="255.315" /> 
<circle cx="48500" cy="36000" r="255.315" /> 
<circle cx="48500" cy="37000" r="255.315" /> 
<circle cx="55500" cy="33500" r="255.315" /> 
<circle cx="55500" cy="34500" r="255.315" /> 
<circle cx="55500" cy="36000" r="255.315" /> 
<circle cx="55500" cy="37000" r="255.315" /> 
<circle cx="54000" cy="36000" r="255.315" /> 
<circle cx="54000" cy="37000" r="255.315" /> 
<circle cx="55500" cy="38500" r="255.315" /> 
<circle cx="55500" cy="39500" r="255.315" /> 
<circle cx="58500" cy="31500" r="255.315" /> 
<circle cx="57500" cy="31500" r="255.315" /> 
<circle cx="48500" cy="33500" r="255.315" /> 
<circle cx="48500" cy="34500" r="255.315" /> 
<polyline style="fill-rule:evenodd;"
points="67929,40929
69070,40929
69070,42070
67929,42070
67929,40929
" /> 
<circle cx="68500" cy="43500" r="570.815" /> 
<polyline style="fill-rule:evenodd;"
points="64980,45992
64019,45992
64019,45031
64980,45031
64980,45992
" /> 
<circle cx="64500" cy="43503.9" r="480.315" /> 
<circle cx="64500" cy="41496.1" r="480.315" /> 
<circle cx="64500" cy="39488.2" r="480.315" /> 
<circle cx="51000" cy="48000" r="255.315" /> 
<circle cx="51000" cy="49000" r="255.315" /> 
<circle cx="52000" cy="49000" r="255.315" /> 
<circle cx="52000" cy="48000" r="255.315" /> 
<circle cx="56000" cy="44000" r="255.315" /> 
<circle cx="56000" cy="45000" r="255.315" /> 
<circle cx="57000" cy="45000" r="255.315" /> 
<circle cx="57000" cy="44000" r="255.315" /> 
<circle cx="60500" cy="47000" r="255.315" /> 
<circle cx="59500" cy="47000" r="255.315" /> 
<circle cx="62000" cy="47000" r="255.315" /> 
<circle cx="63000" cy="47000" r="255.315" /> 
<polyline style="fill-rule:evenodd;"
points="54719,46780
54719,46219
55280,46219
55280,46780
54719,46780
" /> 
<circle cx="56000" cy="46500" r="280.315" /> 
<circle cx="57000" cy="46500" r="280.315" /> 
<circle cx="58000" cy="46500" r="280.315" /> 
<circle cx="68000" cy="31000" r="255.315" /> 
<circle cx="68000" cy="32000" r="255.315" /> 
<circle cx="67000" cy="32000" r="255.315" /> 
<circle cx="67000" cy="31000" r="255.315" /> 
</g> 
</svg>
