<?xml version="1.0" standalone="no"?>
 <!DOCTYPE svg PUBLIC "-//W3C//DTD SVG 1.1//EN" 
 "http://www.w3.org/Graphics/SVG/1.1/DTD/svg11.dtd"> 
<svg xmlns="http://www.w3.org/2000/svg" version="1.1" 
    width="7.96798cm" height="5.7023cm" viewBox="0 0 31370 22450 ">
<title>SVG Picture created as STM32ShieldForMetroMiniSlaves-F_SilkS.svg date 2018/07/31 13:15:30 </title>
  <desc>Picture generated by PCBNEW </desc>
<g style="fill:#000000; fill-opacity:1;stroke:#000000; stroke-opacity:1;
stroke-linecap:round; stroke-linejoin:round; "
 transform="translate(0 0) scale(1 1)">
</g>
<g style="fill:#00A0A0; fill-opacity:0.0; 
stroke:#00A0A0; stroke-width:59.0551; stroke-opacity:1; 
stroke-linecap:round; stroke-linejoin:round;">
<path d="M13688 19437
L13688 19662
" />
<path d="M13688 19550
L13295 19550
L13351 19587
L13388 19624
L13407 19662
" />
</g>
<g style="fill:#FFFF00; fill-opacity:0.0; 
stroke:#FFFF00; stroke-width:59.0551; stroke-opacity:1; 
stroke-linecap:round; stroke-linejoin:round;">
<path d="M28529 1150
L27929 550
" />
<path d="M28529 5650
L28529 1150
" />
<path d="M29529 6650
L28529 5650
" />
<path d="M29529 19550
L29529 6650
" />
<path d="M28529 20550
L29529 19550
" />
<path d="M28529 21550
L28529 20550
" />
<path d="M2529 21550
L28529 21550
" />
<path d="M2529 550
L2529 21550
" />
<path d="M27929 550
L2529 550
" />
</g>
<g style="fill:#00A0A0; fill-opacity:0.0; 
stroke:#00A0A0; stroke-width:59.0551; stroke-opacity:1; 
stroke-linecap:round; stroke-linejoin:round;">
<path d="M16738 19709
L16738 19315
L16888 19315
L16926 19334
L16945 19353
L16963 19390
L16963 19446
L16945 19484
L16926 19503
L16888 19521
L16738 19521
" />
<path d="M17338 19709
L17113 19709
" />
<path d="M17226 19709
L17226 19315
L17188 19371
L17151 19409
L17113 19428
" />
<path d="M16251 19109
L16251 18715
L16401 18715
L16438 18734
L16457 18753
L16476 18790
L16476 18846
L16457 18884
L16438 18903
L16401 18921
L16251 18921
" />
<path d="M16701 19109
L16663 19090
L16645 19071
L16626 19034
L16626 18921
L16645 18884
L16663 18865
L16701 18846
L16757 18846
L16795 18865
L16813 18884
L16832 18921
L16832 19034
L16813 19071
L16795 19090
L16757 19109
L16701 19109
" />
<path d="M16963 18846
L17038 19109
L17113 18921
L17188 19109
L17263 18846
" />
<path d="M17563 19090
L17526 19109
L17451 19109
L17413 19090
L17395 19053
L17395 18903
L17413 18865
L17451 18846
L17526 18846
L17563 18865
L17582 18903
L17582 18940
L17395 18978
" />
<path d="M17751 19109
L17751 18846
" />
<path d="M17751 18921
L17770 18884
L17788 18865
L17826 18846
L17863 18846
" />
<path d="M24838 19709
L24838 19315
L24988 19315
L25026 19334
L25045 19353
L25063 19390
L25063 19446
L25045 19484
L25026 19503
L24988 19521
L24838 19521
" />
<path d="M25213 19353
L25232 19334
L25270 19315
L25363 19315
L25401 19334
L25420 19353
L25438 19390
L25438 19428
L25420 19484
L25195 19709
L25438 19709
" />
<path d="M24220 18996
L24407 18996
" />
<path d="M24182 19109
L24314 18715
L24445 19109
" />
<path d="M24576 18846
L24576 19109
" />
<path d="M24576 18884
L24595 18865
L24632 18846
L24688 18846
L24726 18865
L24745 18903
L24745 19109
" />
<path d="M25101 19109
L25101 18903
L25082 18865
L25045 18846
L24970 18846
L24932 18865
" />
<path d="M25101 19090
L25063 19109
L24970 19109
L24932 19090
L24913 19053
L24913 19015
L24932 18978
L24970 18959
L25063 18959
L25101 18940
" />
<path d="M25345 19109
L25307 19090
L25288 19053
L25288 18715
" />
<path d="M25551 19109
L25513 19090
L25495 19071
L25476 19034
L25476 18921
L25495 18884
L25513 18865
L25551 18846
L25607 18846
L25645 18865
L25663 18884
L25682 18921
L25682 19034
L25663 19071
L25645 19090
L25607 19109
L25551 19109
" />
<path d="M26020 18846
L26020 19165
L26001 19203
L25982 19221
L25945 19240
L25888 19240
L25851 19221
" />
<path d="M26020 19090
L25982 19109
L25907 19109
L25870 19090
L25851 19071
L25832 19034
L25832 18921
L25851 18884
L25870 18865
L25907 18846
L25982 18846
L26020 18865
" />
<path d="M14138 2809
L14138 2415
L14288 2415
L14326 2434
L14345 2453
L14363 2490
L14363 2546
L14345 2584
L14326 2603
L14288 2621
L14138 2621
" />
<path d="M14495 2415
L14738 2415
L14607 2565
L14663 2565
L14701 2584
L14720 2603
L14738 2640
L14738 2734
L14720 2771
L14701 2790
L14663 2809
L14551 2809
L14513 2790
L14495 2771
" />
<path d="M13567 3409
L13567 3015
L13660 3015
L13717 3034
L13754 3071
L13773 3109
L13792 3184
L13792 3240
L13773 3315
L13754 3353
L13717 3390
L13660 3409
L13567 3409
" />
<path d="M13960 3409
L13960 3146
" />
<path d="M13960 3015
L13942 3034
L13960 3053
L13979 3034
L13960 3015
L13960 3053
" />
<path d="M14317 3146
L14317 3465
L14298 3503
L14279 3521
L14242 3540
L14185 3540
L14148 3521
" />
<path d="M14317 3390
L14279 3409
L14204 3409
L14167 3390
L14148 3371
L14129 3334
L14129 3221
L14148 3184
L14167 3165
L14204 3146
L14279 3146
L14317 3165
" />
<path d="M14504 3409
L14504 3146
" />
<path d="M14504 3015
L14485 3034
L14504 3053
L14523 3034
L14504 3015
L14504 3053
" />
<path d="M14635 3146
L14785 3146
" />
<path d="M14691 3015
L14691 3353
L14710 3390
L14748 3409
L14785 3409
" />
<path d="M15085 3409
L15085 3203
L15066 3165
L15029 3146
L14954 3146
L14916 3165
" />
<path d="M15085 3390
L15048 3409
L14954 3409
L14916 3390
L14898 3353
L14898 3315
L14916 3278
L14954 3259
L15048 3259
L15085 3240
" />
<path d="M15329 3409
L15291 3390
L15273 3353
L15273 3015
" />
<path d="M23738 2809
L23738 2415
L23888 2415
L23926 2434
L23945 2453
L23963 2490
L23963 2546
L23945 2584
L23926 2603
L23888 2621
L23738 2621
" />
<path d="M24301 2546
L24301 2809
" />
<path d="M24207 2396
L24113 2678
L24357 2678
" />
<path d="M23167 3409
L23167 3015
L23260 3015
L23317 3034
L23354 3071
L23373 3109
L23392 3184
L23392 3240
L23373 3315
L23354 3353
L23317 3390
L23260 3409
L23167 3409
" />
<path d="M23560 3409
L23560 3146
" />
<path d="M23560 3015
L23542 3034
L23560 3053
L23579 3034
L23560 3015
L23560 3053
" />
<path d="M23917 3146
L23917 3465
L23898 3503
L23879 3521
L23842 3540
L23785 3540
L23748 3521
" />
<path d="M23917 3390
L23879 3409
L23804 3409
L23767 3390
L23748 3371
L23729 3334
L23729 3221
L23748 3184
L23767 3165
L23804 3146
L23879 3146
L23917 3165
" />
<path d="M24104 3409
L24104 3146
" />
<path d="M24104 3015
L24085 3034
L24104 3053
L24123 3034
L24104 3015
L24104 3053
" />
<path d="M24235 3146
L24385 3146
" />
<path d="M24291 3015
L24291 3353
L24310 3390
L24348 3409
L24385 3409
" />
<path d="M24685 3409
L24685 3203
L24666 3165
L24629 3146
L24554 3146
L24516 3165
" />
<path d="M24685 3390
L24648 3409
L24554 3409
L24516 3390
L24498 3353
L24498 3315
L24516 3278
L24554 3259
L24648 3259
L24685 3240
" />
<path d="M24929 3409
L24891 3390
L24873 3353
L24873 3015
" />
</g>
<g style="fill:#00A0A0; fill-opacity:0.0; 
stroke:#00A0A0; stroke-width:40; stroke-opacity:1; 
stroke-linecap:round; stroke-linejoin:round;">
<path d="M6180 14978
L6180 15026
L6192 15050
L6204 15061
L6240 15085
L6287 15097
L6383 15097
L6406 15085
L6418 15073
L6430 15050
L6430 15002
L6418 14978
L6406 14966
L6383 14954
L6323 14954
L6299 14966
L6287 14978
L6275 15002
L6275 15050
L6287 15073
L6299 15085
L6323 15097
" />
<path d="M6180 14800
L6180 14776
L6192 14752
L6204 14740
L6228 14728
L6275 14716
L6335 14716
L6383 14728
L6406 14740
L6418 14752
L6430 14776
L6430 14800
L6418 14823
L6406 14835
L6383 14847
L6335 14859
L6275 14859
L6228 14847
L6204 14835
L6192 14823
L6180 14800
" />
<path d="M6180 14371
L6180 14323
L6192 14300
L6216 14276
L6264 14264
L6347 14264
L6395 14276
L6418 14300
L6430 14323
L6430 14371
L6418 14395
L6395 14419
L6347 14430
L6264 14430
L6216 14419
L6192 14395
L6180 14371
" />
<path d="M6430 14157
L6180 14157
" />
<path d="M6430 14050
L6299 14050
L6275 14061
L6264 14085
L6264 14121
L6275 14145
L6287 14157
" />
<path d="M6430 13930
L6264 13930
" />
<path d="M6287 13930
L6275 13919
L6264 13895
L6264 13859
L6275 13835
L6299 13823
L6430 13823
" />
<path d="M6299 13823
L6275 13811
L6264 13788
L6264 13752
L6275 13728
L6299 13716
L6430 13716
" />
<path d="M6418 13609
L6430 13585
L6430 13538
L6418 13514
L6395 13502
L6383 13502
L6359 13514
L6347 13538
L6347 13573
L6335 13597
L6311 13609
L6299 13609
L6275 13597
L6264 13573
L6264 13538
L6275 13514
" />
<path d="M6180 12478
L6180 12526
L6192 12550
L6204 12561
L6240 12585
L6287 12597
L6383 12597
L6406 12585
L6418 12573
L6430 12550
L6430 12502
L6418 12478
L6406 12466
L6383 12454
L6323 12454
L6299 12466
L6287 12478
L6275 12502
L6275 12550
L6287 12573
L6299 12585
L6323 12597
" />
<path d="M6180 12300
L6180 12276
L6192 12252
L6204 12240
L6228 12228
L6275 12216
L6335 12216
L6383 12228
L6406 12240
L6418 12252
L6430 12276
L6430 12300
L6418 12323
L6406 12335
L6383 12347
L6335 12359
L6275 12359
L6228 12347
L6204 12335
L6192 12323
L6180 12300
" />
<path d="M6180 11871
L6180 11823
L6192 11800
L6216 11776
L6264 11764
L6347 11764
L6395 11776
L6418 11800
L6430 11823
L6430 11871
L6418 11895
L6395 11919
L6347 11930
L6264 11930
L6216 11919
L6192 11895
L6180 11871
" />
<path d="M6430 11657
L6180 11657
" />
<path d="M6430 11550
L6299 11550
L6275 11561
L6264 11585
L6264 11621
L6275 11645
L6287 11657
" />
<path d="M6430 11430
L6264 11430
" />
<path d="M6287 11430
L6275 11419
L6264 11395
L6264 11359
L6275 11335
L6299 11323
L6430 11323
" />
<path d="M6299 11323
L6275 11311
L6264 11288
L6264 11252
L6275 11228
L6299 11216
L6430 11216
" />
<path d="M6418 11109
L6430 11085
L6430 11038
L6418 11014
L6395 11002
L6383 11002
L6359 11014
L6347 11038
L6347 11073
L6335 11097
L6311 11109
L6299 11109
L6275 11097
L6264 11073
L6264 11038
L6275 11014
" />
<path d="M21930 13579
L21930 13722
" />
<path d="M21930 13651
L21680 13651
L21716 13675
L21740 13698
L21752 13722
" />
<path d="M21680 13425
L21680 13401
L21692 13377
L21704 13365
L21728 13353
L21775 13341
L21835 13341
L21883 13353
L21906 13365
L21918 13377
L21930 13401
L21930 13425
L21918 13448
L21906 13460
L21883 13472
L21835 13484
L21775 13484
L21728 13472
L21704 13460
L21692 13448
L21680 13425
" />
<path d="M21930 13234
L21680 13234
" />
<path d="M21930 13091
L21787 13198
" />
<path d="M21680 13091
L21823 13234
" />
<path d="M21680 12746
L21680 12698
L21692 12675
L21716 12651
L21764 12639
L21847 12639
L21895 12651
L21918 12675
L21930 12698
L21930 12746
L21918 12770
L21895 12794
L21847 12805
L21764 12805
L21716 12794
L21692 12770
L21680 12746
" />
<path d="M21930 12532
L21680 12532
" />
<path d="M21930 12425
L21799 12425
L21775 12436
L21764 12460
L21764 12496
L21775 12520
L21787 12532
" />
<path d="M21930 12305
L21764 12305
" />
<path d="M21787 12305
L21775 12294
L21764 12270
L21764 12234
L21775 12210
L21799 12198
L21930 12198
" />
<path d="M21799 12198
L21775 12186
L21764 12163
L21764 12127
L21775 12103
L21799 12091
L21930 12091
" />
<path d="M21918 11984
L21930 11960
L21930 11913
L21918 11889
L21895 11877
L21883 11877
L21859 11889
L21847 11913
L21847 11948
L21835 11972
L21811 11984
L21799 11984
L21775 11972
L21764 11948
L21764 11913
L21775 11889
" />
<path d="M15674 15401
L15531 15401
" />
<path d="M15603 15401
L15603 15151
L15579 15186
L15555 15210
L15531 15222
" />
<path d="M15829 15151
L15853 15151
L15877 15163
L15889 15175
L15900 15198
L15912 15246
L15912 15305
L15900 15353
L15889 15377
L15877 15389
L15853 15401
L15829 15401
L15805 15389
L15793 15377
L15781 15353
L15770 15305
L15770 15246
L15781 15198
L15793 15175
L15805 15163
L15829 15151
" />
<path d="M16258 15151
L16305 15151
L16329 15163
L16353 15186
L16365 15234
L16365 15317
L16353 15365
L16329 15389
L16305 15401
L16258 15401
L16234 15389
L16210 15365
L16198 15317
L16198 15234
L16210 15186
L16234 15163
L16258 15151
" />
<path d="M16472 15401
L16472 15151
" />
<path d="M16579 15401
L16579 15270
L16567 15246
L16543 15234
L16508 15234
L16484 15246
L16472 15258
" />
<path d="M16698 15401
L16698 15234
" />
<path d="M16698 15258
L16710 15246
L16734 15234
L16770 15234
L16793 15246
L16805 15270
L16805 15401
" />
<path d="M16805 15270
L16817 15246
L16841 15234
L16877 15234
L16900 15246
L16912 15270
L16912 15401
" />
<path d="M17020 15389
L17043 15401
L17091 15401
L17115 15389
L17127 15365
L17127 15353
L17115 15329
L17091 15317
L17055 15317
L17031 15305
L17020 15282
L17020 15270
L17031 15246
L17055 15234
L17091 15234
L17115 15246
" />
</g>
<g style="fill:#00A0A0; fill-opacity:0.0; 
stroke:#00A0A0; stroke-width:80; stroke-opacity:1; 
stroke-linecap:round; stroke-linejoin:round;">
<path d="M2877 15933
L2877 15742
" />
<path d="M2991 15971
L2591 15838
L2991 15704
" />
<path d="M2781 15438
L2800 15380
L2820 15361
L2858 15342
L2915 15342
L2953 15361
L2972 15380
L2991 15419
L2991 15571
L2591 15571
L2591 15438
L2610 15399
L2629 15380
L2667 15361
L2705 15361
L2743 15380
L2762 15399
L2781 15438
L2781 15571
" />
<path d="M2972 15190
L2991 15133
L2991 15038
L2972 14999
L2953 14980
L2915 14961
L2877 14961
L2839 14980
L2820 14999
L2800 15038
L2781 15114
L2762 15152
L2743 15171
L2705 15190
L2667 15190
L2629 15171
L2610 15152
L2591 15114
L2591 15019
L2610 14961
" />
<path d="M2972 14504
L2991 14447
L2991 14352
L2972 14314
L2953 14295
L2915 14276
L2877 14276
L2839 14295
L2820 14314
L2800 14352
L2781 14428
L2762 14466
L2743 14485
L2705 14504
L2667 14504
L2629 14485
L2610 14466
L2591 14428
L2591 14333
L2610 14276
" />
<path d="M2991 14047
L2972 14085
L2934 14104
L2591 14104
" />
<path d="M2991 13723
L2781 13723
L2743 13742
L2724 13780
L2724 13857
L2743 13895
" />
<path d="M2972 13723
L2991 13761
L2991 13857
L2972 13895
L2934 13914
L2896 13914
L2858 13895
L2839 13857
L2839 13761
L2820 13723
" />
<path d="M2724 13571
L2991 13476
L2724 13380
" />
<path d="M2972 13076
L2991 13114
L2991 13190
L2972 13228
L2934 13247
L2781 13247
L2743 13228
L2724 13190
L2724 13114
L2743 13076
L2781 13057
L2820 13057
L2858 13247
" />
<path d="M2781 12447
L2800 12390
L2820 12371
L2858 12352
L2915 12352
L2953 12371
L2972 12390
L2991 12428
L2991 12580
L2591 12580
L2591 12447
L2610 12409
L2629 12390
L2667 12371
L2705 12371
L2743 12390
L2762 12409
L2781 12447
L2781 12580
" />
<path d="M2724 12009
L2991 12009
" />
<path d="M2724 12180
L2934 12180
L2972 12161
L2991 12123
L2991 12066
L2972 12028
L2953 12009
" />
<path d="M2972 11838
L2991 11800
L2991 11723
L2972 11685
L2934 11666
L2915 11666
L2877 11685
L2858 11723
L2858 11780
L2839 11819
L2800 11838
L2781 11838
L2743 11819
L2724 11780
L2724 11723
L2743 11685
" />
<path d="M25091 10147
L25491 10052
L25205 9976
L25491 9899
L25091 9804
" />
<path d="M25472 9499
L25491 9538
L25491 9614
L25472 9652
L25434 9671
L25281 9671
L25243 9652
L25224 9614
L25224 9538
L25243 9499
L25281 9480
L25320 9480
L25358 9671
" />
<path d="M25472 9328
L25491 9290
L25491 9214
L25472 9176
L25434 9157
L25415 9157
L25377 9176
L25358 9214
L25358 9271
L25339 9309
L25300 9328
L25281 9328
L25243 9309
L25224 9271
L25224 9214
L25243 9176
" />
<path d="M25224 9042
L25224 8890
" />
<path d="M25091 8985
L25434 8985
L25472 8966
L25491 8928
L25491 8890
" />
<path d="M25491 8452
L25091 8452
L25091 8357
L25110 8300
L25148 8261
L25186 8242
L25262 8223
L25320 8223
L25396 8242
L25434 8261
L25472 8300
L25491 8357
L25491 8452
" />
<path d="M25491 8052
L25224 8052
" />
<path d="M25091 8052
L25110 8071
L25129 8052
L25110 8033
L25091 8052
L25129 8052
" />
<path d="M25224 7899
L25491 7804
L25224 7709
" />
<path d="M25453 7557
L25472 7538
L25491 7557
L25472 7576
L25453 7557
L25491 7557
" />
<path d="M25643 6947
L25624 6966
L25567 7004
L25529 7023
L25472 7042
L25377 7061
L25300 7061
L25205 7042
L25148 7023
L25110 7004
L25053 6966
L25034 6947
" />
<path d="M25281 6661
L25281 6795
" />
<path d="M25491 6795
L25091 6795
L25091 6604
" />
<path d="M25491 6452
L25224 6452
" />
<path d="M25300 6452
L25262 6433
L25243 6414
L25224 6376
L25224 6338
" />
<path d="M25491 6147
L25472 6185
L25453 6204
L25415 6223
L25300 6223
L25262 6204
L25243 6185
L25224 6147
L25224 6090
L25243 6052
L25262 6033
L25300 6014
L25415 6014
L25453 6033
L25472 6052
L25491 6090
L25491 6147
" />
<path d="M25224 5671
L25548 5671
L25586 5690
L25605 5709
L25624 5747
L25624 5804
L25605 5842
" />
<path d="M25472 5671
L25491 5709
L25491 5785
L25472 5823
L25453 5842
L25415 5861
L25300 5861
L25262 5842
L25243 5823
L25224 5785
L25224 5709
L25243 5671
" />
<path d="M25472 5461
L25491 5461
L25529 5480
L25548 5500
" />
<path d="M25491 4757
L25300 4890
" />
<path d="M25491 4985
L25091 4985
L25091 4833
L25110 4795
L25129 4776
L25167 4757
L25224 4757
L25262 4776
L25281 4795
L25300 4833
L25300 4985
" />
<path d="M25472 4433
L25491 4471
L25491 4547
L25472 4585
L25434 4604
L25281 4604
L25243 4585
L25224 4547
L25224 4471
L25243 4433
L25281 4414
L25320 4414
L25358 4604
" />
<path d="M25224 4280
L25491 4185
L25224 4090
" />
<path d="M25472 3785
L25491 3823
L25491 3900
L25472 3938
L25434 3957
L25281 3957
L25243 3938
L25224 3900
L25224 3823
L25243 3785
L25281 3766
L25320 3766
L25358 3957
" />
<path d="M25472 3614
L25491 3576
L25491 3500
L25472 3461
L25434 3442
L25415 3442
L25377 3461
L25358 3500
L25358 3557
L25339 3595
L25300 3614
L25281 3614
L25243 3595
L25224 3557
L25224 3500
L25243 3461
" />
<path d="M25472 3119
L25491 3157
L25491 3233
L25472 3271
L25434 3290
L25281 3290
L25243 3271
L25224 3233
L25224 3157
L25243 3119
L25281 3100
L25320 3100
L25358 3290
" />
<path d="M25491 2757
L25091 2757
" />
<path d="M25472 2757
L25491 2795
L25491 2871
L25472 2909
L25453 2928
L25415 2947
L25300 2947
L25262 2928
L25243 2909
L25224 2871
L25224 2795
L25243 2757
" />
<path d="M25643 2604
L25624 2585
L25567 2547
L25529 2528
L25472 2509
L25377 2490
L25300 2490
L25205 2509
L25148 2528
L25110 2547
L25053 2585
L25034 2604
" />
<path d="M23091 10147
L23491 10052
L23205 9976
L23491 9899
L23091 9804
" />
<path d="M23472 9499
L23491 9538
L23491 9614
L23472 9652
L23434 9671
L23281 9671
L23243 9652
L23224 9614
L23224 9538
L23243 9499
L23281 9480
L23320 9480
L23358 9671
" />
<path d="M23472 9328
L23491 9290
L23491 9214
L23472 9176
L23434 9157
L23415 9157
L23377 9176
L23358 9214
L23358 9271
L23339 9309
L23300 9328
L23281 9328
L23243 9309
L23224 9271
L23224 9214
L23243 9176
" />
<path d="M23224 9042
L23224 8890
" />
<path d="M23091 8985
L23434 8985
L23472 8966
L23491 8928
L23491 8890
" />
<path d="M23491 8452
L23091 8452
L23377 8319
L23091 8185
L23491 8185
" />
<path d="M23491 7823
L23281 7823
L23243 7842
L23224 7880
L23224 7957
L23243 7995
" />
<path d="M23472 7823
L23491 7861
L23491 7957
L23472 7995
L23434 8014
L23396 8014
L23358 7995
L23339 7957
L23339 7861
L23320 7823
" />
<path d="M23491 7633
L23224 7633
" />
<path d="M23091 7633
L23110 7652
L23129 7633
L23110 7614
L23091 7633
L23129 7633
" />
<path d="M23224 7442
L23491 7442
" />
<path d="M23262 7442
L23243 7423
L23224 7385
L23224 7328
L23243 7290
L23281 7271
L23491 7271
" />
<path d="M23643 6661
L23624 6680
L23567 6719
L23529 6738
L23472 6757
L23377 6776
L23300 6776
L23205 6757
L23148 6738
L23110 6719
L23053 6680
L23034 6661
" />
<path d="M23281 6376
L23281 6509
" />
<path d="M23491 6509
L23091 6509
L23091 6319
" />
<path d="M23491 6166
L23224 6166
" />
<path d="M23300 6166
L23262 6147
L23243 6128
L23224 6090
L23224 6052
" />
<path d="M23491 5861
L23472 5900
L23453 5919
L23415 5938
L23300 5938
L23262 5919
L23243 5900
L23224 5861
L23224 5804
L23243 5766
L23262 5747
L23300 5728
L23415 5728
L23453 5747
L23472 5766
L23491 5804
L23491 5861
" />
<path d="M23224 5385
L23548 5385
L23586 5404
L23605 5423
L23624 5461
L23624 5519
L23605 5557
" />
<path d="M23472 5385
L23491 5423
L23491 5500
L23472 5538
L23453 5557
L23415 5576
L23300 5576
L23262 5557
L23243 5538
L23224 5500
L23224 5423
L23243 5385
" />
<path d="M23472 5176
L23491 5176
L23529 5195
L23548 5214
" />
<path d="M23491 4700
L23091 4700
L23491 4471
L23091 4471
" />
<path d="M23491 4223
L23472 4261
L23453 4280
L23415 4300
L23300 4300
L23262 4280
L23243 4261
L23224 4223
L23224 4166
L23243 4128
L23262 4109
L23300 4090
L23415 4090
L23453 4109
L23472 4128
L23491 4166
L23491 4223
" />
<path d="M23491 3919
L23224 3919
" />
<path d="M23300 3919
L23262 3900
L23243 3880
L23224 3842
L23224 3804
" />
<path d="M23491 3671
L23224 3671
" />
<path d="M23262 3671
L23243 3652
L23224 3614
L23224 3557
L23243 3519
L23281 3500
L23491 3500
" />
<path d="M23281 3500
L23243 3480
L23224 3442
L23224 3385
L23243 3347
L23281 3328
L23491 3328
" />
<path d="M23491 2966
L23281 2966
L23243 2985
L23224 3023
L23224 3100
L23243 3138
" />
<path d="M23472 2966
L23491 3004
L23491 3100
L23472 3138
L23434 3157
L23396 3157
L23358 3138
L23339 3100
L23339 3004
L23320 2966
" />
<path d="M23491 2719
L23472 2757
L23434 2776
L23091 2776
" />
<path d="M23643 2604
L23624 2585
L23567 2547
L23529 2528
L23472 2509
L23377 2490
L23300 2490
L23205 2509
L23148 2528
L23110 2547
L23053 2585
L23034 2604
" />
<path d="M21281 8195
L21281 8061
" />
<path d="M21491 8004
L21491 8195
L21091 8195
L21091 8004
" />
<path d="M21491 7661
L21281 7661
L21243 7680
L21224 7719
L21224 7795
L21243 7833
" />
<path d="M21472 7661
L21491 7699
L21491 7795
L21472 7833
L21434 7852
L21396 7852
L21358 7833
L21339 7795
L21339 7699
L21320 7661
" />
<path d="M21472 7490
L21491 7452
L21491 7376
L21472 7338
L21434 7319
L21415 7319
L21377 7338
L21358 7376
L21358 7433
L21339 7471
L21300 7490
L21281 7490
L21243 7471
L21224 7433
L21224 7376
L21243 7338
" />
<path d="M21224 7204
L21224 7052
" />
<path d="M21091 7147
L21434 7147
L21472 7128
L21491 7090
L21491 7052
" />
<path d="M21643 6500
L21624 6519
L21567 6557
L21529 6576
L21472 6595
L21377 6614
L21300 6614
L21205 6595
L21148 6576
L21110 6557
L21053 6519
L21034 6500
" />
<path d="M21491 6347
L21091 6347
L21091 6195
L21110 6157
L21129 6138
L21167 6119
L21224 6119
L21262 6138
L21281 6157
L21300 6195
L21300 6347
" />
<path d="M21491 5890
L21472 5928
L21453 5947
L21415 5966
L21300 5966
L21262 5947
L21243 5928
L21224 5890
L21224 5833
L21243 5795
L21262 5776
L21300 5757
L21415 5757
L21453 5776
L21472 5795
L21491 5833
L21491 5890
" />
<path d="M21491 5585
L21224 5585
" />
<path d="M21091 5585
L21110 5604
L21129 5585
L21110 5566
L21091 5585
L21129 5585
" />
<path d="M21224 5395
L21491 5395
" />
<path d="M21262 5395
L21243 5376
L21224 5338
L21224 5280
L21243 5242
L21281 5223
L21491 5223
" />
<path d="M21224 5090
L21224 4938
" />
<path d="M21091 5033
L21434 5033
L21472 5014
L21491 4976
L21491 4938
" />
<path d="M21472 4823
L21491 4785
L21491 4709
L21472 4671
L21434 4652
L21415 4652
L21377 4671
L21358 4709
L21358 4766
L21339 4804
L21300 4823
L21281 4823
L21243 4804
L21224 4766
L21224 4709
L21243 4671
" />
<path d="M21643 4519
L21624 4500
L21567 4461
L21529 4442
L21472 4423
L21377 4404
L21300 4404
L21205 4423
L21148 4442
L21110 4461
L21053 4500
L21034 4519
" />
<path d="M18890 13502
L18890 13002
" />
<path d="M19361 13454
L19340 13478
L19275 13502
L19233 13502
L19168 13478
L19125 13430
L19104 13383
L19083 13288
L19083 13216
L19104 13121
L19125 13073
L19168 13026
L19233 13002
L19275 13002
L19340 13026
L19361 13050
" />
<path d="M19790 13502
L19533 13502
" />
<path d="M19661 13502
L19661 13002
L19618 13073
L19575 13121
L19533 13145
" />
<path d="M19531 16685
L19031 16685
L19389 16552
L19031 16419
L19531 16419
" />
<path d="M19484 16000
L19508 16019
L19531 16076
L19531 16114
L19508 16171
L19460 16209
L19412 16228
L19317 16247
L19246 16247
L19150 16228
L19103 16209
L19055 16171
L19031 16114
L19031 16076
L19055 16019
L19079 16000
" />
<path d="M19031 15885
L19031 15657
" />
<path d="M19531 15771
L19031 15771
" />
<path d="M19031 15352
L19031 15428
L19055 15466
L19079 15485
L19150 15523
L19246 15542
L19436 15542
L19484 15523
L19508 15504
L19531 15466
L19531 15390
L19508 15352
L19484 15333
L19436 15314
L19317 15314
L19270 15333
L19246 15352
L19222 15390
L19222 15466
L19246 15504
L19270 15523
L19317 15542
" />
<path d="M19531 15142
L19031 15142
" />
<path d="M19270 15142
L19270 14914
" />
<path d="M19531 14914
L19031 14914
" />
<path d="M8031 17642
L8436 17642
L8484 17621
L8508 17600
L8531 17557
L8531 17471
L8508 17428
L8484 17407
L8436 17385
L8031 17385
" />
<path d="M8079 17192
L8055 17171
L8031 17128
L8031 17021
L8055 16978
L8079 16957
L8127 16935
L8174 16935
L8246 16957
L8531 17214
L8531 16935
" />
<path d="M8991 17478
L9048 17502
L9143 17502
L9181 17478
L9200 17454
L9220 17407
L9220 17359
L9200 17311
L9181 17288
L9143 17264
L9067 17240
L9029 17216
L9010 17192
L8991 17145
L8991 17097
L9010 17050
L9029 17026
L9067 17002
L9162 17002
L9220 17026
" />
<path d="M9391 17502
L9391 17002
L9620 17502
L9620 17002
" />
<path d="M9772 17002
L10039 17002
L9867 17502
" />
<path d="M10381 17002
L10191 17002
L10172 17240
L10191 17216
L10229 17192
L10324 17192
L10362 17216
L10381 17240
L10400 17288
L10400 17407
L10381 17454
L10362 17478
L10324 17502
L10229 17502
L10191 17478
L10172 17454
" />
<path d="M10762 17502
L10572 17502
L10572 17002
" />
<path d="M11029 17240
L11086 17264
L11105 17288
L11124 17335
L11124 17407
L11105 17454
L11086 17478
L11048 17502
L10896 17502
L10896 17002
L11029 17002
L11067 17026
L11086 17050
L11105 17097
L11105 17145
L11086 17192
L11067 17216
L11029 17240
L10896 17240
" />
<path d="M11524 17454
L11505 17478
L11448 17502
L11410 17502
L11353 17478
L11315 17430
L11296 17383
L11277 17288
L11277 17216
L11296 17121
L11315 17073
L11353 17026
L11410 17002
L11448 17002
L11505 17026
L11524 17050
" />
<path d="M11905 17502
L11677 17502
" />
<path d="M11791 17502
L11791 17002
L11753 17073
L11715 17121
L11677 17145
" />
<path d="M12039 17002
L12305 17002
L12134 17502
" />
<path d="M12477 17502
L12553 17502
L12591 17478
L12610 17454
L12648 17383
L12667 17288
L12667 17097
L12648 17050
L12629 17026
L12591 17002
L12515 17002
L12477 17026
L12458 17050
L12439 17097
L12439 17216
L12458 17264
L12477 17288
L12515 17311
L12591 17311
L12629 17288
L12648 17264
L12667 17216
" />
</g>
<g style="fill:#00A0A0; fill-opacity:0.0; 
stroke:#00A0A0; stroke-width:120; stroke-opacity:1; 
stroke-linecap:round; stroke-linejoin:round;">
</g>
<g style="fill:#00A0A0; fill-opacity:0.0; 
stroke:#00A0A0; stroke-width:112.5; stroke-opacity:1; 
stroke-linecap:round; stroke-linejoin:round;">
<path d="M16972 6642
L17458 6642
L17515 6621
L17543 6600
L17572 6557
L17572 6471
L17543 6428
L17515 6407
L17458 6385
L16972 6385
" />
<path d="M16972 6214
L16972 5935
L17200 6085
L17200 6021
L17229 5978
L17258 5957
L17315 5935
L17458 5935
L17515 5957
L17543 5978
L17572 6021
L17572 6150
L17543 6192
L17515 6214
" />
</g>
<g style="fill:#00A0A0; fill-opacity:0.0; 
stroke:#00A0A0; stroke-width:120; stroke-opacity:1; 
stroke-linecap:round; stroke-linejoin:round;">
</g>
<g style="fill:#00A0A0; fill-opacity:0.0; 
stroke:#00A0A0; stroke-width:112.5; stroke-opacity:1; 
stroke-linecap:round; stroke-linejoin:round;">
<path d="M15972 11214
L15972 10957
" />
<path d="M16572 11085
L15972 11085
" />
<path d="M16572 10549
L16286 10699
" />
<path d="M16572 10807
L15972 10807
L15972 10635
L16000 10592
L16029 10571
L16086 10549
L16172 10549
L16229 10571
L16258 10592
L16286 10635
L16286 10807
" />
<path d="M16543 10378
L16572 10314
L16572 10207
L16543 10164
L16515 10142
L16458 10121
L16400 10121
L16343 10142
L16315 10164
L16286 10207
L16258 10292
L16229 10335
L16200 10357
L16143 10378
L16086 10378
L16029 10357
L16000 10335
L15972 10292
L15972 10185
L16000 10121
" />
<path d="M16029 9950
L16000 9928
L15972 9885
L15972 9778
L16000 9735
L16029 9714
L16086 9692
L16143 9692
L16229 9714
L16572 9971
L16572 9692
" />
<path d="M15972 9414
L15972 9371
L16000 9328
L16029 9307
L16086 9285
L16200 9264
L16343 9264
L16458 9285
L16515 9307
L16543 9328
L16572 9371
L16572 9414
L16543 9457
L16515 9478
L16458 9500
L16343 9521
L16200 9521
L16086 9500
L16029 9478
L16000 9457
L15972 9414
" />
<path d="M16029 9092
L16000 9071
L15972 9028
L15972 8921
L16000 8878
L16029 8857
L16086 8835
L16143 8835
L16229 8857
L16572 9114
L16572 8835
" />
<path d="M16258 8642
L16258 8492
" />
<path d="M16572 8428
L16572 8642
L15972 8642
L15972 8428
" />
</g>
<g style="fill:#00A0A0; fill-opacity:0.0; 
stroke:#00A0A0; stroke-width:120; stroke-opacity:1; 
stroke-linecap:round; stroke-linejoin:round;">
</g>
<g style="fill:#00A0A0; fill-opacity:0.0; 
stroke:#00A0A0; stroke-width:112.5; stroke-opacity:1; 
stroke-linecap:round; stroke-linejoin:round;">
<path d="M9972 6642
L10458 6642
L10515 6621
L10543 6600
L10572 6557
L10572 6471
L10543 6428
L10515 6407
L10458 6385
L9972 6385
" />
<path d="M10572 5935
L10572 6192
" />
<path d="M10572 6064
L9972 6064
L10058 6107
L10115 6150
L10143 6192
" />
</g>
<g style="fill:#00A0A0; fill-opacity:0.0; 
stroke:#00A0A0; stroke-width:120; stroke-opacity:1; 
stroke-linecap:round; stroke-linejoin:round;">
</g>
<g style="fill:#00A0A0; fill-opacity:0.0; 
stroke:#00A0A0; stroke-width:112.5; stroke-opacity:1; 
stroke-linecap:round; stroke-linejoin:round;">
<path d="M8972 11214
L8972 10957
" />
<path d="M9572 11085
L8972 11085
" />
<path d="M9572 10549
L9286 10699
" />
<path d="M9572 10807
L8972 10807
L8972 10635
L9000 10592
L9029 10571
L9086 10549
L9172 10549
L9229 10571
L9258 10592
L9286 10635
L9286 10807
" />
<path d="M9543 10378
L9572 10314
L9572 10207
L9543 10164
L9515 10142
L9458 10121
L9400 10121
L9343 10142
L9315 10164
L9286 10207
L9258 10292
L9229 10335
L9200 10357
L9143 10378
L9086 10378
L9029 10357
L9000 10335
L8972 10292
L8972 10185
L9000 10121
" />
<path d="M9029 9950
L9000 9928
L8972 9885
L8972 9778
L9000 9735
L9029 9714
L9086 9692
L9143 9692
L9229 9714
L9572 9971
L9572 9692
" />
<path d="M8972 9414
L8972 9371
L9000 9328
L9029 9307
L9086 9285
L9200 9264
L9343 9264
L9458 9285
L9515 9307
L9543 9328
L9572 9371
L9572 9414
L9543 9457
L9515 9478
L9458 9500
L9343 9521
L9200 9521
L9086 9500
L9029 9478
L9000 9457
L8972 9414
" />
<path d="M9029 9092
L9000 9071
L8972 9028
L8972 8921
L9000 8878
L9029 8857
L9086 8835
L9143 8835
L9229 8857
L9572 9114
L9572 8835
" />
<path d="M9258 8642
L9258 8492
" />
<path d="M9572 8428
L9572 8642
L8972 8642
L8972 8428
" />
</g>
<g style="fill:#00A0A0; fill-opacity:0.0; 
stroke:#00A0A0; stroke-width:120; stroke-opacity:1; 
stroke-linecap:round; stroke-linejoin:round;">
</g>
<g style="fill:#00A0A0; fill-opacity:0.0; 
stroke:#00A0A0; stroke-width:40; stroke-opacity:1; 
stroke-linecap:round; stroke-linejoin:round;">
<path d="M7015 10860
L7024 10870
L7015 10879
L7006 10870
L7015 10860
L7015 10879
" />
<path d="M7212 10879
L7099 10879
" />
<path d="M7156 10879
L7156 10682
L7137 10710
L7118 10729
L7099 10739
" />
<path d="M7531 10748
L7531 10879
" />
<path d="M7446 10748
L7446 10851
L7456 10870
L7474 10879
L7502 10879
L7521 10870
L7531 10860
" />
<path d="M7596 10748
L7671 10748
" />
<path d="M7624 10879
L7624 10710
L7634 10692
L7652 10682
L7671 10682
" />
<path d="M9890 3614
L9899 3604
L9909 3614
L9899 3623
L9890 3614
L9909 3614
" />
<path d="M9909 3417
L9909 3529
" />
<path d="M9909 3473
L9712 3473
L9740 3492
L9759 3510
L9768 3529
" />
<path d="M9777 3098
L9909 3098
" />
<path d="M9777 3182
L9881 3182
L9899 3173
L9909 3154
L9909 3126
L9899 3107
L9890 3098
" />
<path d="M9777 3032
L9777 2957
" />
<path d="M9909 3004
L9740 3004
L9721 2995
L9712 2976
L9712 2957
" />
<path d="M5515 8360
L5524 8370
L5515 8379
L5506 8370
L5515 8360
L5515 8379
" />
<path d="M5712 8379
L5599 8379
" />
<path d="M5656 8379
L5656 8182
L5637 8210
L5618 8229
L5599 8239
" />
<path d="M6031 8248
L6031 8379
" />
<path d="M5946 8248
L5946 8351
L5956 8370
L5974 8379
L6002 8379
L6021 8370
L6031 8360
" />
<path d="M6096 8248
L6171 8248
" />
<path d="M6124 8379
L6124 8210
L6134 8192
L6152 8182
L6171 8182
" />
<path d="M7015 8360
L7024 8370
L7015 8379
L7006 8370
L7015 8360
L7015 8379
" />
<path d="M7212 8379
L7099 8379
" />
<path d="M7156 8379
L7156 8182
L7137 8210
L7118 8229
L7099 8239
" />
<path d="M7531 8248
L7531 8379
" />
<path d="M7446 8248
L7446 8351
L7456 8370
L7474 8379
L7502 8379
L7521 8370
L7531 8360
" />
<path d="M7596 8248
L7671 8248
" />
<path d="M7624 8379
L7624 8210
L7634 8192
L7652 8182
L7671 8182
" />
<path d="M14015 5860
L14024 5870
L14015 5879
L14006 5870
L14015 5860
L14015 5879
" />
<path d="M14212 5879
L14099 5879
" />
<path d="M14156 5879
L14156 5682
L14137 5710
L14118 5729
L14099 5739
" />
<path d="M14531 5748
L14531 5879
" />
<path d="M14446 5748
L14446 5851
L14456 5870
L14474 5879
L14502 5879
L14521 5870
L14531 5860
" />
<path d="M14596 5748
L14671 5748
" />
<path d="M14624 5879
L14624 5710
L14634 5692
L14652 5682
L14671 5682
" />
<path d="M14015 8360
L14024 8370
L14015 8379
L14006 8370
L14015 8360
L14015 8379
" />
<path d="M14212 8379
L14099 8379
" />
<path d="M14156 8379
L14156 8182
L14137 8210
L14118 8229
L14099 8239
" />
<path d="M14531 8248
L14531 8379
" />
<path d="M14446 8248
L14446 8351
L14456 8370
L14474 8379
L14502 8379
L14521 8370
L14531 8360
" />
<path d="M14596 8248
L14671 8248
" />
<path d="M14624 8379
L14624 8210
L14634 8192
L14652 8182
L14671 8182
" />
<path d="M12515 8360
L12524 8370
L12515 8379
L12506 8370
L12515 8360
L12515 8379
" />
<path d="M12712 8379
L12599 8379
" />
<path d="M12656 8379
L12656 8182
L12637 8210
L12618 8229
L12599 8239
" />
<path d="M13031 8248
L13031 8379
" />
<path d="M12946 8248
L12946 8351
L12956 8370
L12974 8379
L13002 8379
L13021 8370
L13031 8360
" />
<path d="M13096 8248
L13171 8248
" />
<path d="M13124 8379
L13124 8210
L13134 8192
L13152 8182
L13171 8182
" />
<path d="M14015 10860
L14024 10870
L14015 10879
L14006 10870
L14015 10860
L14015 10879
" />
<path d="M14212 10879
L14099 10879
" />
<path d="M14156 10879
L14156 10682
L14137 10710
L14118 10729
L14099 10739
" />
<path d="M14531 10748
L14531 10879
" />
<path d="M14446 10748
L14446 10851
L14456 10870
L14474 10879
L14502 10879
L14521 10870
L14531 10860
" />
<path d="M14596 10748
L14671 10748
" />
<path d="M14624 10879
L14624 10710
L14634 10692
L14652 10682
L14671 10682
" />
<path d="M16890 3614
L16899 3604
L16909 3614
L16899 3623
L16890 3614
L16909 3614
" />
<path d="M16909 3417
L16909 3529
" />
<path d="M16909 3473
L16712 3473
L16740 3492
L16759 3510
L16768 3529
" />
<path d="M16777 3098
L16909 3098
" />
<path d="M16777 3182
L16881 3182
L16899 3173
L16909 3154
L16909 3126
L16899 3107
L16890 3098
" />
<path d="M16777 3032
L16777 2957
" />
<path d="M16909 3004
L16740 3004
L16721 2995
L16712 2976
L16712 2957
" />
<path d="M7015 5860
L7024 5870
L7015 5879
L7006 5870
L7015 5860
L7015 5879
" />
<path d="M7212 5879
L7099 5879
" />
<path d="M7156 5879
L7156 5682
L7137 5710
L7118 5729
L7099 5739
" />
<path d="M7531 5748
L7531 5879
" />
<path d="M7446 5748
L7446 5851
L7456 5870
L7474 5879
L7502 5879
L7521 5870
L7531 5860
" />
<path d="M7596 5748
L7671 5748
" />
<path d="M7624 5879
L7624 5710
L7634 5692
L7652 5682
L7671 5682
" />
</g>
<g style="fill:#00A0A0; fill-opacity:0.0; 
stroke:#00A0A0; stroke-width:120; stroke-opacity:1; 
stroke-linecap:round; stroke-linejoin:round;">
<path d="M29872 14742
L29272 14742
L29272 14514
L29300 14457
L29329 14428
L29386 14400
L29472 14400
L29529 14428
L29558 14457
L29586 14514
L29586 14742
" />
<path d="M29872 14114
L29872 14000
L29843 13942
L29815 13914
L29729 13857
L29615 13828
L29386 13828
L29329 13857
L29300 13885
L29272 13942
L29272 14057
L29300 14114
L29329 14142
L29386 14171
L29529 14171
L29586 14142
L29615 14114
L29643 14057
L29643 13942
L29615 13885
L29586 13857
L29529 13828
" />
<path d="M25272 16971
L24672 16971
" />
<path d="M24872 16685
L25272 16685
" />
<path d="M24929 16685
L24900 16657
L24872 16600
L24872 16514
L24900 16457
L24958 16428
L25272 16428
" />
<path d="M24672 15771
L24672 15428
" />
<path d="M25272 15600
L24672 15600
" />
<path d="M25272 15228
L24872 15228
" />
<path d="M24986 15228
L24929 15199
L24900 15171
L24872 15114
L24872 15057
" />
<path d="M25272 14599
L24958 14599
L24900 14628
L24872 14685
L24872 14799
L24900 14857
" />
<path d="M25243 14599
L25272 14657
L25272 14799
L25243 14857
L25186 14885
L25129 14885
L25072 14857
L25043 14799
L25043 14657
L25015 14599
" />
<path d="M25243 14057
L25272 14114
L25272 14228
L25243 14285
L25215 14314
L25158 14342
L24986 14342
L24929 14314
L24900 14285
L24872 14228
L24872 14114
L24900 14057
" />
<path d="M25272 13799
L24672 13799
" />
<path d="M25043 13742
L25272 13571
" />
<path d="M24872 13571
L25100 13799
" />
<path d="M24672 12742
L24672 12628
L24700 12571
L24758 12514
L24872 12485
L25072 12485
L25186 12514
L25243 12571
L25272 12628
L25272 12742
L25243 12799
L25186 12857
L25072 12885
L24872 12885
L24758 12857
L24700 12799
L24672 12742
" />
<path d="M24872 11971
L25272 11971
" />
<path d="M24872 12228
L25186 12228
L25243 12199
L25272 12142
L25272 12057
L25243 11999
L25215 11971
" />
<path d="M24872 11771
L24872 11542
" />
<path d="M24672 11685
L25186 11685
L25243 11657
L25272 11600
L25272 11542
" />
</g>
<g style="fill:#00A0A0; fill-opacity:0.0; 
stroke:#00A0A0; stroke-width:59.0551; stroke-opacity:1; 
stroke-linecap:round; stroke-linejoin:round;">
<path d="M24906 12307
L24512 12307
L24512 12213
L24531 12157
L24568 12119
L24606 12100
L24681 12082
L24737 12082
L24812 12100
L24849 12119
L24887 12157
L24906 12213
L24906 12307
" />
<path d="M24906 11707
L24906 11932
" />
<path d="M24906 11819
L24512 11819
L24568 11857
L24606 11894
L24624 11932
" />
<path d="M24660 17063
L24679 17007
L24698 16988
L24735 16969
L24791 16969
L24829 16988
L24848 17007
L24866 17044
L24866 17194
L24473 17194
L24473 17063
L24491 17025
L24510 17007
L24548 16988
L24585 16988
L24623 17007
L24641 17025
L24660 17063
L24660 17194
" />
<path d="M24866 16575
L24679 16707
" />
<path d="M24866 16800
L24473 16800
L24473 16650
L24491 16613
L24510 16594
L24548 16575
L24604 16575
L24641 16594
L24660 16613
L24679 16650
L24679 16800
" />
<path d="M24866 16407
L24473 16407
" />
<path d="M24866 16219
L24473 16219
L24473 16126
L24491 16069
L24529 16032
L24566 16013
L24641 15994
L24698 15994
L24773 16013
L24810 16032
L24848 16069
L24866 16126
L24866 16219
" />
<path d="M24491 15619
L24473 15657
L24473 15713
L24491 15769
L24529 15807
L24566 15826
L24641 15844
L24698 15844
L24773 15826
L24810 15807
L24848 15769
L24866 15713
L24866 15676
L24848 15619
L24829 15601
L24698 15601
L24698 15676
" />
<path d="M24660 15432
L24660 15301
" />
<path d="M24866 15244
L24866 15432
L24473 15432
L24473 15244
" />
<path d="M24281 14551
L24281 14363
" />
<path d="M24394 14588
L24000 14457
L24394 14326
" />
<path d="M24356 13970
L24375 13988
L24394 14045
L24394 14082
L24375 14138
L24338 14176
L24300 14195
L24225 14213
L24169 14213
L24094 14195
L24056 14176
L24019 14138
L24000 14082
L24000 14045
L24019 13988
L24038 13970
" />
<path d="M24283 11418
L24283 11118
" />
<path d="M24244 17481
L24244 17181
" />
<path d="M24394 17331
L24094 17331
" />
</g>
<g style="fill:#00A0A0; fill-opacity:0.0; 
stroke:#00A0A0; stroke-width:80; stroke-opacity:1; 
stroke-linecap:round; stroke-linejoin:round;">
<path d="M13405 19461
L13405 19061
L13558 19061
L13596 19080
L13615 19100
L13634 19138
L13634 19195
L13615 19233
L13596 19252
L13558 19271
L13405 19271
" />
<path d="M13862 19461
L13824 19442
L13805 19423
L13786 19385
L13786 19271
L13805 19233
L13824 19214
L13862 19195
L13920 19195
L13958 19214
L13977 19233
L13996 19271
L13996 19385
L13977 19423
L13958 19442
L13920 19461
L13862 19461
" />
<path d="M14167 19461
L14167 19195
" />
<path d="M14167 19271
L14186 19233
L14205 19214
L14243 19195
L14281 19195
" />
<path d="M14358 19195
L14510 19195
" />
<path d="M14415 19061
L14415 19404
L14434 19442
L14472 19461
L14510 19461
" />
<path d="M14624 19347
L14815 19347
" />
<path d="M14586 19461
L14720 19061
L14853 19461
" />
<path d="M15405 19061
L15405 19347
L15386 19404
L15348 19442
L15291 19461
L15253 19461
" />
<path d="M15767 19195
L15767 19461
" />
<path d="M15596 19195
L15596 19404
L15615 19442
L15653 19461
L15710 19461
L15748 19442
L15767 19423
" />
<path d="M15958 19461
L15958 19195
" />
<path d="M15958 19233
L15977 19214
L16015 19195
L16072 19195
L16110 19214
L16129 19252
L16129 19461
" />
<path d="M16129 19252
L16148 19214
L16186 19195
L16243 19195
L16281 19214
L16300 19252
L16300 19461
" />
<path d="M16491 19195
L16491 19595
" />
<path d="M16491 19214
L16529 19195
L16605 19195
L16643 19214
L16662 19233
L16681 19271
L16681 19385
L16662 19423
L16643 19442
L16605 19461
L16529 19461
L16491 19442
" />
<path d="M17005 19442
L16967 19461
L16891 19461
L16853 19442
L16834 19404
L16834 19252
L16853 19214
L16891 19195
L16967 19195
L17005 19214
L17024 19252
L17024 19290
L16834 19328
" />
<path d="M17196 19461
L17196 19195
" />
<path d="M17196 19271
L17215 19233
L17234 19214
L17272 19195
L17310 19195
" />
</g>
<g style="fill:#00A0A0; fill-opacity:0.0; 
stroke:#00A0A0; stroke-width:40; stroke-opacity:1; 
stroke-linecap:round; stroke-linejoin:round;">
<path d="M10049 19651
L9906 19651
" />
<path d="M9978 19651
L9978 19401
L9954 19436
L9930 19460
L9906 19472
" />
<path d="M10204 19401
L10228 19401
L10252 19413
L10264 19425
L10275 19448
L10287 19496
L10287 19555
L10275 19603
L10264 19627
L10252 19639
L10228 19651
L10204 19651
L10180 19639
L10168 19627
L10156 19603
L10145 19555
L10145 19496
L10156 19448
L10168 19425
L10180 19413
L10204 19401
" />
<path d="M10395 19651
L10395 19401
" />
<path d="M10537 19651
L10430 19508
" />
<path d="M10537 19401
L10395 19544
" />
<path d="M10883 19401
L10930 19401
L10954 19413
L10978 19436
L10990 19484
L10990 19567
L10978 19615
L10954 19639
L10930 19651
L10883 19651
L10859 19639
L10835 19615
L10823 19567
L10823 19484
L10835 19436
L10859 19413
L10883 19401
" />
<path d="M11097 19651
L11097 19401
" />
<path d="M11204 19651
L11204 19520
L11192 19496
L11168 19484
L11133 19484
L11109 19496
L11097 19508
" />
<path d="M11323 19651
L11323 19484
" />
<path d="M11323 19508
L11335 19496
L11359 19484
L11395 19484
L11418 19496
L11430 19520
L11430 19651
" />
<path d="M11430 19520
L11442 19496
L11466 19484
L11502 19484
L11525 19496
L11537 19520
L11537 19651
" />
<path d="M11645 19639
L11668 19651
L11716 19651
L11740 19639
L11752 19615
L11752 19603
L11740 19579
L11716 19567
L11680 19567
L11656 19555
L11645 19532
L11645 19520
L11656 19496
L11680 19484
L11716 19484
L11740 19496
" />
</g>
<g style="fill:#00A0A0; fill-opacity:0.0; 
stroke:#00A0A0; stroke-width:59.0551; stroke-opacity:1; 
stroke-linecap:round; stroke-linejoin:round;">
<path d="M14029 21050
L21029 21050
" />
<path d="M21029 21050
L21029 20050
" />
<path d="M21029 20050
L14029 20050
" />
<path d="M12919 21160
L13529 21160
" />
<path d="M14029 21050
L14029 20050
" />
<path d="M13529 19939
L12919 19939
" />
<path d="M12919 19939
L12919 21160
" />
<path d="M23029 21050
L28029 21050
" />
<path d="M28029 21050
L28029 20050
" />
<path d="M28029 20050
L23029 20050
" />
<path d="M21919 21160
L22529 21160
" />
<path d="M23029 21050
L23029 20050
" />
<path d="M22529 19939
L21919 19939
" />
<path d="M21919 19939
L21919 21160
" />
<path d="M10429 2050
L19429 2050
" />
<path d="M19429 2050
L19429 1050
" />
<path d="M19429 1050
L10429 1050
" />
<path d="M9319 2160
L9929 2160
" />
<path d="M10429 2050
L10429 1050
" />
<path d="M9929 939
L9319 939
" />
<path d="M9319 939
L9319 2160
" />
<path d="M21029 2050
L28029 2050
" />
<path d="M28029 2050
L28029 1050
" />
<path d="M28029 1050
L21029 1050
" />
<path d="M19919 2160
L20529 2160
" />
<path d="M21029 2050
L21029 1050
" />
<path d="M20529 939
L19919 939
" />
<path d="M19919 939
L19919 2160
" />
<circle cx="8029.53" cy="20550" r="900" /> 
<circle cx="28529.5" cy="18550" r="900" /> 
<circle cx="8529.53" cy="1550" r="900" /> 
<circle cx="28529.5" cy="7550" r="900" /> 
</g>
<g style="fill:#00A0A0; fill-opacity:0.0; 
stroke:#00A0A0; stroke-width:150; stroke-opacity:1; 
stroke-linecap:round; stroke-linejoin:round;">
<path d="M5329 14800
L5329 13800
" />
<circle cx="5329.53" cy="14800" r="559.017" /> 
<path d="M5329 12300
L5329 11300
" />
<circle cx="5329.53" cy="12300" r="559.017" /> 
<path d="M20829 13300
L20829 12300
" />
<circle cx="20829.5" cy="13300" r="559.017" /> 
<path d="M15829 14300
L16829 14300
" />
<circle cx="15829.5" cy="14300" r="559.017" /> 
</g>
<g style="fill:#00A0A0; fill-opacity:0.0; 
stroke:#00A0A0; stroke-width:120; stroke-opacity:1; 
stroke-linecap:round; stroke-linejoin:round;">
<path d="M4329 11300
L3329 11300
" />
<path d="M3329 16300
L4329 16300
" />
<path d="M4329 11300
L4329 16300
" />
<path d="M3329 16300
L3329 11300
" />
</g>
<g style="fill:#00A0A0; fill-opacity:0.0; 
stroke:#00A0A0; stroke-width:100; stroke-opacity:1; 
stroke-linecap:round; stroke-linejoin:round;">
<path d="M24829 4300
L24829 8300
" />
<path d="M23829 4300
L23829 8300
" />
<path d="M23829 8300
L24829 8300
" />
<path d="M24829 4300
L23829 4300
" />
<path d="M22829 4300
L22829 8300
" />
<path d="M21829 4300
L21829 8300
" />
<path d="M21829 8300
L22829 8300
" />
<path d="M22829 4300
L21829 4300
" />
<path d="M20829 4300
L20829 8300
" />
<path d="M19829 4300
L19829 8300
" />
<path d="M19829 8300
L20829 8300
" />
<path d="M20829 4300
L19829 4300
" />
<path d="M19829 13800
L19829 14300
" />
<path d="M19829 14300
L18829 14300
" />
<path d="M18829 14300
L18829 13800
" />
<path d="M20329 13800
L20329 17800
" />
<path d="M20329 17800
L18329 17800
" />
<path d="M18329 17800
L18329 13800
" />
<path d="M18329 13800
L20329 13800
" />
<path d="M8829 16800
L9329 16800
" />
<path d="M9329 16800
L9329 17800
" />
<path d="M9329 17800
L8829 17800
" />
<path d="M8829 16300
L12829 16300
" />
<path d="M12829 16300
L12829 18300
" />
<path d="M12829 18300
L8829 18300
" />
<path d="M8829 18300
L8829 16300
" />
</g>
<g style="fill:#00A0A0; fill-opacity:0.0; 
stroke:#00A0A0; stroke-width:150; stroke-opacity:1; 
stroke-linecap:round; stroke-linejoin:round;">
<path d="M17329 4300
L17329 4300
" />
<path d="M17329 4300
L17329 4800
" />
<path d="M17329 4800
L16329 4800
" />
<path d="M16329 4800
L16329 4300
" />
<path d="M17829 4300
L17829 13300
" />
<path d="M17829 13300
L15829 13300
" />
<path d="M15829 13300
L15829 4300
" />
<path d="M15829 4300
L17829 4300
" />
<path d="M10329 4300
L10329 4300
" />
<path d="M10329 4300
L10329 4800
" />
<path d="M10329 4800
L9329 4800
" />
<path d="M9329 4800
L9329 4300
" />
<path d="M10829 4300
L10829 13300
" />
<path d="M10829 13300
L8829 13300
" />
<path d="M8829 13300
L8829 4300
" />
<path d="M8829 4300
L10829 4300
" />
</g>
<g style="fill:#00A0A0; fill-opacity:0.0; 
stroke:#00A0A0; stroke-width:120; stroke-opacity:1; 
stroke-linecap:round; stroke-linejoin:round;">
<path d="M7829 9820
L7829 11800
" />
<path d="M7829 11800
L6829 11800
" />
<path d="M6829 11800
L6829 9800
" />
<path d="M6829 9800
L7829 9800
" />
<path d="M7579 9800
L7829 10050
" />
<path d="M10809 3800
L8829 3800
" />
<path d="M8829 3800
L8829 2800
" />
<path d="M8829 2800
L10829 2800
" />
<path d="M10829 2800
L10829 3800
" />
<path d="M10829 3550
L10579 3800
" />
<path d="M6329 7320
L6329 9300
" />
<path d="M6329 9300
L5329 9300
" />
<path d="M5329 9300
L5329 7300
" />
<path d="M5329 7300
L6329 7300
" />
<path d="M6079 7300
L6329 7550
" />
<path d="M7829 7320
L7829 9300
" />
<path d="M7829 9300
L6829 9300
" />
<path d="M6829 9300
L6829 7300
" />
<path d="M6829 7300
L7829 7300
" />
<path d="M7579 7300
L7829 7550
" />
<path d="M14829 4820
L14829 6800
" />
<path d="M14829 6800
L13829 6800
" />
<path d="M13829 6800
L13829 4800
" />
<path d="M13829 4800
L14829 4800
" />
<path d="M14579 4800
L14829 5050
" />
<path d="M14829 7320
L14829 9300
" />
<path d="M14829 9300
L13829 9300
" />
<path d="M13829 9300
L13829 7300
" />
<path d="M13829 7300
L14829 7300
" />
<path d="M14579 7300
L14829 7550
" />
<path d="M13329 7320
L13329 9300
" />
<path d="M13329 9300
L12329 9300
" />
<path d="M12329 9300
L12329 7300
" />
<path d="M12329 7300
L13329 7300
" />
<path d="M13079 7300
L13329 7550
" />
<path d="M14829 9820
L14829 11800
" />
<path d="M14829 11800
L13829 11800
" />
<path d="M13829 11800
L13829 9800
" />
<path d="M13829 9800
L14829 9800
" />
<path d="M14579 9800
L14829 10050
" />
<path d="M17809 3800
L15829 3800
" />
<path d="M15829 3800
L15829 2800
" />
<path d="M15829 2800
L17829 2800
" />
<path d="M17829 2800
L17829 3800
" />
<path d="M17829 3550
L17579 3800
" />
<path d="M7829 4820
L7829 6800
" />
<path d="M7829 6800
L6829 6800
" />
<path d="M6829 6800
L6829 4800
" />
<path d="M6829 4800
L7829 4800
" />
<path d="M7579 4800
L7829 5050
" />
</g>
<g style="fill:#00A0A0; fill-opacity:0.0; 
stroke:#00A0A0; stroke-width:100; stroke-opacity:1; 
stroke-linecap:round; stroke-linejoin:round;">
<path d="M28829 16300
L29129 16300
" />
<path d="M29129 16300
L29129 12300
" />
<path d="M29129 12300
L28829 12300
" />
<path d="M25529 16300
L25529 12300
" />
<path d="M25529 12300
L25929 12300
" />
<path d="M25929 12300
L25929 16300
" />
<path d="M25929 16300
L25529 16300
" />
<path d="M25829 16300
L28829 16300
" />
<path d="M28829 12300
L25829 12300
" />
</g>
<g style="fill:#00A0A0; fill-opacity:0.0; 
stroke:#00A0A0; stroke-width:59.0551; stroke-opacity:1; 
stroke-linecap:round; stroke-linejoin:round;">
<path d="M22542 18040
L22542 10559
" />
<path d="M22542 10559
L25002 10559
" />
<path d="M25002 10559
L25002 18040
" />
<path d="M25002 18040
L22542 18040
" />
<path d="M22542 18040
L22542 18079
" />
</g>
<g style="fill:#00A0A0; fill-opacity:0.0; 
stroke:#00A0A0; stroke-width:100; stroke-opacity:1; 
stroke-linecap:round; stroke-linejoin:round;">
<path d="M17329 18800
L13329 18800
" />
<path d="M17329 17800
L13329 17800
" />
<path d="M13329 17800
L13329 18800
" />
<path d="M17329 18800
L17329 17800
" />
</g>
<g style="fill:#00A0A0; fill-opacity:0.0; 
stroke:#00A0A0; stroke-width:150; stroke-opacity:1; 
stroke-linecap:round; stroke-linejoin:round;">
<path d="M10329 20300
L11329 20300
" />
<circle cx="10329.5" cy="20300" r="559.017" /> 
</g>
<g style="fill:#808000; fill-opacity:0.0; 
stroke:#808000; stroke-width:680; stroke-opacity:1; 
stroke-linecap:round; stroke-linejoin:round;">
<path d="M13529 20490
L13529 20610
" />
<path d="M14529 20490
L14529 20610
" />
<path d="M15529 20490
L15529 20610
" />
<path d="M16529 20490
L16529 20610
" />
<path d="M17529 20490
L17529 20610
" />
<path d="M18529 20490
L18529 20610
" />
<path d="M19529 20490
L19529 20610
" />
<path d="M20529 20490
L20529 20610
" />
<path d="M22529 20490
L22529 20610
" />
<path d="M23529 20490
L23529 20610
" />
<path d="M24529 20490
L24529 20610
" />
<path d="M25529 20490
L25529 20610
" />
<path d="M26529 20490
L26529 20610
" />
<path d="M27529 20490
L27529 20610
" />
<path d="M9929 1490
L9929 1610
" />
<path d="M10929 1490
L10929 1610
" />
<path d="M11929 1490
L11929 1610
" />
<path d="M12929 1490
L12929 1610
" />
<path d="M13929 1490
L13929 1610
" />
<path d="M14929 1490
L14929 1610
" />
<path d="M15929 1490
L15929 1610
" />
<path d="M16929 1490
L16929 1610
" />
<path d="M17929 1490
L17929 1610
" />
<path d="M18929 1490
L18929 1610
" />
<path d="M20529 1490
L20529 1610
" />
<path d="M21529 1490
L21529 1610
" />
<path d="M22529 1490
L22529 1610
" />
<path d="M23529 1490
L23529 1610
" />
<path d="M24529 1490
L24529 1610
" />
<path d="M25529 1490
L25529 1610
" />
<path d="M26529 1490
L26529 1610
" />
<path d="M27529 1490
L27529 1610
" />
</g>
<g style="fill:#808000; fill-opacity:0.0; 
stroke:#808000; stroke-width:39.3701; stroke-opacity:1; 
stroke-linecap:round; stroke-linejoin:round;">
</g>
<g style="fill:#808000; fill-opacity:1.0; 
stroke:#808000; stroke-width:39.3701; stroke-opacity:1; 
stroke-linecap:round; stroke-linejoin:round;">
<circle cx="8029.53" cy="20550" r="780.315" /> 
<circle cx="28529.5" cy="18550" r="780.315" /> 
<circle cx="8529.53" cy="1550" r="780.315" /> 
<circle cx="28529.5" cy="7550" r="780.315" /> 
<circle cx="5329.53" cy="14800" r="255.315" /> 
<circle cx="5329.53" cy="13800" r="255.315" /> 
<circle cx="5329.53" cy="12300" r="255.315" /> 
<circle cx="5329.53" cy="11300" r="255.315" /> 
<circle cx="20829.5" cy="13300" r="255.315" /> 
<circle cx="20829.5" cy="12300" r="255.315" /> 
<circle cx="15829.5" cy="14300" r="255.315" /> 
<circle cx="16829.5" cy="14300" r="255.315" /> 
<polyline style="fill-rule:evenodd;"
points="3549,11519
4109,11519
4109,12080
3549,12080
3549,11519
" /> 
<circle cx="3829.53" cy="12800" r="280.315" /> 
<circle cx="3829.53" cy="13800" r="280.315" /> 
<circle cx="3829.53" cy="14800" r="280.315" /> 
<circle cx="3829.53" cy="15800" r="280.315" /> 
<polyline style="fill-rule:evenodd;"
points="24609,8080
24049,8080
24049,7519
24609,7519
24609,8080
" /> 
<circle cx="24329.5" cy="6800" r="280.315" /> 
<circle cx="24329.5" cy="5800" r="280.315" /> 
<circle cx="24329.5" cy="4800" r="280.315" /> 
<polyline style="fill-rule:evenodd;"
points="22609,8080
22049,8080
22049,7519
22609,7519
22609,8080
" /> 
<circle cx="22329.5" cy="6800" r="280.315" /> 
<circle cx="22329.5" cy="5800" r="280.315" /> 
<circle cx="22329.5" cy="4800" r="280.315" /> 
<polyline style="fill-rule:evenodd;"
points="20609,8080
20049,8080
20049,7519
20609,7519
20609,8080
" /> 
<circle cx="20329.5" cy="6800" r="280.315" /> 
<circle cx="20329.5" cy="5800" r="280.315" /> 
<circle cx="20329.5" cy="4800" r="280.315" /> 
<polyline style="fill-rule:evenodd;"
points="17574,14044
18084,14044
18084,14555
17574,14555
17574,14044
" /> 
<circle cx="17829.5" cy="15300" r="255.315" /> 
<circle cx="17829.5" cy="16300" r="255.315" /> 
<circle cx="17829.5" cy="17300" r="255.315" /> 
<circle cx="20829.5" cy="17300" r="255.315" /> 
<circle cx="20829.5" cy="16300" r="255.315" /> 
<circle cx="20829.5" cy="15300" r="255.315" /> 
<circle cx="20829.5" cy="14300" r="255.315" /> 
<polyline style="fill-rule:evenodd;"
points="9074,19055
9074,18544
9584,18544
9584,19055
9074,19055
" /> 
<circle cx="10329.5" cy="18800" r="255.315" /> 
<circle cx="11329.5" cy="18800" r="255.315" /> 
<circle cx="12329.5" cy="18800" r="255.315" /> 
<circle cx="12329.5" cy="15800" r="255.315" /> 
<circle cx="11329.5" cy="15800" r="255.315" /> 
<circle cx="10329.5" cy="15800" r="255.315" /> 
<circle cx="9329.53" cy="15800" r="255.315" /> 
<polyline style="fill-rule:evenodd;"
points="15074,5044
15584,5044
15584,5555
15074,5555
15074,5044
" /> 
<circle cx="15329.5" cy="6300" r="255.315" /> 
<circle cx="15329.5" cy="7300" r="255.315" /> 
<circle cx="15329.5" cy="8300" r="255.315" /> 
<circle cx="15329.5" cy="9300" r="255.315" /> 
<circle cx="15329.5" cy="10300" r="255.315" /> 
<circle cx="15329.5" cy="11300" r="255.315" /> 
<circle cx="15329.5" cy="12300" r="255.315" /> 
<circle cx="18329.5" cy="12300" r="255.315" /> 
<circle cx="18329.5" cy="11300" r="255.315" /> 
<circle cx="18329.5" cy="10300" r="255.315" /> 
<circle cx="18329.5" cy="9300" r="255.315" /> 
<circle cx="18329.5" cy="8300" r="255.315" /> 
<circle cx="18329.5" cy="7300" r="255.315" /> 
<circle cx="18329.5" cy="6300" r="255.315" /> 
<circle cx="18329.5" cy="5300" r="255.315" /> 
<polyline style="fill-rule:evenodd;"
points="8074,5044
8584,5044
8584,5555
8074,5555
8074,5044
" /> 
<circle cx="8329.53" cy="6300" r="255.315" /> 
<circle cx="8329.53" cy="7300" r="255.315" /> 
<circle cx="8329.53" cy="8300" r="255.315" /> 
<circle cx="8329.53" cy="9300" r="255.315" /> 
<circle cx="8329.53" cy="10300" r="255.315" /> 
<circle cx="8329.53" cy="11300" r="255.315" /> 
<circle cx="8329.53" cy="12300" r="255.315" /> 
<circle cx="11329.5" cy="12300" r="255.315" /> 
<circle cx="11329.5" cy="11300" r="255.315" /> 
<circle cx="11329.5" cy="10300" r="255.315" /> 
<circle cx="11329.5" cy="9300" r="255.315" /> 
<circle cx="11329.5" cy="8300" r="255.315" /> 
<circle cx="11329.5" cy="7300" r="255.315" /> 
<circle cx="11329.5" cy="6300" r="255.315" /> 
<circle cx="11329.5" cy="5300" r="255.315" /> 
<circle cx="7329.53" cy="10300" r="255.315" /> 
<circle cx="7329.53" cy="11300" r="255.315" /> 
<circle cx="10329.5" cy="3300" r="255.315" /> 
<circle cx="9329.53" cy="3300" r="255.315" /> 
<circle cx="5829.53" cy="7800" r="255.315" /> 
<circle cx="5829.53" cy="8800" r="255.315" /> 
<circle cx="7329.53" cy="7800" r="255.315" /> 
<circle cx="7329.53" cy="8800" r="255.315" /> 
<circle cx="14329.5" cy="5300" r="255.315" /> 
<circle cx="14329.5" cy="6300" r="255.315" /> 
<circle cx="14329.5" cy="7800" r="255.315" /> 
<circle cx="14329.5" cy="8800" r="255.315" /> 
<circle cx="12829.5" cy="7800" r="255.315" /> 
<circle cx="12829.5" cy="8800" r="255.315" /> 
<circle cx="14329.5" cy="10300" r="255.315" /> 
<circle cx="14329.5" cy="11300" r="255.315" /> 
<circle cx="17329.5" cy="3300" r="255.315" /> 
<circle cx="16329.5" cy="3300" r="255.315" /> 
<circle cx="7329.53" cy="5300" r="255.315" /> 
<circle cx="7329.53" cy="6300" r="255.315" /> 
<polyline style="fill-rule:evenodd;"
points="26758,12729
27900,12729
27900,13870
26758,13870
26758,12729
" /> 
<circle cx="27329.5" cy="15300" r="570.815" /> 
<polyline style="fill-rule:evenodd;"
points="23809,17792
22849,17792
22849,16831
23809,16831
23809,17792
" /> 
<circle cx="23329.5" cy="15303.9" r="480.315" /> 
<circle cx="23329.5" cy="13296.1" r="480.315" /> 
<circle cx="23329.5" cy="11288.2" r="480.315" /> 
<polyline style="fill-rule:evenodd;"
points="13549,18580
13549,18019
14109,18019
14109,18580
13549,18580
" /> 
<circle cx="14829.5" cy="18300" r="280.315" /> 
<circle cx="15829.5" cy="18300" r="280.315" /> 
<circle cx="16829.5" cy="18300" r="280.315" /> 
<circle cx="10329.5" cy="20300" r="255.315" /> 
<circle cx="11329.5" cy="20300" r="255.315" /> 
</g> 
</svg>
