<?xml version="1.0" standalone="no"?>
 <!DOCTYPE svg PUBLIC "-//W3C//DTD SVG 1.1//EN" 
 "http://www.w3.org/Graphics/SVG/1.1/DTD/svg11.dtd"> 
<svg xmlns="http://www.w3.org/2000/svg" version="1.1" 
    width="29.7002cm" height="21.0007cm" viewBox="0 0 116930 82680 ">
<title>SVG Picture created as STM32ShieldForMetroMiniSlaves-F_SilkS.svg date 2018/06/23 10:27:12 </title>
  <desc>Picture generated by PCBNEW </desc>
<g style="fill:#000000; fill-opacity:1;stroke:#000000; stroke-opacity:1;
stroke-linecap:round; stroke-linejoin:round; "
 transform="translate(0 0) scale(1 1)">
</g>
<g style="fill:#000000; fill-opacity:0.0; 
stroke:#000000; stroke-width:39.3701; stroke-opacity:1; 
stroke-linecap:round; stroke-linejoin:round;">
<path d="M4000 4000
L112930 4000
L112930 78680
L4000 78680
L4000 4000
" />
<path d="M4700 4700
L112230 4700
L112230 77980
L4700 77980
L4700 4700
" />
<path d="M25780 4000
L25780 4700
" />
<path d="M15032 4552
L14747 4552
" />
<path d="M14890 4552
L14890 4052
L14842 4123
L14794 4171
L14747 4195
" />
<path d="M25780 78680
L25780 77980
" />
<path d="M15032 78532
L14747 78532
" />
<path d="M14890 78532
L14890 78032
L14842 78103
L14794 78151
L14747 78175
" />
<path d="M47560 4000
L47560 4700
" />
<path d="M36527 4100
L36550 4076
L36598 4052
L36717 4052
L36765 4076
L36789 4100
L36812 4147
L36812 4195
L36789 4266
L36503 4552
L36812 4552
" />
<path d="M47560 78680
L47560 77980
" />
<path d="M36527 78080
L36550 78056
L36598 78032
L36717 78032
L36765 78056
L36789 78080
L36812 78127
L36812 78175
L36789 78246
L36503 78532
L36812 78532
" />
<path d="M69340 4000
L69340 4700
" />
<path d="M58283 4052
L58592 4052
L58426 4242
L58497 4242
L58545 4266
L58569 4290
L58592 4338
L58592 4457
L58569 4504
L58545 4528
L58497 4552
L58354 4552
L58307 4528
L58283 4504
" />
<path d="M69340 78680
L69340 77980
" />
<path d="M58283 78032
L58592 78032
L58426 78222
L58497 78222
L58545 78246
L58569 78270
L58592 78318
L58592 78437
L58569 78484
L58545 78508
L58497 78532
L58354 78532
L58307 78508
L58283 78484
" />
<path d="M91120 4000
L91120 4700
" />
<path d="M80325 4219
L80325 4552
" />
<path d="M80206 4028
L80087 4385
L80396 4385
" />
<path d="M91120 78680
L91120 77980
" />
<path d="M80325 78199
L80325 78532
" />
<path d="M80206 78008
L80087 78365
L80396 78365
" />
<path d="M102129 4052
L101890 4052
L101867 4290
L101890 4266
L101938 4242
L102057 4242
L102105 4266
L102129 4290
L102152 4338
L102152 4457
L102129 4504
L102105 4528
L102057 4552
L101938 4552
L101890 4528
L101867 4504
" />
<path d="M102129 78032
L101890 78032
L101867 78270
L101890 78246
L101938 78222
L102057 78222
L102105 78246
L102129 78270
L102152 78318
L102152 78437
L102129 78484
L102105 78508
L102057 78532
L101938 78532
L101890 78508
L101867 78484
" />
<path d="M4000 28890
L4700 28890
" />
<path d="M4230 16509
L4469 16509
" />
<path d="M4183 16652
L4350 16152
L4516 16652
" />
<path d="M112930 28890
L112230 28890
" />
<path d="M112460 16509
L112699 16509
" />
<path d="M112413 16652
L112580 16152
L112746 16652
" />
<path d="M4000 53780
L4700 53780
" />
<path d="M4385 41280
L4457 41304
L4480 41328
L4504 41375
L4504 41447
L4480 41494
L4457 41518
L4409 41542
L4219 41542
L4219 41042
L4385 41042
L4433 41066
L4457 41090
L4480 41137
L4480 41185
L4457 41232
L4433 41256
L4385 41280
L4219 41280
" />
<path d="M112930 53780
L112230 53780
" />
<path d="M112615 41280
L112687 41304
L112710 41328
L112734 41375
L112734 41447
L112710 41494
L112687 41518
L112639 41542
L112449 41542
L112449 41042
L112615 41042
L112663 41066
L112687 41090
L112710 41137
L112710 41185
L112687 41232
L112663 41256
L112615 41280
L112449 41280
" />
<path d="M4504 66384
L4480 66408
L4409 66432
L4361 66432
L4290 66408
L4242 66360
L4219 66313
L4195 66218
L4195 66146
L4219 66051
L4242 66003
L4290 65956
L4361 65932
L4409 65932
L4480 65956
L4504 65980
" />
<path d="M112734 66384
L112710 66408
L112639 66432
L112591 66432
L112520 66408
L112472 66360
L112449 66313
L112425 66218
L112425 66146
L112449 66051
L112472 66003
L112520 65956
L112591 65932
L112639 65932
L112710 65956
L112734 65980
" />
<path d="M79380 76422
L79455 75822
L79597 75822
L79680 75851
L79730 75908
L79751 75965
L79765 76080
L79755 76165
L79712 76280
L79676 76337
L79612 76394
L79522 76422
L79380 76422
" />
<path d="M80237 76422
L80276 76108
L80255 76051
L80201 76022
L80087 76022
L80026 76051
" />
<path d="M80240 76394
L80180 76422
L80037 76422
L79983 76394
L79962 76337
L79969 76280
L80005 76222
L80065 76194
L80208 76194
L80269 76165
" />
<path d="M80487 76022
L80715 76022
" />
<path d="M80597 75822
L80533 76337
L80555 76394
L80608 76422
L80665 76422
" />
<path d="M81097 76394
L81037 76422
L80922 76422
L80869 76394
L80847 76337
L80876 76108
L80912 76051
L80972 76022
L81087 76022
L81140 76051
L81162 76108
L81155 76165
L80862 76222
" />
<path d="M81387 76365
L81412 76394
L81380 76422
L81355 76394
L81387 76365
L81380 76422
" />
<path d="M81426 76051
L81451 76080
L81419 76108
L81394 76080
L81426 76051
L81419 76108
" />
<path d="M82162 75880
L82194 75851
L82255 75822
L82397 75822
L82451 75851
L82476 75880
L82497 75937
L82490 75994
L82451 76080
L82065 76422
L82437 76422
" />
<path d="M82712 75822
L83083 75822
L82855 76051
L82940 76051
L82994 76080
L83019 76108
L83040 76165
L83022 76308
L82987 76365
L82955 76394
L82894 76422
L82722 76422
L82669 76394
L82644 76365
" />
<path d="M83772 76022
L83708 76537
L83672 76594
L83612 76622
L83583 76622
" />
<path d="M83797 75822
L83765 75851
L83790 75880
L83822 75851
L83797 75822
L83790 75880
" />
<path d="M84315 76022
L84265 76422
" />
<path d="M84058 76022
L84019 76337
L84040 76394
L84094 76422
L84180 76422
L84240 76394
L84272 76365
" />
<path d="M84601 76022
L84551 76422
" />
<path d="M84594 76080
L84626 76051
L84687 76022
L84772 76022
L84826 76051
L84847 76108
L84808 76422
" />
<path d="M85590 75880
L85622 75851
L85683 75822
L85826 75822
L85880 75851
L85905 75880
L85926 75937
L85919 75994
L85880 76080
L85494 76422
L85865 76422
" />
<path d="M86312 75822
L86369 75822
L86422 75851
L86447 75880
L86469 75937
L86483 76051
L86465 76194
L86422 76308
L86387 76365
L86355 76394
L86294 76422
L86237 76422
L86183 76394
L86158 76365
L86137 76308
L86122 76194
L86140 76051
L86183 75937
L86219 75880
L86251 75851
L86312 75822
" />
<path d="M87008 76422
L86665 76422
" />
<path d="M86837 76422
L86912 75822
L86844 75908
L86780 75965
L86719 75994
" />
<path d="M87394 76080
L87340 76051
L87315 76022
L87294 75965
L87297 75937
L87333 75880
L87365 75851
L87426 75822
L87540 75822
L87594 75851
L87619 75880
L87640 75937
L87637 75965
L87601 76022
L87569 76051
L87508 76080
L87394 76080
L87333 76108
L87301 76137
L87265 76194
L87251 76308
L87272 76365
L87297 76394
L87351 76422
L87465 76422
L87526 76394
L87558 76365
L87594 76308
L87608 76194
L87587 76137
L87562 76108
L87508 76080
" />
<path d="M70972 77622
L70972 77022
" />
<path d="M71315 77622
L71058 77280
" />
<path d="M71315 77022
L70972 77365
" />
<path d="M71572 77622
L71572 77222
" />
<path d="M71572 77022
L71544 77051
L71572 77080
L71601 77051
L71572 77022
L71572 77080
" />
<path d="M72201 77565
L72172 77594
L72087 77622
L72030 77622
L71944 77594
L71887 77537
L71858 77480
L71830 77365
L71830 77280
L71858 77165
L71887 77108
L71944 77051
L72030 77022
L72087 77022
L72172 77051
L72201 77080
" />
<path d="M72715 77622
L72715 77308
L72687 77251
L72630 77222
L72515 77222
L72458 77251
" />
<path d="M72715 77594
L72658 77622
L72515 77622
L72458 77594
L72430 77537
L72430 77480
L72458 77422
L72515 77394
L72658 77394
L72715 77365
" />
<path d="M73258 77622
L73258 77022
" />
<path d="M73258 77594
L73201 77622
L73087 77622
L73030 77594
L73001 77565
L72972 77508
L72972 77337
L73001 77280
L73030 77251
L73087 77222
L73201 77222
L73258 77251
" />
<path d="M74001 77308
L74201 77308
" />
<path d="M74287 77622
L74001 77622
L74001 77022
L74287 77022
" />
<path d="M74544 77565
L74572 77594
L74544 77622
L74515 77594
L74544 77565
L74544 77622
" />
<path d="M74829 77622
L74829 77022
L74972 77022
L75058 77051
L75115 77108
L75144 77165
L75172 77280
L75172 77365
L75144 77480
L75115 77537
L75058 77594
L74972 77622
L74829 77622
" />
<path d="M75429 77565
L75458 77594
L75429 77622
L75401 77594
L75429 77565
L75429 77622
" />
<path d="M75687 77451
L75972 77451
" />
<path d="M75629 77622
L75829 77022
L76029 77622
" />
<path d="M76229 77565
L76258 77594
L76229 77622
L76201 77594
L76229 77565
L76229 77622
" />
<path d="M104522 76422
L104358 76137
" />
<path d="M104180 76422
L104255 75822
L104483 75822
L104537 75851
L104562 75880
L104583 75937
L104572 76022
L104537 76080
L104505 76108
L104444 76137
L104215 76137
" />
<path d="M105012 76394
L104951 76422
L104837 76422
L104783 76394
L104762 76337
L104790 76108
L104826 76051
L104887 76022
L105001 76022
L105055 76051
L105076 76108
L105069 76165
L104776 76222
" />
<path d="M105287 76022
L105380 76422
L105572 76022
" />
<path d="M105758 76365
L105783 76394
L105751 76422
L105726 76394
L105758 76365
L105751 76422
" />
<path d="M105797 76051
L105822 76080
L105790 76108
L105765 76080
L105797 76051
L105790 76108
" />
<path d="M70944 76394
L71030 76422
L71172 76422
L71230 76394
L71258 76365
L71287 76308
L71287 76251
L71258 76194
L71230 76165
L71172 76137
L71058 76108
L71001 76080
L70972 76051
L70944 75994
L70944 75937
L70972 75880
L71001 75851
L71058 75822
L71201 75822
L71287 75851
" />
<path d="M71544 76422
L71544 76022
" />
<path d="M71544 75822
L71515 75851
L71544 75880
L71572 75851
L71544 75822
L71544 75880
" />
<path d="M71772 76022
L72087 76022
L71772 76422
L72087 76422
" />
<path d="M72544 76394
L72487 76422
L72372 76422
L72315 76394
L72287 76337
L72287 76108
L72315 76051
L72372 76022
L72487 76022
L72544 76051
L72572 76108
L72572 76165
L72287 76222
" />
<path d="M72830 76365
L72858 76394
L72830 76422
L72801 76394
L72830 76365
L72830 76422
" />
<path d="M72830 76051
L72858 76080
L72830 76108
L72801 76080
L72830 76051
L72830 76108
" />
<path d="M73544 76251
L73830 76251
" />
<path d="M73487 76422
L73687 75822
L73887 76422
" />
<path d="M74344 76022
L74344 76422
" />
<path d="M74201 75794
L74058 76222
L74430 76222
" />
<path d="M104172 77622
L104172 77022
" />
<path d="M104715 77622
L104715 77022
" />
<path d="M104715 77594
L104658 77622
L104544 77622
L104487 77594
L104458 77565
L104430 77508
L104430 77337
L104458 77280
L104487 77251
L104544 77222
L104658 77222
L104715 77251
" />
<path d="M105001 77565
L105030 77594
L105001 77622
L104972 77594
L105001 77565
L105001 77622
" />
<path d="M105001 77251
L105030 77280
L105001 77308
L104972 77280
L105001 77251
L105001 77308
" />
<path d="M106058 77622
L105715 77622
" />
<path d="M105887 77622
L105887 77022
L105829 77108
L105772 77165
L105715 77194
" />
<path d="M106744 76994
L106230 77765
" />
<path d="M107258 77622
L106915 77622
" />
<path d="M107087 77622
L107087 77022
L107029 77108
L106972 77165
L106915 77194
" />
<path d="M70969 74622
L71312 74622
" />
<path d="M71065 75222
L71140 74622
" />
<path d="M71437 75222
L71487 74822
" />
<path d="M71512 74622
L71480 74651
L71505 74680
L71537 74651
L71512 74622
L71505 74680
" />
<path d="M71687 74822
L71915 74822
" />
<path d="M71797 74622
L71733 75137
L71755 75194
L71808 75222
L71865 75222
" />
<path d="M72151 75222
L72097 75194
L72076 75137
L72140 74622
" />
<path d="M72612 75194
L72551 75222
L72437 75222
L72383 75194
L72362 75137
L72390 74908
L72426 74851
L72487 74822
L72601 74822
L72655 74851
L72676 74908
L72669 74965
L72376 75022
" />
<path d="M72901 75165
L72926 75194
L72894 75222
L72869 75194
L72901 75165
L72894 75222
" />
<path d="M72940 74851
L72965 74880
L72933 74908
L72908 74880
L72940 74851
L72933 74908
" />
<path d="M71172 72508
L70972 72508
" />
<path d="M70972 72822
L70972 72222
L71258 72222
" />
<path d="M71487 72822
L71487 72422
" />
<path d="M71487 72222
L71458 72251
L71487 72280
L71515 72251
L71487 72222
L71487 72280
" />
<path d="M71858 72822
L71801 72794
L71772 72737
L71772 72222
" />
<path d="M72315 72794
L72258 72822
L72144 72822
L72087 72794
L72058 72737
L72058 72508
L72087 72451
L72144 72422
L72258 72422
L72315 72451
L72344 72508
L72344 72565
L72058 72622
" />
<path d="M72601 72765
L72630 72794
L72601 72822
L72572 72794
L72601 72765
L72601 72822
" />
<path d="M72601 72451
L72630 72480
L72601 72508
L72572 72480
L72601 72451
L72601 72508
" />
<path d="M73315 72794
L73401 72822
L73544 72822
L73601 72794
L73630 72765
L73658 72708
L73658 72651
L73630 72594
L73601 72565
L73544 72537
L73430 72508
L73372 72480
L73344 72451
L73315 72394
L73315 72337
L73344 72280
L73372 72251
L73430 72222
L73572 72222
L73658 72251
" />
<path d="M73830 72222
L74172 72222
" />
<path d="M74001 72822
L74001 72222
" />
<path d="M74372 72822
L74372 72222
L74572 72651
L74772 72222
L74772 72822
" />
<path d="M75001 72222
L75372 72222
L75172 72451
L75258 72451
L75315 72480
L75344 72508
L75372 72565
L75372 72708
L75344 72765
L75315 72794
L75258 72822
L75087 72822
L75030 72794
L75001 72765
" />
<path d="M75601 72280
L75630 72251
L75687 72222
L75830 72222
L75887 72251
L75915 72280
L75944 72337
L75944 72394
L75915 72480
L75572 72822
L75944 72822
" />
<path d="M76172 72794
L76258 72822
L76401 72822
L76458 72794
L76487 72765
L76515 72708
L76515 72651
L76487 72594
L76458 72565
L76401 72537
L76287 72508
L76230 72480
L76201 72451
L76172 72394
L76172 72337
L76201 72280
L76230 72251
L76287 72222
L76430 72222
L76515 72251
" />
<path d="M76772 72822
L76772 72222
" />
<path d="M77030 72822
L77030 72508
L77001 72451
L76944 72422
L76858 72422
L76801 72451
L76772 72480
" />
<path d="M77315 72822
L77315 72422
" />
<path d="M77315 72222
L77287 72251
L77315 72280
L77344 72251
L77315 72222
L77315 72280
" />
<path d="M77830 72794
L77772 72822
L77658 72822
L77601 72794
L77572 72737
L77572 72508
L77601 72451
L77658 72422
L77772 72422
L77830 72451
L77858 72508
L77858 72565
L77572 72622
" />
<path d="M78201 72822
L78144 72794
L78115 72737
L78115 72222
" />
<path d="M78687 72822
L78687 72222
" />
<path d="M78687 72794
L78630 72822
L78515 72822
L78458 72794
L78430 72765
L78401 72708
L78401 72537
L78430 72480
L78458 72451
L78515 72422
L78630 72422
L78687 72451
" />
<path d="M79172 72508
L78972 72508
" />
<path d="M78972 72822
L78972 72222
L79258 72222
" />
<path d="M79572 72822
L79515 72794
L79487 72765
L79458 72708
L79458 72537
L79487 72480
L79515 72451
L79572 72422
L79658 72422
L79715 72451
L79744 72480
L79772 72537
L79772 72708
L79744 72765
L79715 72794
L79658 72822
L79572 72822
" />
<path d="M80030 72822
L80030 72422
" />
<path d="M80030 72537
L80058 72480
L80087 72451
L80144 72422
L80201 72422
" />
<path d="M80401 72822
L80401 72222
L80601 72651
L80801 72222
L80801 72822
" />
<path d="M81315 72794
L81258 72822
L81144 72822
L81087 72794
L81058 72737
L81058 72508
L81087 72451
L81144 72422
L81258 72422
L81315 72451
L81344 72508
L81344 72565
L81058 72622
" />
<path d="M81515 72422
L81744 72422
" />
<path d="M81601 72222
L81601 72737
L81630 72794
L81687 72822
L81744 72822
" />
<path d="M81944 72822
L81944 72422
" />
<path d="M81944 72537
L81972 72480
L82001 72451
L82058 72422
L82115 72422
" />
<path d="M82401 72822
L82344 72794
L82315 72765
L82287 72708
L82287 72537
L82315 72480
L82344 72451
L82401 72422
L82487 72422
L82544 72451
L82572 72480
L82601 72537
L82601 72708
L82572 72765
L82544 72794
L82487 72822
L82401 72822
" />
<path d="M82858 72822
L82858 72222
L83058 72651
L83258 72222
L83258 72822
" />
<path d="M83544 72822
L83544 72422
" />
<path d="M83544 72222
L83515 72251
L83544 72280
L83572 72251
L83544 72222
L83544 72280
" />
<path d="M83830 72422
L83830 72822
" />
<path d="M83830 72480
L83858 72451
L83915 72422
L84001 72422
L84058 72451
L84087 72508
L84087 72822
" />
<path d="M84372 72822
L84372 72422
" />
<path d="M84372 72222
L84344 72251
L84372 72280
L84401 72251
L84372 72222
L84372 72280
" />
<path d="M84630 72794
L84715 72822
L84858 72822
L84915 72794
L84944 72765
L84972 72708
L84972 72651
L84944 72594
L84915 72565
L84858 72537
L84744 72508
L84687 72480
L84658 72451
L84630 72394
L84630 72337
L84658 72280
L84687 72251
L84744 72222
L84887 72222
L84972 72251
" />
<path d="M85315 72822
L85258 72794
L85230 72737
L85230 72222
" />
<path d="M85801 72822
L85801 72508
L85772 72451
L85715 72422
L85601 72422
L85544 72451
" />
<path d="M85801 72794
L85744 72822
L85601 72822
L85544 72794
L85515 72737
L85515 72680
L85544 72622
L85601 72594
L85744 72594
L85801 72565
" />
<path d="M86030 72422
L86172 72822
L86315 72422
" />
<path d="M86772 72794
L86715 72822
L86601 72822
L86544 72794
L86515 72737
L86515 72508
L86544 72451
L86601 72422
L86715 72422
L86772 72451
L86801 72508
L86801 72565
L86515 72622
" />
<path d="M87030 72794
L87087 72822
L87201 72822
L87258 72794
L87287 72737
L87287 72708
L87258 72651
L87201 72622
L87115 72622
L87058 72594
L87030 72537
L87030 72508
L87058 72451
L87115 72422
L87201 72422
L87258 72451
" />
<path d="M87544 72765
L87572 72794
L87544 72822
L87515 72794
L87544 72765
L87544 72822
" />
<path d="M87830 72822
L87830 72222
" />
<path d="M87887 72594
L88058 72822
" />
<path d="M88058 72422
L87830 72651
" />
<path d="M88315 72822
L88315 72422
" />
<path d="M88315 72222
L88287 72251
L88315 72280
L88344 72251
L88315 72222
L88315 72280
" />
<path d="M88858 72794
L88801 72822
L88687 72822
L88630 72794
L88601 72765
L88572 72708
L88572 72537
L88601 72480
L88630 72451
L88687 72422
L88801 72422
L88858 72451
" />
<path d="M89372 72822
L89372 72508
L89344 72451
L89287 72422
L89172 72422
L89115 72451
" />
<path d="M89372 72794
L89315 72822
L89172 72822
L89115 72794
L89087 72737
L89087 72680
L89115 72622
L89172 72594
L89315 72594
L89372 72565
" />
<path d="M89915 72822
L89915 72222
" />
<path d="M89915 72794
L89858 72822
L89744 72822
L89687 72794
L89658 72765
L89630 72708
L89630 72537
L89658 72480
L89687 72451
L89744 72422
L89858 72422
L89915 72451
" />
<path d="M90058 72880
L90515 72880
" />
<path d="M90658 72422
L90658 73022
" />
<path d="M90658 72451
L90715 72422
L90830 72422
L90887 72451
L90915 72480
L90944 72537
L90944 72708
L90915 72765
L90887 72794
L90830 72822
L90715 72822
L90658 72794
" />
<path d="M91458 72794
L91401 72822
L91287 72822
L91230 72794
L91201 72765
L91172 72708
L91172 72537
L91201 72480
L91230 72451
L91287 72422
L91401 72422
L91458 72451
" />
<path d="M91715 72822
L91715 72222
" />
<path d="M91715 72451
L91772 72422
L91887 72422
L91944 72451
L91972 72480
L92001 72537
L92001 72708
L91972 72765
L91944 72794
L91887 72822
L91772 72822
L91715 72794
" />
<path d="M70944 73994
L71030 74022
L71172 74022
L71230 73994
L71258 73965
L71287 73908
L71287 73851
L71258 73794
L71230 73765
L71172 73737
L71058 73708
L71001 73680
L70972 73651
L70944 73594
L70944 73537
L70972 73480
L71001 73451
L71058 73422
L71201 73422
L71287 73451
" />
<path d="M71544 74022
L71544 73422
" />
<path d="M71801 74022
L71801 73708
L71772 73651
L71715 73622
L71630 73622
L71572 73651
L71544 73680
" />
<path d="M72315 73994
L72258 74022
L72144 74022
L72087 73994
L72058 73937
L72058 73708
L72087 73651
L72144 73622
L72258 73622
L72315 73651
L72344 73708
L72344 73765
L72058 73822
" />
<path d="M72830 73994
L72772 74022
L72658 74022
L72601 73994
L72572 73937
L72572 73708
L72601 73651
L72658 73622
L72772 73622
L72830 73651
L72858 73708
L72858 73765
L72572 73822
" />
<path d="M73030 73622
L73258 73622
" />
<path d="M73115 73422
L73115 73937
L73144 73994
L73201 74022
L73258 74022
" />
<path d="M73458 73965
L73487 73994
L73458 74022
L73430 73994
L73458 73965
L73458 74022
" />
<path d="M73458 73651
L73487 73680
L73458 73708
L73430 73680
L73458 73651
L73458 73708
" />
<path d="M70230 71980
L70230 77980
" />
<path d="M70230 71980
L112230 71980
" />
<path d="M70230 71980
L112230 71980
" />
<path d="M70230 74380
L112230 74380
" />
<path d="M103430 75580
L103430 77980
" />
<path d="M70230 76780
L112230 76780
" />
<path d="M70230 75580
L112230 75580
" />
<path d="M76830 75580
L76830 76780
" />
</g>
<g style="fill:#00A0A0; fill-opacity:0.0; 
stroke:#00A0A0; stroke-width:59.0551; stroke-opacity:1; 
stroke-linecap:round; stroke-linejoin:round;">
<path d="M54859 47637
L54859 47862
" />
<path d="M54859 47750
L54465 47750
L54521 47787
L54559 47824
L54578 47862
" />
</g>
<g style="fill:#FFFF00; fill-opacity:0.0; 
stroke:#FFFF00; stroke-width:59.0551; stroke-opacity:1; 
stroke-linecap:round; stroke-linejoin:round;">
<path d="M69700 29350
L69100 28750
" />
<path d="M69700 33850
L69700 29350
" />
<path d="M70700 34850
L69700 33850
" />
<path d="M70700 47750
L70700 34850
" />
<path d="M69700 48750
L70700 47750
" />
<path d="M69700 49750
L69700 48750
" />
<path d="M43700 49750
L69700 49750
" />
<path d="M43700 28750
L43700 49750
" />
<path d="M69100 28750
L43700 28750
" />
</g>
<g style="fill:#00A0A0; fill-opacity:0.0; 
stroke:#00A0A0; stroke-width:59.0551; stroke-opacity:1; 
stroke-linecap:round; stroke-linejoin:round;">
<path d="M57909 47909
L57909 47515
L58059 47515
L58096 47534
L58115 47553
L58134 47590
L58134 47646
L58115 47684
L58096 47703
L58059 47721
L57909 47721
" />
<path d="M58509 47909
L58284 47909
" />
<path d="M58396 47909
L58396 47515
L58359 47571
L58321 47609
L58284 47628
" />
<path d="M57421 47309
L57421 46915
L57571 46915
L57609 46934
L57628 46953
L57646 46990
L57646 47046
L57628 47084
L57609 47103
L57571 47121
L57421 47121
" />
<path d="M57871 47309
L57834 47290
L57815 47271
L57796 47234
L57796 47121
L57815 47084
L57834 47065
L57871 47046
L57928 47046
L57965 47065
L57984 47084
L58003 47121
L58003 47234
L57984 47271
L57965 47290
L57928 47309
L57871 47309
" />
<path d="M58134 47046
L58209 47309
L58284 47121
L58359 47309
L58434 47046
" />
<path d="M58734 47290
L58696 47309
L58621 47309
L58584 47290
L58565 47253
L58565 47103
L58584 47065
L58621 47046
L58696 47046
L58734 47065
L58753 47103
L58753 47140
L58565 47178
" />
<path d="M58921 47309
L58921 47046
" />
<path d="M58921 47121
L58940 47084
L58959 47065
L58996 47046
L59034 47046
" />
<path d="M66009 47909
L66009 47515
L66159 47515
L66196 47534
L66215 47553
L66234 47590
L66234 47646
L66215 47684
L66196 47703
L66159 47721
L66009 47721
" />
<path d="M66384 47553
L66403 47534
L66440 47515
L66534 47515
L66571 47534
L66590 47553
L66609 47590
L66609 47628
L66590 47684
L66365 47909
L66609 47909
" />
<path d="M65390 47196
L65578 47196
" />
<path d="M65353 47309
L65484 46915
L65615 47309
" />
<path d="M65746 47046
L65746 47309
" />
<path d="M65746 47084
L65765 47065
L65803 47046
L65859 47046
L65896 47065
L65915 47103
L65915 47309
" />
<path d="M66271 47309
L66271 47103
L66253 47065
L66215 47046
L66140 47046
L66103 47065
" />
<path d="M66271 47290
L66234 47309
L66140 47309
L66103 47290
L66084 47253
L66084 47215
L66103 47178
L66140 47159
L66234 47159
L66271 47140
" />
<path d="M66515 47309
L66478 47290
L66459 47253
L66459 46915
" />
<path d="M66721 47309
L66684 47290
L66665 47271
L66646 47234
L66646 47121
L66665 47084
L66684 47065
L66721 47046
L66778 47046
L66815 47065
L66834 47084
L66853 47121
L66853 47234
L66834 47271
L66815 47290
L66778 47309
L66721 47309
" />
<path d="M67190 47046
L67190 47365
L67171 47403
L67153 47421
L67115 47440
L67059 47440
L67021 47421
" />
<path d="M67190 47290
L67153 47309
L67078 47309
L67040 47290
L67021 47271
L67003 47234
L67003 47121
L67021 47084
L67040 47065
L67078 47046
L67153 47046
L67190 47065
" />
<path d="M55309 31009
L55309 30615
L55459 30615
L55496 30634
L55515 30653
L55534 30690
L55534 30746
L55515 30784
L55496 30803
L55459 30821
L55309 30821
" />
<path d="M55665 30615
L55909 30615
L55778 30765
L55834 30765
L55871 30784
L55890 30803
L55909 30840
L55909 30934
L55890 30971
L55871 30990
L55834 31009
L55721 31009
L55684 30990
L55665 30971
" />
<path d="M54737 31609
L54737 31215
L54831 31215
L54887 31234
L54925 31271
L54943 31309
L54962 31384
L54962 31440
L54943 31515
L54925 31553
L54887 31590
L54831 31609
L54737 31609
" />
<path d="M55131 31609
L55131 31346
" />
<path d="M55131 31215
L55112 31234
L55131 31253
L55150 31234
L55131 31215
L55131 31253
" />
<path d="M55487 31346
L55487 31665
L55468 31703
L55450 31721
L55412 31740
L55356 31740
L55318 31721
" />
<path d="M55487 31590
L55450 31609
L55375 31609
L55337 31590
L55318 31571
L55300 31534
L55300 31421
L55318 31384
L55337 31365
L55375 31346
L55450 31346
L55487 31365
" />
<path d="M55674 31609
L55674 31346
" />
<path d="M55674 31215
L55656 31234
L55674 31253
L55693 31234
L55674 31215
L55674 31253
" />
<path d="M55806 31346
L55956 31346
" />
<path d="M55862 31215
L55862 31553
L55881 31590
L55918 31609
L55956 31609
" />
<path d="M56256 31609
L56256 31403
L56237 31365
L56199 31346
L56124 31346
L56087 31365
" />
<path d="M56256 31590
L56218 31609
L56124 31609
L56087 31590
L56068 31553
L56068 31515
L56087 31478
L56124 31459
L56218 31459
L56256 31440
" />
<path d="M56499 31609
L56462 31590
L56443 31553
L56443 31215
" />
<path d="M64909 31009
L64909 30615
L65059 30615
L65096 30634
L65115 30653
L65134 30690
L65134 30746
L65115 30784
L65096 30803
L65059 30821
L64909 30821
" />
<path d="M65471 30746
L65471 31009
" />
<path d="M65378 30596
L65284 30878
L65528 30878
" />
<path d="M64337 31609
L64337 31215
L64431 31215
L64487 31234
L64525 31271
L64543 31309
L64562 31384
L64562 31440
L64543 31515
L64525 31553
L64487 31590
L64431 31609
L64337 31609
" />
<path d="M64731 31609
L64731 31346
" />
<path d="M64731 31215
L64712 31234
L64731 31253
L64750 31234
L64731 31215
L64731 31253
" />
<path d="M65087 31346
L65087 31665
L65068 31703
L65050 31721
L65012 31740
L64956 31740
L64918 31721
" />
<path d="M65087 31590
L65050 31609
L64975 31609
L64937 31590
L64918 31571
L64900 31534
L64900 31421
L64918 31384
L64937 31365
L64975 31346
L65050 31346
L65087 31365
" />
<path d="M65274 31609
L65274 31346
" />
<path d="M65274 31215
L65256 31234
L65274 31253
L65293 31234
L65274 31215
L65274 31253
" />
<path d="M65406 31346
L65556 31346
" />
<path d="M65462 31215
L65462 31553
L65481 31590
L65518 31609
L65556 31609
" />
<path d="M65856 31609
L65856 31403
L65837 31365
L65799 31346
L65724 31346
L65687 31365
" />
<path d="M65856 31590
L65818 31609
L65724 31609
L65687 31590
L65668 31553
L65668 31515
L65687 31478
L65724 31459
L65818 31459
L65856 31440
" />
<path d="M66099 31609
L66062 31590
L66043 31553
L66043 31215
" />
</g>
<g style="fill:#00A0A0; fill-opacity:0.0; 
stroke:#00A0A0; stroke-width:40; stroke-opacity:1; 
stroke-linecap:round; stroke-linejoin:round;">
<path d="M47351 43178
L47351 43226
L47363 43250
L47375 43261
L47410 43285
L47458 43297
L47553 43297
L47577 43285
L47589 43273
L47601 43250
L47601 43202
L47589 43178
L47577 43166
L47553 43154
L47494 43154
L47470 43166
L47458 43178
L47446 43202
L47446 43250
L47458 43273
L47470 43285
L47494 43297
" />
<path d="M47351 43000
L47351 42976
L47363 42952
L47375 42940
L47398 42928
L47446 42916
L47505 42916
L47553 42928
L47577 42940
L47589 42952
L47601 42976
L47601 43000
L47589 43023
L47577 43035
L47553 43047
L47505 43059
L47446 43059
L47398 43047
L47375 43035
L47363 43023
L47351 43000
" />
<path d="M47351 42571
L47351 42523
L47363 42500
L47386 42476
L47434 42464
L47517 42464
L47565 42476
L47589 42500
L47601 42523
L47601 42571
L47589 42595
L47565 42619
L47517 42630
L47434 42630
L47386 42619
L47363 42595
L47351 42571
" />
<path d="M47601 42357
L47351 42357
" />
<path d="M47601 42250
L47470 42250
L47446 42261
L47434 42285
L47434 42321
L47446 42345
L47458 42357
" />
<path d="M47601 42130
L47434 42130
" />
<path d="M47458 42130
L47446 42119
L47434 42095
L47434 42059
L47446 42035
L47470 42023
L47601 42023
" />
<path d="M47470 42023
L47446 42011
L47434 41988
L47434 41952
L47446 41928
L47470 41916
L47601 41916
" />
<path d="M47589 41809
L47601 41785
L47601 41738
L47589 41714
L47565 41702
L47553 41702
L47529 41714
L47517 41738
L47517 41773
L47505 41797
L47482 41809
L47470 41809
L47446 41797
L47434 41773
L47434 41738
L47446 41714
" />
<path d="M47351 40678
L47351 40726
L47363 40750
L47375 40761
L47410 40785
L47458 40797
L47553 40797
L47577 40785
L47589 40773
L47601 40750
L47601 40702
L47589 40678
L47577 40666
L47553 40654
L47494 40654
L47470 40666
L47458 40678
L47446 40702
L47446 40750
L47458 40773
L47470 40785
L47494 40797
" />
<path d="M47351 40500
L47351 40476
L47363 40452
L47375 40440
L47398 40428
L47446 40416
L47505 40416
L47553 40428
L47577 40440
L47589 40452
L47601 40476
L47601 40500
L47589 40523
L47577 40535
L47553 40547
L47505 40559
L47446 40559
L47398 40547
L47375 40535
L47363 40523
L47351 40500
" />
<path d="M47351 40071
L47351 40023
L47363 40000
L47386 39976
L47434 39964
L47517 39964
L47565 39976
L47589 40000
L47601 40023
L47601 40071
L47589 40095
L47565 40119
L47517 40130
L47434 40130
L47386 40119
L47363 40095
L47351 40071
" />
<path d="M47601 39857
L47351 39857
" />
<path d="M47601 39750
L47470 39750
L47446 39761
L47434 39785
L47434 39821
L47446 39845
L47458 39857
" />
<path d="M47601 39630
L47434 39630
" />
<path d="M47458 39630
L47446 39619
L47434 39595
L47434 39559
L47446 39535
L47470 39523
L47601 39523
" />
<path d="M47470 39523
L47446 39511
L47434 39488
L47434 39452
L47446 39428
L47470 39416
L47601 39416
" />
<path d="M47589 39309
L47601 39285
L47601 39238
L47589 39214
L47565 39202
L47553 39202
L47529 39214
L47517 39238
L47517 39273
L47505 39297
L47482 39309
L47470 39309
L47446 39297
L47434 39273
L47434 39238
L47446 39214
" />
<path d="M63101 41779
L63101 41922
" />
<path d="M63101 41851
L62851 41851
L62886 41875
L62910 41898
L62922 41922
" />
<path d="M62851 41625
L62851 41601
L62863 41577
L62875 41565
L62898 41553
L62946 41541
L63005 41541
L63053 41553
L63077 41565
L63089 41577
L63101 41601
L63101 41625
L63089 41648
L63077 41660
L63053 41672
L63005 41684
L62946 41684
L62898 41672
L62875 41660
L62863 41648
L62851 41625
" />
<path d="M63101 41434
L62851 41434
" />
<path d="M63101 41291
L62958 41398
" />
<path d="M62851 41291
L62994 41434
" />
<path d="M62851 40946
L62851 40898
L62863 40875
L62886 40851
L62934 40839
L63017 40839
L63065 40851
L63089 40875
L63101 40898
L63101 40946
L63089 40970
L63065 40994
L63017 41005
L62934 41005
L62886 40994
L62863 40970
L62851 40946
" />
<path d="M63101 40732
L62851 40732
" />
<path d="M63101 40625
L62970 40625
L62946 40636
L62934 40660
L62934 40696
L62946 40720
L62958 40732
" />
<path d="M63101 40505
L62934 40505
" />
<path d="M62958 40505
L62946 40494
L62934 40470
L62934 40434
L62946 40410
L62970 40398
L63101 40398
" />
<path d="M62970 40398
L62946 40386
L62934 40363
L62934 40327
L62946 40303
L62970 40291
L63101 40291
" />
<path d="M63089 40184
L63101 40160
L63101 40113
L63089 40089
L63065 40077
L63053 40077
L63029 40089
L63017 40113
L63017 40148
L63005 40172
L62982 40184
L62970 40184
L62946 40172
L62934 40148
L62934 40113
L62946 40089
" />
<path d="M56845 43601
L56702 43601
" />
<path d="M56773 43601
L56773 43351
L56750 43386
L56726 43410
L56702 43422
" />
<path d="M57000 43351
L57023 43351
L57047 43363
L57059 43375
L57071 43398
L57083 43446
L57083 43505
L57071 43553
L57059 43577
L57047 43589
L57023 43601
L57000 43601
L56976 43589
L56964 43577
L56952 43553
L56940 43505
L56940 43446
L56952 43398
L56964 43375
L56976 43363
L57000 43351
" />
<path d="M57428 43351
L57476 43351
L57500 43363
L57523 43386
L57535 43434
L57535 43517
L57523 43565
L57500 43589
L57476 43601
L57428 43601
L57404 43589
L57380 43565
L57369 43517
L57369 43434
L57380 43386
L57404 43363
L57428 43351
" />
<path d="M57642 43601
L57642 43351
" />
<path d="M57750 43601
L57750 43470
L57738 43446
L57714 43434
L57678 43434
L57654 43446
L57642 43458
" />
<path d="M57869 43601
L57869 43434
" />
<path d="M57869 43458
L57880 43446
L57904 43434
L57940 43434
L57964 43446
L57976 43470
L57976 43601
" />
<path d="M57976 43470
L57988 43446
L58011 43434
L58047 43434
L58071 43446
L58083 43470
L58083 43601
" />
<path d="M58190 43589
L58214 43601
L58261 43601
L58285 43589
L58297 43565
L58297 43553
L58285 43529
L58261 43517
L58226 43517
L58202 43505
L58190 43482
L58190 43470
L58202 43446
L58226 43434
L58261 43434
L58285 43446
" />
</g>
<g style="fill:#00A0A0; fill-opacity:0.0; 
stroke:#00A0A0; stroke-width:80; stroke-opacity:1; 
stroke-linecap:round; stroke-linejoin:round;">
<path d="M44047 44133
L44047 43942
" />
<path d="M44161 44171
L43761 44038
L44161 43904
" />
<path d="M43952 43638
L43971 43580
L43990 43561
L44028 43542
L44085 43542
L44123 43561
L44142 43580
L44161 43619
L44161 43771
L43761 43771
L43761 43638
L43780 43599
L43800 43580
L43838 43561
L43876 43561
L43914 43580
L43933 43599
L43952 43638
L43952 43771
" />
<path d="M44142 43390
L44161 43333
L44161 43238
L44142 43199
L44123 43180
L44085 43161
L44047 43161
L44009 43180
L43990 43199
L43971 43238
L43952 43314
L43933 43352
L43914 43371
L43876 43390
L43838 43390
L43800 43371
L43780 43352
L43761 43314
L43761 43219
L43780 43161
" />
<path d="M44142 42704
L44161 42647
L44161 42552
L44142 42514
L44123 42495
L44085 42476
L44047 42476
L44009 42495
L43990 42514
L43971 42552
L43952 42628
L43933 42666
L43914 42685
L43876 42704
L43838 42704
L43800 42685
L43780 42666
L43761 42628
L43761 42533
L43780 42476
" />
<path d="M44161 42247
L44142 42285
L44104 42304
L43761 42304
" />
<path d="M44161 41923
L43952 41923
L43914 41942
L43895 41980
L43895 42057
L43914 42095
" />
<path d="M44142 41923
L44161 41961
L44161 42057
L44142 42095
L44104 42114
L44066 42114
L44028 42095
L44009 42057
L44009 41961
L43990 41923
" />
<path d="M43895 41771
L44161 41676
L43895 41580
" />
<path d="M44142 41276
L44161 41314
L44161 41390
L44142 41428
L44104 41447
L43952 41447
L43914 41428
L43895 41390
L43895 41314
L43914 41276
L43952 41257
L43990 41257
L44028 41447
" />
<path d="M43952 40647
L43971 40590
L43990 40571
L44028 40552
L44085 40552
L44123 40571
L44142 40590
L44161 40628
L44161 40780
L43761 40780
L43761 40647
L43780 40609
L43800 40590
L43838 40571
L43876 40571
L43914 40590
L43933 40609
L43952 40647
L43952 40780
" />
<path d="M43895 40209
L44161 40209
" />
<path d="M43895 40380
L44104 40380
L44142 40361
L44161 40323
L44161 40266
L44142 40228
L44123 40209
" />
<path d="M44142 40038
L44161 40000
L44161 39923
L44142 39885
L44104 39866
L44085 39866
L44047 39885
L44028 39923
L44028 39980
L44009 40019
L43971 40038
L43952 40038
L43914 40019
L43895 39980
L43895 39923
L43914 39885
" />
<path d="M66261 38347
L66661 38252
L66376 38176
L66661 38099
L66261 38004
" />
<path d="M66642 37699
L66661 37738
L66661 37814
L66642 37852
L66604 37871
L66452 37871
L66414 37852
L66395 37814
L66395 37738
L66414 37699
L66452 37680
L66490 37680
L66528 37871
" />
<path d="M66642 37528
L66661 37490
L66661 37414
L66642 37376
L66604 37357
L66585 37357
L66547 37376
L66528 37414
L66528 37471
L66509 37509
L66471 37528
L66452 37528
L66414 37509
L66395 37471
L66395 37414
L66414 37376
" />
<path d="M66395 37242
L66395 37090
" />
<path d="M66261 37185
L66604 37185
L66642 37166
L66661 37128
L66661 37090
" />
<path d="M66661 36652
L66261 36652
L66261 36557
L66280 36500
L66319 36461
L66357 36442
L66433 36423
L66490 36423
L66566 36442
L66604 36461
L66642 36500
L66661 36557
L66661 36652
" />
<path d="M66661 36252
L66395 36252
" />
<path d="M66261 36252
L66280 36271
L66300 36252
L66280 36233
L66261 36252
L66300 36252
" />
<path d="M66395 36099
L66661 36004
L66395 35909
" />
<path d="M66623 35757
L66642 35738
L66661 35757
L66642 35776
L66623 35757
L66661 35757
" />
<path d="M66814 35147
L66795 35166
L66738 35204
L66700 35223
L66642 35242
L66547 35261
L66471 35261
L66376 35242
L66319 35223
L66280 35204
L66223 35166
L66204 35147
" />
<path d="M66452 34861
L66452 34995
" />
<path d="M66661 34995
L66261 34995
L66261 34804
" />
<path d="M66661 34652
L66395 34652
" />
<path d="M66471 34652
L66433 34633
L66414 34614
L66395 34576
L66395 34538
" />
<path d="M66661 34347
L66642 34385
L66623 34404
L66585 34423
L66471 34423
L66433 34404
L66414 34385
L66395 34347
L66395 34290
L66414 34252
L66433 34233
L66471 34214
L66585 34214
L66623 34233
L66642 34252
L66661 34290
L66661 34347
" />
<path d="M66395 33871
L66719 33871
L66757 33890
L66776 33909
L66795 33947
L66795 34004
L66776 34042
" />
<path d="M66642 33871
L66661 33909
L66661 33985
L66642 34023
L66623 34042
L66585 34061
L66471 34061
L66433 34042
L66414 34023
L66395 33985
L66395 33909
L66414 33871
" />
<path d="M66642 33661
L66661 33661
L66700 33680
L66719 33700
" />
<path d="M66661 32957
L66471 33090
" />
<path d="M66661 33185
L66261 33185
L66261 33033
L66280 32995
L66300 32976
L66338 32957
L66395 32957
L66433 32976
L66452 32995
L66471 33033
L66471 33185
" />
<path d="M66642 32633
L66661 32671
L66661 32747
L66642 32785
L66604 32804
L66452 32804
L66414 32785
L66395 32747
L66395 32671
L66414 32633
L66452 32614
L66490 32614
L66528 32804
" />
<path d="M66395 32480
L66661 32385
L66395 32290
" />
<path d="M66642 31985
L66661 32023
L66661 32100
L66642 32138
L66604 32157
L66452 32157
L66414 32138
L66395 32100
L66395 32023
L66414 31985
L66452 31966
L66490 31966
L66528 32157
" />
<path d="M66642 31814
L66661 31776
L66661 31700
L66642 31661
L66604 31642
L66585 31642
L66547 31661
L66528 31700
L66528 31757
L66509 31795
L66471 31814
L66452 31814
L66414 31795
L66395 31757
L66395 31700
L66414 31661
" />
<path d="M66642 31319
L66661 31357
L66661 31433
L66642 31471
L66604 31490
L66452 31490
L66414 31471
L66395 31433
L66395 31357
L66414 31319
L66452 31300
L66490 31300
L66528 31490
" />
<path d="M66661 30957
L66261 30957
" />
<path d="M66642 30957
L66661 30995
L66661 31071
L66642 31109
L66623 31128
L66585 31147
L66471 31147
L66433 31128
L66414 31109
L66395 31071
L66395 30995
L66414 30957
" />
<path d="M66814 30804
L66795 30785
L66738 30747
L66700 30728
L66642 30709
L66547 30690
L66471 30690
L66376 30709
L66319 30728
L66280 30747
L66223 30785
L66204 30804
" />
<path d="M64261 38347
L64661 38252
L64376 38176
L64661 38099
L64261 38004
" />
<path d="M64642 37699
L64661 37738
L64661 37814
L64642 37852
L64604 37871
L64452 37871
L64414 37852
L64395 37814
L64395 37738
L64414 37699
L64452 37680
L64490 37680
L64528 37871
" />
<path d="M64642 37528
L64661 37490
L64661 37414
L64642 37376
L64604 37357
L64585 37357
L64547 37376
L64528 37414
L64528 37471
L64509 37509
L64471 37528
L64452 37528
L64414 37509
L64395 37471
L64395 37414
L64414 37376
" />
<path d="M64395 37242
L64395 37090
" />
<path d="M64261 37185
L64604 37185
L64642 37166
L64661 37128
L64661 37090
" />
<path d="M64661 36652
L64261 36652
L64547 36519
L64261 36385
L64661 36385
" />
<path d="M64661 36023
L64452 36023
L64414 36042
L64395 36080
L64395 36157
L64414 36195
" />
<path d="M64642 36023
L64661 36061
L64661 36157
L64642 36195
L64604 36214
L64566 36214
L64528 36195
L64509 36157
L64509 36061
L64490 36023
" />
<path d="M64661 35833
L64395 35833
" />
<path d="M64261 35833
L64280 35852
L64300 35833
L64280 35814
L64261 35833
L64300 35833
" />
<path d="M64395 35642
L64661 35642
" />
<path d="M64433 35642
L64414 35623
L64395 35585
L64395 35528
L64414 35490
L64452 35471
L64661 35471
" />
<path d="M64814 34861
L64795 34880
L64738 34919
L64700 34938
L64642 34957
L64547 34976
L64471 34976
L64376 34957
L64319 34938
L64280 34919
L64223 34880
L64204 34861
" />
<path d="M64452 34576
L64452 34709
" />
<path d="M64661 34709
L64261 34709
L64261 34519
" />
<path d="M64661 34366
L64395 34366
" />
<path d="M64471 34366
L64433 34347
L64414 34328
L64395 34290
L64395 34252
" />
<path d="M64661 34061
L64642 34100
L64623 34119
L64585 34138
L64471 34138
L64433 34119
L64414 34100
L64395 34061
L64395 34004
L64414 33966
L64433 33947
L64471 33928
L64585 33928
L64623 33947
L64642 33966
L64661 34004
L64661 34061
" />
<path d="M64395 33585
L64719 33585
L64757 33604
L64776 33623
L64795 33661
L64795 33719
L64776 33757
" />
<path d="M64642 33585
L64661 33623
L64661 33700
L64642 33738
L64623 33757
L64585 33776
L64471 33776
L64433 33757
L64414 33738
L64395 33700
L64395 33623
L64414 33585
" />
<path d="M64642 33376
L64661 33376
L64700 33395
L64719 33414
" />
<path d="M64661 32900
L64261 32900
L64661 32671
L64261 32671
" />
<path d="M64661 32423
L64642 32461
L64623 32480
L64585 32500
L64471 32500
L64433 32480
L64414 32461
L64395 32423
L64395 32366
L64414 32328
L64433 32309
L64471 32290
L64585 32290
L64623 32309
L64642 32328
L64661 32366
L64661 32423
" />
<path d="M64661 32119
L64395 32119
" />
<path d="M64471 32119
L64433 32100
L64414 32080
L64395 32042
L64395 32004
" />
<path d="M64661 31871
L64395 31871
" />
<path d="M64433 31871
L64414 31852
L64395 31814
L64395 31757
L64414 31719
L64452 31700
L64661 31700
" />
<path d="M64452 31700
L64414 31680
L64395 31642
L64395 31585
L64414 31547
L64452 31528
L64661 31528
" />
<path d="M64661 31166
L64452 31166
L64414 31185
L64395 31223
L64395 31300
L64414 31338
" />
<path d="M64642 31166
L64661 31204
L64661 31300
L64642 31338
L64604 31357
L64566 31357
L64528 31338
L64509 31300
L64509 31204
L64490 31166
" />
<path d="M64661 30919
L64642 30957
L64604 30976
L64261 30976
" />
<path d="M64814 30804
L64795 30785
L64738 30747
L64700 30728
L64642 30709
L64547 30690
L64471 30690
L64376 30709
L64319 30728
L64280 30747
L64223 30785
L64204 30804
" />
<path d="M62452 36395
L62452 36261
" />
<path d="M62661 36204
L62661 36395
L62261 36395
L62261 36204
" />
<path d="M62661 35861
L62452 35861
L62414 35880
L62395 35919
L62395 35995
L62414 36033
" />
<path d="M62642 35861
L62661 35899
L62661 35995
L62642 36033
L62604 36052
L62566 36052
L62528 36033
L62509 35995
L62509 35899
L62490 35861
" />
<path d="M62642 35690
L62661 35652
L62661 35576
L62642 35538
L62604 35519
L62585 35519
L62547 35538
L62528 35576
L62528 35633
L62509 35671
L62471 35690
L62452 35690
L62414 35671
L62395 35633
L62395 35576
L62414 35538
" />
<path d="M62395 35404
L62395 35252
" />
<path d="M62261 35347
L62604 35347
L62642 35328
L62661 35290
L62661 35252
" />
<path d="M62814 34700
L62795 34719
L62738 34757
L62700 34776
L62642 34795
L62547 34814
L62471 34814
L62376 34795
L62319 34776
L62280 34757
L62223 34719
L62204 34700
" />
<path d="M62661 34547
L62261 34547
L62261 34395
L62280 34357
L62300 34338
L62338 34319
L62395 34319
L62433 34338
L62452 34357
L62471 34395
L62471 34547
" />
<path d="M62661 34090
L62642 34128
L62623 34147
L62585 34166
L62471 34166
L62433 34147
L62414 34128
L62395 34090
L62395 34033
L62414 33995
L62433 33976
L62471 33957
L62585 33957
L62623 33976
L62642 33995
L62661 34033
L62661 34090
" />
<path d="M62661 33785
L62395 33785
" />
<path d="M62261 33785
L62280 33804
L62300 33785
L62280 33766
L62261 33785
L62300 33785
" />
<path d="M62395 33595
L62661 33595
" />
<path d="M62433 33595
L62414 33576
L62395 33538
L62395 33480
L62414 33442
L62452 33423
L62661 33423
" />
<path d="M62395 33290
L62395 33138
" />
<path d="M62261 33233
L62604 33233
L62642 33214
L62661 33176
L62661 33138
" />
<path d="M62642 33023
L62661 32985
L62661 32909
L62642 32871
L62604 32852
L62585 32852
L62547 32871
L62528 32909
L62528 32966
L62509 33004
L62471 33023
L62452 33023
L62414 33004
L62395 32966
L62395 32909
L62414 32871
" />
<path d="M62814 32719
L62795 32700
L62738 32661
L62700 32642
L62642 32623
L62547 32604
L62471 32604
L62376 32623
L62319 32642
L62280 32661
L62223 32700
L62204 32719
" />
<path d="M60060 41702
L60060 41202
" />
<path d="M60532 41654
L60510 41678
L60446 41702
L60403 41702
L60339 41678
L60296 41630
L60275 41583
L60253 41488
L60253 41416
L60275 41321
L60296 41273
L60339 41226
L60403 41202
L60446 41202
L60510 41226
L60532 41250
" />
<path d="M60960 41702
L60703 41702
" />
<path d="M60832 41702
L60832 41202
L60789 41273
L60746 41321
L60703 41345
" />
<path d="M60702 44885
L60202 44885
L60559 44752
L60202 44619
L60702 44619
" />
<path d="M60654 44200
L60678 44219
L60702 44276
L60702 44314
L60678 44371
L60630 44409
L60583 44428
L60488 44447
L60416 44447
L60321 44428
L60273 44409
L60226 44371
L60202 44314
L60202 44276
L60226 44219
L60250 44200
" />
<path d="M60202 44085
L60202 43857
" />
<path d="M60702 43971
L60202 43971
" />
<path d="M60202 43552
L60202 43628
L60226 43666
L60250 43685
L60321 43723
L60416 43742
L60607 43742
L60654 43723
L60678 43704
L60702 43666
L60702 43590
L60678 43552
L60654 43533
L60607 43514
L60488 43514
L60440 43533
L60416 43552
L60392 43590
L60392 43666
L60416 43704
L60440 43723
L60488 43742
" />
<path d="M60702 43342
L60202 43342
" />
<path d="M60440 43342
L60440 43114
" />
<path d="M60702 43114
L60202 43114
" />
<path d="M49202 45842
L49607 45842
L49654 45821
L49678 45800
L49702 45757
L49702 45671
L49678 45628
L49654 45607
L49607 45585
L49202 45585
" />
<path d="M49250 45392
L49226 45371
L49202 45328
L49202 45221
L49226 45178
L49250 45157
L49297 45135
L49345 45135
L49416 45157
L49702 45414
L49702 45135
" />
<path d="M50161 45678
L50219 45702
L50314 45702
L50352 45678
L50371 45654
L50390 45607
L50390 45559
L50371 45511
L50352 45488
L50314 45464
L50238 45440
L50200 45416
L50180 45392
L50161 45345
L50161 45297
L50180 45250
L50200 45226
L50238 45202
L50333 45202
L50390 45226
" />
<path d="M50561 45702
L50561 45202
L50790 45702
L50790 45202
" />
<path d="M50942 45202
L51209 45202
L51038 45702
" />
<path d="M51552 45202
L51361 45202
L51342 45440
L51361 45416
L51400 45392
L51495 45392
L51533 45416
L51552 45440
L51571 45488
L51571 45607
L51552 45654
L51533 45678
L51495 45702
L51400 45702
L51361 45678
L51342 45654
" />
<path d="M51933 45702
L51742 45702
L51742 45202
" />
<path d="M52200 45440
L52257 45464
L52276 45488
L52295 45535
L52295 45607
L52276 45654
L52257 45678
L52219 45702
L52066 45702
L52066 45202
L52200 45202
L52238 45226
L52257 45250
L52276 45297
L52276 45345
L52257 45392
L52238 45416
L52200 45440
L52066 45440
" />
<path d="M52695 45654
L52676 45678
L52619 45702
L52580 45702
L52523 45678
L52485 45630
L52466 45583
L52447 45488
L52447 45416
L52466 45321
L52485 45273
L52523 45226
L52580 45202
L52619 45202
L52676 45226
L52695 45250
" />
<path d="M53076 45702
L52847 45702
" />
<path d="M52961 45702
L52961 45202
L52923 45273
L52885 45321
L52847 45345
" />
<path d="M53209 45202
L53476 45202
L53304 45702
" />
<path d="M53647 45702
L53723 45702
L53761 45678
L53780 45654
L53819 45583
L53838 45488
L53838 45297
L53819 45250
L53800 45226
L53761 45202
L53685 45202
L53647 45226
L53628 45250
L53609 45297
L53609 45416
L53628 45464
L53647 45488
L53685 45511
L53761 45511
L53800 45488
L53819 45464
L53838 45416
" />
</g>
<g style="fill:#00A0A0; fill-opacity:0.0; 
stroke:#00A0A0; stroke-width:120; stroke-opacity:1; 
stroke-linecap:round; stroke-linejoin:round;">
</g>
<g style="fill:#00A0A0; fill-opacity:0.0; 
stroke:#00A0A0; stroke-width:112.5; stroke-opacity:1; 
stroke-linecap:round; stroke-linejoin:round;">
<path d="M58142 34842
L58628 34842
L58685 34821
L58714 34800
L58742 34757
L58742 34671
L58714 34628
L58685 34607
L58628 34585
L58142 34585
" />
<path d="M58142 34414
L58142 34135
L58371 34285
L58371 34221
L58400 34178
L58428 34157
L58485 34135
L58628 34135
L58685 34157
L58714 34178
L58742 34221
L58742 34350
L58714 34392
L58685 34414
" />
</g>
<g style="fill:#00A0A0; fill-opacity:0.0; 
stroke:#00A0A0; stroke-width:120; stroke-opacity:1; 
stroke-linecap:round; stroke-linejoin:round;">
</g>
<g style="fill:#00A0A0; fill-opacity:0.0; 
stroke:#00A0A0; stroke-width:112.5; stroke-opacity:1; 
stroke-linecap:round; stroke-linejoin:round;">
<path d="M57142 39414
L57142 39157
" />
<path d="M57742 39285
L57142 39285
" />
<path d="M57742 38749
L57457 38899
" />
<path d="M57742 39007
L57142 39007
L57142 38835
L57171 38792
L57200 38771
L57257 38749
L57342 38749
L57400 38771
L57428 38792
L57457 38835
L57457 39007
" />
<path d="M57714 38578
L57742 38514
L57742 38407
L57714 38364
L57685 38342
L57628 38321
L57571 38321
L57514 38342
L57485 38364
L57457 38407
L57428 38492
L57400 38535
L57371 38557
L57314 38578
L57257 38578
L57200 38557
L57171 38535
L57142 38492
L57142 38385
L57171 38321
" />
<path d="M57200 38150
L57171 38128
L57142 38085
L57142 37978
L57171 37935
L57200 37914
L57257 37892
L57314 37892
L57400 37914
L57742 38171
L57742 37892
" />
<path d="M57142 37614
L57142 37571
L57171 37528
L57200 37507
L57257 37485
L57371 37464
L57514 37464
L57628 37485
L57685 37507
L57714 37528
L57742 37571
L57742 37614
L57714 37657
L57685 37678
L57628 37700
L57514 37721
L57371 37721
L57257 37700
L57200 37678
L57171 37657
L57142 37614
" />
<path d="M57200 37292
L57171 37271
L57142 37228
L57142 37121
L57171 37078
L57200 37057
L57257 37035
L57314 37035
L57400 37057
L57742 37314
L57742 37035
" />
<path d="M57428 36842
L57428 36692
" />
<path d="M57742 36628
L57742 36842
L57142 36842
L57142 36628
" />
</g>
<g style="fill:#00A0A0; fill-opacity:0.0; 
stroke:#00A0A0; stroke-width:120; stroke-opacity:1; 
stroke-linecap:round; stroke-linejoin:round;">
</g>
<g style="fill:#00A0A0; fill-opacity:0.0; 
stroke:#00A0A0; stroke-width:112.5; stroke-opacity:1; 
stroke-linecap:round; stroke-linejoin:round;">
<path d="M51142 34842
L51628 34842
L51685 34821
L51714 34800
L51742 34757
L51742 34671
L51714 34628
L51685 34607
L51628 34585
L51142 34585
" />
<path d="M51742 34135
L51742 34392
" />
<path d="M51742 34264
L51142 34264
L51228 34307
L51285 34350
L51314 34392
" />
</g>
<g style="fill:#00A0A0; fill-opacity:0.0; 
stroke:#00A0A0; stroke-width:120; stroke-opacity:1; 
stroke-linecap:round; stroke-linejoin:round;">
</g>
<g style="fill:#00A0A0; fill-opacity:0.0; 
stroke:#00A0A0; stroke-width:112.5; stroke-opacity:1; 
stroke-linecap:round; stroke-linejoin:round;">
<path d="M50142 39414
L50142 39157
" />
<path d="M50742 39285
L50142 39285
" />
<path d="M50742 38749
L50457 38899
" />
<path d="M50742 39007
L50142 39007
L50142 38835
L50171 38792
L50200 38771
L50257 38749
L50342 38749
L50400 38771
L50428 38792
L50457 38835
L50457 39007
" />
<path d="M50714 38578
L50742 38514
L50742 38407
L50714 38364
L50685 38342
L50628 38321
L50571 38321
L50514 38342
L50485 38364
L50457 38407
L50428 38492
L50400 38535
L50371 38557
L50314 38578
L50257 38578
L50200 38557
L50171 38535
L50142 38492
L50142 38385
L50171 38321
" />
<path d="M50200 38150
L50171 38128
L50142 38085
L50142 37978
L50171 37935
L50200 37914
L50257 37892
L50314 37892
L50400 37914
L50742 38171
L50742 37892
" />
<path d="M50142 37614
L50142 37571
L50171 37528
L50200 37507
L50257 37485
L50371 37464
L50514 37464
L50628 37485
L50685 37507
L50714 37528
L50742 37571
L50742 37614
L50714 37657
L50685 37678
L50628 37700
L50514 37721
L50371 37721
L50257 37700
L50200 37678
L50171 37657
L50142 37614
" />
<path d="M50200 37292
L50171 37271
L50142 37228
L50142 37121
L50171 37078
L50200 37057
L50257 37035
L50314 37035
L50400 37057
L50742 37314
L50742 37035
" />
<path d="M50428 36842
L50428 36692
" />
<path d="M50742 36628
L50742 36842
L50142 36842
L50142 36628
" />
</g>
<g style="fill:#00A0A0; fill-opacity:0.0; 
stroke:#00A0A0; stroke-width:120; stroke-opacity:1; 
stroke-linecap:round; stroke-linejoin:round;">
</g>
<g style="fill:#00A0A0; fill-opacity:0.0; 
stroke:#00A0A0; stroke-width:40; stroke-opacity:1; 
stroke-linecap:round; stroke-linejoin:round;">
<path d="M48185 39060
L48195 39070
L48185 39079
L48176 39070
L48185 39060
L48185 39079
" />
<path d="M48382 39079
L48270 39079
" />
<path d="M48326 39079
L48326 38882
L48307 38910
L48289 38929
L48270 38939
" />
<path d="M48701 38948
L48701 39079
" />
<path d="M48617 38948
L48617 39051
L48626 39070
L48645 39079
L48673 39079
L48692 39070
L48701 39060
" />
<path d="M48767 38948
L48842 38948
" />
<path d="M48795 39079
L48795 38910
L48804 38892
L48823 38882
L48842 38882
" />
<path d="M51060 31814
L51070 31804
L51079 31814
L51070 31823
L51060 31814
L51079 31814
" />
<path d="M51079 31617
L51079 31729
" />
<path d="M51079 31673
L50882 31673
L50910 31692
L50929 31710
L50939 31729
" />
<path d="M50948 31298
L51079 31298
" />
<path d="M50948 31382
L51051 31382
L51070 31373
L51079 31354
L51079 31326
L51070 31307
L51060 31298
" />
<path d="M50948 31232
L50948 31157
" />
<path d="M51079 31204
L50910 31204
L50892 31195
L50882 31176
L50882 31157
" />
<path d="M46685 36560
L46695 36570
L46685 36579
L46676 36570
L46685 36560
L46685 36579
" />
<path d="M46882 36579
L46770 36579
" />
<path d="M46826 36579
L46826 36382
L46807 36410
L46789 36429
L46770 36439
" />
<path d="M47201 36448
L47201 36579
" />
<path d="M47117 36448
L47117 36551
L47126 36570
L47145 36579
L47173 36579
L47192 36570
L47201 36560
" />
<path d="M47267 36448
L47342 36448
" />
<path d="M47295 36579
L47295 36410
L47304 36392
L47323 36382
L47342 36382
" />
<path d="M48185 36560
L48195 36570
L48185 36579
L48176 36570
L48185 36560
L48185 36579
" />
<path d="M48382 36579
L48270 36579
" />
<path d="M48326 36579
L48326 36382
L48307 36410
L48289 36429
L48270 36439
" />
<path d="M48701 36448
L48701 36579
" />
<path d="M48617 36448
L48617 36551
L48626 36570
L48645 36579
L48673 36579
L48692 36570
L48701 36560
" />
<path d="M48767 36448
L48842 36448
" />
<path d="M48795 36579
L48795 36410
L48804 36392
L48823 36382
L48842 36382
" />
<path d="M55185 34060
L55195 34070
L55185 34079
L55176 34070
L55185 34060
L55185 34079
" />
<path d="M55382 34079
L55270 34079
" />
<path d="M55326 34079
L55326 33882
L55307 33910
L55289 33929
L55270 33939
" />
<path d="M55701 33948
L55701 34079
" />
<path d="M55617 33948
L55617 34051
L55626 34070
L55645 34079
L55673 34079
L55692 34070
L55701 34060
" />
<path d="M55767 33948
L55842 33948
" />
<path d="M55795 34079
L55795 33910
L55804 33892
L55823 33882
L55842 33882
" />
<path d="M55185 36560
L55195 36570
L55185 36579
L55176 36570
L55185 36560
L55185 36579
" />
<path d="M55382 36579
L55270 36579
" />
<path d="M55326 36579
L55326 36382
L55307 36410
L55289 36429
L55270 36439
" />
<path d="M55701 36448
L55701 36579
" />
<path d="M55617 36448
L55617 36551
L55626 36570
L55645 36579
L55673 36579
L55692 36570
L55701 36560
" />
<path d="M55767 36448
L55842 36448
" />
<path d="M55795 36579
L55795 36410
L55804 36392
L55823 36382
L55842 36382
" />
<path d="M53685 36560
L53695 36570
L53685 36579
L53676 36570
L53685 36560
L53685 36579
" />
<path d="M53882 36579
L53770 36579
" />
<path d="M53826 36579
L53826 36382
L53807 36410
L53789 36429
L53770 36439
" />
<path d="M54201 36448
L54201 36579
" />
<path d="M54117 36448
L54117 36551
L54126 36570
L54145 36579
L54173 36579
L54192 36570
L54201 36560
" />
<path d="M54267 36448
L54342 36448
" />
<path d="M54295 36579
L54295 36410
L54304 36392
L54323 36382
L54342 36382
" />
<path d="M55185 39060
L55195 39070
L55185 39079
L55176 39070
L55185 39060
L55185 39079
" />
<path d="M55382 39079
L55270 39079
" />
<path d="M55326 39079
L55326 38882
L55307 38910
L55289 38929
L55270 38939
" />
<path d="M55701 38948
L55701 39079
" />
<path d="M55617 38948
L55617 39051
L55626 39070
L55645 39079
L55673 39079
L55692 39070
L55701 39060
" />
<path d="M55767 38948
L55842 38948
" />
<path d="M55795 39079
L55795 38910
L55804 38892
L55823 38882
L55842 38882
" />
<path d="M58060 31814
L58070 31804
L58079 31814
L58070 31823
L58060 31814
L58079 31814
" />
<path d="M58079 31617
L58079 31729
" />
<path d="M58079 31673
L57882 31673
L57910 31692
L57929 31710
L57939 31729
" />
<path d="M57948 31298
L58079 31298
" />
<path d="M57948 31382
L58051 31382
L58070 31373
L58079 31354
L58079 31326
L58070 31307
L58060 31298
" />
<path d="M57948 31232
L57948 31157
" />
<path d="M58079 31204
L57910 31204
L57892 31195
L57882 31176
L57882 31157
" />
<path d="M48185 34060
L48195 34070
L48185 34079
L48176 34070
L48185 34060
L48185 34079
" />
<path d="M48382 34079
L48270 34079
" />
<path d="M48326 34079
L48326 33882
L48307 33910
L48289 33929
L48270 33939
" />
<path d="M48701 33948
L48701 34079
" />
<path d="M48617 33948
L48617 34051
L48626 34070
L48645 34079
L48673 34079
L48692 34070
L48701 34060
" />
<path d="M48767 33948
L48842 33948
" />
<path d="M48795 34079
L48795 33910
L48804 33892
L48823 33882
L48842 33882
" />
</g>
<g style="fill:#00A0A0; fill-opacity:0.0; 
stroke:#00A0A0; stroke-width:120; stroke-opacity:1; 
stroke-linecap:round; stroke-linejoin:round;">
<path d="M71042 42942
L70442 42942
L70442 42714
L70471 42657
L70500 42628
L70557 42600
L70642 42600
L70700 42628
L70728 42657
L70757 42714
L70757 42942
" />
<path d="M71042 42314
L71042 42200
L71014 42142
L70985 42114
L70900 42057
L70785 42028
L70557 42028
L70500 42057
L70471 42085
L70442 42142
L70442 42257
L70471 42314
L70500 42342
L70557 42371
L70700 42371
L70757 42342
L70785 42314
L70814 42257
L70814 42142
L70785 42085
L70757 42057
L70700 42028
" />
<path d="M66442 45171
L65842 45171
" />
<path d="M66042 44885
L66442 44885
" />
<path d="M66100 44885
L66071 44857
L66042 44800
L66042 44714
L66071 44657
L66128 44628
L66442 44628
" />
<path d="M65842 43971
L65842 43628
" />
<path d="M66442 43800
L65842 43800
" />
<path d="M66442 43428
L66042 43428
" />
<path d="M66157 43428
L66100 43399
L66071 43371
L66042 43314
L66042 43257
" />
<path d="M66442 42799
L66128 42799
L66071 42828
L66042 42885
L66042 42999
L66071 43057
" />
<path d="M66414 42799
L66442 42857
L66442 42999
L66414 43057
L66357 43085
L66300 43085
L66242 43057
L66214 42999
L66214 42857
L66185 42799
" />
<path d="M66414 42257
L66442 42314
L66442 42428
L66414 42485
L66385 42514
L66328 42542
L66157 42542
L66100 42514
L66071 42485
L66042 42428
L66042 42314
L66071 42257
" />
<path d="M66442 41999
L65842 41999
" />
<path d="M66214 41942
L66442 41771
" />
<path d="M66042 41771
L66271 41999
" />
<path d="M65842 40942
L65842 40828
L65871 40771
L65928 40714
L66042 40685
L66242 40685
L66357 40714
L66414 40771
L66442 40828
L66442 40942
L66414 40999
L66357 41057
L66242 41085
L66042 41085
L65928 41057
L65871 40999
L65842 40942
" />
<path d="M66042 40171
L66442 40171
" />
<path d="M66042 40428
L66357 40428
L66414 40399
L66442 40342
L66442 40257
L66414 40199
L66385 40171
" />
<path d="M66042 39971
L66042 39742
" />
<path d="M65842 39885
L66357 39885
L66414 39857
L66442 39800
L66442 39742
" />
</g>
<g style="fill:#00A0A0; fill-opacity:0.0; 
stroke:#00A0A0; stroke-width:59.0551; stroke-opacity:1; 
stroke-linecap:round; stroke-linejoin:round;">
<path d="M66076 40507
L65682 40507
L65682 40413
L65701 40357
L65739 40319
L65776 40300
L65851 40282
L65907 40282
L65982 40300
L66020 40319
L66057 40357
L66076 40413
L66076 40507
" />
<path d="M66076 39907
L66076 40132
" />
<path d="M66076 40019
L65682 40019
L65739 40057
L65776 40094
L65795 40132
" />
<path d="M65831 45263
L65849 45207
L65868 45188
L65906 45169
L65962 45169
L65999 45188
L66018 45207
L66037 45244
L66037 45394
L65643 45394
L65643 45263
L65662 45225
L65681 45207
L65718 45188
L65756 45188
L65793 45207
L65812 45225
L65831 45263
L65831 45394
" />
<path d="M66037 44775
L65849 44907
" />
<path d="M66037 45000
L65643 45000
L65643 44850
L65662 44813
L65681 44794
L65718 44775
L65774 44775
L65812 44794
L65831 44813
L65849 44850
L65849 45000
" />
<path d="M66037 44607
L65643 44607
" />
<path d="M66037 44419
L65643 44419
L65643 44326
L65662 44269
L65699 44232
L65737 44213
L65812 44194
L65868 44194
L65943 44213
L65981 44232
L66018 44269
L66037 44326
L66037 44419
" />
<path d="M65662 43819
L65643 43857
L65643 43913
L65662 43969
L65699 44007
L65737 44026
L65812 44044
L65868 44044
L65943 44026
L65981 44007
L66018 43969
L66037 43913
L66037 43876
L66018 43819
L65999 43801
L65868 43801
L65868 43876
" />
<path d="M65831 43632
L65831 43501
" />
<path d="M66037 43444
L66037 43632
L65643 43632
L65643 43444
" />
<path d="M65452 42751
L65452 42563
" />
<path d="M65564 42788
L65171 42657
L65564 42526
" />
<path d="M65527 42170
L65546 42188
L65564 42245
L65564 42282
L65546 42338
L65508 42376
L65471 42395
L65396 42413
L65339 42413
L65264 42395
L65227 42376
L65189 42338
L65171 42282
L65171 42245
L65189 42188
L65208 42170
" />
<path d="M65454 39618
L65454 39318
" />
<path d="M65414 45681
L65414 45381
" />
<path d="M65564 45531
L65264 45531
" />
</g>
<g style="fill:#00A0A0; fill-opacity:0.0; 
stroke:#00A0A0; stroke-width:80; stroke-opacity:1; 
stroke-linecap:round; stroke-linejoin:round;">
<path d="M54576 47661
L54576 47261
L54728 47261
L54766 47280
L54785 47300
L54804 47338
L54804 47395
L54785 47433
L54766 47452
L54728 47471
L54576 47471
" />
<path d="M55033 47661
L54995 47642
L54976 47623
L54957 47585
L54957 47471
L54976 47433
L54995 47414
L55033 47395
L55090 47395
L55128 47414
L55147 47433
L55166 47471
L55166 47585
L55147 47623
L55128 47642
L55090 47661
L55033 47661
" />
<path d="M55338 47661
L55338 47395
" />
<path d="M55338 47471
L55357 47433
L55376 47414
L55414 47395
L55452 47395
" />
<path d="M55528 47395
L55680 47395
" />
<path d="M55585 47261
L55585 47604
L55604 47642
L55642 47661
L55680 47661
" />
<path d="M55795 47547
L55985 47547
" />
<path d="M55757 47661
L55890 47261
L56023 47661
" />
<path d="M56576 47261
L56576 47547
L56557 47604
L56519 47642
L56461 47661
L56423 47661
" />
<path d="M56938 47395
L56938 47661
" />
<path d="M56766 47395
L56766 47604
L56785 47642
L56823 47661
L56880 47661
L56919 47642
L56938 47623
" />
<path d="M57128 47661
L57128 47395
" />
<path d="M57128 47433
L57147 47414
L57185 47395
L57242 47395
L57280 47414
L57299 47452
L57299 47661
" />
<path d="M57299 47452
L57319 47414
L57357 47395
L57414 47395
L57452 47414
L57471 47452
L57471 47661
" />
<path d="M57661 47395
L57661 47795
" />
<path d="M57661 47414
L57700 47395
L57776 47395
L57814 47414
L57833 47433
L57852 47471
L57852 47585
L57833 47623
L57814 47642
L57776 47661
L57700 47661
L57661 47642
" />
<path d="M58176 47642
L58138 47661
L58061 47661
L58023 47642
L58004 47604
L58004 47452
L58023 47414
L58061 47395
L58138 47395
L58176 47414
L58195 47452
L58195 47490
L58004 47528
" />
<path d="M58366 47661
L58366 47395
" />
<path d="M58366 47471
L58385 47433
L58404 47414
L58442 47395
L58480 47395
" />
</g>
<g style="fill:#00A0A0; fill-opacity:0.0; 
stroke:#00A0A0; stroke-width:40; stroke-opacity:1; 
stroke-linecap:round; stroke-linejoin:round;">
<path d="M51220 47851
L51077 47851
" />
<path d="M51148 47851
L51148 47601
L51125 47636
L51101 47660
L51077 47672
" />
<path d="M51375 47601
L51398 47601
L51422 47613
L51434 47625
L51446 47648
L51458 47696
L51458 47755
L51446 47803
L51434 47827
L51422 47839
L51398 47851
L51375 47851
L51351 47839
L51339 47827
L51327 47803
L51315 47755
L51315 47696
L51327 47648
L51339 47625
L51351 47613
L51375 47601
" />
<path d="M51565 47851
L51565 47601
" />
<path d="M51708 47851
L51601 47708
" />
<path d="M51708 47601
L51565 47744
" />
<path d="M52053 47601
L52101 47601
L52125 47613
L52148 47636
L52160 47684
L52160 47767
L52148 47815
L52125 47839
L52101 47851
L52053 47851
L52029 47839
L52005 47815
L51994 47767
L51994 47684
L52005 47636
L52029 47613
L52053 47601
" />
<path d="M52267 47851
L52267 47601
" />
<path d="M52375 47851
L52375 47720
L52363 47696
L52339 47684
L52303 47684
L52279 47696
L52267 47708
" />
<path d="M52494 47851
L52494 47684
" />
<path d="M52494 47708
L52505 47696
L52529 47684
L52565 47684
L52589 47696
L52601 47720
L52601 47851
" />
<path d="M52601 47720
L52613 47696
L52636 47684
L52672 47684
L52696 47696
L52708 47720
L52708 47851
" />
<path d="M52815 47839
L52839 47851
L52886 47851
L52910 47839
L52922 47815
L52922 47803
L52910 47779
L52886 47767
L52851 47767
L52827 47755
L52815 47732
L52815 47720
L52827 47696
L52851 47684
L52886 47684
L52910 47696
" />
</g>
<g style="fill:#00A0A0; fill-opacity:0.0; 
stroke:#00A0A0; stroke-width:59.0551; stroke-opacity:1; 
stroke-linecap:round; stroke-linejoin:round;">
<path d="M55200 49250
L62200 49250
" />
<path d="M62200 49250
L62200 48250
" />
<path d="M62200 48250
L55200 48250
" />
<path d="M54089 49360
L54700 49360
" />
<path d="M55200 49250
L55200 48250
" />
<path d="M54700 48139
L54089 48139
" />
<path d="M54089 48139
L54089 49360
" />
<path d="M64200 49250
L69200 49250
" />
<path d="M69200 49250
L69200 48250
" />
<path d="M69200 48250
L64200 48250
" />
<path d="M63089 49360
L63700 49360
" />
<path d="M64200 49250
L64200 48250
" />
<path d="M63700 48139
L63089 48139
" />
<path d="M63089 48139
L63089 49360
" />
<path d="M51600 30250
L60600 30250
" />
<path d="M60600 30250
L60600 29250
" />
<path d="M60600 29250
L51600 29250
" />
<path d="M50489 30360
L51100 30360
" />
<path d="M51600 30250
L51600 29250
" />
<path d="M51100 29139
L50489 29139
" />
<path d="M50489 29139
L50489 30360
" />
<path d="M62200 30250
L69200 30250
" />
<path d="M69200 30250
L69200 29250
" />
<path d="M69200 29250
L62200 29250
" />
<path d="M61089 30360
L61700 30360
" />
<path d="M62200 30250
L62200 29250
" />
<path d="M61700 29139
L61089 29139
" />
<path d="M61089 29139
L61089 30360
" />
<circle cx="49200" cy="48750" r="900" /> 
<circle cx="69700" cy="46750" r="900" /> 
<circle cx="49700" cy="29750" r="900" /> 
<circle cx="69700" cy="35750" r="900" /> 
</g>
<g style="fill:#00A0A0; fill-opacity:0.0; 
stroke:#00A0A0; stroke-width:150; stroke-opacity:1; 
stroke-linecap:round; stroke-linejoin:round;">
<path d="M46500 43000
L46500 42000
" />
<circle cx="46500" cy="43000" r="559.017" /> 
<path d="M46500 40500
L46500 39500
" />
<circle cx="46500" cy="40500" r="559.017" /> 
<path d="M62000 41500
L62000 40500
" />
<circle cx="62000" cy="41500" r="559.017" /> 
<path d="M57000 42500
L58000 42500
" />
<circle cx="57000" cy="42500" r="559.017" /> 
</g>
<g style="fill:#00A0A0; fill-opacity:0.0; 
stroke:#00A0A0; stroke-width:120; stroke-opacity:1; 
stroke-linecap:round; stroke-linejoin:round;">
<path d="M45500 39500
L44500 39500
" />
<path d="M44500 44500
L45500 44500
" />
<path d="M45500 39500
L45500 44500
" />
<path d="M44500 44500
L44500 39500
" />
</g>
<g style="fill:#00A0A0; fill-opacity:0.0; 
stroke:#00A0A0; stroke-width:100; stroke-opacity:1; 
stroke-linecap:round; stroke-linejoin:round;">
<path d="M66000 32500
L66000 36500
" />
<path d="M65000 32500
L65000 36500
" />
<path d="M65000 36500
L66000 36500
" />
<path d="M66000 32500
L65000 32500
" />
<path d="M64000 32500
L64000 36500
" />
<path d="M63000 32500
L63000 36500
" />
<path d="M63000 36500
L64000 36500
" />
<path d="M64000 32500
L63000 32500
" />
<path d="M62000 32500
L62000 36500
" />
<path d="M61000 32500
L61000 36500
" />
<path d="M61000 36500
L62000 36500
" />
<path d="M62000 32500
L61000 32500
" />
<path d="M61000 42000
L61000 42500
" />
<path d="M61000 42500
L60000 42500
" />
<path d="M60000 42500
L60000 42000
" />
<path d="M61500 42000
L61500 46000
" />
<path d="M61500 46000
L59500 46000
" />
<path d="M59500 46000
L59500 42000
" />
<path d="M59500 42000
L61500 42000
" />
<path d="M50000 45000
L50500 45000
" />
<path d="M50500 45000
L50500 46000
" />
<path d="M50500 46000
L50000 46000
" />
<path d="M50000 44500
L54000 44500
" />
<path d="M54000 44500
L54000 46500
" />
<path d="M54000 46500
L50000 46500
" />
<path d="M50000 46500
L50000 44500
" />
</g>
<g style="fill:#00A0A0; fill-opacity:0.0; 
stroke:#00A0A0; stroke-width:150; stroke-opacity:1; 
stroke-linecap:round; stroke-linejoin:round;">
<path d="M58500 32500
L58500 32500
" />
<path d="M58500 32500
L58500 33000
" />
<path d="M58500 33000
L57500 33000
" />
<path d="M57500 33000
L57500 32500
" />
<path d="M59000 32500
L59000 41500
" />
<path d="M59000 41500
L57000 41500
" />
<path d="M57000 41500
L57000 32500
" />
<path d="M57000 32500
L59000 32500
" />
<path d="M51500 32500
L51500 32500
" />
<path d="M51500 32500
L51500 33000
" />
<path d="M51500 33000
L50500 33000
" />
<path d="M50500 33000
L50500 32500
" />
<path d="M52000 32500
L52000 41500
" />
<path d="M52000 41500
L50000 41500
" />
<path d="M50000 41500
L50000 32500
" />
<path d="M50000 32500
L52000 32500
" />
</g>
<g style="fill:#00A0A0; fill-opacity:0.0; 
stroke:#00A0A0; stroke-width:120; stroke-opacity:1; 
stroke-linecap:round; stroke-linejoin:round;">
<path d="M49000 38020
L49000 40000
" />
<path d="M49000 40000
L48000 40000
" />
<path d="M48000 40000
L48000 38000
" />
<path d="M48000 38000
L49000 38000
" />
<path d="M48750 38000
L49000 38250
" />
<path d="M51980 32000
L50000 32000
" />
<path d="M50000 32000
L50000 31000
" />
<path d="M50000 31000
L52000 31000
" />
<path d="M52000 31000
L52000 32000
" />
<path d="M52000 31750
L51750 32000
" />
<path d="M47500 35520
L47500 37500
" />
<path d="M47500 37500
L46500 37500
" />
<path d="M46500 37500
L46500 35500
" />
<path d="M46500 35500
L47500 35500
" />
<path d="M47250 35500
L47500 35750
" />
<path d="M49000 35520
L49000 37500
" />
<path d="M49000 37500
L48000 37500
" />
<path d="M48000 37500
L48000 35500
" />
<path d="M48000 35500
L49000 35500
" />
<path d="M48750 35500
L49000 35750
" />
<path d="M56000 33020
L56000 35000
" />
<path d="M56000 35000
L55000 35000
" />
<path d="M55000 35000
L55000 33000
" />
<path d="M55000 33000
L56000 33000
" />
<path d="M55750 33000
L56000 33250
" />
<path d="M56000 35520
L56000 37500
" />
<path d="M56000 37500
L55000 37500
" />
<path d="M55000 37500
L55000 35500
" />
<path d="M55000 35500
L56000 35500
" />
<path d="M55750 35500
L56000 35750
" />
<path d="M54500 35520
L54500 37500
" />
<path d="M54500 37500
L53500 37500
" />
<path d="M53500 37500
L53500 35500
" />
<path d="M53500 35500
L54500 35500
" />
<path d="M54250 35500
L54500 35750
" />
<path d="M56000 38020
L56000 40000
" />
<path d="M56000 40000
L55000 40000
" />
<path d="M55000 40000
L55000 38000
" />
<path d="M55000 38000
L56000 38000
" />
<path d="M55750 38000
L56000 38250
" />
<path d="M58980 32000
L57000 32000
" />
<path d="M57000 32000
L57000 31000
" />
<path d="M57000 31000
L59000 31000
" />
<path d="M59000 31000
L59000 32000
" />
<path d="M59000 31750
L58750 32000
" />
<path d="M49000 33020
L49000 35000
" />
<path d="M49000 35000
L48000 35000
" />
<path d="M48000 35000
L48000 33000
" />
<path d="M48000 33000
L49000 33000
" />
<path d="M48750 33000
L49000 33250
" />
</g>
<g style="fill:#00A0A0; fill-opacity:0.0; 
stroke:#00A0A0; stroke-width:100; stroke-opacity:1; 
stroke-linecap:round; stroke-linejoin:round;">
<path d="M70000 44500
L70300 44500
" />
<path d="M70300 44500
L70300 40500
" />
<path d="M70300 40500
L70000 40500
" />
<path d="M66700 44500
L66700 40500
" />
<path d="M66700 40500
L67100 40500
" />
<path d="M67100 40500
L67100 44500
" />
<path d="M67100 44500
L66700 44500
" />
<path d="M67000 44500
L70000 44500
" />
<path d="M70000 40500
L67000 40500
" />
</g>
<g style="fill:#00A0A0; fill-opacity:0.0; 
stroke:#00A0A0; stroke-width:59.0551; stroke-opacity:1; 
stroke-linecap:round; stroke-linejoin:round;">
<path d="M63712 46240
L63712 38759
" />
<path d="M63712 38759
L66173 38759
" />
<path d="M66173 38759
L66173 46240
" />
<path d="M66173 46240
L63712 46240
" />
<path d="M63712 46240
L63712 46279
" />
</g>
<g style="fill:#00A0A0; fill-opacity:0.0; 
stroke:#00A0A0; stroke-width:100; stroke-opacity:1; 
stroke-linecap:round; stroke-linejoin:round;">
<path d="M58500 47000
L54500 47000
" />
<path d="M58500 46000
L54500 46000
" />
<path d="M54500 46000
L54500 47000
" />
<path d="M58500 47000
L58500 46000
" />
</g>
<g style="fill:#00A0A0; fill-opacity:0.0; 
stroke:#00A0A0; stroke-width:150; stroke-opacity:1; 
stroke-linecap:round; stroke-linejoin:round;">
<path d="M51500 48500
L52500 48500
" />
<circle cx="51500" cy="48500" r="559.017" /> 
</g>
<g style="fill:#808000; fill-opacity:0.0; 
stroke:#808000; stroke-width:680; stroke-opacity:1; 
stroke-linecap:round; stroke-linejoin:round;">
<path d="M54700 48690
L54700 48810
" />
<path d="M55700 48690
L55700 48810
" />
<path d="M56700 48690
L56700 48810
" />
<path d="M57700 48690
L57700 48810
" />
<path d="M58700 48690
L58700 48810
" />
<path d="M59700 48690
L59700 48810
" />
<path d="M60700 48690
L60700 48810
" />
<path d="M61700 48690
L61700 48810
" />
<path d="M63700 48690
L63700 48810
" />
<path d="M64700 48690
L64700 48810
" />
<path d="M65700 48690
L65700 48810
" />
<path d="M66700 48690
L66700 48810
" />
<path d="M67700 48690
L67700 48810
" />
<path d="M68700 48690
L68700 48810
" />
<path d="M51100 29690
L51100 29810
" />
<path d="M52100 29690
L52100 29810
" />
<path d="M53100 29690
L53100 29810
" />
<path d="M54100 29690
L54100 29810
" />
<path d="M55100 29690
L55100 29810
" />
<path d="M56100 29690
L56100 29810
" />
<path d="M57100 29690
L57100 29810
" />
<path d="M58100 29690
L58100 29810
" />
<path d="M59100 29690
L59100 29810
" />
<path d="M60100 29690
L60100 29810
" />
<path d="M61700 29690
L61700 29810
" />
<path d="M62700 29690
L62700 29810
" />
<path d="M63700 29690
L63700 29810
" />
<path d="M64700 29690
L64700 29810
" />
<path d="M65700 29690
L65700 29810
" />
<path d="M66700 29690
L66700 29810
" />
<path d="M67700 29690
L67700 29810
" />
<path d="M68700 29690
L68700 29810
" />
</g>
<g style="fill:#808000; fill-opacity:0.0; 
stroke:#808000; stroke-width:39.3701; stroke-opacity:1; 
stroke-linecap:round; stroke-linejoin:round;">
</g>
<g style="fill:#808000; fill-opacity:1.0; 
stroke:#808000; stroke-width:39.3701; stroke-opacity:1; 
stroke-linecap:round; stroke-linejoin:round;">
<circle cx="49200" cy="48750" r="780.315" /> 
<circle cx="69700" cy="46750" r="780.315" /> 
<circle cx="49700" cy="29750" r="780.315" /> 
<circle cx="69700" cy="35750" r="780.315" /> 
<circle cx="46500" cy="43000" r="255.315" /> 
<circle cx="46500" cy="42000" r="255.315" /> 
<circle cx="46500" cy="40500" r="255.315" /> 
<circle cx="46500" cy="39500" r="255.315" /> 
<circle cx="62000" cy="41500" r="255.315" /> 
<circle cx="62000" cy="40500" r="255.315" /> 
<circle cx="57000" cy="42500" r="255.315" /> 
<circle cx="58000" cy="42500" r="255.315" /> 
<polyline style="fill-rule:evenodd;"
points="44719,39719
45280,39719
45280,40280
44719,40280
44719,39719
" /> 
<circle cx="45000" cy="41000" r="280.315" /> 
<circle cx="45000" cy="42000" r="280.315" /> 
<circle cx="45000" cy="43000" r="280.315" /> 
<circle cx="45000" cy="44000" r="280.315" /> 
<polyline style="fill-rule:evenodd;"
points="65780,36280
65219,36280
65219,35719
65780,35719
65780,36280
" /> 
<circle cx="65500" cy="35000" r="280.315" /> 
<circle cx="65500" cy="34000" r="280.315" /> 
<circle cx="65500" cy="33000" r="280.315" /> 
<polyline style="fill-rule:evenodd;"
points="63780,36280
63219,36280
63219,35719
63780,35719
63780,36280
" /> 
<circle cx="63500" cy="35000" r="280.315" /> 
<circle cx="63500" cy="34000" r="280.315" /> 
<circle cx="63500" cy="33000" r="280.315" /> 
<polyline style="fill-rule:evenodd;"
points="61780,36280
61219,36280
61219,35719
61780,35719
61780,36280
" /> 
<circle cx="61500" cy="35000" r="280.315" /> 
<circle cx="61500" cy="34000" r="280.315" /> 
<circle cx="61500" cy="33000" r="280.315" /> 
<polyline style="fill-rule:evenodd;"
points="58744,42244
59255,42244
59255,42755
58744,42755
58744,42244
" /> 
<circle cx="59000" cy="43500" r="255.315" /> 
<circle cx="59000" cy="44500" r="255.315" /> 
<circle cx="59000" cy="45500" r="255.315" /> 
<circle cx="62000" cy="45500" r="255.315" /> 
<circle cx="62000" cy="44500" r="255.315" /> 
<circle cx="62000" cy="43500" r="255.315" /> 
<circle cx="62000" cy="42500" r="255.315" /> 
<polyline style="fill-rule:evenodd;"
points="50244,47255
50244,46744
50755,46744
50755,47255
50244,47255
" /> 
<circle cx="51500" cy="47000" r="255.315" /> 
<circle cx="52500" cy="47000" r="255.315" /> 
<circle cx="53500" cy="47000" r="255.315" /> 
<circle cx="53500" cy="44000" r="255.315" /> 
<circle cx="52500" cy="44000" r="255.315" /> 
<circle cx="51500" cy="44000" r="255.315" /> 
<circle cx="50500" cy="44000" r="255.315" /> 
<polyline style="fill-rule:evenodd;"
points="56244,33244
56755,33244
56755,33755
56244,33755
56244,33244
" /> 
<circle cx="56500" cy="34500" r="255.315" /> 
<circle cx="56500" cy="35500" r="255.315" /> 
<circle cx="56500" cy="36500" r="255.315" /> 
<circle cx="56500" cy="37500" r="255.315" /> 
<circle cx="56500" cy="38500" r="255.315" /> 
<circle cx="56500" cy="39500" r="255.315" /> 
<circle cx="56500" cy="40500" r="255.315" /> 
<circle cx="59500" cy="40500" r="255.315" /> 
<circle cx="59500" cy="39500" r="255.315" /> 
<circle cx="59500" cy="38500" r="255.315" /> 
<circle cx="59500" cy="37500" r="255.315" /> 
<circle cx="59500" cy="36500" r="255.315" /> 
<circle cx="59500" cy="35500" r="255.315" /> 
<circle cx="59500" cy="34500" r="255.315" /> 
<circle cx="59500" cy="33500" r="255.315" /> 
<polyline style="fill-rule:evenodd;"
points="49244,33244
49755,33244
49755,33755
49244,33755
49244,33244
" /> 
<circle cx="49500" cy="34500" r="255.315" /> 
<circle cx="49500" cy="35500" r="255.315" /> 
<circle cx="49500" cy="36500" r="255.315" /> 
<circle cx="49500" cy="37500" r="255.315" /> 
<circle cx="49500" cy="38500" r="255.315" /> 
<circle cx="49500" cy="39500" r="255.315" /> 
<circle cx="49500" cy="40500" r="255.315" /> 
<circle cx="52500" cy="40500" r="255.315" /> 
<circle cx="52500" cy="39500" r="255.315" /> 
<circle cx="52500" cy="38500" r="255.315" /> 
<circle cx="52500" cy="37500" r="255.315" /> 
<circle cx="52500" cy="36500" r="255.315" /> 
<circle cx="52500" cy="35500" r="255.315" /> 
<circle cx="52500" cy="34500" r="255.315" /> 
<circle cx="52500" cy="33500" r="255.315" /> 
<circle cx="48500" cy="38500" r="255.315" /> 
<circle cx="48500" cy="39500" r="255.315" /> 
<circle cx="51500" cy="31500" r="255.315" /> 
<circle cx="50500" cy="31500" r="255.315" /> 
<circle cx="47000" cy="36000" r="255.315" /> 
<circle cx="47000" cy="37000" r="255.315" /> 
<circle cx="48500" cy="36000" r="255.315" /> 
<circle cx="48500" cy="37000" r="255.315" /> 
<circle cx="55500" cy="33500" r="255.315" /> 
<circle cx="55500" cy="34500" r="255.315" /> 
<circle cx="55500" cy="36000" r="255.315" /> 
<circle cx="55500" cy="37000" r="255.315" /> 
<circle cx="54000" cy="36000" r="255.315" /> 
<circle cx="54000" cy="37000" r="255.315" /> 
<circle cx="55500" cy="38500" r="255.315" /> 
<circle cx="55500" cy="39500" r="255.315" /> 
<circle cx="58500" cy="31500" r="255.315" /> 
<circle cx="57500" cy="31500" r="255.315" /> 
<circle cx="48500" cy="33500" r="255.315" /> 
<circle cx="48500" cy="34500" r="255.315" /> 
<polyline style="fill-rule:evenodd;"
points="67929,40929
69070,40929
69070,42070
67929,42070
67929,40929
" /> 
<circle cx="68500" cy="43500" r="570.815" /> 
<polyline style="fill-rule:evenodd;"
points="64980,45992
64019,45992
64019,45031
64980,45031
64980,45992
" /> 
<circle cx="64500" cy="43503.9" r="480.315" /> 
<circle cx="64500" cy="41496.1" r="480.315" /> 
<circle cx="64500" cy="39488.2" r="480.315" /> 
<polyline style="fill-rule:evenodd;"
points="54719,46780
54719,46219
55280,46219
55280,46780
54719,46780
" /> 
<circle cx="56000" cy="46500" r="280.315" /> 
<circle cx="57000" cy="46500" r="280.315" /> 
<circle cx="58000" cy="46500" r="280.315" /> 
<circle cx="51500" cy="48500" r="255.315" /> 
<circle cx="52500" cy="48500" r="255.315" /> 
</g> 
</svg>
