<?xml version="1.0" standalone="no"?>
 <!DOCTYPE svg PUBLIC "-//W3C//DTD SVG 1.1//EN" 
 "http://www.w3.org/Graphics/SVG/1.1/DTD/svg11.dtd"> 
<svg xmlns="http://www.w3.org/2000/svg" version="1.1" 
    width="7.96798cm" height="5.7023cm" viewBox="0 0 31370 22450 ">
<title>SVG Picture created as STM32ShieldForMetroMiniSlaves-F_Mask.svg date 2018/07/31 13:15:30 </title>
  <desc>Picture generated by PCBNEW </desc>
<g style="fill:#000000; fill-opacity:1;stroke:#000000; stroke-opacity:1;
stroke-linecap:round; stroke-linejoin:round; "
 transform="translate(0 0) scale(1 1)">
</g>
<g style="fill:#FFFF00; fill-opacity:0.0; 
stroke:#FFFF00; stroke-width:59.0551; stroke-opacity:1; 
stroke-linecap:round; stroke-linejoin:round;">
<path d="M28529 1150
L27929 550
" />
<path d="M28529 5650
L28529 1150
" />
<path d="M29529 6650
L28529 5650
" />
<path d="M29529 19550
L29529 6650
" />
<path d="M28529 20550
L29529 19550
" />
<path d="M28529 21550
L28529 20550
" />
<path d="M2529 21550
L28529 21550
" />
<path d="M2529 550
L2529 21550
" />
<path d="M27929 550
L2529 550
" />
</g>
<g style="fill:#808000; fill-opacity:0.0; 
stroke:#808000; stroke-width:680; stroke-opacity:1; 
stroke-linecap:round; stroke-linejoin:round;">
<path d="M13529 20490
L13529 20610
" />
<path d="M14529 20490
L14529 20610
" />
<path d="M15529 20490
L15529 20610
" />
<path d="M16529 20490
L16529 20610
" />
<path d="M17529 20490
L17529 20610
" />
<path d="M18529 20490
L18529 20610
" />
<path d="M19529 20490
L19529 20610
" />
<path d="M20529 20490
L20529 20610
" />
<path d="M22529 20490
L22529 20610
" />
<path d="M23529 20490
L23529 20610
" />
<path d="M24529 20490
L24529 20610
" />
<path d="M25529 20490
L25529 20610
" />
<path d="M26529 20490
L26529 20610
" />
<path d="M27529 20490
L27529 20610
" />
<path d="M9929 1490
L9929 1610
" />
<path d="M10929 1490
L10929 1610
" />
<path d="M11929 1490
L11929 1610
" />
<path d="M12929 1490
L12929 1610
" />
<path d="M13929 1490
L13929 1610
" />
<path d="M14929 1490
L14929 1610
" />
<path d="M15929 1490
L15929 1610
" />
<path d="M16929 1490
L16929 1610
" />
<path d="M17929 1490
L17929 1610
" />
<path d="M18929 1490
L18929 1610
" />
<path d="M20529 1490
L20529 1610
" />
<path d="M21529 1490
L21529 1610
" />
<path d="M22529 1490
L22529 1610
" />
<path d="M23529 1490
L23529 1610
" />
<path d="M24529 1490
L24529 1610
" />
<path d="M25529 1490
L25529 1610
" />
<path d="M26529 1490
L26529 1610
" />
<path d="M27529 1490
L27529 1610
" />
</g>
<g style="fill:#808000; fill-opacity:0.0; 
stroke:#808000; stroke-width:39.3701; stroke-opacity:1; 
stroke-linecap:round; stroke-linejoin:round;">
</g>
<g style="fill:#808000; fill-opacity:1.0; 
stroke:#808000; stroke-width:39.3701; stroke-opacity:1; 
stroke-linecap:round; stroke-linejoin:round;">
<circle cx="8029.53" cy="20550" r="780.315" /> 
<circle cx="28529.5" cy="18550" r="780.315" /> 
<circle cx="8529.53" cy="1550" r="780.315" /> 
<circle cx="28529.5" cy="7550" r="780.315" /> 
<circle cx="5329.53" cy="14800" r="255.315" /> 
<circle cx="5329.53" cy="13800" r="255.315" /> 
<circle cx="5329.53" cy="12300" r="255.315" /> 
<circle cx="5329.53" cy="11300" r="255.315" /> 
<circle cx="20829.5" cy="13300" r="255.315" /> 
<circle cx="20829.5" cy="12300" r="255.315" /> 
<circle cx="15829.5" cy="14300" r="255.315" /> 
<circle cx="16829.5" cy="14300" r="255.315" /> 
<polyline style="fill-rule:evenodd;"
points="3549,11519
4109,11519
4109,12080
3549,12080
3549,11519
" /> 
<circle cx="3829.53" cy="12800" r="280.315" /> 
<circle cx="3829.53" cy="13800" r="280.315" /> 
<circle cx="3829.53" cy="14800" r="280.315" /> 
<circle cx="3829.53" cy="15800" r="280.315" /> 
<polyline style="fill-rule:evenodd;"
points="24609,8080
24049,8080
24049,7519
24609,7519
24609,8080
" /> 
<circle cx="24329.5" cy="6800" r="280.315" /> 
<circle cx="24329.5" cy="5800" r="280.315" /> 
<circle cx="24329.5" cy="4800" r="280.315" /> 
<polyline style="fill-rule:evenodd;"
points="22609,8080
22049,8080
22049,7519
22609,7519
22609,8080
" /> 
<circle cx="22329.5" cy="6800" r="280.315" /> 
<circle cx="22329.5" cy="5800" r="280.315" /> 
<circle cx="22329.5" cy="4800" r="280.315" /> 
<polyline style="fill-rule:evenodd;"
points="20609,8080
20049,8080
20049,7519
20609,7519
20609,8080
" /> 
<circle cx="20329.5" cy="6800" r="280.315" /> 
<circle cx="20329.5" cy="5800" r="280.315" /> 
<circle cx="20329.5" cy="4800" r="280.315" /> 
<polyline style="fill-rule:evenodd;"
points="17574,14044
18084,14044
18084,14555
17574,14555
17574,14044
" /> 
<circle cx="17829.5" cy="15300" r="255.315" /> 
<circle cx="17829.5" cy="16300" r="255.315" /> 
<circle cx="17829.5" cy="17300" r="255.315" /> 
<circle cx="20829.5" cy="17300" r="255.315" /> 
<circle cx="20829.5" cy="16300" r="255.315" /> 
<circle cx="20829.5" cy="15300" r="255.315" /> 
<circle cx="20829.5" cy="14300" r="255.315" /> 
<polyline style="fill-rule:evenodd;"
points="9074,19055
9074,18544
9584,18544
9584,19055
9074,19055
" /> 
<circle cx="10329.5" cy="18800" r="255.315" /> 
<circle cx="11329.5" cy="18800" r="255.315" /> 
<circle cx="12329.5" cy="18800" r="255.315" /> 
<circle cx="12329.5" cy="15800" r="255.315" /> 
<circle cx="11329.5" cy="15800" r="255.315" /> 
<circle cx="10329.5" cy="15800" r="255.315" /> 
<circle cx="9329.53" cy="15800" r="255.315" /> 
<polyline style="fill-rule:evenodd;"
points="15074,5044
15584,5044
15584,5555
15074,5555
15074,5044
" /> 
<circle cx="15329.5" cy="6300" r="255.315" /> 
<circle cx="15329.5" cy="7300" r="255.315" /> 
<circle cx="15329.5" cy="8300" r="255.315" /> 
<circle cx="15329.5" cy="9300" r="255.315" /> 
<circle cx="15329.5" cy="10300" r="255.315" /> 
<circle cx="15329.5" cy="11300" r="255.315" /> 
<circle cx="15329.5" cy="12300" r="255.315" /> 
<circle cx="18329.5" cy="12300" r="255.315" /> 
<circle cx="18329.5" cy="11300" r="255.315" /> 
<circle cx="18329.5" cy="10300" r="255.315" /> 
<circle cx="18329.5" cy="9300" r="255.315" /> 
<circle cx="18329.5" cy="8300" r="255.315" /> 
<circle cx="18329.5" cy="7300" r="255.315" /> 
<circle cx="18329.5" cy="6300" r="255.315" /> 
<circle cx="18329.5" cy="5300" r="255.315" /> 
<polyline style="fill-rule:evenodd;"
points="8074,5044
8584,5044
8584,5555
8074,5555
8074,5044
" /> 
<circle cx="8329.53" cy="6300" r="255.315" /> 
<circle cx="8329.53" cy="7300" r="255.315" /> 
<circle cx="8329.53" cy="8300" r="255.315" /> 
<circle cx="8329.53" cy="9300" r="255.315" /> 
<circle cx="8329.53" cy="10300" r="255.315" /> 
<circle cx="8329.53" cy="11300" r="255.315" /> 
<circle cx="8329.53" cy="12300" r="255.315" /> 
<circle cx="11329.5" cy="12300" r="255.315" /> 
<circle cx="11329.5" cy="11300" r="255.315" /> 
<circle cx="11329.5" cy="10300" r="255.315" /> 
<circle cx="11329.5" cy="9300" r="255.315" /> 
<circle cx="11329.5" cy="8300" r="255.315" /> 
<circle cx="11329.5" cy="7300" r="255.315" /> 
<circle cx="11329.5" cy="6300" r="255.315" /> 
<circle cx="11329.5" cy="5300" r="255.315" /> 
<circle cx="7329.53" cy="10300" r="255.315" /> 
<circle cx="7329.53" cy="11300" r="255.315" /> 
<circle cx="10329.5" cy="3300" r="255.315" /> 
<circle cx="9329.53" cy="3300" r="255.315" /> 
<circle cx="5829.53" cy="7800" r="255.315" /> 
<circle cx="5829.53" cy="8800" r="255.315" /> 
<circle cx="7329.53" cy="7800" r="255.315" /> 
<circle cx="7329.53" cy="8800" r="255.315" /> 
<circle cx="14329.5" cy="5300" r="255.315" /> 
<circle cx="14329.5" cy="6300" r="255.315" /> 
<circle cx="14329.5" cy="7800" r="255.315" /> 
<circle cx="14329.5" cy="8800" r="255.315" /> 
<circle cx="12829.5" cy="7800" r="255.315" /> 
<circle cx="12829.5" cy="8800" r="255.315" /> 
<circle cx="14329.5" cy="10300" r="255.315" /> 
<circle cx="14329.5" cy="11300" r="255.315" /> 
<circle cx="17329.5" cy="3300" r="255.315" /> 
<circle cx="16329.5" cy="3300" r="255.315" /> 
<circle cx="7329.53" cy="5300" r="255.315" /> 
<circle cx="7329.53" cy="6300" r="255.315" /> 
<polyline style="fill-rule:evenodd;"
points="26758,12729
27900,12729
27900,13870
26758,13870
26758,12729
" /> 
<circle cx="27329.5" cy="15300" r="570.815" /> 
<polyline style="fill-rule:evenodd;"
points="23809,17792
22849,17792
22849,16831
23809,16831
23809,17792
" /> 
<circle cx="23329.5" cy="15303.9" r="480.315" /> 
<circle cx="23329.5" cy="13296.1" r="480.315" /> 
<circle cx="23329.5" cy="11288.2" r="480.315" /> 
<polyline style="fill-rule:evenodd;"
points="13549,18580
13549,18019
14109,18019
14109,18580
13549,18580
" /> 
<circle cx="14829.5" cy="18300" r="280.315" /> 
<circle cx="15829.5" cy="18300" r="280.315" /> 
<circle cx="16829.5" cy="18300" r="280.315" /> 
<circle cx="10329.5" cy="20300" r="255.315" /> 
<circle cx="11329.5" cy="20300" r="255.315" /> 
</g> 
</svg>
