<?xml version="1.0" standalone="no"?>
 <!DOCTYPE svg PUBLIC "-//W3C//DTD SVG 1.1//EN" 
 "http://www.w3.org/Graphics/SVG/1.1/DTD/svg11.dtd"> 
<svg xmlns="http://www.w3.org/2000/svg" version="1.1" 
    width="7.96798cm" height="5.7023cm" viewBox="0 0 31370 22450 ">
<title>SVG Picture created as STM32ShieldForMetroMiniSlaves-Eco1_User.svg date 2018/07/31 13:15:30 </title>
  <desc>Picture generated by PCBNEW </desc>
<g style="fill:#000000; fill-opacity:1;stroke:#000000; stroke-opacity:1;
stroke-linecap:round; stroke-linejoin:round; "
 transform="translate(0 0) scale(1 1)">
</g>
<g style="fill:#FFFF00; fill-opacity:0.0; 
stroke:#FFFF00; stroke-width:59.0551; stroke-opacity:1; 
stroke-linecap:round; stroke-linejoin:round;">
<path d="M28529 1150
L27929 550
" />
<path d="M28529 5650
L28529 1150
" />
<path d="M29529 6650
L28529 5650
" />
<path d="M29529 19550
L29529 6650
" />
<path d="M28529 20550
L29529 19550
" />
<path d="M28529 21550
L28529 20550
" />
<path d="M2529 21550
L28529 21550
" />
<path d="M2529 550
L2529 21550
" />
<path d="M27929 550
L2529 550
" />
</g>
<g style="fill:#00A000; fill-opacity:0.0; 
stroke:#00A000; stroke-width:19.685; stroke-opacity:1; 
stroke-linecap:round; stroke-linejoin:round;">
<path d="M12840 19861
L12840 21238
" />
<path d="M21226 19861
L21226 21238
" />
<path d="M12840 19861
L21226 19861
" />
<path d="M12840 21238
L21226 21238
" />
<path d="M21840 19861
L21840 21238
" />
<path d="M28218 19861
L28218 21238
" />
<path d="M21840 19861
L28218 19861
" />
<path d="M21840 21238
L28218 21238
" />
<path d="M9240 861
L9240 2238
" />
<path d="M19634 861
L19634 2238
" />
<path d="M9240 861
L19634 861
" />
<path d="M9240 2238
L19634 2238
" />
<path d="M19840 861
L19840 2238
" />
<path d="M28226 861
L28226 2238
" />
<path d="M19840 861
L28226 861
" />
<path d="M19840 2238
L28226 2238
" />
</g> 
</svg>
