<?xml version="1.0" standalone="no"?>
 <!DOCTYPE svg PUBLIC "-//W3C//DTD SVG 1.1//EN" 
 "http://www.w3.org/Graphics/SVG/1.1/DTD/svg11.dtd"> 
<svg xmlns="http://www.w3.org/2000/svg" version="1.1" 
    width="29.7002cm" height="21.0007cm" viewBox="0 0 116930 82680 ">
<title>SVG Picture created as STM32ShieldForMetroMiniSlaves-B_Cu.svg date 2018/06/23 10:27:12 </title>
  <desc>Picture generated by PCBNEW </desc>
<g style="fill:#000000; fill-opacity:1;stroke:#000000; stroke-opacity:1;
stroke-linecap:round; stroke-linejoin:round; "
 transform="translate(0 0) scale(1 1)">
</g>
<g style="fill:#000000; fill-opacity:0.0; 
stroke:#000000; stroke-width:39.3701; stroke-opacity:1; 
stroke-linecap:round; stroke-linejoin:round;">
<path d="M4000 4000
L112930 4000
L112930 78680
L4000 78680
L4000 4000
" />
<path d="M4700 4700
L112230 4700
L112230 77980
L4700 77980
L4700 4700
" />
<path d="M25780 4000
L25780 4700
" />
<path d="M15032 4552
L14747 4552
" />
<path d="M14890 4552
L14890 4052
L14842 4123
L14794 4171
L14747 4195
" />
<path d="M25780 78680
L25780 77980
" />
<path d="M15032 78532
L14747 78532
" />
<path d="M14890 78532
L14890 78032
L14842 78103
L14794 78151
L14747 78175
" />
<path d="M47560 4000
L47560 4700
" />
<path d="M36527 4100
L36550 4076
L36598 4052
L36717 4052
L36765 4076
L36789 4100
L36812 4147
L36812 4195
L36789 4266
L36503 4552
L36812 4552
" />
<path d="M47560 78680
L47560 77980
" />
<path d="M36527 78080
L36550 78056
L36598 78032
L36717 78032
L36765 78056
L36789 78080
L36812 78127
L36812 78175
L36789 78246
L36503 78532
L36812 78532
" />
<path d="M69340 4000
L69340 4700
" />
<path d="M58283 4052
L58592 4052
L58426 4242
L58497 4242
L58545 4266
L58569 4290
L58592 4338
L58592 4457
L58569 4504
L58545 4528
L58497 4552
L58354 4552
L58307 4528
L58283 4504
" />
<path d="M69340 78680
L69340 77980
" />
<path d="M58283 78032
L58592 78032
L58426 78222
L58497 78222
L58545 78246
L58569 78270
L58592 78318
L58592 78437
L58569 78484
L58545 78508
L58497 78532
L58354 78532
L58307 78508
L58283 78484
" />
<path d="M91120 4000
L91120 4700
" />
<path d="M80325 4219
L80325 4552
" />
<path d="M80206 4028
L80087 4385
L80396 4385
" />
<path d="M91120 78680
L91120 77980
" />
<path d="M80325 78199
L80325 78532
" />
<path d="M80206 78008
L80087 78365
L80396 78365
" />
<path d="M102129 4052
L101890 4052
L101867 4290
L101890 4266
L101938 4242
L102057 4242
L102105 4266
L102129 4290
L102152 4338
L102152 4457
L102129 4504
L102105 4528
L102057 4552
L101938 4552
L101890 4528
L101867 4504
" />
<path d="M102129 78032
L101890 78032
L101867 78270
L101890 78246
L101938 78222
L102057 78222
L102105 78246
L102129 78270
L102152 78318
L102152 78437
L102129 78484
L102105 78508
L102057 78532
L101938 78532
L101890 78508
L101867 78484
" />
<path d="M4000 28890
L4700 28890
" />
<path d="M4230 16509
L4469 16509
" />
<path d="M4183 16652
L4350 16152
L4516 16652
" />
<path d="M112930 28890
L112230 28890
" />
<path d="M112460 16509
L112699 16509
" />
<path d="M112413 16652
L112580 16152
L112746 16652
" />
<path d="M4000 53780
L4700 53780
" />
<path d="M4385 41280
L4457 41304
L4480 41328
L4504 41375
L4504 41447
L4480 41494
L4457 41518
L4409 41542
L4219 41542
L4219 41042
L4385 41042
L4433 41066
L4457 41090
L4480 41137
L4480 41185
L4457 41232
L4433 41256
L4385 41280
L4219 41280
" />
<path d="M112930 53780
L112230 53780
" />
<path d="M112615 41280
L112687 41304
L112710 41328
L112734 41375
L112734 41447
L112710 41494
L112687 41518
L112639 41542
L112449 41542
L112449 41042
L112615 41042
L112663 41066
L112687 41090
L112710 41137
L112710 41185
L112687 41232
L112663 41256
L112615 41280
L112449 41280
" />
<path d="M4504 66384
L4480 66408
L4409 66432
L4361 66432
L4290 66408
L4242 66360
L4219 66313
L4195 66218
L4195 66146
L4219 66051
L4242 66003
L4290 65956
L4361 65932
L4409 65932
L4480 65956
L4504 65980
" />
<path d="M112734 66384
L112710 66408
L112639 66432
L112591 66432
L112520 66408
L112472 66360
L112449 66313
L112425 66218
L112425 66146
L112449 66051
L112472 66003
L112520 65956
L112591 65932
L112639 65932
L112710 65956
L112734 65980
" />
<path d="M79380 76422
L79455 75822
L79597 75822
L79680 75851
L79730 75908
L79751 75965
L79765 76080
L79755 76165
L79712 76280
L79676 76337
L79612 76394
L79522 76422
L79380 76422
" />
<path d="M80237 76422
L80276 76108
L80255 76051
L80201 76022
L80087 76022
L80026 76051
" />
<path d="M80240 76394
L80180 76422
L80037 76422
L79983 76394
L79962 76337
L79969 76280
L80005 76222
L80065 76194
L80208 76194
L80269 76165
" />
<path d="M80487 76022
L80715 76022
" />
<path d="M80597 75822
L80533 76337
L80555 76394
L80608 76422
L80665 76422
" />
<path d="M81097 76394
L81037 76422
L80922 76422
L80869 76394
L80847 76337
L80876 76108
L80912 76051
L80972 76022
L81087 76022
L81140 76051
L81162 76108
L81155 76165
L80862 76222
" />
<path d="M81387 76365
L81412 76394
L81380 76422
L81355 76394
L81387 76365
L81380 76422
" />
<path d="M81426 76051
L81451 76080
L81419 76108
L81394 76080
L81426 76051
L81419 76108
" />
<path d="M82162 75880
L82194 75851
L82255 75822
L82397 75822
L82451 75851
L82476 75880
L82497 75937
L82490 75994
L82451 76080
L82065 76422
L82437 76422
" />
<path d="M82712 75822
L83083 75822
L82855 76051
L82940 76051
L82994 76080
L83019 76108
L83040 76165
L83022 76308
L82987 76365
L82955 76394
L82894 76422
L82722 76422
L82669 76394
L82644 76365
" />
<path d="M83772 76022
L83708 76537
L83672 76594
L83612 76622
L83583 76622
" />
<path d="M83797 75822
L83765 75851
L83790 75880
L83822 75851
L83797 75822
L83790 75880
" />
<path d="M84315 76022
L84265 76422
" />
<path d="M84058 76022
L84019 76337
L84040 76394
L84094 76422
L84180 76422
L84240 76394
L84272 76365
" />
<path d="M84601 76022
L84551 76422
" />
<path d="M84594 76080
L84626 76051
L84687 76022
L84772 76022
L84826 76051
L84847 76108
L84808 76422
" />
<path d="M85590 75880
L85622 75851
L85683 75822
L85826 75822
L85880 75851
L85905 75880
L85926 75937
L85919 75994
L85880 76080
L85494 76422
L85865 76422
" />
<path d="M86312 75822
L86369 75822
L86422 75851
L86447 75880
L86469 75937
L86483 76051
L86465 76194
L86422 76308
L86387 76365
L86355 76394
L86294 76422
L86237 76422
L86183 76394
L86158 76365
L86137 76308
L86122 76194
L86140 76051
L86183 75937
L86219 75880
L86251 75851
L86312 75822
" />
<path d="M87008 76422
L86665 76422
" />
<path d="M86837 76422
L86912 75822
L86844 75908
L86780 75965
L86719 75994
" />
<path d="M87394 76080
L87340 76051
L87315 76022
L87294 75965
L87297 75937
L87333 75880
L87365 75851
L87426 75822
L87540 75822
L87594 75851
L87619 75880
L87640 75937
L87637 75965
L87601 76022
L87569 76051
L87508 76080
L87394 76080
L87333 76108
L87301 76137
L87265 76194
L87251 76308
L87272 76365
L87297 76394
L87351 76422
L87465 76422
L87526 76394
L87558 76365
L87594 76308
L87608 76194
L87587 76137
L87562 76108
L87508 76080
" />
<path d="M70972 77622
L70972 77022
" />
<path d="M71315 77622
L71058 77280
" />
<path d="M71315 77022
L70972 77365
" />
<path d="M71572 77622
L71572 77222
" />
<path d="M71572 77022
L71544 77051
L71572 77080
L71601 77051
L71572 77022
L71572 77080
" />
<path d="M72201 77565
L72172 77594
L72087 77622
L72030 77622
L71944 77594
L71887 77537
L71858 77480
L71830 77365
L71830 77280
L71858 77165
L71887 77108
L71944 77051
L72030 77022
L72087 77022
L72172 77051
L72201 77080
" />
<path d="M72715 77622
L72715 77308
L72687 77251
L72630 77222
L72515 77222
L72458 77251
" />
<path d="M72715 77594
L72658 77622
L72515 77622
L72458 77594
L72430 77537
L72430 77480
L72458 77422
L72515 77394
L72658 77394
L72715 77365
" />
<path d="M73258 77622
L73258 77022
" />
<path d="M73258 77594
L73201 77622
L73087 77622
L73030 77594
L73001 77565
L72972 77508
L72972 77337
L73001 77280
L73030 77251
L73087 77222
L73201 77222
L73258 77251
" />
<path d="M74001 77308
L74201 77308
" />
<path d="M74287 77622
L74001 77622
L74001 77022
L74287 77022
" />
<path d="M74544 77565
L74572 77594
L74544 77622
L74515 77594
L74544 77565
L74544 77622
" />
<path d="M74829 77622
L74829 77022
L74972 77022
L75058 77051
L75115 77108
L75144 77165
L75172 77280
L75172 77365
L75144 77480
L75115 77537
L75058 77594
L74972 77622
L74829 77622
" />
<path d="M75429 77565
L75458 77594
L75429 77622
L75401 77594
L75429 77565
L75429 77622
" />
<path d="M75687 77451
L75972 77451
" />
<path d="M75629 77622
L75829 77022
L76029 77622
" />
<path d="M76229 77565
L76258 77594
L76229 77622
L76201 77594
L76229 77565
L76229 77622
" />
<path d="M104522 76422
L104358 76137
" />
<path d="M104180 76422
L104255 75822
L104483 75822
L104537 75851
L104562 75880
L104583 75937
L104572 76022
L104537 76080
L104505 76108
L104444 76137
L104215 76137
" />
<path d="M105012 76394
L104951 76422
L104837 76422
L104783 76394
L104762 76337
L104790 76108
L104826 76051
L104887 76022
L105001 76022
L105055 76051
L105076 76108
L105069 76165
L104776 76222
" />
<path d="M105287 76022
L105380 76422
L105572 76022
" />
<path d="M105758 76365
L105783 76394
L105751 76422
L105726 76394
L105758 76365
L105751 76422
" />
<path d="M105797 76051
L105822 76080
L105790 76108
L105765 76080
L105797 76051
L105790 76108
" />
<path d="M70944 76394
L71030 76422
L71172 76422
L71230 76394
L71258 76365
L71287 76308
L71287 76251
L71258 76194
L71230 76165
L71172 76137
L71058 76108
L71001 76080
L70972 76051
L70944 75994
L70944 75937
L70972 75880
L71001 75851
L71058 75822
L71201 75822
L71287 75851
" />
<path d="M71544 76422
L71544 76022
" />
<path d="M71544 75822
L71515 75851
L71544 75880
L71572 75851
L71544 75822
L71544 75880
" />
<path d="M71772 76022
L72087 76022
L71772 76422
L72087 76422
" />
<path d="M72544 76394
L72487 76422
L72372 76422
L72315 76394
L72287 76337
L72287 76108
L72315 76051
L72372 76022
L72487 76022
L72544 76051
L72572 76108
L72572 76165
L72287 76222
" />
<path d="M72830 76365
L72858 76394
L72830 76422
L72801 76394
L72830 76365
L72830 76422
" />
<path d="M72830 76051
L72858 76080
L72830 76108
L72801 76080
L72830 76051
L72830 76108
" />
<path d="M73544 76251
L73830 76251
" />
<path d="M73487 76422
L73687 75822
L73887 76422
" />
<path d="M74344 76022
L74344 76422
" />
<path d="M74201 75794
L74058 76222
L74430 76222
" />
<path d="M104172 77622
L104172 77022
" />
<path d="M104715 77622
L104715 77022
" />
<path d="M104715 77594
L104658 77622
L104544 77622
L104487 77594
L104458 77565
L104430 77508
L104430 77337
L104458 77280
L104487 77251
L104544 77222
L104658 77222
L104715 77251
" />
<path d="M105001 77565
L105030 77594
L105001 77622
L104972 77594
L105001 77565
L105001 77622
" />
<path d="M105001 77251
L105030 77280
L105001 77308
L104972 77280
L105001 77251
L105001 77308
" />
<path d="M106058 77622
L105715 77622
" />
<path d="M105887 77622
L105887 77022
L105829 77108
L105772 77165
L105715 77194
" />
<path d="M106744 76994
L106230 77765
" />
<path d="M107258 77622
L106915 77622
" />
<path d="M107087 77622
L107087 77022
L107029 77108
L106972 77165
L106915 77194
" />
<path d="M70969 74622
L71312 74622
" />
<path d="M71065 75222
L71140 74622
" />
<path d="M71437 75222
L71487 74822
" />
<path d="M71512 74622
L71480 74651
L71505 74680
L71537 74651
L71512 74622
L71505 74680
" />
<path d="M71687 74822
L71915 74822
" />
<path d="M71797 74622
L71733 75137
L71755 75194
L71808 75222
L71865 75222
" />
<path d="M72151 75222
L72097 75194
L72076 75137
L72140 74622
" />
<path d="M72612 75194
L72551 75222
L72437 75222
L72383 75194
L72362 75137
L72390 74908
L72426 74851
L72487 74822
L72601 74822
L72655 74851
L72676 74908
L72669 74965
L72376 75022
" />
<path d="M72901 75165
L72926 75194
L72894 75222
L72869 75194
L72901 75165
L72894 75222
" />
<path d="M72940 74851
L72965 74880
L72933 74908
L72908 74880
L72940 74851
L72933 74908
" />
<path d="M71172 72508
L70972 72508
" />
<path d="M70972 72822
L70972 72222
L71258 72222
" />
<path d="M71487 72822
L71487 72422
" />
<path d="M71487 72222
L71458 72251
L71487 72280
L71515 72251
L71487 72222
L71487 72280
" />
<path d="M71858 72822
L71801 72794
L71772 72737
L71772 72222
" />
<path d="M72315 72794
L72258 72822
L72144 72822
L72087 72794
L72058 72737
L72058 72508
L72087 72451
L72144 72422
L72258 72422
L72315 72451
L72344 72508
L72344 72565
L72058 72622
" />
<path d="M72601 72765
L72630 72794
L72601 72822
L72572 72794
L72601 72765
L72601 72822
" />
<path d="M72601 72451
L72630 72480
L72601 72508
L72572 72480
L72601 72451
L72601 72508
" />
<path d="M73315 72794
L73401 72822
L73544 72822
L73601 72794
L73630 72765
L73658 72708
L73658 72651
L73630 72594
L73601 72565
L73544 72537
L73430 72508
L73372 72480
L73344 72451
L73315 72394
L73315 72337
L73344 72280
L73372 72251
L73430 72222
L73572 72222
L73658 72251
" />
<path d="M73830 72222
L74172 72222
" />
<path d="M74001 72822
L74001 72222
" />
<path d="M74372 72822
L74372 72222
L74572 72651
L74772 72222
L74772 72822
" />
<path d="M75001 72222
L75372 72222
L75172 72451
L75258 72451
L75315 72480
L75344 72508
L75372 72565
L75372 72708
L75344 72765
L75315 72794
L75258 72822
L75087 72822
L75030 72794
L75001 72765
" />
<path d="M75601 72280
L75630 72251
L75687 72222
L75830 72222
L75887 72251
L75915 72280
L75944 72337
L75944 72394
L75915 72480
L75572 72822
L75944 72822
" />
<path d="M76172 72794
L76258 72822
L76401 72822
L76458 72794
L76487 72765
L76515 72708
L76515 72651
L76487 72594
L76458 72565
L76401 72537
L76287 72508
L76230 72480
L76201 72451
L76172 72394
L76172 72337
L76201 72280
L76230 72251
L76287 72222
L76430 72222
L76515 72251
" />
<path d="M76772 72822
L76772 72222
" />
<path d="M77030 72822
L77030 72508
L77001 72451
L76944 72422
L76858 72422
L76801 72451
L76772 72480
" />
<path d="M77315 72822
L77315 72422
" />
<path d="M77315 72222
L77287 72251
L77315 72280
L77344 72251
L77315 72222
L77315 72280
" />
<path d="M77830 72794
L77772 72822
L77658 72822
L77601 72794
L77572 72737
L77572 72508
L77601 72451
L77658 72422
L77772 72422
L77830 72451
L77858 72508
L77858 72565
L77572 72622
" />
<path d="M78201 72822
L78144 72794
L78115 72737
L78115 72222
" />
<path d="M78687 72822
L78687 72222
" />
<path d="M78687 72794
L78630 72822
L78515 72822
L78458 72794
L78430 72765
L78401 72708
L78401 72537
L78430 72480
L78458 72451
L78515 72422
L78630 72422
L78687 72451
" />
<path d="M79172 72508
L78972 72508
" />
<path d="M78972 72822
L78972 72222
L79258 72222
" />
<path d="M79572 72822
L79515 72794
L79487 72765
L79458 72708
L79458 72537
L79487 72480
L79515 72451
L79572 72422
L79658 72422
L79715 72451
L79744 72480
L79772 72537
L79772 72708
L79744 72765
L79715 72794
L79658 72822
L79572 72822
" />
<path d="M80030 72822
L80030 72422
" />
<path d="M80030 72537
L80058 72480
L80087 72451
L80144 72422
L80201 72422
" />
<path d="M80401 72822
L80401 72222
L80601 72651
L80801 72222
L80801 72822
" />
<path d="M81315 72794
L81258 72822
L81144 72822
L81087 72794
L81058 72737
L81058 72508
L81087 72451
L81144 72422
L81258 72422
L81315 72451
L81344 72508
L81344 72565
L81058 72622
" />
<path d="M81515 72422
L81744 72422
" />
<path d="M81601 72222
L81601 72737
L81630 72794
L81687 72822
L81744 72822
" />
<path d="M81944 72822
L81944 72422
" />
<path d="M81944 72537
L81972 72480
L82001 72451
L82058 72422
L82115 72422
" />
<path d="M82401 72822
L82344 72794
L82315 72765
L82287 72708
L82287 72537
L82315 72480
L82344 72451
L82401 72422
L82487 72422
L82544 72451
L82572 72480
L82601 72537
L82601 72708
L82572 72765
L82544 72794
L82487 72822
L82401 72822
" />
<path d="M82858 72822
L82858 72222
L83058 72651
L83258 72222
L83258 72822
" />
<path d="M83544 72822
L83544 72422
" />
<path d="M83544 72222
L83515 72251
L83544 72280
L83572 72251
L83544 72222
L83544 72280
" />
<path d="M83830 72422
L83830 72822
" />
<path d="M83830 72480
L83858 72451
L83915 72422
L84001 72422
L84058 72451
L84087 72508
L84087 72822
" />
<path d="M84372 72822
L84372 72422
" />
<path d="M84372 72222
L84344 72251
L84372 72280
L84401 72251
L84372 72222
L84372 72280
" />
<path d="M84630 72794
L84715 72822
L84858 72822
L84915 72794
L84944 72765
L84972 72708
L84972 72651
L84944 72594
L84915 72565
L84858 72537
L84744 72508
L84687 72480
L84658 72451
L84630 72394
L84630 72337
L84658 72280
L84687 72251
L84744 72222
L84887 72222
L84972 72251
" />
<path d="M85315 72822
L85258 72794
L85230 72737
L85230 72222
" />
<path d="M85801 72822
L85801 72508
L85772 72451
L85715 72422
L85601 72422
L85544 72451
" />
<path d="M85801 72794
L85744 72822
L85601 72822
L85544 72794
L85515 72737
L85515 72680
L85544 72622
L85601 72594
L85744 72594
L85801 72565
" />
<path d="M86030 72422
L86172 72822
L86315 72422
" />
<path d="M86772 72794
L86715 72822
L86601 72822
L86544 72794
L86515 72737
L86515 72508
L86544 72451
L86601 72422
L86715 72422
L86772 72451
L86801 72508
L86801 72565
L86515 72622
" />
<path d="M87030 72794
L87087 72822
L87201 72822
L87258 72794
L87287 72737
L87287 72708
L87258 72651
L87201 72622
L87115 72622
L87058 72594
L87030 72537
L87030 72508
L87058 72451
L87115 72422
L87201 72422
L87258 72451
" />
<path d="M87544 72765
L87572 72794
L87544 72822
L87515 72794
L87544 72765
L87544 72822
" />
<path d="M87830 72822
L87830 72222
" />
<path d="M87887 72594
L88058 72822
" />
<path d="M88058 72422
L87830 72651
" />
<path d="M88315 72822
L88315 72422
" />
<path d="M88315 72222
L88287 72251
L88315 72280
L88344 72251
L88315 72222
L88315 72280
" />
<path d="M88858 72794
L88801 72822
L88687 72822
L88630 72794
L88601 72765
L88572 72708
L88572 72537
L88601 72480
L88630 72451
L88687 72422
L88801 72422
L88858 72451
" />
<path d="M89372 72822
L89372 72508
L89344 72451
L89287 72422
L89172 72422
L89115 72451
" />
<path d="M89372 72794
L89315 72822
L89172 72822
L89115 72794
L89087 72737
L89087 72680
L89115 72622
L89172 72594
L89315 72594
L89372 72565
" />
<path d="M89915 72822
L89915 72222
" />
<path d="M89915 72794
L89858 72822
L89744 72822
L89687 72794
L89658 72765
L89630 72708
L89630 72537
L89658 72480
L89687 72451
L89744 72422
L89858 72422
L89915 72451
" />
<path d="M90058 72880
L90515 72880
" />
<path d="M90658 72422
L90658 73022
" />
<path d="M90658 72451
L90715 72422
L90830 72422
L90887 72451
L90915 72480
L90944 72537
L90944 72708
L90915 72765
L90887 72794
L90830 72822
L90715 72822
L90658 72794
" />
<path d="M91458 72794
L91401 72822
L91287 72822
L91230 72794
L91201 72765
L91172 72708
L91172 72537
L91201 72480
L91230 72451
L91287 72422
L91401 72422
L91458 72451
" />
<path d="M91715 72822
L91715 72222
" />
<path d="M91715 72451
L91772 72422
L91887 72422
L91944 72451
L91972 72480
L92001 72537
L92001 72708
L91972 72765
L91944 72794
L91887 72822
L91772 72822
L91715 72794
" />
<path d="M70944 73994
L71030 74022
L71172 74022
L71230 73994
L71258 73965
L71287 73908
L71287 73851
L71258 73794
L71230 73765
L71172 73737
L71058 73708
L71001 73680
L70972 73651
L70944 73594
L70944 73537
L70972 73480
L71001 73451
L71058 73422
L71201 73422
L71287 73451
" />
<path d="M71544 74022
L71544 73422
" />
<path d="M71801 74022
L71801 73708
L71772 73651
L71715 73622
L71630 73622
L71572 73651
L71544 73680
" />
<path d="M72315 73994
L72258 74022
L72144 74022
L72087 73994
L72058 73937
L72058 73708
L72087 73651
L72144 73622
L72258 73622
L72315 73651
L72344 73708
L72344 73765
L72058 73822
" />
<path d="M72830 73994
L72772 74022
L72658 74022
L72601 73994
L72572 73937
L72572 73708
L72601 73651
L72658 73622
L72772 73622
L72830 73651
L72858 73708
L72858 73765
L72572 73822
" />
<path d="M73030 73622
L73258 73622
" />
<path d="M73115 73422
L73115 73937
L73144 73994
L73201 74022
L73258 74022
" />
<path d="M73458 73965
L73487 73994
L73458 74022
L73430 73994
L73458 73965
L73458 74022
" />
<path d="M73458 73651
L73487 73680
L73458 73708
L73430 73680
L73458 73651
L73458 73708
" />
<path d="M70230 71980
L70230 77980
" />
<path d="M70230 71980
L112230 71980
" />
<path d="M70230 71980
L112230 71980
" />
<path d="M70230 74380
L112230 74380
" />
<path d="M103430 75580
L103430 77980
" />
<path d="M70230 76780
L112230 76780
" />
<path d="M70230 75580
L112230 75580
" />
<path d="M76830 75580
L76830 76780
" />
</g>
<g style="fill:#FFFF00; fill-opacity:0.0; 
stroke:#FFFF00; stroke-width:59.0551; stroke-opacity:1; 
stroke-linecap:round; stroke-linejoin:round;">
<path d="M69700 29350
L69100 28750
" />
<path d="M69700 33850
L69700 29350
" />
<path d="M70700 34850
L69700 33850
" />
<path d="M70700 47750
L70700 34850
" />
<path d="M69700 48750
L70700 47750
" />
<path d="M69700 49750
L69700 48750
" />
<path d="M43700 49750
L69700 49750
" />
<path d="M43700 28750
L43700 49750
" />
<path d="M69100 28750
L43700 28750
" />
</g>
<g style="fill:#808000; fill-opacity:0.0; 
stroke:#808000; stroke-width:680; stroke-opacity:1; 
stroke-linecap:round; stroke-linejoin:round;">
<path d="M54700 48690
L54700 48810
" />
<path d="M55700 48690
L55700 48810
" />
<path d="M56700 48690
L56700 48810
" />
<path d="M57700 48690
L57700 48810
" />
<path d="M58700 48690
L58700 48810
" />
<path d="M59700 48690
L59700 48810
" />
<path d="M60700 48690
L60700 48810
" />
<path d="M61700 48690
L61700 48810
" />
<path d="M63700 48690
L63700 48810
" />
<path d="M64700 48690
L64700 48810
" />
<path d="M65700 48690
L65700 48810
" />
<path d="M66700 48690
L66700 48810
" />
<path d="M67700 48690
L67700 48810
" />
<path d="M68700 48690
L68700 48810
" />
<path d="M51100 29690
L51100 29810
" />
<path d="M52100 29690
L52100 29810
" />
<path d="M53100 29690
L53100 29810
" />
<path d="M54100 29690
L54100 29810
" />
<path d="M55100 29690
L55100 29810
" />
<path d="M56100 29690
L56100 29810
" />
<path d="M57100 29690
L57100 29810
" />
<path d="M58100 29690
L58100 29810
" />
<path d="M59100 29690
L59100 29810
" />
<path d="M60100 29690
L60100 29810
" />
<path d="M61700 29690
L61700 29810
" />
<path d="M62700 29690
L62700 29810
" />
<path d="M63700 29690
L63700 29810
" />
<path d="M64700 29690
L64700 29810
" />
<path d="M65700 29690
L65700 29810
" />
<path d="M66700 29690
L66700 29810
" />
<path d="M67700 29690
L67700 29810
" />
<path d="M68700 29690
L68700 29810
" />
</g>
<g style="fill:#808000; fill-opacity:0.0; 
stroke:#808000; stroke-width:39.3701; stroke-opacity:1; 
stroke-linecap:round; stroke-linejoin:round;">
</g>
<g style="fill:#808000; fill-opacity:1.0; 
stroke:#808000; stroke-width:39.3701; stroke-opacity:1; 
stroke-linecap:round; stroke-linejoin:round;">
<circle cx="49200" cy="48750" r="780.315" /> 
<circle cx="69700" cy="46750" r="780.315" /> 
<circle cx="49700" cy="29750" r="780.315" /> 
<circle cx="69700" cy="35750" r="780.315" /> 
<circle cx="46500" cy="43000" r="255.315" /> 
<circle cx="46500" cy="42000" r="255.315" /> 
<circle cx="46500" cy="40500" r="255.315" /> 
<circle cx="46500" cy="39500" r="255.315" /> 
<circle cx="62000" cy="41500" r="255.315" /> 
<circle cx="62000" cy="40500" r="255.315" /> 
<circle cx="57000" cy="42500" r="255.315" /> 
<circle cx="58000" cy="42500" r="255.315" /> 
<polyline style="fill-rule:evenodd;"
points="44719,39719
45280,39719
45280,40280
44719,40280
44719,39719
" /> 
<circle cx="45000" cy="41000" r="280.315" /> 
<circle cx="45000" cy="42000" r="280.315" /> 
<circle cx="45000" cy="43000" r="280.315" /> 
<circle cx="45000" cy="44000" r="280.315" /> 
<polyline style="fill-rule:evenodd;"
points="65780,36280
65219,36280
65219,35719
65780,35719
65780,36280
" /> 
<circle cx="65500" cy="35000" r="280.315" /> 
<circle cx="65500" cy="34000" r="280.315" /> 
<circle cx="65500" cy="33000" r="280.315" /> 
<polyline style="fill-rule:evenodd;"
points="63780,36280
63219,36280
63219,35719
63780,35719
63780,36280
" /> 
<circle cx="63500" cy="35000" r="280.315" /> 
<circle cx="63500" cy="34000" r="280.315" /> 
<circle cx="63500" cy="33000" r="280.315" /> 
<polyline style="fill-rule:evenodd;"
points="61780,36280
61219,36280
61219,35719
61780,35719
61780,36280
" /> 
<circle cx="61500" cy="35000" r="280.315" /> 
<circle cx="61500" cy="34000" r="280.315" /> 
<circle cx="61500" cy="33000" r="280.315" /> 
<polyline style="fill-rule:evenodd;"
points="58744,42244
59255,42244
59255,42755
58744,42755
58744,42244
" /> 
<circle cx="59000" cy="43500" r="255.315" /> 
<circle cx="59000" cy="44500" r="255.315" /> 
<circle cx="59000" cy="45500" r="255.315" /> 
<circle cx="62000" cy="45500" r="255.315" /> 
<circle cx="62000" cy="44500" r="255.315" /> 
<circle cx="62000" cy="43500" r="255.315" /> 
<circle cx="62000" cy="42500" r="255.315" /> 
<polyline style="fill-rule:evenodd;"
points="50244,47255
50244,46744
50755,46744
50755,47255
50244,47255
" /> 
<circle cx="51500" cy="47000" r="255.315" /> 
<circle cx="52500" cy="47000" r="255.315" /> 
<circle cx="53500" cy="47000" r="255.315" /> 
<circle cx="53500" cy="44000" r="255.315" /> 
<circle cx="52500" cy="44000" r="255.315" /> 
<circle cx="51500" cy="44000" r="255.315" /> 
<circle cx="50500" cy="44000" r="255.315" /> 
<polyline style="fill-rule:evenodd;"
points="56244,33244
56755,33244
56755,33755
56244,33755
56244,33244
" /> 
<circle cx="56500" cy="34500" r="255.315" /> 
<circle cx="56500" cy="35500" r="255.315" /> 
<circle cx="56500" cy="36500" r="255.315" /> 
<circle cx="56500" cy="37500" r="255.315" /> 
<circle cx="56500" cy="38500" r="255.315" /> 
<circle cx="56500" cy="39500" r="255.315" /> 
<circle cx="56500" cy="40500" r="255.315" /> 
<circle cx="59500" cy="40500" r="255.315" /> 
<circle cx="59500" cy="39500" r="255.315" /> 
<circle cx="59500" cy="38500" r="255.315" /> 
<circle cx="59500" cy="37500" r="255.315" /> 
<circle cx="59500" cy="36500" r="255.315" /> 
<circle cx="59500" cy="35500" r="255.315" /> 
<circle cx="59500" cy="34500" r="255.315" /> 
<circle cx="59500" cy="33500" r="255.315" /> 
<polyline style="fill-rule:evenodd;"
points="49244,33244
49755,33244
49755,33755
49244,33755
49244,33244
" /> 
<circle cx="49500" cy="34500" r="255.315" /> 
<circle cx="49500" cy="35500" r="255.315" /> 
<circle cx="49500" cy="36500" r="255.315" /> 
<circle cx="49500" cy="37500" r="255.315" /> 
<circle cx="49500" cy="38500" r="255.315" /> 
<circle cx="49500" cy="39500" r="255.315" /> 
<circle cx="49500" cy="40500" r="255.315" /> 
<circle cx="52500" cy="40500" r="255.315" /> 
<circle cx="52500" cy="39500" r="255.315" /> 
<circle cx="52500" cy="38500" r="255.315" /> 
<circle cx="52500" cy="37500" r="255.315" /> 
<circle cx="52500" cy="36500" r="255.315" /> 
<circle cx="52500" cy="35500" r="255.315" /> 
<circle cx="52500" cy="34500" r="255.315" /> 
<circle cx="52500" cy="33500" r="255.315" /> 
<circle cx="48500" cy="38500" r="255.315" /> 
<circle cx="48500" cy="39500" r="255.315" /> 
<circle cx="51500" cy="31500" r="255.315" /> 
<circle cx="50500" cy="31500" r="255.315" /> 
<circle cx="47000" cy="36000" r="255.315" /> 
<circle cx="47000" cy="37000" r="255.315" /> 
<circle cx="48500" cy="36000" r="255.315" /> 
<circle cx="48500" cy="37000" r="255.315" /> 
<circle cx="55500" cy="33500" r="255.315" /> 
<circle cx="55500" cy="34500" r="255.315" /> 
<circle cx="55500" cy="36000" r="255.315" /> 
<circle cx="55500" cy="37000" r="255.315" /> 
<circle cx="54000" cy="36000" r="255.315" /> 
<circle cx="54000" cy="37000" r="255.315" /> 
<circle cx="55500" cy="38500" r="255.315" /> 
<circle cx="55500" cy="39500" r="255.315" /> 
<circle cx="58500" cy="31500" r="255.315" /> 
<circle cx="57500" cy="31500" r="255.315" /> 
<circle cx="48500" cy="33500" r="255.315" /> 
<circle cx="48500" cy="34500" r="255.315" /> 
<polyline style="fill-rule:evenodd;"
points="67929,40929
69070,40929
69070,42070
67929,42070
67929,40929
" /> 
<circle cx="68500" cy="43500" r="570.815" /> 
<polyline style="fill-rule:evenodd;"
points="64980,45992
64019,45992
64019,45031
64980,45031
64980,45992
" /> 
<circle cx="64500" cy="43503.9" r="480.315" /> 
<circle cx="64500" cy="41496.1" r="480.315" /> 
<circle cx="64500" cy="39488.2" r="480.315" /> 
<polyline style="fill-rule:evenodd;"
points="54719,46780
54719,46219
55280,46219
55280,46780
54719,46780
" /> 
<circle cx="56000" cy="46500" r="280.315" /> 
<circle cx="57000" cy="46500" r="280.315" /> 
<circle cx="58000" cy="46500" r="280.315" /> 
<circle cx="51500" cy="48500" r="255.315" /> 
<circle cx="52500" cy="48500" r="255.315" /> 
</g>
<g style="fill:#C0C0C0; fill-opacity:1.0; 
stroke:#C0C0C0; stroke-width:39.3701; stroke-opacity:1; 
stroke-linecap:round; stroke-linejoin:round;">
<circle cx="63450" cy="47800" r="98.4252" /> 
<circle cx="67000" cy="47500" r="98.4252" /> 
<circle cx="44250" cy="46250" r="98.4252" /> 
<circle cx="44250" cy="31000" r="98.4252" /> 
<circle cx="61500" cy="46000" r="98.4252" /> 
<circle cx="61550" cy="38500" r="98.4252" /> 
<circle cx="54000" cy="40500" r="98.4252" /> 
<circle cx="54650" cy="37550" r="98.4252" /> 
<circle cx="57500" cy="40500" r="98.4252" /> 
<circle cx="53500" cy="38950" r="98.4252" /> 
<circle cx="60650" cy="35450" r="98.4252" /> 
<circle cx="60650" cy="41000" r="98.4252" /> 
<circle cx="50500" cy="36500" r="98.4252" /> 
<circle cx="50500" cy="32750" r="98.4252" /> 
<circle cx="60700" cy="34450" r="98.4252" /> 
<circle cx="60750" cy="32700" r="98.4252" /> 
<circle cx="60000" cy="34000" r="98.4252" /> 
<circle cx="60100" cy="41500" r="98.4252" /> 
<circle cx="65000" cy="38550" r="98.4252" /> 
<circle cx="51500" cy="33000" r="98.4252" /> 
<circle cx="50250" cy="41200" r="98.4252" /> 
<circle cx="57000" cy="41250" r="98.4252" /> 
<circle cx="57000" cy="35000" r="98.4252" /> 
</g>
<g style="fill:#00A000; fill-opacity:1.0; 
stroke:#00A000; stroke-width:98.4252; stroke-opacity:1; 
stroke-linecap:round; stroke-linejoin:round;">
<path d="M62000 40500
L62100 40500
" />
<path d="M63450 41150
L63450 47800
" />
<path d="M62100 40500
L63450 41150
" />
<path d="M58500 31500
L59000 31500
" />
<path d="M59500 32000
L59500 33500
" />
<path d="M59000 31500
L59500 32000
" />
<path d="M67000 31000
L67000 32000
" />
<path d="M67000 32000
L67000 47500
" />
<path d="M66700 30700
L67000 31000
" />
<path d="M66700 30700
L66700 29750
" />
<path d="M52500 47000
L52500 48500
" />
<path d="M44250 46250
L44250 31000
" />
<path d="M61500 46000
L61500 45000
" />
<path d="M61500 45000
L62000 44500
" />
<path d="M61550 41050
L61550 38500
" />
<path d="M62000 41500
L61550 41050
" />
<path d="M59500 39500
L59500 38500
" />
<path d="M52500 39500
L52500 38500
" />
<path d="M62000 43500
L62000 43400
" />
<path d="M61550 41950
L62000 41500
" />
<path d="M61550 42950
L61550 41950
" />
<path d="M62000 43400
L61550 42950
" />
<path d="M62000 44500
L62000 43500
" />
<path d="M56000 46500
L56000 45500
" />
<path d="M54000 43500
L54000 40500
" />
<path d="M56000 45500
L54000 43500
" />
<path d="M56000 44000
L57000 45000
" />
<path d="M55300 44000
L56000 44000
" />
<path d="M54650 43350
L55300 44000
" />
<path d="M54650 37550
L54650 43350
" />
<path d="M57000 45000
L57000 46500
" />
<path d="M58000 46500
L58000 43500
" />
<path d="M57500 43000
L57500 40500
" />
<path d="M58000 43500
L57500 43000
" />
</g>
<g style="fill:#00A000; fill-opacity:1.0; 
stroke:#00A000; stroke-width:551.181; stroke-opacity:1; 
stroke-linecap:round; stroke-linejoin:round;">
<path d="M64500 39488
L64988 39488
" />
<path d="M65800 44211
L64500 45511
" />
<path d="M65800 40300
L65800 44211
" />
<path d="M64988 39488
L65800 40300
" />
</g>
<g style="fill:#00A000; fill-opacity:1.0; 
stroke:#00A000; stroke-width:98.4252; stroke-opacity:1; 
stroke-linecap:round; stroke-linejoin:round;">
<path d="M49500 34500
L49500 34650
" />
<path d="M48500 35650
L48500 36000
" />
<path d="M49500 34650
L48500 35650
" />
<path d="M53500 38950
L53500 44000
" />
<path d="M60650 41000
L60650 35450
" />
<path d="M50500 32750
L50500 36500
" />
<path d="M60700 32750
L60700 34450
" />
<path d="M60750 32700
L60700 32750
" />
<path d="M60050 41450
L60000 34000
" />
<path d="M60100 41500
L60050 41450
" />
<path d="M65500 34000
L65000 34500
" />
<path d="M65000 34500
L65000 38550
" />
<path d="M52500 35500
L52250 35500
" />
<path d="M51500 34750
L51500 33000
" />
<path d="M52250 35500
L51500 34750
" />
<path d="M50050 40050
L49500 39500
" />
<path d="M50050 41000
L50050 40050
" />
<path d="M50250 41200
L50050 41000
" />
<path d="M57000 35000
L57000 41250
" />
<path d="M56500 34500
L56500 34650
" />
<path d="M55500 35650
L55500 36000
" />
<path d="M56500 34650
L55500 35650
" />
<path d="M59000 43500
L59500 44000
" />
<path d="M59500 45000
L59000 45500
" />
<path d="M59500 44000
L59500 45000
" />
<path d="M59000 42500
L58450 43050
" />
<path d="M58450 43950
L59000 44500
" />
<path d="M58450 43050
L58450 43950
" />
</g>
<g style="fill:#00A000; fill-opacity:1.0; 
stroke:#00A000; stroke-width:39.3701; stroke-opacity:1; 
stroke-linecap:round; stroke-linejoin:round;">
<polyline style="fill-rule:evenodd;"
points="70420,47634
69502,48552
69441,48643
69420,48750
69420,49470
69290,49470
69290,48822
69290,48677
69245,48451
69117,48260
68925,48132
68700,48087
68474,48132
68282,48260
68200,48384
68117,48260
67925,48132
67700,48087
67474,48132
67282,48260
67200,48384
67117,48260
66925,48132
66700,48087
66474,48132
66325,48231
66325,44211
66325,44211
66325,40300
66285,40098
66285,40098
66239,40030
66171,39928
66171,39928
65359,39116
65189,39002
65046,38974
64990,38918
65072,38918
65208,38862
65311,38758
65368,38623
65368,38477
65312,38341
65299,38328
65299,35512
65390,35549
65608,35550
65811,35466
65965,35311
66049,35109
66050,34891
65966,34688
65811,34534
65730,34500
65811,34466
65965,34311
66049,34109
66050,33891
65966,33688
65811,33534
65609,33450
65391,33449
65188,33533
65034,33688
64950,33890
64949,34108
64955,34121
64788,34288
64723,34385
64700,34500
64700,38328
64688,38341
64631,38476
64631,38622
64685,38753
64649,38738
64351,38738
64075,38851
64050,38877
64050,34891
63966,34688
63811,34534
63730,34500
63811,34466
63965,34311
64049,34109
64050,33891
63966,33688
63811,33534
63609,33450
63391,33449
63188,33533
63034,33688
62950,33890
62949,34108
63033,34311
63188,34465
63269,34499
63188,34533
63034,34688
62950,34890
62949,35108
63033,35311
63188,35465
63390,35549
63608,35550
63811,35466
63965,35311
64049,35109
64050,34891
64050,38877
63864,39062
63750,39338
63749,39636
63863,39912
64074,40123
64350,40238
64648,40238
64893,40137
65274,40517
65274,43994
65250,44018
65250,43355
65250,41347
65136,41071
64925,40860
64649,40746
64351,40745
64075,40859
63864,41070
63750,41346
63749,41644
63863,41920
64074,42131
64350,42245
64648,42246
64924,42132
65135,41921
65249,41645
65250,41347
65250,43355
65136,43079
64925,42868
64649,42754
64351,42753
64075,42867
63864,43078
63750,43354
63749,43652
63863,43928
64074,44139
64350,44253
64648,44254
64924,44140
65135,43929
65249,43653
65250,43355
65250,44018
64506,44761
63950,44761
63858,44799
63788,44870
63750,44961
63749,45061
63749,46061
63787,46153
63858,46223
63950,46261
64049,46261
65049,46261
65141,46223
65211,46153
65249,46061
65250,45962
65250,45505
66171,44583
66171,44583
66171,44583
66239,44481
66285,44412
66285,44412
66325,44211
66325,44211
66325,48231
66282,48260
66200,48384
66117,48260
65925,48132
65700,48087
65474,48132
65282,48260
65200,48384
65117,48260
64925,48132
64700,48087
64474,48132
64282,48260
64200,48384
64117,48260
63925,48132
63700,48087
63679,48091
63761,48008
63818,47873
63818,47727
63762,47591
63749,47578
63749,41150
63739,41103
63732,41050
63727,41043
63726,41035
63700,40997
63673,40950
63665,40944
63661,40938
63623,40913
63579,40880
62512,40366
62445,40203
62297,40055
62104,39975
62050,39975
62050,34891
61966,34688
61811,34534
61730,34500
61811,34466
61965,34311
62049,34109
62050,33891
61966,33688
61811,33534
61609,33450
61391,33449
61188,33533
61034,33688
60999,33771
60999,32971
61061,32908
61118,32773
61118,32627
61062,32491
60958,32388
60823,32331
60690,32331
60690,29822
60690,29677
60645,29451
60517,29260
60325,29132
60100,29087
59874,29132
59682,29260
59600,29384
59517,29260
59325,29132
59100,29087
58874,29132
58682,29260
58600,29384
58517,29260
58325,29132
58100,29087
57874,29132
57682,29260
57600,29384
57517,29260
57325,29132
57100,29087
56874,29132
56682,29260
56600,29384
56517,29260
56325,29132
56100,29087
55874,29132
55682,29260
55600,29384
55517,29260
55325,29132
55100,29087
54874,29132
54682,29260
54554,29451
54510,29677
54510,29822
54554,30048
54682,30239
54874,30367
55100,30412
55325,30367
55517,30239
55600,30115
55682,30239
55874,30367
56100,30412
56325,30367
56517,30239
56600,30115
56682,30239
56874,30367
57100,30412
57325,30367
57517,30239
57600,30115
57682,30239
57874,30367
58100,30412
58325,30367
58517,30239
58600,30115
58682,30239
58874,30367
59100,30412
59325,30367
59517,30239
59600,30115
59682,30239
59874,30367
60100,30412
60325,30367
60517,30239
60645,30048
60690,29822
60690,32331
60677,32331
60541,32387
60438,32491
60381,32626
60381,32772
60400,32818
60400,34228
60388,34241
60331,34376
60331,34522
60387,34658
60491,34761
60626,34818
60772,34818
60908,34762
61011,34658
61068,34523
61068,34377
61046,34323
61188,34465
61269,34499
61188,34533
61034,34688
60950,34890
60949,35108
61033,35311
61188,35465
61390,35549
61608,35550
61811,35466
61965,35311
62049,35109
62050,34891
62050,39975
61896,39974
61849,39994
61849,38721
61861,38708
61918,38573
61918,38427
61862,38291
61758,38188
61623,38131
61477,38131
61341,38187
61238,38291
61181,38426
61181,38572
61237,38708
61250,38721
61250,41050
61273,41164
61338,41261
61475,41398
61474,41601
61338,41738
61273,41835
61250,41950
61250,42950
61273,43064
61338,43161
61503,43326
61475,43395
61474,43603
61554,43797
61700,43943
61700,44056
61555,44202
61475,44395
61474,44601
61288,44788
61223,44885
61200,45000
61200,45778
61188,45791
61131,45926
61131,46072
61187,46208
61291,46311
61426,46368
61572,46368
61708,46312
61811,46208
61868,46073
61868,45927
61812,45791
61799,45778
61799,45123
61898,45024
62103,45025
62297,44945
62444,44797
62524,44604
62525,44396
62445,44203
62299,44056
62299,43943
62444,43797
62524,43604
62525,43396
62445,43203
62297,43055
62104,42975
61998,42974
61849,42826
61849,42073
61898,42024
62103,42025
62297,41945
62444,41797
62524,41604
62525,41396
62445,41203
62297,41055
62164,40999
62297,40945
62309,40932
63150,41337
63150,47578
63138,47591
63081,47726
63081,47872
63137,48008
63241,48111
63376,48168
63420,48168
63282,48260
63154,48451
63110,48677
63110,48822
63154,49048
63282,49239
63474,49367
63700,49412
63925,49367
64117,49239
64200,49115
64282,49239
64474,49367
64700,49412
64925,49367
65117,49239
65200,49115
65282,49239
65474,49367
65700,49412
65925,49367
66117,49239
66200,49115
66282,49239
66474,49367
66700,49412
66925,49367
67117,49239
67200,49115
67282,49239
67474,49367
67700,49412
67925,49367
68117,49239
68200,49115
68282,49239
68474,49367
68700,49412
68925,49367
69117,49239
69245,49048
69290,48822
69290,49470
62290,49470
62290,48822
62290,48677
62245,48451
62117,48260
61925,48132
61700,48087
61474,48132
61282,48260
61154,48451
61110,48677
61110,48822
61154,49048
61282,49239
61474,49367
61700,49412
61925,49367
62117,49239
62245,49048
62290,48822
62290,49470
61018,49470
61018,40927
60962,40791
60949,40778
60949,35671
60961,35658
61018,35523
61018,35377
60962,35241
60858,35138
60723,35081
60577,35081
60441,35137
60338,35241
60308,35312
60300,34219
60311,34208
60368,34073
60368,33927
60312,33791
60208,33688
60073,33631
60013,33631
60024,33604
60025,33396
59945,33203
59799,33056
59799,32000
59776,31885
59776,31885
59711,31788
59211,31288
59114,31223
59000,31200
58943,31200
58797,31055
58604,30975
58396,30974
58203,31054
58055,31202
57975,31395
57974,31603
58054,31797
58202,31944
58395,32024
58603,32025
58797,31945
58909,31832
59200,32123
59200,33056
59055,33202
58975,33395
58974,33603
59054,33797
59202,33944
59395,34024
59603,34025
59631,34013
59631,34072
59687,34208
59702,34222
59707,35017
59604,34975
59396,34974
59203,35054
59055,35202
58975,35395
58974,35603
59054,35797
59202,35944
59335,36000
59203,36054
59055,36202
58975,36395
58974,36603
59054,36797
59202,36944
59335,37000
59203,37054
59055,37202
58975,37395
58974,37603
59054,37797
59202,37944
59335,38000
59203,38054
59055,38202
58975,38395
58974,38603
59054,38797
59200,38943
59200,39056
59055,39202
58975,39395
58974,39603
59054,39797
59202,39944
59335,40000
59203,40054
59055,40202
58975,40395
58974,40603
59054,40797
59202,40944
59395,41024
59603,41025
59749,40964
59752,41377
59731,41426
59731,41572
59787,41708
59891,41811
60026,41868
60172,41868
60308,41812
60411,41708
60468,41573
60468,41427
60412,41291
60349,41229
60349,41220
60441,41311
60576,41368
60722,41368
60858,41312
60961,41208
61018,41073
61018,40927
61018,49470
59799,49470
59799,45000
59799,44000
59776,43885
59776,43885
59711,43788
59524,43601
59525,43396
59445,43203
59297,43055
59225,43025
59324,43025
59416,42987
59486,42916
59524,42824
59525,42725
59525,42175
59487,42083
59416,42013
59324,41975
59225,41974
58675,41974
58583,42012
58513,42083
58475,42175
58474,42274
58474,42274
58445,42203
58297,42055
58104,41975
57896,41974
57799,42014
57799,40721
57811,40708
57868,40573
57868,40427
57812,40291
57708,40188
57573,40131
57427,40131
57299,40184
57299,35221
57311,35208
57368,35073
57368,34927
57312,34791
57208,34688
57073,34631
57013,34631
57024,34604
57025,34396
56945,34203
56797,34055
56725,34025
56824,34025
56916,33987
56986,33916
57024,33824
57025,33725
57025,33175
56987,33083
56916,33013
56824,32975
56725,32974
56175,32974
56083,33012
56013,33083
55975,33175
55974,33274
55974,33274
55945,33203
55797,33055
55604,32975
55396,32974
55203,33054
55055,33202
54975,33395
54974,33603
55054,33797
55202,33944
55335,34000
55203,34054
55055,34202
54975,34395
54974,34603
55054,34797
55202,34944
55395,35024
55603,35025
55770,34956
55288,35438
55223,35535
55221,35547
55203,35554
55055,35702
54975,35895
54974,36103
55054,36297
55202,36444
55395,36524
55603,36525
55797,36445
55944,36297
56024,36104
56025,35896
55945,35703
55907,35665
55974,35598
55974,35603
56054,35797
56202,35944
56335,36000
56203,36054
56055,36202
55975,36395
55974,36603
56054,36797
56202,36944
56335,37000
56203,37054
56055,37202
55975,37395
55974,37603
56054,37797
56202,37944
56335,38000
56203,38054
56055,38202
55999,38335
55945,38203
55797,38055
55604,37975
55396,37974
55203,38054
55055,38202
54975,38395
54974,38603
55054,38797
55202,38944
55395,39024
55603,39025
55797,38945
55944,38797
56000,38664
56054,38797
56202,38944
56335,39000
56203,39054
56055,39202
55975,39395
55974,39603
56054,39797
56202,39944
56335,40000
56203,40054
56055,40202
55975,40395
55974,40603
56054,40797
56202,40944
56395,41024
56603,41025
56700,40985
56700,41028
56688,41041
56631,41176
56631,41322
56687,41458
56791,41561
56926,41618
57072,41618
57200,41565
57200,42014
57104,41975
56896,41974
56703,42054
56555,42202
56475,42395
56474,42603
56554,42797
56702,42944
56895,43024
57103,43025
57200,42985
57200,43000
57223,43114
57288,43211
57700,43623
57700,46028
57688,46033
57534,46188
57500,46269
57466,46188
57311,46034
57299,46028
57299,45000
57280,44904
57276,44885
57276,44885
57211,44788
56211,43788
56114,43723
56000,43700
55423,43700
54949,43226
54949,37771
54961,37758
55018,37623
55018,37477
54962,37341
54858,37238
54723,37181
54577,37181
54475,37223
54524,37104
54525,36896
54445,36703
54297,36555
54164,36499
54297,36445
54444,36297
54524,36104
54525,35896
54445,35703
54297,35555
54104,35475
53896,35474
53703,35554
53555,35702
53475,35895
53474,36103
53554,36297
53702,36444
53835,36500
53703,36554
53555,36702
53475,36895
53474,37103
53554,37297
53702,37444
53895,37524
54103,37525
54294,37446
54281,37476
54281,37622
54337,37758
54350,37771
54350,40385
54312,40291
54208,40188
54073,40131
53927,40131
53799,40184
53799,39171
53811,39158
53868,39023
53868,38877
53812,38741
53708,38638
53573,38581
53427,38581
53291,38637
53188,38741
53131,38876
53131,39022
53187,39158
53200,39171
53200,43556
53055,43702
53025,43774
53025,40396
52945,40203
52797,40055
52664,39999
52797,39945
52944,39797
53024,39604
53025,39396
52945,39203
52799,39056
52799,38943
52944,38797
53024,38604
53025,38396
52945,38203
52797,38055
52664,37999
52797,37945
52944,37797
53024,37604
53025,37396
52945,37203
52797,37055
52664,36999
52797,36945
52944,36797
53024,36604
53025,36396
52945,36203
52797,36055
52664,35999
52797,35945
52944,35797
53024,35604
53025,35396
53025,33396
52945,33203
52797,33055
52604,32975
52396,32974
52203,33054
52055,33202
52025,33274
52025,31396
51945,31203
51797,31055
51604,30975
51396,30974
51203,31054
51055,31202
50975,31395
50974,31603
51054,31797
51202,31944
51395,32024
51603,32025
51797,31945
51944,31797
52024,31604
52025,31396
52025,33274
51975,33395
51974,33603
52054,33797
52202,33944
52395,34024
52603,34025
52797,33945
52944,33797
53024,33604
53025,33396
53025,35396
52945,35203
52797,35055
52604,34975
52396,34974
52220,35047
51799,34626
51799,33221
51811,33208
51868,33073
51868,32927
51812,32791
51708,32688
51573,32631
51427,32631
51291,32687
51188,32791
51131,32926
51131,33072
51187,33208
51200,33221
51200,34750
51223,34864
51288,34961
52005,35679
52054,35797
52202,35944
52335,36000
52203,36054
52055,36202
51975,36395
51974,36603
52054,36797
52202,36944
52335,37000
52203,37054
52055,37202
51975,37395
51974,37603
52054,37797
52202,37944
52335,38000
52203,38054
52055,38202
51975,38395
51974,38603
52054,38797
52200,38943
52200,39056
52055,39202
51975,39395
51974,39603
52054,39797
52202,39944
52335,40000
52203,40054
52055,40202
51975,40395
51974,40603
52054,40797
52202,40944
52395,41024
52603,41025
52797,40945
52944,40797
53024,40604
53025,40396
53025,43774
52999,43835
52945,43703
52797,43555
52604,43475
52396,43474
52203,43554
52055,43702
51999,43835
51945,43703
51797,43555
51604,43475
51396,43474
51203,43554
51055,43702
50999,43835
50945,43703
50868,43625
50868,36427
50812,36291
50799,36278
50799,32971
50811,32958
50868,32823
50868,32677
50812,32541
50708,32438
50573,32381
50427,32381
50291,32437
50188,32541
50131,32676
50131,32822
50187,32958
50200,32971
50200,36278
50188,36291
50131,36426
50131,36572
50187,36708
50291,36811
50426,36868
50572,36868
50708,36812
50811,36708
50868,36573
50868,36427
50868,43625
50797,43555
50618,43480
50618,41127
50562,40991
50458,40888
50349,40842
50349,40050
50326,39935
50326,39935
50261,39838
50024,39601
50025,39396
49945,39203
49797,39055
49664,38999
49797,38945
49944,38797
50024,38604
50025,38396
49945,38203
49797,38055
49664,37999
49797,37945
49944,37797
50024,37604
50025,37396
49945,37203
49797,37055
49664,36999
49797,36945
49944,36797
50024,36604
50025,36396
49945,36203
49797,36055
49664,35999
49797,35945
49944,35797
50024,35604
50025,35396
49945,35203
49797,35055
49664,34999
49797,34945
49944,34797
50024,34604
50025,34396
49945,34203
49797,34055
49725,34025
49824,34025
49916,33987
49986,33916
50024,33824
50025,33725
50025,33175
49987,33083
49916,33013
49824,32975
49725,32974
49175,32974
49083,33012
49013,33083
48975,33175
48974,33274
48974,33274
48945,33203
48797,33055
48604,32975
48396,32974
48203,33054
48055,33202
47975,33395
47974,33603
48054,33797
48202,33944
48335,34000
48203,34054
48055,34202
47975,34395
47974,34603
48054,34797
48202,34944
48395,35024
48603,35025
48770,34956
48288,35438
48223,35535
48221,35547
48203,35554
48055,35702
47975,35895
47974,36103
48054,36297
48202,36444
48395,36524
48603,36525
48797,36445
48944,36297
49024,36104
49025,35896
48945,35703
48907,35665
48974,35598
48974,35603
49054,35797
49202,35944
49335,36000
49203,36054
49055,36202
48975,36395
48974,36603
49054,36797
49202,36944
49335,37000
49203,37054
49055,37202
48975,37395
48974,37603
49054,37797
49202,37944
49335,38000
49203,38054
49055,38202
48999,38335
48945,38203
48797,38055
48604,37975
48396,37974
48203,38054
48055,38202
47975,38395
47974,38603
48054,38797
48202,38944
48395,39024
48603,39025
48797,38945
48944,38797
49000,38664
49054,38797
49202,38944
49335,39000
49203,39054
49055,39202
48975,39395
48974,39603
49054,39797
49202,39944
49335,40000
49203,40054
49055,40202
48975,40395
48974,40603
49054,40797
49202,40944
49395,41024
49603,41025
49750,40964
49750,41000
49773,41114
49838,41211
49881,41254
49881,41272
49937,41408
50041,41511
50176,41568
50322,41568
50458,41512
50561,41408
50618,41273
50618,41127
50618,43480
50604,43475
50396,43474
50203,43554
50055,43702
49975,43895
49974,44103
50054,44297
50202,44444
50395,44524
50603,44525
50797,44445
50944,44297
51000,44164
51054,44297
51202,44444
51395,44524
51603,44525
51797,44445
51944,44297
52000,44164
52054,44297
52202,44444
52395,44524
52603,44525
52797,44445
52944,44297
53000,44164
53054,44297
53202,44444
53395,44524
53603,44525
53797,44445
53944,44297
54024,44104
54025,43948
55700,45623
55700,46028
55688,46033
55550,46172
55550,46150
55512,46058
55441,45988
55349,45950
55250,45949
54650,45949
54558,45987
54488,46058
54450,46150
54449,46249
54449,46849
54487,46941
54558,47011
54650,47049
54749,47050
55349,47050
55441,47012
55511,46941
55549,46849
55549,46827
55688,46965
55890,47049
56108,47050
56311,46966
56465,46811
56499,46730
56533,46811
56688,46965
56890,47049
57108,47050
57311,46966
57465,46811
57499,46730
57533,46811
57688,46965
57890,47049
58108,47050
58311,46966
58465,46811
58549,46609
58550,46391
58466,46188
58311,46034
58299,46028
58299,44222
58475,44398
58474,44603
58554,44797
58702,44944
58835,45000
58703,45054
58555,45202
58475,45395
58474,45603
58554,45797
58702,45944
58895,46024
59103,46025
59297,45945
59444,45797
59524,45604
59525,45398
59711,45211
59776,45114
59776,45114
59799,45000
59799,49470
59290,49470
59290,48822
59290,48677
59245,48451
59117,48260
58925,48132
58700,48087
58474,48132
58282,48260
58200,48384
58117,48260
57925,48132
57700,48087
57474,48132
57282,48260
57200,48384
57117,48260
56925,48132
56700,48087
56474,48132
56282,48260
56200,48384
56117,48260
55925,48132
55700,48087
55474,48132
55282,48260
55200,48384
55117,48260
54925,48132
54700,48087
54474,48132
54282,48260
54154,48451
54110,48677
54110,48822
54154,49048
54282,49239
54474,49367
54700,49412
54925,49367
55117,49239
55200,49115
55282,49239
55474,49367
55700,49412
55925,49367
56117,49239
56200,49115
56282,49239
56474,49367
56700,49412
56925,49367
57117,49239
57200,49115
57282,49239
57474,49367
57700,49412
57925,49367
58117,49239
58200,49115
58282,49239
58474,49367
58700,49412
58925,49367
59117,49239
59245,49048
59290,48822
59290,49470
53025,49470
53025,48396
52945,48203
52799,48056
52799,47443
52944,47297
53024,47104
53025,46896
52945,46703
52797,46555
52604,46475
52396,46474
52203,46554
52055,46702
51999,46835
51945,46703
51797,46555
51604,46475
51396,46474
51203,46554
51055,46702
51025,46774
51025,46675
50987,46583
50916,46513
50824,46475
50725,46474
50175,46474
50083,46512
50013,46583
49975,46675
49974,46774
49974,47324
50012,47416
50083,47486
50175,47524
50274,47525
50824,47525
50916,47487
50986,47416
51024,47324
51025,47225
51025,47225
51054,47297
51202,47444
51395,47524
51603,47525
51797,47445
51944,47297
52000,47164
52054,47297
52200,47443
52200,48056
52055,48202
51999,48335
51945,48203
51797,48055
51604,47975
51396,47974
51203,48054
51055,48202
50975,48395
50974,48603
51054,48797
51202,48944
51395,49024
51603,49025
51797,48945
51944,48797
52000,48664
52054,48797
52202,48944
52395,49024
52603,49025
52797,48945
52944,48797
53024,48604
53025,48396
53025,49470
49964,49470
50089,49345
50249,48959
50250,48542
50090,48156
49795,47860
49409,47700
48992,47699
48606,47859
48310,48154
48150,48540
48149,48957
48309,49344
48435,49470
47525,49470
47525,36896
47445,36703
47297,36555
47164,36499
47297,36445
47444,36297
47524,36104
47525,35896
47445,35703
47297,35555
47104,35475
46896,35474
46703,35554
46555,35702
46475,35895
46474,36103
46554,36297
46702,36444
46835,36500
46703,36554
46555,36702
46475,36895
46474,37103
46554,37297
46702,37444
46895,37524
47103,37525
47297,37445
47444,37297
47524,37104
47525,36896
47525,49470
47025,49470
47025,42896
46945,42703
46797,42555
46664,42499
46797,42445
46944,42297
47024,42104
47025,41896
47025,40396
46945,40203
46797,40055
46664,39999
46797,39945
46944,39797
47024,39604
47025,39396
46945,39203
46797,39055
46604,38975
46396,38974
46203,39054
46055,39202
45975,39395
45974,39603
46054,39797
46202,39944
46335,40000
46203,40054
46055,40202
45975,40395
45974,40603
46054,40797
46202,40944
46395,41024
46603,41025
46797,40945
46944,40797
47024,40604
47025,40396
47025,41896
46945,41703
46797,41555
46604,41475
46396,41474
46203,41554
46055,41702
45975,41895
45974,42103
46054,42297
46202,42444
46335,42500
46203,42554
46055,42702
45975,42895
45974,43103
46054,43297
46202,43444
46395,43524
46603,43525
46797,43445
46944,43297
47024,43104
47025,42896
47025,49470
43979,49470
43979,46500
44041,46561
44176,46618
44322,46618
44458,46562
44561,46458
44618,46323
44618,46177
44562,46041
44549,46028
44549,43326
44688,43465
44890,43549
45108,43550
45311,43466
45465,43311
45549,43109
45550,42891
45466,42688
45311,42534
45230,42500
45311,42466
45465,42311
45549,42109
45550,41891
45466,41688
45311,41534
45230,41500
45311,41466
45465,41311
45549,41109
45550,40891
45466,40688
45327,40550
45349,40550
45441,40512
45511,40441
45549,40349
45550,40250
45550,39650
45512,39558
45441,39488
45349,39450
45250,39449
44650,39449
44558,39487
44549,39497
44549,31221
44561,31208
44618,31073
44618,30927
44562,30791
44458,30688
44323,30631
44177,30631
44041,30687
43979,30749
43979,29029
48935,29029
48810,29154
48650,29540
48649,29957
48809,30344
49104,30639
49490,30799
49907,30800
50294,30640
50589,30345
50652,30194
50682,30239
50874,30367
51100,30412
51325,30367
51517,30239
51600,30115
51682,30239
51874,30367
52100,30412
52325,30367
52517,30239
52600,30115
52682,30239
52874,30367
53100,30412
53325,30367
53517,30239
53645,30048
53690,29822
53690,29677
53645,29451
53517,29260
53325,29132
53100,29087
52874,29132
52682,29260
52600,29384
52517,29260
52325,29132
52100,29087
51874,29132
51682,29260
51600,29384
51517,29260
51325,29132
51100,29087
50874,29132
50682,29260
50652,29305
50590,29156
50464,29029
68984,29029
69420,29465
69420,33850
69441,33956
69502,34047
70420,34965
70420,34985
70295,34860
69909,34700
69492,34699
69290,34783
69290,29822
69290,29677
69245,29451
69117,29260
68925,29132
68700,29087
68474,29132
68282,29260
68200,29384
68117,29260
67925,29132
67700,29087
67474,29132
67282,29260
67200,29384
67117,29260
66925,29132
66700,29087
66474,29132
66282,29260
66200,29384
66117,29260
65925,29132
65700,29087
65474,29132
65282,29260
65200,29384
65117,29260
64925,29132
64700,29087
64474,29132
64282,29260
64200,29384
64117,29260
63925,29132
63700,29087
63474,29132
63282,29260
63200,29384
63117,29260
62925,29132
62700,29087
62474,29132
62282,29260
62200,29384
62117,29260
61925,29132
61700,29087
61474,29132
61282,29260
61154,29451
61110,29677
61110,29822
61154,30048
61282,30239
61474,30367
61700,30412
61925,30367
62117,30239
62200,30115
62282,30239
62474,30367
62700,30412
62925,30367
63117,30239
63200,30115
63282,30239
63474,30367
63700,30412
63925,30367
64117,30239
64200,30115
64282,30239
64474,30367
64700,30412
64925,30367
65117,30239
65200,30115
65282,30239
65474,30367
65700,30412
65925,30367
66117,30239
66200,30115
66282,30239
66400,30318
66400,30700
66423,30814
66488,30911
66700,31123
66700,32000
66700,47278
66688,47291
66631,47426
66631,47572
66687,47708
66791,47811
66926,47868
67072,47868
67208,47812
67311,47708
67368,47573
67368,47427
67312,47291
67299,47278
67299,32000
67299,31000
67299,30999
67276,30885
67276,30885
67254,30853
67211,30788
67211,30788
66999,30576
66999,30318
67117,30239
67200,30115
67282,30239
67474,30367
67700,30412
67925,30367
68117,30239
68200,30115
68282,30239
68474,30367
68700,30412
68925,30367
69117,30239
69245,30048
69290,29822
69290,34783
69106,34859
68810,35154
68650,35540
68649,35957
68809,36344
69104,36639
69490,36799
69907,36800
70294,36640
70420,36514
70420,45985
70295,45860
69909,45700
69492,45699
69340,45762
69340,43333
69340,43333
69340,42040
69340,40859
69302,40768
69232,40697
69140,40659
69040,40659
67859,40659
67768,40697
67697,40767
67659,40859
67659,40959
67659,42140
67697,42231
67767,42302
67859,42340
67959,42340
69140,42340
69231,42302
69302,42232
69340,42140
69340,42040
69340,43333
69212,43024
68976,42787
68667,42659
68333,42659
68024,42787
67787,43023
67659,43332
67659,43666
67787,43975
68023,44212
68332,44340
68666,44340
68975,44212
69212,43976
69340,43667
69340,43333
69340,45762
69106,45859
68810,46154
68650,46540
68649,46957
68809,47344
69104,47639
69490,47799
69907,47800
70294,47640
70420,47514
70420,47634
" /> 
</g>
<g style="fill:#00A000; fill-opacity:0.0; 
stroke:#00A000; stroke-width:100; stroke-opacity:1; 
stroke-linecap:round; stroke-linejoin:round;">
<polyline fill="none;"
points="70420,47634
69502,48552
69441,48643
69420,48750
69420,49470
69290,49470
69290,48822
69290,48677
69245,48451
69117,48260
68925,48132
68700,48087
68474,48132
68282,48260
68200,48384
68117,48260
67925,48132
67700,48087
67474,48132
67282,48260
67200,48384
67117,48260
66925,48132
66700,48087
66474,48132
66325,48231
66325,44211
66325,44211
66325,40300
66285,40098
66285,40098
66239,40030
66171,39928
66171,39928
65359,39116
65189,39002
65046,38974
64990,38918
65072,38918
65208,38862
65311,38758
65368,38623
65368,38477
65312,38341
65299,38328
65299,35512
65390,35549
65608,35550
65811,35466
65965,35311
66049,35109
66050,34891
65966,34688
65811,34534
65730,34500
65811,34466
65965,34311
66049,34109
66050,33891
65966,33688
65811,33534
65609,33450
65391,33449
65188,33533
65034,33688
64950,33890
64949,34108
64955,34121
64788,34288
64723,34385
64700,34500
64700,38328
64688,38341
64631,38476
64631,38622
64685,38753
64649,38738
64351,38738
64075,38851
64050,38877
64050,34891
63966,34688
63811,34534
63730,34500
63811,34466
63965,34311
64049,34109
64050,33891
63966,33688
63811,33534
63609,33450
63391,33449
63188,33533
63034,33688
62950,33890
62949,34108
63033,34311
63188,34465
63269,34499
63188,34533
63034,34688
62950,34890
62949,35108
63033,35311
63188,35465
63390,35549
63608,35550
63811,35466
63965,35311
64049,35109
64050,34891
64050,38877
63864,39062
63750,39338
63749,39636
63863,39912
64074,40123
64350,40238
64648,40238
64893,40137
65274,40517
65274,43994
65250,44018
65250,43355
65250,41347
65136,41071
64925,40860
64649,40746
64351,40745
64075,40859
63864,41070
63750,41346
63749,41644
63863,41920
64074,42131
64350,42245
64648,42246
64924,42132
65135,41921
65249,41645
65250,41347
65250,43355
65136,43079
64925,42868
64649,42754
64351,42753
64075,42867
63864,43078
63750,43354
63749,43652
63863,43928
64074,44139
64350,44253
64648,44254
64924,44140
65135,43929
65249,43653
65250,43355
65250,44018
64506,44761
63950,44761
63858,44799
63788,44870
63750,44961
63749,45061
63749,46061
63787,46153
63858,46223
63950,46261
64049,46261
65049,46261
65141,46223
65211,46153
65249,46061
65250,45962
65250,45505
66171,44583
66171,44583
66171,44583
66239,44481
66285,44412
66285,44412
66325,44211
66325,44211
66325,48231
66282,48260
66200,48384
66117,48260
65925,48132
65700,48087
65474,48132
65282,48260
65200,48384
65117,48260
64925,48132
64700,48087
64474,48132
64282,48260
64200,48384
64117,48260
63925,48132
63700,48087
63679,48091
63761,48008
63818,47873
63818,47727
63762,47591
63749,47578
63749,41150
63739,41103
63732,41050
63727,41043
63726,41035
63700,40997
63673,40950
63665,40944
63661,40938
63623,40913
63579,40880
62512,40366
62445,40203
62297,40055
62104,39975
62050,39975
62050,34891
61966,34688
61811,34534
61730,34500
61811,34466
61965,34311
62049,34109
62050,33891
61966,33688
61811,33534
61609,33450
61391,33449
61188,33533
61034,33688
60999,33771
60999,32971
61061,32908
61118,32773
61118,32627
61062,32491
60958,32388
60823,32331
60690,32331
60690,29822
60690,29677
60645,29451
60517,29260
60325,29132
60100,29087
59874,29132
59682,29260
59600,29384
59517,29260
59325,29132
59100,29087
58874,29132
58682,29260
58600,29384
58517,29260
58325,29132
58100,29087
57874,29132
57682,29260
57600,29384
57517,29260
57325,29132
57100,29087
56874,29132
56682,29260
56600,29384
56517,29260
56325,29132
56100,29087
55874,29132
55682,29260
55600,29384
55517,29260
55325,29132
55100,29087
54874,29132
54682,29260
54554,29451
54510,29677
54510,29822
54554,30048
54682,30239
54874,30367
55100,30412
55325,30367
55517,30239
55600,30115
55682,30239
55874,30367
56100,30412
56325,30367
56517,30239
56600,30115
56682,30239
56874,30367
57100,30412
57325,30367
57517,30239
57600,30115
57682,30239
57874,30367
58100,30412
58325,30367
58517,30239
58600,30115
58682,30239
58874,30367
59100,30412
59325,30367
59517,30239
59600,30115
59682,30239
59874,30367
60100,30412
60325,30367
60517,30239
60645,30048
60690,29822
60690,32331
60677,32331
60541,32387
60438,32491
60381,32626
60381,32772
60400,32818
60400,34228
60388,34241
60331,34376
60331,34522
60387,34658
60491,34761
60626,34818
60772,34818
60908,34762
61011,34658
61068,34523
61068,34377
61046,34323
61188,34465
61269,34499
61188,34533
61034,34688
60950,34890
60949,35108
61033,35311
61188,35465
61390,35549
61608,35550
61811,35466
61965,35311
62049,35109
62050,34891
62050,39975
61896,39974
61849,39994
61849,38721
61861,38708
61918,38573
61918,38427
61862,38291
61758,38188
61623,38131
61477,38131
61341,38187
61238,38291
61181,38426
61181,38572
61237,38708
61250,38721
61250,41050
61273,41164
61338,41261
61475,41398
61474,41601
61338,41738
61273,41835
61250,41950
61250,42950
61273,43064
61338,43161
61503,43326
61475,43395
61474,43603
61554,43797
61700,43943
61700,44056
61555,44202
61475,44395
61474,44601
61288,44788
61223,44885
61200,45000
61200,45778
61188,45791
61131,45926
61131,46072
61187,46208
61291,46311
61426,46368
61572,46368
61708,46312
61811,46208
61868,46073
61868,45927
61812,45791
61799,45778
61799,45123
61898,45024
62103,45025
62297,44945
62444,44797
62524,44604
62525,44396
62445,44203
62299,44056
62299,43943
62444,43797
62524,43604
62525,43396
62445,43203
62297,43055
62104,42975
61998,42974
61849,42826
61849,42073
61898,42024
62103,42025
62297,41945
62444,41797
62524,41604
62525,41396
62445,41203
62297,41055
62164,40999
62297,40945
62309,40932
63150,41337
63150,47578
63138,47591
63081,47726
63081,47872
63137,48008
63241,48111
63376,48168
63420,48168
63282,48260
63154,48451
63110,48677
63110,48822
63154,49048
63282,49239
63474,49367
63700,49412
63925,49367
64117,49239
64200,49115
64282,49239
64474,49367
64700,49412
64925,49367
65117,49239
65200,49115
65282,49239
65474,49367
65700,49412
65925,49367
66117,49239
66200,49115
66282,49239
66474,49367
66700,49412
66925,49367
67117,49239
67200,49115
67282,49239
67474,49367
67700,49412
67925,49367
68117,49239
68200,49115
68282,49239
68474,49367
68700,49412
68925,49367
69117,49239
69245,49048
69290,48822
69290,49470
62290,49470
62290,48822
62290,48677
62245,48451
62117,48260
61925,48132
61700,48087
61474,48132
61282,48260
61154,48451
61110,48677
61110,48822
61154,49048
61282,49239
61474,49367
61700,49412
61925,49367
62117,49239
62245,49048
62290,48822
62290,49470
61018,49470
61018,40927
60962,40791
60949,40778
60949,35671
60961,35658
61018,35523
61018,35377
60962,35241
60858,35138
60723,35081
60577,35081
60441,35137
60338,35241
60308,35312
60300,34219
60311,34208
60368,34073
60368,33927
60312,33791
60208,33688
60073,33631
60013,33631
60024,33604
60025,33396
59945,33203
59799,33056
59799,32000
59776,31885
59776,31885
59711,31788
59211,31288
59114,31223
59000,31200
58943,31200
58797,31055
58604,30975
58396,30974
58203,31054
58055,31202
57975,31395
57974,31603
58054,31797
58202,31944
58395,32024
58603,32025
58797,31945
58909,31832
59200,32123
59200,33056
59055,33202
58975,33395
58974,33603
59054,33797
59202,33944
59395,34024
59603,34025
59631,34013
59631,34072
59687,34208
59702,34222
59707,35017
59604,34975
59396,34974
59203,35054
59055,35202
58975,35395
58974,35603
59054,35797
59202,35944
59335,36000
59203,36054
59055,36202
58975,36395
58974,36603
59054,36797
59202,36944
59335,37000
59203,37054
59055,37202
58975,37395
58974,37603
59054,37797
59202,37944
59335,38000
59203,38054
59055,38202
58975,38395
58974,38603
59054,38797
59200,38943
59200,39056
59055,39202
58975,39395
58974,39603
59054,39797
59202,39944
59335,40000
59203,40054
59055,40202
58975,40395
58974,40603
59054,40797
59202,40944
59395,41024
59603,41025
59749,40964
59752,41377
59731,41426
59731,41572
59787,41708
59891,41811
60026,41868
60172,41868
60308,41812
60411,41708
60468,41573
60468,41427
60412,41291
60349,41229
60349,41220
60441,41311
60576,41368
60722,41368
60858,41312
60961,41208
61018,41073
61018,40927
61018,49470
59799,49470
59799,45000
59799,44000
59776,43885
59776,43885
59711,43788
59524,43601
59525,43396
59445,43203
59297,43055
59225,43025
59324,43025
59416,42987
59486,42916
59524,42824
59525,42725
59525,42175
59487,42083
59416,42013
59324,41975
59225,41974
58675,41974
58583,42012
58513,42083
58475,42175
58474,42274
58474,42274
58445,42203
58297,42055
58104,41975
57896,41974
57799,42014
57799,40721
57811,40708
57868,40573
57868,40427
57812,40291
57708,40188
57573,40131
57427,40131
57299,40184
57299,35221
57311,35208
57368,35073
57368,34927
57312,34791
57208,34688
57073,34631
57013,34631
57024,34604
57025,34396
56945,34203
56797,34055
56725,34025
56824,34025
56916,33987
56986,33916
57024,33824
57025,33725
57025,33175
56987,33083
56916,33013
56824,32975
56725,32974
56175,32974
56083,33012
56013,33083
55975,33175
55974,33274
55974,33274
55945,33203
55797,33055
55604,32975
55396,32974
55203,33054
55055,33202
54975,33395
54974,33603
55054,33797
55202,33944
55335,34000
55203,34054
55055,34202
54975,34395
54974,34603
55054,34797
55202,34944
55395,35024
55603,35025
55770,34956
55288,35438
55223,35535
55221,35547
55203,35554
55055,35702
54975,35895
54974,36103
55054,36297
55202,36444
55395,36524
55603,36525
55797,36445
55944,36297
56024,36104
56025,35896
55945,35703
55907,35665
55974,35598
55974,35603
56054,35797
56202,35944
56335,36000
56203,36054
56055,36202
55975,36395
55974,36603
56054,36797
56202,36944
56335,37000
56203,37054
56055,37202
55975,37395
55974,37603
56054,37797
56202,37944
56335,38000
56203,38054
56055,38202
55999,38335
55945,38203
55797,38055
55604,37975
55396,37974
55203,38054
55055,38202
54975,38395
54974,38603
55054,38797
55202,38944
55395,39024
55603,39025
55797,38945
55944,38797
56000,38664
56054,38797
56202,38944
56335,39000
56203,39054
56055,39202
55975,39395
55974,39603
56054,39797
56202,39944
56335,40000
56203,40054
56055,40202
55975,40395
55974,40603
56054,40797
56202,40944
56395,41024
56603,41025
56700,40985
56700,41028
56688,41041
56631,41176
56631,41322
56687,41458
56791,41561
56926,41618
57072,41618
57200,41565
57200,42014
57104,41975
56896,41974
56703,42054
56555,42202
56475,42395
56474,42603
56554,42797
56702,42944
56895,43024
57103,43025
57200,42985
57200,43000
57223,43114
57288,43211
57700,43623
57700,46028
57688,46033
57534,46188
57500,46269
57466,46188
57311,46034
57299,46028
57299,45000
57280,44904
57276,44885
57276,44885
57211,44788
56211,43788
56114,43723
56000,43700
55423,43700
54949,43226
54949,37771
54961,37758
55018,37623
55018,37477
54962,37341
54858,37238
54723,37181
54577,37181
54475,37223
54524,37104
54525,36896
54445,36703
54297,36555
54164,36499
54297,36445
54444,36297
54524,36104
54525,35896
54445,35703
54297,35555
54104,35475
53896,35474
53703,35554
53555,35702
53475,35895
53474,36103
53554,36297
53702,36444
53835,36500
53703,36554
53555,36702
53475,36895
53474,37103
53554,37297
53702,37444
53895,37524
54103,37525
54294,37446
54281,37476
54281,37622
54337,37758
54350,37771
54350,40385
54312,40291
54208,40188
54073,40131
53927,40131
53799,40184
53799,39171
53811,39158
53868,39023
53868,38877
53812,38741
53708,38638
53573,38581
53427,38581
53291,38637
53188,38741
53131,38876
53131,39022
53187,39158
53200,39171
53200,43556
53055,43702
53025,43774
53025,40396
52945,40203
52797,40055
52664,39999
52797,39945
52944,39797
53024,39604
53025,39396
52945,39203
52799,39056
52799,38943
52944,38797
53024,38604
53025,38396
52945,38203
52797,38055
52664,37999
52797,37945
52944,37797
53024,37604
53025,37396
52945,37203
52797,37055
52664,36999
52797,36945
52944,36797
53024,36604
53025,36396
52945,36203
52797,36055
52664,35999
52797,35945
52944,35797
53024,35604
53025,35396
53025,33396
52945,33203
52797,33055
52604,32975
52396,32974
52203,33054
52055,33202
52025,33274
52025,31396
51945,31203
51797,31055
51604,30975
51396,30974
51203,31054
51055,31202
50975,31395
50974,31603
51054,31797
51202,31944
51395,32024
51603,32025
51797,31945
51944,31797
52024,31604
52025,31396
52025,33274
51975,33395
51974,33603
52054,33797
52202,33944
52395,34024
52603,34025
52797,33945
52944,33797
53024,33604
53025,33396
53025,35396
52945,35203
52797,35055
52604,34975
52396,34974
52220,35047
51799,34626
51799,33221
51811,33208
51868,33073
51868,32927
51812,32791
51708,32688
51573,32631
51427,32631
51291,32687
51188,32791
51131,32926
51131,33072
51187,33208
51200,33221
51200,34750
51223,34864
51288,34961
52005,35679
52054,35797
52202,35944
52335,36000
52203,36054
52055,36202
51975,36395
51974,36603
52054,36797
52202,36944
52335,37000
52203,37054
52055,37202
51975,37395
51974,37603
52054,37797
52202,37944
52335,38000
52203,38054
52055,38202
51975,38395
51974,38603
52054,38797
52200,38943
52200,39056
52055,39202
51975,39395
51974,39603
52054,39797
52202,39944
52335,40000
52203,40054
52055,40202
51975,40395
51974,40603
52054,40797
52202,40944
52395,41024
52603,41025
52797,40945
52944,40797
53024,40604
53025,40396
53025,43774
52999,43835
52945,43703
52797,43555
52604,43475
52396,43474
52203,43554
52055,43702
51999,43835
51945,43703
51797,43555
51604,43475
51396,43474
51203,43554
51055,43702
50999,43835
50945,43703
50868,43625
50868,36427
50812,36291
50799,36278
50799,32971
50811,32958
50868,32823
50868,32677
50812,32541
50708,32438
50573,32381
50427,32381
50291,32437
50188,32541
50131,32676
50131,32822
50187,32958
50200,32971
50200,36278
50188,36291
50131,36426
50131,36572
50187,36708
50291,36811
50426,36868
50572,36868
50708,36812
50811,36708
50868,36573
50868,36427
50868,43625
50797,43555
50618,43480
50618,41127
50562,40991
50458,40888
50349,40842
50349,40050
50326,39935
50326,39935
50261,39838
50024,39601
50025,39396
49945,39203
49797,39055
49664,38999
49797,38945
49944,38797
50024,38604
50025,38396
49945,38203
49797,38055
49664,37999
49797,37945
49944,37797
50024,37604
50025,37396
49945,37203
49797,37055
49664,36999
49797,36945
49944,36797
50024,36604
50025,36396
49945,36203
49797,36055
49664,35999
49797,35945
49944,35797
50024,35604
50025,35396
49945,35203
49797,35055
49664,34999
49797,34945
49944,34797
50024,34604
50025,34396
49945,34203
49797,34055
49725,34025
49824,34025
49916,33987
49986,33916
50024,33824
50025,33725
50025,33175
49987,33083
49916,33013
49824,32975
49725,32974
49175,32974
49083,33012
49013,33083
48975,33175
48974,33274
48974,33274
48945,33203
48797,33055
48604,32975
48396,32974
48203,33054
48055,33202
47975,33395
47974,33603
48054,33797
48202,33944
48335,34000
48203,34054
48055,34202
47975,34395
47974,34603
48054,34797
48202,34944
48395,35024
48603,35025
48770,34956
48288,35438
48223,35535
48221,35547
48203,35554
48055,35702
47975,35895
47974,36103
48054,36297
48202,36444
48395,36524
48603,36525
48797,36445
48944,36297
49024,36104
49025,35896
48945,35703
48907,35665
48974,35598
48974,35603
49054,35797
49202,35944
49335,36000
49203,36054
49055,36202
48975,36395
48974,36603
49054,36797
49202,36944
49335,37000
49203,37054
49055,37202
48975,37395
48974,37603
49054,37797
49202,37944
49335,38000
49203,38054
49055,38202
48999,38335
48945,38203
48797,38055
48604,37975
48396,37974
48203,38054
48055,38202
47975,38395
47974,38603
48054,38797
48202,38944
48395,39024
48603,39025
48797,38945
48944,38797
49000,38664
49054,38797
49202,38944
49335,39000
49203,39054
49055,39202
48975,39395
48974,39603
49054,39797
49202,39944
49335,40000
49203,40054
49055,40202
48975,40395
48974,40603
49054,40797
49202,40944
49395,41024
49603,41025
49750,40964
49750,41000
49773,41114
49838,41211
49881,41254
49881,41272
49937,41408
50041,41511
50176,41568
50322,41568
50458,41512
50561,41408
50618,41273
50618,41127
50618,43480
50604,43475
50396,43474
50203,43554
50055,43702
49975,43895
49974,44103
50054,44297
50202,44444
50395,44524
50603,44525
50797,44445
50944,44297
51000,44164
51054,44297
51202,44444
51395,44524
51603,44525
51797,44445
51944,44297
52000,44164
52054,44297
52202,44444
52395,44524
52603,44525
52797,44445
52944,44297
53000,44164
53054,44297
53202,44444
53395,44524
53603,44525
53797,44445
53944,44297
54024,44104
54025,43948
55700,45623
55700,46028
55688,46033
55550,46172
55550,46150
55512,46058
55441,45988
55349,45950
55250,45949
54650,45949
54558,45987
54488,46058
54450,46150
54449,46249
54449,46849
54487,46941
54558,47011
54650,47049
54749,47050
55349,47050
55441,47012
55511,46941
55549,46849
55549,46827
55688,46965
55890,47049
56108,47050
56311,46966
56465,46811
56499,46730
56533,46811
56688,46965
56890,47049
57108,47050
57311,46966
57465,46811
57499,46730
57533,46811
57688,46965
57890,47049
58108,47050
58311,46966
58465,46811
58549,46609
58550,46391
58466,46188
58311,46034
58299,46028
58299,44222
58475,44398
58474,44603
58554,44797
58702,44944
58835,45000
58703,45054
58555,45202
58475,45395
58474,45603
58554,45797
58702,45944
58895,46024
59103,46025
59297,45945
59444,45797
59524,45604
59525,45398
59711,45211
59776,45114
59776,45114
59799,45000
59799,49470
59290,49470
59290,48822
59290,48677
59245,48451
59117,48260
58925,48132
58700,48087
58474,48132
58282,48260
58200,48384
58117,48260
57925,48132
57700,48087
57474,48132
57282,48260
57200,48384
57117,48260
56925,48132
56700,48087
56474,48132
56282,48260
56200,48384
56117,48260
55925,48132
55700,48087
55474,48132
55282,48260
55200,48384
55117,48260
54925,48132
54700,48087
54474,48132
54282,48260
54154,48451
54110,48677
54110,48822
54154,49048
54282,49239
54474,49367
54700,49412
54925,49367
55117,49239
55200,49115
55282,49239
55474,49367
55700,49412
55925,49367
56117,49239
56200,49115
56282,49239
56474,49367
56700,49412
56925,49367
57117,49239
57200,49115
57282,49239
57474,49367
57700,49412
57925,49367
58117,49239
58200,49115
58282,49239
58474,49367
58700,49412
58925,49367
59117,49239
59245,49048
59290,48822
59290,49470
53025,49470
53025,48396
52945,48203
52799,48056
52799,47443
52944,47297
53024,47104
53025,46896
52945,46703
52797,46555
52604,46475
52396,46474
52203,46554
52055,46702
51999,46835
51945,46703
51797,46555
51604,46475
51396,46474
51203,46554
51055,46702
51025,46774
51025,46675
50987,46583
50916,46513
50824,46475
50725,46474
50175,46474
50083,46512
50013,46583
49975,46675
49974,46774
49974,47324
50012,47416
50083,47486
50175,47524
50274,47525
50824,47525
50916,47487
50986,47416
51024,47324
51025,47225
51025,47225
51054,47297
51202,47444
51395,47524
51603,47525
51797,47445
51944,47297
52000,47164
52054,47297
52200,47443
52200,48056
52055,48202
51999,48335
51945,48203
51797,48055
51604,47975
51396,47974
51203,48054
51055,48202
50975,48395
50974,48603
51054,48797
51202,48944
51395,49024
51603,49025
51797,48945
51944,48797
52000,48664
52054,48797
52202,48944
52395,49024
52603,49025
52797,48945
52944,48797
53024,48604
53025,48396
53025,49470
49964,49470
50089,49345
50249,48959
50250,48542
50090,48156
49795,47860
49409,47700
48992,47699
48606,47859
48310,48154
48150,48540
48149,48957
48309,49344
48435,49470
47525,49470
47525,36896
47445,36703
47297,36555
47164,36499
47297,36445
47444,36297
47524,36104
47525,35896
47445,35703
47297,35555
47104,35475
46896,35474
46703,35554
46555,35702
46475,35895
46474,36103
46554,36297
46702,36444
46835,36500
46703,36554
46555,36702
46475,36895
46474,37103
46554,37297
46702,37444
46895,37524
47103,37525
47297,37445
47444,37297
47524,37104
47525,36896
47525,49470
47025,49470
47025,42896
46945,42703
46797,42555
46664,42499
46797,42445
46944,42297
47024,42104
47025,41896
47025,40396
46945,40203
46797,40055
46664,39999
46797,39945
46944,39797
47024,39604
47025,39396
46945,39203
46797,39055
46604,38975
46396,38974
46203,39054
46055,39202
45975,39395
45974,39603
46054,39797
46202,39944
46335,40000
46203,40054
46055,40202
45975,40395
45974,40603
46054,40797
46202,40944
46395,41024
46603,41025
46797,40945
46944,40797
47024,40604
47025,40396
47025,41896
46945,41703
46797,41555
46604,41475
46396,41474
46203,41554
46055,41702
45975,41895
45974,42103
46054,42297
46202,42444
46335,42500
46203,42554
46055,42702
45975,42895
45974,43103
46054,43297
46202,43444
46395,43524
46603,43525
46797,43445
46944,43297
47024,43104
47025,42896
47025,49470
43979,49470
43979,46500
44041,46561
44176,46618
44322,46618
44458,46562
44561,46458
44618,46323
44618,46177
44562,46041
44549,46028
44549,43326
44688,43465
44890,43549
45108,43550
45311,43466
45465,43311
45549,43109
45550,42891
45466,42688
45311,42534
45230,42500
45311,42466
45465,42311
45549,42109
45550,41891
45466,41688
45311,41534
45230,41500
45311,41466
45465,41311
45549,41109
45550,40891
45466,40688
45327,40550
45349,40550
45441,40512
45511,40441
45549,40349
45550,40250
45550,39650
45512,39558
45441,39488
45349,39450
45250,39449
44650,39449
44558,39487
44549,39497
44549,31221
44561,31208
44618,31073
44618,30927
44562,30791
44458,30688
44323,30631
44177,30631
44041,30687
43979,30749
43979,29029
48935,29029
48810,29154
48650,29540
48649,29957
48809,30344
49104,30639
49490,30799
49907,30800
50294,30640
50589,30345
50652,30194
50682,30239
50874,30367
51100,30412
51325,30367
51517,30239
51600,30115
51682,30239
51874,30367
52100,30412
52325,30367
52517,30239
52600,30115
52682,30239
52874,30367
53100,30412
53325,30367
53517,30239
53645,30048
53690,29822
53690,29677
53645,29451
53517,29260
53325,29132
53100,29087
52874,29132
52682,29260
52600,29384
52517,29260
52325,29132
52100,29087
51874,29132
51682,29260
51600,29384
51517,29260
51325,29132
51100,29087
50874,29132
50682,29260
50652,29305
50590,29156
50464,29029
68984,29029
69420,29465
69420,33850
69441,33956
69502,34047
70420,34965
70420,34985
70295,34860
69909,34700
69492,34699
69290,34783
69290,29822
69290,29677
69245,29451
69117,29260
68925,29132
68700,29087
68474,29132
68282,29260
68200,29384
68117,29260
67925,29132
67700,29087
67474,29132
67282,29260
67200,29384
67117,29260
66925,29132
66700,29087
66474,29132
66282,29260
66200,29384
66117,29260
65925,29132
65700,29087
65474,29132
65282,29260
65200,29384
65117,29260
64925,29132
64700,29087
64474,29132
64282,29260
64200,29384
64117,29260
63925,29132
63700,29087
63474,29132
63282,29260
63200,29384
63117,29260
62925,29132
62700,29087
62474,29132
62282,29260
62200,29384
62117,29260
61925,29132
61700,29087
61474,29132
61282,29260
61154,29451
61110,29677
61110,29822
61154,30048
61282,30239
61474,30367
61700,30412
61925,30367
62117,30239
62200,30115
62282,30239
62474,30367
62700,30412
62925,30367
63117,30239
63200,30115
63282,30239
63474,30367
63700,30412
63925,30367
64117,30239
64200,30115
64282,30239
64474,30367
64700,30412
64925,30367
65117,30239
65200,30115
65282,30239
65474,30367
65700,30412
65925,30367
66117,30239
66200,30115
66282,30239
66400,30318
66400,30700
66423,30814
66488,30911
66700,31123
66700,32000
66700,47278
66688,47291
66631,47426
66631,47572
66687,47708
66791,47811
66926,47868
67072,47868
67208,47812
67311,47708
67368,47573
67368,47427
67312,47291
67299,47278
67299,32000
67299,31000
67299,30999
67276,30885
67276,30885
67254,30853
67211,30788
67211,30788
66999,30576
66999,30318
67117,30239
67200,30115
67282,30239
67474,30367
67700,30412
67925,30367
68117,30239
68200,30115
68282,30239
68474,30367
68700,30412
68925,30367
69117,30239
69245,30048
69290,29822
69290,34783
69106,34859
68810,35154
68650,35540
68649,35957
68809,36344
69104,36639
69490,36799
69907,36800
70294,36640
70420,36514
70420,45985
70295,45860
69909,45700
69492,45699
69340,45762
69340,43333
69340,43333
69340,42040
69340,40859
69302,40768
69232,40697
69140,40659
69040,40659
67859,40659
67768,40697
67697,40767
67659,40859
67659,40959
67659,42140
67697,42231
67767,42302
67859,42340
67959,42340
69140,42340
69231,42302
69302,42232
69340,42140
69340,42040
69340,43333
69212,43024
68976,42787
68667,42659
68333,42659
68024,42787
67787,43023
67659,43332
67659,43666
67787,43975
68023,44212
68332,44340
68666,44340
68975,44212
69212,43976
69340,43667
69340,43333
69340,45762
69106,45859
68810,46154
68650,46540
68649,46957
68809,47344
69104,47639
69490,47799
69907,47800
70294,47640
70420,47514
70420,47634
" /> 
</g>
<g style="fill:#FFFFFF; fill-opacity:0.0; 
stroke:#FFFFFF; stroke-width:39.3701; stroke-opacity:1; 
stroke-linecap:round; stroke-linejoin:round;">
</g>
<g style="fill:#FFFFFF; fill-opacity:1.0; 
stroke:#FFFFFF; stroke-width:39.3701; stroke-opacity:1; 
stroke-linecap:round; stroke-linejoin:round;">
<circle cx="63450" cy="47800" r="59.0551" /> 
<circle cx="67000" cy="47500" r="59.0551" /> 
<circle cx="44250" cy="46250" r="59.0551" /> 
<circle cx="44250" cy="31000" r="59.0551" /> 
<circle cx="61500" cy="46000" r="59.0551" /> 
<circle cx="61550" cy="38500" r="59.0551" /> 
<circle cx="54000" cy="40500" r="59.0551" /> 
<circle cx="54650" cy="37550" r="59.0551" /> 
<circle cx="57500" cy="40500" r="59.0551" /> 
<circle cx="53500" cy="38950" r="59.0551" /> 
<circle cx="60650" cy="35450" r="59.0551" /> 
<circle cx="60650" cy="41000" r="59.0551" /> 
<circle cx="50500" cy="36500" r="59.0551" /> 
<circle cx="50500" cy="32750" r="59.0551" /> 
<circle cx="60700" cy="34450" r="59.0551" /> 
<circle cx="60750" cy="32700" r="59.0551" /> 
<circle cx="60000" cy="34000" r="59.0551" /> 
<circle cx="60100" cy="41500" r="59.0551" /> 
<circle cx="65000" cy="38550" r="59.0551" /> 
<circle cx="51500" cy="33000" r="59.0551" /> 
<circle cx="50250" cy="41200" r="59.0551" /> 
<circle cx="57000" cy="41250" r="59.0551" /> 
<circle cx="57000" cy="35000" r="59.0551" /> 
<circle cx="54700" cy="48750" r="180.315" /> 
<circle cx="55700" cy="48750" r="180.315" /> 
<circle cx="56700" cy="48750" r="180.315" /> 
<circle cx="57700" cy="48750" r="180.315" /> 
<circle cx="58700" cy="48750" r="180.315" /> 
<circle cx="59700" cy="48750" r="180.315" /> 
<circle cx="60700" cy="48750" r="180.315" /> 
<circle cx="61700" cy="48750" r="180.315" /> 
<circle cx="63700" cy="48750" r="180.315" /> 
<circle cx="64700" cy="48750" r="180.315" /> 
<circle cx="65700" cy="48750" r="180.315" /> 
<circle cx="66700" cy="48750" r="180.315" /> 
<circle cx="67700" cy="48750" r="180.315" /> 
<circle cx="68700" cy="48750" r="180.315" /> 
<circle cx="51100" cy="29750" r="180.315" /> 
<circle cx="52100" cy="29750" r="180.315" /> 
<circle cx="53100" cy="29750" r="180.315" /> 
<circle cx="54100" cy="29750" r="180.315" /> 
<circle cx="55100" cy="29750" r="180.315" /> 
<circle cx="56100" cy="29750" r="180.315" /> 
<circle cx="57100" cy="29750" r="180.315" /> 
<circle cx="58100" cy="29750" r="180.315" /> 
<circle cx="59100" cy="29750" r="180.315" /> 
<circle cx="60100" cy="29750" r="180.315" /> 
<circle cx="61700" cy="29750" r="180.315" /> 
<circle cx="62700" cy="29750" r="180.315" /> 
<circle cx="63700" cy="29750" r="180.315" /> 
<circle cx="64700" cy="29750" r="180.315" /> 
<circle cx="65700" cy="29750" r="180.315" /> 
<circle cx="66700" cy="29750" r="180.315" /> 
<circle cx="67700" cy="29750" r="180.315" /> 
<circle cx="68700" cy="29750" r="180.315" /> 
<circle cx="49200" cy="48750" r="580.315" /> 
<circle cx="69700" cy="46750" r="580.315" /> 
<circle cx="49700" cy="29750" r="580.315" /> 
<circle cx="69700" cy="35750" r="580.315" /> 
<circle cx="46500" cy="43000" r="140.315" /> 
<circle cx="46500" cy="42000" r="140.315" /> 
<circle cx="46500" cy="40500" r="140.315" /> 
<circle cx="46500" cy="39500" r="140.315" /> 
<circle cx="62000" cy="41500" r="140.315" /> 
<circle cx="62000" cy="40500" r="140.315" /> 
<circle cx="57000" cy="42500" r="140.315" /> 
<circle cx="58000" cy="42500" r="140.315" /> 
<circle cx="45000" cy="40000" r="180.315" /> 
<circle cx="45000" cy="41000" r="180.315" /> 
<circle cx="45000" cy="42000" r="180.315" /> 
<circle cx="45000" cy="43000" r="180.315" /> 
<circle cx="45000" cy="44000" r="180.315" /> 
<circle cx="65500" cy="36000" r="180.315" /> 
<circle cx="65500" cy="35000" r="180.315" /> 
<circle cx="65500" cy="34000" r="180.315" /> 
<circle cx="65500" cy="33000" r="180.315" /> 
<circle cx="63500" cy="36000" r="180.315" /> 
<circle cx="63500" cy="35000" r="180.315" /> 
<circle cx="63500" cy="34000" r="180.315" /> 
<circle cx="63500" cy="33000" r="180.315" /> 
<circle cx="61500" cy="36000" r="180.315" /> 
<circle cx="61500" cy="35000" r="180.315" /> 
<circle cx="61500" cy="34000" r="180.315" /> 
<circle cx="61500" cy="33000" r="180.315" /> 
<circle cx="59000" cy="42500" r="140.315" /> 
<circle cx="59000" cy="43500" r="140.315" /> 
<circle cx="59000" cy="44500" r="140.315" /> 
<circle cx="59000" cy="45500" r="140.315" /> 
<circle cx="62000" cy="45500" r="140.315" /> 
<circle cx="62000" cy="44500" r="140.315" /> 
<circle cx="62000" cy="43500" r="140.315" /> 
<circle cx="62000" cy="42500" r="140.315" /> 
<circle cx="50500" cy="47000" r="140.315" /> 
<circle cx="51500" cy="47000" r="140.315" /> 
<circle cx="52500" cy="47000" r="140.315" /> 
<circle cx="53500" cy="47000" r="140.315" /> 
<circle cx="53500" cy="44000" r="140.315" /> 
<circle cx="52500" cy="44000" r="140.315" /> 
<circle cx="51500" cy="44000" r="140.315" /> 
<circle cx="50500" cy="44000" r="140.315" /> 
<circle cx="56500" cy="33500" r="140.315" /> 
<circle cx="56500" cy="34500" r="140.315" /> 
<circle cx="56500" cy="35500" r="140.315" /> 
<circle cx="56500" cy="36500" r="140.315" /> 
<circle cx="56500" cy="37500" r="140.315" /> 
<circle cx="56500" cy="38500" r="140.315" /> 
<circle cx="56500" cy="39500" r="140.315" /> 
<circle cx="56500" cy="40500" r="140.315" /> 
<circle cx="59500" cy="40500" r="140.315" /> 
<circle cx="59500" cy="39500" r="140.315" /> 
<circle cx="59500" cy="38500" r="140.315" /> 
<circle cx="59500" cy="37500" r="140.315" /> 
<circle cx="59500" cy="36500" r="140.315" /> 
<circle cx="59500" cy="35500" r="140.315" /> 
<circle cx="59500" cy="34500" r="140.315" /> 
<circle cx="59500" cy="33500" r="140.315" /> 
<circle cx="49500" cy="33500" r="140.315" /> 
<circle cx="49500" cy="34500" r="140.315" /> 
<circle cx="49500" cy="35500" r="140.315" /> 
<circle cx="49500" cy="36500" r="140.315" /> 
<circle cx="49500" cy="37500" r="140.315" /> 
<circle cx="49500" cy="38500" r="140.315" /> 
<circle cx="49500" cy="39500" r="140.315" /> 
<circle cx="49500" cy="40500" r="140.315" /> 
<circle cx="52500" cy="40500" r="140.315" /> 
<circle cx="52500" cy="39500" r="140.315" /> 
<circle cx="52500" cy="38500" r="140.315" /> 
<circle cx="52500" cy="37500" r="140.315" /> 
<circle cx="52500" cy="36500" r="140.315" /> 
<circle cx="52500" cy="35500" r="140.315" /> 
<circle cx="52500" cy="34500" r="140.315" /> 
<circle cx="52500" cy="33500" r="140.315" /> 
<circle cx="48500" cy="38500" r="140.315" /> 
<circle cx="48500" cy="39500" r="140.315" /> 
<circle cx="51500" cy="31500" r="140.315" /> 
<circle cx="50500" cy="31500" r="140.315" /> 
<circle cx="47000" cy="36000" r="140.315" /> 
<circle cx="47000" cy="37000" r="140.315" /> 
<circle cx="48500" cy="36000" r="140.315" /> 
<circle cx="48500" cy="37000" r="140.315" /> 
<circle cx="55500" cy="33500" r="140.315" /> 
<circle cx="55500" cy="34500" r="140.315" /> 
<circle cx="55500" cy="36000" r="140.315" /> 
<circle cx="55500" cy="37000" r="140.315" /> 
<circle cx="54000" cy="36000" r="140.315" /> 
<circle cx="54000" cy="37000" r="140.315" /> 
<circle cx="55500" cy="38500" r="140.315" /> 
<circle cx="55500" cy="39500" r="140.315" /> 
<circle cx="58500" cy="31500" r="140.315" /> 
<circle cx="57500" cy="31500" r="140.315" /> 
<circle cx="48500" cy="33500" r="140.315" /> 
<circle cx="48500" cy="34500" r="140.315" /> 
<circle cx="68500" cy="41500" r="226.315" /> 
<circle cx="68500" cy="43500" r="226.315" /> 
<circle cx="64500" cy="45511.8" r="280.315" /> 
<circle cx="64500" cy="43503.9" r="280.315" /> 
<circle cx="64500" cy="41496.1" r="280.315" /> 
<circle cx="64500" cy="39488.2" r="280.315" /> 
<circle cx="55000" cy="46500" r="180.315" /> 
<circle cx="56000" cy="46500" r="180.315" /> 
<circle cx="57000" cy="46500" r="180.315" /> 
<circle cx="58000" cy="46500" r="180.315" /> 
<circle cx="51500" cy="48500" r="140.315" /> 
<circle cx="52500" cy="48500" r="140.315" /> 
</g> 
</svg>
