<?xml version="1.0" standalone="no"?>
 <!DOCTYPE svg PUBLIC "-//W3C//DTD SVG 1.1//EN" 
 "http://www.w3.org/Graphics/SVG/1.1/DTD/svg11.dtd"> 
<svg xmlns="http://www.w3.org/2000/svg" version="1.1" 
    width="7.96798cm" height="5.7023cm" viewBox="0 0 31370 22450 ">
<title>SVG Picture created as STM32ShieldForMetroMiniSlaves-F_Cu.svg date 2018/07/31 13:15:30 </title>
  <desc>Picture generated by PCBNEW </desc>
<g style="fill:#000000; fill-opacity:1;stroke:#000000; stroke-opacity:1;
stroke-linecap:round; stroke-linejoin:round; "
 transform="translate(0 0) scale(1 1)">
</g>
<g style="fill:#FFFF00; fill-opacity:0.0; 
stroke:#FFFF00; stroke-width:59.0551; stroke-opacity:1; 
stroke-linecap:round; stroke-linejoin:round;">
<path d="M28529 1150
L27929 550
" />
<path d="M28529 5650
L28529 1150
" />
<path d="M29529 6650
L28529 5650
" />
<path d="M29529 19550
L29529 6650
" />
<path d="M28529 20550
L29529 19550
" />
<path d="M28529 21550
L28529 20550
" />
<path d="M2529 21550
L28529 21550
" />
<path d="M2529 550
L2529 21550
" />
<path d="M27929 550
L2529 550
" />
</g>
<g style="fill:#808000; fill-opacity:0.0; 
stroke:#808000; stroke-width:680; stroke-opacity:1; 
stroke-linecap:round; stroke-linejoin:round;">
<path d="M13529 20490
L13529 20610
" />
<path d="M14529 20490
L14529 20610
" />
<path d="M15529 20490
L15529 20610
" />
<path d="M16529 20490
L16529 20610
" />
<path d="M17529 20490
L17529 20610
" />
<path d="M18529 20490
L18529 20610
" />
<path d="M19529 20490
L19529 20610
" />
<path d="M20529 20490
L20529 20610
" />
<path d="M22529 20490
L22529 20610
" />
<path d="M23529 20490
L23529 20610
" />
<path d="M24529 20490
L24529 20610
" />
<path d="M25529 20490
L25529 20610
" />
<path d="M26529 20490
L26529 20610
" />
<path d="M27529 20490
L27529 20610
" />
<path d="M9929 1490
L9929 1610
" />
<path d="M10929 1490
L10929 1610
" />
<path d="M11929 1490
L11929 1610
" />
<path d="M12929 1490
L12929 1610
" />
<path d="M13929 1490
L13929 1610
" />
<path d="M14929 1490
L14929 1610
" />
<path d="M15929 1490
L15929 1610
" />
<path d="M16929 1490
L16929 1610
" />
<path d="M17929 1490
L17929 1610
" />
<path d="M18929 1490
L18929 1610
" />
<path d="M20529 1490
L20529 1610
" />
<path d="M21529 1490
L21529 1610
" />
<path d="M22529 1490
L22529 1610
" />
<path d="M23529 1490
L23529 1610
" />
<path d="M24529 1490
L24529 1610
" />
<path d="M25529 1490
L25529 1610
" />
<path d="M26529 1490
L26529 1610
" />
<path d="M27529 1490
L27529 1610
" />
</g>
<g style="fill:#808000; fill-opacity:0.0; 
stroke:#808000; stroke-width:39.3701; stroke-opacity:1; 
stroke-linecap:round; stroke-linejoin:round;">
</g>
<g style="fill:#808000; fill-opacity:1.0; 
stroke:#808000; stroke-width:39.3701; stroke-opacity:1; 
stroke-linecap:round; stroke-linejoin:round;">
<circle cx="8029.53" cy="20550" r="780.315" /> 
<circle cx="28529.5" cy="18550" r="780.315" /> 
<circle cx="8529.53" cy="1550" r="780.315" /> 
<circle cx="28529.5" cy="7550" r="780.315" /> 
<circle cx="5329.53" cy="14800" r="255.315" /> 
<circle cx="5329.53" cy="13800" r="255.315" /> 
<circle cx="5329.53" cy="12300" r="255.315" /> 
<circle cx="5329.53" cy="11300" r="255.315" /> 
<circle cx="20829.5" cy="13300" r="255.315" /> 
<circle cx="20829.5" cy="12300" r="255.315" /> 
<circle cx="15829.5" cy="14300" r="255.315" /> 
<circle cx="16829.5" cy="14300" r="255.315" /> 
<polyline style="fill-rule:evenodd;"
points="3549,11519
4109,11519
4109,12080
3549,12080
3549,11519
" /> 
<circle cx="3829.53" cy="12800" r="280.315" /> 
<circle cx="3829.53" cy="13800" r="280.315" /> 
<circle cx="3829.53" cy="14800" r="280.315" /> 
<circle cx="3829.53" cy="15800" r="280.315" /> 
<polyline style="fill-rule:evenodd;"
points="24609,8080
24049,8080
24049,7519
24609,7519
24609,8080
" /> 
<circle cx="24329.5" cy="6800" r="280.315" /> 
<circle cx="24329.5" cy="5800" r="280.315" /> 
<circle cx="24329.5" cy="4800" r="280.315" /> 
<polyline style="fill-rule:evenodd;"
points="22609,8080
22049,8080
22049,7519
22609,7519
22609,8080
" /> 
<circle cx="22329.5" cy="6800" r="280.315" /> 
<circle cx="22329.5" cy="5800" r="280.315" /> 
<circle cx="22329.5" cy="4800" r="280.315" /> 
<polyline style="fill-rule:evenodd;"
points="20609,8080
20049,8080
20049,7519
20609,7519
20609,8080
" /> 
<circle cx="20329.5" cy="6800" r="280.315" /> 
<circle cx="20329.5" cy="5800" r="280.315" /> 
<circle cx="20329.5" cy="4800" r="280.315" /> 
<polyline style="fill-rule:evenodd;"
points="17574,14044
18084,14044
18084,14555
17574,14555
17574,14044
" /> 
<circle cx="17829.5" cy="15300" r="255.315" /> 
<circle cx="17829.5" cy="16300" r="255.315" /> 
<circle cx="17829.5" cy="17300" r="255.315" /> 
<circle cx="20829.5" cy="17300" r="255.315" /> 
<circle cx="20829.5" cy="16300" r="255.315" /> 
<circle cx="20829.5" cy="15300" r="255.315" /> 
<circle cx="20829.5" cy="14300" r="255.315" /> 
<polyline style="fill-rule:evenodd;"
points="9074,19055
9074,18544
9584,18544
9584,19055
9074,19055
" /> 
<circle cx="10329.5" cy="18800" r="255.315" /> 
<circle cx="11329.5" cy="18800" r="255.315" /> 
<circle cx="12329.5" cy="18800" r="255.315" /> 
<circle cx="12329.5" cy="15800" r="255.315" /> 
<circle cx="11329.5" cy="15800" r="255.315" /> 
<circle cx="10329.5" cy="15800" r="255.315" /> 
<circle cx="9329.53" cy="15800" r="255.315" /> 
<polyline style="fill-rule:evenodd;"
points="15074,5044
15584,5044
15584,5555
15074,5555
15074,5044
" /> 
<circle cx="15329.5" cy="6300" r="255.315" /> 
<circle cx="15329.5" cy="7300" r="255.315" /> 
<circle cx="15329.5" cy="8300" r="255.315" /> 
<circle cx="15329.5" cy="9300" r="255.315" /> 
<circle cx="15329.5" cy="10300" r="255.315" /> 
<circle cx="15329.5" cy="11300" r="255.315" /> 
<circle cx="15329.5" cy="12300" r="255.315" /> 
<circle cx="18329.5" cy="12300" r="255.315" /> 
<circle cx="18329.5" cy="11300" r="255.315" /> 
<circle cx="18329.5" cy="10300" r="255.315" /> 
<circle cx="18329.5" cy="9300" r="255.315" /> 
<circle cx="18329.5" cy="8300" r="255.315" /> 
<circle cx="18329.5" cy="7300" r="255.315" /> 
<circle cx="18329.5" cy="6300" r="255.315" /> 
<circle cx="18329.5" cy="5300" r="255.315" /> 
<polyline style="fill-rule:evenodd;"
points="8074,5044
8584,5044
8584,5555
8074,5555
8074,5044
" /> 
<circle cx="8329.53" cy="6300" r="255.315" /> 
<circle cx="8329.53" cy="7300" r="255.315" /> 
<circle cx="8329.53" cy="8300" r="255.315" /> 
<circle cx="8329.53" cy="9300" r="255.315" /> 
<circle cx="8329.53" cy="10300" r="255.315" /> 
<circle cx="8329.53" cy="11300" r="255.315" /> 
<circle cx="8329.53" cy="12300" r="255.315" /> 
<circle cx="11329.5" cy="12300" r="255.315" /> 
<circle cx="11329.5" cy="11300" r="255.315" /> 
<circle cx="11329.5" cy="10300" r="255.315" /> 
<circle cx="11329.5" cy="9300" r="255.315" /> 
<circle cx="11329.5" cy="8300" r="255.315" /> 
<circle cx="11329.5" cy="7300" r="255.315" /> 
<circle cx="11329.5" cy="6300" r="255.315" /> 
<circle cx="11329.5" cy="5300" r="255.315" /> 
<circle cx="7329.53" cy="10300" r="255.315" /> 
<circle cx="7329.53" cy="11300" r="255.315" /> 
<circle cx="10329.5" cy="3300" r="255.315" /> 
<circle cx="9329.53" cy="3300" r="255.315" /> 
<circle cx="5829.53" cy="7800" r="255.315" /> 
<circle cx="5829.53" cy="8800" r="255.315" /> 
<circle cx="7329.53" cy="7800" r="255.315" /> 
<circle cx="7329.53" cy="8800" r="255.315" /> 
<circle cx="14329.5" cy="5300" r="255.315" /> 
<circle cx="14329.5" cy="6300" r="255.315" /> 
<circle cx="14329.5" cy="7800" r="255.315" /> 
<circle cx="14329.5" cy="8800" r="255.315" /> 
<circle cx="12829.5" cy="7800" r="255.315" /> 
<circle cx="12829.5" cy="8800" r="255.315" /> 
<circle cx="14329.5" cy="10300" r="255.315" /> 
<circle cx="14329.5" cy="11300" r="255.315" /> 
<circle cx="17329.5" cy="3300" r="255.315" /> 
<circle cx="16329.5" cy="3300" r="255.315" /> 
<circle cx="7329.53" cy="5300" r="255.315" /> 
<circle cx="7329.53" cy="6300" r="255.315" /> 
<polyline style="fill-rule:evenodd;"
points="26758,12729
27900,12729
27900,13870
26758,13870
26758,12729
" /> 
<circle cx="27329.5" cy="15300" r="570.815" /> 
<polyline style="fill-rule:evenodd;"
points="23809,17792
22849,17792
22849,16831
23809,16831
23809,17792
" /> 
<circle cx="23329.5" cy="15303.9" r="480.315" /> 
<circle cx="23329.5" cy="13296.1" r="480.315" /> 
<circle cx="23329.5" cy="11288.2" r="480.315" /> 
<polyline style="fill-rule:evenodd;"
points="13549,18580
13549,18019
14109,18019
14109,18580
13549,18580
" /> 
<circle cx="14829.5" cy="18300" r="280.315" /> 
<circle cx="15829.5" cy="18300" r="280.315" /> 
<circle cx="16829.5" cy="18300" r="280.315" /> 
<circle cx="10329.5" cy="20300" r="255.315" /> 
<circle cx="11329.5" cy="20300" r="255.315" /> 
</g>
<g style="fill:#C0C0C0; fill-opacity:1.0; 
stroke:#C0C0C0; stroke-width:39.3701; stroke-opacity:1; 
stroke-linecap:round; stroke-linejoin:round;">
<circle cx="22279.5" cy="19600" r="98.4252" /> 
<circle cx="25829.5" cy="19300" r="98.4252" /> 
<circle cx="3079.53" cy="18050" r="98.4252" /> 
<circle cx="3079.53" cy="2800" r="98.4252" /> 
<circle cx="20329.5" cy="17800" r="98.4252" /> 
<circle cx="20379.5" cy="10300" r="98.4252" /> 
<circle cx="12829.5" cy="12300" r="98.4252" /> 
<circle cx="13479.5" cy="9350" r="98.4252" /> 
<circle cx="16329.5" cy="12300" r="98.4252" /> 
<circle cx="12329.5" cy="10750" r="98.4252" /> 
<circle cx="19479.5" cy="7250" r="98.4252" /> 
<circle cx="19479.5" cy="12800" r="98.4252" /> 
<circle cx="9329.53" cy="8300" r="98.4252" /> 
<circle cx="9329.53" cy="4550" r="98.4252" /> 
<circle cx="19529.5" cy="6250" r="98.4252" /> 
<circle cx="19579.5" cy="4500" r="98.4252" /> 
<circle cx="18829.5" cy="5800" r="98.4252" /> 
<circle cx="18929.5" cy="13300" r="98.4252" /> 
<circle cx="23829.5" cy="10350" r="98.4252" /> 
<circle cx="10329.5" cy="4800" r="98.4252" /> 
<circle cx="9079.53" cy="13000" r="98.4252" /> 
<circle cx="15829.5" cy="13050" r="98.4252" /> 
<circle cx="15829.5" cy="6800" r="98.4252" /> 
</g>
<g style="fill:#A00000; fill-opacity:1.0; 
stroke:#A00000; stroke-width:98.4252; stroke-opacity:1; 
stroke-linecap:round; stroke-linejoin:round;">
<path d="M16529 19900
L16529 20550
" />
<path d="M16829 19600
L16529 19900
" />
<path d="M22279 19600
L16829 19600
" />
<path d="M18329 5300
L18329 5350
" />
<path d="M11829 5800
L11329 5300
" />
<path d="M17879 5800
L11829 5800
" />
<path d="M18329 5350
L17879 5800
" />
<path d="M25829 19300
L25529 19300
" />
<path d="M10329 18800
L10829 19300
" />
<path d="M25529 19300
L23029 19300
" />
<path d="M23029 19300
L10829 19300
" />
<path d="M18929 1550
L18929 1700
" />
<path d="M11329 18550
L10829 18050
" />
<path d="M10829 18050
L3079 18050
" />
<path d="M11329 18550
L11329 18800
" />
<path d="M17829 2800
L3079 2800
" />
<path d="M18929 1700
L17829 2800
" />
<path d="M13829 18300
L14329 17800
" />
<path d="M14329 17800
L20329 17800
" />
<path d="M18329 10300
L18279 10300
" />
<path d="M11829 9800
L11329 10300
" />
<path d="M17779 9800
L11829 9800
" />
<path d="M18279 10300
L17779 9800
" />
<path d="M20379 10300
L18329 10300
" />
<path d="M12829 12300
L11329 12300
" />
<path d="M13429 9300
L13479 9350
" />
<path d="M11329 9300
L13429 9300
" />
<path d="M16329 12300
L18329 12300
" />
<path d="M23329 13296
L21633 13296
" />
<path d="M16329 13800
L15829 14300
" />
<path d="M21129 13800
L16329 13800
" />
<path d="M21633 13296
L21129 13800
" />
</g>
<g style="fill:#A00000; fill-opacity:1.0; 
stroke:#A00000; stroke-width:551.181; stroke-opacity:1; 
stroke-linecap:round; stroke-linejoin:round;">
<path d="M27329 13300
L23333 13300
" />
<path d="M23333 13300
L23329 13296
" />
</g>
<g style="fill:#A00000; fill-opacity:1.0; 
stroke:#A00000; stroke-width:98.4252; stroke-opacity:1; 
stroke-linecap:round; stroke-linejoin:round;">
<path d="M5829 8800
L6179 8800
" />
<path d="M6679 9300
L8329 9300
" />
<path d="M6179 8800
L6679 9300
" />
<path d="M5829 7800
L6229 7800
" />
<path d="M6729 8300
L8329 8300
" />
<path d="M6229 7800
L6729 8300
" />
<path d="M7329 6300
L7329 6900
" />
<path d="M7729 7300
L8329 7300
" />
<path d="M7329 6900
L7729 7300
" />
<path d="M5329 11300
L6379 11300
" />
<path d="M12279 10800
L12329 10750
" />
<path d="M6879 10800
L12279 10800
" />
<path d="M6379 11300
L6879 10800
" />
<path d="M5329 11300
L4329 11300
" />
<path d="M4329 11300
L3829 11800
" />
<path d="M11329 15800
L10329 14800
" />
<path d="M7829 14800
L5329 12300
" />
<path d="M10329 14800
L7829 14800
" />
<path d="M5329 12300
L4329 12300
" />
<path d="M4329 12300
L3829 12800
" />
<path d="M10329 15800
L9829 15300
" />
<path d="M6829 15300
L5329 13800
" />
<path d="M9829 15300
L6829 15300
" />
<path d="M5329 13800
L3829 13800
" />
<path d="M9329 15800
L6329 15800
" />
<path d="M6329 15800
L5329 14800
" />
<path d="M5329 14800
L3829 14800
" />
<path d="M15329 12300
L15329 12400
" />
<path d="M24329 6850
L24329 6800
" />
<path d="M23929 7250
L24329 6850
" />
<path d="M19479 7250
L23929 7250
" />
<path d="M15729 12800
L19479 12800
" />
<path d="M15329 12400
L15729 12800
" />
<path d="M13329 4500
L9379 4500
" />
<path d="M9329 8300
L11329 8300
" />
<path d="M9379 4500
L9329 4550
" />
<path d="M22329 6800
L21829 6300
" />
<path d="M19579 6300
L21829 6300
" />
<path d="M19529 6250
L19579 6300
" />
<path d="M13329 4500
L13329 4500
" />
<path d="M13329 4500
L19579 4500
" />
<path d="M8329 5300
L7329 5300
" />
<path d="M8329 12300
L8429 12300
" />
<path d="M18829 5800
L20329 5800
" />
<path d="M8879 13300
L18929 13300
" />
<path d="M8429 12300
L8879 13300
" />
<path d="M15779 11750
L15329 11300
" />
<path d="M19629 11750
L15779 11750
" />
<path d="M20979 10400
L19629 11750
" />
<path d="M23779 10400
L20979 10400
" />
<path d="M23829 10350
L23779 10400
" />
<path d="M13579 4800
L13629 4800
" />
<path d="M13629 4800
L19279 4800
" />
<path d="M19279 4800
L19829 5300
" />
<path d="M19829 5300
L21879 5300
" />
<path d="M21879 5300
L21829 5250
" />
<path d="M21829 5250
L21829 5300
" />
<path d="M21829 5300
L22329 5800
" />
<path d="M10329 4800
L13579 4800
" />
<path d="M20329 6800
L15829 6800
" />
<path d="M15779 13000
L9079 13000
" />
<path d="M15829 13050
L15779 13000
" />
<path d="M12829 7800
L13379 7800
" />
<path d="M13879 8300
L15329 8300
" />
<path d="M13379 7800
L13879 8300
" />
<path d="M14329 5300
L15329 5300
" />
<path d="M7329 10300
L8329 10300
" />
<path d="M14329 10300
L15329 10300
" />
<path d="M12829 8800
L13329 8800
" />
<path d="M13829 9300
L15329 9300
" />
<path d="M13329 8800
L13829 9300
" />
<path d="M14329 6300
L14329 6700
" />
<path d="M14929 7300
L15329 7300
" />
<path d="M14329 6700
L14929 7300
" />
<path d="M23329 15303
L21775 15303
" />
<path d="M18329 15800
L17829 15300
" />
<path d="M21279 15800
L18329 15800
" />
<path d="M21775 15303
L21279 15800
" />
</g>
<g style="fill:#A00000; fill-opacity:1.0; 
stroke:#A00000; stroke-width:551.181; stroke-opacity:1; 
stroke-linecap:round; stroke-linejoin:round;">
<path d="M27329 15300
L23333 15300
" />
<path d="M23333 15300
L23329 15303
" />
</g>
<g style="fill:#A00000; fill-opacity:1.0; 
stroke:#A00000; stroke-width:98.4252; stroke-opacity:1; 
stroke-linecap:round; stroke-linejoin:round;">
<path d="M16829 14300
L17829 14300
" />
</g>
<g style="fill:#A00000; fill-opacity:1.0; 
stroke:#A00000; stroke-width:39.3701; stroke-opacity:1; 
stroke-linecap:round; stroke-linejoin:round;">
<polyline style="fill-rule:evenodd;"
points="19605,5500
19050,5500
19038,5488
18903,5431
18756,5431
18621,5487
18517,5591
18461,5726
18461,5786
18434,5775
18225,5774
18032,5854
17884,6002
17804,6195
17804,6403
17844,6500
16050,6500
16038,6488
15903,6431
15843,6431
15854,6404
15854,6196
15774,6003
15627,5855
15554,5825
15654,5825
15745,5787
15816,5716
15854,5624
15854,5525
15854,5099
19163,5099
19605,5500
" /> 
</g>
<g style="fill:#A00000; fill-opacity:0.0; 
stroke:#A00000; stroke-width:100; stroke-opacity:1; 
stroke-linecap:round; stroke-linejoin:round;">
<polyline fill="none;"
points="19605,5500
19050,5500
19038,5488
18903,5431
18756,5431
18621,5487
18517,5591
18461,5726
18461,5786
18434,5775
18225,5774
18032,5854
17884,6002
17804,6195
17804,6403
17844,6500
16050,6500
16038,6488
15903,6431
15843,6431
15854,6404
15854,6196
15774,6003
15627,5855
15554,5825
15654,5825
15745,5787
15816,5716
15854,5624
15854,5525
15854,5099
19163,5099
19605,5500
" /> 
</g>
<g style="fill:#A00000; fill-opacity:1.0; 
stroke:#A00000; stroke-width:39.3701; stroke-opacity:1; 
stroke-linecap:round; stroke-linejoin:round;">
<polyline style="fill-rule:evenodd;"
points="29250,19434
28331,20352
28271,20443
28250,20550
28250,21270
11854,21270
11854,20196
11774,20003
11627,19855
11434,19775
11225,19774
11032,19854
10884,20002
10804,20195
10804,20403
10884,20597
11031,20744
11224,20824
11433,20825
11626,20745
11774,20597
11854,20404
11854,20196
11854,21270
8794,21270
8919,21145
9079,20759
9079,20342
8920,19956
8625,19660
8239,19500
7821,19499
7435,19659
7139,19954
6979,20340
6979,20757
7138,21144
7265,21270
2809,21270
2809,18300
2870,18361
3005,18418
3152,18418
3287,18362
3300,18349
10045,18349
10032,18354
9884,18502
9804,18695
9804,18903
9884,19097
10031,19244
10224,19324
10431,19325
10617,19511
10715,19576
10715,19576
10829,19599
16407,19599
16317,19688
16253,19785
16230,19900
16230,19981
16112,20060
16029,20184
15946,20060
15755,19932
15529,19887
15303,19932
15112,20060
15029,20184
14946,20060
14755,19932
14529,19887
14303,19932
14112,20060
14029,20184
13946,20060
13755,19932
13529,19887
13303,19932
13112,20060
12984,20251
12939,20477
12939,20622
12984,20848
13112,21039
13303,21167
13529,21212
13755,21167
13946,21039
14029,20915
14112,21039
14303,21167
14529,21212
14755,21167
14946,21039
15029,20915
15112,21039
15303,21167
15529,21212
15755,21167
15946,21039
16029,20915
16112,21039
16303,21167
16529,21212
16755,21167
16946,21039
17074,20848
17119,20622
17119,20477
17074,20251
16946,20060
16854,19998
16953,19899
18469,19899
18303,19932
18112,20060
17984,20251
17939,20477
17939,20622
17984,20848
18112,21039
18303,21167
18529,21212
18755,21167
18946,21039
19029,20915
19112,21039
19303,21167
19529,21212
19755,21167
19946,21039
20029,20915
20112,21039
20303,21167
20529,21212
20755,21167
20946,21039
21074,20848
21119,20622
21119,20477
21074,20251
20946,20060
20755,19932
20589,19899
22058,19899
22070,19911
22205,19968
22250,19968
22112,20060
21984,20251
21939,20477
21939,20622
21984,20848
22112,21039
22303,21167
22529,21212
22755,21167
22946,21039
23029,20915
23112,21039
23303,21167
23529,21212
23755,21167
23946,21039
24029,20915
24112,21039
24303,21167
24529,21212
24755,21167
24946,21039
25029,20915
25112,21039
25303,21167
25529,21212
25755,21167
25946,21039
26029,20915
26112,21039
26303,21167
26529,21212
26755,21167
26946,21039
27029,20915
27112,21039
27303,21167
27529,21212
27755,21167
27946,21039
28074,20848
28119,20622
28119,20477
28074,20251
27946,20060
27755,19932
27529,19887
27303,19932
27112,20060
27029,20184
26946,20060
26755,19932
26529,19887
26303,19932
26112,20060
26029,20184
25946,20060
25755,19932
25529,19887
25303,19932
25112,20060
25029,20184
24946,20060
24755,19932
24529,19887
24303,19932
24112,20060
24029,20184
23946,20060
23755,19932
23529,19887
23303,19932
23112,20060
23029,20184
22946,20060
22755,19932
22529,19887
22508,19891
22591,19808
22647,19673
22647,19599
23029,19599
25529,19599
25608,19599
25620,19611
25755,19668
25902,19668
26037,19612
26141,19508
26197,19373
26197,19227
26141,19091
26038,18988
25903,18931
25756,18931
25621,18987
25608,19000
25529,19000
24079,19000
24079,17762
24079,16762
24041,16670
23971,16599
23879,16561
23780,16561
22780,16561
22688,16599
22617,16670
22579,16761
22579,16861
22579,17861
22617,17953
22687,18023
22779,18061
22879,18061
23879,18061
23970,18023
24041,17953
24079,17861
24079,17762
24079,19000
23029,19000
12814,19000
12854,18904
12854,18696
12774,18503
12627,18355
12434,18275
12225,18274
12032,18354
11884,18502
11829,18635
11774,18503
11627,18355
11508,18305
11041,17838
10944,17773
10829,17750
3300,17750
3288,17738
3153,17681
3006,17681
2871,17737
2809,17799
2809,3050
2870,3111
3005,3168
3152,3168
3287,3112
3300,3099
8844,3099
8804,3195
8804,3403
8884,3597
9031,3744
9224,3824
9433,3825
9626,3745
9774,3597
9854,3404
9854,3196
9814,3099
15844,3099
15804,3195
15804,3403
15884,3597
16031,3744
16224,3824
16433,3825
16626,3745
16774,3597
16854,3404
16854,3196
16814,3099
17829,3099
17944,3076
18041,3011
18854,2197
18929,2212
19155,2167
19346,2039
19474,1848
19519,1622
19519,1477
19474,1251
19346,1060
19155,932
18929,887
18703,932
18512,1060
18429,1184
18346,1060
18155,932
17929,887
17703,932
17512,1060
17429,1184
17346,1060
17155,932
16929,887
16703,932
16512,1060
16429,1184
16346,1060
16155,932
15929,887
15703,932
15512,1060
15429,1184
15346,1060
15155,932
14929,887
14703,932
14512,1060
14429,1184
14346,1060
14155,932
13929,887
13703,932
13512,1060
13429,1184
13346,1060
13155,932
12929,887
12703,932
12512,1060
12429,1184
12346,1060
12155,932
11929,887
11703,932
11512,1060
11429,1184
11346,1060
11155,932
10929,887
10703,932
10512,1060
10429,1184
10346,1060
10155,932
9929,887
9703,932
9512,1060
9481,1105
9420,956
9293,829
27813,829
28250,1265
28250,5650
28271,5756
28331,5847
29250,6765
29250,6785
29125,6660
28739,6500
28321,6499
28119,6583
28119,1622
28119,1477
28074,1251
27946,1060
27755,932
27529,887
27303,932
27112,1060
27029,1184
26946,1060
26755,932
26529,887
26303,932
26112,1060
26029,1184
25946,1060
25755,932
25529,887
25303,932
25112,1060
25029,1184
24946,1060
24755,932
24529,887
24303,932
24112,1060
24029,1184
23946,1060
23755,932
23529,887
23303,932
23112,1060
23029,1184
22946,1060
22755,932
22529,887
22303,932
22112,1060
22029,1184
21946,1060
21755,932
21529,887
21303,932
21112,1060
21029,1184
20946,1060
20755,932
20529,887
20303,932
20112,1060
19984,1251
19939,1477
19939,1622
19984,1848
20112,2039
20303,2167
20529,2212
20755,2167
20946,2039
21029,1915
21112,2039
21303,2167
21529,2212
21755,2167
21946,2039
22029,1915
22112,2039
22303,2167
22529,2212
22755,2167
22946,2039
23029,1915
23112,2039
23303,2167
23529,2212
23755,2167
23946,2039
24029,1915
24112,2039
24303,2167
24529,2212
24755,2167
24946,2039
25029,1915
25112,2039
25303,2167
25529,2212
25755,2167
25946,2039
26029,1915
26112,2039
26303,2167
26529,2212
26755,2167
26946,2039
27029,1915
27112,2039
27303,2167
27529,2212
27755,2167
27946,2039
28074,1848
28119,1622
28119,6583
27935,6659
27639,6954
27479,7340
27479,7757
27638,8144
27933,8439
28319,8599
28737,8600
29123,8440
29250,8314
29250,17785
29125,17660
28739,17500
28321,17499
28170,17562
28170,15133
28042,14824
27806,14587
27497,14459
27163,14459
26854,14587
26666,14774
23860,14774
23754,14668
23479,14554
23180,14553
22905,14667
22694,14878
22641,15004
21775,15004
21661,15027
21564,15092
21354,15301
21354,15196
21274,15003
21127,14855
20994,14799
21126,14745
21274,14597
21354,14404
21354,14196
21291,14044
21341,14011
21757,13595
22641,13595
22693,13720
22904,13931
23179,14045
23478,14046
23753,13932
23860,13825
26488,13825
26488,13940
26526,14031
26597,14102
26689,14140
26788,14140
27969,14140
28061,14102
28131,14032
28169,13940
28170,13840
28170,12659
28132,12568
28061,12497
27969,12459
27870,12459
26689,12459
26597,12497
26527,12567
26489,12659
26488,12759
26488,12774
23868,12774
23754,12660
23479,12546
23180,12545
22905,12659
22694,12870
22641,12996
21633,12996
21518,13019
21421,13084
21341,13164
21274,13003
21127,12855
20994,12799
21126,12745
21274,12597
21354,12404
21354,12196
21274,12003
21127,11855
20934,11775
20725,11774
20532,11854
20384,12002
20304,12195
20304,12403
20384,12597
20531,12744
20664,12800
20532,12854
20384,13002
20304,13195
20304,13403
20344,13500
19244,13500
19297,13373
19297,13227
19244,13099
19258,13099
19270,13111
19405,13168
19552,13168
19687,13112
19791,13008
19847,12873
19847,12727
19791,12591
19688,12488
19553,12431
19406,12431
19271,12487
19258,12500
18814,12500
18854,12404
18854,12196
18793,12049
19629,12049
19744,12026
19841,11961
21103,10699
22857,10699
22694,10862
22579,11138
22579,11436
22693,11712
22904,11923
23179,12038
23478,12038
23753,11924
23964,11713
24079,11438
24079,11139
23965,10863
23820,10718
23902,10718
24037,10662
24141,10558
24197,10423
24197,10277
24141,10141
24038,10038
23903,9981
23756,9981
23621,10037
23558,10100
20979,10100
20865,10123
20767,10188
20742,10214
20691,10091
20588,9988
20453,9931
20306,9931
20171,9987
20158,10000
18772,10000
18627,9855
18494,9799
18626,9745
18774,9597
18854,9404
18854,9196
18774,9003
18627,8855
18494,8799
18626,8745
18774,8597
18854,8404
18854,8196
18774,8003
18627,7855
18494,7799
18626,7745
18774,7597
18854,7404
18854,7196
18814,7099
19143,7099
19111,7176
19111,7322
19167,7458
19270,7561
19405,7618
19552,7618
19687,7562
19700,7549
19779,7549
19779,7549
19779,8149
19817,8241
19887,8311
19979,8349
20079,8350
20679,8350
20770,8312
20841,8241
20879,8149
20879,8050
20879,7549
21779,7549
21779,7549
21779,8149
21817,8241
21887,8311
21979,8349
22079,8350
22679,8350
22770,8312
22841,8241
22879,8149
22879,8050
22879,7549
23779,7549
23779,7549
23779,8149
23817,8241
23887,8311
23979,8349
24079,8350
24679,8350
24770,8312
24841,8241
24879,8149
24879,8050
24879,7450
24841,7358
24771,7288
24679,7250
24657,7250
24795,7111
24879,6909
24879,6691
24796,6488
24641,6334
24559,6300
24640,6266
24795,6111
24879,5909
24879,5691
24796,5488
24641,5334
24559,5300
24640,5266
24795,5111
24879,4909
24879,4691
24796,4488
24641,4334
24439,4250
24220,4249
24018,4333
23863,4488
23779,4690
23779,4908
23862,5111
24017,5265
24099,5299
24018,5333
23863,5488
23779,5690
23779,5908
23862,6111
24017,6265
24099,6299
24018,6333
23863,6488
23779,6690
23779,6908
23796,6950
22862,6950
22879,6909
22879,6691
22796,6488
22641,6334
22559,6300
22640,6266
22795,6111
22879,5909
22879,5691
22796,5488
22641,5334
22559,5300
22640,5266
22795,5111
22879,4909
22879,4691
22796,4488
22641,4334
22439,4250
22220,4249
22018,4333
21863,4488
21779,4690
21779,4908
21799,4956
21715,4973
21674,5000
20841,5000
20879,4909
20879,4691
20796,4488
20641,4334
20439,4250
20220,4249
20018,4333
19940,4410
19891,4291
19788,4188
19653,4131
19506,4131
19371,4187
19358,4200
13329,4200
9448,4200
9403,4181
9256,4181
9121,4237
9017,4341
8961,4476
8961,4622
9017,4758
9120,4861
9255,4918
9402,4918
9537,4862
9600,4799
9961,4799
9961,4872
10017,5008
10120,5111
10255,5168
10402,5168
10537,5112
10550,5099
13579,5099
13629,5099
13844,5099
13804,5195
13804,5403
13884,5597
14031,5744
14164,5800
14032,5854
13884,6002
13804,6195
13804,6403
13884,6597
14031,6744
14039,6748
14053,6814
14117,6911
14514,7308
14434,7275
14225,7274
14032,7354
13884,7502
13804,7695
13804,7801
13591,7588
13494,7523
13379,7500
13272,7500
13127,7355
12934,7275
12725,7274
12532,7354
12384,7502
12304,7695
12304,7903
12384,8097
12531,8244
12664,8300
12532,8354
12384,8502
12304,8695
12304,8903
12344,9000
11772,9000
11627,8855
11494,8799
11626,8745
11774,8597
11854,8404
11854,8196
11774,8003
11627,7855
11494,7799
11626,7745
11774,7597
11854,7404
11854,7196
11774,7003
11627,6855
11494,6799
11626,6745
11774,6597
11854,6404
11854,6196
11774,6003
11627,5855
11434,5775
11225,5774
11032,5854
10884,6002
10804,6195
10804,6403
10884,6597
11031,6744
11164,6800
11032,6854
10884,7002
10804,7195
10804,7403
10884,7597
11031,7744
11164,7800
11032,7854
10886,8000
9550,8000
9538,7988
9403,7931
9256,7931
9121,7987
9017,8091
8961,8226
8961,8372
9017,8508
9120,8611
9255,8668
9402,8668
9537,8612
9550,8599
10886,8599
11031,8744
11164,8800
11032,8854
10884,9002
10804,9195
10804,9403
10884,9597
11031,9744
11164,9800
11032,9854
10884,10002
10804,10195
10804,10403
10844,10500
8814,10500
8854,10404
8854,10196
8774,10003
8627,9855
8494,9799
8626,9745
8774,9597
8854,9404
8854,9196
8774,9003
8627,8855
8494,8799
8626,8745
8774,8597
8854,8404
8854,8196
8774,8003
8627,7855
8494,7799
8626,7745
8774,7597
8854,7404
8854,7196
8774,7003
8627,6855
8494,6799
8626,6745
8774,6597
8854,6404
8854,6196
8774,6003
8627,5855
8554,5825
8654,5825
8745,5787
8816,5716
8854,5624
8854,5525
8854,4975
8816,4883
8746,4813
8654,4775
8555,4774
8005,4774
7913,4812
7842,4883
7804,4975
7804,5000
7772,5000
7627,4855
7434,4775
7225,4774
7032,4854
6884,5002
6804,5195
6804,5403
6884,5597
7031,5744
7164,5800
7032,5854
6884,6002
6804,6195
6804,6403
6884,6597
7030,6743
7030,6900
7053,7014
7117,7111
7281,7274
7225,7274
7032,7354
6884,7502
6804,7695
6804,7903
6838,7985
6441,7588
6344,7523
6277,7510
6274,7503
6127,7355
5934,7275
5725,7274
5532,7354
5384,7502
5304,7695
5304,7903
5384,8097
5531,8244
5664,8300
5532,8354
5384,8502
5304,8695
5304,8903
5384,9097
5531,9244
5724,9324
5933,9325
6126,9245
6164,9207
6467,9511
6565,9576
6565,9576
6679,9599
7886,9599
8031,9744
8164,9800
8032,9854
7886,10000
7772,10000
7627,9855
7434,9775
7225,9774
7032,9854
6884,10002
6804,10195
6804,10403
6847,10507
6847,10507
6765,10523
6667,10588
6255,11000
5772,11000
5627,10855
5434,10775
5225,10774
5032,10854
4886,11000
4329,11000
4215,11023
4117,11088
3956,11249
3480,11249
3388,11287
3317,11358
3279,11450
3279,11549
3279,12149
3317,12241
3387,12311
3479,12349
3501,12349
3363,12488
3279,12690
3279,12908
3362,13111
3517,13265
3599,13299
3518,13333
3363,13488
3279,13690
3279,13908
3362,14111
3517,14265
3599,14299
3518,14333
3363,14488
3279,14690
3279,14908
3362,15111
3517,15265
3599,15299
3518,15333
3363,15488
3279,15690
3279,15908
3362,16111
3517,16265
3719,16349
3938,16350
4140,16266
4295,16111
4379,15909
4379,15691
4296,15488
4141,15334
4059,15300
4140,15266
4295,15111
4300,15099
4886,15099
5031,15244
5224,15324
5431,15325
6117,16011
6215,16076
6215,16076
6234,16080
6329,16099
8886,16099
9031,16244
9224,16324
9433,16325
9626,16245
9774,16097
9829,15964
9884,16097
10031,16244
10224,16324
10433,16325
10626,16245
10774,16097
10829,15964
10884,16097
11031,16244
11224,16324
11433,16325
11626,16245
11774,16097
11829,15964
11884,16097
12031,16244
12224,16324
12433,16325
12626,16245
12774,16097
12854,15904
12854,15696
12774,15503
12627,15355
12434,15275
12225,15274
12032,15354
11884,15502
11829,15635
11774,15503
11627,15355
11434,15275
11227,15274
10541,14588
10444,14523
10329,14500
7953,14500
5854,12401
5854,12196
5774,12003
5627,11855
5494,11799
5626,11745
5772,11599
6379,11599
6494,11576
6591,11511
6804,11298
6804,11403
6884,11597
7031,11744
7224,11824
7433,11825
7626,11745
7774,11597
7829,11464
7884,11597
8031,11744
8164,11800
8032,11854
7884,12002
7804,12195
7804,12403
7884,12597
8031,12744
8224,12824
8337,12825
8606,13422
8647,13481
8667,13511
8670,13513
8673,13517
8732,13554
8765,13576
8768,13577
8772,13579
8836,13590
8879,13599
8887,13599
8887,13599
8888,13599
16107,13599
15931,13775
15725,13774
15532,13854
15384,14002
15304,14195
15304,14403
15384,14597
15531,14744
15724,14824
15933,14825
16126,14745
16274,14597
16329,14464
16384,14597
16531,14744
16724,14824
16933,14825
17126,14745
17272,14599
17304,14599
17304,14624
17342,14716
17412,14786
17504,14824
17604,14825
17604,14825
17532,14854
17384,15002
17304,15195
17304,15403
17384,15597
17531,15744
17664,15800
17532,15854
17384,16002
17304,16195
17304,16403
17384,16597
17531,16744
17664,16800
17532,16854
17384,17002
17304,17195
17304,17403
17344,17500
14329,17500
14215,17523
14117,17588
13956,17749
13480,17749
13388,17787
13317,17858
13279,17950
13279,18049
13279,18649
13317,18741
13387,18811
13479,18849
13579,18850
14179,18850
14270,18812
14341,18741
14379,18649
14379,18627
14517,18765
14719,18849
14938,18850
15140,18766
15295,18611
15329,18530
15362,18611
15517,18765
15719,18849
15938,18850
16140,18766
16295,18611
16329,18530
16362,18611
16517,18765
16719,18849
16938,18850
17140,18766
17295,18611
17379,18409
17379,18191
17341,18099
20108,18099
20120,18111
20255,18168
20402,18168
20537,18112
20641,18008
20697,17873
20697,17813
20724,17824
20933,17825
21126,17745
21274,17597
21354,17404
21354,17196
21274,17003
21127,16855
20994,16799
21126,16745
21274,16597
21354,16404
21354,16196
21311,16092
21394,16076
21491,16011
21899,15603
22641,15603
22693,15728
22904,15939
23179,16053
23478,16054
23753,15940
23868,15825
26666,15825
26852,16012
27161,16140
27495,16140
27805,16012
28041,15776
28169,15467
28170,15133
28170,17562
27935,17659
27639,17954
27479,18340
27479,18757
27638,19144
27933,19439
28319,19599
28737,19600
29123,19440
29250,19314
29250,19434
" /> 
</g>
<g style="fill:#A00000; fill-opacity:0.0; 
stroke:#A00000; stroke-width:100; stroke-opacity:1; 
stroke-linecap:round; stroke-linejoin:round;">
<polyline fill="none;"
points="29250,19434
28331,20352
28271,20443
28250,20550
28250,21270
11854,21270
11854,20196
11774,20003
11627,19855
11434,19775
11225,19774
11032,19854
10884,20002
10804,20195
10804,20403
10884,20597
11031,20744
11224,20824
11433,20825
11626,20745
11774,20597
11854,20404
11854,20196
11854,21270
8794,21270
8919,21145
9079,20759
9079,20342
8920,19956
8625,19660
8239,19500
7821,19499
7435,19659
7139,19954
6979,20340
6979,20757
7138,21144
7265,21270
2809,21270
2809,18300
2870,18361
3005,18418
3152,18418
3287,18362
3300,18349
10045,18349
10032,18354
9884,18502
9804,18695
9804,18903
9884,19097
10031,19244
10224,19324
10431,19325
10617,19511
10715,19576
10715,19576
10829,19599
16407,19599
16317,19688
16253,19785
16230,19900
16230,19981
16112,20060
16029,20184
15946,20060
15755,19932
15529,19887
15303,19932
15112,20060
15029,20184
14946,20060
14755,19932
14529,19887
14303,19932
14112,20060
14029,20184
13946,20060
13755,19932
13529,19887
13303,19932
13112,20060
12984,20251
12939,20477
12939,20622
12984,20848
13112,21039
13303,21167
13529,21212
13755,21167
13946,21039
14029,20915
14112,21039
14303,21167
14529,21212
14755,21167
14946,21039
15029,20915
15112,21039
15303,21167
15529,21212
15755,21167
15946,21039
16029,20915
16112,21039
16303,21167
16529,21212
16755,21167
16946,21039
17074,20848
17119,20622
17119,20477
17074,20251
16946,20060
16854,19998
16953,19899
18469,19899
18303,19932
18112,20060
17984,20251
17939,20477
17939,20622
17984,20848
18112,21039
18303,21167
18529,21212
18755,21167
18946,21039
19029,20915
19112,21039
19303,21167
19529,21212
19755,21167
19946,21039
20029,20915
20112,21039
20303,21167
20529,21212
20755,21167
20946,21039
21074,20848
21119,20622
21119,20477
21074,20251
20946,20060
20755,19932
20589,19899
22058,19899
22070,19911
22205,19968
22250,19968
22112,20060
21984,20251
21939,20477
21939,20622
21984,20848
22112,21039
22303,21167
22529,21212
22755,21167
22946,21039
23029,20915
23112,21039
23303,21167
23529,21212
23755,21167
23946,21039
24029,20915
24112,21039
24303,21167
24529,21212
24755,21167
24946,21039
25029,20915
25112,21039
25303,21167
25529,21212
25755,21167
25946,21039
26029,20915
26112,21039
26303,21167
26529,21212
26755,21167
26946,21039
27029,20915
27112,21039
27303,21167
27529,21212
27755,21167
27946,21039
28074,20848
28119,20622
28119,20477
28074,20251
27946,20060
27755,19932
27529,19887
27303,19932
27112,20060
27029,20184
26946,20060
26755,19932
26529,19887
26303,19932
26112,20060
26029,20184
25946,20060
25755,19932
25529,19887
25303,19932
25112,20060
25029,20184
24946,20060
24755,19932
24529,19887
24303,19932
24112,20060
24029,20184
23946,20060
23755,19932
23529,19887
23303,19932
23112,20060
23029,20184
22946,20060
22755,19932
22529,19887
22508,19891
22591,19808
22647,19673
22647,19599
23029,19599
25529,19599
25608,19599
25620,19611
25755,19668
25902,19668
26037,19612
26141,19508
26197,19373
26197,19227
26141,19091
26038,18988
25903,18931
25756,18931
25621,18987
25608,19000
25529,19000
24079,19000
24079,17762
24079,16762
24041,16670
23971,16599
23879,16561
23780,16561
22780,16561
22688,16599
22617,16670
22579,16761
22579,16861
22579,17861
22617,17953
22687,18023
22779,18061
22879,18061
23879,18061
23970,18023
24041,17953
24079,17861
24079,17762
24079,19000
23029,19000
12814,19000
12854,18904
12854,18696
12774,18503
12627,18355
12434,18275
12225,18274
12032,18354
11884,18502
11829,18635
11774,18503
11627,18355
11508,18305
11041,17838
10944,17773
10829,17750
3300,17750
3288,17738
3153,17681
3006,17681
2871,17737
2809,17799
2809,3050
2870,3111
3005,3168
3152,3168
3287,3112
3300,3099
8844,3099
8804,3195
8804,3403
8884,3597
9031,3744
9224,3824
9433,3825
9626,3745
9774,3597
9854,3404
9854,3196
9814,3099
15844,3099
15804,3195
15804,3403
15884,3597
16031,3744
16224,3824
16433,3825
16626,3745
16774,3597
16854,3404
16854,3196
16814,3099
17829,3099
17944,3076
18041,3011
18854,2197
18929,2212
19155,2167
19346,2039
19474,1848
19519,1622
19519,1477
19474,1251
19346,1060
19155,932
18929,887
18703,932
18512,1060
18429,1184
18346,1060
18155,932
17929,887
17703,932
17512,1060
17429,1184
17346,1060
17155,932
16929,887
16703,932
16512,1060
16429,1184
16346,1060
16155,932
15929,887
15703,932
15512,1060
15429,1184
15346,1060
15155,932
14929,887
14703,932
14512,1060
14429,1184
14346,1060
14155,932
13929,887
13703,932
13512,1060
13429,1184
13346,1060
13155,932
12929,887
12703,932
12512,1060
12429,1184
12346,1060
12155,932
11929,887
11703,932
11512,1060
11429,1184
11346,1060
11155,932
10929,887
10703,932
10512,1060
10429,1184
10346,1060
10155,932
9929,887
9703,932
9512,1060
9481,1105
9420,956
9293,829
27813,829
28250,1265
28250,5650
28271,5756
28331,5847
29250,6765
29250,6785
29125,6660
28739,6500
28321,6499
28119,6583
28119,1622
28119,1477
28074,1251
27946,1060
27755,932
27529,887
27303,932
27112,1060
27029,1184
26946,1060
26755,932
26529,887
26303,932
26112,1060
26029,1184
25946,1060
25755,932
25529,887
25303,932
25112,1060
25029,1184
24946,1060
24755,932
24529,887
24303,932
24112,1060
24029,1184
23946,1060
23755,932
23529,887
23303,932
23112,1060
23029,1184
22946,1060
22755,932
22529,887
22303,932
22112,1060
22029,1184
21946,1060
21755,932
21529,887
21303,932
21112,1060
21029,1184
20946,1060
20755,932
20529,887
20303,932
20112,1060
19984,1251
19939,1477
19939,1622
19984,1848
20112,2039
20303,2167
20529,2212
20755,2167
20946,2039
21029,1915
21112,2039
21303,2167
21529,2212
21755,2167
21946,2039
22029,1915
22112,2039
22303,2167
22529,2212
22755,2167
22946,2039
23029,1915
23112,2039
23303,2167
23529,2212
23755,2167
23946,2039
24029,1915
24112,2039
24303,2167
24529,2212
24755,2167
24946,2039
25029,1915
25112,2039
25303,2167
25529,2212
25755,2167
25946,2039
26029,1915
26112,2039
26303,2167
26529,2212
26755,2167
26946,2039
27029,1915
27112,2039
27303,2167
27529,2212
27755,2167
27946,2039
28074,1848
28119,1622
28119,6583
27935,6659
27639,6954
27479,7340
27479,7757
27638,8144
27933,8439
28319,8599
28737,8600
29123,8440
29250,8314
29250,17785
29125,17660
28739,17500
28321,17499
28170,17562
28170,15133
28042,14824
27806,14587
27497,14459
27163,14459
26854,14587
26666,14774
23860,14774
23754,14668
23479,14554
23180,14553
22905,14667
22694,14878
22641,15004
21775,15004
21661,15027
21564,15092
21354,15301
21354,15196
21274,15003
21127,14855
20994,14799
21126,14745
21274,14597
21354,14404
21354,14196
21291,14044
21341,14011
21757,13595
22641,13595
22693,13720
22904,13931
23179,14045
23478,14046
23753,13932
23860,13825
26488,13825
26488,13940
26526,14031
26597,14102
26689,14140
26788,14140
27969,14140
28061,14102
28131,14032
28169,13940
28170,13840
28170,12659
28132,12568
28061,12497
27969,12459
27870,12459
26689,12459
26597,12497
26527,12567
26489,12659
26488,12759
26488,12774
23868,12774
23754,12660
23479,12546
23180,12545
22905,12659
22694,12870
22641,12996
21633,12996
21518,13019
21421,13084
21341,13164
21274,13003
21127,12855
20994,12799
21126,12745
21274,12597
21354,12404
21354,12196
21274,12003
21127,11855
20934,11775
20725,11774
20532,11854
20384,12002
20304,12195
20304,12403
20384,12597
20531,12744
20664,12800
20532,12854
20384,13002
20304,13195
20304,13403
20344,13500
19244,13500
19297,13373
19297,13227
19244,13099
19258,13099
19270,13111
19405,13168
19552,13168
19687,13112
19791,13008
19847,12873
19847,12727
19791,12591
19688,12488
19553,12431
19406,12431
19271,12487
19258,12500
18814,12500
18854,12404
18854,12196
18793,12049
19629,12049
19744,12026
19841,11961
21103,10699
22857,10699
22694,10862
22579,11138
22579,11436
22693,11712
22904,11923
23179,12038
23478,12038
23753,11924
23964,11713
24079,11438
24079,11139
23965,10863
23820,10718
23902,10718
24037,10662
24141,10558
24197,10423
24197,10277
24141,10141
24038,10038
23903,9981
23756,9981
23621,10037
23558,10100
20979,10100
20865,10123
20767,10188
20742,10214
20691,10091
20588,9988
20453,9931
20306,9931
20171,9987
20158,10000
18772,10000
18627,9855
18494,9799
18626,9745
18774,9597
18854,9404
18854,9196
18774,9003
18627,8855
18494,8799
18626,8745
18774,8597
18854,8404
18854,8196
18774,8003
18627,7855
18494,7799
18626,7745
18774,7597
18854,7404
18854,7196
18814,7099
19143,7099
19111,7176
19111,7322
19167,7458
19270,7561
19405,7618
19552,7618
19687,7562
19700,7549
19779,7549
19779,7549
19779,8149
19817,8241
19887,8311
19979,8349
20079,8350
20679,8350
20770,8312
20841,8241
20879,8149
20879,8050
20879,7549
21779,7549
21779,7549
21779,8149
21817,8241
21887,8311
21979,8349
22079,8350
22679,8350
22770,8312
22841,8241
22879,8149
22879,8050
22879,7549
23779,7549
23779,7549
23779,8149
23817,8241
23887,8311
23979,8349
24079,8350
24679,8350
24770,8312
24841,8241
24879,8149
24879,8050
24879,7450
24841,7358
24771,7288
24679,7250
24657,7250
24795,7111
24879,6909
24879,6691
24796,6488
24641,6334
24559,6300
24640,6266
24795,6111
24879,5909
24879,5691
24796,5488
24641,5334
24559,5300
24640,5266
24795,5111
24879,4909
24879,4691
24796,4488
24641,4334
24439,4250
24220,4249
24018,4333
23863,4488
23779,4690
23779,4908
23862,5111
24017,5265
24099,5299
24018,5333
23863,5488
23779,5690
23779,5908
23862,6111
24017,6265
24099,6299
24018,6333
23863,6488
23779,6690
23779,6908
23796,6950
22862,6950
22879,6909
22879,6691
22796,6488
22641,6334
22559,6300
22640,6266
22795,6111
22879,5909
22879,5691
22796,5488
22641,5334
22559,5300
22640,5266
22795,5111
22879,4909
22879,4691
22796,4488
22641,4334
22439,4250
22220,4249
22018,4333
21863,4488
21779,4690
21779,4908
21799,4956
21715,4973
21674,5000
20841,5000
20879,4909
20879,4691
20796,4488
20641,4334
20439,4250
20220,4249
20018,4333
19940,4410
19891,4291
19788,4188
19653,4131
19506,4131
19371,4187
19358,4200
13329,4200
9448,4200
9403,4181
9256,4181
9121,4237
9017,4341
8961,4476
8961,4622
9017,4758
9120,4861
9255,4918
9402,4918
9537,4862
9600,4799
9961,4799
9961,4872
10017,5008
10120,5111
10255,5168
10402,5168
10537,5112
10550,5099
13579,5099
13629,5099
13844,5099
13804,5195
13804,5403
13884,5597
14031,5744
14164,5800
14032,5854
13884,6002
13804,6195
13804,6403
13884,6597
14031,6744
14039,6748
14053,6814
14117,6911
14514,7308
14434,7275
14225,7274
14032,7354
13884,7502
13804,7695
13804,7801
13591,7588
13494,7523
13379,7500
13272,7500
13127,7355
12934,7275
12725,7274
12532,7354
12384,7502
12304,7695
12304,7903
12384,8097
12531,8244
12664,8300
12532,8354
12384,8502
12304,8695
12304,8903
12344,9000
11772,9000
11627,8855
11494,8799
11626,8745
11774,8597
11854,8404
11854,8196
11774,8003
11627,7855
11494,7799
11626,7745
11774,7597
11854,7404
11854,7196
11774,7003
11627,6855
11494,6799
11626,6745
11774,6597
11854,6404
11854,6196
11774,6003
11627,5855
11434,5775
11225,5774
11032,5854
10884,6002
10804,6195
10804,6403
10884,6597
11031,6744
11164,6800
11032,6854
10884,7002
10804,7195
10804,7403
10884,7597
11031,7744
11164,7800
11032,7854
10886,8000
9550,8000
9538,7988
9403,7931
9256,7931
9121,7987
9017,8091
8961,8226
8961,8372
9017,8508
9120,8611
9255,8668
9402,8668
9537,8612
9550,8599
10886,8599
11031,8744
11164,8800
11032,8854
10884,9002
10804,9195
10804,9403
10884,9597
11031,9744
11164,9800
11032,9854
10884,10002
10804,10195
10804,10403
10844,10500
8814,10500
8854,10404
8854,10196
8774,10003
8627,9855
8494,9799
8626,9745
8774,9597
8854,9404
8854,9196
8774,9003
8627,8855
8494,8799
8626,8745
8774,8597
8854,8404
8854,8196
8774,8003
8627,7855
8494,7799
8626,7745
8774,7597
8854,7404
8854,7196
8774,7003
8627,6855
8494,6799
8626,6745
8774,6597
8854,6404
8854,6196
8774,6003
8627,5855
8554,5825
8654,5825
8745,5787
8816,5716
8854,5624
8854,5525
8854,4975
8816,4883
8746,4813
8654,4775
8555,4774
8005,4774
7913,4812
7842,4883
7804,4975
7804,5000
7772,5000
7627,4855
7434,4775
7225,4774
7032,4854
6884,5002
6804,5195
6804,5403
6884,5597
7031,5744
7164,5800
7032,5854
6884,6002
6804,6195
6804,6403
6884,6597
7030,6743
7030,6900
7053,7014
7117,7111
7281,7274
7225,7274
7032,7354
6884,7502
6804,7695
6804,7903
6838,7985
6441,7588
6344,7523
6277,7510
6274,7503
6127,7355
5934,7275
5725,7274
5532,7354
5384,7502
5304,7695
5304,7903
5384,8097
5531,8244
5664,8300
5532,8354
5384,8502
5304,8695
5304,8903
5384,9097
5531,9244
5724,9324
5933,9325
6126,9245
6164,9207
6467,9511
6565,9576
6565,9576
6679,9599
7886,9599
8031,9744
8164,9800
8032,9854
7886,10000
7772,10000
7627,9855
7434,9775
7225,9774
7032,9854
6884,10002
6804,10195
6804,10403
6847,10507
6847,10507
6765,10523
6667,10588
6255,11000
5772,11000
5627,10855
5434,10775
5225,10774
5032,10854
4886,11000
4329,11000
4215,11023
4117,11088
3956,11249
3480,11249
3388,11287
3317,11358
3279,11450
3279,11549
3279,12149
3317,12241
3387,12311
3479,12349
3501,12349
3363,12488
3279,12690
3279,12908
3362,13111
3517,13265
3599,13299
3518,13333
3363,13488
3279,13690
3279,13908
3362,14111
3517,14265
3599,14299
3518,14333
3363,14488
3279,14690
3279,14908
3362,15111
3517,15265
3599,15299
3518,15333
3363,15488
3279,15690
3279,15908
3362,16111
3517,16265
3719,16349
3938,16350
4140,16266
4295,16111
4379,15909
4379,15691
4296,15488
4141,15334
4059,15300
4140,15266
4295,15111
4300,15099
4886,15099
5031,15244
5224,15324
5431,15325
6117,16011
6215,16076
6215,16076
6234,16080
6329,16099
8886,16099
9031,16244
9224,16324
9433,16325
9626,16245
9774,16097
9829,15964
9884,16097
10031,16244
10224,16324
10433,16325
10626,16245
10774,16097
10829,15964
10884,16097
11031,16244
11224,16324
11433,16325
11626,16245
11774,16097
11829,15964
11884,16097
12031,16244
12224,16324
12433,16325
12626,16245
12774,16097
12854,15904
12854,15696
12774,15503
12627,15355
12434,15275
12225,15274
12032,15354
11884,15502
11829,15635
11774,15503
11627,15355
11434,15275
11227,15274
10541,14588
10444,14523
10329,14500
7953,14500
5854,12401
5854,12196
5774,12003
5627,11855
5494,11799
5626,11745
5772,11599
6379,11599
6494,11576
6591,11511
6804,11298
6804,11403
6884,11597
7031,11744
7224,11824
7433,11825
7626,11745
7774,11597
7829,11464
7884,11597
8031,11744
8164,11800
8032,11854
7884,12002
7804,12195
7804,12403
7884,12597
8031,12744
8224,12824
8337,12825
8606,13422
8647,13481
8667,13511
8670,13513
8673,13517
8732,13554
8765,13576
8768,13577
8772,13579
8836,13590
8879,13599
8887,13599
8887,13599
8888,13599
16107,13599
15931,13775
15725,13774
15532,13854
15384,14002
15304,14195
15304,14403
15384,14597
15531,14744
15724,14824
15933,14825
16126,14745
16274,14597
16329,14464
16384,14597
16531,14744
16724,14824
16933,14825
17126,14745
17272,14599
17304,14599
17304,14624
17342,14716
17412,14786
17504,14824
17604,14825
17604,14825
17532,14854
17384,15002
17304,15195
17304,15403
17384,15597
17531,15744
17664,15800
17532,15854
17384,16002
17304,16195
17304,16403
17384,16597
17531,16744
17664,16800
17532,16854
17384,17002
17304,17195
17304,17403
17344,17500
14329,17500
14215,17523
14117,17588
13956,17749
13480,17749
13388,17787
13317,17858
13279,17950
13279,18049
13279,18649
13317,18741
13387,18811
13479,18849
13579,18850
14179,18850
14270,18812
14341,18741
14379,18649
14379,18627
14517,18765
14719,18849
14938,18850
15140,18766
15295,18611
15329,18530
15362,18611
15517,18765
15719,18849
15938,18850
16140,18766
16295,18611
16329,18530
16362,18611
16517,18765
16719,18849
16938,18850
17140,18766
17295,18611
17379,18409
17379,18191
17341,18099
20108,18099
20120,18111
20255,18168
20402,18168
20537,18112
20641,18008
20697,17873
20697,17813
20724,17824
20933,17825
21126,17745
21274,17597
21354,17404
21354,17196
21274,17003
21127,16855
20994,16799
21126,16745
21274,16597
21354,16404
21354,16196
21311,16092
21394,16076
21491,16011
21899,15603
22641,15603
22693,15728
22904,15939
23179,16053
23478,16054
23753,15940
23868,15825
26666,15825
26852,16012
27161,16140
27495,16140
27805,16012
28041,15776
28169,15467
28170,15133
28170,17562
27935,17659
27639,17954
27479,18340
27479,18757
27638,19144
27933,19439
28319,19599
28737,19600
29123,19440
29250,19314
29250,19434
" /> 
</g>
<g style="fill:#FFFFFF; fill-opacity:0.0; 
stroke:#FFFFFF; stroke-width:39.3701; stroke-opacity:1; 
stroke-linecap:round; stroke-linejoin:round;">
</g>
<g style="fill:#FFFFFF; fill-opacity:1.0; 
stroke:#FFFFFF; stroke-width:39.3701; stroke-opacity:1; 
stroke-linecap:round; stroke-linejoin:round;">
<circle cx="22279.5" cy="19600" r="59.0551" /> 
<circle cx="25829.5" cy="19300" r="59.0551" /> 
<circle cx="3079.53" cy="18050" r="59.0551" /> 
<circle cx="3079.53" cy="2800" r="59.0551" /> 
<circle cx="20329.5" cy="17800" r="59.0551" /> 
<circle cx="20379.5" cy="10300" r="59.0551" /> 
<circle cx="12829.5" cy="12300" r="59.0551" /> 
<circle cx="13479.5" cy="9350" r="59.0551" /> 
<circle cx="16329.5" cy="12300" r="59.0551" /> 
<circle cx="12329.5" cy="10750" r="59.0551" /> 
<circle cx="19479.5" cy="7250" r="59.0551" /> 
<circle cx="19479.5" cy="12800" r="59.0551" /> 
<circle cx="9329.53" cy="8300" r="59.0551" /> 
<circle cx="9329.53" cy="4550" r="59.0551" /> 
<circle cx="19529.5" cy="6250" r="59.0551" /> 
<circle cx="19579.5" cy="4500" r="59.0551" /> 
<circle cx="18829.5" cy="5800" r="59.0551" /> 
<circle cx="18929.5" cy="13300" r="59.0551" /> 
<circle cx="23829.5" cy="10350" r="59.0551" /> 
<circle cx="10329.5" cy="4800" r="59.0551" /> 
<circle cx="9079.53" cy="13000" r="59.0551" /> 
<circle cx="15829.5" cy="13050" r="59.0551" /> 
<circle cx="15829.5" cy="6800" r="59.0551" /> 
<circle cx="13529.5" cy="20550" r="180.315" /> 
<circle cx="14529.5" cy="20550" r="180.315" /> 
<circle cx="15529.5" cy="20550" r="180.315" /> 
<circle cx="16529.5" cy="20550" r="180.315" /> 
<circle cx="17529.5" cy="20550" r="180.315" /> 
<circle cx="18529.5" cy="20550" r="180.315" /> 
<circle cx="19529.5" cy="20550" r="180.315" /> 
<circle cx="20529.5" cy="20550" r="180.315" /> 
<circle cx="22529.5" cy="20550" r="180.315" /> 
<circle cx="23529.5" cy="20550" r="180.315" /> 
<circle cx="24529.5" cy="20550" r="180.315" /> 
<circle cx="25529.5" cy="20550" r="180.315" /> 
<circle cx="26529.5" cy="20550" r="180.315" /> 
<circle cx="27529.5" cy="20550" r="180.315" /> 
<circle cx="9929.53" cy="1550" r="180.315" /> 
<circle cx="10929.5" cy="1550" r="180.315" /> 
<circle cx="11929.5" cy="1550" r="180.315" /> 
<circle cx="12929.5" cy="1550" r="180.315" /> 
<circle cx="13929.5" cy="1550" r="180.315" /> 
<circle cx="14929.5" cy="1550" r="180.315" /> 
<circle cx="15929.5" cy="1550" r="180.315" /> 
<circle cx="16929.5" cy="1550" r="180.315" /> 
<circle cx="17929.5" cy="1550" r="180.315" /> 
<circle cx="18929.5" cy="1550" r="180.315" /> 
<circle cx="20529.5" cy="1550" r="180.315" /> 
<circle cx="21529.5" cy="1550" r="180.315" /> 
<circle cx="22529.5" cy="1550" r="180.315" /> 
<circle cx="23529.5" cy="1550" r="180.315" /> 
<circle cx="24529.5" cy="1550" r="180.315" /> 
<circle cx="25529.5" cy="1550" r="180.315" /> 
<circle cx="26529.5" cy="1550" r="180.315" /> 
<circle cx="27529.5" cy="1550" r="180.315" /> 
<circle cx="8029.53" cy="20550" r="580.315" /> 
<circle cx="28529.5" cy="18550" r="580.315" /> 
<circle cx="8529.53" cy="1550" r="580.315" /> 
<circle cx="28529.5" cy="7550" r="580.315" /> 
<circle cx="5329.53" cy="14800" r="140.315" /> 
<circle cx="5329.53" cy="13800" r="140.315" /> 
<circle cx="5329.53" cy="12300" r="140.315" /> 
<circle cx="5329.53" cy="11300" r="140.315" /> 
<circle cx="20829.5" cy="13300" r="140.315" /> 
<circle cx="20829.5" cy="12300" r="140.315" /> 
<circle cx="15829.5" cy="14300" r="140.315" /> 
<circle cx="16829.5" cy="14300" r="140.315" /> 
<circle cx="3829.53" cy="11800" r="180.315" /> 
<circle cx="3829.53" cy="12800" r="180.315" /> 
<circle cx="3829.53" cy="13800" r="180.315" /> 
<circle cx="3829.53" cy="14800" r="180.315" /> 
<circle cx="3829.53" cy="15800" r="180.315" /> 
<circle cx="24329.5" cy="7800" r="180.315" /> 
<circle cx="24329.5" cy="6800" r="180.315" /> 
<circle cx="24329.5" cy="5800" r="180.315" /> 
<circle cx="24329.5" cy="4800" r="180.315" /> 
<circle cx="22329.5" cy="7800" r="180.315" /> 
<circle cx="22329.5" cy="6800" r="180.315" /> 
<circle cx="22329.5" cy="5800" r="180.315" /> 
<circle cx="22329.5" cy="4800" r="180.315" /> 
<circle cx="20329.5" cy="7800" r="180.315" /> 
<circle cx="20329.5" cy="6800" r="180.315" /> 
<circle cx="20329.5" cy="5800" r="180.315" /> 
<circle cx="20329.5" cy="4800" r="180.315" /> 
<circle cx="17829.5" cy="14300" r="140.315" /> 
<circle cx="17829.5" cy="15300" r="140.315" /> 
<circle cx="17829.5" cy="16300" r="140.315" /> 
<circle cx="17829.5" cy="17300" r="140.315" /> 
<circle cx="20829.5" cy="17300" r="140.315" /> 
<circle cx="20829.5" cy="16300" r="140.315" /> 
<circle cx="20829.5" cy="15300" r="140.315" /> 
<circle cx="20829.5" cy="14300" r="140.315" /> 
<circle cx="9329.53" cy="18800" r="140.315" /> 
<circle cx="10329.5" cy="18800" r="140.315" /> 
<circle cx="11329.5" cy="18800" r="140.315" /> 
<circle cx="12329.5" cy="18800" r="140.315" /> 
<circle cx="12329.5" cy="15800" r="140.315" /> 
<circle cx="11329.5" cy="15800" r="140.315" /> 
<circle cx="10329.5" cy="15800" r="140.315" /> 
<circle cx="9329.53" cy="15800" r="140.315" /> 
<circle cx="15329.5" cy="5300" r="140.315" /> 
<circle cx="15329.5" cy="6300" r="140.315" /> 
<circle cx="15329.5" cy="7300" r="140.315" /> 
<circle cx="15329.5" cy="8300" r="140.315" /> 
<circle cx="15329.5" cy="9300" r="140.315" /> 
<circle cx="15329.5" cy="10300" r="140.315" /> 
<circle cx="15329.5" cy="11300" r="140.315" /> 
<circle cx="15329.5" cy="12300" r="140.315" /> 
<circle cx="18329.5" cy="12300" r="140.315" /> 
<circle cx="18329.5" cy="11300" r="140.315" /> 
<circle cx="18329.5" cy="10300" r="140.315" /> 
<circle cx="18329.5" cy="9300" r="140.315" /> 
<circle cx="18329.5" cy="8300" r="140.315" /> 
<circle cx="18329.5" cy="7300" r="140.315" /> 
<circle cx="18329.5" cy="6300" r="140.315" /> 
<circle cx="18329.5" cy="5300" r="140.315" /> 
<circle cx="8329.53" cy="5300" r="140.315" /> 
<circle cx="8329.53" cy="6300" r="140.315" /> 
<circle cx="8329.53" cy="7300" r="140.315" /> 
<circle cx="8329.53" cy="8300" r="140.315" /> 
<circle cx="8329.53" cy="9300" r="140.315" /> 
<circle cx="8329.53" cy="10300" r="140.315" /> 
<circle cx="8329.53" cy="11300" r="140.315" /> 
<circle cx="8329.53" cy="12300" r="140.315" /> 
<circle cx="11329.5" cy="12300" r="140.315" /> 
<circle cx="11329.5" cy="11300" r="140.315" /> 
<circle cx="11329.5" cy="10300" r="140.315" /> 
<circle cx="11329.5" cy="9300" r="140.315" /> 
<circle cx="11329.5" cy="8300" r="140.315" /> 
<circle cx="11329.5" cy="7300" r="140.315" /> 
<circle cx="11329.5" cy="6300" r="140.315" /> 
<circle cx="11329.5" cy="5300" r="140.315" /> 
<circle cx="7329.53" cy="10300" r="140.315" /> 
<circle cx="7329.53" cy="11300" r="140.315" /> 
<circle cx="10329.5" cy="3300" r="140.315" /> 
<circle cx="9329.53" cy="3300" r="140.315" /> 
<circle cx="5829.53" cy="7800" r="140.315" /> 
<circle cx="5829.53" cy="8800" r="140.315" /> 
<circle cx="7329.53" cy="7800" r="140.315" /> 
<circle cx="7329.53" cy="8800" r="140.315" /> 
<circle cx="14329.5" cy="5300" r="140.315" /> 
<circle cx="14329.5" cy="6300" r="140.315" /> 
<circle cx="14329.5" cy="7800" r="140.315" /> 
<circle cx="14329.5" cy="8800" r="140.315" /> 
<circle cx="12829.5" cy="7800" r="140.315" /> 
<circle cx="12829.5" cy="8800" r="140.315" /> 
<circle cx="14329.5" cy="10300" r="140.315" /> 
<circle cx="14329.5" cy="11300" r="140.315" /> 
<circle cx="17329.5" cy="3300" r="140.315" /> 
<circle cx="16329.5" cy="3300" r="140.315" /> 
<circle cx="7329.53" cy="5300" r="140.315" /> 
<circle cx="7329.53" cy="6300" r="140.315" /> 
<circle cx="27329.5" cy="13300" r="226.315" /> 
<circle cx="27329.5" cy="15300" r="226.315" /> 
<circle cx="23329.5" cy="17311.8" r="280.315" /> 
<circle cx="23329.5" cy="15303.9" r="280.315" /> 
<circle cx="23329.5" cy="13296.1" r="280.315" /> 
<circle cx="23329.5" cy="11288.2" r="280.315" /> 
<circle cx="13829.5" cy="18300" r="180.315" /> 
<circle cx="14829.5" cy="18300" r="180.315" /> 
<circle cx="15829.5" cy="18300" r="180.315" /> 
<circle cx="16829.5" cy="18300" r="180.315" /> 
<circle cx="10329.5" cy="20300" r="140.315" /> 
<circle cx="11329.5" cy="20300" r="140.315" /> 
</g> 
</svg>
