<?xml version="1.0" standalone="no"?>
 <!DOCTYPE svg PUBLIC "-//W3C//DTD SVG 1.1//EN" 
 "http://www.w3.org/Graphics/SVG/1.1/DTD/svg11.dtd"> 
<svg xmlns="http://www.w3.org/2000/svg" version="1.1" 
    width="29.7002cm" height="21.0007cm" viewBox="0 0 116930 82680 ">
<title>SVG Picture created as STM32ShieldForMetroMiniSlaves-Dwgs_User.svg date 2018/06/16 15:35:13 </title>
  <desc>Picture generated by PCBNEW </desc>
<g style="fill:#000000; fill-opacity:1;stroke:#000000; stroke-opacity:1;
stroke-linecap:round; stroke-linejoin:round; "
 transform="translate(0 0) scale(1 1)">
</g>
<g style="fill:#000000; fill-opacity:0.0; 
stroke:#000000; stroke-width:39.3701; stroke-opacity:1; 
stroke-linecap:round; stroke-linejoin:round;">
<path d="M4000 4000
L112930 4000
L112930 78680
L4000 78680
L4000 4000
" />
<path d="M4700 4700
L112230 4700
L112230 77980
L4700 77980
L4700 4700
" />
<path d="M25780 4000
L25780 4700
" />
<path d="M15032 4552
L14747 4552
" />
<path d="M14890 4552
L14890 4052
L14842 4123
L14794 4171
L14747 4195
" />
<path d="M25780 78680
L25780 77980
" />
<path d="M15032 78532
L14747 78532
" />
<path d="M14890 78532
L14890 78032
L14842 78103
L14794 78151
L14747 78175
" />
<path d="M47560 4000
L47560 4700
" />
<path d="M36527 4100
L36550 4076
L36598 4052
L36717 4052
L36765 4076
L36789 4100
L36812 4147
L36812 4195
L36789 4266
L36503 4552
L36812 4552
" />
<path d="M47560 78680
L47560 77980
" />
<path d="M36527 78080
L36550 78056
L36598 78032
L36717 78032
L36765 78056
L36789 78080
L36812 78127
L36812 78175
L36789 78246
L36503 78532
L36812 78532
" />
<path d="M69340 4000
L69340 4700
" />
<path d="M58283 4052
L58592 4052
L58426 4242
L58497 4242
L58545 4266
L58569 4290
L58592 4338
L58592 4457
L58569 4504
L58545 4528
L58497 4552
L58354 4552
L58307 4528
L58283 4504
" />
<path d="M69340 78680
L69340 77980
" />
<path d="M58283 78032
L58592 78032
L58426 78222
L58497 78222
L58545 78246
L58569 78270
L58592 78318
L58592 78437
L58569 78484
L58545 78508
L58497 78532
L58354 78532
L58307 78508
L58283 78484
" />
<path d="M91120 4000
L91120 4700
" />
<path d="M80325 4219
L80325 4552
" />
<path d="M80206 4028
L80087 4385
L80396 4385
" />
<path d="M91120 78680
L91120 77980
" />
<path d="M80325 78199
L80325 78532
" />
<path d="M80206 78008
L80087 78365
L80396 78365
" />
<path d="M102129 4052
L101890 4052
L101867 4290
L101890 4266
L101938 4242
L102057 4242
L102105 4266
L102129 4290
L102152 4338
L102152 4457
L102129 4504
L102105 4528
L102057 4552
L101938 4552
L101890 4528
L101867 4504
" />
<path d="M102129 78032
L101890 78032
L101867 78270
L101890 78246
L101938 78222
L102057 78222
L102105 78246
L102129 78270
L102152 78318
L102152 78437
L102129 78484
L102105 78508
L102057 78532
L101938 78532
L101890 78508
L101867 78484
" />
<path d="M4000 28890
L4700 28890
" />
<path d="M4230 16509
L4469 16509
" />
<path d="M4183 16652
L4350 16152
L4516 16652
" />
<path d="M112930 28890
L112230 28890
" />
<path d="M112460 16509
L112699 16509
" />
<path d="M112413 16652
L112580 16152
L112746 16652
" />
<path d="M4000 53780
L4700 53780
" />
<path d="M4385 41280
L4457 41304
L4480 41328
L4504 41375
L4504 41447
L4480 41494
L4457 41518
L4409 41542
L4219 41542
L4219 41042
L4385 41042
L4433 41066
L4457 41090
L4480 41137
L4480 41185
L4457 41232
L4433 41256
L4385 41280
L4219 41280
" />
<path d="M112930 53780
L112230 53780
" />
<path d="M112615 41280
L112687 41304
L112710 41328
L112734 41375
L112734 41447
L112710 41494
L112687 41518
L112639 41542
L112449 41542
L112449 41042
L112615 41042
L112663 41066
L112687 41090
L112710 41137
L112710 41185
L112687 41232
L112663 41256
L112615 41280
L112449 41280
" />
<path d="M4504 66384
L4480 66408
L4409 66432
L4361 66432
L4290 66408
L4242 66360
L4219 66313
L4195 66218
L4195 66146
L4219 66051
L4242 66003
L4290 65956
L4361 65932
L4409 65932
L4480 65956
L4504 65980
" />
<path d="M112734 66384
L112710 66408
L112639 66432
L112591 66432
L112520 66408
L112472 66360
L112449 66313
L112425 66218
L112425 66146
L112449 66051
L112472 66003
L112520 65956
L112591 65932
L112639 65932
L112710 65956
L112734 65980
" />
<path d="M79380 76422
L79455 75822
L79597 75822
L79680 75851
L79730 75908
L79751 75965
L79765 76080
L79755 76165
L79712 76280
L79676 76337
L79612 76394
L79522 76422
L79380 76422
" />
<path d="M80237 76422
L80276 76108
L80255 76051
L80201 76022
L80087 76022
L80026 76051
" />
<path d="M80240 76394
L80180 76422
L80037 76422
L79983 76394
L79962 76337
L79969 76280
L80005 76222
L80065 76194
L80208 76194
L80269 76165
" />
<path d="M80487 76022
L80715 76022
" />
<path d="M80597 75822
L80533 76337
L80555 76394
L80608 76422
L80665 76422
" />
<path d="M81097 76394
L81037 76422
L80922 76422
L80869 76394
L80847 76337
L80876 76108
L80912 76051
L80972 76022
L81087 76022
L81140 76051
L81162 76108
L81155 76165
L80862 76222
" />
<path d="M81387 76365
L81412 76394
L81380 76422
L81355 76394
L81387 76365
L81380 76422
" />
<path d="M81426 76051
L81451 76080
L81419 76108
L81394 76080
L81426 76051
L81419 76108
" />
<path d="M82437 76422
L82094 76422
" />
<path d="M82265 76422
L82340 75822
L82272 75908
L82208 75965
L82147 75994
" />
<path d="M83026 75822
L82912 75822
L82851 75851
L82819 75880
L82751 75965
L82708 76080
L82680 76308
L82701 76365
L82726 76394
L82780 76422
L82894 76422
L82955 76394
L82987 76365
L83022 76308
L83040 76165
L83019 76108
L82994 76080
L82940 76051
L82826 76051
L82765 76080
L82733 76108
L82697 76165
" />
<path d="M83772 76022
L83708 76537
L83672 76594
L83612 76622
L83583 76622
" />
<path d="M83797 75822
L83765 75851
L83790 75880
L83822 75851
L83797 75822
L83790 75880
" />
<path d="M84315 76022
L84265 76422
" />
<path d="M84058 76022
L84019 76337
L84040 76394
L84094 76422
L84180 76422
L84240 76394
L84272 76365
" />
<path d="M84601 76022
L84551 76422
" />
<path d="M84594 76080
L84626 76051
L84687 76022
L84772 76022
L84826 76051
L84847 76108
L84808 76422
" />
<path d="M85590 75880
L85622 75851
L85683 75822
L85826 75822
L85880 75851
L85905 75880
L85926 75937
L85919 75994
L85880 76080
L85494 76422
L85865 76422
" />
<path d="M86312 75822
L86369 75822
L86422 75851
L86447 75880
L86469 75937
L86483 76051
L86465 76194
L86422 76308
L86387 76365
L86355 76394
L86294 76422
L86237 76422
L86183 76394
L86158 76365
L86137 76308
L86122 76194
L86140 76051
L86183 75937
L86219 75880
L86251 75851
L86312 75822
" />
<path d="M87008 76422
L86665 76422
" />
<path d="M86837 76422
L86912 75822
L86844 75908
L86780 75965
L86719 75994
" />
<path d="M87394 76080
L87340 76051
L87315 76022
L87294 75965
L87297 75937
L87333 75880
L87365 75851
L87426 75822
L87540 75822
L87594 75851
L87619 75880
L87640 75937
L87637 75965
L87601 76022
L87569 76051
L87508 76080
L87394 76080
L87333 76108
L87301 76137
L87265 76194
L87251 76308
L87272 76365
L87297 76394
L87351 76422
L87465 76422
L87526 76394
L87558 76365
L87594 76308
L87608 76194
L87587 76137
L87562 76108
L87508 76080
" />
<path d="M70972 77622
L70972 77022
" />
<path d="M71315 77622
L71058 77280
" />
<path d="M71315 77022
L70972 77365
" />
<path d="M71572 77622
L71572 77222
" />
<path d="M71572 77022
L71544 77051
L71572 77080
L71601 77051
L71572 77022
L71572 77080
" />
<path d="M72201 77565
L72172 77594
L72087 77622
L72030 77622
L71944 77594
L71887 77537
L71858 77480
L71830 77365
L71830 77280
L71858 77165
L71887 77108
L71944 77051
L72030 77022
L72087 77022
L72172 77051
L72201 77080
" />
<path d="M72715 77622
L72715 77308
L72687 77251
L72630 77222
L72515 77222
L72458 77251
" />
<path d="M72715 77594
L72658 77622
L72515 77622
L72458 77594
L72430 77537
L72430 77480
L72458 77422
L72515 77394
L72658 77394
L72715 77365
" />
<path d="M73258 77622
L73258 77022
" />
<path d="M73258 77594
L73201 77622
L73087 77622
L73030 77594
L73001 77565
L72972 77508
L72972 77337
L73001 77280
L73030 77251
L73087 77222
L73201 77222
L73258 77251
" />
<path d="M74001 77308
L74201 77308
" />
<path d="M74287 77622
L74001 77622
L74001 77022
L74287 77022
" />
<path d="M74544 77565
L74572 77594
L74544 77622
L74515 77594
L74544 77565
L74544 77622
" />
<path d="M74829 77622
L74829 77022
L74972 77022
L75058 77051
L75115 77108
L75144 77165
L75172 77280
L75172 77365
L75144 77480
L75115 77537
L75058 77594
L74972 77622
L74829 77622
" />
<path d="M75429 77565
L75458 77594
L75429 77622
L75401 77594
L75429 77565
L75429 77622
" />
<path d="M75687 77451
L75972 77451
" />
<path d="M75629 77622
L75829 77022
L76029 77622
" />
<path d="M76229 77565
L76258 77594
L76229 77622
L76201 77594
L76229 77565
L76229 77622
" />
<path d="M104522 76422
L104358 76137
" />
<path d="M104180 76422
L104255 75822
L104483 75822
L104537 75851
L104562 75880
L104583 75937
L104572 76022
L104537 76080
L104505 76108
L104444 76137
L104215 76137
" />
<path d="M105012 76394
L104951 76422
L104837 76422
L104783 76394
L104762 76337
L104790 76108
L104826 76051
L104887 76022
L105001 76022
L105055 76051
L105076 76108
L105069 76165
L104776 76222
" />
<path d="M105287 76022
L105380 76422
L105572 76022
" />
<path d="M105758 76365
L105783 76394
L105751 76422
L105726 76394
L105758 76365
L105751 76422
" />
<path d="M105797 76051
L105822 76080
L105790 76108
L105765 76080
L105797 76051
L105790 76108
" />
<path d="M70944 76394
L71030 76422
L71172 76422
L71230 76394
L71258 76365
L71287 76308
L71287 76251
L71258 76194
L71230 76165
L71172 76137
L71058 76108
L71001 76080
L70972 76051
L70944 75994
L70944 75937
L70972 75880
L71001 75851
L71058 75822
L71201 75822
L71287 75851
" />
<path d="M71544 76422
L71544 76022
" />
<path d="M71544 75822
L71515 75851
L71544 75880
L71572 75851
L71544 75822
L71544 75880
" />
<path d="M71772 76022
L72087 76022
L71772 76422
L72087 76422
" />
<path d="M72544 76394
L72487 76422
L72372 76422
L72315 76394
L72287 76337
L72287 76108
L72315 76051
L72372 76022
L72487 76022
L72544 76051
L72572 76108
L72572 76165
L72287 76222
" />
<path d="M72830 76365
L72858 76394
L72830 76422
L72801 76394
L72830 76365
L72830 76422
" />
<path d="M72830 76051
L72858 76080
L72830 76108
L72801 76080
L72830 76051
L72830 76108
" />
<path d="M73544 76251
L73830 76251
" />
<path d="M73487 76422
L73687 75822
L73887 76422
" />
<path d="M74344 76022
L74344 76422
" />
<path d="M74201 75794
L74058 76222
L74430 76222
" />
<path d="M104172 77622
L104172 77022
" />
<path d="M104715 77622
L104715 77022
" />
<path d="M104715 77594
L104658 77622
L104544 77622
L104487 77594
L104458 77565
L104430 77508
L104430 77337
L104458 77280
L104487 77251
L104544 77222
L104658 77222
L104715 77251
" />
<path d="M105001 77565
L105030 77594
L105001 77622
L104972 77594
L105001 77565
L105001 77622
" />
<path d="M105001 77251
L105030 77280
L105001 77308
L104972 77280
L105001 77251
L105001 77308
" />
<path d="M106058 77622
L105715 77622
" />
<path d="M105887 77622
L105887 77022
L105829 77108
L105772 77165
L105715 77194
" />
<path d="M106744 76994
L106230 77765
" />
<path d="M107258 77622
L106915 77622
" />
<path d="M107087 77622
L107087 77022
L107029 77108
L106972 77165
L106915 77194
" />
<path d="M70969 74622
L71312 74622
" />
<path d="M71065 75222
L71140 74622
" />
<path d="M71437 75222
L71487 74822
" />
<path d="M71512 74622
L71480 74651
L71505 74680
L71537 74651
L71512 74622
L71505 74680
" />
<path d="M71687 74822
L71915 74822
" />
<path d="M71797 74622
L71733 75137
L71755 75194
L71808 75222
L71865 75222
" />
<path d="M72151 75222
L72097 75194
L72076 75137
L72140 74622
" />
<path d="M72612 75194
L72551 75222
L72437 75222
L72383 75194
L72362 75137
L72390 74908
L72426 74851
L72487 74822
L72601 74822
L72655 74851
L72676 74908
L72669 74965
L72376 75022
" />
<path d="M72901 75165
L72926 75194
L72894 75222
L72869 75194
L72901 75165
L72894 75222
" />
<path d="M72940 74851
L72965 74880
L72933 74908
L72908 74880
L72940 74851
L72933 74908
" />
<path d="M71172 72508
L70972 72508
" />
<path d="M70972 72822
L70972 72222
L71258 72222
" />
<path d="M71487 72822
L71487 72422
" />
<path d="M71487 72222
L71458 72251
L71487 72280
L71515 72251
L71487 72222
L71487 72280
" />
<path d="M71858 72822
L71801 72794
L71772 72737
L71772 72222
" />
<path d="M72315 72794
L72258 72822
L72144 72822
L72087 72794
L72058 72737
L72058 72508
L72087 72451
L72144 72422
L72258 72422
L72315 72451
L72344 72508
L72344 72565
L72058 72622
" />
<path d="M72601 72765
L72630 72794
L72601 72822
L72572 72794
L72601 72765
L72601 72822
" />
<path d="M72601 72451
L72630 72480
L72601 72508
L72572 72480
L72601 72451
L72601 72508
" />
<path d="M73315 72794
L73401 72822
L73544 72822
L73601 72794
L73630 72765
L73658 72708
L73658 72651
L73630 72594
L73601 72565
L73544 72537
L73430 72508
L73372 72480
L73344 72451
L73315 72394
L73315 72337
L73344 72280
L73372 72251
L73430 72222
L73572 72222
L73658 72251
" />
<path d="M73830 72222
L74172 72222
" />
<path d="M74001 72822
L74001 72222
" />
<path d="M74372 72822
L74372 72222
L74572 72651
L74772 72222
L74772 72822
" />
<path d="M75001 72222
L75372 72222
L75172 72451
L75258 72451
L75315 72480
L75344 72508
L75372 72565
L75372 72708
L75344 72765
L75315 72794
L75258 72822
L75087 72822
L75030 72794
L75001 72765
" />
<path d="M75601 72280
L75630 72251
L75687 72222
L75830 72222
L75887 72251
L75915 72280
L75944 72337
L75944 72394
L75915 72480
L75572 72822
L75944 72822
" />
<path d="M76172 72794
L76258 72822
L76401 72822
L76458 72794
L76487 72765
L76515 72708
L76515 72651
L76487 72594
L76458 72565
L76401 72537
L76287 72508
L76230 72480
L76201 72451
L76172 72394
L76172 72337
L76201 72280
L76230 72251
L76287 72222
L76430 72222
L76515 72251
" />
<path d="M76772 72822
L76772 72222
" />
<path d="M77030 72822
L77030 72508
L77001 72451
L76944 72422
L76858 72422
L76801 72451
L76772 72480
" />
<path d="M77315 72822
L77315 72422
" />
<path d="M77315 72222
L77287 72251
L77315 72280
L77344 72251
L77315 72222
L77315 72280
" />
<path d="M77830 72794
L77772 72822
L77658 72822
L77601 72794
L77572 72737
L77572 72508
L77601 72451
L77658 72422
L77772 72422
L77830 72451
L77858 72508
L77858 72565
L77572 72622
" />
<path d="M78201 72822
L78144 72794
L78115 72737
L78115 72222
" />
<path d="M78687 72822
L78687 72222
" />
<path d="M78687 72794
L78630 72822
L78515 72822
L78458 72794
L78430 72765
L78401 72708
L78401 72537
L78430 72480
L78458 72451
L78515 72422
L78630 72422
L78687 72451
" />
<path d="M79172 72508
L78972 72508
" />
<path d="M78972 72822
L78972 72222
L79258 72222
" />
<path d="M79572 72822
L79515 72794
L79487 72765
L79458 72708
L79458 72537
L79487 72480
L79515 72451
L79572 72422
L79658 72422
L79715 72451
L79744 72480
L79772 72537
L79772 72708
L79744 72765
L79715 72794
L79658 72822
L79572 72822
" />
<path d="M80030 72822
L80030 72422
" />
<path d="M80030 72537
L80058 72480
L80087 72451
L80144 72422
L80201 72422
" />
<path d="M80401 72822
L80401 72222
L80601 72651
L80801 72222
L80801 72822
" />
<path d="M81315 72794
L81258 72822
L81144 72822
L81087 72794
L81058 72737
L81058 72508
L81087 72451
L81144 72422
L81258 72422
L81315 72451
L81344 72508
L81344 72565
L81058 72622
" />
<path d="M81515 72422
L81744 72422
" />
<path d="M81601 72222
L81601 72737
L81630 72794
L81687 72822
L81744 72822
" />
<path d="M81944 72822
L81944 72422
" />
<path d="M81944 72537
L81972 72480
L82001 72451
L82058 72422
L82115 72422
" />
<path d="M82401 72822
L82344 72794
L82315 72765
L82287 72708
L82287 72537
L82315 72480
L82344 72451
L82401 72422
L82487 72422
L82544 72451
L82572 72480
L82601 72537
L82601 72708
L82572 72765
L82544 72794
L82487 72822
L82401 72822
" />
<path d="M82858 72822
L82858 72222
L83058 72651
L83258 72222
L83258 72822
" />
<path d="M83544 72822
L83544 72422
" />
<path d="M83544 72222
L83515 72251
L83544 72280
L83572 72251
L83544 72222
L83544 72280
" />
<path d="M83830 72422
L83830 72822
" />
<path d="M83830 72480
L83858 72451
L83915 72422
L84001 72422
L84058 72451
L84087 72508
L84087 72822
" />
<path d="M84372 72822
L84372 72422
" />
<path d="M84372 72222
L84344 72251
L84372 72280
L84401 72251
L84372 72222
L84372 72280
" />
<path d="M84630 72794
L84715 72822
L84858 72822
L84915 72794
L84944 72765
L84972 72708
L84972 72651
L84944 72594
L84915 72565
L84858 72537
L84744 72508
L84687 72480
L84658 72451
L84630 72394
L84630 72337
L84658 72280
L84687 72251
L84744 72222
L84887 72222
L84972 72251
" />
<path d="M85315 72822
L85258 72794
L85230 72737
L85230 72222
" />
<path d="M85801 72822
L85801 72508
L85772 72451
L85715 72422
L85601 72422
L85544 72451
" />
<path d="M85801 72794
L85744 72822
L85601 72822
L85544 72794
L85515 72737
L85515 72680
L85544 72622
L85601 72594
L85744 72594
L85801 72565
" />
<path d="M86030 72422
L86172 72822
L86315 72422
" />
<path d="M86772 72794
L86715 72822
L86601 72822
L86544 72794
L86515 72737
L86515 72508
L86544 72451
L86601 72422
L86715 72422
L86772 72451
L86801 72508
L86801 72565
L86515 72622
" />
<path d="M87030 72794
L87087 72822
L87201 72822
L87258 72794
L87287 72737
L87287 72708
L87258 72651
L87201 72622
L87115 72622
L87058 72594
L87030 72537
L87030 72508
L87058 72451
L87115 72422
L87201 72422
L87258 72451
" />
<path d="M87544 72765
L87572 72794
L87544 72822
L87515 72794
L87544 72765
L87544 72822
" />
<path d="M87830 72822
L87830 72222
" />
<path d="M87887 72594
L88058 72822
" />
<path d="M88058 72422
L87830 72651
" />
<path d="M88315 72822
L88315 72422
" />
<path d="M88315 72222
L88287 72251
L88315 72280
L88344 72251
L88315 72222
L88315 72280
" />
<path d="M88858 72794
L88801 72822
L88687 72822
L88630 72794
L88601 72765
L88572 72708
L88572 72537
L88601 72480
L88630 72451
L88687 72422
L88801 72422
L88858 72451
" />
<path d="M89372 72822
L89372 72508
L89344 72451
L89287 72422
L89172 72422
L89115 72451
" />
<path d="M89372 72794
L89315 72822
L89172 72822
L89115 72794
L89087 72737
L89087 72680
L89115 72622
L89172 72594
L89315 72594
L89372 72565
" />
<path d="M89915 72822
L89915 72222
" />
<path d="M89915 72794
L89858 72822
L89744 72822
L89687 72794
L89658 72765
L89630 72708
L89630 72537
L89658 72480
L89687 72451
L89744 72422
L89858 72422
L89915 72451
" />
<path d="M90058 72880
L90515 72880
" />
<path d="M90658 72422
L90658 73022
" />
<path d="M90658 72451
L90715 72422
L90830 72422
L90887 72451
L90915 72480
L90944 72537
L90944 72708
L90915 72765
L90887 72794
L90830 72822
L90715 72822
L90658 72794
" />
<path d="M91458 72794
L91401 72822
L91287 72822
L91230 72794
L91201 72765
L91172 72708
L91172 72537
L91201 72480
L91230 72451
L91287 72422
L91401 72422
L91458 72451
" />
<path d="M91715 72822
L91715 72222
" />
<path d="M91715 72451
L91772 72422
L91887 72422
L91944 72451
L91972 72480
L92001 72537
L92001 72708
L91972 72765
L91944 72794
L91887 72822
L91772 72822
L91715 72794
" />
<path d="M70944 73994
L71030 74022
L71172 74022
L71230 73994
L71258 73965
L71287 73908
L71287 73851
L71258 73794
L71230 73765
L71172 73737
L71058 73708
L71001 73680
L70972 73651
L70944 73594
L70944 73537
L70972 73480
L71001 73451
L71058 73422
L71201 73422
L71287 73451
" />
<path d="M71544 74022
L71544 73422
" />
<path d="M71801 74022
L71801 73708
L71772 73651
L71715 73622
L71630 73622
L71572 73651
L71544 73680
" />
<path d="M72315 73994
L72258 74022
L72144 74022
L72087 73994
L72058 73937
L72058 73708
L72087 73651
L72144 73622
L72258 73622
L72315 73651
L72344 73708
L72344 73765
L72058 73822
" />
<path d="M72830 73994
L72772 74022
L72658 74022
L72601 73994
L72572 73937
L72572 73708
L72601 73651
L72658 73622
L72772 73622
L72830 73651
L72858 73708
L72858 73765
L72572 73822
" />
<path d="M73030 73622
L73258 73622
" />
<path d="M73115 73422
L73115 73937
L73144 73994
L73201 74022
L73258 74022
" />
<path d="M73458 73965
L73487 73994
L73458 74022
L73430 73994
L73458 73965
L73458 74022
" />
<path d="M73458 73651
L73487 73680
L73458 73708
L73430 73680
L73458 73651
L73458 73708
" />
<path d="M70230 71980
L70230 77980
" />
<path d="M70230 71980
L112230 71980
" />
<path d="M70230 71980
L112230 71980
" />
<path d="M70230 74380
L112230 74380
" />
<path d="M103430 75580
L103430 77980
" />
<path d="M70230 76780
L112230 76780
" />
<path d="M70230 75580
L112230 75580
" />
<path d="M76830 75580
L76830 76780
" />
</g>
<g style="fill:#C0C0C0; fill-opacity:0.0; 
stroke:#C0C0C0; stroke-width:59.0551; stroke-opacity:1; 
stroke-linecap:round; stroke-linejoin:round;">
<circle cx="46200" cy="30300" r="500" /> 
<path d="M45050 31100
L45050 29500
" />
<path d="M47350 31100
L45050 31100
" />
<path d="M47350 29500
L47350 31100
" />
<path d="M45050 29500
L47350 29500
" />
<path d="M47450 37000
L41200 37000
" />
</g>
<g style="fill:#FFFF00; fill-opacity:0.0; 
stroke:#FFFF00; stroke-width:59.0551; stroke-opacity:1; 
stroke-linecap:round; stroke-linejoin:round;">
<path d="M69700 29350
L69100 28750
" />
<path d="M69700 33850
L69700 29350
" />
<path d="M70700 34850
L69700 33850
" />
<path d="M70700 47750
L70700 34850
" />
<path d="M69700 48750
L70700 47750
" />
<path d="M69700 49750
L69700 48750
" />
<path d="M43700 49750
L69700 49750
" />
<path d="M43700 28750
L43700 49750
" />
<path d="M69100 28750
L43700 28750
" />
</g>
<g style="fill:#C0C0C0; fill-opacity:0.0; 
stroke:#C0C0C0; stroke-width:59.0551; stroke-opacity:1; 
stroke-linecap:round; stroke-linejoin:round;">
<path d="M68250 40250
L68250 37250
" />
<path d="M70250 40250
L68250 40250
" />
<path d="M70250 37250
L70250 40250
" />
<path d="M68250 37250
L70250 37250
" />
<path d="M42950 48500
L42950 45000
" />
<path d="M48200 48500
L42950 48500
" />
<path d="M48200 45000
L48200 48500
" />
<path d="M42950 45000
L48200 45000
" />
<path d="M41200 37000
L41200 32500
" />
<path d="M47450 32500
L47450 37000
" />
<path d="M41200 32500
L47450 32500
" />
</g> 
</svg>
