<?xml version="1.0" standalone="no"?>
 <!DOCTYPE svg PUBLIC "-//W3C//DTD SVG 1.1//EN" 
 "http://www.w3.org/Graphics/SVG/1.1/DTD/svg11.dtd"> 
<svg xmlns="http://www.w3.org/2000/svg" version="1.1" 
    width="29.7002cm" height="21.0007cm" viewBox="0 0 116930 82680 ">
<title>SVG Picture created as STM32ShieldForMetroMiniSlaves-F_Cu.svg date 2018/06/16 18:26:37 </title>
  <desc>Picture generated by PCBNEW </desc>
<g style="fill:#000000; fill-opacity:1;stroke:#000000; stroke-opacity:1;
stroke-linecap:round; stroke-linejoin:round; "
 transform="translate(0 0) scale(1 1)">
</g>
<g style="fill:#000000; fill-opacity:0.0; 
stroke:#000000; stroke-width:39.3701; stroke-opacity:1; 
stroke-linecap:round; stroke-linejoin:round;">
<path d="M4000 4000
L112930 4000
L112930 78680
L4000 78680
L4000 4000
" />
<path d="M4700 4700
L112230 4700
L112230 77980
L4700 77980
L4700 4700
" />
<path d="M25780 4000
L25780 4700
" />
<path d="M15032 4552
L14747 4552
" />
<path d="M14890 4552
L14890 4052
L14842 4123
L14794 4171
L14747 4195
" />
<path d="M25780 78680
L25780 77980
" />
<path d="M15032 78532
L14747 78532
" />
<path d="M14890 78532
L14890 78032
L14842 78103
L14794 78151
L14747 78175
" />
<path d="M47560 4000
L47560 4700
" />
<path d="M36527 4100
L36550 4076
L36598 4052
L36717 4052
L36765 4076
L36789 4100
L36812 4147
L36812 4195
L36789 4266
L36503 4552
L36812 4552
" />
<path d="M47560 78680
L47560 77980
" />
<path d="M36527 78080
L36550 78056
L36598 78032
L36717 78032
L36765 78056
L36789 78080
L36812 78127
L36812 78175
L36789 78246
L36503 78532
L36812 78532
" />
<path d="M69340 4000
L69340 4700
" />
<path d="M58283 4052
L58592 4052
L58426 4242
L58497 4242
L58545 4266
L58569 4290
L58592 4338
L58592 4457
L58569 4504
L58545 4528
L58497 4552
L58354 4552
L58307 4528
L58283 4504
" />
<path d="M69340 78680
L69340 77980
" />
<path d="M58283 78032
L58592 78032
L58426 78222
L58497 78222
L58545 78246
L58569 78270
L58592 78318
L58592 78437
L58569 78484
L58545 78508
L58497 78532
L58354 78532
L58307 78508
L58283 78484
" />
<path d="M91120 4000
L91120 4700
" />
<path d="M80325 4219
L80325 4552
" />
<path d="M80206 4028
L80087 4385
L80396 4385
" />
<path d="M91120 78680
L91120 77980
" />
<path d="M80325 78199
L80325 78532
" />
<path d="M80206 78008
L80087 78365
L80396 78365
" />
<path d="M102129 4052
L101890 4052
L101867 4290
L101890 4266
L101938 4242
L102057 4242
L102105 4266
L102129 4290
L102152 4338
L102152 4457
L102129 4504
L102105 4528
L102057 4552
L101938 4552
L101890 4528
L101867 4504
" />
<path d="M102129 78032
L101890 78032
L101867 78270
L101890 78246
L101938 78222
L102057 78222
L102105 78246
L102129 78270
L102152 78318
L102152 78437
L102129 78484
L102105 78508
L102057 78532
L101938 78532
L101890 78508
L101867 78484
" />
<path d="M4000 28890
L4700 28890
" />
<path d="M4230 16509
L4469 16509
" />
<path d="M4183 16652
L4350 16152
L4516 16652
" />
<path d="M112930 28890
L112230 28890
" />
<path d="M112460 16509
L112699 16509
" />
<path d="M112413 16652
L112580 16152
L112746 16652
" />
<path d="M4000 53780
L4700 53780
" />
<path d="M4385 41280
L4457 41304
L4480 41328
L4504 41375
L4504 41447
L4480 41494
L4457 41518
L4409 41542
L4219 41542
L4219 41042
L4385 41042
L4433 41066
L4457 41090
L4480 41137
L4480 41185
L4457 41232
L4433 41256
L4385 41280
L4219 41280
" />
<path d="M112930 53780
L112230 53780
" />
<path d="M112615 41280
L112687 41304
L112710 41328
L112734 41375
L112734 41447
L112710 41494
L112687 41518
L112639 41542
L112449 41542
L112449 41042
L112615 41042
L112663 41066
L112687 41090
L112710 41137
L112710 41185
L112687 41232
L112663 41256
L112615 41280
L112449 41280
" />
<path d="M4504 66384
L4480 66408
L4409 66432
L4361 66432
L4290 66408
L4242 66360
L4219 66313
L4195 66218
L4195 66146
L4219 66051
L4242 66003
L4290 65956
L4361 65932
L4409 65932
L4480 65956
L4504 65980
" />
<path d="M112734 66384
L112710 66408
L112639 66432
L112591 66432
L112520 66408
L112472 66360
L112449 66313
L112425 66218
L112425 66146
L112449 66051
L112472 66003
L112520 65956
L112591 65932
L112639 65932
L112710 65956
L112734 65980
" />
<path d="M79380 76422
L79455 75822
L79597 75822
L79680 75851
L79730 75908
L79751 75965
L79765 76080
L79755 76165
L79712 76280
L79676 76337
L79612 76394
L79522 76422
L79380 76422
" />
<path d="M80237 76422
L80276 76108
L80255 76051
L80201 76022
L80087 76022
L80026 76051
" />
<path d="M80240 76394
L80180 76422
L80037 76422
L79983 76394
L79962 76337
L79969 76280
L80005 76222
L80065 76194
L80208 76194
L80269 76165
" />
<path d="M80487 76022
L80715 76022
" />
<path d="M80597 75822
L80533 76337
L80555 76394
L80608 76422
L80665 76422
" />
<path d="M81097 76394
L81037 76422
L80922 76422
L80869 76394
L80847 76337
L80876 76108
L80912 76051
L80972 76022
L81087 76022
L81140 76051
L81162 76108
L81155 76165
L80862 76222
" />
<path d="M81387 76365
L81412 76394
L81380 76422
L81355 76394
L81387 76365
L81380 76422
" />
<path d="M81426 76051
L81451 76080
L81419 76108
L81394 76080
L81426 76051
L81419 76108
" />
<path d="M82437 76422
L82094 76422
" />
<path d="M82265 76422
L82340 75822
L82272 75908
L82208 75965
L82147 75994
" />
<path d="M83026 75822
L82912 75822
L82851 75851
L82819 75880
L82751 75965
L82708 76080
L82680 76308
L82701 76365
L82726 76394
L82780 76422
L82894 76422
L82955 76394
L82987 76365
L83022 76308
L83040 76165
L83019 76108
L82994 76080
L82940 76051
L82826 76051
L82765 76080
L82733 76108
L82697 76165
" />
<path d="M83772 76022
L83708 76537
L83672 76594
L83612 76622
L83583 76622
" />
<path d="M83797 75822
L83765 75851
L83790 75880
L83822 75851
L83797 75822
L83790 75880
" />
<path d="M84315 76022
L84265 76422
" />
<path d="M84058 76022
L84019 76337
L84040 76394
L84094 76422
L84180 76422
L84240 76394
L84272 76365
" />
<path d="M84601 76022
L84551 76422
" />
<path d="M84594 76080
L84626 76051
L84687 76022
L84772 76022
L84826 76051
L84847 76108
L84808 76422
" />
<path d="M85590 75880
L85622 75851
L85683 75822
L85826 75822
L85880 75851
L85905 75880
L85926 75937
L85919 75994
L85880 76080
L85494 76422
L85865 76422
" />
<path d="M86312 75822
L86369 75822
L86422 75851
L86447 75880
L86469 75937
L86483 76051
L86465 76194
L86422 76308
L86387 76365
L86355 76394
L86294 76422
L86237 76422
L86183 76394
L86158 76365
L86137 76308
L86122 76194
L86140 76051
L86183 75937
L86219 75880
L86251 75851
L86312 75822
" />
<path d="M87008 76422
L86665 76422
" />
<path d="M86837 76422
L86912 75822
L86844 75908
L86780 75965
L86719 75994
" />
<path d="M87394 76080
L87340 76051
L87315 76022
L87294 75965
L87297 75937
L87333 75880
L87365 75851
L87426 75822
L87540 75822
L87594 75851
L87619 75880
L87640 75937
L87637 75965
L87601 76022
L87569 76051
L87508 76080
L87394 76080
L87333 76108
L87301 76137
L87265 76194
L87251 76308
L87272 76365
L87297 76394
L87351 76422
L87465 76422
L87526 76394
L87558 76365
L87594 76308
L87608 76194
L87587 76137
L87562 76108
L87508 76080
" />
<path d="M70972 77622
L70972 77022
" />
<path d="M71315 77622
L71058 77280
" />
<path d="M71315 77022
L70972 77365
" />
<path d="M71572 77622
L71572 77222
" />
<path d="M71572 77022
L71544 77051
L71572 77080
L71601 77051
L71572 77022
L71572 77080
" />
<path d="M72201 77565
L72172 77594
L72087 77622
L72030 77622
L71944 77594
L71887 77537
L71858 77480
L71830 77365
L71830 77280
L71858 77165
L71887 77108
L71944 77051
L72030 77022
L72087 77022
L72172 77051
L72201 77080
" />
<path d="M72715 77622
L72715 77308
L72687 77251
L72630 77222
L72515 77222
L72458 77251
" />
<path d="M72715 77594
L72658 77622
L72515 77622
L72458 77594
L72430 77537
L72430 77480
L72458 77422
L72515 77394
L72658 77394
L72715 77365
" />
<path d="M73258 77622
L73258 77022
" />
<path d="M73258 77594
L73201 77622
L73087 77622
L73030 77594
L73001 77565
L72972 77508
L72972 77337
L73001 77280
L73030 77251
L73087 77222
L73201 77222
L73258 77251
" />
<path d="M74001 77308
L74201 77308
" />
<path d="M74287 77622
L74001 77622
L74001 77022
L74287 77022
" />
<path d="M74544 77565
L74572 77594
L74544 77622
L74515 77594
L74544 77565
L74544 77622
" />
<path d="M74829 77622
L74829 77022
L74972 77022
L75058 77051
L75115 77108
L75144 77165
L75172 77280
L75172 77365
L75144 77480
L75115 77537
L75058 77594
L74972 77622
L74829 77622
" />
<path d="M75429 77565
L75458 77594
L75429 77622
L75401 77594
L75429 77565
L75429 77622
" />
<path d="M75687 77451
L75972 77451
" />
<path d="M75629 77622
L75829 77022
L76029 77622
" />
<path d="M76229 77565
L76258 77594
L76229 77622
L76201 77594
L76229 77565
L76229 77622
" />
<path d="M104522 76422
L104358 76137
" />
<path d="M104180 76422
L104255 75822
L104483 75822
L104537 75851
L104562 75880
L104583 75937
L104572 76022
L104537 76080
L104505 76108
L104444 76137
L104215 76137
" />
<path d="M105012 76394
L104951 76422
L104837 76422
L104783 76394
L104762 76337
L104790 76108
L104826 76051
L104887 76022
L105001 76022
L105055 76051
L105076 76108
L105069 76165
L104776 76222
" />
<path d="M105287 76022
L105380 76422
L105572 76022
" />
<path d="M105758 76365
L105783 76394
L105751 76422
L105726 76394
L105758 76365
L105751 76422
" />
<path d="M105797 76051
L105822 76080
L105790 76108
L105765 76080
L105797 76051
L105790 76108
" />
<path d="M70944 76394
L71030 76422
L71172 76422
L71230 76394
L71258 76365
L71287 76308
L71287 76251
L71258 76194
L71230 76165
L71172 76137
L71058 76108
L71001 76080
L70972 76051
L70944 75994
L70944 75937
L70972 75880
L71001 75851
L71058 75822
L71201 75822
L71287 75851
" />
<path d="M71544 76422
L71544 76022
" />
<path d="M71544 75822
L71515 75851
L71544 75880
L71572 75851
L71544 75822
L71544 75880
" />
<path d="M71772 76022
L72087 76022
L71772 76422
L72087 76422
" />
<path d="M72544 76394
L72487 76422
L72372 76422
L72315 76394
L72287 76337
L72287 76108
L72315 76051
L72372 76022
L72487 76022
L72544 76051
L72572 76108
L72572 76165
L72287 76222
" />
<path d="M72830 76365
L72858 76394
L72830 76422
L72801 76394
L72830 76365
L72830 76422
" />
<path d="M72830 76051
L72858 76080
L72830 76108
L72801 76080
L72830 76051
L72830 76108
" />
<path d="M73544 76251
L73830 76251
" />
<path d="M73487 76422
L73687 75822
L73887 76422
" />
<path d="M74344 76022
L74344 76422
" />
<path d="M74201 75794
L74058 76222
L74430 76222
" />
<path d="M104172 77622
L104172 77022
" />
<path d="M104715 77622
L104715 77022
" />
<path d="M104715 77594
L104658 77622
L104544 77622
L104487 77594
L104458 77565
L104430 77508
L104430 77337
L104458 77280
L104487 77251
L104544 77222
L104658 77222
L104715 77251
" />
<path d="M105001 77565
L105030 77594
L105001 77622
L104972 77594
L105001 77565
L105001 77622
" />
<path d="M105001 77251
L105030 77280
L105001 77308
L104972 77280
L105001 77251
L105001 77308
" />
<path d="M106058 77622
L105715 77622
" />
<path d="M105887 77622
L105887 77022
L105829 77108
L105772 77165
L105715 77194
" />
<path d="M106744 76994
L106230 77765
" />
<path d="M107258 77622
L106915 77622
" />
<path d="M107087 77622
L107087 77022
L107029 77108
L106972 77165
L106915 77194
" />
<path d="M70969 74622
L71312 74622
" />
<path d="M71065 75222
L71140 74622
" />
<path d="M71437 75222
L71487 74822
" />
<path d="M71512 74622
L71480 74651
L71505 74680
L71537 74651
L71512 74622
L71505 74680
" />
<path d="M71687 74822
L71915 74822
" />
<path d="M71797 74622
L71733 75137
L71755 75194
L71808 75222
L71865 75222
" />
<path d="M72151 75222
L72097 75194
L72076 75137
L72140 74622
" />
<path d="M72612 75194
L72551 75222
L72437 75222
L72383 75194
L72362 75137
L72390 74908
L72426 74851
L72487 74822
L72601 74822
L72655 74851
L72676 74908
L72669 74965
L72376 75022
" />
<path d="M72901 75165
L72926 75194
L72894 75222
L72869 75194
L72901 75165
L72894 75222
" />
<path d="M72940 74851
L72965 74880
L72933 74908
L72908 74880
L72940 74851
L72933 74908
" />
<path d="M71172 72508
L70972 72508
" />
<path d="M70972 72822
L70972 72222
L71258 72222
" />
<path d="M71487 72822
L71487 72422
" />
<path d="M71487 72222
L71458 72251
L71487 72280
L71515 72251
L71487 72222
L71487 72280
" />
<path d="M71858 72822
L71801 72794
L71772 72737
L71772 72222
" />
<path d="M72315 72794
L72258 72822
L72144 72822
L72087 72794
L72058 72737
L72058 72508
L72087 72451
L72144 72422
L72258 72422
L72315 72451
L72344 72508
L72344 72565
L72058 72622
" />
<path d="M72601 72765
L72630 72794
L72601 72822
L72572 72794
L72601 72765
L72601 72822
" />
<path d="M72601 72451
L72630 72480
L72601 72508
L72572 72480
L72601 72451
L72601 72508
" />
<path d="M73315 72794
L73401 72822
L73544 72822
L73601 72794
L73630 72765
L73658 72708
L73658 72651
L73630 72594
L73601 72565
L73544 72537
L73430 72508
L73372 72480
L73344 72451
L73315 72394
L73315 72337
L73344 72280
L73372 72251
L73430 72222
L73572 72222
L73658 72251
" />
<path d="M73830 72222
L74172 72222
" />
<path d="M74001 72822
L74001 72222
" />
<path d="M74372 72822
L74372 72222
L74572 72651
L74772 72222
L74772 72822
" />
<path d="M75001 72222
L75372 72222
L75172 72451
L75258 72451
L75315 72480
L75344 72508
L75372 72565
L75372 72708
L75344 72765
L75315 72794
L75258 72822
L75087 72822
L75030 72794
L75001 72765
" />
<path d="M75601 72280
L75630 72251
L75687 72222
L75830 72222
L75887 72251
L75915 72280
L75944 72337
L75944 72394
L75915 72480
L75572 72822
L75944 72822
" />
<path d="M76172 72794
L76258 72822
L76401 72822
L76458 72794
L76487 72765
L76515 72708
L76515 72651
L76487 72594
L76458 72565
L76401 72537
L76287 72508
L76230 72480
L76201 72451
L76172 72394
L76172 72337
L76201 72280
L76230 72251
L76287 72222
L76430 72222
L76515 72251
" />
<path d="M76772 72822
L76772 72222
" />
<path d="M77030 72822
L77030 72508
L77001 72451
L76944 72422
L76858 72422
L76801 72451
L76772 72480
" />
<path d="M77315 72822
L77315 72422
" />
<path d="M77315 72222
L77287 72251
L77315 72280
L77344 72251
L77315 72222
L77315 72280
" />
<path d="M77830 72794
L77772 72822
L77658 72822
L77601 72794
L77572 72737
L77572 72508
L77601 72451
L77658 72422
L77772 72422
L77830 72451
L77858 72508
L77858 72565
L77572 72622
" />
<path d="M78201 72822
L78144 72794
L78115 72737
L78115 72222
" />
<path d="M78687 72822
L78687 72222
" />
<path d="M78687 72794
L78630 72822
L78515 72822
L78458 72794
L78430 72765
L78401 72708
L78401 72537
L78430 72480
L78458 72451
L78515 72422
L78630 72422
L78687 72451
" />
<path d="M79172 72508
L78972 72508
" />
<path d="M78972 72822
L78972 72222
L79258 72222
" />
<path d="M79572 72822
L79515 72794
L79487 72765
L79458 72708
L79458 72537
L79487 72480
L79515 72451
L79572 72422
L79658 72422
L79715 72451
L79744 72480
L79772 72537
L79772 72708
L79744 72765
L79715 72794
L79658 72822
L79572 72822
" />
<path d="M80030 72822
L80030 72422
" />
<path d="M80030 72537
L80058 72480
L80087 72451
L80144 72422
L80201 72422
" />
<path d="M80401 72822
L80401 72222
L80601 72651
L80801 72222
L80801 72822
" />
<path d="M81315 72794
L81258 72822
L81144 72822
L81087 72794
L81058 72737
L81058 72508
L81087 72451
L81144 72422
L81258 72422
L81315 72451
L81344 72508
L81344 72565
L81058 72622
" />
<path d="M81515 72422
L81744 72422
" />
<path d="M81601 72222
L81601 72737
L81630 72794
L81687 72822
L81744 72822
" />
<path d="M81944 72822
L81944 72422
" />
<path d="M81944 72537
L81972 72480
L82001 72451
L82058 72422
L82115 72422
" />
<path d="M82401 72822
L82344 72794
L82315 72765
L82287 72708
L82287 72537
L82315 72480
L82344 72451
L82401 72422
L82487 72422
L82544 72451
L82572 72480
L82601 72537
L82601 72708
L82572 72765
L82544 72794
L82487 72822
L82401 72822
" />
<path d="M82858 72822
L82858 72222
L83058 72651
L83258 72222
L83258 72822
" />
<path d="M83544 72822
L83544 72422
" />
<path d="M83544 72222
L83515 72251
L83544 72280
L83572 72251
L83544 72222
L83544 72280
" />
<path d="M83830 72422
L83830 72822
" />
<path d="M83830 72480
L83858 72451
L83915 72422
L84001 72422
L84058 72451
L84087 72508
L84087 72822
" />
<path d="M84372 72822
L84372 72422
" />
<path d="M84372 72222
L84344 72251
L84372 72280
L84401 72251
L84372 72222
L84372 72280
" />
<path d="M84630 72794
L84715 72822
L84858 72822
L84915 72794
L84944 72765
L84972 72708
L84972 72651
L84944 72594
L84915 72565
L84858 72537
L84744 72508
L84687 72480
L84658 72451
L84630 72394
L84630 72337
L84658 72280
L84687 72251
L84744 72222
L84887 72222
L84972 72251
" />
<path d="M85315 72822
L85258 72794
L85230 72737
L85230 72222
" />
<path d="M85801 72822
L85801 72508
L85772 72451
L85715 72422
L85601 72422
L85544 72451
" />
<path d="M85801 72794
L85744 72822
L85601 72822
L85544 72794
L85515 72737
L85515 72680
L85544 72622
L85601 72594
L85744 72594
L85801 72565
" />
<path d="M86030 72422
L86172 72822
L86315 72422
" />
<path d="M86772 72794
L86715 72822
L86601 72822
L86544 72794
L86515 72737
L86515 72508
L86544 72451
L86601 72422
L86715 72422
L86772 72451
L86801 72508
L86801 72565
L86515 72622
" />
<path d="M87030 72794
L87087 72822
L87201 72822
L87258 72794
L87287 72737
L87287 72708
L87258 72651
L87201 72622
L87115 72622
L87058 72594
L87030 72537
L87030 72508
L87058 72451
L87115 72422
L87201 72422
L87258 72451
" />
<path d="M87544 72765
L87572 72794
L87544 72822
L87515 72794
L87544 72765
L87544 72822
" />
<path d="M87830 72822
L87830 72222
" />
<path d="M87887 72594
L88058 72822
" />
<path d="M88058 72422
L87830 72651
" />
<path d="M88315 72822
L88315 72422
" />
<path d="M88315 72222
L88287 72251
L88315 72280
L88344 72251
L88315 72222
L88315 72280
" />
<path d="M88858 72794
L88801 72822
L88687 72822
L88630 72794
L88601 72765
L88572 72708
L88572 72537
L88601 72480
L88630 72451
L88687 72422
L88801 72422
L88858 72451
" />
<path d="M89372 72822
L89372 72508
L89344 72451
L89287 72422
L89172 72422
L89115 72451
" />
<path d="M89372 72794
L89315 72822
L89172 72822
L89115 72794
L89087 72737
L89087 72680
L89115 72622
L89172 72594
L89315 72594
L89372 72565
" />
<path d="M89915 72822
L89915 72222
" />
<path d="M89915 72794
L89858 72822
L89744 72822
L89687 72794
L89658 72765
L89630 72708
L89630 72537
L89658 72480
L89687 72451
L89744 72422
L89858 72422
L89915 72451
" />
<path d="M90058 72880
L90515 72880
" />
<path d="M90658 72422
L90658 73022
" />
<path d="M90658 72451
L90715 72422
L90830 72422
L90887 72451
L90915 72480
L90944 72537
L90944 72708
L90915 72765
L90887 72794
L90830 72822
L90715 72822
L90658 72794
" />
<path d="M91458 72794
L91401 72822
L91287 72822
L91230 72794
L91201 72765
L91172 72708
L91172 72537
L91201 72480
L91230 72451
L91287 72422
L91401 72422
L91458 72451
" />
<path d="M91715 72822
L91715 72222
" />
<path d="M91715 72451
L91772 72422
L91887 72422
L91944 72451
L91972 72480
L92001 72537
L92001 72708
L91972 72765
L91944 72794
L91887 72822
L91772 72822
L91715 72794
" />
<path d="M70944 73994
L71030 74022
L71172 74022
L71230 73994
L71258 73965
L71287 73908
L71287 73851
L71258 73794
L71230 73765
L71172 73737
L71058 73708
L71001 73680
L70972 73651
L70944 73594
L70944 73537
L70972 73480
L71001 73451
L71058 73422
L71201 73422
L71287 73451
" />
<path d="M71544 74022
L71544 73422
" />
<path d="M71801 74022
L71801 73708
L71772 73651
L71715 73622
L71630 73622
L71572 73651
L71544 73680
" />
<path d="M72315 73994
L72258 74022
L72144 74022
L72087 73994
L72058 73937
L72058 73708
L72087 73651
L72144 73622
L72258 73622
L72315 73651
L72344 73708
L72344 73765
L72058 73822
" />
<path d="M72830 73994
L72772 74022
L72658 74022
L72601 73994
L72572 73937
L72572 73708
L72601 73651
L72658 73622
L72772 73622
L72830 73651
L72858 73708
L72858 73765
L72572 73822
" />
<path d="M73030 73622
L73258 73622
" />
<path d="M73115 73422
L73115 73937
L73144 73994
L73201 74022
L73258 74022
" />
<path d="M73458 73965
L73487 73994
L73458 74022
L73430 73994
L73458 73965
L73458 74022
" />
<path d="M73458 73651
L73487 73680
L73458 73708
L73430 73680
L73458 73651
L73458 73708
" />
<path d="M70230 71980
L70230 77980
" />
<path d="M70230 71980
L112230 71980
" />
<path d="M70230 71980
L112230 71980
" />
<path d="M70230 74380
L112230 74380
" />
<path d="M103430 75580
L103430 77980
" />
<path d="M70230 76780
L112230 76780
" />
<path d="M70230 75580
L112230 75580
" />
<path d="M76830 75580
L76830 76780
" />
</g>
<g style="fill:#FFFF00; fill-opacity:0.0; 
stroke:#FFFF00; stroke-width:59.0551; stroke-opacity:1; 
stroke-linecap:round; stroke-linejoin:round;">
<path d="M69700 29350
L69100 28750
" />
<path d="M69700 33850
L69700 29350
" />
<path d="M70700 34850
L69700 33850
" />
<path d="M70700 47750
L70700 34850
" />
<path d="M69700 48750
L70700 47750
" />
<path d="M69700 49750
L69700 48750
" />
<path d="M43700 49750
L69700 49750
" />
<path d="M43700 28750
L43700 49750
" />
<path d="M69100 28750
L43700 28750
" />
</g>
<g style="fill:#808000; fill-opacity:0.0; 
stroke:#808000; stroke-width:680; stroke-opacity:1; 
stroke-linecap:round; stroke-linejoin:round;">
<path d="M54700 48690
L54700 48810
" />
<path d="M55700 48690
L55700 48810
" />
<path d="M56700 48690
L56700 48810
" />
<path d="M57700 48690
L57700 48810
" />
<path d="M58700 48690
L58700 48810
" />
<path d="M59700 48690
L59700 48810
" />
<path d="M60700 48690
L60700 48810
" />
<path d="M61700 48690
L61700 48810
" />
<path d="M63700 48690
L63700 48810
" />
<path d="M64700 48690
L64700 48810
" />
<path d="M65700 48690
L65700 48810
" />
<path d="M66700 48690
L66700 48810
" />
<path d="M67700 48690
L67700 48810
" />
<path d="M68700 48690
L68700 48810
" />
<path d="M51100 29690
L51100 29810
" />
<path d="M52100 29690
L52100 29810
" />
<path d="M53100 29690
L53100 29810
" />
<path d="M54100 29690
L54100 29810
" />
<path d="M55100 29690
L55100 29810
" />
<path d="M56100 29690
L56100 29810
" />
<path d="M57100 29690
L57100 29810
" />
<path d="M58100 29690
L58100 29810
" />
<path d="M59100 29690
L59100 29810
" />
<path d="M60100 29690
L60100 29810
" />
<path d="M61700 29690
L61700 29810
" />
<path d="M62700 29690
L62700 29810
" />
<path d="M63700 29690
L63700 29810
" />
<path d="M64700 29690
L64700 29810
" />
<path d="M65700 29690
L65700 29810
" />
<path d="M66700 29690
L66700 29810
" />
<path d="M67700 29690
L67700 29810
" />
<path d="M68700 29690
L68700 29810
" />
</g>
<g style="fill:#808000; fill-opacity:0.0; 
stroke:#808000; stroke-width:39.3701; stroke-opacity:1; 
stroke-linecap:round; stroke-linejoin:round;">
</g>
<g style="fill:#808000; fill-opacity:1.0; 
stroke:#808000; stroke-width:39.3701; stroke-opacity:1; 
stroke-linecap:round; stroke-linejoin:round;">
<circle cx="49200" cy="48750" r="780.315" /> 
<circle cx="69700" cy="46750" r="780.315" /> 
<circle cx="49700" cy="29750" r="780.315" /> 
<circle cx="69700" cy="35750" r="780.315" /> 
<circle cx="46500" cy="43000" r="255.315" /> 
<circle cx="46500" cy="42000" r="255.315" /> 
<circle cx="46500" cy="40500" r="255.315" /> 
<circle cx="46500" cy="39500" r="255.315" /> 
<circle cx="62000" cy="41500" r="255.315" /> 
<circle cx="62000" cy="40500" r="255.315" /> 
<circle cx="57000" cy="42500" r="255.315" /> 
<circle cx="58000" cy="42500" r="255.315" /> 
<polyline style="fill-rule:evenodd;"
points="44719,39719
45280,39719
45280,40280
44719,40280
44719,39719
" /> 
<circle cx="45000" cy="41000" r="280.315" /> 
<circle cx="45000" cy="42000" r="280.315" /> 
<circle cx="45000" cy="43000" r="280.315" /> 
<circle cx="45000" cy="44000" r="280.315" /> 
<polyline style="fill-rule:evenodd;"
points="65780,36280
65219,36280
65219,35719
65780,35719
65780,36280
" /> 
<circle cx="65500" cy="35000" r="280.315" /> 
<circle cx="65500" cy="34000" r="280.315" /> 
<circle cx="65500" cy="33000" r="280.315" /> 
<polyline style="fill-rule:evenodd;"
points="63780,36280
63219,36280
63219,35719
63780,35719
63780,36280
" /> 
<circle cx="63500" cy="35000" r="280.315" /> 
<circle cx="63500" cy="34000" r="280.315" /> 
<circle cx="63500" cy="33000" r="280.315" /> 
<polyline style="fill-rule:evenodd;"
points="61780,36280
61219,36280
61219,35719
61780,35719
61780,36280
" /> 
<circle cx="61500" cy="35000" r="280.315" /> 
<circle cx="61500" cy="34000" r="280.315" /> 
<circle cx="61500" cy="33000" r="280.315" /> 
<polyline style="fill-rule:evenodd;"
points="58744,42244
59255,42244
59255,42755
58744,42755
58744,42244
" /> 
<circle cx="59000" cy="43500" r="255.315" /> 
<circle cx="59000" cy="44500" r="255.315" /> 
<circle cx="59000" cy="45500" r="255.315" /> 
<circle cx="62000" cy="45500" r="255.315" /> 
<circle cx="62000" cy="44500" r="255.315" /> 
<circle cx="62000" cy="43500" r="255.315" /> 
<circle cx="62000" cy="42500" r="255.315" /> 
<polyline style="fill-rule:evenodd;"
points="50244,47255
50244,46744
50755,46744
50755,47255
50244,47255
" /> 
<circle cx="51500" cy="47000" r="255.315" /> 
<circle cx="52500" cy="47000" r="255.315" /> 
<circle cx="53500" cy="47000" r="255.315" /> 
<circle cx="53500" cy="44000" r="255.315" /> 
<circle cx="52500" cy="44000" r="255.315" /> 
<circle cx="51500" cy="44000" r="255.315" /> 
<circle cx="50500" cy="44000" r="255.315" /> 
<polyline style="fill-rule:evenodd;"
points="56244,33244
56755,33244
56755,33755
56244,33755
56244,33244
" /> 
<circle cx="56500" cy="34500" r="255.315" /> 
<circle cx="56500" cy="35500" r="255.315" /> 
<circle cx="56500" cy="36500" r="255.315" /> 
<circle cx="56500" cy="37500" r="255.315" /> 
<circle cx="56500" cy="38500" r="255.315" /> 
<circle cx="56500" cy="39500" r="255.315" /> 
<circle cx="56500" cy="40500" r="255.315" /> 
<circle cx="59500" cy="40500" r="255.315" /> 
<circle cx="59500" cy="39500" r="255.315" /> 
<circle cx="59500" cy="38500" r="255.315" /> 
<circle cx="59500" cy="37500" r="255.315" /> 
<circle cx="59500" cy="36500" r="255.315" /> 
<circle cx="59500" cy="35500" r="255.315" /> 
<circle cx="59500" cy="34500" r="255.315" /> 
<circle cx="59500" cy="33500" r="255.315" /> 
<polyline style="fill-rule:evenodd;"
points="49244,33244
49755,33244
49755,33755
49244,33755
49244,33244
" /> 
<circle cx="49500" cy="34500" r="255.315" /> 
<circle cx="49500" cy="35500" r="255.315" /> 
<circle cx="49500" cy="36500" r="255.315" /> 
<circle cx="49500" cy="37500" r="255.315" /> 
<circle cx="49500" cy="38500" r="255.315" /> 
<circle cx="49500" cy="39500" r="255.315" /> 
<circle cx="49500" cy="40500" r="255.315" /> 
<circle cx="52500" cy="40500" r="255.315" /> 
<circle cx="52500" cy="39500" r="255.315" /> 
<circle cx="52500" cy="38500" r="255.315" /> 
<circle cx="52500" cy="37500" r="255.315" /> 
<circle cx="52500" cy="36500" r="255.315" /> 
<circle cx="52500" cy="35500" r="255.315" /> 
<circle cx="52500" cy="34500" r="255.315" /> 
<circle cx="52500" cy="33500" r="255.315" /> 
<circle cx="48500" cy="38500" r="255.315" /> 
<circle cx="48500" cy="39500" r="255.315" /> 
<circle cx="51500" cy="31500" r="255.315" /> 
<circle cx="50500" cy="31500" r="255.315" /> 
<circle cx="47000" cy="36000" r="255.315" /> 
<circle cx="47000" cy="37000" r="255.315" /> 
<circle cx="48500" cy="36000" r="255.315" /> 
<circle cx="48500" cy="37000" r="255.315" /> 
<circle cx="55500" cy="33500" r="255.315" /> 
<circle cx="55500" cy="34500" r="255.315" /> 
<circle cx="55500" cy="36000" r="255.315" /> 
<circle cx="55500" cy="37000" r="255.315" /> 
<circle cx="54000" cy="36000" r="255.315" /> 
<circle cx="54000" cy="37000" r="255.315" /> 
<circle cx="55500" cy="38500" r="255.315" /> 
<circle cx="55500" cy="39500" r="255.315" /> 
<circle cx="58500" cy="31500" r="255.315" /> 
<circle cx="57500" cy="31500" r="255.315" /> 
<circle cx="48500" cy="33500" r="255.315" /> 
<circle cx="48500" cy="34500" r="255.315" /> 
<polyline style="fill-rule:evenodd;"
points="67929,40929
69070,40929
69070,42070
67929,42070
67929,40929
" /> 
<circle cx="68500" cy="43500" r="570.815" /> 
<polyline style="fill-rule:evenodd;"
points="64980,45992
64019,45992
64019,45031
64980,45031
64980,45992
" /> 
<circle cx="64500" cy="43503.9" r="480.315" /> 
<circle cx="64500" cy="41496.1" r="480.315" /> 
<circle cx="64500" cy="39488.2" r="480.315" /> 
<circle cx="60000" cy="32000" r="255.315" /> 
<circle cx="60000" cy="31000" r="255.315" /> 
<circle cx="61000" cy="31000" r="255.315" /> 
<circle cx="61000" cy="32000" r="255.315" /> 
<circle cx="62000" cy="32000" r="255.315" /> 
<circle cx="62000" cy="31000" r="255.315" /> 
<circle cx="63000" cy="31000" r="255.315" /> 
<circle cx="63000" cy="32000" r="255.315" /> 
<circle cx="55000" cy="32000" r="255.315" /> 
<circle cx="55000" cy="31000" r="255.315" /> 
<circle cx="54000" cy="31000" r="255.315" /> 
<circle cx="54000" cy="32000" r="255.315" /> 
<polyline style="fill-rule:evenodd;"
points="44719,45719
45280,45719
45280,46280
44719,46280
44719,45719
" /> 
<circle cx="45000" cy="47000" r="280.315" /> 
<circle cx="45000" cy="48000" r="280.315" /> 
<circle cx="45000" cy="49000" r="280.315" /> 
</g>
<g style="fill:#C0C0C0; fill-opacity:1.0; 
stroke:#C0C0C0; stroke-width:39.3701; stroke-opacity:1; 
stroke-linecap:round; stroke-linejoin:round;">
<circle cx="50000" cy="30800" r="98.4252" /> 
<circle cx="63450" cy="47800" r="98.4252" /> 
<circle cx="66700" cy="38500" r="98.4252" /> 
<circle cx="61550" cy="38500" r="98.4252" /> 
<circle cx="61100" cy="40500" r="98.4252" /> 
<circle cx="61100" cy="38150" r="98.4252" /> 
<circle cx="64750" cy="38150" r="98.4252" /> 
<circle cx="57000" cy="32000" r="98.4252" /> 
<circle cx="52050" cy="31500" r="98.4252" /> 
<circle cx="50000" cy="32350" r="98.4252" /> 
<circle cx="60650" cy="35450" r="98.4252" /> 
<circle cx="60650" cy="41000" r="98.4252" /> 
<circle cx="53500" cy="36500" r="98.4252" /> 
<circle cx="54650" cy="32950" r="98.4252" /> 
<circle cx="60000" cy="34000" r="98.4252" /> 
<circle cx="60100" cy="41500" r="98.4252" /> 
<circle cx="60700" cy="34450" r="98.4252" /> 
<circle cx="60750" cy="32700" r="98.4252" /> 
<circle cx="54400" cy="32700" r="98.4252" /> 
<circle cx="60300" cy="35000" r="98.4252" /> 
<circle cx="60300" cy="40000" r="98.4252" /> 
<circle cx="53500" cy="38950" r="98.4252" /> 
<circle cx="51500" cy="42050" r="98.4252" /> 
<circle cx="52000" cy="40000" r="98.4252" /> 
</g>
<g style="fill:#A00000; fill-opacity:1.0; 
stroke:#A00000; stroke-width:98.4252; stroke-opacity:1; 
stroke-linecap:round; stroke-linejoin:round;">
<path d="M50000 30700
L50050 30650
" />
<path d="M57700 48100
L57700 48750
" />
<path d="M58000 47800
L57700 48100
" />
<path d="M63450 47800
L58000 47800
" />
<path d="M59500 33500
L59500 33550
" />
<path d="M53000 34000
L52500 33500
" />
<path d="M59050 34000
L53000 34000
" />
<path d="M59500 33550
L59050 34000
" />
<path d="M60000 31000
L60000 30750
" />
<path d="M57700 30350
L57100 29750
" />
<path d="M59600 30350
L57700 30350
" />
<path d="M60000 30750
L59600 30350
" />
<path d="M61000 31000
L60000 31000
" />
<path d="M55000 31000
L54000 31000
" />
<path d="M66700 38500
L61550 38500
" />
<path d="M59500 38500
L59450 38500
" />
<path d="M53000 38000
L52500 38500
" />
<path d="M58950 38000
L53000 38000
" />
<path d="M59450 38500
L58950 38000
" />
<path d="M61550 38500
L59500 38500
" />
<path d="M62000 31000
L62000 30750
" />
<path d="M60700 30350
L60100 29750
" />
<path d="M61600 30350
L60700 30350
" />
<path d="M62000 30750
L61600 30350
" />
<path d="M63000 31000
L62000 31000
" />
<path d="M54000 36000
L54550 36000
" />
<path d="M55050 36500
L56500 36500
" />
<path d="M54550 36000
L55050 36500
" />
<path d="M58000 42500
L59000 42500
" />
<path d="M64500 43503
L62946 43503
" />
<path d="M59500 44000
L59000 43500
" />
<path d="M62450 44000
L59500 44000
" />
<path d="M62946 43503
L62450 44000
" />
</g>
<g style="fill:#A00000; fill-opacity:1.0; 
stroke:#A00000; stroke-width:551.181; stroke-opacity:1; 
stroke-linecap:round; stroke-linejoin:round;">
<path d="M68500 43500
L64503 43500
" />
<path d="M64503 43500
L64500 43503
" />
</g>
<g style="fill:#A00000; fill-opacity:1.0; 
stroke:#A00000; stroke-width:98.4252; stroke-opacity:1; 
stroke-linecap:round; stroke-linejoin:round;">
<path d="M64500 41496
L62803 41496
" />
<path d="M57500 42000
L57000 42500
" />
<path d="M62300 42000
L57500 42000
" />
<path d="M62803 41496
L62300 42000
" />
</g>
<g style="fill:#A00000; fill-opacity:1.0; 
stroke:#A00000; stroke-width:551.181; stroke-opacity:1; 
stroke-linecap:round; stroke-linejoin:round;">
<path d="M68500 41500
L64503 41500
" />
<path d="M64503 41500
L64500 41496
" />
</g>
<g style="fill:#A00000; fill-opacity:1.0; 
stroke:#A00000; stroke-width:98.4252; stroke-opacity:1; 
stroke-linecap:round; stroke-linejoin:round;">
<path d="M61100 40500
L59500 40500
" />
<path d="M64750 38150
L61100 38150
" />
<path d="M55000 32000
L57000 32000
" />
<path d="M55500 33500
L56500 33500
" />
<path d="M59350 31350
L59350 31250
" />
<path d="M61550 31550
L59550 31550
" />
<path d="M59550 31550
L59350 31350
" />
<path d="M62000 32000
L61550 31550
" />
<path d="M55350 31500
L52050 31500
" />
<path d="M55800 31050
L55350 31500
" />
<path d="M59150 31050
L55800 31050
" />
<path d="M59350 31250
L59150 31050
" />
<path d="M60000 32000
L59350 32000
" />
<path d="M50050 32400
L50000 32350
" />
<path d="M53450 32400
L50050 32400
" />
<path d="M53500 32450
L53450 32400
" />
<path d="M58900 32450
L53500 32450
" />
<path d="M59350 32000
L58900 32450
" />
<path d="M45000 46000
L52000 46000
" />
<path d="M52500 46500
L52500 47000
" />
<path d="M52000 46000
L52500 46500
" />
<path d="M45000 47000
L49500 47000
" />
<path d="M51000 46500
L51500 47000
" />
<path d="M49500 46500
L51000 46500
" />
<path d="M49500 47000
L49500 46500
" />
<path d="M56500 40500
L56500 40600
" />
<path d="M65500 35050
L65500 35000
" />
<path d="M65100 35450
L65500 35050
" />
<path d="M60650 35450
L65100 35450
" />
<path d="M56900 41000
L60650 41000
" />
<path d="M56500 40600
L56900 41000
" />
<path d="M55500 38500
L56500 38500
" />
<path d="M63500 34000
L63500 33950
" />
<path d="M53500 36500
L52500 37500
" />
<path d="M59850 32950
L54650 32950
" />
<path d="M60400 33500
L59850 32950
" />
<path d="M63050 33500
L60400 33500
" />
<path d="M63500 33950
L63050 33500
" />
<path d="M49500 40500
L49600 40500
" />
<path d="M60000 34000
L61500 34000
" />
<path d="M50050 41500
L60100 41500
" />
<path d="M49600 40500
L50050 41500
" />
<path d="M63000 34500
L63500 35000
" />
<path d="M60750 34500
L63000 34500
" />
<path d="M60700 34450
L60750 34500
" />
<path d="M54450 32750
L54500 32700
" />
<path d="M54500 32700
L60750 32700
" />
<path d="M54400 32700
L54450 32750
" />
<path d="M52500 40500
L55650 40500
" />
<path d="M60300 35000
L61500 35000
" />
<path d="M56150 40000
L60300 40000
" />
<path d="M55650 40500
L56150 40000
" />
<path d="M48500 38500
L49500 38500
" />
<path d="M47000 37000
L47350 37000
" />
<path d="M47850 37500
L49500 37500
" />
<path d="M47350 37000
L47850 37500
" />
<path d="M47000 36000
L47400 36000
" />
<path d="M47900 36500
L49500 36500
" />
<path d="M47400 36000
L47900 36500
" />
<path d="M48500 34500
L48500 35100
" />
<path d="M48900 35500
L49500 35500
" />
<path d="M48500 35100
L48900 35500
" />
<path d="M49500 33500
L48500 33500
" />
<path d="M54000 37000
L54500 37000
" />
<path d="M55000 37500
L56500 37500
" />
<path d="M54500 37000
L55000 37500
" />
<path d="M46500 39500
L47550 39500
" />
<path d="M53450 39000
L53500 38950
" />
<path d="M48050 39000
L53450 39000
" />
<path d="M47550 39500
L48050 39000
" />
<path d="M46500 39500
L45500 39500
" />
<path d="M45500 39500
L45000 40000
" />
<path d="M55500 34500
L55500 34900
" />
<path d="M56100 35500
L56500 35500
" />
<path d="M55500 34900
L56100 35500
" />
<path d="M46500 42000
L51450 42000
" />
<path d="M51450 42000
L51500 42050
" />
<path d="M46500 42000
L45000 42000
" />
<path d="M50500 44000
L50500 43450
" />
<path d="M50050 43000
L46500 43000
" />
<path d="M50500 43450
L50050 43000
" />
<path d="M46500 43000
L45000 43000
" />
<path d="M46500 40400
L46500 40500
" />
<path d="M46900 40000
L46500 40400
" />
<path d="M52000 40000
L46900 40000
" />
<path d="M46500 40500
L45500 40500
" />
<path d="M45500 40500
L45000 41000
" />
</g>
<g style="fill:#A00000; fill-opacity:1.0; 
stroke:#A00000; stroke-width:39.3701; stroke-opacity:1; 
stroke-linecap:round; stroke-linejoin:round;">
<polyline style="fill-rule:evenodd;"
points="59289,31712
59235,31723
59138,31788
58776,32150
57335,32150
57368,32073
57368,32013
57395,32024
57603,32025
57797,31945
57944,31797
58024,31604
58025,31396
58005,31349
59026,31349
59056,31379
59073,31464
59138,31561
59289,31712
" /> 
</g>
<g style="fill:#A00000; fill-opacity:0.0; 
stroke:#A00000; stroke-width:100; stroke-opacity:1; 
stroke-linecap:round; stroke-linejoin:round;">
<polyline fill="none;"
points="59289,31712
59235,31723
59138,31788
58776,32150
57335,32150
57368,32073
57368,32013
57395,32024
57603,32025
57797,31945
57944,31797
58024,31604
58025,31396
58005,31349
59026,31349
59056,31379
59073,31464
59138,31561
59289,31712
" /> 
</g>
<g style="fill:#A00000; fill-opacity:1.0; 
stroke:#A00000; stroke-width:39.3701; stroke-opacity:1; 
stroke-linecap:round; stroke-linejoin:round;">
<polyline style="fill-rule:evenodd;"
points="60133,33656
60073,33631
59927,33631
59791,33687
59688,33791
59631,33926
59631,33986
59604,33975
59396,33974
59203,34054
59055,34202
58975,34395
58974,34603
59054,34797
59202,34944
59335,35000
59203,35054
59055,35202
58975,35395
58974,35603
59054,35797
59202,35944
59335,36000
59203,36054
59055,36202
58975,36395
58974,36603
59054,36797
59202,36944
59335,37000
59203,37054
59055,37202
58975,37395
58974,37603
59020,37714
58950,37700
56985,37700
57024,37604
57025,37396
56945,37203
56797,37055
56664,36999
56797,36945
56944,36797
57024,36604
57025,36396
56945,36203
56797,36055
56664,35999
56797,35945
56944,35797
57024,35604
57025,35396
56945,35203
56797,35055
56664,34999
56797,34945
56944,34797
57024,34604
57025,34396
56945,34203
56797,34055
56725,34025
56824,34025
56916,33987
56986,33916
57024,33824
57025,33725
57025,33249
59726,33249
60133,33656
" /> 
</g>
<g style="fill:#A00000; fill-opacity:0.0; 
stroke:#A00000; stroke-width:100; stroke-opacity:1; 
stroke-linecap:round; stroke-linejoin:round;">
<polyline fill="none;"
points="60133,33656
60073,33631
59927,33631
59791,33687
59688,33791
59631,33926
59631,33986
59604,33975
59396,33974
59203,34054
59055,34202
58975,34395
58974,34603
59054,34797
59202,34944
59335,35000
59203,35054
59055,35202
58975,35395
58974,35603
59054,35797
59202,35944
59335,36000
59203,36054
59055,36202
58975,36395
58974,36603
59054,36797
59202,36944
59335,37000
59203,37054
59055,37202
58975,37395
58974,37603
59020,37714
58950,37700
56985,37700
57024,37604
57025,37396
56945,37203
56797,37055
56664,36999
56797,36945
56944,36797
57024,36604
57025,36396
56945,36203
56797,36055
56664,35999
56797,35945
56944,35797
57024,35604
57025,35396
56945,35203
56797,35055
56664,34999
56797,34945
56944,34797
57024,34604
57025,34396
56945,34203
56797,34055
56725,34025
56824,34025
56916,33987
56986,33916
57024,33824
57025,33725
57025,33249
59726,33249
60133,33656
" /> 
</g>
<g style="fill:#A00000; fill-opacity:1.0; 
stroke:#A00000; stroke-width:39.3701; stroke-opacity:1; 
stroke-linecap:round; stroke-linejoin:round;">
<polyline style="fill-rule:evenodd;"
points="70420,47634
69502,48552
69441,48643
69420,48750
69420,49470
69290,49470
69290,48822
69290,48677
69245,48451
69117,48260
68925,48132
68700,48087
68474,48132
68282,48260
68200,48384
68117,48260
67925,48132
67700,48087
67474,48132
67282,48260
67200,48384
67117,48260
66925,48132
66700,48087
66474,48132
66282,48260
66200,48384
66117,48260
65925,48132
65700,48087
65474,48132
65282,48260
65250,48309
65250,45962
65250,44962
65212,44870
65141,44799
65049,44761
64950,44761
63950,44761
63858,44799
63788,44870
63750,44961
63749,45061
63749,46061
63787,46153
63858,46223
63950,46261
64049,46261
65049,46261
65141,46223
65211,46153
65249,46061
65250,45962
65250,48309
65200,48384
65117,48260
64925,48132
64700,48087
64474,48132
64282,48260
64200,48384
64117,48260
63925,48132
63700,48087
63679,48091
63761,48008
63818,47873
63818,47727
63762,47591
63658,47488
63523,47431
63377,47431
63241,47487
63228,47500
58000,47500
57885,47523
57853,47545
57788,47588
57488,47888
57423,47985
57400,48100
57400,48181
57282,48260
57200,48384
57117,48260
56925,48132
56700,48087
56474,48132
56282,48260
56200,48384
56117,48260
55925,48132
55700,48087
55474,48132
55282,48260
55200,48384
55117,48260
54925,48132
54700,48087
54474,48132
54282,48260
54154,48451
54110,48677
54110,48822
54154,49048
54282,49239
54474,49367
54700,49412
54925,49367
55117,49239
55200,49115
55282,49239
55474,49367
55700,49412
55925,49367
56117,49239
56200,49115
56282,49239
56474,49367
56700,49412
56925,49367
57117,49239
57200,49115
57282,49239
57474,49367
57700,49412
57925,49367
58117,49239
58245,49048
58290,48822
58290,48677
58245,48451
58117,48260
58024,48198
58123,48099
59639,48099
59474,48132
59282,48260
59154,48451
59110,48677
59110,48822
59154,49048
59282,49239
59474,49367
59700,49412
59925,49367
60117,49239
60200,49115
60282,49239
60474,49367
60700,49412
60925,49367
61117,49239
61200,49115
61282,49239
61474,49367
61700,49412
61925,49367
62117,49239
62245,49048
62290,48822
62290,48677
62245,48451
62117,48260
61925,48132
61760,48099
63228,48099
63241,48111
63376,48168
63420,48168
63282,48260
63154,48451
63110,48677
63110,48822
63154,49048
63282,49239
63474,49367
63700,49412
63925,49367
64117,49239
64200,49115
64282,49239
64474,49367
64700,49412
64925,49367
65117,49239
65200,49115
65282,49239
65474,49367
65700,49412
65925,49367
66117,49239
66200,49115
66282,49239
66474,49367
66700,49412
66925,49367
67117,49239
67200,49115
67282,49239
67474,49367
67700,49412
67925,49367
68117,49239
68200,49115
68282,49239
68474,49367
68700,49412
68925,49367
69117,49239
69245,49048
69290,48822
69290,49470
49964,49470
50089,49345
50249,48959
50250,48542
50090,48156
49795,47860
49409,47700
48992,47699
48606,47859
48310,48154
48150,48540
48149,48957
48309,49344
48435,49470
45301,49470
45311,49466
45465,49311
45549,49109
45550,48891
45466,48688
45311,48534
45230,48500
45311,48466
45465,48311
45549,48109
45550,47891
45466,47688
45311,47534
45230,47500
45311,47466
45465,47311
45471,47299
49500,47299
49614,47276
49711,47211
49776,47114
49799,47000
49799,46799
50876,46799
50975,46898
50974,47103
51054,47297
51202,47444
51395,47524
51603,47525
51797,47445
51944,47297
52000,47164
52054,47297
52202,47444
52395,47524
52603,47525
52797,47445
52944,47297
53000,47164
53054,47297
53202,47444
53395,47524
53603,47525
53797,47445
53944,47297
54024,47104
54025,46896
53945,46703
53797,46555
53604,46475
53396,46474
53203,46554
53055,46702
52999,46835
52945,46703
52799,46556
52799,46500
52776,46385
52776,46385
52711,46288
52211,45788
52114,45723
52000,45700
45550,45700
45550,45650
45512,45558
45441,45488
45349,45450
45250,45449
44650,45449
44558,45487
44488,45558
44450,45650
44449,45749
44449,46349
44487,46441
44558,46511
44650,46549
44672,46549
44534,46688
44450,46890
44449,47108
44533,47311
44688,47465
44769,47499
44688,47533
44534,47688
44450,47890
44449,48108
44533,48311
44688,48465
44769,48499
44688,48533
44534,48688
44450,48890
44449,49108
44533,49311
44688,49465
44698,49470
43979,49470
43979,29029
48935,29029
48810,29154
48650,29540
48649,29957
48809,30344
49104,30639
49490,30799
49631,30799
49631,30872
49687,31008
49791,31111
49926,31168
50072,31168
50100,31156
50055,31202
49975,31395
49974,31603
50054,31797
50202,31944
50395,32024
50603,32025
50797,31945
50944,31797
51024,31604
51025,31396
50945,31203
50797,31055
50604,30975
50396,30974
50310,31010
50311,31008
50368,30873
50368,30727
50345,30671
50349,30650
50338,30596
50589,30345
50652,30194
50682,30239
50874,30367
51100,30412
51325,30367
51517,30239
51600,30115
51682,30239
51874,30367
52100,30412
52325,30367
52517,30239
52600,30115
52682,30239
52874,30367
53100,30412
53325,30367
53517,30239
53600,30115
53682,30239
53874,30367
54100,30412
54325,30367
54517,30239
54600,30115
54682,30239
54874,30367
55100,30412
55325,30367
55517,30239
55600,30115
55682,30239
55874,30367
56100,30412
56325,30367
56517,30239
56600,30115
56682,30239
56874,30367
57100,30412
57299,30372
57488,30561
57585,30626
57585,30626
57604,30630
57700,30649
59476,30649
59547,30720
59475,30895
59475,30951
59361,30838
59264,30773
59150,30750
55800,30750
55685,30773
55588,30838
55525,30901
55525,30896
55445,30703
55297,30555
55104,30475
54896,30474
54703,30554
54556,30700
54443,30700
54297,30555
54104,30475
53896,30474
53703,30554
53555,30702
53475,30895
53474,31103
53514,31200
52271,31200
52258,31188
52123,31131
51977,31131
51841,31187
51738,31291
51681,31426
51681,31572
51737,31708
51841,31811
51976,31868
52122,31868
52258,31812
52271,31799
53514,31799
53475,31895
53474,32103
53475,32105
53450,32100
50271,32100
50208,32038
50073,31981
49927,31981
49791,32037
49688,32141
49631,32276
49631,32422
49687,32558
49791,32661
49926,32718
50072,32718
50118,32699
53344,32699
53385,32726
53500,32749
54031,32749
54031,32772
54087,32908
54191,33011
54295,33055
54337,33158
54441,33261
54576,33318
54722,33318
54858,33262
54871,33249
55035,33249
54975,33395
54974,33603
55054,33797
55202,33944
55335,34000
55203,34054
55055,34202
54975,34395
54974,34603
55054,34797
55202,34944
55210,34948
55223,35014
55288,35111
55685,35508
55604,35475
55396,35474
55203,35554
55055,35702
54975,35895
54974,36001
54761,35788
54664,35723
54550,35700
54443,35700
54297,35555
54104,35475
53896,35474
53703,35554
53555,35702
53475,35895
53474,36103
53486,36131
53427,36131
53291,36187
53188,36291
53131,36426
53131,36444
53024,36551
53025,36396
52945,36203
52797,36055
52664,35999
52797,35945
52944,35797
53024,35604
53025,35396
52945,35203
52797,35055
52664,34999
52797,34945
52944,34797
53024,34604
53025,34396
52945,34203
52797,34055
52604,33975
52396,33974
52203,34054
52055,34202
51975,34395
51974,34603
52054,34797
52202,34944
52335,35000
52203,35054
52055,35202
51975,35395
51974,35603
52054,35797
52202,35944
52335,36000
52203,36054
52055,36202
51975,36395
51974,36603
52054,36797
52202,36944
52335,37000
52203,37054
52055,37202
51975,37395
51974,37603
52054,37797
52202,37944
52335,38000
52203,38054
52055,38202
51975,38395
51974,38603
52014,38700
49985,38700
50024,38604
50025,38396
49945,38203
49797,38055
49664,37999
49797,37945
49944,37797
50024,37604
50025,37396
49945,37203
49797,37055
49664,36999
49797,36945
49944,36797
50024,36604
50025,36396
49945,36203
49797,36055
49664,35999
49797,35945
49944,35797
50024,35604
50025,35396
49945,35203
49797,35055
49664,34999
49797,34945
49944,34797
50024,34604
50025,34396
49945,34203
49797,34055
49725,34025
49824,34025
49916,33987
49986,33916
50024,33824
50025,33725
50025,33175
49987,33083
49916,33013
49824,32975
49725,32974
49175,32974
49083,33012
49013,33083
48975,33175
48975,33200
48943,33200
48797,33055
48604,32975
48396,32974
48203,33054
48055,33202
47975,33395
47974,33603
48054,33797
48202,33944
48335,34000
48203,34054
48055,34202
47975,34395
47974,34603
48054,34797
48200,34943
48200,35100
48223,35214
48288,35311
48451,35474
48396,35474
48203,35554
48055,35702
47975,35895
47974,36103
48008,36185
47611,35788
47514,35723
47448,35710
47445,35703
47297,35555
47104,35475
46896,35474
46703,35554
46555,35702
46475,35895
46474,36103
46554,36297
46702,36444
46835,36500
46703,36554
46555,36702
46475,36895
46474,37103
46554,37297
46702,37444
46895,37524
47103,37525
47297,37445
47334,37407
47638,37711
47735,37776
47735,37776
47850,37799
49056,37799
49202,37944
49335,38000
49203,38054
49056,38200
48943,38200
48797,38055
48604,37975
48396,37974
48203,38054
48055,38202
47975,38395
47974,38603
48017,38707
48017,38707
47935,38723
47838,38788
47426,39200
46943,39200
46797,39055
46604,38975
46396,38974
46203,39054
46056,39200
45500,39200
45385,39223
45288,39288
45126,39449
44650,39449
44558,39487
44488,39558
44450,39650
44449,39749
44449,40349
44487,40441
44558,40511
44650,40549
44672,40549
44534,40688
44450,40890
44449,41108
44533,41311
44688,41465
44769,41499
44688,41533
44534,41688
44450,41890
44449,42108
44533,42311
44688,42465
44769,42499
44688,42533
44534,42688
44450,42890
44449,43108
44533,43311
44688,43465
44769,43499
44688,43533
44534,43688
44450,43890
44449,44108
44533,44311
44688,44465
44890,44549
45108,44550
45311,44466
45465,44311
45549,44109
45550,43891
45466,43688
45311,43534
45230,43500
45311,43466
45465,43311
45471,43299
46056,43299
46202,43444
46395,43524
46603,43525
46797,43445
46943,43299
49926,43299
50192,43565
50055,43702
49975,43895
49974,44103
50054,44297
50202,44444
50395,44524
50603,44525
50797,44445
50944,44297
51000,44164
51054,44297
51202,44444
51395,44524
51603,44525
51797,44445
51944,44297
52000,44164
52054,44297
52202,44444
52395,44524
52603,44525
52797,44445
52944,44297
53000,44164
53054,44297
53202,44444
53395,44524
53603,44525
53797,44445
53944,44297
54024,44104
54025,43896
53945,43703
53797,43555
53604,43475
53396,43474
53203,43554
53055,43702
52999,43835
52945,43703
52797,43555
52604,43475
52396,43474
52203,43554
52055,43702
51999,43835
51945,43703
51797,43555
51604,43475
51396,43474
51203,43554
51055,43702
50999,43835
50945,43703
50799,43556
50799,43450
50776,43335
50711,43238
50261,42788
50164,42723
50050,42700
46943,42700
46797,42555
46664,42499
46797,42445
46943,42299
51228,42299
51291,42361
51426,42418
51572,42418
51708,42362
51811,42258
51868,42123
51868,41977
51812,41841
51769,41799
57277,41799
57101,41975
56896,41974
56703,42054
56555,42202
56475,42395
56474,42603
56554,42797
56702,42944
56895,43024
57103,43025
57297,42945
57444,42797
57500,42664
57554,42797
57702,42944
57895,43024
58103,43025
58297,42945
58443,42799
58474,42799
58474,42824
58512,42916
58583,42986
58675,43024
58774,43025
58774,43025
58703,43054
58555,43202
58475,43395
58474,43603
58554,43797
58702,43944
58835,44000
58703,44054
58555,44202
58475,44395
58474,44603
58554,44797
58702,44944
58835,45000
58703,45054
58555,45202
58475,45395
58474,45603
58554,45797
58702,45944
58895,46024
59103,46025
59297,45945
59444,45797
59524,45604
59525,45396
59445,45203
59297,45055
59164,44999
59297,44945
59444,44797
59524,44604
59525,44396
59483,44295
59500,44299
61514,44299
61475,44395
61474,44603
61554,44797
61702,44944
61835,45000
61703,45054
61555,45202
61475,45395
61474,45603
61554,45797
61702,45944
61895,46024
62103,46025
62297,45945
62444,45797
62524,45604
62525,45396
62445,45203
62297,45055
62164,44999
62297,44945
62444,44797
62524,44604
62525,44396
62482,44292
62564,44276
62661,44211
63070,43803
63812,43803
63863,43928
64074,44139
64350,44253
64648,44254
64924,44140
65039,44025
67837,44025
68023,44212
68332,44340
68666,44340
68975,44212
69212,43976
69340,43667
69340,43333
69212,43024
68976,42787
68667,42659
68333,42659
68024,42787
67836,42974
65031,42974
64925,42868
64649,42754
64351,42753
64075,42867
63864,43078
63812,43204
62946,43204
62831,43227
62734,43292
62524,43501
62525,43396
62445,43203
62297,43055
62164,42999
62297,42945
62444,42797
62524,42604
62525,42396
62462,42244
62511,42211
62927,41795
63812,41795
63863,41920
64074,42131
64350,42245
64648,42246
64924,42132
65031,42025
67659,42025
67659,42140
67697,42231
67767,42302
67859,42340
67959,42340
69140,42340
69231,42302
69302,42232
69340,42140
69340,42040
69340,40859
69302,40768
69232,40697
69140,40659
69040,40659
67859,40659
67768,40697
67697,40767
67659,40859
67659,40959
67659,40974
65038,40974
64925,40860
64649,40746
64351,40745
64075,40859
63864,41070
63812,41196
62803,41196
62689,41219
62592,41284
62512,41364
62445,41203
62297,41055
62164,40999
62297,40945
62444,40797
62524,40604
62525,40396
62445,40203
62297,40055
62104,39975
61896,39974
61703,40054
61555,40202
61475,40395
61474,40603
61554,40797
61702,40944
61835,41000
61703,41054
61555,41202
61475,41395
61474,41603
61514,41700
60415,41700
60468,41573
60468,41427
60415,41299
60428,41299
60441,41311
60576,41368
60722,41368
60858,41312
60961,41208
61018,41073
61018,40927
60987,40851
61026,40868
61172,40868
61308,40812
61411,40708
61468,40573
61468,40427
61412,40291
61308,40188
61173,40131
61027,40131
60891,40187
60878,40200
60615,40200
60668,40073
60668,39927
60612,39791
60508,39688
60373,39631
60227,39631
60091,39687
60078,39700
59985,39700
60024,39604
60025,39396
59945,39203
59797,39055
59664,38999
59797,38945
59943,38799
61328,38799
61341,38811
61476,38868
61622,38868
61758,38812
61771,38799
64203,38799
64075,38851
63864,39062
63750,39338
63749,39636
63863,39912
64074,40123
64350,40238
64648,40238
64924,40124
65135,39913
65249,39638
65250,39339
65136,39063
64925,38852
64796,38799
66478,38799
66491,38811
66626,38868
66772,38868
66908,38812
67011,38708
67068,38573
67068,38427
67012,38291
66908,38188
66773,38131
66627,38131
66491,38187
66478,38200
65118,38200
65118,38077
65062,37941
64958,37838
64823,37781
64677,37781
64541,37837
64528,37850
61321,37850
61308,37838
61173,37781
61027,37781
60891,37837
60788,37941
60731,38076
60731,38200
59943,38200
59797,38055
59664,37999
59797,37945
59944,37797
60024,37604
60025,37396
59945,37203
59797,37055
59664,36999
59797,36945
59944,36797
60024,36604
60025,36396
59945,36203
59797,36055
59664,35999
59797,35945
59944,35797
60024,35604
60025,35396
59945,35203
59797,35055
59664,34999
59797,34945
59944,34797
60024,34604
60025,34396
60013,34368
60072,34368
60208,34312
60221,34299
60364,34299
60331,34376
60331,34522
60377,34633
60373,34631
60227,34631
60091,34687
59988,34791
59931,34926
59931,35072
59987,35208
60091,35311
60226,35368
60285,35368
60281,35376
60281,35522
60337,35658
60441,35761
60576,35818
60722,35818
60858,35762
60871,35749
60949,35749
60949,35749
60949,36349
60987,36441
61058,36511
61150,36549
61249,36550
61849,36550
61941,36512
62011,36441
62049,36349
62050,36250
62050,35749
62949,35749
62949,35749
62949,36349
62987,36441
63058,36511
63150,36549
63249,36550
63849,36550
63941,36512
64011,36441
64049,36349
64050,36250
64050,35749
64949,35749
64949,35749
64949,36349
64987,36441
65058,36511
65150,36549
65249,36550
65849,36550
65941,36512
66011,36441
66049,36349
66050,36250
66050,35650
66012,35558
65941,35488
65849,35450
65827,35450
65965,35311
66049,35109
66050,34891
65966,34688
65811,34534
65730,34500
65811,34466
65965,34311
66049,34109
66050,33891
65966,33688
65811,33534
65730,33500
65811,33466
65965,33311
66049,33109
66050,32891
65966,32688
65811,32534
65609,32450
65391,32449
65188,32533
65034,32688
64950,32890
64949,33108
65033,33311
65188,33465
65269,33499
65188,33533
65034,33688
64950,33890
64949,34108
65033,34311
65188,34465
65269,34499
65188,34533
65034,34688
64950,34890
64949,35108
64967,35150
64032,35150
64049,35109
64050,34891
63966,34688
63811,34534
63730,34500
63811,34466
63965,34311
64049,34109
64050,33891
63966,33688
63811,33534
63730,33500
63811,33466
63965,33311
64049,33109
64050,32891
63966,32688
63811,32534
63609,32450
63391,32449
63188,32533
63034,32688
62950,32890
62949,33108
62987,33200
62012,33200
62049,33109
62050,32891
61966,32688
61811,32534
61609,32450
61391,32449
61188,32533
61111,32610
61076,32525
61103,32525
61297,32445
61444,32297
61500,32164
61554,32297
61702,32444
61895,32524
62103,32525
62297,32445
62444,32297
62500,32164
62554,32297
62702,32444
62895,32524
63103,32525
63297,32445
63444,32297
63524,32104
63525,31896
63445,31703
63297,31555
63164,31499
63297,31445
63444,31297
63524,31104
63525,30896
63445,30703
63297,30555
63104,30475
62896,30474
62703,30554
62556,30700
62443,30700
62297,30555
62179,30505
61994,30321
62117,30239
62200,30115
62282,30239
62474,30367
62700,30412
62925,30367
63117,30239
63200,30115
63282,30239
63474,30367
63700,30412
63925,30367
64117,30239
64200,30115
64282,30239
64474,30367
64700,30412
64925,30367
65117,30239
65200,30115
65282,30239
65474,30367
65700,30412
65925,30367
66117,30239
66200,30115
66282,30239
66474,30367
66700,30412
66925,30367
67117,30239
67200,30115
67282,30239
67474,30367
67700,30412
67925,30367
68117,30239
68200,30115
68282,30239
68474,30367
68700,30412
68925,30367
69117,30239
69245,30048
69290,29822
69290,29677
69245,29451
69117,29260
68925,29132
68700,29087
68474,29132
68282,29260
68200,29384
68117,29260
67925,29132
67700,29087
67474,29132
67282,29260
67200,29384
67117,29260
66925,29132
66700,29087
66474,29132
66282,29260
66200,29384
66117,29260
65925,29132
65700,29087
65474,29132
65282,29260
65200,29384
65117,29260
64925,29132
64700,29087
64474,29132
64282,29260
64200,29384
64117,29260
63925,29132
63700,29087
63474,29132
63282,29260
63200,29384
63117,29260
62925,29132
62700,29087
62474,29132
62282,29260
62200,29384
62117,29260
61925,29132
61700,29087
61474,29132
61282,29260
61154,29451
61110,29677
61110,29822
61154,30048
61156,30050
60823,30050
60674,29901
60690,29822
60690,29677
60645,29451
60517,29260
60325,29132
60100,29087
59874,29132
59682,29260
59600,29384
59517,29260
59325,29132
59100,29087
58874,29132
58682,29260
58600,29384
58517,29260
58325,29132
58100,29087
57874,29132
57682,29260
57600,29384
57517,29260
57325,29132
57100,29087
56874,29132
56682,29260
56600,29384
56517,29260
56325,29132
56100,29087
55874,29132
55682,29260
55600,29384
55517,29260
55325,29132
55100,29087
54874,29132
54682,29260
54600,29384
54517,29260
54325,29132
54100,29087
53874,29132
53682,29260
53600,29384
53517,29260
53325,29132
53100,29087
52874,29132
52682,29260
52600,29384
52517,29260
52325,29132
52100,29087
51874,29132
51682,29260
51600,29384
51517,29260
51325,29132
51100,29087
50874,29132
50682,29260
50652,29305
50590,29156
50464,29029
68984,29029
69420,29465
69420,33850
69441,33956
69502,34047
70420,34965
70420,34985
70295,34860
69909,34700
69492,34699
69106,34859
68810,35154
68650,35540
68649,35957
68809,36344
69104,36639
69490,36799
69907,36800
70294,36640
70420,36514
70420,45985
70295,45860
69909,45700
69492,45699
69106,45859
68810,46154
68650,46540
68649,46957
68809,47344
69104,47639
69490,47799
69907,47800
70294,47640
70420,47514
70420,47634
" /> 
</g>
<g style="fill:#A00000; fill-opacity:0.0; 
stroke:#A00000; stroke-width:100; stroke-opacity:1; 
stroke-linecap:round; stroke-linejoin:round;">
<polyline fill="none;"
points="70420,47634
69502,48552
69441,48643
69420,48750
69420,49470
69290,49470
69290,48822
69290,48677
69245,48451
69117,48260
68925,48132
68700,48087
68474,48132
68282,48260
68200,48384
68117,48260
67925,48132
67700,48087
67474,48132
67282,48260
67200,48384
67117,48260
66925,48132
66700,48087
66474,48132
66282,48260
66200,48384
66117,48260
65925,48132
65700,48087
65474,48132
65282,48260
65250,48309
65250,45962
65250,44962
65212,44870
65141,44799
65049,44761
64950,44761
63950,44761
63858,44799
63788,44870
63750,44961
63749,45061
63749,46061
63787,46153
63858,46223
63950,46261
64049,46261
65049,46261
65141,46223
65211,46153
65249,46061
65250,45962
65250,48309
65200,48384
65117,48260
64925,48132
64700,48087
64474,48132
64282,48260
64200,48384
64117,48260
63925,48132
63700,48087
63679,48091
63761,48008
63818,47873
63818,47727
63762,47591
63658,47488
63523,47431
63377,47431
63241,47487
63228,47500
58000,47500
57885,47523
57853,47545
57788,47588
57488,47888
57423,47985
57400,48100
57400,48181
57282,48260
57200,48384
57117,48260
56925,48132
56700,48087
56474,48132
56282,48260
56200,48384
56117,48260
55925,48132
55700,48087
55474,48132
55282,48260
55200,48384
55117,48260
54925,48132
54700,48087
54474,48132
54282,48260
54154,48451
54110,48677
54110,48822
54154,49048
54282,49239
54474,49367
54700,49412
54925,49367
55117,49239
55200,49115
55282,49239
55474,49367
55700,49412
55925,49367
56117,49239
56200,49115
56282,49239
56474,49367
56700,49412
56925,49367
57117,49239
57200,49115
57282,49239
57474,49367
57700,49412
57925,49367
58117,49239
58245,49048
58290,48822
58290,48677
58245,48451
58117,48260
58024,48198
58123,48099
59639,48099
59474,48132
59282,48260
59154,48451
59110,48677
59110,48822
59154,49048
59282,49239
59474,49367
59700,49412
59925,49367
60117,49239
60200,49115
60282,49239
60474,49367
60700,49412
60925,49367
61117,49239
61200,49115
61282,49239
61474,49367
61700,49412
61925,49367
62117,49239
62245,49048
62290,48822
62290,48677
62245,48451
62117,48260
61925,48132
61760,48099
63228,48099
63241,48111
63376,48168
63420,48168
63282,48260
63154,48451
63110,48677
63110,48822
63154,49048
63282,49239
63474,49367
63700,49412
63925,49367
64117,49239
64200,49115
64282,49239
64474,49367
64700,49412
64925,49367
65117,49239
65200,49115
65282,49239
65474,49367
65700,49412
65925,49367
66117,49239
66200,49115
66282,49239
66474,49367
66700,49412
66925,49367
67117,49239
67200,49115
67282,49239
67474,49367
67700,49412
67925,49367
68117,49239
68200,49115
68282,49239
68474,49367
68700,49412
68925,49367
69117,49239
69245,49048
69290,48822
69290,49470
49964,49470
50089,49345
50249,48959
50250,48542
50090,48156
49795,47860
49409,47700
48992,47699
48606,47859
48310,48154
48150,48540
48149,48957
48309,49344
48435,49470
45301,49470
45311,49466
45465,49311
45549,49109
45550,48891
45466,48688
45311,48534
45230,48500
45311,48466
45465,48311
45549,48109
45550,47891
45466,47688
45311,47534
45230,47500
45311,47466
45465,47311
45471,47299
49500,47299
49614,47276
49711,47211
49776,47114
49799,47000
49799,46799
50876,46799
50975,46898
50974,47103
51054,47297
51202,47444
51395,47524
51603,47525
51797,47445
51944,47297
52000,47164
52054,47297
52202,47444
52395,47524
52603,47525
52797,47445
52944,47297
53000,47164
53054,47297
53202,47444
53395,47524
53603,47525
53797,47445
53944,47297
54024,47104
54025,46896
53945,46703
53797,46555
53604,46475
53396,46474
53203,46554
53055,46702
52999,46835
52945,46703
52799,46556
52799,46500
52776,46385
52776,46385
52711,46288
52211,45788
52114,45723
52000,45700
45550,45700
45550,45650
45512,45558
45441,45488
45349,45450
45250,45449
44650,45449
44558,45487
44488,45558
44450,45650
44449,45749
44449,46349
44487,46441
44558,46511
44650,46549
44672,46549
44534,46688
44450,46890
44449,47108
44533,47311
44688,47465
44769,47499
44688,47533
44534,47688
44450,47890
44449,48108
44533,48311
44688,48465
44769,48499
44688,48533
44534,48688
44450,48890
44449,49108
44533,49311
44688,49465
44698,49470
43979,49470
43979,29029
48935,29029
48810,29154
48650,29540
48649,29957
48809,30344
49104,30639
49490,30799
49631,30799
49631,30872
49687,31008
49791,31111
49926,31168
50072,31168
50100,31156
50055,31202
49975,31395
49974,31603
50054,31797
50202,31944
50395,32024
50603,32025
50797,31945
50944,31797
51024,31604
51025,31396
50945,31203
50797,31055
50604,30975
50396,30974
50310,31010
50311,31008
50368,30873
50368,30727
50345,30671
50349,30650
50338,30596
50589,30345
50652,30194
50682,30239
50874,30367
51100,30412
51325,30367
51517,30239
51600,30115
51682,30239
51874,30367
52100,30412
52325,30367
52517,30239
52600,30115
52682,30239
52874,30367
53100,30412
53325,30367
53517,30239
53600,30115
53682,30239
53874,30367
54100,30412
54325,30367
54517,30239
54600,30115
54682,30239
54874,30367
55100,30412
55325,30367
55517,30239
55600,30115
55682,30239
55874,30367
56100,30412
56325,30367
56517,30239
56600,30115
56682,30239
56874,30367
57100,30412
57299,30372
57488,30561
57585,30626
57585,30626
57604,30630
57700,30649
59476,30649
59547,30720
59475,30895
59475,30951
59361,30838
59264,30773
59150,30750
55800,30750
55685,30773
55588,30838
55525,30901
55525,30896
55445,30703
55297,30555
55104,30475
54896,30474
54703,30554
54556,30700
54443,30700
54297,30555
54104,30475
53896,30474
53703,30554
53555,30702
53475,30895
53474,31103
53514,31200
52271,31200
52258,31188
52123,31131
51977,31131
51841,31187
51738,31291
51681,31426
51681,31572
51737,31708
51841,31811
51976,31868
52122,31868
52258,31812
52271,31799
53514,31799
53475,31895
53474,32103
53475,32105
53450,32100
50271,32100
50208,32038
50073,31981
49927,31981
49791,32037
49688,32141
49631,32276
49631,32422
49687,32558
49791,32661
49926,32718
50072,32718
50118,32699
53344,32699
53385,32726
53500,32749
54031,32749
54031,32772
54087,32908
54191,33011
54295,33055
54337,33158
54441,33261
54576,33318
54722,33318
54858,33262
54871,33249
55035,33249
54975,33395
54974,33603
55054,33797
55202,33944
55335,34000
55203,34054
55055,34202
54975,34395
54974,34603
55054,34797
55202,34944
55210,34948
55223,35014
55288,35111
55685,35508
55604,35475
55396,35474
55203,35554
55055,35702
54975,35895
54974,36001
54761,35788
54664,35723
54550,35700
54443,35700
54297,35555
54104,35475
53896,35474
53703,35554
53555,35702
53475,35895
53474,36103
53486,36131
53427,36131
53291,36187
53188,36291
53131,36426
53131,36444
53024,36551
53025,36396
52945,36203
52797,36055
52664,35999
52797,35945
52944,35797
53024,35604
53025,35396
52945,35203
52797,35055
52664,34999
52797,34945
52944,34797
53024,34604
53025,34396
52945,34203
52797,34055
52604,33975
52396,33974
52203,34054
52055,34202
51975,34395
51974,34603
52054,34797
52202,34944
52335,35000
52203,35054
52055,35202
51975,35395
51974,35603
52054,35797
52202,35944
52335,36000
52203,36054
52055,36202
51975,36395
51974,36603
52054,36797
52202,36944
52335,37000
52203,37054
52055,37202
51975,37395
51974,37603
52054,37797
52202,37944
52335,38000
52203,38054
52055,38202
51975,38395
51974,38603
52014,38700
49985,38700
50024,38604
50025,38396
49945,38203
49797,38055
49664,37999
49797,37945
49944,37797
50024,37604
50025,37396
49945,37203
49797,37055
49664,36999
49797,36945
49944,36797
50024,36604
50025,36396
49945,36203
49797,36055
49664,35999
49797,35945
49944,35797
50024,35604
50025,35396
49945,35203
49797,35055
49664,34999
49797,34945
49944,34797
50024,34604
50025,34396
49945,34203
49797,34055
49725,34025
49824,34025
49916,33987
49986,33916
50024,33824
50025,33725
50025,33175
49987,33083
49916,33013
49824,32975
49725,32974
49175,32974
49083,33012
49013,33083
48975,33175
48975,33200
48943,33200
48797,33055
48604,32975
48396,32974
48203,33054
48055,33202
47975,33395
47974,33603
48054,33797
48202,33944
48335,34000
48203,34054
48055,34202
47975,34395
47974,34603
48054,34797
48200,34943
48200,35100
48223,35214
48288,35311
48451,35474
48396,35474
48203,35554
48055,35702
47975,35895
47974,36103
48008,36185
47611,35788
47514,35723
47448,35710
47445,35703
47297,35555
47104,35475
46896,35474
46703,35554
46555,35702
46475,35895
46474,36103
46554,36297
46702,36444
46835,36500
46703,36554
46555,36702
46475,36895
46474,37103
46554,37297
46702,37444
46895,37524
47103,37525
47297,37445
47334,37407
47638,37711
47735,37776
47735,37776
47850,37799
49056,37799
49202,37944
49335,38000
49203,38054
49056,38200
48943,38200
48797,38055
48604,37975
48396,37974
48203,38054
48055,38202
47975,38395
47974,38603
48017,38707
48017,38707
47935,38723
47838,38788
47426,39200
46943,39200
46797,39055
46604,38975
46396,38974
46203,39054
46056,39200
45500,39200
45385,39223
45288,39288
45126,39449
44650,39449
44558,39487
44488,39558
44450,39650
44449,39749
44449,40349
44487,40441
44558,40511
44650,40549
44672,40549
44534,40688
44450,40890
44449,41108
44533,41311
44688,41465
44769,41499
44688,41533
44534,41688
44450,41890
44449,42108
44533,42311
44688,42465
44769,42499
44688,42533
44534,42688
44450,42890
44449,43108
44533,43311
44688,43465
44769,43499
44688,43533
44534,43688
44450,43890
44449,44108
44533,44311
44688,44465
44890,44549
45108,44550
45311,44466
45465,44311
45549,44109
45550,43891
45466,43688
45311,43534
45230,43500
45311,43466
45465,43311
45471,43299
46056,43299
46202,43444
46395,43524
46603,43525
46797,43445
46943,43299
49926,43299
50192,43565
50055,43702
49975,43895
49974,44103
50054,44297
50202,44444
50395,44524
50603,44525
50797,44445
50944,44297
51000,44164
51054,44297
51202,44444
51395,44524
51603,44525
51797,44445
51944,44297
52000,44164
52054,44297
52202,44444
52395,44524
52603,44525
52797,44445
52944,44297
53000,44164
53054,44297
53202,44444
53395,44524
53603,44525
53797,44445
53944,44297
54024,44104
54025,43896
53945,43703
53797,43555
53604,43475
53396,43474
53203,43554
53055,43702
52999,43835
52945,43703
52797,43555
52604,43475
52396,43474
52203,43554
52055,43702
51999,43835
51945,43703
51797,43555
51604,43475
51396,43474
51203,43554
51055,43702
50999,43835
50945,43703
50799,43556
50799,43450
50776,43335
50711,43238
50261,42788
50164,42723
50050,42700
46943,42700
46797,42555
46664,42499
46797,42445
46943,42299
51228,42299
51291,42361
51426,42418
51572,42418
51708,42362
51811,42258
51868,42123
51868,41977
51812,41841
51769,41799
57277,41799
57101,41975
56896,41974
56703,42054
56555,42202
56475,42395
56474,42603
56554,42797
56702,42944
56895,43024
57103,43025
57297,42945
57444,42797
57500,42664
57554,42797
57702,42944
57895,43024
58103,43025
58297,42945
58443,42799
58474,42799
58474,42824
58512,42916
58583,42986
58675,43024
58774,43025
58774,43025
58703,43054
58555,43202
58475,43395
58474,43603
58554,43797
58702,43944
58835,44000
58703,44054
58555,44202
58475,44395
58474,44603
58554,44797
58702,44944
58835,45000
58703,45054
58555,45202
58475,45395
58474,45603
58554,45797
58702,45944
58895,46024
59103,46025
59297,45945
59444,45797
59524,45604
59525,45396
59445,45203
59297,45055
59164,44999
59297,44945
59444,44797
59524,44604
59525,44396
59483,44295
59500,44299
61514,44299
61475,44395
61474,44603
61554,44797
61702,44944
61835,45000
61703,45054
61555,45202
61475,45395
61474,45603
61554,45797
61702,45944
61895,46024
62103,46025
62297,45945
62444,45797
62524,45604
62525,45396
62445,45203
62297,45055
62164,44999
62297,44945
62444,44797
62524,44604
62525,44396
62482,44292
62564,44276
62661,44211
63070,43803
63812,43803
63863,43928
64074,44139
64350,44253
64648,44254
64924,44140
65039,44025
67837,44025
68023,44212
68332,44340
68666,44340
68975,44212
69212,43976
69340,43667
69340,43333
69212,43024
68976,42787
68667,42659
68333,42659
68024,42787
67836,42974
65031,42974
64925,42868
64649,42754
64351,42753
64075,42867
63864,43078
63812,43204
62946,43204
62831,43227
62734,43292
62524,43501
62525,43396
62445,43203
62297,43055
62164,42999
62297,42945
62444,42797
62524,42604
62525,42396
62462,42244
62511,42211
62927,41795
63812,41795
63863,41920
64074,42131
64350,42245
64648,42246
64924,42132
65031,42025
67659,42025
67659,42140
67697,42231
67767,42302
67859,42340
67959,42340
69140,42340
69231,42302
69302,42232
69340,42140
69340,42040
69340,40859
69302,40768
69232,40697
69140,40659
69040,40659
67859,40659
67768,40697
67697,40767
67659,40859
67659,40959
67659,40974
65038,40974
64925,40860
64649,40746
64351,40745
64075,40859
63864,41070
63812,41196
62803,41196
62689,41219
62592,41284
62512,41364
62445,41203
62297,41055
62164,40999
62297,40945
62444,40797
62524,40604
62525,40396
62445,40203
62297,40055
62104,39975
61896,39974
61703,40054
61555,40202
61475,40395
61474,40603
61554,40797
61702,40944
61835,41000
61703,41054
61555,41202
61475,41395
61474,41603
61514,41700
60415,41700
60468,41573
60468,41427
60415,41299
60428,41299
60441,41311
60576,41368
60722,41368
60858,41312
60961,41208
61018,41073
61018,40927
60987,40851
61026,40868
61172,40868
61308,40812
61411,40708
61468,40573
61468,40427
61412,40291
61308,40188
61173,40131
61027,40131
60891,40187
60878,40200
60615,40200
60668,40073
60668,39927
60612,39791
60508,39688
60373,39631
60227,39631
60091,39687
60078,39700
59985,39700
60024,39604
60025,39396
59945,39203
59797,39055
59664,38999
59797,38945
59943,38799
61328,38799
61341,38811
61476,38868
61622,38868
61758,38812
61771,38799
64203,38799
64075,38851
63864,39062
63750,39338
63749,39636
63863,39912
64074,40123
64350,40238
64648,40238
64924,40124
65135,39913
65249,39638
65250,39339
65136,39063
64925,38852
64796,38799
66478,38799
66491,38811
66626,38868
66772,38868
66908,38812
67011,38708
67068,38573
67068,38427
67012,38291
66908,38188
66773,38131
66627,38131
66491,38187
66478,38200
65118,38200
65118,38077
65062,37941
64958,37838
64823,37781
64677,37781
64541,37837
64528,37850
61321,37850
61308,37838
61173,37781
61027,37781
60891,37837
60788,37941
60731,38076
60731,38200
59943,38200
59797,38055
59664,37999
59797,37945
59944,37797
60024,37604
60025,37396
59945,37203
59797,37055
59664,36999
59797,36945
59944,36797
60024,36604
60025,36396
59945,36203
59797,36055
59664,35999
59797,35945
59944,35797
60024,35604
60025,35396
59945,35203
59797,35055
59664,34999
59797,34945
59944,34797
60024,34604
60025,34396
60013,34368
60072,34368
60208,34312
60221,34299
60364,34299
60331,34376
60331,34522
60377,34633
60373,34631
60227,34631
60091,34687
59988,34791
59931,34926
59931,35072
59987,35208
60091,35311
60226,35368
60285,35368
60281,35376
60281,35522
60337,35658
60441,35761
60576,35818
60722,35818
60858,35762
60871,35749
60949,35749
60949,35749
60949,36349
60987,36441
61058,36511
61150,36549
61249,36550
61849,36550
61941,36512
62011,36441
62049,36349
62050,36250
62050,35749
62949,35749
62949,35749
62949,36349
62987,36441
63058,36511
63150,36549
63249,36550
63849,36550
63941,36512
64011,36441
64049,36349
64050,36250
64050,35749
64949,35749
64949,35749
64949,36349
64987,36441
65058,36511
65150,36549
65249,36550
65849,36550
65941,36512
66011,36441
66049,36349
66050,36250
66050,35650
66012,35558
65941,35488
65849,35450
65827,35450
65965,35311
66049,35109
66050,34891
65966,34688
65811,34534
65730,34500
65811,34466
65965,34311
66049,34109
66050,33891
65966,33688
65811,33534
65730,33500
65811,33466
65965,33311
66049,33109
66050,32891
65966,32688
65811,32534
65609,32450
65391,32449
65188,32533
65034,32688
64950,32890
64949,33108
65033,33311
65188,33465
65269,33499
65188,33533
65034,33688
64950,33890
64949,34108
65033,34311
65188,34465
65269,34499
65188,34533
65034,34688
64950,34890
64949,35108
64967,35150
64032,35150
64049,35109
64050,34891
63966,34688
63811,34534
63730,34500
63811,34466
63965,34311
64049,34109
64050,33891
63966,33688
63811,33534
63730,33500
63811,33466
63965,33311
64049,33109
64050,32891
63966,32688
63811,32534
63609,32450
63391,32449
63188,32533
63034,32688
62950,32890
62949,33108
62987,33200
62012,33200
62049,33109
62050,32891
61966,32688
61811,32534
61609,32450
61391,32449
61188,32533
61111,32610
61076,32525
61103,32525
61297,32445
61444,32297
61500,32164
61554,32297
61702,32444
61895,32524
62103,32525
62297,32445
62444,32297
62500,32164
62554,32297
62702,32444
62895,32524
63103,32525
63297,32445
63444,32297
63524,32104
63525,31896
63445,31703
63297,31555
63164,31499
63297,31445
63444,31297
63524,31104
63525,30896
63445,30703
63297,30555
63104,30475
62896,30474
62703,30554
62556,30700
62443,30700
62297,30555
62179,30505
61994,30321
62117,30239
62200,30115
62282,30239
62474,30367
62700,30412
62925,30367
63117,30239
63200,30115
63282,30239
63474,30367
63700,30412
63925,30367
64117,30239
64200,30115
64282,30239
64474,30367
64700,30412
64925,30367
65117,30239
65200,30115
65282,30239
65474,30367
65700,30412
65925,30367
66117,30239
66200,30115
66282,30239
66474,30367
66700,30412
66925,30367
67117,30239
67200,30115
67282,30239
67474,30367
67700,30412
67925,30367
68117,30239
68200,30115
68282,30239
68474,30367
68700,30412
68925,30367
69117,30239
69245,30048
69290,29822
69290,29677
69245,29451
69117,29260
68925,29132
68700,29087
68474,29132
68282,29260
68200,29384
68117,29260
67925,29132
67700,29087
67474,29132
67282,29260
67200,29384
67117,29260
66925,29132
66700,29087
66474,29132
66282,29260
66200,29384
66117,29260
65925,29132
65700,29087
65474,29132
65282,29260
65200,29384
65117,29260
64925,29132
64700,29087
64474,29132
64282,29260
64200,29384
64117,29260
63925,29132
63700,29087
63474,29132
63282,29260
63200,29384
63117,29260
62925,29132
62700,29087
62474,29132
62282,29260
62200,29384
62117,29260
61925,29132
61700,29087
61474,29132
61282,29260
61154,29451
61110,29677
61110,29822
61154,30048
61156,30050
60823,30050
60674,29901
60690,29822
60690,29677
60645,29451
60517,29260
60325,29132
60100,29087
59874,29132
59682,29260
59600,29384
59517,29260
59325,29132
59100,29087
58874,29132
58682,29260
58600,29384
58517,29260
58325,29132
58100,29087
57874,29132
57682,29260
57600,29384
57517,29260
57325,29132
57100,29087
56874,29132
56682,29260
56600,29384
56517,29260
56325,29132
56100,29087
55874,29132
55682,29260
55600,29384
55517,29260
55325,29132
55100,29087
54874,29132
54682,29260
54600,29384
54517,29260
54325,29132
54100,29087
53874,29132
53682,29260
53600,29384
53517,29260
53325,29132
53100,29087
52874,29132
52682,29260
52600,29384
52517,29260
52325,29132
52100,29087
51874,29132
51682,29260
51600,29384
51517,29260
51325,29132
51100,29087
50874,29132
50682,29260
50652,29305
50590,29156
50464,29029
68984,29029
69420,29465
69420,33850
69441,33956
69502,34047
70420,34965
70420,34985
70295,34860
69909,34700
69492,34699
69106,34859
68810,35154
68650,35540
68649,35957
68809,36344
69104,36639
69490,36799
69907,36800
70294,36640
70420,36514
70420,45985
70295,45860
69909,45700
69492,45699
69106,45859
68810,46154
68650,46540
68649,46957
68809,47344
69104,47639
69490,47799
69907,47800
70294,47640
70420,47514
70420,47634
" /> 
</g>
<g style="fill:#FFFFFF; fill-opacity:0.0; 
stroke:#FFFFFF; stroke-width:39.3701; stroke-opacity:1; 
stroke-linecap:round; stroke-linejoin:round;">
</g>
<g style="fill:#FFFFFF; fill-opacity:1.0; 
stroke:#FFFFFF; stroke-width:39.3701; stroke-opacity:1; 
stroke-linecap:round; stroke-linejoin:round;">
<circle cx="50000" cy="30800" r="59.0551" /> 
<circle cx="63450" cy="47800" r="59.0551" /> 
<circle cx="66700" cy="38500" r="59.0551" /> 
<circle cx="61550" cy="38500" r="59.0551" /> 
<circle cx="61100" cy="40500" r="59.0551" /> 
<circle cx="61100" cy="38150" r="59.0551" /> 
<circle cx="64750" cy="38150" r="59.0551" /> 
<circle cx="57000" cy="32000" r="59.0551" /> 
<circle cx="52050" cy="31500" r="59.0551" /> 
<circle cx="50000" cy="32350" r="59.0551" /> 
<circle cx="60650" cy="35450" r="59.0551" /> 
<circle cx="60650" cy="41000" r="59.0551" /> 
<circle cx="53500" cy="36500" r="59.0551" /> 
<circle cx="54650" cy="32950" r="59.0551" /> 
<circle cx="60000" cy="34000" r="59.0551" /> 
<circle cx="60100" cy="41500" r="59.0551" /> 
<circle cx="60700" cy="34450" r="59.0551" /> 
<circle cx="60750" cy="32700" r="59.0551" /> 
<circle cx="54400" cy="32700" r="59.0551" /> 
<circle cx="60300" cy="35000" r="59.0551" /> 
<circle cx="60300" cy="40000" r="59.0551" /> 
<circle cx="53500" cy="38950" r="59.0551" /> 
<circle cx="51500" cy="42050" r="59.0551" /> 
<circle cx="52000" cy="40000" r="59.0551" /> 
<circle cx="54700" cy="48750" r="180.315" /> 
<circle cx="55700" cy="48750" r="180.315" /> 
<circle cx="56700" cy="48750" r="180.315" /> 
<circle cx="57700" cy="48750" r="180.315" /> 
<circle cx="58700" cy="48750" r="180.315" /> 
<circle cx="59700" cy="48750" r="180.315" /> 
<circle cx="60700" cy="48750" r="180.315" /> 
<circle cx="61700" cy="48750" r="180.315" /> 
<circle cx="63700" cy="48750" r="180.315" /> 
<circle cx="64700" cy="48750" r="180.315" /> 
<circle cx="65700" cy="48750" r="180.315" /> 
<circle cx="66700" cy="48750" r="180.315" /> 
<circle cx="67700" cy="48750" r="180.315" /> 
<circle cx="68700" cy="48750" r="180.315" /> 
<circle cx="51100" cy="29750" r="180.315" /> 
<circle cx="52100" cy="29750" r="180.315" /> 
<circle cx="53100" cy="29750" r="180.315" /> 
<circle cx="54100" cy="29750" r="180.315" /> 
<circle cx="55100" cy="29750" r="180.315" /> 
<circle cx="56100" cy="29750" r="180.315" /> 
<circle cx="57100" cy="29750" r="180.315" /> 
<circle cx="58100" cy="29750" r="180.315" /> 
<circle cx="59100" cy="29750" r="180.315" /> 
<circle cx="60100" cy="29750" r="180.315" /> 
<circle cx="61700" cy="29750" r="180.315" /> 
<circle cx="62700" cy="29750" r="180.315" /> 
<circle cx="63700" cy="29750" r="180.315" /> 
<circle cx="64700" cy="29750" r="180.315" /> 
<circle cx="65700" cy="29750" r="180.315" /> 
<circle cx="66700" cy="29750" r="180.315" /> 
<circle cx="67700" cy="29750" r="180.315" /> 
<circle cx="68700" cy="29750" r="180.315" /> 
<circle cx="49200" cy="48750" r="580.315" /> 
<circle cx="69700" cy="46750" r="580.315" /> 
<circle cx="49700" cy="29750" r="580.315" /> 
<circle cx="69700" cy="35750" r="580.315" /> 
<circle cx="46500" cy="43000" r="140.315" /> 
<circle cx="46500" cy="42000" r="140.315" /> 
<circle cx="46500" cy="40500" r="140.315" /> 
<circle cx="46500" cy="39500" r="140.315" /> 
<circle cx="62000" cy="41500" r="140.315" /> 
<circle cx="62000" cy="40500" r="140.315" /> 
<circle cx="57000" cy="42500" r="140.315" /> 
<circle cx="58000" cy="42500" r="140.315" /> 
<circle cx="45000" cy="40000" r="180.315" /> 
<circle cx="45000" cy="41000" r="180.315" /> 
<circle cx="45000" cy="42000" r="180.315" /> 
<circle cx="45000" cy="43000" r="180.315" /> 
<circle cx="45000" cy="44000" r="180.315" /> 
<circle cx="65500" cy="36000" r="180.315" /> 
<circle cx="65500" cy="35000" r="180.315" /> 
<circle cx="65500" cy="34000" r="180.315" /> 
<circle cx="65500" cy="33000" r="180.315" /> 
<circle cx="63500" cy="36000" r="180.315" /> 
<circle cx="63500" cy="35000" r="180.315" /> 
<circle cx="63500" cy="34000" r="180.315" /> 
<circle cx="63500" cy="33000" r="180.315" /> 
<circle cx="61500" cy="36000" r="180.315" /> 
<circle cx="61500" cy="35000" r="180.315" /> 
<circle cx="61500" cy="34000" r="180.315" /> 
<circle cx="61500" cy="33000" r="180.315" /> 
<circle cx="59000" cy="42500" r="140.315" /> 
<circle cx="59000" cy="43500" r="140.315" /> 
<circle cx="59000" cy="44500" r="140.315" /> 
<circle cx="59000" cy="45500" r="140.315" /> 
<circle cx="62000" cy="45500" r="140.315" /> 
<circle cx="62000" cy="44500" r="140.315" /> 
<circle cx="62000" cy="43500" r="140.315" /> 
<circle cx="62000" cy="42500" r="140.315" /> 
<circle cx="50500" cy="47000" r="140.315" /> 
<circle cx="51500" cy="47000" r="140.315" /> 
<circle cx="52500" cy="47000" r="140.315" /> 
<circle cx="53500" cy="47000" r="140.315" /> 
<circle cx="53500" cy="44000" r="140.315" /> 
<circle cx="52500" cy="44000" r="140.315" /> 
<circle cx="51500" cy="44000" r="140.315" /> 
<circle cx="50500" cy="44000" r="140.315" /> 
<circle cx="56500" cy="33500" r="140.315" /> 
<circle cx="56500" cy="34500" r="140.315" /> 
<circle cx="56500" cy="35500" r="140.315" /> 
<circle cx="56500" cy="36500" r="140.315" /> 
<circle cx="56500" cy="37500" r="140.315" /> 
<circle cx="56500" cy="38500" r="140.315" /> 
<circle cx="56500" cy="39500" r="140.315" /> 
<circle cx="56500" cy="40500" r="140.315" /> 
<circle cx="59500" cy="40500" r="140.315" /> 
<circle cx="59500" cy="39500" r="140.315" /> 
<circle cx="59500" cy="38500" r="140.315" /> 
<circle cx="59500" cy="37500" r="140.315" /> 
<circle cx="59500" cy="36500" r="140.315" /> 
<circle cx="59500" cy="35500" r="140.315" /> 
<circle cx="59500" cy="34500" r="140.315" /> 
<circle cx="59500" cy="33500" r="140.315" /> 
<circle cx="49500" cy="33500" r="140.315" /> 
<circle cx="49500" cy="34500" r="140.315" /> 
<circle cx="49500" cy="35500" r="140.315" /> 
<circle cx="49500" cy="36500" r="140.315" /> 
<circle cx="49500" cy="37500" r="140.315" /> 
<circle cx="49500" cy="38500" r="140.315" /> 
<circle cx="49500" cy="39500" r="140.315" /> 
<circle cx="49500" cy="40500" r="140.315" /> 
<circle cx="52500" cy="40500" r="140.315" /> 
<circle cx="52500" cy="39500" r="140.315" /> 
<circle cx="52500" cy="38500" r="140.315" /> 
<circle cx="52500" cy="37500" r="140.315" /> 
<circle cx="52500" cy="36500" r="140.315" /> 
<circle cx="52500" cy="35500" r="140.315" /> 
<circle cx="52500" cy="34500" r="140.315" /> 
<circle cx="52500" cy="33500" r="140.315" /> 
<circle cx="48500" cy="38500" r="140.315" /> 
<circle cx="48500" cy="39500" r="140.315" /> 
<circle cx="51500" cy="31500" r="140.315" /> 
<circle cx="50500" cy="31500" r="140.315" /> 
<circle cx="47000" cy="36000" r="140.315" /> 
<circle cx="47000" cy="37000" r="140.315" /> 
<circle cx="48500" cy="36000" r="140.315" /> 
<circle cx="48500" cy="37000" r="140.315" /> 
<circle cx="55500" cy="33500" r="140.315" /> 
<circle cx="55500" cy="34500" r="140.315" /> 
<circle cx="55500" cy="36000" r="140.315" /> 
<circle cx="55500" cy="37000" r="140.315" /> 
<circle cx="54000" cy="36000" r="140.315" /> 
<circle cx="54000" cy="37000" r="140.315" /> 
<circle cx="55500" cy="38500" r="140.315" /> 
<circle cx="55500" cy="39500" r="140.315" /> 
<circle cx="58500" cy="31500" r="140.315" /> 
<circle cx="57500" cy="31500" r="140.315" /> 
<circle cx="48500" cy="33500" r="140.315" /> 
<circle cx="48500" cy="34500" r="140.315" /> 
<circle cx="68500" cy="41500" r="226.315" /> 
<circle cx="68500" cy="43500" r="226.315" /> 
<circle cx="64500" cy="45511.8" r="280.315" /> 
<circle cx="64500" cy="43503.9" r="280.315" /> 
<circle cx="64500" cy="41496.1" r="280.315" /> 
<circle cx="64500" cy="39488.2" r="280.315" /> 
<circle cx="60000" cy="32000" r="140.315" /> 
<circle cx="60000" cy="31000" r="140.315" /> 
<circle cx="61000" cy="31000" r="140.315" /> 
<circle cx="61000" cy="32000" r="140.315" /> 
<circle cx="62000" cy="32000" r="140.315" /> 
<circle cx="62000" cy="31000" r="140.315" /> 
<circle cx="63000" cy="31000" r="140.315" /> 
<circle cx="63000" cy="32000" r="140.315" /> 
<circle cx="55000" cy="32000" r="140.315" /> 
<circle cx="55000" cy="31000" r="140.315" /> 
<circle cx="54000" cy="31000" r="140.315" /> 
<circle cx="54000" cy="32000" r="140.315" /> 
<circle cx="45000" cy="46000" r="180.315" /> 
<circle cx="45000" cy="47000" r="180.315" /> 
<circle cx="45000" cy="48000" r="180.315" /> 
<circle cx="45000" cy="49000" r="180.315" /> 
</g> 
</svg>
