<?xml version="1.0" standalone="no"?>
 <!DOCTYPE svg PUBLIC "-//W3C//DTD SVG 1.1//EN" 
 "http://www.w3.org/Graphics/SVG/1.1/DTD/svg11.dtd"> 
<svg xmlns="http://www.w3.org/2000/svg" version="1.1" 
    width="7.96798cm" height="5.7023cm" viewBox="0 0 31370 22450 ">
<title>SVG Picture created as STM32ShieldForMetroMiniSlaves-B_Cu.svg date 2018/07/31 13:15:30 </title>
  <desc>Picture generated by PCBNEW </desc>
<g style="fill:#000000; fill-opacity:1;stroke:#000000; stroke-opacity:1;
stroke-linecap:round; stroke-linejoin:round; "
 transform="translate(0 0) scale(1 1)">
</g>
<g style="fill:#FFFF00; fill-opacity:0.0; 
stroke:#FFFF00; stroke-width:59.0551; stroke-opacity:1; 
stroke-linecap:round; stroke-linejoin:round;">
<path d="M28529 1150
L27929 550
" />
<path d="M28529 5650
L28529 1150
" />
<path d="M29529 6650
L28529 5650
" />
<path d="M29529 19550
L29529 6650
" />
<path d="M28529 20550
L29529 19550
" />
<path d="M28529 21550
L28529 20550
" />
<path d="M2529 21550
L28529 21550
" />
<path d="M2529 550
L2529 21550
" />
<path d="M27929 550
L2529 550
" />
</g>
<g style="fill:#808000; fill-opacity:0.0; 
stroke:#808000; stroke-width:680; stroke-opacity:1; 
stroke-linecap:round; stroke-linejoin:round;">
<path d="M13529 20490
L13529 20610
" />
<path d="M14529 20490
L14529 20610
" />
<path d="M15529 20490
L15529 20610
" />
<path d="M16529 20490
L16529 20610
" />
<path d="M17529 20490
L17529 20610
" />
<path d="M18529 20490
L18529 20610
" />
<path d="M19529 20490
L19529 20610
" />
<path d="M20529 20490
L20529 20610
" />
<path d="M22529 20490
L22529 20610
" />
<path d="M23529 20490
L23529 20610
" />
<path d="M24529 20490
L24529 20610
" />
<path d="M25529 20490
L25529 20610
" />
<path d="M26529 20490
L26529 20610
" />
<path d="M27529 20490
L27529 20610
" />
<path d="M9929 1490
L9929 1610
" />
<path d="M10929 1490
L10929 1610
" />
<path d="M11929 1490
L11929 1610
" />
<path d="M12929 1490
L12929 1610
" />
<path d="M13929 1490
L13929 1610
" />
<path d="M14929 1490
L14929 1610
" />
<path d="M15929 1490
L15929 1610
" />
<path d="M16929 1490
L16929 1610
" />
<path d="M17929 1490
L17929 1610
" />
<path d="M18929 1490
L18929 1610
" />
<path d="M20529 1490
L20529 1610
" />
<path d="M21529 1490
L21529 1610
" />
<path d="M22529 1490
L22529 1610
" />
<path d="M23529 1490
L23529 1610
" />
<path d="M24529 1490
L24529 1610
" />
<path d="M25529 1490
L25529 1610
" />
<path d="M26529 1490
L26529 1610
" />
<path d="M27529 1490
L27529 1610
" />
</g>
<g style="fill:#808000; fill-opacity:0.0; 
stroke:#808000; stroke-width:39.3701; stroke-opacity:1; 
stroke-linecap:round; stroke-linejoin:round;">
</g>
<g style="fill:#808000; fill-opacity:1.0; 
stroke:#808000; stroke-width:39.3701; stroke-opacity:1; 
stroke-linecap:round; stroke-linejoin:round;">
<circle cx="8029.53" cy="20550" r="780.315" /> 
<circle cx="28529.5" cy="18550" r="780.315" /> 
<circle cx="8529.53" cy="1550" r="780.315" /> 
<circle cx="28529.5" cy="7550" r="780.315" /> 
<circle cx="5329.53" cy="14800" r="255.315" /> 
<circle cx="5329.53" cy="13800" r="255.315" /> 
<circle cx="5329.53" cy="12300" r="255.315" /> 
<circle cx="5329.53" cy="11300" r="255.315" /> 
<circle cx="20829.5" cy="13300" r="255.315" /> 
<circle cx="20829.5" cy="12300" r="255.315" /> 
<circle cx="15829.5" cy="14300" r="255.315" /> 
<circle cx="16829.5" cy="14300" r="255.315" /> 
<polyline style="fill-rule:evenodd;"
points="3549,11519
4109,11519
4109,12080
3549,12080
3549,11519
" /> 
<circle cx="3829.53" cy="12800" r="280.315" /> 
<circle cx="3829.53" cy="13800" r="280.315" /> 
<circle cx="3829.53" cy="14800" r="280.315" /> 
<circle cx="3829.53" cy="15800" r="280.315" /> 
<polyline style="fill-rule:evenodd;"
points="24609,8080
24049,8080
24049,7519
24609,7519
24609,8080
" /> 
<circle cx="24329.5" cy="6800" r="280.315" /> 
<circle cx="24329.5" cy="5800" r="280.315" /> 
<circle cx="24329.5" cy="4800" r="280.315" /> 
<polyline style="fill-rule:evenodd;"
points="22609,8080
22049,8080
22049,7519
22609,7519
22609,8080
" /> 
<circle cx="22329.5" cy="6800" r="280.315" /> 
<circle cx="22329.5" cy="5800" r="280.315" /> 
<circle cx="22329.5" cy="4800" r="280.315" /> 
<polyline style="fill-rule:evenodd;"
points="20609,8080
20049,8080
20049,7519
20609,7519
20609,8080
" /> 
<circle cx="20329.5" cy="6800" r="280.315" /> 
<circle cx="20329.5" cy="5800" r="280.315" /> 
<circle cx="20329.5" cy="4800" r="280.315" /> 
<polyline style="fill-rule:evenodd;"
points="17574,14044
18084,14044
18084,14555
17574,14555
17574,14044
" /> 
<circle cx="17829.5" cy="15300" r="255.315" /> 
<circle cx="17829.5" cy="16300" r="255.315" /> 
<circle cx="17829.5" cy="17300" r="255.315" /> 
<circle cx="20829.5" cy="17300" r="255.315" /> 
<circle cx="20829.5" cy="16300" r="255.315" /> 
<circle cx="20829.5" cy="15300" r="255.315" /> 
<circle cx="20829.5" cy="14300" r="255.315" /> 
<polyline style="fill-rule:evenodd;"
points="9074,19055
9074,18544
9584,18544
9584,19055
9074,19055
" /> 
<circle cx="10329.5" cy="18800" r="255.315" /> 
<circle cx="11329.5" cy="18800" r="255.315" /> 
<circle cx="12329.5" cy="18800" r="255.315" /> 
<circle cx="12329.5" cy="15800" r="255.315" /> 
<circle cx="11329.5" cy="15800" r="255.315" /> 
<circle cx="10329.5" cy="15800" r="255.315" /> 
<circle cx="9329.53" cy="15800" r="255.315" /> 
<polyline style="fill-rule:evenodd;"
points="15074,5044
15584,5044
15584,5555
15074,5555
15074,5044
" /> 
<circle cx="15329.5" cy="6300" r="255.315" /> 
<circle cx="15329.5" cy="7300" r="255.315" /> 
<circle cx="15329.5" cy="8300" r="255.315" /> 
<circle cx="15329.5" cy="9300" r="255.315" /> 
<circle cx="15329.5" cy="10300" r="255.315" /> 
<circle cx="15329.5" cy="11300" r="255.315" /> 
<circle cx="15329.5" cy="12300" r="255.315" /> 
<circle cx="18329.5" cy="12300" r="255.315" /> 
<circle cx="18329.5" cy="11300" r="255.315" /> 
<circle cx="18329.5" cy="10300" r="255.315" /> 
<circle cx="18329.5" cy="9300" r="255.315" /> 
<circle cx="18329.5" cy="8300" r="255.315" /> 
<circle cx="18329.5" cy="7300" r="255.315" /> 
<circle cx="18329.5" cy="6300" r="255.315" /> 
<circle cx="18329.5" cy="5300" r="255.315" /> 
<polyline style="fill-rule:evenodd;"
points="8074,5044
8584,5044
8584,5555
8074,5555
8074,5044
" /> 
<circle cx="8329.53" cy="6300" r="255.315" /> 
<circle cx="8329.53" cy="7300" r="255.315" /> 
<circle cx="8329.53" cy="8300" r="255.315" /> 
<circle cx="8329.53" cy="9300" r="255.315" /> 
<circle cx="8329.53" cy="10300" r="255.315" /> 
<circle cx="8329.53" cy="11300" r="255.315" /> 
<circle cx="8329.53" cy="12300" r="255.315" /> 
<circle cx="11329.5" cy="12300" r="255.315" /> 
<circle cx="11329.5" cy="11300" r="255.315" /> 
<circle cx="11329.5" cy="10300" r="255.315" /> 
<circle cx="11329.5" cy="9300" r="255.315" /> 
<circle cx="11329.5" cy="8300" r="255.315" /> 
<circle cx="11329.5" cy="7300" r="255.315" /> 
<circle cx="11329.5" cy="6300" r="255.315" /> 
<circle cx="11329.5" cy="5300" r="255.315" /> 
<circle cx="7329.53" cy="10300" r="255.315" /> 
<circle cx="7329.53" cy="11300" r="255.315" /> 
<circle cx="10329.5" cy="3300" r="255.315" /> 
<circle cx="9329.53" cy="3300" r="255.315" /> 
<circle cx="5829.53" cy="7800" r="255.315" /> 
<circle cx="5829.53" cy="8800" r="255.315" /> 
<circle cx="7329.53" cy="7800" r="255.315" /> 
<circle cx="7329.53" cy="8800" r="255.315" /> 
<circle cx="14329.5" cy="5300" r="255.315" /> 
<circle cx="14329.5" cy="6300" r="255.315" /> 
<circle cx="14329.5" cy="7800" r="255.315" /> 
<circle cx="14329.5" cy="8800" r="255.315" /> 
<circle cx="12829.5" cy="7800" r="255.315" /> 
<circle cx="12829.5" cy="8800" r="255.315" /> 
<circle cx="14329.5" cy="10300" r="255.315" /> 
<circle cx="14329.5" cy="11300" r="255.315" /> 
<circle cx="17329.5" cy="3300" r="255.315" /> 
<circle cx="16329.5" cy="3300" r="255.315" /> 
<circle cx="7329.53" cy="5300" r="255.315" /> 
<circle cx="7329.53" cy="6300" r="255.315" /> 
<polyline style="fill-rule:evenodd;"
points="26758,12729
27900,12729
27900,13870
26758,13870
26758,12729
" /> 
<circle cx="27329.5" cy="15300" r="570.815" /> 
<polyline style="fill-rule:evenodd;"
points="23809,17792
22849,17792
22849,16831
23809,16831
23809,17792
" /> 
<circle cx="23329.5" cy="15303.9" r="480.315" /> 
<circle cx="23329.5" cy="13296.1" r="480.315" /> 
<circle cx="23329.5" cy="11288.2" r="480.315" /> 
<polyline style="fill-rule:evenodd;"
points="13549,18580
13549,18019
14109,18019
14109,18580
13549,18580
" /> 
<circle cx="14829.5" cy="18300" r="280.315" /> 
<circle cx="15829.5" cy="18300" r="280.315" /> 
<circle cx="16829.5" cy="18300" r="280.315" /> 
<circle cx="10329.5" cy="20300" r="255.315" /> 
<circle cx="11329.5" cy="20300" r="255.315" /> 
</g>
<g style="fill:#C0C0C0; fill-opacity:1.0; 
stroke:#C0C0C0; stroke-width:39.3701; stroke-opacity:1; 
stroke-linecap:round; stroke-linejoin:round;">
<circle cx="22279.5" cy="19600" r="98.4252" /> 
<circle cx="25829.5" cy="19300" r="98.4252" /> 
<circle cx="3079.53" cy="18050" r="98.4252" /> 
<circle cx="3079.53" cy="2800" r="98.4252" /> 
<circle cx="20329.5" cy="17800" r="98.4252" /> 
<circle cx="20379.5" cy="10300" r="98.4252" /> 
<circle cx="12829.5" cy="12300" r="98.4252" /> 
<circle cx="13479.5" cy="9350" r="98.4252" /> 
<circle cx="16329.5" cy="12300" r="98.4252" /> 
<circle cx="12329.5" cy="10750" r="98.4252" /> 
<circle cx="19479.5" cy="7250" r="98.4252" /> 
<circle cx="19479.5" cy="12800" r="98.4252" /> 
<circle cx="9329.53" cy="8300" r="98.4252" /> 
<circle cx="9329.53" cy="4550" r="98.4252" /> 
<circle cx="19529.5" cy="6250" r="98.4252" /> 
<circle cx="19579.5" cy="4500" r="98.4252" /> 
<circle cx="18829.5" cy="5800" r="98.4252" /> 
<circle cx="18929.5" cy="13300" r="98.4252" /> 
<circle cx="23829.5" cy="10350" r="98.4252" /> 
<circle cx="10329.5" cy="4800" r="98.4252" /> 
<circle cx="9079.53" cy="13000" r="98.4252" /> 
<circle cx="15829.5" cy="13050" r="98.4252" /> 
<circle cx="15829.5" cy="6800" r="98.4252" /> 
</g>
<g style="fill:#00A000; fill-opacity:1.0; 
stroke:#00A000; stroke-width:98.4252; stroke-opacity:1; 
stroke-linecap:round; stroke-linejoin:round;">
<path d="M20829 12300
L20929 12300
" />
<path d="M22279 12950
L22279 19600
" />
<path d="M20929 12300
L22279 12950
" />
<path d="M17329 3300
L17829 3300
" />
<path d="M18329 3800
L18329 5300
" />
<path d="M17829 3300
L18329 3800
" />
<path d="M25829 2800
L25829 3800
" />
<path d="M25829 3800
L25829 19300
" />
<path d="M25529 2500
L25829 2800
" />
<path d="M25529 2500
L25529 1550
" />
<path d="M11329 18800
L11329 20300
" />
<path d="M3079 18050
L3079 2800
" />
<path d="M20329 17800
L20329 16800
" />
<path d="M20329 16800
L20829 16300
" />
<path d="M20379 12850
L20379 10300
" />
<path d="M20829 13300
L20379 12850
" />
<path d="M18329 11300
L18329 10300
" />
<path d="M11329 11300
L11329 10300
" />
<path d="M20829 15300
L20829 15200
" />
<path d="M20379 13750
L20829 13300
" />
<path d="M20379 14750
L20379 13750
" />
<path d="M20829 15200
L20379 14750
" />
<path d="M20829 16300
L20829 15300
" />
<path d="M14829 18300
L14829 17300
" />
<path d="M12829 15300
L12829 12300
" />
<path d="M14829 17300
L12829 15300
" />
<path d="M14829 15800
L15829 16800
" />
<path d="M14129 15800
L14829 15800
" />
<path d="M13479 15150
L14129 15800
" />
<path d="M13479 9350
L13479 15150
" />
<path d="M15829 16800
L15829 18300
" />
<path d="M16829 18300
L16829 15300
" />
<path d="M16329 14800
L16329 12300
" />
<path d="M16829 15300
L16329 14800
" />
</g>
<g style="fill:#00A000; fill-opacity:1.0; 
stroke:#00A000; stroke-width:551.181; stroke-opacity:1; 
stroke-linecap:round; stroke-linejoin:round;">
<path d="M23329 11288
L23817 11288
" />
<path d="M24629 16011
L23329 17311
" />
<path d="M24629 12100
L24629 16011
" />
<path d="M23817 11288
L24629 12100
" />
</g>
<g style="fill:#00A000; fill-opacity:1.0; 
stroke:#00A000; stroke-width:98.4252; stroke-opacity:1; 
stroke-linecap:round; stroke-linejoin:round;">
<path d="M8329 6300
L8329 6450
" />
<path d="M7329 7450
L7329 7800
" />
<path d="M8329 6450
L7329 7450
" />
<path d="M12329 10750
L12329 15800
" />
<path d="M19479 12800
L19479 7250
" />
<path d="M9329 4550
L9329 8300
" />
<path d="M19529 4550
L19529 6250
" />
<path d="M19579 4500
L19529 4550
" />
<path d="M18879 13250
L18829 5800
" />
<path d="M18929 13300
L18879 13250
" />
<path d="M24329 5800
L23829 6300
" />
<path d="M23829 6300
L23829 10350
" />
<path d="M11329 7300
L11079 7300
" />
<path d="M10329 6550
L10329 4800
" />
<path d="M11079 7300
L10329 6550
" />
<path d="M8879 11850
L8329 11300
" />
<path d="M8879 12800
L8879 11850
" />
<path d="M9079 13000
L8879 12800
" />
<path d="M15829 6800
L15829 13050
" />
<path d="M15329 6300
L15329 6450
" />
<path d="M14329 7450
L14329 7800
" />
<path d="M15329 6450
L14329 7450
" />
<path d="M17829 15300
L18329 15800
" />
<path d="M18329 16800
L17829 17300
" />
<path d="M18329 15800
L18329 16800
" />
<path d="M17829 14300
L17279 14850
" />
<path d="M17279 15750
L17829 16300
" />
<path d="M17279 14850
L17279 15750
" />
</g>
<g style="fill:#00A000; fill-opacity:1.0; 
stroke:#00A000; stroke-width:39.3701; stroke-opacity:1; 
stroke-linecap:round; stroke-linejoin:round;">
<polyline style="fill-rule:evenodd;"
points="29250,19434
28331,20352
28271,20443
28250,20550
28250,21270
28119,21270
28119,20622
28119,20477
28074,20251
27946,20060
27755,19932
27529,19887
27303,19932
27112,20060
27029,20184
26946,20060
26755,19932
26529,19887
26303,19932
26112,20060
26029,20184
25946,20060
25755,19932
25529,19887
25303,19932
25155,20031
25155,16011
25155,16011
25155,12100
25115,11898
25115,11898
25069,11830
25001,11728
25001,11728
24189,10916
24018,10802
23876,10774
23820,10718
23902,10718
24037,10662
24141,10558
24197,10423
24197,10277
24141,10141
24128,10128
24128,7312
24219,7349
24438,7350
24640,7266
24795,7111
24879,6909
24879,6691
24796,6488
24641,6334
24559,6300
24640,6266
24795,6111
24879,5909
24879,5691
24796,5488
24641,5334
24439,5250
24220,5249
24018,5333
23863,5488
23779,5690
23779,5908
23784,5921
23617,6088
23553,6185
23530,6300
23530,10128
23517,10141
23461,10276
23461,10422
23515,10553
23479,10538
23180,10538
22905,10651
22879,10677
22879,6691
22796,6488
22641,6334
22559,6300
22640,6266
22795,6111
22879,5909
22879,5691
22796,5488
22641,5334
22439,5250
22220,5249
22018,5333
21863,5488
21779,5690
21779,5908
21862,6111
22017,6265
22099,6299
22018,6333
21863,6488
21779,6690
21779,6908
21862,7111
22017,7265
22219,7349
22438,7350
22640,7266
22795,7111
22879,6909
22879,6691
22879,10677
22694,10862
22579,11138
22579,11436
22693,11712
22904,11923
23179,12038
23478,12038
23723,11937
24103,12317
24103,15794
24079,15818
24079,15155
24079,13147
23965,12871
23754,12660
23479,12546
23180,12545
22905,12659
22694,12870
22579,13146
22579,13444
22693,13720
22904,13931
23179,14045
23478,14046
23753,13932
23964,13721
24079,13445
24079,13147
24079,15155
23965,14879
23754,14668
23479,14554
23180,14553
22905,14667
22694,14878
22579,15154
22579,15452
22693,15728
22904,15939
23179,16053
23478,16054
23753,15940
23964,15729
24079,15453
24079,15155
24079,15818
23336,16561
22780,16561
22688,16599
22617,16670
22579,16761
22579,16861
22579,17861
22617,17953
22687,18023
22779,18061
22879,18061
23879,18061
23970,18023
24041,17953
24079,17861
24079,17762
24079,17305
25001,16383
25001,16383
25001,16383
25069,16281
25115,16212
25115,16212
25155,16011
25155,16011
25155,20031
25112,20060
25029,20184
24946,20060
24755,19932
24529,19887
24303,19932
24112,20060
24029,20184
23946,20060
23755,19932
23529,19887
23303,19932
23112,20060
23029,20184
22946,20060
22755,19932
22529,19887
22508,19891
22591,19808
22647,19673
22647,19527
22591,19391
22578,19378
22578,12950
22569,12903
22562,12850
22557,12843
22555,12835
22530,12797
22502,12750
22495,12744
22491,12738
22453,12713
22409,12680
21342,12166
21274,12003
21127,11855
20934,11775
20879,11775
20879,6691
20796,6488
20641,6334
20559,6300
20640,6266
20795,6111
20879,5909
20879,5691
20796,5488
20641,5334
20439,5250
20220,5249
20018,5333
19863,5488
19828,5571
19828,4771
19891,4708
19947,4573
19947,4427
19891,4291
19788,4188
19653,4131
19519,4131
19519,1622
19519,1477
19474,1251
19346,1060
19155,932
18929,887
18703,932
18512,1060
18429,1184
18346,1060
18155,932
17929,887
17703,932
17512,1060
17429,1184
17346,1060
17155,932
16929,887
16703,932
16512,1060
16429,1184
16346,1060
16155,932
15929,887
15703,932
15512,1060
15429,1184
15346,1060
15155,932
14929,887
14703,932
14512,1060
14429,1184
14346,1060
14155,932
13929,887
13703,932
13512,1060
13384,1251
13339,1477
13339,1622
13384,1848
13512,2039
13703,2167
13929,2212
14155,2167
14346,2039
14429,1915
14512,2039
14703,2167
14929,2212
15155,2167
15346,2039
15429,1915
15512,2039
15703,2167
15929,2212
16155,2167
16346,2039
16429,1915
16512,2039
16703,2167
16929,2212
17155,2167
17346,2039
17429,1915
17512,2039
17703,2167
17929,2212
18155,2167
18346,2039
18429,1915
18512,2039
18703,2167
18929,2212
19155,2167
19346,2039
19474,1848
19519,1622
19519,4131
19506,4131
19371,4187
19267,4291
19211,4426
19211,4572
19230,4618
19230,6028
19217,6041
19161,6176
19161,6322
19217,6458
19320,6561
19455,6618
19602,6618
19737,6562
19841,6458
19897,6323
19897,6177
19875,6123
20017,6265
20099,6299
20018,6333
19863,6488
19779,6690
19779,6908
19862,7111
20017,7265
20219,7349
20438,7350
20640,7266
20795,7111
20879,6909
20879,6691
20879,11775
20725,11774
20678,11794
20678,10521
20691,10508
20747,10373
20747,10227
20691,10091
20588,9988
20453,9931
20306,9931
20171,9987
20067,10091
20011,10226
20011,10372
20067,10508
20080,10521
20080,12850
20103,12964
20167,13061
20304,13198
20304,13401
20167,13538
20103,13635
20080,13750
20080,14750
20103,14864
20167,14961
20333,15126
20304,15195
20304,15403
20384,15597
20530,15743
20530,15856
20384,16002
20304,16195
20304,16401
20117,16588
20053,16685
20030,16800
20030,17578
20017,17591
19961,17726
19961,17872
20017,18008
20120,18111
20255,18168
20402,18168
20537,18112
20641,18008
20697,17873
20697,17727
20641,17591
20628,17578
20628,16923
20727,16824
20933,16825
21126,16745
21274,16597
21354,16404
21354,16196
21274,16003
21128,15856
21128,15743
21274,15597
21354,15404
21354,15196
21274,15003
21127,14855
20934,14775
20827,14774
20678,14626
20678,13873
20727,13824
20933,13825
21126,13745
21274,13597
21354,13404
21354,13196
21274,13003
21127,12855
20994,12799
21126,12745
21139,12732
21980,13137
21980,19378
21967,19391
21911,19526
21911,19672
21967,19808
22070,19911
22205,19968
22250,19968
22112,20060
21984,20251
21939,20477
21939,20622
21984,20848
22112,21039
22303,21167
22529,21212
22755,21167
22946,21039
23029,20915
23112,21039
23303,21167
23529,21212
23755,21167
23946,21039
24029,20915
24112,21039
24303,21167
24529,21212
24755,21167
24946,21039
25029,20915
25112,21039
25303,21167
25529,21212
25755,21167
25946,21039
26029,20915
26112,21039
26303,21167
26529,21212
26755,21167
26946,21039
27029,20915
27112,21039
27303,21167
27529,21212
27755,21167
27946,21039
28074,20848
28119,20622
28119,21270
21119,21270
21119,20622
21119,20477
21074,20251
20946,20060
20755,19932
20529,19887
20303,19932
20112,20060
19984,20251
19939,20477
19939,20622
19984,20848
20112,21039
20303,21167
20529,21212
20755,21167
20946,21039
21074,20848
21119,20622
21119,21270
19847,21270
19847,12727
19791,12591
19778,12578
19778,7471
19791,7458
19847,7323
19847,7177
19791,7041
19688,6938
19553,6881
19406,6881
19271,6937
19167,7041
19137,7112
19130,6019
19141,6008
19197,5873
19197,5727
19141,5591
19038,5488
18903,5431
18843,5431
18854,5404
18854,5196
18774,5003
18628,4856
18628,3800
18605,3685
18605,3685
18541,3588
18041,3088
17944,3023
17829,3000
17772,3000
17627,2855
17434,2775
17225,2774
17032,2854
16884,3002
16804,3195
16804,3403
16884,3597
17031,3744
17224,3824
17433,3825
17626,3745
17739,3632
18030,3923
18030,4856
17884,5002
17804,5195
17804,5403
17884,5597
18031,5744
18224,5824
18433,5825
18461,5813
18461,5872
18517,6008
18531,6022
18537,6817
18434,6775
18225,6774
18032,6854
17884,7002
17804,7195
17804,7403
17884,7597
18031,7744
18164,7800
18032,7854
17884,8002
17804,8195
17804,8403
17884,8597
18031,8744
18164,8800
18032,8854
17884,9002
17804,9195
17804,9403
17884,9597
18031,9744
18164,9800
18032,9854
17884,10002
17804,10195
17804,10403
17884,10597
18030,10743
18030,10856
17884,11002
17804,11195
17804,11403
17884,11597
18031,11744
18164,11800
18032,11854
17884,12002
17804,12195
17804,12403
17884,12597
18031,12744
18224,12824
18433,12825
18578,12764
18581,13177
18561,13226
18561,13372
18617,13508
18720,13611
18855,13668
19002,13668
19137,13612
19241,13508
19297,13373
19297,13227
19241,13091
19179,13029
19179,13020
19270,13111
19405,13168
19552,13168
19687,13112
19791,13008
19847,12873
19847,12727
19847,21270
18628,21270
18628,16800
18628,15800
18605,15685
18605,15685
18541,15588
18354,15401
18354,15196
18274,15003
18127,14855
18054,14825
18154,14825
18245,14787
18316,14716
18354,14624
18354,14525
18354,13975
18316,13883
18246,13813
18154,13775
18055,13774
17505,13774
17413,13812
17342,13883
17304,13975
17304,14074
17304,14074
17274,14003
17127,13855
16934,13775
16725,13774
16628,13814
16628,12521
16641,12508
16697,12373
16697,12227
16641,12091
16538,11988
16403,11931
16256,11931
16128,11984
16128,7021
16141,7008
16197,6873
16197,6727
16141,6591
16038,6488
15903,6431
15843,6431
15854,6404
15854,6196
15774,6003
15627,5855
15554,5825
15654,5825
15745,5787
15816,5716
15854,5624
15854,5525
15854,4975
15816,4883
15746,4813
15654,4775
15555,4774
15005,4774
14913,4812
14842,4883
14804,4975
14804,5074
14804,5074
14774,5003
14627,4855
14434,4775
14225,4774
14032,4854
13884,5002
13804,5195
13804,5403
13884,5597
14031,5744
14164,5800
14032,5854
13884,6002
13804,6195
13804,6403
13884,6597
14031,6744
14224,6824
14433,6825
14600,6756
14117,7238
14053,7335
14050,7347
14032,7354
13884,7502
13804,7695
13804,7903
13884,8097
14031,8244
14224,8324
14433,8325
14626,8245
14774,8097
14854,7904
14854,7696
14774,7503
14737,7465
14804,7398
14804,7403
14884,7597
15031,7744
15164,7800
15032,7854
14884,8002
14804,8195
14804,8403
14884,8597
15031,8744
15164,8800
15032,8854
14884,9002
14804,9195
14804,9403
14884,9597
15031,9744
15164,9800
15032,9854
14884,10002
14829,10135
14774,10003
14627,9855
14434,9775
14225,9774
14032,9854
13884,10002
13804,10195
13804,10403
13884,10597
14031,10744
14224,10824
14433,10825
14626,10745
14774,10597
14829,10464
14884,10597
15031,10744
15164,10800
15032,10854
14884,11002
14804,11195
14804,11403
14884,11597
15031,11744
15164,11800
15032,11854
14884,12002
14804,12195
14804,12403
14884,12597
15031,12744
15224,12824
15433,12825
15530,12785
15530,12828
15517,12841
15461,12976
15461,13122
15517,13258
15620,13361
15755,13418
15902,13418
16030,13365
16030,13814
15934,13775
15725,13774
15532,13854
15384,14002
15304,14195
15304,14403
15384,14597
15531,14744
15724,14824
15933,14825
16030,14785
16030,14800
16053,14914
16117,15011
16530,15423
16530,17828
16518,17833
16363,17988
16329,18069
16296,17988
16141,17834
16128,17828
16128,16800
16109,16704
16105,16685
16105,16685
16041,16588
15041,15588
14944,15523
14829,15500
14253,15500
13778,15026
13778,9571
13791,9558
13847,9423
13847,9277
13791,9141
13688,9038
13553,8981
13406,8981
13305,9023
13354,8904
13354,8696
13274,8503
13127,8355
12994,8299
13126,8245
13274,8097
13354,7904
13354,7696
13274,7503
13127,7355
12934,7275
12725,7274
12532,7354
12384,7502
12304,7695
12304,7903
12384,8097
12531,8244
12664,8300
12532,8354
12384,8502
12304,8695
12304,8903
12384,9097
12531,9244
12724,9324
12933,9325
13123,9246
13111,9276
13111,9422
13167,9558
13180,9571
13180,12185
13141,12091
13038,11988
12903,11931
12756,11931
12628,11984
12628,10971
12641,10958
12697,10823
12697,10677
12641,10541
12538,10438
12403,10381
12256,10381
12121,10437
12017,10541
11961,10676
11961,10822
12017,10958
12030,10971
12030,15356
11884,15502
11854,15574
11854,12196
11774,12003
11627,11855
11494,11799
11626,11745
11774,11597
11854,11404
11854,11196
11774,11003
11628,10856
11628,10743
11774,10597
11854,10404
11854,10196
11774,10003
11627,9855
11494,9799
11626,9745
11774,9597
11854,9404
11854,9196
11774,9003
11627,8855
11494,8799
11626,8745
11774,8597
11854,8404
11854,8196
11774,8003
11627,7855
11494,7799
11626,7745
11774,7597
11854,7404
11854,7196
11854,5196
11774,5003
11627,4855
11434,4775
11225,4774
11032,4854
10884,5002
10854,5074
10854,3196
10774,3003
10627,2855
10434,2775
10225,2774
10032,2854
9884,3002
9804,3195
9804,3403
9884,3597
10031,3744
10224,3824
10433,3825
10626,3745
10774,3597
10854,3404
10854,3196
10854,5074
10804,5195
10804,5403
10884,5597
11031,5744
11224,5824
11433,5825
11626,5745
11774,5597
11854,5404
11854,5196
11854,7196
11774,7003
11627,6855
11434,6775
11225,6774
11050,6847
10628,6426
10628,5021
10641,5008
10697,4873
10697,4727
10641,4591
10538,4488
10403,4431
10256,4431
10121,4487
10017,4591
9961,4726
9961,4872
10017,5008
10030,5021
10030,6550
10053,6664
10117,6761
10835,7479
10884,7597
11031,7744
11164,7800
11032,7854
10884,8002
10804,8195
10804,8403
10884,8597
11031,8744
11164,8800
11032,8854
10884,9002
10804,9195
10804,9403
10884,9597
11031,9744
11164,9800
11032,9854
10884,10002
10804,10195
10804,10403
10884,10597
11030,10743
11030,10856
10884,11002
10804,11195
10804,11403
10884,11597
11031,11744
11164,11800
11032,11854
10884,12002
10804,12195
10804,12403
10884,12597
11031,12744
11224,12824
11433,12825
11626,12745
11774,12597
11854,12404
11854,12196
11854,15574
11829,15635
11774,15503
11627,15355
11434,15275
11225,15274
11032,15354
10884,15502
10829,15635
10774,15503
10627,15355
10434,15275
10225,15274
10032,15354
9884,15502
9829,15635
9774,15503
9697,15425
9697,8227
9641,8091
9628,8078
9628,4771
9641,4758
9697,4623
9697,4477
9641,4341
9538,4238
9403,4181
9256,4181
9121,4237
9017,4341
8961,4476
8961,4622
9017,4758
9030,4771
9030,8078
9017,8091
8961,8226
8961,8372
9017,8508
9120,8611
9255,8668
9402,8668
9537,8612
9641,8508
9697,8373
9697,8227
9697,15425
9627,15355
9447,15280
9447,12927
9391,12791
9288,12688
9178,12642
9178,11850
9155,11735
9155,11735
9091,11638
8854,11401
8854,11196
8774,11003
8627,10855
8494,10799
8626,10745
8774,10597
8854,10404
8854,10196
8774,10003
8627,9855
8494,9799
8626,9745
8774,9597
8854,9404
8854,9196
8774,9003
8627,8855
8494,8799
8626,8745
8774,8597
8854,8404
8854,8196
8774,8003
8627,7855
8494,7799
8626,7745
8774,7597
8854,7404
8854,7196
8774,7003
8627,6855
8494,6799
8626,6745
8774,6597
8854,6404
8854,6196
8774,6003
8627,5855
8554,5825
8654,5825
8745,5787
8816,5716
8854,5624
8854,5525
8854,4975
8816,4883
8746,4813
8654,4775
8555,4774
8005,4774
7913,4812
7842,4883
7804,4975
7804,5074
7804,5074
7774,5003
7627,4855
7434,4775
7225,4774
7032,4854
6884,5002
6804,5195
6804,5403
6884,5597
7031,5744
7164,5800
7032,5854
6884,6002
6804,6195
6804,6403
6884,6597
7031,6744
7224,6824
7433,6825
7600,6756
7117,7238
7053,7335
7050,7347
7032,7354
6884,7502
6804,7695
6804,7903
6884,8097
7031,8244
7224,8324
7433,8325
7626,8245
7774,8097
7854,7904
7854,7696
7774,7503
7737,7465
7804,7398
7804,7403
7884,7597
8031,7744
8164,7800
8032,7854
7884,8002
7804,8195
7804,8403
7884,8597
8031,8744
8164,8800
8032,8854
7884,9002
7804,9195
7804,9403
7884,9597
8031,9744
8164,9800
8032,9854
7884,10002
7829,10135
7774,10003
7627,9855
7434,9775
7225,9774
7032,9854
6884,10002
6804,10195
6804,10403
6884,10597
7031,10744
7224,10824
7433,10825
7626,10745
7774,10597
7829,10464
7884,10597
8031,10744
8164,10800
8032,10854
7884,11002
7804,11195
7804,11403
7884,11597
8031,11744
8164,11800
8032,11854
7884,12002
7804,12195
7804,12403
7884,12597
8031,12744
8224,12824
8433,12825
8580,12764
8580,12800
8603,12914
8667,13011
8711,13054
8711,13072
8767,13208
8870,13311
9005,13368
9152,13368
9287,13312
9391,13208
9447,13073
9447,12927
9447,15280
9434,15275
9225,15274
9032,15354
8884,15502
8804,15695
8804,15903
8884,16097
9031,16244
9224,16324
9433,16325
9626,16245
9774,16097
9829,15964
9884,16097
10031,16244
10224,16324
10433,16325
10626,16245
10774,16097
10829,15964
10884,16097
11031,16244
11224,16324
11433,16325
11626,16245
11774,16097
11829,15964
11884,16097
12031,16244
12224,16324
12433,16325
12626,16245
12774,16097
12854,15904
12854,15748
14530,17423
14530,17828
14518,17833
14379,17972
14379,17950
14341,17858
14271,17788
14179,17750
14080,17749
13480,17749
13388,17787
13317,17858
13279,17950
13279,18049
13279,18649
13317,18741
13387,18811
13479,18849
13579,18850
14179,18850
14270,18812
14341,18741
14379,18649
14379,18627
14517,18765
14719,18849
14938,18850
15140,18766
15295,18611
15329,18530
15362,18611
15517,18765
15719,18849
15938,18850
16140,18766
16295,18611
16329,18530
16362,18611
16517,18765
16719,18849
16938,18850
17140,18766
17295,18611
17379,18409
17379,18191
17296,17988
17141,17834
17128,17828
17128,16022
17304,16198
17304,16403
17384,16597
17531,16744
17664,16800
17532,16854
17384,17002
17304,17195
17304,17403
17384,17597
17531,17744
17724,17824
17933,17825
18126,17745
18274,17597
18354,17404
18354,17198
18541,17011
18605,16914
18605,16914
18628,16800
18628,21270
18119,21270
18119,20622
18119,20477
18074,20251
17946,20060
17755,19932
17529,19887
17303,19932
17112,20060
17029,20184
16946,20060
16755,19932
16529,19887
16303,19932
16112,20060
16029,20184
15946,20060
15755,19932
15529,19887
15303,19932
15112,20060
15029,20184
14946,20060
14755,19932
14529,19887
14303,19932
14112,20060
14029,20184
13946,20060
13755,19932
13529,19887
13303,19932
13112,20060
12984,20251
12939,20477
12939,20622
12984,20848
13112,21039
13303,21167
13529,21212
13755,21167
13946,21039
14029,20915
14112,21039
14303,21167
14529,21212
14755,21167
14946,21039
15029,20915
15112,21039
15303,21167
15529,21212
15755,21167
15946,21039
16029,20915
16112,21039
16303,21167
16529,21212
16755,21167
16946,21039
17029,20915
17112,21039
17303,21167
17529,21212
17755,21167
17946,21039
18074,20848
18119,20622
18119,21270
11854,21270
11854,20196
11774,20003
11628,19856
11628,19243
11774,19097
11854,18904
11854,18696
11774,18503
11627,18355
11434,18275
11225,18274
11032,18354
10884,18502
10829,18635
10774,18503
10627,18355
10434,18275
10225,18274
10032,18354
9884,18502
9854,18574
9854,18475
9816,18383
9746,18313
9654,18275
9555,18274
9005,18274
8913,18312
8842,18383
8804,18475
8804,18574
8804,19124
8842,19216
8912,19286
9004,19324
9104,19325
9654,19325
9745,19287
9816,19216
9854,19124
9854,19025
9854,19025
9884,19097
10031,19244
10224,19324
10433,19325
10626,19245
10774,19097
10829,18964
10884,19097
11030,19243
11030,19856
10884,20002
10829,20135
10774,20003
10627,19855
10434,19775
10225,19774
10032,19854
9884,20002
9804,20195
9804,20403
9884,20597
10031,20744
10224,20824
10433,20825
10626,20745
10774,20597
10829,20464
10884,20597
11031,20744
11224,20824
11433,20825
11626,20745
11774,20597
11854,20404
11854,20196
11854,21270
8794,21270
8919,21145
9079,20759
9079,20342
8920,19956
8625,19660
8239,19500
7821,19499
7435,19659
7139,19954
6979,20340
6979,20757
7138,21144
7265,21270
6354,21270
6354,8696
6274,8503
6127,8355
5994,8299
6126,8245
6274,8097
6354,7904
6354,7696
6274,7503
6127,7355
5934,7275
5725,7274
5532,7354
5384,7502
5304,7695
5304,7903
5384,8097
5531,8244
5664,8300
5532,8354
5384,8502
5304,8695
5304,8903
5384,9097
5531,9244
5724,9324
5933,9325
6126,9245
6274,9097
6354,8904
6354,8696
6354,21270
5854,21270
5854,14696
5774,14503
5627,14355
5494,14299
5626,14245
5774,14097
5854,13904
5854,13696
5854,12196
5774,12003
5627,11855
5494,11799
5626,11745
5774,11597
5854,11404
5854,11196
5774,11003
5627,10855
5434,10775
5225,10774
5032,10854
4884,11002
4804,11195
4804,11403
4884,11597
5031,11744
5164,11800
5032,11854
4884,12002
4804,12195
4804,12403
4884,12597
5031,12744
5224,12824
5433,12825
5626,12745
5774,12597
5854,12404
5854,12196
5854,13696
5774,13503
5627,13355
5434,13275
5225,13274
5032,13354
4884,13502
4804,13695
4804,13903
4884,14097
5031,14244
5164,14300
5032,14354
4884,14502
4804,14695
4804,14903
4884,15097
5031,15244
5224,15324
5433,15325
5626,15245
5774,15097
5854,14904
5854,14696
5854,21270
2809,21270
2809,18300
2870,18361
3005,18418
3152,18418
3287,18362
3391,18258
3447,18123
3447,17977
3391,17841
3378,17828
3378,15126
3517,15265
3719,15349
3938,15350
4140,15266
4295,15111
4379,14909
4379,14691
4296,14488
4141,14334
4059,14300
4140,14266
4295,14111
4379,13909
4379,13691
4296,13488
4141,13334
4059,13300
4140,13266
4295,13111
4379,12909
4379,12691
4296,12488
4157,12350
4179,12350
4270,12312
4341,12241
4379,12149
4379,12050
4379,11450
4341,11358
4271,11288
4179,11250
4080,11249
3480,11249
3388,11287
3378,11297
3378,3021
3391,3008
3447,2873
3447,2727
3391,2591
3288,2488
3153,2431
3006,2431
2871,2487
2809,2549
2809,829
7765,829
7639,954
7479,1340
7479,1757
7638,2144
7933,2439
8319,2599
8737,2600
9123,2440
9419,2145
9481,1994
9512,2039
9703,2167
9929,2212
10155,2167
10346,2039
10429,1915
10512,2039
10703,2167
10929,2212
11155,2167
11346,2039
11429,1915
11512,2039
11703,2167
11929,2212
12155,2167
12346,2039
12474,1848
12519,1622
12519,1477
12474,1251
12346,1060
12155,932
11929,887
11703,932
11512,1060
11429,1184
11346,1060
11155,932
10929,887
10703,932
10512,1060
10429,1184
10346,1060
10155,932
9929,887
9703,932
9512,1060
9481,1105
9420,956
9293,829
27813,829
28250,1265
28250,5650
28271,5756
28331,5847
29250,6765
29250,6785
29125,6660
28739,6500
28321,6499
28119,6583
28119,1622
28119,1477
28074,1251
27946,1060
27755,932
27529,887
27303,932
27112,1060
27029,1184
26946,1060
26755,932
26529,887
26303,932
26112,1060
26029,1184
25946,1060
25755,932
25529,887
25303,932
25112,1060
25029,1184
24946,1060
24755,932
24529,887
24303,932
24112,1060
24029,1184
23946,1060
23755,932
23529,887
23303,932
23112,1060
23029,1184
22946,1060
22755,932
22529,887
22303,932
22112,1060
22029,1184
21946,1060
21755,932
21529,887
21303,932
21112,1060
21029,1184
20946,1060
20755,932
20529,887
20303,932
20112,1060
19984,1251
19939,1477
19939,1622
19984,1848
20112,2039
20303,2167
20529,2212
20755,2167
20946,2039
21029,1915
21112,2039
21303,2167
21529,2212
21755,2167
21946,2039
22029,1915
22112,2039
22303,2167
22529,2212
22755,2167
22946,2039
23029,1915
23112,2039
23303,2167
23529,2212
23755,2167
23946,2039
24029,1915
24112,2039
24303,2167
24529,2212
24755,2167
24946,2039
25029,1915
25112,2039
25230,2118
25230,2500
25253,2614
25317,2711
25530,2923
25530,3800
25530,19078
25517,19091
25461,19226
25461,19372
25517,19508
25620,19611
25755,19668
25902,19668
26037,19612
26141,19508
26197,19373
26197,19227
26141,19091
26128,19078
26128,3800
26128,2800
26128,2799
26105,2685
26105,2685
26084,2653
26041,2588
26041,2588
25828,2376
25828,2118
25946,2039
26029,1915
26112,2039
26303,2167
26529,2212
26755,2167
26946,2039
27029,1915
27112,2039
27303,2167
27529,2212
27755,2167
27946,2039
28074,1848
28119,1622
28119,6583
27935,6659
27639,6954
27479,7340
27479,7757
27638,8144
27933,8439
28319,8599
28737,8600
29123,8440
29250,8314
29250,17785
29125,17660
28739,17500
28321,17499
28170,17562
28170,15133
28170,15133
28170,13840
28170,12659
28132,12568
28061,12497
27969,12459
27870,12459
26689,12459
26597,12497
26527,12567
26489,12659
26488,12759
26488,13940
26526,14031
26597,14102
26689,14140
26788,14140
27969,14140
28061,14102
28131,14032
28169,13940
28170,13840
28170,15133
28042,14824
27806,14587
27497,14459
27163,14459
26854,14587
26617,14823
26489,15132
26488,15466
26616,15775
26852,16012
27161,16140
27495,16140
27805,16012
28041,15776
28169,15467
28170,15133
28170,17562
27935,17659
27639,17954
27479,18340
27479,18757
27638,19144
27933,19439
28319,19599
28737,19600
29123,19440
29250,19314
29250,19434
" /> 
</g>
<g style="fill:#00A000; fill-opacity:0.0; 
stroke:#00A000; stroke-width:100; stroke-opacity:1; 
stroke-linecap:round; stroke-linejoin:round;">
<polyline fill="none;"
points="29250,19434
28331,20352
28271,20443
28250,20550
28250,21270
28119,21270
28119,20622
28119,20477
28074,20251
27946,20060
27755,19932
27529,19887
27303,19932
27112,20060
27029,20184
26946,20060
26755,19932
26529,19887
26303,19932
26112,20060
26029,20184
25946,20060
25755,19932
25529,19887
25303,19932
25155,20031
25155,16011
25155,16011
25155,12100
25115,11898
25115,11898
25069,11830
25001,11728
25001,11728
24189,10916
24018,10802
23876,10774
23820,10718
23902,10718
24037,10662
24141,10558
24197,10423
24197,10277
24141,10141
24128,10128
24128,7312
24219,7349
24438,7350
24640,7266
24795,7111
24879,6909
24879,6691
24796,6488
24641,6334
24559,6300
24640,6266
24795,6111
24879,5909
24879,5691
24796,5488
24641,5334
24439,5250
24220,5249
24018,5333
23863,5488
23779,5690
23779,5908
23784,5921
23617,6088
23553,6185
23530,6300
23530,10128
23517,10141
23461,10276
23461,10422
23515,10553
23479,10538
23180,10538
22905,10651
22879,10677
22879,6691
22796,6488
22641,6334
22559,6300
22640,6266
22795,6111
22879,5909
22879,5691
22796,5488
22641,5334
22439,5250
22220,5249
22018,5333
21863,5488
21779,5690
21779,5908
21862,6111
22017,6265
22099,6299
22018,6333
21863,6488
21779,6690
21779,6908
21862,7111
22017,7265
22219,7349
22438,7350
22640,7266
22795,7111
22879,6909
22879,6691
22879,10677
22694,10862
22579,11138
22579,11436
22693,11712
22904,11923
23179,12038
23478,12038
23723,11937
24103,12317
24103,15794
24079,15818
24079,15155
24079,13147
23965,12871
23754,12660
23479,12546
23180,12545
22905,12659
22694,12870
22579,13146
22579,13444
22693,13720
22904,13931
23179,14045
23478,14046
23753,13932
23964,13721
24079,13445
24079,13147
24079,15155
23965,14879
23754,14668
23479,14554
23180,14553
22905,14667
22694,14878
22579,15154
22579,15452
22693,15728
22904,15939
23179,16053
23478,16054
23753,15940
23964,15729
24079,15453
24079,15155
24079,15818
23336,16561
22780,16561
22688,16599
22617,16670
22579,16761
22579,16861
22579,17861
22617,17953
22687,18023
22779,18061
22879,18061
23879,18061
23970,18023
24041,17953
24079,17861
24079,17762
24079,17305
25001,16383
25001,16383
25001,16383
25069,16281
25115,16212
25115,16212
25155,16011
25155,16011
25155,20031
25112,20060
25029,20184
24946,20060
24755,19932
24529,19887
24303,19932
24112,20060
24029,20184
23946,20060
23755,19932
23529,19887
23303,19932
23112,20060
23029,20184
22946,20060
22755,19932
22529,19887
22508,19891
22591,19808
22647,19673
22647,19527
22591,19391
22578,19378
22578,12950
22569,12903
22562,12850
22557,12843
22555,12835
22530,12797
22502,12750
22495,12744
22491,12738
22453,12713
22409,12680
21342,12166
21274,12003
21127,11855
20934,11775
20879,11775
20879,6691
20796,6488
20641,6334
20559,6300
20640,6266
20795,6111
20879,5909
20879,5691
20796,5488
20641,5334
20439,5250
20220,5249
20018,5333
19863,5488
19828,5571
19828,4771
19891,4708
19947,4573
19947,4427
19891,4291
19788,4188
19653,4131
19519,4131
19519,1622
19519,1477
19474,1251
19346,1060
19155,932
18929,887
18703,932
18512,1060
18429,1184
18346,1060
18155,932
17929,887
17703,932
17512,1060
17429,1184
17346,1060
17155,932
16929,887
16703,932
16512,1060
16429,1184
16346,1060
16155,932
15929,887
15703,932
15512,1060
15429,1184
15346,1060
15155,932
14929,887
14703,932
14512,1060
14429,1184
14346,1060
14155,932
13929,887
13703,932
13512,1060
13384,1251
13339,1477
13339,1622
13384,1848
13512,2039
13703,2167
13929,2212
14155,2167
14346,2039
14429,1915
14512,2039
14703,2167
14929,2212
15155,2167
15346,2039
15429,1915
15512,2039
15703,2167
15929,2212
16155,2167
16346,2039
16429,1915
16512,2039
16703,2167
16929,2212
17155,2167
17346,2039
17429,1915
17512,2039
17703,2167
17929,2212
18155,2167
18346,2039
18429,1915
18512,2039
18703,2167
18929,2212
19155,2167
19346,2039
19474,1848
19519,1622
19519,4131
19506,4131
19371,4187
19267,4291
19211,4426
19211,4572
19230,4618
19230,6028
19217,6041
19161,6176
19161,6322
19217,6458
19320,6561
19455,6618
19602,6618
19737,6562
19841,6458
19897,6323
19897,6177
19875,6123
20017,6265
20099,6299
20018,6333
19863,6488
19779,6690
19779,6908
19862,7111
20017,7265
20219,7349
20438,7350
20640,7266
20795,7111
20879,6909
20879,6691
20879,11775
20725,11774
20678,11794
20678,10521
20691,10508
20747,10373
20747,10227
20691,10091
20588,9988
20453,9931
20306,9931
20171,9987
20067,10091
20011,10226
20011,10372
20067,10508
20080,10521
20080,12850
20103,12964
20167,13061
20304,13198
20304,13401
20167,13538
20103,13635
20080,13750
20080,14750
20103,14864
20167,14961
20333,15126
20304,15195
20304,15403
20384,15597
20530,15743
20530,15856
20384,16002
20304,16195
20304,16401
20117,16588
20053,16685
20030,16800
20030,17578
20017,17591
19961,17726
19961,17872
20017,18008
20120,18111
20255,18168
20402,18168
20537,18112
20641,18008
20697,17873
20697,17727
20641,17591
20628,17578
20628,16923
20727,16824
20933,16825
21126,16745
21274,16597
21354,16404
21354,16196
21274,16003
21128,15856
21128,15743
21274,15597
21354,15404
21354,15196
21274,15003
21127,14855
20934,14775
20827,14774
20678,14626
20678,13873
20727,13824
20933,13825
21126,13745
21274,13597
21354,13404
21354,13196
21274,13003
21127,12855
20994,12799
21126,12745
21139,12732
21980,13137
21980,19378
21967,19391
21911,19526
21911,19672
21967,19808
22070,19911
22205,19968
22250,19968
22112,20060
21984,20251
21939,20477
21939,20622
21984,20848
22112,21039
22303,21167
22529,21212
22755,21167
22946,21039
23029,20915
23112,21039
23303,21167
23529,21212
23755,21167
23946,21039
24029,20915
24112,21039
24303,21167
24529,21212
24755,21167
24946,21039
25029,20915
25112,21039
25303,21167
25529,21212
25755,21167
25946,21039
26029,20915
26112,21039
26303,21167
26529,21212
26755,21167
26946,21039
27029,20915
27112,21039
27303,21167
27529,21212
27755,21167
27946,21039
28074,20848
28119,20622
28119,21270
21119,21270
21119,20622
21119,20477
21074,20251
20946,20060
20755,19932
20529,19887
20303,19932
20112,20060
19984,20251
19939,20477
19939,20622
19984,20848
20112,21039
20303,21167
20529,21212
20755,21167
20946,21039
21074,20848
21119,20622
21119,21270
19847,21270
19847,12727
19791,12591
19778,12578
19778,7471
19791,7458
19847,7323
19847,7177
19791,7041
19688,6938
19553,6881
19406,6881
19271,6937
19167,7041
19137,7112
19130,6019
19141,6008
19197,5873
19197,5727
19141,5591
19038,5488
18903,5431
18843,5431
18854,5404
18854,5196
18774,5003
18628,4856
18628,3800
18605,3685
18605,3685
18541,3588
18041,3088
17944,3023
17829,3000
17772,3000
17627,2855
17434,2775
17225,2774
17032,2854
16884,3002
16804,3195
16804,3403
16884,3597
17031,3744
17224,3824
17433,3825
17626,3745
17739,3632
18030,3923
18030,4856
17884,5002
17804,5195
17804,5403
17884,5597
18031,5744
18224,5824
18433,5825
18461,5813
18461,5872
18517,6008
18531,6022
18537,6817
18434,6775
18225,6774
18032,6854
17884,7002
17804,7195
17804,7403
17884,7597
18031,7744
18164,7800
18032,7854
17884,8002
17804,8195
17804,8403
17884,8597
18031,8744
18164,8800
18032,8854
17884,9002
17804,9195
17804,9403
17884,9597
18031,9744
18164,9800
18032,9854
17884,10002
17804,10195
17804,10403
17884,10597
18030,10743
18030,10856
17884,11002
17804,11195
17804,11403
17884,11597
18031,11744
18164,11800
18032,11854
17884,12002
17804,12195
17804,12403
17884,12597
18031,12744
18224,12824
18433,12825
18578,12764
18581,13177
18561,13226
18561,13372
18617,13508
18720,13611
18855,13668
19002,13668
19137,13612
19241,13508
19297,13373
19297,13227
19241,13091
19179,13029
19179,13020
19270,13111
19405,13168
19552,13168
19687,13112
19791,13008
19847,12873
19847,12727
19847,21270
18628,21270
18628,16800
18628,15800
18605,15685
18605,15685
18541,15588
18354,15401
18354,15196
18274,15003
18127,14855
18054,14825
18154,14825
18245,14787
18316,14716
18354,14624
18354,14525
18354,13975
18316,13883
18246,13813
18154,13775
18055,13774
17505,13774
17413,13812
17342,13883
17304,13975
17304,14074
17304,14074
17274,14003
17127,13855
16934,13775
16725,13774
16628,13814
16628,12521
16641,12508
16697,12373
16697,12227
16641,12091
16538,11988
16403,11931
16256,11931
16128,11984
16128,7021
16141,7008
16197,6873
16197,6727
16141,6591
16038,6488
15903,6431
15843,6431
15854,6404
15854,6196
15774,6003
15627,5855
15554,5825
15654,5825
15745,5787
15816,5716
15854,5624
15854,5525
15854,4975
15816,4883
15746,4813
15654,4775
15555,4774
15005,4774
14913,4812
14842,4883
14804,4975
14804,5074
14804,5074
14774,5003
14627,4855
14434,4775
14225,4774
14032,4854
13884,5002
13804,5195
13804,5403
13884,5597
14031,5744
14164,5800
14032,5854
13884,6002
13804,6195
13804,6403
13884,6597
14031,6744
14224,6824
14433,6825
14600,6756
14117,7238
14053,7335
14050,7347
14032,7354
13884,7502
13804,7695
13804,7903
13884,8097
14031,8244
14224,8324
14433,8325
14626,8245
14774,8097
14854,7904
14854,7696
14774,7503
14737,7465
14804,7398
14804,7403
14884,7597
15031,7744
15164,7800
15032,7854
14884,8002
14804,8195
14804,8403
14884,8597
15031,8744
15164,8800
15032,8854
14884,9002
14804,9195
14804,9403
14884,9597
15031,9744
15164,9800
15032,9854
14884,10002
14829,10135
14774,10003
14627,9855
14434,9775
14225,9774
14032,9854
13884,10002
13804,10195
13804,10403
13884,10597
14031,10744
14224,10824
14433,10825
14626,10745
14774,10597
14829,10464
14884,10597
15031,10744
15164,10800
15032,10854
14884,11002
14804,11195
14804,11403
14884,11597
15031,11744
15164,11800
15032,11854
14884,12002
14804,12195
14804,12403
14884,12597
15031,12744
15224,12824
15433,12825
15530,12785
15530,12828
15517,12841
15461,12976
15461,13122
15517,13258
15620,13361
15755,13418
15902,13418
16030,13365
16030,13814
15934,13775
15725,13774
15532,13854
15384,14002
15304,14195
15304,14403
15384,14597
15531,14744
15724,14824
15933,14825
16030,14785
16030,14800
16053,14914
16117,15011
16530,15423
16530,17828
16518,17833
16363,17988
16329,18069
16296,17988
16141,17834
16128,17828
16128,16800
16109,16704
16105,16685
16105,16685
16041,16588
15041,15588
14944,15523
14829,15500
14253,15500
13778,15026
13778,9571
13791,9558
13847,9423
13847,9277
13791,9141
13688,9038
13553,8981
13406,8981
13305,9023
13354,8904
13354,8696
13274,8503
13127,8355
12994,8299
13126,8245
13274,8097
13354,7904
13354,7696
13274,7503
13127,7355
12934,7275
12725,7274
12532,7354
12384,7502
12304,7695
12304,7903
12384,8097
12531,8244
12664,8300
12532,8354
12384,8502
12304,8695
12304,8903
12384,9097
12531,9244
12724,9324
12933,9325
13123,9246
13111,9276
13111,9422
13167,9558
13180,9571
13180,12185
13141,12091
13038,11988
12903,11931
12756,11931
12628,11984
12628,10971
12641,10958
12697,10823
12697,10677
12641,10541
12538,10438
12403,10381
12256,10381
12121,10437
12017,10541
11961,10676
11961,10822
12017,10958
12030,10971
12030,15356
11884,15502
11854,15574
11854,12196
11774,12003
11627,11855
11494,11799
11626,11745
11774,11597
11854,11404
11854,11196
11774,11003
11628,10856
11628,10743
11774,10597
11854,10404
11854,10196
11774,10003
11627,9855
11494,9799
11626,9745
11774,9597
11854,9404
11854,9196
11774,9003
11627,8855
11494,8799
11626,8745
11774,8597
11854,8404
11854,8196
11774,8003
11627,7855
11494,7799
11626,7745
11774,7597
11854,7404
11854,7196
11854,5196
11774,5003
11627,4855
11434,4775
11225,4774
11032,4854
10884,5002
10854,5074
10854,3196
10774,3003
10627,2855
10434,2775
10225,2774
10032,2854
9884,3002
9804,3195
9804,3403
9884,3597
10031,3744
10224,3824
10433,3825
10626,3745
10774,3597
10854,3404
10854,3196
10854,5074
10804,5195
10804,5403
10884,5597
11031,5744
11224,5824
11433,5825
11626,5745
11774,5597
11854,5404
11854,5196
11854,7196
11774,7003
11627,6855
11434,6775
11225,6774
11050,6847
10628,6426
10628,5021
10641,5008
10697,4873
10697,4727
10641,4591
10538,4488
10403,4431
10256,4431
10121,4487
10017,4591
9961,4726
9961,4872
10017,5008
10030,5021
10030,6550
10053,6664
10117,6761
10835,7479
10884,7597
11031,7744
11164,7800
11032,7854
10884,8002
10804,8195
10804,8403
10884,8597
11031,8744
11164,8800
11032,8854
10884,9002
10804,9195
10804,9403
10884,9597
11031,9744
11164,9800
11032,9854
10884,10002
10804,10195
10804,10403
10884,10597
11030,10743
11030,10856
10884,11002
10804,11195
10804,11403
10884,11597
11031,11744
11164,11800
11032,11854
10884,12002
10804,12195
10804,12403
10884,12597
11031,12744
11224,12824
11433,12825
11626,12745
11774,12597
11854,12404
11854,12196
11854,15574
11829,15635
11774,15503
11627,15355
11434,15275
11225,15274
11032,15354
10884,15502
10829,15635
10774,15503
10627,15355
10434,15275
10225,15274
10032,15354
9884,15502
9829,15635
9774,15503
9697,15425
9697,8227
9641,8091
9628,8078
9628,4771
9641,4758
9697,4623
9697,4477
9641,4341
9538,4238
9403,4181
9256,4181
9121,4237
9017,4341
8961,4476
8961,4622
9017,4758
9030,4771
9030,8078
9017,8091
8961,8226
8961,8372
9017,8508
9120,8611
9255,8668
9402,8668
9537,8612
9641,8508
9697,8373
9697,8227
9697,15425
9627,15355
9447,15280
9447,12927
9391,12791
9288,12688
9178,12642
9178,11850
9155,11735
9155,11735
9091,11638
8854,11401
8854,11196
8774,11003
8627,10855
8494,10799
8626,10745
8774,10597
8854,10404
8854,10196
8774,10003
8627,9855
8494,9799
8626,9745
8774,9597
8854,9404
8854,9196
8774,9003
8627,8855
8494,8799
8626,8745
8774,8597
8854,8404
8854,8196
8774,8003
8627,7855
8494,7799
8626,7745
8774,7597
8854,7404
8854,7196
8774,7003
8627,6855
8494,6799
8626,6745
8774,6597
8854,6404
8854,6196
8774,6003
8627,5855
8554,5825
8654,5825
8745,5787
8816,5716
8854,5624
8854,5525
8854,4975
8816,4883
8746,4813
8654,4775
8555,4774
8005,4774
7913,4812
7842,4883
7804,4975
7804,5074
7804,5074
7774,5003
7627,4855
7434,4775
7225,4774
7032,4854
6884,5002
6804,5195
6804,5403
6884,5597
7031,5744
7164,5800
7032,5854
6884,6002
6804,6195
6804,6403
6884,6597
7031,6744
7224,6824
7433,6825
7600,6756
7117,7238
7053,7335
7050,7347
7032,7354
6884,7502
6804,7695
6804,7903
6884,8097
7031,8244
7224,8324
7433,8325
7626,8245
7774,8097
7854,7904
7854,7696
7774,7503
7737,7465
7804,7398
7804,7403
7884,7597
8031,7744
8164,7800
8032,7854
7884,8002
7804,8195
7804,8403
7884,8597
8031,8744
8164,8800
8032,8854
7884,9002
7804,9195
7804,9403
7884,9597
8031,9744
8164,9800
8032,9854
7884,10002
7829,10135
7774,10003
7627,9855
7434,9775
7225,9774
7032,9854
6884,10002
6804,10195
6804,10403
6884,10597
7031,10744
7224,10824
7433,10825
7626,10745
7774,10597
7829,10464
7884,10597
8031,10744
8164,10800
8032,10854
7884,11002
7804,11195
7804,11403
7884,11597
8031,11744
8164,11800
8032,11854
7884,12002
7804,12195
7804,12403
7884,12597
8031,12744
8224,12824
8433,12825
8580,12764
8580,12800
8603,12914
8667,13011
8711,13054
8711,13072
8767,13208
8870,13311
9005,13368
9152,13368
9287,13312
9391,13208
9447,13073
9447,12927
9447,15280
9434,15275
9225,15274
9032,15354
8884,15502
8804,15695
8804,15903
8884,16097
9031,16244
9224,16324
9433,16325
9626,16245
9774,16097
9829,15964
9884,16097
10031,16244
10224,16324
10433,16325
10626,16245
10774,16097
10829,15964
10884,16097
11031,16244
11224,16324
11433,16325
11626,16245
11774,16097
11829,15964
11884,16097
12031,16244
12224,16324
12433,16325
12626,16245
12774,16097
12854,15904
12854,15748
14530,17423
14530,17828
14518,17833
14379,17972
14379,17950
14341,17858
14271,17788
14179,17750
14080,17749
13480,17749
13388,17787
13317,17858
13279,17950
13279,18049
13279,18649
13317,18741
13387,18811
13479,18849
13579,18850
14179,18850
14270,18812
14341,18741
14379,18649
14379,18627
14517,18765
14719,18849
14938,18850
15140,18766
15295,18611
15329,18530
15362,18611
15517,18765
15719,18849
15938,18850
16140,18766
16295,18611
16329,18530
16362,18611
16517,18765
16719,18849
16938,18850
17140,18766
17295,18611
17379,18409
17379,18191
17296,17988
17141,17834
17128,17828
17128,16022
17304,16198
17304,16403
17384,16597
17531,16744
17664,16800
17532,16854
17384,17002
17304,17195
17304,17403
17384,17597
17531,17744
17724,17824
17933,17825
18126,17745
18274,17597
18354,17404
18354,17198
18541,17011
18605,16914
18605,16914
18628,16800
18628,21270
18119,21270
18119,20622
18119,20477
18074,20251
17946,20060
17755,19932
17529,19887
17303,19932
17112,20060
17029,20184
16946,20060
16755,19932
16529,19887
16303,19932
16112,20060
16029,20184
15946,20060
15755,19932
15529,19887
15303,19932
15112,20060
15029,20184
14946,20060
14755,19932
14529,19887
14303,19932
14112,20060
14029,20184
13946,20060
13755,19932
13529,19887
13303,19932
13112,20060
12984,20251
12939,20477
12939,20622
12984,20848
13112,21039
13303,21167
13529,21212
13755,21167
13946,21039
14029,20915
14112,21039
14303,21167
14529,21212
14755,21167
14946,21039
15029,20915
15112,21039
15303,21167
15529,21212
15755,21167
15946,21039
16029,20915
16112,21039
16303,21167
16529,21212
16755,21167
16946,21039
17029,20915
17112,21039
17303,21167
17529,21212
17755,21167
17946,21039
18074,20848
18119,20622
18119,21270
11854,21270
11854,20196
11774,20003
11628,19856
11628,19243
11774,19097
11854,18904
11854,18696
11774,18503
11627,18355
11434,18275
11225,18274
11032,18354
10884,18502
10829,18635
10774,18503
10627,18355
10434,18275
10225,18274
10032,18354
9884,18502
9854,18574
9854,18475
9816,18383
9746,18313
9654,18275
9555,18274
9005,18274
8913,18312
8842,18383
8804,18475
8804,18574
8804,19124
8842,19216
8912,19286
9004,19324
9104,19325
9654,19325
9745,19287
9816,19216
9854,19124
9854,19025
9854,19025
9884,19097
10031,19244
10224,19324
10433,19325
10626,19245
10774,19097
10829,18964
10884,19097
11030,19243
11030,19856
10884,20002
10829,20135
10774,20003
10627,19855
10434,19775
10225,19774
10032,19854
9884,20002
9804,20195
9804,20403
9884,20597
10031,20744
10224,20824
10433,20825
10626,20745
10774,20597
10829,20464
10884,20597
11031,20744
11224,20824
11433,20825
11626,20745
11774,20597
11854,20404
11854,20196
11854,21270
8794,21270
8919,21145
9079,20759
9079,20342
8920,19956
8625,19660
8239,19500
7821,19499
7435,19659
7139,19954
6979,20340
6979,20757
7138,21144
7265,21270
6354,21270
6354,8696
6274,8503
6127,8355
5994,8299
6126,8245
6274,8097
6354,7904
6354,7696
6274,7503
6127,7355
5934,7275
5725,7274
5532,7354
5384,7502
5304,7695
5304,7903
5384,8097
5531,8244
5664,8300
5532,8354
5384,8502
5304,8695
5304,8903
5384,9097
5531,9244
5724,9324
5933,9325
6126,9245
6274,9097
6354,8904
6354,8696
6354,21270
5854,21270
5854,14696
5774,14503
5627,14355
5494,14299
5626,14245
5774,14097
5854,13904
5854,13696
5854,12196
5774,12003
5627,11855
5494,11799
5626,11745
5774,11597
5854,11404
5854,11196
5774,11003
5627,10855
5434,10775
5225,10774
5032,10854
4884,11002
4804,11195
4804,11403
4884,11597
5031,11744
5164,11800
5032,11854
4884,12002
4804,12195
4804,12403
4884,12597
5031,12744
5224,12824
5433,12825
5626,12745
5774,12597
5854,12404
5854,12196
5854,13696
5774,13503
5627,13355
5434,13275
5225,13274
5032,13354
4884,13502
4804,13695
4804,13903
4884,14097
5031,14244
5164,14300
5032,14354
4884,14502
4804,14695
4804,14903
4884,15097
5031,15244
5224,15324
5433,15325
5626,15245
5774,15097
5854,14904
5854,14696
5854,21270
2809,21270
2809,18300
2870,18361
3005,18418
3152,18418
3287,18362
3391,18258
3447,18123
3447,17977
3391,17841
3378,17828
3378,15126
3517,15265
3719,15349
3938,15350
4140,15266
4295,15111
4379,14909
4379,14691
4296,14488
4141,14334
4059,14300
4140,14266
4295,14111
4379,13909
4379,13691
4296,13488
4141,13334
4059,13300
4140,13266
4295,13111
4379,12909
4379,12691
4296,12488
4157,12350
4179,12350
4270,12312
4341,12241
4379,12149
4379,12050
4379,11450
4341,11358
4271,11288
4179,11250
4080,11249
3480,11249
3388,11287
3378,11297
3378,3021
3391,3008
3447,2873
3447,2727
3391,2591
3288,2488
3153,2431
3006,2431
2871,2487
2809,2549
2809,829
7765,829
7639,954
7479,1340
7479,1757
7638,2144
7933,2439
8319,2599
8737,2600
9123,2440
9419,2145
9481,1994
9512,2039
9703,2167
9929,2212
10155,2167
10346,2039
10429,1915
10512,2039
10703,2167
10929,2212
11155,2167
11346,2039
11429,1915
11512,2039
11703,2167
11929,2212
12155,2167
12346,2039
12474,1848
12519,1622
12519,1477
12474,1251
12346,1060
12155,932
11929,887
11703,932
11512,1060
11429,1184
11346,1060
11155,932
10929,887
10703,932
10512,1060
10429,1184
10346,1060
10155,932
9929,887
9703,932
9512,1060
9481,1105
9420,956
9293,829
27813,829
28250,1265
28250,5650
28271,5756
28331,5847
29250,6765
29250,6785
29125,6660
28739,6500
28321,6499
28119,6583
28119,1622
28119,1477
28074,1251
27946,1060
27755,932
27529,887
27303,932
27112,1060
27029,1184
26946,1060
26755,932
26529,887
26303,932
26112,1060
26029,1184
25946,1060
25755,932
25529,887
25303,932
25112,1060
25029,1184
24946,1060
24755,932
24529,887
24303,932
24112,1060
24029,1184
23946,1060
23755,932
23529,887
23303,932
23112,1060
23029,1184
22946,1060
22755,932
22529,887
22303,932
22112,1060
22029,1184
21946,1060
21755,932
21529,887
21303,932
21112,1060
21029,1184
20946,1060
20755,932
20529,887
20303,932
20112,1060
19984,1251
19939,1477
19939,1622
19984,1848
20112,2039
20303,2167
20529,2212
20755,2167
20946,2039
21029,1915
21112,2039
21303,2167
21529,2212
21755,2167
21946,2039
22029,1915
22112,2039
22303,2167
22529,2212
22755,2167
22946,2039
23029,1915
23112,2039
23303,2167
23529,2212
23755,2167
23946,2039
24029,1915
24112,2039
24303,2167
24529,2212
24755,2167
24946,2039
25029,1915
25112,2039
25230,2118
25230,2500
25253,2614
25317,2711
25530,2923
25530,3800
25530,19078
25517,19091
25461,19226
25461,19372
25517,19508
25620,19611
25755,19668
25902,19668
26037,19612
26141,19508
26197,19373
26197,19227
26141,19091
26128,19078
26128,3800
26128,2800
26128,2799
26105,2685
26105,2685
26084,2653
26041,2588
26041,2588
25828,2376
25828,2118
25946,2039
26029,1915
26112,2039
26303,2167
26529,2212
26755,2167
26946,2039
27029,1915
27112,2039
27303,2167
27529,2212
27755,2167
27946,2039
28074,1848
28119,1622
28119,6583
27935,6659
27639,6954
27479,7340
27479,7757
27638,8144
27933,8439
28319,8599
28737,8600
29123,8440
29250,8314
29250,17785
29125,17660
28739,17500
28321,17499
28170,17562
28170,15133
28170,15133
28170,13840
28170,12659
28132,12568
28061,12497
27969,12459
27870,12459
26689,12459
26597,12497
26527,12567
26489,12659
26488,12759
26488,13940
26526,14031
26597,14102
26689,14140
26788,14140
27969,14140
28061,14102
28131,14032
28169,13940
28170,13840
28170,15133
28042,14824
27806,14587
27497,14459
27163,14459
26854,14587
26617,14823
26489,15132
26488,15466
26616,15775
26852,16012
27161,16140
27495,16140
27805,16012
28041,15776
28169,15467
28170,15133
28170,17562
27935,17659
27639,17954
27479,18340
27479,18757
27638,19144
27933,19439
28319,19599
28737,19600
29123,19440
29250,19314
29250,19434
" /> 
</g>
<g style="fill:#FFFFFF; fill-opacity:0.0; 
stroke:#FFFFFF; stroke-width:39.3701; stroke-opacity:1; 
stroke-linecap:round; stroke-linejoin:round;">
</g>
<g style="fill:#FFFFFF; fill-opacity:1.0; 
stroke:#FFFFFF; stroke-width:39.3701; stroke-opacity:1; 
stroke-linecap:round; stroke-linejoin:round;">
<circle cx="22279.5" cy="19600" r="59.0551" /> 
<circle cx="25829.5" cy="19300" r="59.0551" /> 
<circle cx="3079.53" cy="18050" r="59.0551" /> 
<circle cx="3079.53" cy="2800" r="59.0551" /> 
<circle cx="20329.5" cy="17800" r="59.0551" /> 
<circle cx="20379.5" cy="10300" r="59.0551" /> 
<circle cx="12829.5" cy="12300" r="59.0551" /> 
<circle cx="13479.5" cy="9350" r="59.0551" /> 
<circle cx="16329.5" cy="12300" r="59.0551" /> 
<circle cx="12329.5" cy="10750" r="59.0551" /> 
<circle cx="19479.5" cy="7250" r="59.0551" /> 
<circle cx="19479.5" cy="12800" r="59.0551" /> 
<circle cx="9329.53" cy="8300" r="59.0551" /> 
<circle cx="9329.53" cy="4550" r="59.0551" /> 
<circle cx="19529.5" cy="6250" r="59.0551" /> 
<circle cx="19579.5" cy="4500" r="59.0551" /> 
<circle cx="18829.5" cy="5800" r="59.0551" /> 
<circle cx="18929.5" cy="13300" r="59.0551" /> 
<circle cx="23829.5" cy="10350" r="59.0551" /> 
<circle cx="10329.5" cy="4800" r="59.0551" /> 
<circle cx="9079.53" cy="13000" r="59.0551" /> 
<circle cx="15829.5" cy="13050" r="59.0551" /> 
<circle cx="15829.5" cy="6800" r="59.0551" /> 
<circle cx="13529.5" cy="20550" r="180.315" /> 
<circle cx="14529.5" cy="20550" r="180.315" /> 
<circle cx="15529.5" cy="20550" r="180.315" /> 
<circle cx="16529.5" cy="20550" r="180.315" /> 
<circle cx="17529.5" cy="20550" r="180.315" /> 
<circle cx="18529.5" cy="20550" r="180.315" /> 
<circle cx="19529.5" cy="20550" r="180.315" /> 
<circle cx="20529.5" cy="20550" r="180.315" /> 
<circle cx="22529.5" cy="20550" r="180.315" /> 
<circle cx="23529.5" cy="20550" r="180.315" /> 
<circle cx="24529.5" cy="20550" r="180.315" /> 
<circle cx="25529.5" cy="20550" r="180.315" /> 
<circle cx="26529.5" cy="20550" r="180.315" /> 
<circle cx="27529.5" cy="20550" r="180.315" /> 
<circle cx="9929.53" cy="1550" r="180.315" /> 
<circle cx="10929.5" cy="1550" r="180.315" /> 
<circle cx="11929.5" cy="1550" r="180.315" /> 
<circle cx="12929.5" cy="1550" r="180.315" /> 
<circle cx="13929.5" cy="1550" r="180.315" /> 
<circle cx="14929.5" cy="1550" r="180.315" /> 
<circle cx="15929.5" cy="1550" r="180.315" /> 
<circle cx="16929.5" cy="1550" r="180.315" /> 
<circle cx="17929.5" cy="1550" r="180.315" /> 
<circle cx="18929.5" cy="1550" r="180.315" /> 
<circle cx="20529.5" cy="1550" r="180.315" /> 
<circle cx="21529.5" cy="1550" r="180.315" /> 
<circle cx="22529.5" cy="1550" r="180.315" /> 
<circle cx="23529.5" cy="1550" r="180.315" /> 
<circle cx="24529.5" cy="1550" r="180.315" /> 
<circle cx="25529.5" cy="1550" r="180.315" /> 
<circle cx="26529.5" cy="1550" r="180.315" /> 
<circle cx="27529.5" cy="1550" r="180.315" /> 
<circle cx="8029.53" cy="20550" r="580.315" /> 
<circle cx="28529.5" cy="18550" r="580.315" /> 
<circle cx="8529.53" cy="1550" r="580.315" /> 
<circle cx="28529.5" cy="7550" r="580.315" /> 
<circle cx="5329.53" cy="14800" r="140.315" /> 
<circle cx="5329.53" cy="13800" r="140.315" /> 
<circle cx="5329.53" cy="12300" r="140.315" /> 
<circle cx="5329.53" cy="11300" r="140.315" /> 
<circle cx="20829.5" cy="13300" r="140.315" /> 
<circle cx="20829.5" cy="12300" r="140.315" /> 
<circle cx="15829.5" cy="14300" r="140.315" /> 
<circle cx="16829.5" cy="14300" r="140.315" /> 
<circle cx="3829.53" cy="11800" r="180.315" /> 
<circle cx="3829.53" cy="12800" r="180.315" /> 
<circle cx="3829.53" cy="13800" r="180.315" /> 
<circle cx="3829.53" cy="14800" r="180.315" /> 
<circle cx="3829.53" cy="15800" r="180.315" /> 
<circle cx="24329.5" cy="7800" r="180.315" /> 
<circle cx="24329.5" cy="6800" r="180.315" /> 
<circle cx="24329.5" cy="5800" r="180.315" /> 
<circle cx="24329.5" cy="4800" r="180.315" /> 
<circle cx="22329.5" cy="7800" r="180.315" /> 
<circle cx="22329.5" cy="6800" r="180.315" /> 
<circle cx="22329.5" cy="5800" r="180.315" /> 
<circle cx="22329.5" cy="4800" r="180.315" /> 
<circle cx="20329.5" cy="7800" r="180.315" /> 
<circle cx="20329.5" cy="6800" r="180.315" /> 
<circle cx="20329.5" cy="5800" r="180.315" /> 
<circle cx="20329.5" cy="4800" r="180.315" /> 
<circle cx="17829.5" cy="14300" r="140.315" /> 
<circle cx="17829.5" cy="15300" r="140.315" /> 
<circle cx="17829.5" cy="16300" r="140.315" /> 
<circle cx="17829.5" cy="17300" r="140.315" /> 
<circle cx="20829.5" cy="17300" r="140.315" /> 
<circle cx="20829.5" cy="16300" r="140.315" /> 
<circle cx="20829.5" cy="15300" r="140.315" /> 
<circle cx="20829.5" cy="14300" r="140.315" /> 
<circle cx="9329.53" cy="18800" r="140.315" /> 
<circle cx="10329.5" cy="18800" r="140.315" /> 
<circle cx="11329.5" cy="18800" r="140.315" /> 
<circle cx="12329.5" cy="18800" r="140.315" /> 
<circle cx="12329.5" cy="15800" r="140.315" /> 
<circle cx="11329.5" cy="15800" r="140.315" /> 
<circle cx="10329.5" cy="15800" r="140.315" /> 
<circle cx="9329.53" cy="15800" r="140.315" /> 
<circle cx="15329.5" cy="5300" r="140.315" /> 
<circle cx="15329.5" cy="6300" r="140.315" /> 
<circle cx="15329.5" cy="7300" r="140.315" /> 
<circle cx="15329.5" cy="8300" r="140.315" /> 
<circle cx="15329.5" cy="9300" r="140.315" /> 
<circle cx="15329.5" cy="10300" r="140.315" /> 
<circle cx="15329.5" cy="11300" r="140.315" /> 
<circle cx="15329.5" cy="12300" r="140.315" /> 
<circle cx="18329.5" cy="12300" r="140.315" /> 
<circle cx="18329.5" cy="11300" r="140.315" /> 
<circle cx="18329.5" cy="10300" r="140.315" /> 
<circle cx="18329.5" cy="9300" r="140.315" /> 
<circle cx="18329.5" cy="8300" r="140.315" /> 
<circle cx="18329.5" cy="7300" r="140.315" /> 
<circle cx="18329.5" cy="6300" r="140.315" /> 
<circle cx="18329.5" cy="5300" r="140.315" /> 
<circle cx="8329.53" cy="5300" r="140.315" /> 
<circle cx="8329.53" cy="6300" r="140.315" /> 
<circle cx="8329.53" cy="7300" r="140.315" /> 
<circle cx="8329.53" cy="8300" r="140.315" /> 
<circle cx="8329.53" cy="9300" r="140.315" /> 
<circle cx="8329.53" cy="10300" r="140.315" /> 
<circle cx="8329.53" cy="11300" r="140.315" /> 
<circle cx="8329.53" cy="12300" r="140.315" /> 
<circle cx="11329.5" cy="12300" r="140.315" /> 
<circle cx="11329.5" cy="11300" r="140.315" /> 
<circle cx="11329.5" cy="10300" r="140.315" /> 
<circle cx="11329.5" cy="9300" r="140.315" /> 
<circle cx="11329.5" cy="8300" r="140.315" /> 
<circle cx="11329.5" cy="7300" r="140.315" /> 
<circle cx="11329.5" cy="6300" r="140.315" /> 
<circle cx="11329.5" cy="5300" r="140.315" /> 
<circle cx="7329.53" cy="10300" r="140.315" /> 
<circle cx="7329.53" cy="11300" r="140.315" /> 
<circle cx="10329.5" cy="3300" r="140.315" /> 
<circle cx="9329.53" cy="3300" r="140.315" /> 
<circle cx="5829.53" cy="7800" r="140.315" /> 
<circle cx="5829.53" cy="8800" r="140.315" /> 
<circle cx="7329.53" cy="7800" r="140.315" /> 
<circle cx="7329.53" cy="8800" r="140.315" /> 
<circle cx="14329.5" cy="5300" r="140.315" /> 
<circle cx="14329.5" cy="6300" r="140.315" /> 
<circle cx="14329.5" cy="7800" r="140.315" /> 
<circle cx="14329.5" cy="8800" r="140.315" /> 
<circle cx="12829.5" cy="7800" r="140.315" /> 
<circle cx="12829.5" cy="8800" r="140.315" /> 
<circle cx="14329.5" cy="10300" r="140.315" /> 
<circle cx="14329.5" cy="11300" r="140.315" /> 
<circle cx="17329.5" cy="3300" r="140.315" /> 
<circle cx="16329.5" cy="3300" r="140.315" /> 
<circle cx="7329.53" cy="5300" r="140.315" /> 
<circle cx="7329.53" cy="6300" r="140.315" /> 
<circle cx="27329.5" cy="13300" r="226.315" /> 
<circle cx="27329.5" cy="15300" r="226.315" /> 
<circle cx="23329.5" cy="17311.8" r="280.315" /> 
<circle cx="23329.5" cy="15303.9" r="280.315" /> 
<circle cx="23329.5" cy="13296.1" r="280.315" /> 
<circle cx="23329.5" cy="11288.2" r="280.315" /> 
<circle cx="13829.5" cy="18300" r="180.315" /> 
<circle cx="14829.5" cy="18300" r="180.315" /> 
<circle cx="15829.5" cy="18300" r="180.315" /> 
<circle cx="16829.5" cy="18300" r="180.315" /> 
<circle cx="10329.5" cy="20300" r="140.315" /> 
<circle cx="11329.5" cy="20300" r="140.315" /> 
</g> 
</svg>
