<?xml version="1.0" standalone="no"?>
 <!DOCTYPE svg PUBLIC "-//W3C//DTD SVG 1.1//EN" 
 "http://www.w3.org/Graphics/SVG/1.1/DTD/svg11.dtd"> 
<svg xmlns="http://www.w3.org/2000/svg" version="1.1" 
    width="7.96798cm" height="5.7023cm" viewBox="0 0 31370 22450 ">
<title>SVG Picture created as STM32ShieldForMetroMiniSlaves-Dwgs_User.svg date 2018/07/31 13:15:30 </title>
  <desc>Picture generated by PCBNEW </desc>
<g style="fill:#000000; fill-opacity:1;stroke:#000000; stroke-opacity:1;
stroke-linecap:round; stroke-linejoin:round; "
 transform="translate(0 0) scale(1 1)">
</g>
<g style="fill:#C0C0C0; fill-opacity:0.0; 
stroke:#C0C0C0; stroke-width:59.0551; stroke-opacity:1; 
stroke-linecap:round; stroke-linejoin:round;">
<circle cx="5029.53" cy="2100" r="500" /> 
<path d="M3879 2900
L3879 1300
" />
<path d="M6179 2900
L3879 2900
" />
<path d="M6179 1300
L6179 2900
" />
<path d="M3879 1300
L6179 1300
" />
<path d="M6279 8800
L29 8800
" />
</g>
<g style="fill:#FFFF00; fill-opacity:0.0; 
stroke:#FFFF00; stroke-width:59.0551; stroke-opacity:1; 
stroke-linecap:round; stroke-linejoin:round;">
<path d="M28529 1150
L27929 550
" />
<path d="M28529 5650
L28529 1150
" />
<path d="M29529 6650
L28529 5650
" />
<path d="M29529 19550
L29529 6650
" />
<path d="M28529 20550
L29529 19550
" />
<path d="M28529 21550
L28529 20550
" />
<path d="M2529 21550
L28529 21550
" />
<path d="M2529 550
L2529 21550
" />
<path d="M27929 550
L2529 550
" />
</g>
<g style="fill:#C0C0C0; fill-opacity:0.0; 
stroke:#C0C0C0; stroke-width:59.0551; stroke-opacity:1; 
stroke-linecap:round; stroke-linejoin:round;">
<path d="M27079 12050
L27079 9050
" />
<path d="M29079 12050
L27079 12050
" />
<path d="M29079 9050
L29079 12050
" />
<path d="M27079 9050
L29079 9050
" />
<path d="M1779 20300
L1779 16800
" />
<path d="M7029 20300
L1779 20300
" />
<path d="M7029 16800
L7029 20300
" />
<path d="M1779 16800
L7029 16800
" />
<path d="M29 8800
L29 4300
" />
<path d="M6279 4300
L6279 8800
" />
<path d="M29 4300
L6279 4300
" />
</g> 
</svg>
