M48
;DRILL file {Pcbnew (2013-june-11)-stable} date Thu 24 May 2018 08:53:08 EDT
;FORMAT={-:-/ absolute / metric / decimal}
FMAT,2
METRIC,TZ
T1C0.635
T2C0.762
T3C0.813
T4C0.899
T5C1.016
T6C1.250
T7C1.524
T8C1.930
T9C2.499
%
G90
G05
M71
T1
X86.233Y-151.003
X88.9Y-158.75
X89.789Y-154.94
X93.98Y-135.89
X93.98Y-140.97
X97.79Y-144.78
X99.06Y-147.32
X100.33Y-154.94
X114.3Y-134.62
X120.65Y-124.46
X121.92Y-128.27
X121.92Y-160.02
X123.19Y-157.48
X130.81Y-112.141
X143.51Y-127.635
X143.51Y-146.685
X144.399Y-132.715
X144.399Y-151.765
X145.288Y-131.445
X145.288Y-150.495
X146.05Y-160.02
X146.177Y-115.57
X146.177Y-135.255
X146.177Y-154.305
X147.066Y-136.525
X147.32Y-119.253
X147.32Y-157.48
X148.59Y-112.014
T2
X135.89Y-119.38
X135.89Y-124.46
T3
X91.44Y-135.89
X91.44Y-138.43
X91.44Y-140.97
X91.44Y-143.51
X93.98Y-147.32
X93.98Y-151.13
X93.98Y-154.94
X93.98Y-158.75
X96.52Y-147.32
X96.52Y-151.13
X96.52Y-154.94
X96.52Y-158.75
X99.06Y-127.
X99.06Y-129.54
X99.06Y-135.89
X99.06Y-138.43
X99.06Y-140.97
X99.06Y-143.51
X119.38Y-111.76
X121.92Y-134.62
X121.92Y-137.16
X124.46Y-116.84
X124.46Y-119.38
X124.46Y-121.92
X124.46Y-124.46
X124.46Y-127.
X124.46Y-129.54
X124.46Y-132.08
X124.46Y-134.62
X124.46Y-137.16
X124.46Y-146.05
X124.46Y-148.59
X124.46Y-151.13
X124.46Y-153.67
X127.Y-111.76
X127.Y-142.24
X129.54Y-142.24
X130.81Y-106.68
X132.08Y-116.84
X132.08Y-119.38
X132.08Y-121.92
X132.08Y-124.46
X132.08Y-127.
X132.08Y-129.54
X132.08Y-132.08
X132.08Y-134.62
X132.08Y-137.16
X132.08Y-146.05
X132.08Y-148.59
X132.08Y-151.13
X132.08Y-153.67
X138.43Y-106.68
X140.97Y-119.38
X140.97Y-124.46
X143.51Y-119.38
X143.51Y-124.46
X151.13Y-115.57
X151.13Y-119.38
X153.67Y-115.57
X153.67Y-119.38
X157.48Y-111.76
X160.02Y-111.76
T4
X148.59Y-127.635
X148.59Y-130.175
X148.59Y-132.715
X148.59Y-135.255
X148.59Y-146.685
X148.59Y-149.225
X148.59Y-151.765
X148.59Y-154.305
X151.13Y-128.905
X151.13Y-131.445
X151.13Y-133.985
X151.13Y-136.525
X151.13Y-147.955
X151.13Y-150.495
X151.13Y-153.035
X151.13Y-155.575
T5
X87.63Y-135.89
X87.63Y-138.43
X87.63Y-140.97
X87.63Y-143.51
X87.63Y-146.05
X102.86Y-120.65
X102.86Y-123.19
X102.86Y-125.73
X102.86Y-128.27
X102.86Y-130.81
X102.86Y-133.35
X102.86Y-135.89
X102.86Y-138.43
X102.86Y-140.97
X102.86Y-143.51
X102.86Y-146.05
X102.86Y-148.59
X102.86Y-151.13
X102.86Y-153.67
X118.12Y-120.65
X118.12Y-123.19
X118.12Y-125.73
X118.12Y-128.27
X118.12Y-130.81
X118.12Y-133.35
X118.12Y-135.89
X118.12Y-138.43
X118.12Y-140.97
X118.12Y-143.51
X118.12Y-146.05
X118.12Y-148.59
X118.12Y-151.13
X118.12Y-153.67
X121.92Y-106.68
X124.46Y-106.68
X157.48Y-116.84
X157.48Y-119.38
X160.02Y-116.84
X160.02Y-119.38
T6
X91.44Y-125.73
X91.44Y-130.81
X143.51Y-109.22
X148.59Y-109.22
T7
X93.98Y-105.38
X93.98Y-110.48
X93.98Y-115.58
X93.98Y-120.68
T8
X160.528Y-123.952
X160.528Y-140.208
X160.528Y-143.002
X160.528Y-159.258
T9
X87.63Y-106.68
X87.63Y-163.83
X160.02Y-106.68
X160.02Y-163.83
T0
M30
