<?xml version="1.0" standalone="no"?>
 <!DOCTYPE svg PUBLIC "-//W3C//DTD SVG 1.1//EN" 
 "http://www.w3.org/Graphics/SVG/1.1/DTD/svg11.dtd"> 
<svg xmlns="http://www.w3.org/2000/svg" version="1.1" 
    width="14.8539cm" height="9.66724cm" viewBox="0 0 58480 38060 ">
<title>SVG Picture created as MetroMiniABSBiDir-noCANSlave-Cmts_User.svg date 2018/07/26 16:45:05 </title>
  <desc>Picture generated by PCBNEW </desc>
<g style="fill:#000000; fill-opacity:1;stroke:#000000; stroke-opacity:1;
stroke-linecap:round; stroke-linejoin:round; "
 transform="translate(0 0) scale(1 1)">
</g>
<g style="fill:#0000C0; fill-opacity:0.0; 
stroke:#0000C0; stroke-width:118.11; stroke-opacity:1; 
stroke-linecap:round; stroke-linejoin:round;">
<path d="M49134 19474
L49134 19080
L49724 19334
" />
<path d="M49134 18602
L49134 18715
L49162 18771
L49190 18799
L49274 18856
L49387 18884
L49612 18884
L49668 18856
L49696 18827
L49724 18771
L49724 18659
L49696 18602
L49668 18574
L49612 18546
L49471 18546
L49415 18574
L49387 18602
L49359 18659
L49359 18771
L49387 18827
L49415 18856
L49471 18884
" />
<path d="M49668 18293
L49696 18265
L49724 18293
L49696 18321
L49668 18293
L49724 18293
" />
<path d="M49190 18040
L49162 18012
L49134 17956
L49134 17815
L49162 17759
L49190 17731
L49246 17703
L49303 17703
L49387 17731
L49724 18068
L49724 17703
" />
<path d="M49134 17337
L49134 17281
L49162 17224
L49190 17196
L49246 17168
L49359 17140
L49499 17140
L49612 17168
L49668 17196
L49696 17224
L49724 17281
L49724 17337
L49696 17393
L49668 17421
L49612 17449
L49499 17478
L49359 17478
L49246 17449
L49190 17421
L49162 17393
L49134 17337
" />
<path d="M49134 16775
L49134 16718
L49162 16662
L49190 16634
L49246 16606
L49359 16578
L49499 16578
L49612 16606
L49668 16634
L49696 16662
L49724 16718
L49724 16775
L49696 16831
L49668 16859
L49612 16887
L49499 16915
L49359 16915
L49246 16887
L49190 16859
L49162 16831
L49134 16775
" />
<path d="M49724 15875
L49331 15875
" />
<path d="M49387 15875
L49359 15847
L49331 15790
L49331 15706
L49359 15650
L49415 15622
L49724 15622
" />
<path d="M49415 15622
L49359 15593
L49331 15537
L49331 15453
L49359 15397
L49415 15368
L49724 15368
" />
<path d="M49724 15087
L49331 15087
" />
<path d="M49387 15087
L49359 15059
L49331 15003
L49331 14919
L49359 14862
L49415 14834
L49724 14834
" />
<path d="M49415 14834
L49359 14806
L49331 14750
L49331 14665
L49359 14609
L49415 14581
L49724 14581
" />
<path d="M48954 32000
L48954 2000
" />
<path d="M45954 32000
L50017 32000
" />
<path d="M45954 2000
L50017 2000
" />
<path d="M48954 2000
L49185 2443
" />
<path d="M48954 2000
L48723 2443
" />
<path d="M48954 32000
L49185 31556
" />
<path d="M48954 32000
L48723 31556
" />
<path d="M26870 35183
L26814 35154
L26785 35126
L26757 35070
L26757 35042
L26785 34986
L26814 34958
L26870 34929
L26982 34929
L27038 34958
L27067 34986
L27095 35042
L27095 35070
L27067 35126
L27038 35154
L26982 35183
L26870 35183
L26814 35211
L26785 35239
L26757 35295
L26757 35408
L26785 35464
L26814 35492
L26870 35520
L26982 35520
L27038 35492
L27067 35464
L27095 35408
L27095 35295
L27067 35239
L27038 35211
L26982 35183
" />
<path d="M27629 34929
L27348 34929
L27320 35211
L27348 35183
L27404 35154
L27545 35154
L27601 35183
L27629 35211
L27657 35267
L27657 35408
L27629 35464
L27601 35492
L27545 35520
L27404 35520
L27348 35492
L27320 35464
" />
<path d="M27910 35464
L27938 35492
L27910 35520
L27882 35492
L27910 35464
L27910 35520
" />
<path d="M28304 34929
L28360 34929
L28416 34958
L28445 34986
L28473 35042
L28501 35154
L28501 35295
L28473 35408
L28445 35464
L28416 35492
L28360 35520
L28304 35520
L28248 35492
L28220 35464
L28191 35408
L28163 35295
L28163 35154
L28191 35042
L28220 34986
L28248 34958
L28304 34929
" />
<path d="M28782 35520
L28894 35520
L28951 35492
L28979 35464
L29035 35379
L29063 35267
L29063 35042
L29035 34986
L29007 34958
L28951 34929
L28838 34929
L28782 34958
L28754 34986
L28726 35042
L28726 35183
L28754 35239
L28782 35267
L28838 35295
L28951 35295
L29007 35267
L29035 35239
L29063 35183
" />
<path d="M29429 34929
L29485 34929
L29541 34958
L29569 34986
L29598 35042
L29626 35154
L29626 35295
L29598 35408
L29569 35464
L29541 35492
L29485 35520
L29429 35520
L29373 35492
L29344 35464
L29316 35408
L29288 35295
L29288 35154
L29316 35042
L29344 34986
L29373 34958
L29429 34929
" />
<path d="M30329 35520
L30329 35126
" />
<path d="M30329 35183
L30357 35154
L30413 35126
L30497 35126
L30554 35154
L30582 35211
L30582 35520
" />
<path d="M30582 35211
L30610 35154
L30666 35126
L30751 35126
L30807 35154
L30835 35211
L30835 35520
" />
<path d="M31116 35520
L31116 35126
" />
<path d="M31116 35183
L31144 35154
L31200 35126
L31285 35126
L31341 35154
L31369 35211
L31369 35520
" />
<path d="M31369 35211
L31397 35154
L31454 35126
L31538 35126
L31594 35154
L31622 35211
L31622 35520
" />
<path d="M12454 34749
L45954 34749
" />
<path d="M12454 32000
L12454 35812
" />
<path d="M45954 32000
L45954 35812
" />
<path d="M45954 34749
L45510 34980
" />
<path d="M45954 34749
L45510 34519
" />
<path d="M12454 34749
L12897 34980
" />
<path d="M12454 34749
L12897 34519
" />
<path d="M52887 19334
L52859 19390
L52831 19418
L52774 19446
L52746 19446
L52690 19418
L52662 19390
L52634 19334
L52634 19221
L52662 19165
L52690 19137
L52746 19109
L52774 19109
L52831 19137
L52859 19165
L52887 19221
L52887 19334
L52915 19390
L52943 19418
L52999 19446
L53112 19446
L53168 19418
L53196 19390
L53224 19334
L53224 19221
L53196 19165
L53168 19137
L53112 19109
L52999 19109
L52943 19137
L52915 19165
L52887 19221
" />
<path d="M52690 18884
L52662 18856
L52634 18799
L52634 18659
L52662 18602
L52690 18574
L52746 18546
L52803 18546
L52887 18574
L53224 18912
L53224 18546
" />
<path d="M53168 18293
L53196 18265
L53224 18293
L53196 18321
L53168 18293
L53224 18293
" />
<path d="M52634 17731
L52634 18012
L52915 18040
L52887 18012
L52859 17956
L52859 17815
L52887 17759
L52915 17731
L52971 17703
L53112 17703
L53168 17731
L53196 17759
L53224 17815
L53224 17956
L53196 18012
L53168 18040
" />
<path d="M52634 17168
L52634 17449
L52915 17478
L52887 17449
L52859 17393
L52859 17253
L52887 17196
L52915 17168
L52971 17140
L53112 17140
L53168 17168
L53196 17196
L53224 17253
L53224 17393
L53196 17449
L53168 17478
" />
<path d="M52634 16775
L52634 16718
L52662 16662
L52690 16634
L52746 16606
L52859 16578
L52999 16578
L53112 16606
L53168 16634
L53196 16662
L53224 16718
L53224 16775
L53196 16831
L53168 16859
L53112 16887
L52999 16915
L52859 16915
L52746 16887
L52690 16859
L52662 16831
L52634 16775
" />
<path d="M53224 15875
L52831 15875
" />
<path d="M52887 15875
L52859 15847
L52831 15790
L52831 15706
L52859 15650
L52915 15622
L53224 15622
" />
<path d="M52915 15622
L52859 15593
L52831 15537
L52831 15453
L52859 15397
L52915 15368
L53224 15368
" />
<path d="M53224 15087
L52831 15087
" />
<path d="M52887 15087
L52859 15059
L52831 15003
L52831 14919
L52859 14862
L52915 14834
L53224 14834
" />
<path d="M52915 14834
L52859 14806
L52831 14750
L52831 14665
L52859 14609
L52915 14581
L53224 14581
" />
<path d="M52454 33250
L52454 750
" />
<path d="M47204 33250
L53517 33250
" />
<path d="M47204 750
L53517 750
" />
<path d="M52454 750
L52685 1193
" />
<path d="M52454 750
L52223 1193
" />
<path d="M52454 33250
L52685 32806
" />
<path d="M52454 33250
L52223 32806
" />
<path d="M26814 37770
L26926 37770
L26982 37742
L27010 37714
L27067 37629
L27095 37517
L27095 37292
L27067 37236
L27038 37208
L26982 37179
L26870 37179
L26814 37208
L26785 37236
L26757 37292
L26757 37433
L26785 37489
L26814 37517
L26870 37545
L26982 37545
L27038 37517
L27067 37489
L27095 37433
" />
<path d="M27657 37770
L27320 37770
" />
<path d="M27488 37770
L27488 37179
L27432 37264
L27376 37320
L27320 37348
" />
<path d="M27910 37714
L27938 37742
L27910 37770
L27882 37742
L27910 37714
L27910 37770
" />
<path d="M28445 37376
L28445 37770
" />
<path d="M28304 37151
L28163 37573
L28529 37573
" />
<path d="M29007 37376
L29007 37770
" />
<path d="M28866 37151
L28726 37573
L29091 37573
" />
<path d="M29429 37179
L29485 37179
L29541 37208
L29569 37236
L29598 37292
L29626 37404
L29626 37545
L29598 37658
L29569 37714
L29541 37742
L29485 37770
L29429 37770
L29373 37742
L29344 37714
L29316 37658
L29288 37545
L29288 37404
L29316 37292
L29344 37236
L29373 37208
L29429 37179
" />
<path d="M30329 37770
L30329 37376
" />
<path d="M30329 37433
L30357 37404
L30413 37376
L30497 37376
L30554 37404
L30582 37461
L30582 37770
" />
<path d="M30582 37461
L30610 37404
L30666 37376
L30751 37376
L30807 37404
L30835 37461
L30835 37770
" />
<path d="M31116 37770
L31116 37376
" />
<path d="M31116 37433
L31144 37404
L31200 37376
L31285 37376
L31341 37404
L31369 37461
L31369 37770
" />
<path d="M31369 37461
L31397 37404
L31454 37376
L31538 37376
L31594 37404
L31622 37461
L31622 37770
" />
<path d="M11204 36999
L47204 36999
" />
<path d="M11204 33250
L11204 38062
" />
<path d="M47204 33250
L47204 38062
" />
<path d="M47204 36999
L46760 37230
" />
<path d="M47204 36999
L46760 36769
" />
<path d="M11204 36999
L11647 37230
" />
<path d="M11204 36999
L11647 36769
" />
</g>
<g style="fill:#FFFF00; fill-opacity:0.0; 
stroke:#FFFF00; stroke-width:39.3701; stroke-opacity:1; 
stroke-linecap:round; stroke-linejoin:round;">
<path d="M47204 33250
L11204 33250
" />
<path d="M47204 750
L47204 33250
" />
<path d="M11204 750
L47204 750
" />
<path d="M11204 33250
L11204 750
" />
</g>
<g style="fill:#0000C0; fill-opacity:0.0; 
stroke:#0000C0; stroke-width:150; stroke-opacity:1; 
stroke-linecap:round; stroke-linejoin:round;">
<circle cx="12454.3" cy="2000" r="984" /> 
<circle cx="45954.3" cy="2000" r="984" /> 
<circle cx="45954.3" cy="32000" r="984" /> 
<circle cx="12454.3" cy="32000" r="984" /> 
</g> 
</svg>
