<?xml version="1.0" standalone="no"?>
 <!DOCTYPE svg PUBLIC "-//W3C//DTD SVG 1.1//EN" 
 "http://www.w3.org/Graphics/SVG/1.1/DTD/svg11.dtd"> 
<svg xmlns="http://www.w3.org/2000/svg" version="1.1" 
    width="14.8539cm" height="9.66724cm" viewBox="0 0 58480 38060 ">
<title>SVG Picture created as MetroMiniABSBiDir-noCANSlave-F_Mask.svg date 2018/07/26 16:45:05 </title>
  <desc>Picture generated by PCBNEW </desc>
<g style="fill:#000000; fill-opacity:1;stroke:#000000; stroke-opacity:1;
stroke-linecap:round; stroke-linejoin:round; "
 transform="translate(0 0) scale(1 1)">
</g>
<g style="fill:#FFFF00; fill-opacity:0.0; 
stroke:#FFFF00; stroke-width:39.3701; stroke-opacity:1; 
stroke-linecap:round; stroke-linejoin:round;">
<path d="M47204 33250
L11204 33250
" />
<path d="M47204 750
L47204 33250
" />
<path d="M11204 750
L47204 750
" />
<path d="M11204 33250
L11204 750
" />
</g>
<g style="fill:#808000; fill-opacity:0.0; 
stroke:#808000; stroke-width:39.3701; stroke-opacity:1; 
stroke-linecap:round; stroke-linejoin:round;">
</g>
<g style="fill:#808000; fill-opacity:1.0; 
stroke:#808000; stroke-width:39.3701; stroke-opacity:1; 
stroke-linecap:round; stroke-linejoin:round;">
<polyline style="fill-rule:evenodd;"
points="13484,23030
12924,23030
12924,22469
13484,22469
13484,23030
" /> 
<circle cx="13204.3" cy="21750" r="280.315" /> 
<circle cx="13204.3" cy="20750" r="280.315" /> 
<circle cx="13204.3" cy="19750" r="280.315" /> 
<circle cx="13204.3" cy="18750" r="280.315" /> 
<circle cx="13204.3" cy="17750" r="280.315" /> 
<circle cx="13204.3" cy="16750" r="280.315" /> 
<circle cx="13204.3" cy="15750" r="280.315" /> 
<circle cx="14704.3" cy="16750" r="255.315" /> 
<circle cx="15704.3" cy="16750" r="255.315" /> 
<circle cx="15704.3" cy="17750" r="255.315" /> 
<circle cx="16704.3" cy="17750" r="255.315" /> 
<circle cx="14704.3" cy="18750" r="255.315" /> 
<circle cx="15704.3" cy="18750" r="255.315" /> 
<circle cx="15704.3" cy="19750" r="255.315" /> 
<circle cx="16704.3" cy="19750" r="255.315" /> 
<circle cx="14704.3" cy="20750" r="255.315" /> 
<circle cx="15704.3" cy="20750" r="255.315" /> 
<circle cx="15704.3" cy="21750" r="255.315" /> 
<circle cx="16704.3" cy="21750" r="255.315" /> 
<circle cx="26204.3" cy="7750" r="255.315" /> 
<circle cx="26204.3" cy="8750" r="255.315" /> 
<circle cx="20704.3" cy="6250" r="255.315" /> 
<circle cx="21704.3" cy="6250" r="255.315" /> 
<polyline style="fill-rule:evenodd;"
points="32984,30469
32984,31030
32424,31030
32424,30469
32984,30469
" /> 
<circle cx="31704.3" cy="30750" r="280.315" /> 
<circle cx="30704.3" cy="30750" r="280.315" /> 
<circle cx="29704.3" cy="30750" r="280.315" /> 
<circle cx="28704.3" cy="30750" r="280.315" /> 
<polyline style="fill-rule:evenodd;"
points="32984,28469
32984,29030
32424,29030
32424,28469
32984,28469
" /> 
<circle cx="31704.3" cy="28750" r="280.315" /> 
<circle cx="30704.3" cy="28750" r="280.315" /> 
<circle cx="29704.3" cy="28750" r="280.315" /> 
<circle cx="28704.3" cy="28750" r="280.315" /> 
<polyline style="fill-rule:evenodd;"
points="45424,10469
45984,10469
45984,11030
45424,11030
45424,10469
" /> 
<circle cx="45704.3" cy="11750" r="280.315" /> 
<circle cx="45704.3" cy="12750" r="280.315" /> 
<circle cx="45704.3" cy="13750" r="280.315" /> 
<polyline style="fill-rule:evenodd;"
points="45424,14969
45984,14969
45984,15530
45424,15530
45424,14969
" /> 
<circle cx="45704.3" cy="16250" r="280.315" /> 
<circle cx="45704.3" cy="17250" r="280.315" /> 
<circle cx="45704.3" cy="18250" r="280.315" /> 
<polyline style="fill-rule:evenodd;"
points="13775,11320
12633,11320
12633,10179
13775,10179
13775,11320
" /> 
<circle cx="13204.3" cy="8750" r="570.815" /> 
<circle cx="33454.3" cy="6500" r="413.386" /> 
<circle cx="27954.3" cy="6500" r="413.386" /> 
<circle cx="33454.3" cy="22000" r="413.386" /> 
<circle cx="27954.3" cy="22000" r="413.386" /> 
<circle cx="33708.3" cy="13750" r="280.315" /> 
<circle cx="33708.3" cy="12750" r="280.315" /> 
<circle cx="33708.3" cy="11750" r="280.315" /> 
<circle cx="33708.3" cy="10750" r="280.315" /> 
<circle cx="33708.3" cy="9750" r="280.315" /> 
<circle cx="33708.3" cy="8750" r="280.315" /> 
<polyline style="fill-rule:evenodd;"
points="33427,7469
33988,7469
33988,8030
33427,8030
33427,7469
" /> 
<circle cx="33708.3" cy="14750" r="280.315" /> 
<circle cx="33708.3" cy="15750" r="280.315" /> 
<circle cx="33708.3" cy="16750" r="280.315" /> 
<circle cx="33708.3" cy="17750" r="280.315" /> 
<circle cx="33708.3" cy="18750" r="280.315" /> 
<circle cx="33708.3" cy="19750" r="280.315" /> 
<circle cx="33708.3" cy="20750" r="280.315" /> 
<circle cx="27700.4" cy="20750" r="280.315" /> 
<circle cx="27700.4" cy="19750" r="280.315" /> 
<circle cx="27700.4" cy="18750" r="280.315" /> 
<circle cx="27700.4" cy="17750" r="280.315" /> 
<circle cx="27700.4" cy="16750" r="280.315" /> 
<circle cx="27700.4" cy="15750" r="280.315" /> 
<circle cx="27700.4" cy="14750" r="280.315" /> 
<circle cx="27700.4" cy="13750" r="280.315" /> 
<circle cx="27700.4" cy="12750" r="280.315" /> 
<circle cx="27700.4" cy="11750" r="280.315" /> 
<circle cx="27700.4" cy="10750" r="280.315" /> 
<circle cx="27700.4" cy="9750" r="280.315" /> 
<circle cx="27700.4" cy="8750" r="280.315" /> 
<circle cx="27700.4" cy="7750" r="280.315" /> 
<polyline style="fill-rule:evenodd;"
points="17224,6257
18184,6257
18184,7218
17224,7218
17224,6257
" /> 
<circle cx="17704.3" cy="8746.06" r="480.315" /> 
<circle cx="17704.3" cy="10753.9" r="480.315" /> 
<circle cx="17704.3" cy="12761.8" r="480.315" /> 
<polyline style="fill-rule:evenodd;"
points="17964,24510
17444,24510
17444,23989
17964,23989
17964,24510
" /> 
<circle cx="17704.3" cy="27250" r="260.315" /> 
<polyline style="fill-rule:evenodd;"
points="21449,7494
21959,7494
21959,8005
21449,8005
21449,7494
" /> 
<circle cx="21704.3" cy="8750" r="255.315" /> 
<circle cx="21704.3" cy="9750" r="255.315" /> 
<circle cx="21704.3" cy="10750" r="255.315" /> 
<circle cx="24704.3" cy="10750" r="255.315" /> 
<circle cx="24704.3" cy="9750" r="255.315" /> 
<circle cx="24704.3" cy="8750" r="255.315" /> 
<circle cx="24704.3" cy="7750" r="255.315" /> 
<polyline style="fill-rule:evenodd;"
points="32959,23494
32959,24005
32449,24005
32449,23494
32959,23494
" /> 
<circle cx="31704.3" cy="23750" r="255.315" /> 
<circle cx="30704.3" cy="23750" r="255.315" /> 
<circle cx="29704.3" cy="23750" r="255.315" /> 
<circle cx="29704.3" cy="26750" r="255.315" /> 
<circle cx="30704.3" cy="26750" r="255.315" /> 
<circle cx="31704.3" cy="26750" r="255.315" /> 
<circle cx="32704.3" cy="26750" r="255.315" /> 
<polyline style="fill-rule:evenodd;"
points="40449,10494
40959,10494
40959,11005
40449,11005
40449,10494
" /> 
<circle cx="40704.3" cy="11750" r="255.315" /> 
<circle cx="40704.3" cy="12750" r="255.315" /> 
<circle cx="40704.3" cy="13750" r="255.315" /> 
<circle cx="40704.3" cy="14750" r="255.315" /> 
<circle cx="40704.3" cy="15750" r="255.315" /> 
<circle cx="40704.3" cy="16750" r="255.315" /> 
<circle cx="40704.3" cy="17750" r="255.315" /> 
<circle cx="43704.3" cy="17750" r="255.315" /> 
<circle cx="43704.3" cy="16750" r="255.315" /> 
<circle cx="43704.3" cy="15750" r="255.315" /> 
<circle cx="43704.3" cy="14750" r="255.315" /> 
<circle cx="43704.3" cy="13750" r="255.315" /> 
<circle cx="43704.3" cy="12750" r="255.315" /> 
<circle cx="43704.3" cy="11750" r="255.315" /> 
<circle cx="43704.3" cy="10750" r="255.315" /> 
<circle cx="37704.3" cy="10750" r="255.315" /> 
<circle cx="37704.3" cy="11750" r="255.315" /> 
<circle cx="37704.3" cy="13750" r="255.315" /> 
<circle cx="37704.3" cy="14750" r="255.315" /> 
<circle cx="36204.3" cy="10750" r="255.315" /> 
<circle cx="36204.3" cy="11750" r="255.315" /> 
<circle cx="37704.3" cy="16250" r="255.315" /> 
<circle cx="37704.3" cy="17250" r="255.315" /> 
<circle cx="42704.3" cy="8250" r="255.315" /> 
<circle cx="41704.3" cy="8250" r="255.315" /> 
<polyline style="fill-rule:evenodd;"
points="14475,28017
14475,26482
15814,26482
15814,28017
14475,28017
" /> 
<polyline style="fill-rule:evenodd;"
points="12113,27919
12113,26580
13452,26580
13452,27919
12113,27919
" /> 
<polyline style="fill-rule:evenodd;"
points="18449,32505
18449,31994
18959,31994
18959,32505
18449,32505
" /> 
<circle cx="19704.3" cy="32250" r="255.315" /> 
<circle cx="20704.3" cy="32250" r="255.315" /> 
<circle cx="21704.3" cy="32250" r="255.315" /> 
<circle cx="22704.3" cy="32250" r="255.315" /> 
<circle cx="23704.3" cy="32250" r="255.315" /> 
<circle cx="24704.3" cy="32250" r="255.315" /> 
<circle cx="25704.3" cy="32250" r="255.315" /> 
<circle cx="25704.3" cy="29250" r="255.315" /> 
<circle cx="24704.3" cy="29250" r="255.315" /> 
<circle cx="23704.3" cy="29250" r="255.315" /> 
<circle cx="22704.3" cy="29250" r="255.315" /> 
<circle cx="21704.3" cy="29250" r="255.315" /> 
<circle cx="20704.3" cy="29250" r="255.315" /> 
<circle cx="19704.3" cy="29250" r="255.315" /> 
<circle cx="18704.3" cy="29250" r="255.315" /> 
<polyline style="fill-rule:evenodd;"
points="17025,28929
17025,30070
15883,30070
15883,28929
17025,28929
" /> 
<circle cx="14454.3" cy="29500" r="570.815" /> 
</g> 
</svg>
