<?xml version="1.0" standalone="no"?>
 <!DOCTYPE svg PUBLIC "-//W3C//DTD SVG 1.1//EN" 
 "http://www.w3.org/Graphics/SVG/1.1/DTD/svg11.dtd"> 
<svg xmlns="http://www.w3.org/2000/svg" version="1.1" 
    width="14.8539cm" height="9.66724cm" viewBox="0 0 58480 38060 ">
<title>SVG Picture created as MetroMiniABSBiDir-noCANSlave-B_Cu.svg date 2018/07/26 16:45:05 </title>
  <desc>Picture generated by PCBNEW </desc>
<g style="fill:#000000; fill-opacity:1;stroke:#000000; stroke-opacity:1;
stroke-linecap:round; stroke-linejoin:round; "
 transform="translate(0 0) scale(1 1)">
</g>
<g style="fill:#FFFF00; fill-opacity:0.0; 
stroke:#FFFF00; stroke-width:39.3701; stroke-opacity:1; 
stroke-linecap:round; stroke-linejoin:round;">
<path d="M47204 33250
L11204 33250
" />
<path d="M47204 750
L47204 33250
" />
<path d="M11204 750
L47204 750
" />
<path d="M11204 33250
L11204 750
" />
</g>
<g style="fill:#808000; fill-opacity:0.0; 
stroke:#808000; stroke-width:39.3701; stroke-opacity:1; 
stroke-linecap:round; stroke-linejoin:round;">
</g>
<g style="fill:#808000; fill-opacity:1.0; 
stroke:#808000; stroke-width:39.3701; stroke-opacity:1; 
stroke-linecap:round; stroke-linejoin:round;">
<polyline style="fill-rule:evenodd;"
points="13484,23030
12924,23030
12924,22469
13484,22469
13484,23030
" /> 
<circle cx="13204.3" cy="21750" r="280.315" /> 
<circle cx="13204.3" cy="20750" r="280.315" /> 
<circle cx="13204.3" cy="19750" r="280.315" /> 
<circle cx="13204.3" cy="18750" r="280.315" /> 
<circle cx="13204.3" cy="17750" r="280.315" /> 
<circle cx="13204.3" cy="16750" r="280.315" /> 
<circle cx="13204.3" cy="15750" r="280.315" /> 
<circle cx="14704.3" cy="16750" r="255.315" /> 
<circle cx="15704.3" cy="16750" r="255.315" /> 
<circle cx="15704.3" cy="17750" r="255.315" /> 
<circle cx="16704.3" cy="17750" r="255.315" /> 
<circle cx="14704.3" cy="18750" r="255.315" /> 
<circle cx="15704.3" cy="18750" r="255.315" /> 
<circle cx="15704.3" cy="19750" r="255.315" /> 
<circle cx="16704.3" cy="19750" r="255.315" /> 
<circle cx="14704.3" cy="20750" r="255.315" /> 
<circle cx="15704.3" cy="20750" r="255.315" /> 
<circle cx="15704.3" cy="21750" r="255.315" /> 
<circle cx="16704.3" cy="21750" r="255.315" /> 
<circle cx="26204.3" cy="7750" r="255.315" /> 
<circle cx="26204.3" cy="8750" r="255.315" /> 
<circle cx="20704.3" cy="6250" r="255.315" /> 
<circle cx="21704.3" cy="6250" r="255.315" /> 
<polyline style="fill-rule:evenodd;"
points="32984,30469
32984,31030
32424,31030
32424,30469
32984,30469
" /> 
<circle cx="31704.3" cy="30750" r="280.315" /> 
<circle cx="30704.3" cy="30750" r="280.315" /> 
<circle cx="29704.3" cy="30750" r="280.315" /> 
<circle cx="28704.3" cy="30750" r="280.315" /> 
<polyline style="fill-rule:evenodd;"
points="32984,28469
32984,29030
32424,29030
32424,28469
32984,28469
" /> 
<circle cx="31704.3" cy="28750" r="280.315" /> 
<circle cx="30704.3" cy="28750" r="280.315" /> 
<circle cx="29704.3" cy="28750" r="280.315" /> 
<circle cx="28704.3" cy="28750" r="280.315" /> 
<polyline style="fill-rule:evenodd;"
points="45424,10469
45984,10469
45984,11030
45424,11030
45424,10469
" /> 
<circle cx="45704.3" cy="11750" r="280.315" /> 
<circle cx="45704.3" cy="12750" r="280.315" /> 
<circle cx="45704.3" cy="13750" r="280.315" /> 
<polyline style="fill-rule:evenodd;"
points="45424,14969
45984,14969
45984,15530
45424,15530
45424,14969
" /> 
<circle cx="45704.3" cy="16250" r="280.315" /> 
<circle cx="45704.3" cy="17250" r="280.315" /> 
<circle cx="45704.3" cy="18250" r="280.315" /> 
<polyline style="fill-rule:evenodd;"
points="13775,11320
12633,11320
12633,10179
13775,10179
13775,11320
" /> 
<circle cx="13204.3" cy="8750" r="570.815" /> 
<circle cx="33454.3" cy="6500" r="413.386" /> 
<circle cx="27954.3" cy="6500" r="413.386" /> 
<circle cx="33454.3" cy="22000" r="413.386" /> 
<circle cx="27954.3" cy="22000" r="413.386" /> 
<circle cx="33708.3" cy="13750" r="280.315" /> 
<circle cx="33708.3" cy="12750" r="280.315" /> 
<circle cx="33708.3" cy="11750" r="280.315" /> 
<circle cx="33708.3" cy="10750" r="280.315" /> 
<circle cx="33708.3" cy="9750" r="280.315" /> 
<circle cx="33708.3" cy="8750" r="280.315" /> 
<polyline style="fill-rule:evenodd;"
points="33427,7469
33988,7469
33988,8030
33427,8030
33427,7469
" /> 
<circle cx="33708.3" cy="14750" r="280.315" /> 
<circle cx="33708.3" cy="15750" r="280.315" /> 
<circle cx="33708.3" cy="16750" r="280.315" /> 
<circle cx="33708.3" cy="17750" r="280.315" /> 
<circle cx="33708.3" cy="18750" r="280.315" /> 
<circle cx="33708.3" cy="19750" r="280.315" /> 
<circle cx="33708.3" cy="20750" r="280.315" /> 
<circle cx="27700.4" cy="20750" r="280.315" /> 
<circle cx="27700.4" cy="19750" r="280.315" /> 
<circle cx="27700.4" cy="18750" r="280.315" /> 
<circle cx="27700.4" cy="17750" r="280.315" /> 
<circle cx="27700.4" cy="16750" r="280.315" /> 
<circle cx="27700.4" cy="15750" r="280.315" /> 
<circle cx="27700.4" cy="14750" r="280.315" /> 
<circle cx="27700.4" cy="13750" r="280.315" /> 
<circle cx="27700.4" cy="12750" r="280.315" /> 
<circle cx="27700.4" cy="11750" r="280.315" /> 
<circle cx="27700.4" cy="10750" r="280.315" /> 
<circle cx="27700.4" cy="9750" r="280.315" /> 
<circle cx="27700.4" cy="8750" r="280.315" /> 
<circle cx="27700.4" cy="7750" r="280.315" /> 
<polyline style="fill-rule:evenodd;"
points="17224,6257
18184,6257
18184,7218
17224,7218
17224,6257
" /> 
<circle cx="17704.3" cy="8746.06" r="480.315" /> 
<circle cx="17704.3" cy="10753.9" r="480.315" /> 
<circle cx="17704.3" cy="12761.8" r="480.315" /> 
<polyline style="fill-rule:evenodd;"
points="17964,24510
17444,24510
17444,23989
17964,23989
17964,24510
" /> 
<circle cx="17704.3" cy="27250" r="260.315" /> 
<polyline style="fill-rule:evenodd;"
points="21449,7494
21959,7494
21959,8005
21449,8005
21449,7494
" /> 
<circle cx="21704.3" cy="8750" r="255.315" /> 
<circle cx="21704.3" cy="9750" r="255.315" /> 
<circle cx="21704.3" cy="10750" r="255.315" /> 
<circle cx="24704.3" cy="10750" r="255.315" /> 
<circle cx="24704.3" cy="9750" r="255.315" /> 
<circle cx="24704.3" cy="8750" r="255.315" /> 
<circle cx="24704.3" cy="7750" r="255.315" /> 
<polyline style="fill-rule:evenodd;"
points="32959,23494
32959,24005
32449,24005
32449,23494
32959,23494
" /> 
<circle cx="31704.3" cy="23750" r="255.315" /> 
<circle cx="30704.3" cy="23750" r="255.315" /> 
<circle cx="29704.3" cy="23750" r="255.315" /> 
<circle cx="29704.3" cy="26750" r="255.315" /> 
<circle cx="30704.3" cy="26750" r="255.315" /> 
<circle cx="31704.3" cy="26750" r="255.315" /> 
<circle cx="32704.3" cy="26750" r="255.315" /> 
<polyline style="fill-rule:evenodd;"
points="40449,10494
40959,10494
40959,11005
40449,11005
40449,10494
" /> 
<circle cx="40704.3" cy="11750" r="255.315" /> 
<circle cx="40704.3" cy="12750" r="255.315" /> 
<circle cx="40704.3" cy="13750" r="255.315" /> 
<circle cx="40704.3" cy="14750" r="255.315" /> 
<circle cx="40704.3" cy="15750" r="255.315" /> 
<circle cx="40704.3" cy="16750" r="255.315" /> 
<circle cx="40704.3" cy="17750" r="255.315" /> 
<circle cx="43704.3" cy="17750" r="255.315" /> 
<circle cx="43704.3" cy="16750" r="255.315" /> 
<circle cx="43704.3" cy="15750" r="255.315" /> 
<circle cx="43704.3" cy="14750" r="255.315" /> 
<circle cx="43704.3" cy="13750" r="255.315" /> 
<circle cx="43704.3" cy="12750" r="255.315" /> 
<circle cx="43704.3" cy="11750" r="255.315" /> 
<circle cx="43704.3" cy="10750" r="255.315" /> 
<circle cx="37704.3" cy="10750" r="255.315" /> 
<circle cx="37704.3" cy="11750" r="255.315" /> 
<circle cx="37704.3" cy="13750" r="255.315" /> 
<circle cx="37704.3" cy="14750" r="255.315" /> 
<circle cx="36204.3" cy="10750" r="255.315" /> 
<circle cx="36204.3" cy="11750" r="255.315" /> 
<circle cx="37704.3" cy="16250" r="255.315" /> 
<circle cx="37704.3" cy="17250" r="255.315" /> 
<circle cx="42704.3" cy="8250" r="255.315" /> 
<circle cx="41704.3" cy="8250" r="255.315" /> 
<polyline style="fill-rule:evenodd;"
points="14475,28017
14475,26482
15814,26482
15814,28017
14475,28017
" /> 
<polyline style="fill-rule:evenodd;"
points="12113,27919
12113,26580
13452,26580
13452,27919
12113,27919
" /> 
<polyline style="fill-rule:evenodd;"
points="18449,32505
18449,31994
18959,31994
18959,32505
18449,32505
" /> 
<circle cx="19704.3" cy="32250" r="255.315" /> 
<circle cx="20704.3" cy="32250" r="255.315" /> 
<circle cx="21704.3" cy="32250" r="255.315" /> 
<circle cx="22704.3" cy="32250" r="255.315" /> 
<circle cx="23704.3" cy="32250" r="255.315" /> 
<circle cx="24704.3" cy="32250" r="255.315" /> 
<circle cx="25704.3" cy="32250" r="255.315" /> 
<circle cx="25704.3" cy="29250" r="255.315" /> 
<circle cx="24704.3" cy="29250" r="255.315" /> 
<circle cx="23704.3" cy="29250" r="255.315" /> 
<circle cx="22704.3" cy="29250" r="255.315" /> 
<circle cx="21704.3" cy="29250" r="255.315" /> 
<circle cx="20704.3" cy="29250" r="255.315" /> 
<circle cx="19704.3" cy="29250" r="255.315" /> 
<circle cx="18704.3" cy="29250" r="255.315" /> 
<polyline style="fill-rule:evenodd;"
points="17025,28929
17025,30070
15883,30070
15883,28929
17025,28929
" /> 
<circle cx="14454.3" cy="29500" r="570.815" /> 
</g>
<g style="fill:#C0C0C0; fill-opacity:1.0; 
stroke:#C0C0C0; stroke-width:39.3701; stroke-opacity:1; 
stroke-linecap:round; stroke-linejoin:round;">
<circle cx="25754.3" cy="10700" r="155.315" /> 
<circle cx="44454.3" cy="16250" r="155.315" /> 
<circle cx="34454.3" cy="15250" r="155.315" /> 
<circle cx="42454.3" cy="17750" r="155.315" /> 
<circle cx="42454.3" cy="14250" r="155.315" /> 
<circle cx="23704.3" cy="18750" r="155.315" /> 
<circle cx="24654.3" cy="19750" r="155.315" /> 
<circle cx="25704.3" cy="20750" r="155.315" /> 
<circle cx="45204.3" cy="17750" r="155.315" /> 
<circle cx="19354.3" cy="8300" r="155.315" /> 
<circle cx="19704.3" cy="19800" r="155.315" /> 
<circle cx="21154.3" cy="15750" r="155.315" /> 
<circle cx="21704.3" cy="16750" r="155.315" /> 
<circle cx="22754.3" cy="17750" r="155.315" /> 
<circle cx="42954.3" cy="13250" r="155.315" /> 
<circle cx="32954.3" cy="9250" r="155.315" /> 
<circle cx="44854.3" cy="13750" r="155.315" /> 
<circle cx="44704.3" cy="17250" r="155.315" /> 
<circle cx="32604.3" cy="10750" r="155.315" /> 
<circle cx="32604.3" cy="12250" r="155.315" /> 
<circle cx="33304.3" cy="11250" r="155.315" /> 
<circle cx="41454.3" cy="12250" r="155.315" /> 
<circle cx="26204.3" cy="13750" r="230.315" /> 
<circle cx="26204.3" cy="24250" r="230.315" /> 
<circle cx="30704.3" cy="19750" r="155.315" /> 
</g>
<g style="fill:#00A000; fill-opacity:1.0; 
stroke:#00A000; stroke-width:100; stroke-opacity:1; 
stroke-linecap:round; stroke-linejoin:round;">
<path d="M26204 7750
L25504 8450
" />
<path d="M25504 10450
L25754 10700
" />
<path d="M25504 8450
L25504 10450
" />
<path d="M43954 12750
L43704 12750
" />
<path d="M44454 13250
L43954 12750
" />
<path d="M44454 16250
L44454 13250
" />
<path d="M33954 16750
L33708 16750
" />
<path d="M34454 16250
L33954 16750
" />
<path d="M34454 15250
L34454 16250
" />
<path d="M42454 14250
L42454 17750
" />
<path d="M23704 18750
L23704 29250
" />
<path d="M24704 29250
L24704 19800
" />
<path d="M24704 19800
L24654 19750
" />
<path d="M25704 20750
L25704 29250
" />
<path d="M45704 11750
L45204 12250
" />
<path d="M45204 12250
L45204 17750
" />
<path d="M18704 29250
L18704 10600
" />
<path d="M19354 9950
L19354 8300
" />
<path d="M18704 10600
L19354 9950
" />
<path d="M19704 19800
L19704 29250
" />
<path d="M20704 29250
L20704 16200
" />
<path d="M20704 16200
L21154 15750
" />
<path d="M21704 16750
L21704 29250
" />
<path d="M22704 29250
L22704 17800
" />
<path d="M22704 17800
L22754 17750
" />
<path d="M31704 28750
L31704 30750
" />
<path d="M31704 26750
L31704 28750
" />
<path d="M30704 28750
L30704 30750
" />
<path d="M30704 26750
L30704 28750
" />
<path d="M32704 28750
L32704 30750
" />
<path d="M32704 26750
L32704 28750
" />
<path d="M43704 15750
L43704 16750
" />
<path d="M42954 15750
L43704 15750
" />
<path d="M42954 13250
L42954 15750
" />
<path d="M33454 12750
L33708 12750
" />
<path d="M32954 12250
L33454 12750
" />
<path d="M32954 9250
L32954 12250
" />
<path d="M24704 8750
L24704 9750
" />
<path d="M44704 17250
L44854 17000
" />
<path d="M44854 17000
L44854 13750
" />
<path d="M21704 8750
L21954 8750
" />
<path d="M22454 10000
L21704 10750
" />
<path d="M22454 9250
L22454 10000
" />
<path d="M21954 8750
L22454 9250
" />
</g>
<g style="fill:#00A000; fill-opacity:1.0; 
stroke:#00A000; stroke-width:551.181; stroke-opacity:1; 
stroke-linecap:round; stroke-linejoin:round;">
<path d="M17704 6738
L17704 6750
" />
<path d="M16454 11511
L17704 12761
" />
<path d="M16454 8000
L16454 11511
" />
<path d="M17704 6750
L16454 8000
" />
</g>
<g style="fill:#00A000; fill-opacity:1.0; 
stroke:#00A000; stroke-width:100; stroke-opacity:1; 
stroke-linecap:round; stroke-linejoin:round;">
<path d="M32604 12250
L32604 10750
" />
<path d="M33254 10203
L33708 9750
" />
<path d="M33254 11200
L33254 10203
" />
<path d="M33304 11250
L33254 11200
" />
<path d="M41204 16750
L40704 16750
" />
<path d="M41454 16500
L41204 16750
" />
<path d="M41454 12250
L41454 16500
" />
</g>
<g style="fill:#00A000; fill-opacity:1.0; 
stroke:#00A000; stroke-width:157.48; stroke-opacity:1; 
stroke-linecap:round; stroke-linejoin:round;">
<path d="M26204 24250
L26204 13750
" />
</g>
<g style="fill:#00A000; fill-opacity:1.0; 
stroke:#00A000; stroke-width:100; stroke-opacity:1; 
stroke-linecap:round; stroke-linejoin:round;">
<path d="M17704 10753
L17704 10750
" />
<path d="M19704 6250
L20704 6250
" />
<path d="M18704 7250
L19704 6250
" />
<path d="M18704 9750
L18704 7250
" />
<path d="M17704 10750
L18704 9750
" />
<path d="M21704 6250
L21704 7750
" />
<path d="M21704 7750
L20954 8500
" />
<path d="M20954 8500
L20954 9500
" />
<path d="M20954 9500
L21204 9750
" />
<path d="M21204 9750
L21704 9750
" />
<path d="M30704 23750
L30704 19750
" />
<path d="M31704 23750
L31704 21750
" />
<path d="M32704 20750
L33708 20750
" />
<path d="M31704 21750
L32704 20750
" />
<path d="M29704 28750
L29704 30750
" />
<path d="M29704 26750
L29704 28750
" />
</g>
<g style="fill:#00A000; fill-opacity:1.0; 
stroke:#00A000; stroke-width:39.3701; stroke-opacity:1; 
stroke-linecap:round; stroke-linejoin:round;">
<polyline style="fill-rule:evenodd;"
points="46934,32980
46696,32980
46696,31853
46696,1853
46583,1580
46375,1371
46102,1258
45807,1257
45534,1370
45325,1579
45212,1851
45212,2146
45324,2419
45533,2628
45806,2741
46101,2742
46374,2629
46583,2420
46696,2148
46696,1853
46696,31853
46583,31580
46375,31371
46254,31321
46254,17141
46170,16938
46016,16784
45934,16750
46015,16716
46170,16561
46254,16359
46254,16141
46170,15938
46016,15784
45814,15700
45595,15699
45504,15737
45504,13262
45594,13299
45813,13300
46015,13216
46170,13061
46254,12859
46254,12641
46170,12438
46016,12284
45934,12250
46015,12216
46170,12061
46254,11859
46254,11641
46170,11438
46016,11284
45814,11200
45595,11199
45393,11283
45238,11438
45154,11640
45154,11858
45159,11870
44992,12037
44927,12135
44904,12250
44904,13325
44770,13324
44754,13331
44754,13250
44731,13135
44666,13037
44666,13037
44229,12600
44229,10646
44149,10453
44002,10305
43809,10225
43600,10224
43407,10304
43259,10452
43229,10524
43229,8146
43149,7953
43002,7805
42809,7725
42600,7724
42407,7804
42259,7952
42179,8145
42179,8353
42259,8547
42406,8694
42599,8774
42808,8775
43001,8695
43149,8547
43229,8354
43229,8146
43229,10524
43179,10645
43179,10853
43259,11047
43406,11194
43599,11274
43808,11275
44001,11195
44149,11047
44229,10854
44229,10646
44229,12600
44197,12568
44149,12453
44002,12305
43809,12225
43600,12224
43407,12304
43259,12452
43179,12645
43179,12853
43193,12889
43039,12825
42870,12824
42713,12889
42594,13008
42529,13165
42529,13334
42593,13490
42654,13551
42654,13872
42539,13825
42370,13824
42213,13889
42094,14008
42029,14165
42029,14334
42093,14490
42154,14551
42154,17448
42094,17508
42029,17665
42029,17834
42093,17990
42213,18110
42369,18174
42538,18175
42694,18110
42814,17991
42879,17834
42879,17665
42814,17509
42754,17448
42754,15970
42839,16027
42954,16050
43261,16050
43404,16192
43404,16307
43259,16452
43179,16645
43179,16853
43259,17047
43406,17194
43539,17250
43407,17304
43259,17452
43179,17645
43179,17853
43259,18047
43406,18194
43599,18274
43808,18275
44001,18195
44149,18047
44229,17854
44229,17646
44149,17453
44002,17305
43869,17249
44001,17195
44149,17047
44229,16854
44229,16646
44214,16610
44369,16674
44538,16675
44554,16668
44554,16852
44463,16889
44344,17008
44279,17165
44279,17334
44343,17490
44463,17610
44619,17674
44779,17675
44779,17834
44843,17990
44963,18110
45119,18174
45288,18175
45444,18110
45564,17991
45629,17834
45629,17799
45813,17800
46015,17716
46170,17561
46254,17359
46254,17141
46254,31321
46102,31258
45807,31257
45534,31370
45325,31579
45212,31851
45212,32146
45324,32419
45533,32628
45806,32741
46101,32742
46374,32629
46583,32420
46696,32148
46696,31853
46696,32980
41879,32980
41879,12165
41814,12009
41695,11889
41539,11825
41370,11824
41215,11889
41229,11854
41229,11646
41149,11453
41002,11305
40929,11275
41028,11275
41120,11237
41191,11166
41229,11074
41229,10975
41229,10425
41191,10333
41121,10263
41029,10225
40929,10224
40379,10224
40287,10262
40217,10333
40179,10425
40179,10524
40179,11074
40217,11166
40287,11236
40379,11274
40478,11275
40479,11275
40407,11304
40259,11452
40179,11645
40179,11853
40259,12047
40406,12194
40539,12250
40407,12304
40259,12452
40179,12645
40179,12853
40259,13047
40406,13194
40539,13250
40407,13304
40259,13452
40179,13645
40179,13853
40259,14047
40406,14194
40539,14250
40407,14304
40259,14452
40179,14645
40179,14853
40259,15047
40406,15194
40539,15250
40407,15304
40259,15452
40179,15645
40179,15853
40259,16047
40406,16194
40539,16250
40407,16304
40259,16452
40179,16645
40179,16853
40259,17047
40406,17194
40539,17250
40407,17304
40259,17452
40179,17645
40179,17853
40259,18047
40406,18194
40599,18274
40808,18275
41001,18195
41149,18047
41229,17854
41229,17646
41149,17453
41002,17305
40869,17249
41001,17195
41146,17050
41204,17050
41204,17049
41319,17027
41319,17027
41416,16962
41666,16712
41666,16712
41731,16614
41754,16500
41754,16500
41754,12551
41814,12491
41879,12334
41879,12165
41879,32980
38229,32980
38229,16146
38229,14646
38149,14453
38002,14305
37869,14249
38001,14195
38149,14047
38229,13854
38229,13646
38229,11646
38149,11453
38002,11305
37869,11249
38001,11195
38149,11047
38229,10854
38229,10646
38149,10453
38002,10305
37809,10225
37600,10224
37407,10304
37259,10452
37179,10645
37179,10853
37259,11047
37406,11194
37539,11250
37407,11304
37259,11452
37179,11645
37179,11853
37259,12047
37406,12194
37599,12274
37808,12275
38001,12195
38149,12047
38229,11854
38229,11646
38229,13646
38149,13453
38002,13305
37809,13225
37600,13224
37407,13304
37259,13452
37179,13645
37179,13853
37259,14047
37406,14194
37539,14250
37407,14304
37259,14452
37179,14645
37179,14853
37259,15047
37406,15194
37599,15274
37808,15275
38001,15195
38149,15047
38229,14854
38229,14646
38229,16146
38149,15953
38002,15805
37809,15725
37600,15724
37407,15804
37259,15952
37179,16145
37179,16353
37259,16547
37406,16694
37599,16774
37808,16775
38001,16695
38149,16547
38229,16354
38229,16146
38229,32980
36729,32980
36729,10646
36649,10453
36502,10305
36309,10225
36100,10224
35907,10304
35759,10452
35679,10645
35679,10853
35759,11047
35906,11194
36099,11274
36308,11275
36501,11195
36649,11047
36729,10854
36729,10646
36729,32980
34879,32980
34879,15165
34814,15009
34695,14889
34539,14825
34370,14824
34252,14873
34258,14859
34258,14641
34174,14438
34020,14284
33938,14250
34019,14216
34174,14061
34258,13859
34258,13641
34174,13438
34020,13284
33938,13250
34019,13216
34174,13061
34258,12859
34258,12641
34174,12438
34020,12284
33938,12250
34019,12216
34174,12061
34258,11859
34258,11641
34174,11438
34020,11284
33938,11250
34019,11216
34174,11061
34258,10859
34258,10641
34174,10438
34020,10284
33938,10250
34019,10216
34174,10061
34258,9859
34258,9641
34174,9438
34020,9284
33938,9250
34019,9216
34174,9061
34258,8859
34258,8641
34174,8438
34036,8300
34057,8300
34149,8262
34220,8191
34258,8099
34258,8000
34258,7400
34220,7308
34150,7238
34137,7232
34137,6364
34033,6113
33841,5921
33590,5817
33319,5816
33067,5920
32875,6112
32771,6363
32771,6635
32874,6886
33066,7078
33317,7182
33589,7183
33840,7079
34033,6887
34137,6636
34137,6364
34137,7232
34058,7200
33958,7199
33358,7199
33266,7237
33196,7308
33158,7400
33158,7499
33158,8099
33196,8191
33266,8261
33358,8299
33380,8299
33242,8438
33158,8640
33158,8858
33165,8877
33039,8825
32870,8824
32713,8889
32594,9008
32529,9165
32529,9334
32593,9490
32654,9551
32654,10325
32520,10324
32363,10389
32244,10508
32179,10665
32179,10834
32243,10990
32304,11051
32304,11948
32244,12008
32179,12165
32179,12334
32243,12490
32363,12610
32519,12674
32688,12675
32844,12610
32867,12587
33171,12891
33241,13061
33396,13215
33478,13249
33397,13283
33242,13438
33158,13640
33158,13858
33241,14061
33396,14215
33478,14249
33397,14283
33242,14438
33158,14640
33158,14858
33241,15061
33396,15215
33478,15249
33397,15283
33242,15438
33158,15640
33158,15858
33241,16061
33396,16215
33478,16249
33397,16283
33242,16438
33158,16640
33158,16858
33241,17061
33396,17215
33478,17249
33397,17283
33242,17438
33158,17640
33158,17858
33241,18061
33396,18215
33478,18249
33397,18283
33242,18438
33158,18640
33158,18858
33241,19061
33396,19215
33478,19249
33397,19283
33242,19438
33158,19640
33158,19858
33241,20061
33396,20215
33478,20249
33397,20283
33242,20438
33237,20450
32704,20450
32589,20472
32492,20537
31492,21537
31427,21635
31404,21750
31404,23307
31259,23452
31204,23585
31149,23453
31004,23307
31004,20051
31064,19991
31129,19834
31129,19665
31064,19509
30945,19389
30789,19325
30620,19324
30463,19389
30344,19508
30279,19665
30279,19834
30343,19990
30404,20051
30404,23307
30259,23452
30179,23645
30179,23853
30259,24047
30406,24194
30599,24274
30808,24275
31001,24195
31149,24047
31204,23914
31259,24047
31406,24194
31599,24274
31808,24275
32001,24195
32149,24047
32179,23975
32179,24074
32217,24166
32287,24236
32379,24274
32478,24275
33028,24275
33120,24237
33191,24166
33229,24074
33229,23975
33229,23425
33191,23333
33121,23263
33029,23225
32929,23224
32379,23224
32287,23262
32217,23333
32179,23425
32179,23524
32179,23524
32149,23453
32004,23307
32004,21874
32828,21050
33237,21050
33241,21061
33396,21215
33598,21299
33817,21300
34019,21216
34174,21061
34258,20859
34258,20641
34174,20438
34020,20284
33938,20250
34019,20216
34174,20061
34258,19859
34258,19641
34174,19438
34020,19284
33938,19250
34019,19216
34174,19061
34258,18859
34258,18641
34174,18438
34020,18284
33938,18250
34019,18216
34174,18061
34258,17859
34258,17641
34174,17438
34020,17284
33938,17250
34019,17216
34174,17061
34250,16877
34666,16462
34666,16462
34731,16364
34754,16250
34754,16250
34754,15551
34814,15491
34879,15334
34879,15165
34879,32980
34137,32980
34137,21864
34033,21613
33841,21421
33590,21317
33319,21316
33067,21420
32875,21612
32771,21863
32771,22135
32874,22386
33066,22578
33317,22682
33589,22683
33840,22579
34033,22387
34137,22136
34137,21864
34137,32980
33254,32980
33254,31000
33254,30400
33216,30308
33146,30238
33054,30200
33004,30200
33004,29300
33053,29300
33145,29262
33216,29191
33254,29099
33254,29000
33254,28400
33216,28308
33146,28238
33054,28200
33004,28200
33004,27192
33149,27047
33229,26854
33229,26646
33149,26453
33002,26305
32809,26225
32600,26224
32407,26304
32259,26452
32204,26585
32149,26453
32002,26305
31809,26225
31600,26224
31407,26304
31259,26452
31204,26585
31149,26453
31002,26305
30809,26225
30600,26224
30407,26304
30259,26452
30204,26585
30149,26453
30002,26305
29809,26225
29600,26224
29407,26304
29259,26452
29179,26645
29179,26853
29259,27047
29404,27192
29404,28278
29393,28283
29238,28438
29154,28640
29154,28858
29237,29061
29392,29215
29404,29220
29404,30278
29393,30283
29238,30438
29154,30640
29154,30858
29237,31061
29392,31215
29594,31299
29813,31300
30015,31216
30170,31061
30204,30980
30237,31061
30392,31215
30594,31299
30813,31300
31015,31216
31170,31061
31204,30980
31237,31061
31392,31215
31594,31299
31813,31300
32015,31216
32154,31077
32154,31099
32192,31191
32262,31261
32354,31299
32453,31300
33053,31300
33145,31262
33216,31191
33254,31099
33254,31000
33254,32980
28637,32980
28637,21864
28637,6364
28533,6113
28341,5921
28090,5817
27819,5816
27567,5920
27375,6112
27271,6363
27271,6635
27374,6886
27566,7078
27817,7182
28089,7183
28340,7079
28533,6887
28637,6636
28637,6364
28637,21864
28533,21613
28341,21421
28250,21383
28250,20641
28166,20438
28012,20284
27930,20250
28011,20216
28166,20061
28250,19859
28250,19641
28166,19438
28012,19284
27930,19250
28011,19216
28166,19061
28250,18859
28250,18641
28166,18438
28012,18284
27930,18250
28011,18216
28166,18061
28250,17859
28250,17641
28166,17438
28012,17284
27930,17250
28011,17216
28166,17061
28250,16859
28250,16641
28166,16438
28012,16284
27930,16250
28011,16216
28166,16061
28250,15859
28250,15641
28166,15438
28012,15284
27930,15250
28011,15216
28166,15061
28250,14859
28250,14641
28166,14438
28012,14284
27930,14250
28011,14216
28166,14061
28250,13859
28250,13641
28250,10641
28166,10438
28012,10284
27930,10250
28011,10216
28166,10061
28250,9859
28250,9641
28166,9438
28012,9284
27930,9250
28011,9216
28166,9061
28250,8859
28250,8641
28166,8438
28012,8284
27930,8250
28011,8216
28166,8061
28250,7859
28250,7641
28166,7438
28012,7284
27810,7200
27591,7199
27389,7283
27234,7438
27150,7640
27150,7858
27233,8061
27388,8215
27470,8249
27389,8283
27234,8438
27150,8640
27150,8858
27233,9061
27388,9215
27470,9249
27389,9283
27234,9438
27150,9640
27150,9858
27233,10061
27388,10215
27470,10249
27389,10283
27234,10438
27150,10640
27150,10858
27233,11061
27388,11215
27590,11299
27809,11300
28011,11216
28166,11061
28250,10859
28250,10641
28250,13641
28166,13438
28012,13284
27810,13200
27591,13199
27389,13283
27234,13438
27150,13640
27150,13858
27233,14061
27388,14215
27470,14249
27389,14283
27234,14438
27150,14640
27150,14858
27233,15061
27388,15215
27470,15249
27389,15283
27234,15438
27150,15640
27150,15858
27233,16061
27388,16215
27470,16249
27389,16283
27234,16438
27150,16640
27150,16858
27233,17061
27388,17215
27470,17249
27389,17283
27234,17438
27150,17640
27150,17858
27233,18061
27388,18215
27470,18249
27389,18283
27234,18438
27150,18640
27150,18858
27233,19061
27388,19215
27470,19249
27389,19283
27234,19438
27150,19640
27150,19858
27233,20061
27388,20215
27470,20249
27389,20283
27234,20438
27150,20640
27150,20858
27233,21061
27388,21215
27590,21299
27809,21300
28011,21216
28166,21061
28250,20859
28250,20641
28250,21383
28090,21317
27819,21316
27567,21420
27375,21612
27271,21863
27271,22135
27374,22386
27566,22578
27817,22682
28089,22683
28340,22579
28533,22387
28637,22136
28637,21864
28637,32980
26729,32980
26729,8646
26649,8453
26502,8305
26369,8249
26501,8195
26649,8047
26729,7854
26729,7646
26649,7453
26502,7305
26309,7225
26100,7224
25907,7304
25759,7452
25679,7645
25679,7850
25292,8237
25227,8335
25204,8450
25204,8585
25149,8453
25002,8305
24809,8225
24600,8224
24407,8304
24259,8452
24179,8645
24179,8853
24259,9047
24404,9192
24404,9307
24259,9452
24179,9645
24179,9853
24259,10047
24406,10194
24599,10274
24808,10275
25001,10195
25149,10047
25204,9914
25204,10450
25227,10564
25292,10662
25329,10699
25329,10784
25393,10940
25513,11060
25669,11124
25838,11125
25994,11060
26114,10941
26179,10784
26179,10615
26114,10459
25995,10339
25839,10275
25804,10275
25804,9092
25906,9194
26099,9274
26308,9275
26501,9195
26649,9047
26729,8854
26729,8646
26729,32980
26704,32980
26704,24150
26628,23967
26533,23871
26533,14128
26627,14033
26704,13849
26704,13650
26628,13467
26487,13326
26304,13250
26105,13249
25921,13325
25780,13466
25704,13650
25704,13849
25780,14032
25875,14128
25875,20360
25789,20325
25620,20324
25463,20389
25344,20508
25279,20665
25279,20834
25343,20990
25404,21051
25404,28807
25259,28952
25204,29085
25149,28953
25004,28807
25004,20001
25014,19991
25079,19834
25079,19665
25014,19509
24895,19389
24739,19325
24570,19324
24413,19389
24294,19508
24229,19665
24229,19834
24293,19990
24404,20101
24404,28807
24259,28952
24204,29085
24149,28953
24004,28807
24004,19051
24064,18991
24129,18834
24129,18665
24064,18509
23945,18389
23789,18325
23620,18324
23463,18389
23344,18508
23279,18665
23279,18834
23343,18990
23404,19051
23404,28807
23259,28952
23204,29085
23149,28953
23004,28807
23004,18100
23114,17991
23179,17834
23179,17665
23114,17509
22995,17389
22839,17325
22670,17324
22513,17389
22394,17508
22329,17665
22329,17834
22393,17990
22404,18000
22404,28807
22259,28952
22204,29085
22149,28953
22004,28807
22004,17051
22064,16991
22129,16834
22129,16665
22064,16509
21945,16389
21789,16325
21620,16324
21463,16389
21344,16508
21279,16665
21279,16834
21343,16990
21404,17051
21404,28807
21259,28952
21204,29085
21149,28953
21004,28807
21004,16324
21153,16174
21238,16175
21394,16110
21514,15991
21579,15834
21579,15665
21514,15509
21395,15389
21239,15325
21070,15324
20913,15389
20794,15508
20729,15665
20729,15750
20492,15987
20427,16085
20404,16200
20404,28807
20259,28952
20204,29085
20149,28953
20004,28807
20004,20101
20064,20041
20129,19884
20129,19715
20064,19559
19945,19439
19789,19375
19620,19374
19463,19439
19344,19558
19279,19715
19279,19884
19343,20040
19404,20101
19404,28807
19259,28952
19204,29085
19149,28953
19004,28807
19004,10724
19566,10162
19566,10162
19631,10064
19654,9950
19654,9950
19654,8601
19714,8541
19779,8384
19779,8215
19714,8059
19595,7939
19439,7875
19270,7874
19113,7939
19004,8048
19004,7374
19828,6550
20261,6550
20406,6694
20599,6774
20808,6775
21001,6695
21149,6547
21204,6414
21259,6547
21404,6692
21404,7224
21379,7224
21287,7262
21217,7333
21179,7425
21179,7524
21179,7850
20742,8287
20677,8385
20654,8500
20654,9500
20677,9614
20742,9712
20992,9962
20992,9962
21089,10027
21204,10050
21261,10050
21406,10194
21539,10250
21407,10304
21259,10452
21179,10645
21179,10853
21259,11047
21406,11194
21599,11274
21808,11275
22001,11195
22149,11047
22229,10854
22229,10649
22666,10212
22666,10212
22731,10114
22754,10000
22754,10000
22754,9250
22731,9135
22666,9037
22666,9037
22197,8568
22149,8453
22002,8305
21929,8275
22028,8275
22120,8237
22191,8166
22229,8074
22229,7975
22229,7425
22191,7333
22121,7263
22029,7225
22004,7225
22004,6692
22149,6547
22229,6354
22229,6146
22149,5953
22002,5805
21809,5725
21600,5724
21407,5804
21259,5952
21204,6085
21149,5953
21002,5805
20809,5725
20600,5724
20407,5804
20261,5950
19704,5950
19589,5972
19492,6037
18492,7037
18454,7094
18454,6188
18416,6096
18346,6026
18254,5988
18154,5988
17154,5988
17062,6026
16992,6096
16954,6188
16954,6287
16954,6756
16082,7628
15968,7798
15928,8000
15928,8000
15928,11511
15928,11511
15968,11712
16082,11883
16954,12755
16954,12910
17068,13186
17278,13397
17554,13511
17852,13511
18128,13398
18339,13187
18404,13031
18404,28807
18259,28952
18234,29012
18234,27145
18234,27144
18234,24480
18234,23920
18196,23828
18126,23758
18034,23720
17934,23719
17374,23719
17282,23757
17229,23811
17229,21646
17149,21453
17002,21305
16809,21225
16600,21224
16407,21304
16259,21452
16204,21585
16149,21453
16002,21305
15869,21249
16001,21195
16149,21047
16229,20854
16229,20646
16149,20453
16002,20305
15869,20249
16001,20195
16149,20047
16204,19914
16259,20047
16406,20194
16599,20274
16808,20275
17001,20195
17149,20047
17229,19854
17229,19646
17149,19453
17002,19305
16809,19225
16600,19224
16407,19304
16259,19452
16204,19585
16149,19453
16002,19305
15869,19249
16001,19195
16149,19047
16229,18854
16229,18646
16149,18453
16002,18305
15869,18249
16001,18195
16149,18047
16204,17914
16259,18047
16406,18194
16599,18274
16808,18275
17001,18195
17149,18047
17229,17854
17229,17646
17149,17453
17002,17305
16809,17225
16600,17224
16407,17304
16259,17452
16204,17585
16149,17453
16002,17305
15869,17249
16001,17195
16149,17047
16229,16854
16229,16646
16149,16453
16002,16305
15809,16225
15600,16224
15407,16304
15259,16452
15204,16585
15149,16453
15002,16305
14809,16225
14600,16224
14407,16304
14259,16452
14179,16645
14179,16853
14259,17047
14406,17194
14599,17274
14808,17275
15001,17195
15149,17047
15204,16914
15259,17047
15406,17194
15539,17250
15407,17304
15259,17452
15179,17645
15179,17853
15259,18047
15406,18194
15539,18250
15407,18304
15259,18452
15204,18585
15149,18453
15002,18305
14809,18225
14600,18224
14407,18304
14259,18452
14179,18645
14179,18853
14259,19047
14406,19194
14599,19274
14808,19275
15001,19195
15149,19047
15204,18914
15259,19047
15406,19194
15539,19250
15407,19304
15259,19452
15179,19645
15179,19853
15259,20047
15406,20194
15539,20250
15407,20304
15259,20452
15204,20585
15149,20453
15002,20305
14809,20225
14600,20224
14407,20304
14259,20452
14179,20645
14179,20853
14259,21047
14406,21194
14599,21274
14808,21275
15001,21195
15149,21047
15204,20914
15259,21047
15406,21194
15539,21250
15407,21304
15259,21452
15179,21645
15179,21853
15259,22047
15406,22194
15599,22274
15808,22275
16001,22195
16149,22047
16204,21914
16259,22047
16406,22194
16599,22274
16808,22275
17001,22195
17149,22047
17229,21854
17229,21646
17229,23811
17212,23828
17174,23920
17174,24019
17174,24579
17212,24671
17282,24741
17374,24779
17473,24780
18033,24780
18125,24742
18196,24671
18234,24579
18234,24480
18234,27144
18153,26950
18004,26800
17810,26720
17599,26719
17404,26800
17255,26949
17174,27144
17174,27354
17254,27549
17403,27699
17598,27779
17809,27780
18004,27699
18153,27550
18234,27355
18234,27145
18234,29012
18179,29145
18179,29353
18259,29547
18406,29694
18599,29774
18808,29775
19001,29695
19149,29547
19204,29414
19259,29547
19406,29694
19599,29774
19808,29775
20001,29695
20149,29547
20204,29414
20259,29547
20406,29694
20599,29774
20808,29775
21001,29695
21149,29547
21204,29414
21259,29547
21406,29694
21599,29774
21808,29775
22001,29695
22149,29547
22204,29414
22259,29547
22406,29694
22599,29774
22808,29775
23001,29695
23149,29547
23204,29414
23259,29547
23406,29694
23599,29774
23808,29775
24001,29695
24149,29547
24204,29414
24259,29547
24406,29694
24599,29774
24808,29775
25001,29695
25149,29547
25204,29414
25259,29547
25406,29694
25599,29774
25808,29775
26001,29695
26149,29547
26229,29354
26229,29146
26149,28953
26004,28807
26004,24708
26104,24749
26303,24750
26487,24674
26627,24533
26704,24349
26704,24150
26704,32980
17294,32980
17294,30040
17294,28859
17256,28768
17186,28697
17094,28659
16995,28659
16084,28659
16084,27987
16084,26413
16046,26321
15976,26250
15884,26212
15784,26212
14406,26212
14314,26250
14244,26320
14206,26412
14206,26512
14206,28086
14244,28178
14314,28249
14406,28287
14505,28287
15883,28287
15975,28249
16046,28179
16084,28087
16084,27987
16084,28659
15814,28659
15722,28697
15652,28767
15613,28859
15613,28959
15613,30140
15651,30231
15722,30302
15813,30340
15913,30340
17094,30340
17186,30302
17256,30232
17294,30140
17294,30040
17294,32980
14044,32980
14044,8583
13917,8274
13681,8037
13372,7909
13196,7909
13196,1853
13083,1580
12875,1371
12602,1258
12307,1257
12034,1370
11825,1579
11712,1851
11712,2146
11824,2419
12033,2628
12306,2741
12601,2742
12874,2629
13083,2420
13196,2148
13196,1853
13196,7909
13037,7909
12728,8037
12492,8273
12363,8582
12363,8916
12491,9225
12727,9462
13036,9590
13370,9590
13679,9462
13916,9226
14044,8917
14044,8583
14044,32980
14044,32980
14044,11290
14044,10109
14006,10018
13936,9947
13844,9909
13745,9909
12564,9909
12472,9947
12402,10017
12363,10109
12363,10209
12363,11390
12401,11481
12472,11552
12563,11590
12663,11590
13844,11590
13936,11552
14006,11482
14044,11390
14044,11290
14044,32980
13754,32980
13754,21641
13670,21438
13516,21284
13434,21250
13515,21216
13670,21061
13754,20859
13754,20641
13670,20438
13516,20284
13434,20250
13515,20216
13670,20061
13754,19859
13754,19641
13670,19438
13516,19284
13434,19250
13515,19216
13670,19061
13754,18859
13754,18641
13670,18438
13516,18284
13434,18250
13515,18216
13670,18061
13754,17859
13754,17641
13670,17438
13516,17284
13434,17250
13515,17216
13670,17061
13754,16859
13754,16641
13670,16438
13516,16284
13314,16200
13095,16199
12893,16283
12738,16438
12654,16640
12654,16858
12737,17061
12892,17215
12974,17249
12893,17283
12738,17438
12654,17640
12654,17858
12737,18061
12892,18215
12974,18249
12893,18283
12738,18438
12654,18640
12654,18858
12737,19061
12892,19215
12974,19249
12893,19283
12738,19438
12654,19640
12654,19858
12737,20061
12892,20215
12974,20249
12893,20283
12738,20438
12654,20640
12654,20858
12737,21061
12892,21215
12974,21249
12893,21283
12738,21438
12654,21640
12654,21858
12737,22061
12876,22199
12854,22199
12762,22237
12692,22308
12654,22400
12654,22499
12654,23099
12692,23191
12762,23261
12854,23299
12953,23300
13553,23300
13645,23262
13716,23191
13754,23099
13754,23000
13754,22400
13716,22308
13646,22238
13554,22200
13532,22200
13670,22061
13754,21859
13754,21641
13754,32980
13196,32980
13196,31853
13083,31580
12875,31371
12602,31258
12307,31257
12034,31370
11825,31579
11712,31851
11712,32146
11824,32419
12033,32628
12306,32741
12601,32742
12874,32629
13083,32420
13196,32148
13196,31853
13196,32980
11474,32980
11474,1019
46934,1019
46934,32980
" /> 
</g>
<g style="fill:#00A000; fill-opacity:0.0; 
stroke:#00A000; stroke-width:100; stroke-opacity:1; 
stroke-linecap:round; stroke-linejoin:round;">
<polyline fill="none;"
points="46934,32980
46696,32980
46696,31853
46696,1853
46583,1580
46375,1371
46102,1258
45807,1257
45534,1370
45325,1579
45212,1851
45212,2146
45324,2419
45533,2628
45806,2741
46101,2742
46374,2629
46583,2420
46696,2148
46696,1853
46696,31853
46583,31580
46375,31371
46254,31321
46254,17141
46170,16938
46016,16784
45934,16750
46015,16716
46170,16561
46254,16359
46254,16141
46170,15938
46016,15784
45814,15700
45595,15699
45504,15737
45504,13262
45594,13299
45813,13300
46015,13216
46170,13061
46254,12859
46254,12641
46170,12438
46016,12284
45934,12250
46015,12216
46170,12061
46254,11859
46254,11641
46170,11438
46016,11284
45814,11200
45595,11199
45393,11283
45238,11438
45154,11640
45154,11858
45159,11870
44992,12037
44927,12135
44904,12250
44904,13325
44770,13324
44754,13331
44754,13250
44731,13135
44666,13037
44666,13037
44229,12600
44229,10646
44149,10453
44002,10305
43809,10225
43600,10224
43407,10304
43259,10452
43229,10524
43229,8146
43149,7953
43002,7805
42809,7725
42600,7724
42407,7804
42259,7952
42179,8145
42179,8353
42259,8547
42406,8694
42599,8774
42808,8775
43001,8695
43149,8547
43229,8354
43229,8146
43229,10524
43179,10645
43179,10853
43259,11047
43406,11194
43599,11274
43808,11275
44001,11195
44149,11047
44229,10854
44229,10646
44229,12600
44197,12568
44149,12453
44002,12305
43809,12225
43600,12224
43407,12304
43259,12452
43179,12645
43179,12853
43193,12889
43039,12825
42870,12824
42713,12889
42594,13008
42529,13165
42529,13334
42593,13490
42654,13551
42654,13872
42539,13825
42370,13824
42213,13889
42094,14008
42029,14165
42029,14334
42093,14490
42154,14551
42154,17448
42094,17508
42029,17665
42029,17834
42093,17990
42213,18110
42369,18174
42538,18175
42694,18110
42814,17991
42879,17834
42879,17665
42814,17509
42754,17448
42754,15970
42839,16027
42954,16050
43261,16050
43404,16192
43404,16307
43259,16452
43179,16645
43179,16853
43259,17047
43406,17194
43539,17250
43407,17304
43259,17452
43179,17645
43179,17853
43259,18047
43406,18194
43599,18274
43808,18275
44001,18195
44149,18047
44229,17854
44229,17646
44149,17453
44002,17305
43869,17249
44001,17195
44149,17047
44229,16854
44229,16646
44214,16610
44369,16674
44538,16675
44554,16668
44554,16852
44463,16889
44344,17008
44279,17165
44279,17334
44343,17490
44463,17610
44619,17674
44779,17675
44779,17834
44843,17990
44963,18110
45119,18174
45288,18175
45444,18110
45564,17991
45629,17834
45629,17799
45813,17800
46015,17716
46170,17561
46254,17359
46254,17141
46254,31321
46102,31258
45807,31257
45534,31370
45325,31579
45212,31851
45212,32146
45324,32419
45533,32628
45806,32741
46101,32742
46374,32629
46583,32420
46696,32148
46696,31853
46696,32980
41879,32980
41879,12165
41814,12009
41695,11889
41539,11825
41370,11824
41215,11889
41229,11854
41229,11646
41149,11453
41002,11305
40929,11275
41028,11275
41120,11237
41191,11166
41229,11074
41229,10975
41229,10425
41191,10333
41121,10263
41029,10225
40929,10224
40379,10224
40287,10262
40217,10333
40179,10425
40179,10524
40179,11074
40217,11166
40287,11236
40379,11274
40478,11275
40479,11275
40407,11304
40259,11452
40179,11645
40179,11853
40259,12047
40406,12194
40539,12250
40407,12304
40259,12452
40179,12645
40179,12853
40259,13047
40406,13194
40539,13250
40407,13304
40259,13452
40179,13645
40179,13853
40259,14047
40406,14194
40539,14250
40407,14304
40259,14452
40179,14645
40179,14853
40259,15047
40406,15194
40539,15250
40407,15304
40259,15452
40179,15645
40179,15853
40259,16047
40406,16194
40539,16250
40407,16304
40259,16452
40179,16645
40179,16853
40259,17047
40406,17194
40539,17250
40407,17304
40259,17452
40179,17645
40179,17853
40259,18047
40406,18194
40599,18274
40808,18275
41001,18195
41149,18047
41229,17854
41229,17646
41149,17453
41002,17305
40869,17249
41001,17195
41146,17050
41204,17050
41204,17049
41319,17027
41319,17027
41416,16962
41666,16712
41666,16712
41731,16614
41754,16500
41754,16500
41754,12551
41814,12491
41879,12334
41879,12165
41879,32980
38229,32980
38229,16146
38229,14646
38149,14453
38002,14305
37869,14249
38001,14195
38149,14047
38229,13854
38229,13646
38229,11646
38149,11453
38002,11305
37869,11249
38001,11195
38149,11047
38229,10854
38229,10646
38149,10453
38002,10305
37809,10225
37600,10224
37407,10304
37259,10452
37179,10645
37179,10853
37259,11047
37406,11194
37539,11250
37407,11304
37259,11452
37179,11645
37179,11853
37259,12047
37406,12194
37599,12274
37808,12275
38001,12195
38149,12047
38229,11854
38229,11646
38229,13646
38149,13453
38002,13305
37809,13225
37600,13224
37407,13304
37259,13452
37179,13645
37179,13853
37259,14047
37406,14194
37539,14250
37407,14304
37259,14452
37179,14645
37179,14853
37259,15047
37406,15194
37599,15274
37808,15275
38001,15195
38149,15047
38229,14854
38229,14646
38229,16146
38149,15953
38002,15805
37809,15725
37600,15724
37407,15804
37259,15952
37179,16145
37179,16353
37259,16547
37406,16694
37599,16774
37808,16775
38001,16695
38149,16547
38229,16354
38229,16146
38229,32980
36729,32980
36729,10646
36649,10453
36502,10305
36309,10225
36100,10224
35907,10304
35759,10452
35679,10645
35679,10853
35759,11047
35906,11194
36099,11274
36308,11275
36501,11195
36649,11047
36729,10854
36729,10646
36729,32980
34879,32980
34879,15165
34814,15009
34695,14889
34539,14825
34370,14824
34252,14873
34258,14859
34258,14641
34174,14438
34020,14284
33938,14250
34019,14216
34174,14061
34258,13859
34258,13641
34174,13438
34020,13284
33938,13250
34019,13216
34174,13061
34258,12859
34258,12641
34174,12438
34020,12284
33938,12250
34019,12216
34174,12061
34258,11859
34258,11641
34174,11438
34020,11284
33938,11250
34019,11216
34174,11061
34258,10859
34258,10641
34174,10438
34020,10284
33938,10250
34019,10216
34174,10061
34258,9859
34258,9641
34174,9438
34020,9284
33938,9250
34019,9216
34174,9061
34258,8859
34258,8641
34174,8438
34036,8300
34057,8300
34149,8262
34220,8191
34258,8099
34258,8000
34258,7400
34220,7308
34150,7238
34137,7232
34137,6364
34033,6113
33841,5921
33590,5817
33319,5816
33067,5920
32875,6112
32771,6363
32771,6635
32874,6886
33066,7078
33317,7182
33589,7183
33840,7079
34033,6887
34137,6636
34137,6364
34137,7232
34058,7200
33958,7199
33358,7199
33266,7237
33196,7308
33158,7400
33158,7499
33158,8099
33196,8191
33266,8261
33358,8299
33380,8299
33242,8438
33158,8640
33158,8858
33165,8877
33039,8825
32870,8824
32713,8889
32594,9008
32529,9165
32529,9334
32593,9490
32654,9551
32654,10325
32520,10324
32363,10389
32244,10508
32179,10665
32179,10834
32243,10990
32304,11051
32304,11948
32244,12008
32179,12165
32179,12334
32243,12490
32363,12610
32519,12674
32688,12675
32844,12610
32867,12587
33171,12891
33241,13061
33396,13215
33478,13249
33397,13283
33242,13438
33158,13640
33158,13858
33241,14061
33396,14215
33478,14249
33397,14283
33242,14438
33158,14640
33158,14858
33241,15061
33396,15215
33478,15249
33397,15283
33242,15438
33158,15640
33158,15858
33241,16061
33396,16215
33478,16249
33397,16283
33242,16438
33158,16640
33158,16858
33241,17061
33396,17215
33478,17249
33397,17283
33242,17438
33158,17640
33158,17858
33241,18061
33396,18215
33478,18249
33397,18283
33242,18438
33158,18640
33158,18858
33241,19061
33396,19215
33478,19249
33397,19283
33242,19438
33158,19640
33158,19858
33241,20061
33396,20215
33478,20249
33397,20283
33242,20438
33237,20450
32704,20450
32589,20472
32492,20537
31492,21537
31427,21635
31404,21750
31404,23307
31259,23452
31204,23585
31149,23453
31004,23307
31004,20051
31064,19991
31129,19834
31129,19665
31064,19509
30945,19389
30789,19325
30620,19324
30463,19389
30344,19508
30279,19665
30279,19834
30343,19990
30404,20051
30404,23307
30259,23452
30179,23645
30179,23853
30259,24047
30406,24194
30599,24274
30808,24275
31001,24195
31149,24047
31204,23914
31259,24047
31406,24194
31599,24274
31808,24275
32001,24195
32149,24047
32179,23975
32179,24074
32217,24166
32287,24236
32379,24274
32478,24275
33028,24275
33120,24237
33191,24166
33229,24074
33229,23975
33229,23425
33191,23333
33121,23263
33029,23225
32929,23224
32379,23224
32287,23262
32217,23333
32179,23425
32179,23524
32179,23524
32149,23453
32004,23307
32004,21874
32828,21050
33237,21050
33241,21061
33396,21215
33598,21299
33817,21300
34019,21216
34174,21061
34258,20859
34258,20641
34174,20438
34020,20284
33938,20250
34019,20216
34174,20061
34258,19859
34258,19641
34174,19438
34020,19284
33938,19250
34019,19216
34174,19061
34258,18859
34258,18641
34174,18438
34020,18284
33938,18250
34019,18216
34174,18061
34258,17859
34258,17641
34174,17438
34020,17284
33938,17250
34019,17216
34174,17061
34250,16877
34666,16462
34666,16462
34731,16364
34754,16250
34754,16250
34754,15551
34814,15491
34879,15334
34879,15165
34879,32980
34137,32980
34137,21864
34033,21613
33841,21421
33590,21317
33319,21316
33067,21420
32875,21612
32771,21863
32771,22135
32874,22386
33066,22578
33317,22682
33589,22683
33840,22579
34033,22387
34137,22136
34137,21864
34137,32980
33254,32980
33254,31000
33254,30400
33216,30308
33146,30238
33054,30200
33004,30200
33004,29300
33053,29300
33145,29262
33216,29191
33254,29099
33254,29000
33254,28400
33216,28308
33146,28238
33054,28200
33004,28200
33004,27192
33149,27047
33229,26854
33229,26646
33149,26453
33002,26305
32809,26225
32600,26224
32407,26304
32259,26452
32204,26585
32149,26453
32002,26305
31809,26225
31600,26224
31407,26304
31259,26452
31204,26585
31149,26453
31002,26305
30809,26225
30600,26224
30407,26304
30259,26452
30204,26585
30149,26453
30002,26305
29809,26225
29600,26224
29407,26304
29259,26452
29179,26645
29179,26853
29259,27047
29404,27192
29404,28278
29393,28283
29238,28438
29154,28640
29154,28858
29237,29061
29392,29215
29404,29220
29404,30278
29393,30283
29238,30438
29154,30640
29154,30858
29237,31061
29392,31215
29594,31299
29813,31300
30015,31216
30170,31061
30204,30980
30237,31061
30392,31215
30594,31299
30813,31300
31015,31216
31170,31061
31204,30980
31237,31061
31392,31215
31594,31299
31813,31300
32015,31216
32154,31077
32154,31099
32192,31191
32262,31261
32354,31299
32453,31300
33053,31300
33145,31262
33216,31191
33254,31099
33254,31000
33254,32980
28637,32980
28637,21864
28637,6364
28533,6113
28341,5921
28090,5817
27819,5816
27567,5920
27375,6112
27271,6363
27271,6635
27374,6886
27566,7078
27817,7182
28089,7183
28340,7079
28533,6887
28637,6636
28637,6364
28637,21864
28533,21613
28341,21421
28250,21383
28250,20641
28166,20438
28012,20284
27930,20250
28011,20216
28166,20061
28250,19859
28250,19641
28166,19438
28012,19284
27930,19250
28011,19216
28166,19061
28250,18859
28250,18641
28166,18438
28012,18284
27930,18250
28011,18216
28166,18061
28250,17859
28250,17641
28166,17438
28012,17284
27930,17250
28011,17216
28166,17061
28250,16859
28250,16641
28166,16438
28012,16284
27930,16250
28011,16216
28166,16061
28250,15859
28250,15641
28166,15438
28012,15284
27930,15250
28011,15216
28166,15061
28250,14859
28250,14641
28166,14438
28012,14284
27930,14250
28011,14216
28166,14061
28250,13859
28250,13641
28250,10641
28166,10438
28012,10284
27930,10250
28011,10216
28166,10061
28250,9859
28250,9641
28166,9438
28012,9284
27930,9250
28011,9216
28166,9061
28250,8859
28250,8641
28166,8438
28012,8284
27930,8250
28011,8216
28166,8061
28250,7859
28250,7641
28166,7438
28012,7284
27810,7200
27591,7199
27389,7283
27234,7438
27150,7640
27150,7858
27233,8061
27388,8215
27470,8249
27389,8283
27234,8438
27150,8640
27150,8858
27233,9061
27388,9215
27470,9249
27389,9283
27234,9438
27150,9640
27150,9858
27233,10061
27388,10215
27470,10249
27389,10283
27234,10438
27150,10640
27150,10858
27233,11061
27388,11215
27590,11299
27809,11300
28011,11216
28166,11061
28250,10859
28250,10641
28250,13641
28166,13438
28012,13284
27810,13200
27591,13199
27389,13283
27234,13438
27150,13640
27150,13858
27233,14061
27388,14215
27470,14249
27389,14283
27234,14438
27150,14640
27150,14858
27233,15061
27388,15215
27470,15249
27389,15283
27234,15438
27150,15640
27150,15858
27233,16061
27388,16215
27470,16249
27389,16283
27234,16438
27150,16640
27150,16858
27233,17061
27388,17215
27470,17249
27389,17283
27234,17438
27150,17640
27150,17858
27233,18061
27388,18215
27470,18249
27389,18283
27234,18438
27150,18640
27150,18858
27233,19061
27388,19215
27470,19249
27389,19283
27234,19438
27150,19640
27150,19858
27233,20061
27388,20215
27470,20249
27389,20283
27234,20438
27150,20640
27150,20858
27233,21061
27388,21215
27590,21299
27809,21300
28011,21216
28166,21061
28250,20859
28250,20641
28250,21383
28090,21317
27819,21316
27567,21420
27375,21612
27271,21863
27271,22135
27374,22386
27566,22578
27817,22682
28089,22683
28340,22579
28533,22387
28637,22136
28637,21864
28637,32980
26729,32980
26729,8646
26649,8453
26502,8305
26369,8249
26501,8195
26649,8047
26729,7854
26729,7646
26649,7453
26502,7305
26309,7225
26100,7224
25907,7304
25759,7452
25679,7645
25679,7850
25292,8237
25227,8335
25204,8450
25204,8585
25149,8453
25002,8305
24809,8225
24600,8224
24407,8304
24259,8452
24179,8645
24179,8853
24259,9047
24404,9192
24404,9307
24259,9452
24179,9645
24179,9853
24259,10047
24406,10194
24599,10274
24808,10275
25001,10195
25149,10047
25204,9914
25204,10450
25227,10564
25292,10662
25329,10699
25329,10784
25393,10940
25513,11060
25669,11124
25838,11125
25994,11060
26114,10941
26179,10784
26179,10615
26114,10459
25995,10339
25839,10275
25804,10275
25804,9092
25906,9194
26099,9274
26308,9275
26501,9195
26649,9047
26729,8854
26729,8646
26729,32980
26704,32980
26704,24150
26628,23967
26533,23871
26533,14128
26627,14033
26704,13849
26704,13650
26628,13467
26487,13326
26304,13250
26105,13249
25921,13325
25780,13466
25704,13650
25704,13849
25780,14032
25875,14128
25875,20360
25789,20325
25620,20324
25463,20389
25344,20508
25279,20665
25279,20834
25343,20990
25404,21051
25404,28807
25259,28952
25204,29085
25149,28953
25004,28807
25004,20001
25014,19991
25079,19834
25079,19665
25014,19509
24895,19389
24739,19325
24570,19324
24413,19389
24294,19508
24229,19665
24229,19834
24293,19990
24404,20101
24404,28807
24259,28952
24204,29085
24149,28953
24004,28807
24004,19051
24064,18991
24129,18834
24129,18665
24064,18509
23945,18389
23789,18325
23620,18324
23463,18389
23344,18508
23279,18665
23279,18834
23343,18990
23404,19051
23404,28807
23259,28952
23204,29085
23149,28953
23004,28807
23004,18100
23114,17991
23179,17834
23179,17665
23114,17509
22995,17389
22839,17325
22670,17324
22513,17389
22394,17508
22329,17665
22329,17834
22393,17990
22404,18000
22404,28807
22259,28952
22204,29085
22149,28953
22004,28807
22004,17051
22064,16991
22129,16834
22129,16665
22064,16509
21945,16389
21789,16325
21620,16324
21463,16389
21344,16508
21279,16665
21279,16834
21343,16990
21404,17051
21404,28807
21259,28952
21204,29085
21149,28953
21004,28807
21004,16324
21153,16174
21238,16175
21394,16110
21514,15991
21579,15834
21579,15665
21514,15509
21395,15389
21239,15325
21070,15324
20913,15389
20794,15508
20729,15665
20729,15750
20492,15987
20427,16085
20404,16200
20404,28807
20259,28952
20204,29085
20149,28953
20004,28807
20004,20101
20064,20041
20129,19884
20129,19715
20064,19559
19945,19439
19789,19375
19620,19374
19463,19439
19344,19558
19279,19715
19279,19884
19343,20040
19404,20101
19404,28807
19259,28952
19204,29085
19149,28953
19004,28807
19004,10724
19566,10162
19566,10162
19631,10064
19654,9950
19654,9950
19654,8601
19714,8541
19779,8384
19779,8215
19714,8059
19595,7939
19439,7875
19270,7874
19113,7939
19004,8048
19004,7374
19828,6550
20261,6550
20406,6694
20599,6774
20808,6775
21001,6695
21149,6547
21204,6414
21259,6547
21404,6692
21404,7224
21379,7224
21287,7262
21217,7333
21179,7425
21179,7524
21179,7850
20742,8287
20677,8385
20654,8500
20654,9500
20677,9614
20742,9712
20992,9962
20992,9962
21089,10027
21204,10050
21261,10050
21406,10194
21539,10250
21407,10304
21259,10452
21179,10645
21179,10853
21259,11047
21406,11194
21599,11274
21808,11275
22001,11195
22149,11047
22229,10854
22229,10649
22666,10212
22666,10212
22731,10114
22754,10000
22754,10000
22754,9250
22731,9135
22666,9037
22666,9037
22197,8568
22149,8453
22002,8305
21929,8275
22028,8275
22120,8237
22191,8166
22229,8074
22229,7975
22229,7425
22191,7333
22121,7263
22029,7225
22004,7225
22004,6692
22149,6547
22229,6354
22229,6146
22149,5953
22002,5805
21809,5725
21600,5724
21407,5804
21259,5952
21204,6085
21149,5953
21002,5805
20809,5725
20600,5724
20407,5804
20261,5950
19704,5950
19589,5972
19492,6037
18492,7037
18454,7094
18454,6188
18416,6096
18346,6026
18254,5988
18154,5988
17154,5988
17062,6026
16992,6096
16954,6188
16954,6287
16954,6756
16082,7628
15968,7798
15928,8000
15928,8000
15928,11511
15928,11511
15968,11712
16082,11883
16954,12755
16954,12910
17068,13186
17278,13397
17554,13511
17852,13511
18128,13398
18339,13187
18404,13031
18404,28807
18259,28952
18234,29012
18234,27145
18234,27144
18234,24480
18234,23920
18196,23828
18126,23758
18034,23720
17934,23719
17374,23719
17282,23757
17229,23811
17229,21646
17149,21453
17002,21305
16809,21225
16600,21224
16407,21304
16259,21452
16204,21585
16149,21453
16002,21305
15869,21249
16001,21195
16149,21047
16229,20854
16229,20646
16149,20453
16002,20305
15869,20249
16001,20195
16149,20047
16204,19914
16259,20047
16406,20194
16599,20274
16808,20275
17001,20195
17149,20047
17229,19854
17229,19646
17149,19453
17002,19305
16809,19225
16600,19224
16407,19304
16259,19452
16204,19585
16149,19453
16002,19305
15869,19249
16001,19195
16149,19047
16229,18854
16229,18646
16149,18453
16002,18305
15869,18249
16001,18195
16149,18047
16204,17914
16259,18047
16406,18194
16599,18274
16808,18275
17001,18195
17149,18047
17229,17854
17229,17646
17149,17453
17002,17305
16809,17225
16600,17224
16407,17304
16259,17452
16204,17585
16149,17453
16002,17305
15869,17249
16001,17195
16149,17047
16229,16854
16229,16646
16149,16453
16002,16305
15809,16225
15600,16224
15407,16304
15259,16452
15204,16585
15149,16453
15002,16305
14809,16225
14600,16224
14407,16304
14259,16452
14179,16645
14179,16853
14259,17047
14406,17194
14599,17274
14808,17275
15001,17195
15149,17047
15204,16914
15259,17047
15406,17194
15539,17250
15407,17304
15259,17452
15179,17645
15179,17853
15259,18047
15406,18194
15539,18250
15407,18304
15259,18452
15204,18585
15149,18453
15002,18305
14809,18225
14600,18224
14407,18304
14259,18452
14179,18645
14179,18853
14259,19047
14406,19194
14599,19274
14808,19275
15001,19195
15149,19047
15204,18914
15259,19047
15406,19194
15539,19250
15407,19304
15259,19452
15179,19645
15179,19853
15259,20047
15406,20194
15539,20250
15407,20304
15259,20452
15204,20585
15149,20453
15002,20305
14809,20225
14600,20224
14407,20304
14259,20452
14179,20645
14179,20853
14259,21047
14406,21194
14599,21274
14808,21275
15001,21195
15149,21047
15204,20914
15259,21047
15406,21194
15539,21250
15407,21304
15259,21452
15179,21645
15179,21853
15259,22047
15406,22194
15599,22274
15808,22275
16001,22195
16149,22047
16204,21914
16259,22047
16406,22194
16599,22274
16808,22275
17001,22195
17149,22047
17229,21854
17229,21646
17229,23811
17212,23828
17174,23920
17174,24019
17174,24579
17212,24671
17282,24741
17374,24779
17473,24780
18033,24780
18125,24742
18196,24671
18234,24579
18234,24480
18234,27144
18153,26950
18004,26800
17810,26720
17599,26719
17404,26800
17255,26949
17174,27144
17174,27354
17254,27549
17403,27699
17598,27779
17809,27780
18004,27699
18153,27550
18234,27355
18234,27145
18234,29012
18179,29145
18179,29353
18259,29547
18406,29694
18599,29774
18808,29775
19001,29695
19149,29547
19204,29414
19259,29547
19406,29694
19599,29774
19808,29775
20001,29695
20149,29547
20204,29414
20259,29547
20406,29694
20599,29774
20808,29775
21001,29695
21149,29547
21204,29414
21259,29547
21406,29694
21599,29774
21808,29775
22001,29695
22149,29547
22204,29414
22259,29547
22406,29694
22599,29774
22808,29775
23001,29695
23149,29547
23204,29414
23259,29547
23406,29694
23599,29774
23808,29775
24001,29695
24149,29547
24204,29414
24259,29547
24406,29694
24599,29774
24808,29775
25001,29695
25149,29547
25204,29414
25259,29547
25406,29694
25599,29774
25808,29775
26001,29695
26149,29547
26229,29354
26229,29146
26149,28953
26004,28807
26004,24708
26104,24749
26303,24750
26487,24674
26627,24533
26704,24349
26704,24150
26704,32980
17294,32980
17294,30040
17294,28859
17256,28768
17186,28697
17094,28659
16995,28659
16084,28659
16084,27987
16084,26413
16046,26321
15976,26250
15884,26212
15784,26212
14406,26212
14314,26250
14244,26320
14206,26412
14206,26512
14206,28086
14244,28178
14314,28249
14406,28287
14505,28287
15883,28287
15975,28249
16046,28179
16084,28087
16084,27987
16084,28659
15814,28659
15722,28697
15652,28767
15613,28859
15613,28959
15613,30140
15651,30231
15722,30302
15813,30340
15913,30340
17094,30340
17186,30302
17256,30232
17294,30140
17294,30040
17294,32980
14044,32980
14044,8583
13917,8274
13681,8037
13372,7909
13196,7909
13196,1853
13083,1580
12875,1371
12602,1258
12307,1257
12034,1370
11825,1579
11712,1851
11712,2146
11824,2419
12033,2628
12306,2741
12601,2742
12874,2629
13083,2420
13196,2148
13196,1853
13196,7909
13037,7909
12728,8037
12492,8273
12363,8582
12363,8916
12491,9225
12727,9462
13036,9590
13370,9590
13679,9462
13916,9226
14044,8917
14044,8583
14044,32980
14044,32980
14044,11290
14044,10109
14006,10018
13936,9947
13844,9909
13745,9909
12564,9909
12472,9947
12402,10017
12363,10109
12363,10209
12363,11390
12401,11481
12472,11552
12563,11590
12663,11590
13844,11590
13936,11552
14006,11482
14044,11390
14044,11290
14044,32980
13754,32980
13754,21641
13670,21438
13516,21284
13434,21250
13515,21216
13670,21061
13754,20859
13754,20641
13670,20438
13516,20284
13434,20250
13515,20216
13670,20061
13754,19859
13754,19641
13670,19438
13516,19284
13434,19250
13515,19216
13670,19061
13754,18859
13754,18641
13670,18438
13516,18284
13434,18250
13515,18216
13670,18061
13754,17859
13754,17641
13670,17438
13516,17284
13434,17250
13515,17216
13670,17061
13754,16859
13754,16641
13670,16438
13516,16284
13314,16200
13095,16199
12893,16283
12738,16438
12654,16640
12654,16858
12737,17061
12892,17215
12974,17249
12893,17283
12738,17438
12654,17640
12654,17858
12737,18061
12892,18215
12974,18249
12893,18283
12738,18438
12654,18640
12654,18858
12737,19061
12892,19215
12974,19249
12893,19283
12738,19438
12654,19640
12654,19858
12737,20061
12892,20215
12974,20249
12893,20283
12738,20438
12654,20640
12654,20858
12737,21061
12892,21215
12974,21249
12893,21283
12738,21438
12654,21640
12654,21858
12737,22061
12876,22199
12854,22199
12762,22237
12692,22308
12654,22400
12654,22499
12654,23099
12692,23191
12762,23261
12854,23299
12953,23300
13553,23300
13645,23262
13716,23191
13754,23099
13754,23000
13754,22400
13716,22308
13646,22238
13554,22200
13532,22200
13670,22061
13754,21859
13754,21641
13754,32980
13196,32980
13196,31853
13083,31580
12875,31371
12602,31258
12307,31257
12034,31370
11825,31579
11712,31851
11712,32146
11824,32419
12033,32628
12306,32741
12601,32742
12874,32629
13083,32420
13196,32148
13196,31853
13196,32980
11474,32980
11474,1019
46934,1019
46934,32980
" /> 
</g>
<g style="fill:#FFFFFF; fill-opacity:0.0; 
stroke:#FFFFFF; stroke-width:39.3701; stroke-opacity:1; 
stroke-linecap:round; stroke-linejoin:round;">
</g>
<g style="fill:#FFFFFF; fill-opacity:1.0; 
stroke:#FFFFFF; stroke-width:39.3701; stroke-opacity:1; 
stroke-linecap:round; stroke-linejoin:round;">
<circle cx="25754.3" cy="10700" r="105.315" /> 
<circle cx="44454.3" cy="16250" r="105.315" /> 
<circle cx="34454.3" cy="15250" r="105.315" /> 
<circle cx="42454.3" cy="17750" r="105.315" /> 
<circle cx="42454.3" cy="14250" r="105.315" /> 
<circle cx="23704.3" cy="18750" r="105.315" /> 
<circle cx="24654.3" cy="19750" r="105.315" /> 
<circle cx="25704.3" cy="20750" r="105.315" /> 
<circle cx="45204.3" cy="17750" r="105.315" /> 
<circle cx="19354.3" cy="8300" r="105.315" /> 
<circle cx="19704.3" cy="19800" r="105.315" /> 
<circle cx="21154.3" cy="15750" r="105.315" /> 
<circle cx="21704.3" cy="16750" r="105.315" /> 
<circle cx="22754.3" cy="17750" r="105.315" /> 
<circle cx="42954.3" cy="13250" r="105.315" /> 
<circle cx="32954.3" cy="9250" r="105.315" /> 
<circle cx="44854.3" cy="13750" r="105.315" /> 
<circle cx="44704.3" cy="17250" r="105.315" /> 
<circle cx="32604.3" cy="10750" r="105.315" /> 
<circle cx="32604.3" cy="12250" r="105.315" /> 
<circle cx="33304.3" cy="11250" r="105.315" /> 
<circle cx="41454.3" cy="12250" r="105.315" /> 
<circle cx="26204.3" cy="13750" r="155.315" /> 
<circle cx="26204.3" cy="24250" r="155.315" /> 
<circle cx="30704.3" cy="19750" r="105.315" /> 
<circle cx="13204.3" cy="22750" r="180.315" /> 
<circle cx="13204.3" cy="21750" r="180.315" /> 
<circle cx="13204.3" cy="20750" r="180.315" /> 
<circle cx="13204.3" cy="19750" r="180.315" /> 
<circle cx="13204.3" cy="18750" r="180.315" /> 
<circle cx="13204.3" cy="17750" r="180.315" /> 
<circle cx="13204.3" cy="16750" r="180.315" /> 
<circle cx="13204.3" cy="15750" r="180.315" /> 
<circle cx="14704.3" cy="16750" r="140.315" /> 
<circle cx="15704.3" cy="16750" r="140.315" /> 
<circle cx="15704.3" cy="17750" r="140.315" /> 
<circle cx="16704.3" cy="17750" r="140.315" /> 
<circle cx="14704.3" cy="18750" r="140.315" /> 
<circle cx="15704.3" cy="18750" r="140.315" /> 
<circle cx="15704.3" cy="19750" r="140.315" /> 
<circle cx="16704.3" cy="19750" r="140.315" /> 
<circle cx="14704.3" cy="20750" r="140.315" /> 
<circle cx="15704.3" cy="20750" r="140.315" /> 
<circle cx="15704.3" cy="21750" r="140.315" /> 
<circle cx="16704.3" cy="21750" r="140.315" /> 
<circle cx="26204.3" cy="7750" r="140.315" /> 
<circle cx="26204.3" cy="8750" r="140.315" /> 
<circle cx="20704.3" cy="6250" r="140.315" /> 
<circle cx="21704.3" cy="6250" r="140.315" /> 
<circle cx="32704.3" cy="30750" r="180.315" /> 
<circle cx="31704.3" cy="30750" r="180.315" /> 
<circle cx="30704.3" cy="30750" r="180.315" /> 
<circle cx="29704.3" cy="30750" r="180.315" /> 
<circle cx="28704.3" cy="30750" r="180.315" /> 
<circle cx="32704.3" cy="28750" r="180.315" /> 
<circle cx="31704.3" cy="28750" r="180.315" /> 
<circle cx="30704.3" cy="28750" r="180.315" /> 
<circle cx="29704.3" cy="28750" r="180.315" /> 
<circle cx="28704.3" cy="28750" r="180.315" /> 
<circle cx="45704.3" cy="10750" r="180.315" /> 
<circle cx="45704.3" cy="11750" r="180.315" /> 
<circle cx="45704.3" cy="12750" r="180.315" /> 
<circle cx="45704.3" cy="13750" r="180.315" /> 
<circle cx="45704.3" cy="15250" r="180.315" /> 
<circle cx="45704.3" cy="16250" r="180.315" /> 
<circle cx="45704.3" cy="17250" r="180.315" /> 
<circle cx="45704.3" cy="18250" r="180.315" /> 
<circle cx="13204.3" cy="10750" r="226.315" /> 
<circle cx="13204.3" cy="8750" r="226.315" /> 
<circle cx="33454.3" cy="6500" r="413.386" /> 
<circle cx="27954.3" cy="6500" r="413.386" /> 
<circle cx="33454.3" cy="22000" r="413.386" /> 
<circle cx="27954.3" cy="22000" r="413.386" /> 
<circle cx="33708.3" cy="13750" r="180.315" /> 
<circle cx="33708.3" cy="12750" r="180.315" /> 
<circle cx="33708.3" cy="11750" r="180.315" /> 
<circle cx="33708.3" cy="10750" r="180.315" /> 
<circle cx="33708.3" cy="9750" r="180.315" /> 
<circle cx="33708.3" cy="8750" r="180.315" /> 
<circle cx="33708.3" cy="7750" r="180.315" /> 
<circle cx="33708.3" cy="14750" r="180.315" /> 
<circle cx="33708.3" cy="15750" r="180.315" /> 
<circle cx="33708.3" cy="16750" r="180.315" /> 
<circle cx="33708.3" cy="17750" r="180.315" /> 
<circle cx="33708.3" cy="18750" r="180.315" /> 
<circle cx="33708.3" cy="19750" r="180.315" /> 
<circle cx="33708.3" cy="20750" r="180.315" /> 
<circle cx="27700.4" cy="20750" r="180.315" /> 
<circle cx="27700.4" cy="19750" r="180.315" /> 
<circle cx="27700.4" cy="18750" r="180.315" /> 
<circle cx="27700.4" cy="17750" r="180.315" /> 
<circle cx="27700.4" cy="16750" r="180.315" /> 
<circle cx="27700.4" cy="15750" r="180.315" /> 
<circle cx="27700.4" cy="14750" r="180.315" /> 
<circle cx="27700.4" cy="13750" r="180.315" /> 
<circle cx="27700.4" cy="12750" r="180.315" /> 
<circle cx="27700.4" cy="11750" r="180.315" /> 
<circle cx="27700.4" cy="10750" r="180.315" /> 
<circle cx="27700.4" cy="9750" r="180.315" /> 
<circle cx="27700.4" cy="8750" r="180.315" /> 
<circle cx="27700.4" cy="7750" r="180.315" /> 
<circle cx="17704.3" cy="6738.19" r="280.315" /> 
<circle cx="17704.3" cy="8746.06" r="280.315" /> 
<circle cx="17704.3" cy="10753.9" r="280.315" /> 
<circle cx="17704.3" cy="12761.8" r="280.315" /> 
<circle cx="17704.3" cy="24250" r="100.315" /> 
<circle cx="17704.3" cy="27250" r="100.315" /> 
<circle cx="21704.3" cy="7750" r="140.315" /> 
<circle cx="21704.3" cy="8750" r="140.315" /> 
<circle cx="21704.3" cy="9750" r="140.315" /> 
<circle cx="21704.3" cy="10750" r="140.315" /> 
<circle cx="24704.3" cy="10750" r="140.315" /> 
<circle cx="24704.3" cy="9750" r="140.315" /> 
<circle cx="24704.3" cy="8750" r="140.315" /> 
<circle cx="24704.3" cy="7750" r="140.315" /> 
<circle cx="32704.3" cy="23750" r="140.315" /> 
<circle cx="31704.3" cy="23750" r="140.315" /> 
<circle cx="30704.3" cy="23750" r="140.315" /> 
<circle cx="29704.3" cy="23750" r="140.315" /> 
<circle cx="29704.3" cy="26750" r="140.315" /> 
<circle cx="30704.3" cy="26750" r="140.315" /> 
<circle cx="31704.3" cy="26750" r="140.315" /> 
<circle cx="32704.3" cy="26750" r="140.315" /> 
<circle cx="40704.3" cy="10750" r="140.315" /> 
<circle cx="40704.3" cy="11750" r="140.315" /> 
<circle cx="40704.3" cy="12750" r="140.315" /> 
<circle cx="40704.3" cy="13750" r="140.315" /> 
<circle cx="40704.3" cy="14750" r="140.315" /> 
<circle cx="40704.3" cy="15750" r="140.315" /> 
<circle cx="40704.3" cy="16750" r="140.315" /> 
<circle cx="40704.3" cy="17750" r="140.315" /> 
<circle cx="43704.3" cy="17750" r="140.315" /> 
<circle cx="43704.3" cy="16750" r="140.315" /> 
<circle cx="43704.3" cy="15750" r="140.315" /> 
<circle cx="43704.3" cy="14750" r="140.315" /> 
<circle cx="43704.3" cy="13750" r="140.315" /> 
<circle cx="43704.3" cy="12750" r="140.315" /> 
<circle cx="43704.3" cy="11750" r="140.315" /> 
<circle cx="43704.3" cy="10750" r="140.315" /> 
<circle cx="37704.3" cy="10750" r="140.315" /> 
<circle cx="37704.3" cy="11750" r="140.315" /> 
<circle cx="37704.3" cy="13750" r="140.315" /> 
<circle cx="37704.3" cy="14750" r="140.315" /> 
<circle cx="36204.3" cy="10750" r="140.315" /> 
<circle cx="36204.3" cy="11750" r="140.315" /> 
<circle cx="37704.3" cy="16250" r="140.315" /> 
<circle cx="37704.3" cy="17250" r="140.315" /> 
<circle cx="42704.3" cy="8250" r="140.315" /> 
<circle cx="41704.3" cy="8250" r="140.315" /> 
</g>
<g style="fill:#FFFFFF; fill-opacity:1.0; 
stroke:#FFFFFF; stroke-width:393.701; stroke-opacity:1; 
stroke-linecap:round; stroke-linejoin:round;">
<path d="M15145 26757
L15145 27742
" />
</g>
<g style="fill:#FFFFFF; fill-opacity:1.0; 
stroke:#FFFFFF; stroke-width:394; stroke-opacity:1; 
stroke-linecap:round; stroke-linejoin:round;">
<path d="M12783 26856
L12783 27643
" />
</g>
<g style="fill:#FFFFFF; fill-opacity:1.0; 
stroke:#FFFFFF; stroke-width:39.3701; stroke-opacity:1; 
stroke-linecap:round; stroke-linejoin:round;">
<circle cx="12454.3" cy="2000" r="472.315" /> 
<circle cx="45954.3" cy="2000" r="472.315" /> 
<circle cx="45954.3" cy="32000" r="472.315" /> 
<circle cx="12454.3" cy="32000" r="472.315" /> 
<circle cx="18704.3" cy="32250" r="140.315" /> 
<circle cx="19704.3" cy="32250" r="140.315" /> 
<circle cx="20704.3" cy="32250" r="140.315" /> 
<circle cx="21704.3" cy="32250" r="140.315" /> 
<circle cx="22704.3" cy="32250" r="140.315" /> 
<circle cx="23704.3" cy="32250" r="140.315" /> 
<circle cx="24704.3" cy="32250" r="140.315" /> 
<circle cx="25704.3" cy="32250" r="140.315" /> 
<circle cx="25704.3" cy="29250" r="140.315" /> 
<circle cx="24704.3" cy="29250" r="140.315" /> 
<circle cx="23704.3" cy="29250" r="140.315" /> 
<circle cx="22704.3" cy="29250" r="140.315" /> 
<circle cx="21704.3" cy="29250" r="140.315" /> 
<circle cx="20704.3" cy="29250" r="140.315" /> 
<circle cx="19704.3" cy="29250" r="140.315" /> 
<circle cx="18704.3" cy="29250" r="140.315" /> 
<circle cx="16454.3" cy="29500" r="226.315" /> 
<circle cx="14454.3" cy="29500" r="226.315" /> 
</g> 
</svg>
