<?xml version="1.0" standalone="no"?>
 <!DOCTYPE svg PUBLIC "-//W3C//DTD SVG 1.1//EN" 
 "http://www.w3.org/Graphics/SVG/1.1/DTD/svg11.dtd"> 
<svg xmlns="http://www.w3.org/2000/svg" version="1.1" 
    width="41.9989cm" height="29.7002cm" viewBox="0 0 165350 116930 ">
<title>SVG Picture created as MetroMiniABSBiDir-noCANSlave-F_SilkS.svg date 2018/06/16 15:05:28 </title>
  <desc>Picture generated by PCBNEW </desc>
<g style="fill:#000000; fill-opacity:1;stroke:#000000; stroke-opacity:1;
stroke-linecap:round; stroke-linejoin:round; "
 transform="translate(0 0) scale(1 1)">
</g>
<g style="fill:#000000; fill-opacity:0.0; 
stroke:#000000; stroke-width:39.3701; stroke-opacity:1; 
stroke-linecap:round; stroke-linejoin:round;">
<path d="M4000 4000
L161350 4000
L161350 112930
L4000 112930
L4000 4000
" />
<path d="M4700 4700
L160650 4700
L160650 112230
L4700 112230
L4700 4700
" />
<path d="M26470 4000
L26470 4700
" />
<path d="M15382 4552
L15097 4552
" />
<path d="M15240 4552
L15240 4052
L15192 4123
L15144 4171
L15097 4195
" />
<path d="M26470 112930
L26470 112230
" />
<path d="M15382 112782
L15097 112782
" />
<path d="M15240 112782
L15240 112282
L15192 112353
L15144 112401
L15097 112425
" />
<path d="M48940 4000
L48940 4700
" />
<path d="M37567 4100
L37590 4076
L37638 4052
L37757 4052
L37805 4076
L37829 4100
L37852 4147
L37852 4195
L37829 4266
L37543 4552
L37852 4552
" />
<path d="M48940 112930
L48940 112230
" />
<path d="M37567 112330
L37590 112306
L37638 112282
L37757 112282
L37805 112306
L37829 112330
L37852 112377
L37852 112425
L37829 112496
L37543 112782
L37852 112782
" />
<path d="M71410 4000
L71410 4700
" />
<path d="M60013 4052
L60322 4052
L60156 4242
L60227 4242
L60275 4266
L60299 4290
L60322 4338
L60322 4457
L60299 4504
L60275 4528
L60227 4552
L60084 4552
L60037 4528
L60013 4504
" />
<path d="M71410 112930
L71410 112230
" />
<path d="M60013 112282
L60322 112282
L60156 112472
L60227 112472
L60275 112496
L60299 112520
L60322 112568
L60322 112687
L60299 112734
L60275 112758
L60227 112782
L60084 112782
L60037 112758
L60013 112734
" />
<path d="M93880 4000
L93880 4700
" />
<path d="M82745 4219
L82745 4552
" />
<path d="M82626 4028
L82507 4385
L82816 4385
" />
<path d="M93880 112930
L93880 112230
" />
<path d="M82745 112449
L82745 112782
" />
<path d="M82626 112258
L82507 112615
L82816 112615
" />
<path d="M116350 4000
L116350 4700
" />
<path d="M105239 4052
L105000 4052
L104977 4290
L105000 4266
L105048 4242
L105167 4242
L105215 4266
L105239 4290
L105262 4338
L105262 4457
L105239 4504
L105215 4528
L105167 4552
L105048 4552
L105000 4528
L104977 4504
" />
<path d="M116350 112930
L116350 112230
" />
<path d="M105239 112282
L105000 112282
L104977 112520
L105000 112496
L105048 112472
L105167 112472
L105215 112496
L105239 112520
L105262 112568
L105262 112687
L105239 112734
L105215 112758
L105167 112782
L105048 112782
L105000 112758
L104977 112734
" />
<path d="M138820 4000
L138820 4700
" />
<path d="M127685 4052
L127590 4052
L127542 4076
L127518 4100
L127470 4171
L127447 4266
L127447 4457
L127470 4504
L127494 4528
L127542 4552
L127637 4552
L127685 4528
L127709 4504
L127732 4457
L127732 4338
L127709 4290
L127685 4266
L127637 4242
L127542 4242
L127494 4266
L127470 4290
L127447 4338
" />
<path d="M138820 112930
L138820 112230
" />
<path d="M127685 112282
L127590 112282
L127542 112306
L127518 112330
L127470 112401
L127447 112496
L127447 112687
L127470 112734
L127494 112758
L127542 112782
L127637 112782
L127685 112758
L127709 112734
L127732 112687
L127732 112568
L127709 112520
L127685 112496
L127637 112472
L127542 112472
L127494 112496
L127470 112520
L127447 112568
" />
<path d="M149893 4052
L150226 4052
L150012 4552
" />
<path d="M149893 112282
L150226 112282
L150012 112782
" />
<path d="M4000 25780
L4700 25780
" />
<path d="M4230 14949
L4469 14949
" />
<path d="M4183 15092
L4350 14592
L4516 15092
" />
<path d="M161350 25780
L160650 25780
" />
<path d="M160880 14949
L161119 14949
" />
<path d="M160833 15092
L161000 14592
L161166 15092
" />
<path d="M4000 47560
L4700 47560
" />
<path d="M4385 36610
L4457 36634
L4480 36658
L4504 36705
L4504 36777
L4480 36824
L4457 36848
L4409 36872
L4219 36872
L4219 36372
L4385 36372
L4433 36396
L4457 36420
L4480 36467
L4480 36515
L4457 36562
L4433 36586
L4385 36610
L4219 36610
" />
<path d="M161350 47560
L160650 47560
" />
<path d="M161035 36610
L161107 36634
L161130 36658
L161154 36705
L161154 36777
L161130 36824
L161107 36848
L161059 36872
L160869 36872
L160869 36372
L161035 36372
L161083 36396
L161107 36420
L161130 36467
L161130 36515
L161107 36562
L161083 36586
L161035 36610
L160869 36610
" />
<path d="M4000 69340
L4700 69340
" />
<path d="M4504 58604
L4480 58628
L4409 58652
L4361 58652
L4290 58628
L4242 58580
L4219 58533
L4195 58438
L4195 58366
L4219 58271
L4242 58223
L4290 58176
L4361 58152
L4409 58152
L4480 58176
L4504 58200
" />
<path d="M161350 69340
L160650 69340
" />
<path d="M161154 58604
L161130 58628
L161059 58652
L161011 58652
L160940 58628
L160892 58580
L160869 58533
L160845 58438
L160845 58366
L160869 58271
L160892 58223
L160940 58176
L161011 58152
L161059 58152
L161130 58176
L161154 58200
" />
<path d="M4000 91120
L4700 91120
" />
<path d="M4219 80432
L4219 79932
L4338 79932
L4409 79956
L4457 80003
L4480 80051
L4504 80146
L4504 80218
L4480 80313
L4457 80360
L4409 80408
L4338 80432
L4219 80432
" />
<path d="M161350 91120
L160650 91120
" />
<path d="M160869 80432
L160869 79932
L160988 79932
L161059 79956
L161107 80003
L161130 80051
L161154 80146
L161154 80218
L161130 80313
L161107 80360
L161059 80408
L160988 80432
L160869 80432
" />
<path d="M4242 101950
L4409 101950
" />
<path d="M4480 102212
L4242 102212
L4242 101712
L4480 101712
" />
<path d="M160892 101950
L161059 101950
" />
<path d="M161130 102212
L160892 102212
L160892 101712
L161130 101712
" />
<path d="M127800 110672
L127875 110072
L128017 110072
L128100 110101
L128150 110158
L128171 110215
L128185 110330
L128175 110415
L128132 110530
L128096 110587
L128032 110644
L127942 110672
L127800 110672
" />
<path d="M128657 110672
L128696 110358
L128675 110301
L128621 110272
L128507 110272
L128446 110301
" />
<path d="M128660 110644
L128600 110672
L128457 110672
L128403 110644
L128382 110587
L128389 110530
L128425 110472
L128485 110444
L128628 110444
L128689 110415
" />
<path d="M128907 110272
L129135 110272
" />
<path d="M129017 110072
L128953 110587
L128975 110644
L129028 110672
L129085 110672
" />
<path d="M129517 110644
L129457 110672
L129342 110672
L129289 110644
L129267 110587
L129296 110358
L129332 110301
L129392 110272
L129507 110272
L129560 110301
L129582 110358
L129575 110415
L129282 110472
" />
<path d="M129807 110615
L129832 110644
L129800 110672
L129775 110644
L129807 110615
L129800 110672
" />
<path d="M129846 110301
L129871 110330
L129839 110358
L129814 110330
L129846 110301
L129839 110358
" />
<path d="M130857 110672
L130514 110672
" />
<path d="M130685 110672
L130760 110072
L130692 110158
L130628 110215
L130567 110244
" />
<path d="M131446 110072
L131332 110072
L131271 110101
L131239 110130
L131171 110215
L131128 110330
L131100 110558
L131121 110615
L131146 110644
L131200 110672
L131314 110672
L131375 110644
L131407 110615
L131442 110558
L131460 110415
L131439 110358
L131414 110330
L131360 110301
L131246 110301
L131185 110330
L131153 110358
L131117 110415
" />
<path d="M132192 110272
L132128 110787
L132092 110844
L132032 110872
L132003 110872
" />
<path d="M132217 110072
L132185 110101
L132210 110130
L132242 110101
L132217 110072
L132210 110130
" />
<path d="M132735 110272
L132685 110672
" />
<path d="M132478 110272
L132439 110587
L132460 110644
L132514 110672
L132600 110672
L132660 110644
L132692 110615
" />
<path d="M133021 110272
L132971 110672
" />
<path d="M133014 110330
L133046 110301
L133107 110272
L133192 110272
L133246 110301
L133267 110358
L133228 110672
" />
<path d="M134010 110130
L134042 110101
L134103 110072
L134246 110072
L134300 110101
L134325 110130
L134346 110187
L134339 110244
L134300 110330
L133914 110672
L134285 110672
" />
<path d="M134732 110072
L134789 110072
L134842 110101
L134867 110130
L134889 110187
L134903 110301
L134885 110444
L134842 110558
L134807 110615
L134775 110644
L134714 110672
L134657 110672
L134603 110644
L134578 110615
L134557 110558
L134542 110444
L134560 110301
L134603 110187
L134639 110130
L134671 110101
L134732 110072
" />
<path d="M135428 110672
L135085 110672
" />
<path d="M135257 110672
L135332 110072
L135264 110158
L135200 110215
L135139 110244
" />
<path d="M135814 110330
L135760 110301
L135735 110272
L135714 110215
L135717 110187
L135753 110130
L135785 110101
L135846 110072
L135960 110072
L136014 110101
L136039 110130
L136060 110187
L136057 110215
L136021 110272
L135989 110301
L135928 110330
L135814 110330
L135753 110358
L135721 110387
L135685 110444
L135671 110558
L135692 110615
L135717 110644
L135771 110672
L135885 110672
L135946 110644
L135978 110615
L136014 110558
L136028 110444
L136007 110387
L135982 110358
L135928 110330
" />
<path d="M119392 111872
L119392 111272
" />
<path d="M119735 111872
L119478 111530
" />
<path d="M119735 111272
L119392 111615
" />
<path d="M119992 111872
L119992 111472
" />
<path d="M119992 111272
L119964 111301
L119992 111330
L120021 111301
L119992 111272
L119992 111330
" />
<path d="M120621 111815
L120592 111844
L120507 111872
L120450 111872
L120364 111844
L120307 111787
L120278 111730
L120250 111615
L120250 111530
L120278 111415
L120307 111358
L120364 111301
L120450 111272
L120507 111272
L120592 111301
L120621 111330
" />
<path d="M121135 111872
L121135 111558
L121107 111501
L121050 111472
L120935 111472
L120878 111501
" />
<path d="M121135 111844
L121078 111872
L120935 111872
L120878 111844
L120850 111787
L120850 111730
L120878 111672
L120935 111644
L121078 111644
L121135 111615
" />
<path d="M121678 111872
L121678 111272
" />
<path d="M121678 111844
L121621 111872
L121507 111872
L121450 111844
L121421 111815
L121392 111758
L121392 111587
L121421 111530
L121450 111501
L121507 111472
L121621 111472
L121678 111501
" />
<path d="M122421 111558
L122621 111558
" />
<path d="M122707 111872
L122421 111872
L122421 111272
L122707 111272
" />
<path d="M122964 111815
L122992 111844
L122964 111872
L122935 111844
L122964 111815
L122964 111872
" />
<path d="M123249 111872
L123249 111272
L123392 111272
L123478 111301
L123535 111358
L123564 111415
L123592 111530
L123592 111615
L123564 111730
L123535 111787
L123478 111844
L123392 111872
L123249 111872
" />
<path d="M123849 111815
L123878 111844
L123849 111872
L123821 111844
L123849 111815
L123849 111872
" />
<path d="M124107 111701
L124392 111701
" />
<path d="M124049 111872
L124249 111272
L124449 111872
" />
<path d="M124649 111815
L124678 111844
L124649 111872
L124621 111844
L124649 111815
L124649 111872
" />
<path d="M152942 110672
L152778 110387
" />
<path d="M152600 110672
L152675 110072
L152903 110072
L152957 110101
L152982 110130
L153003 110187
L152992 110272
L152957 110330
L152925 110358
L152864 110387
L152635 110387
" />
<path d="M153432 110644
L153371 110672
L153257 110672
L153203 110644
L153182 110587
L153210 110358
L153246 110301
L153307 110272
L153421 110272
L153475 110301
L153496 110358
L153489 110415
L153196 110472
" />
<path d="M153707 110272
L153800 110672
L153992 110272
" />
<path d="M154178 110615
L154203 110644
L154171 110672
L154146 110644
L154178 110615
L154171 110672
" />
<path d="M154217 110301
L154242 110330
L154210 110358
L154185 110330
L154217 110301
L154210 110358
" />
<path d="M119364 110644
L119450 110672
L119592 110672
L119650 110644
L119678 110615
L119707 110558
L119707 110501
L119678 110444
L119650 110415
L119592 110387
L119478 110358
L119421 110330
L119392 110301
L119364 110244
L119364 110187
L119392 110130
L119421 110101
L119478 110072
L119621 110072
L119707 110101
" />
<path d="M119964 110672
L119964 110272
" />
<path d="M119964 110072
L119935 110101
L119964 110130
L119992 110101
L119964 110072
L119964 110130
" />
<path d="M120192 110272
L120507 110272
L120192 110672
L120507 110672
" />
<path d="M120964 110644
L120907 110672
L120792 110672
L120735 110644
L120707 110587
L120707 110358
L120735 110301
L120792 110272
L120907 110272
L120964 110301
L120992 110358
L120992 110415
L120707 110472
" />
<path d="M121250 110615
L121278 110644
L121250 110672
L121221 110644
L121250 110615
L121250 110672
" />
<path d="M121250 110301
L121278 110330
L121250 110358
L121221 110330
L121250 110301
L121250 110358
" />
<path d="M121964 110501
L122250 110501
" />
<path d="M121907 110672
L122107 110072
L122307 110672
" />
<path d="M122450 110072
L122821 110072
L122621 110301
L122707 110301
L122764 110330
L122792 110358
L122821 110415
L122821 110558
L122792 110615
L122764 110644
L122707 110672
L122535 110672
L122478 110644
L122450 110615
" />
<path d="M152592 111872
L152592 111272
" />
<path d="M153135 111872
L153135 111272
" />
<path d="M153135 111844
L153078 111872
L152964 111872
L152907 111844
L152878 111815
L152850 111758
L152850 111587
L152878 111530
L152907 111501
L152964 111472
L153078 111472
L153135 111501
" />
<path d="M153421 111815
L153450 111844
L153421 111872
L153392 111844
L153421 111815
L153421 111872
" />
<path d="M153421 111501
L153450 111530
L153421 111558
L153392 111530
L153421 111501
L153421 111558
" />
<path d="M154478 111872
L154135 111872
" />
<path d="M154307 111872
L154307 111272
L154249 111358
L154192 111415
L154135 111444
" />
<path d="M155164 111244
L154650 112015
" />
<path d="M155678 111872
L155335 111872
" />
<path d="M155507 111872
L155507 111272
L155449 111358
L155392 111415
L155335 111444
" />
<path d="M119389 108872
L119732 108872
" />
<path d="M119485 109472
L119560 108872
" />
<path d="M119857 109472
L119907 109072
" />
<path d="M119932 108872
L119900 108901
L119925 108930
L119957 108901
L119932 108872
L119925 108930
" />
<path d="M120107 109072
L120335 109072
" />
<path d="M120217 108872
L120153 109387
L120175 109444
L120228 109472
L120285 109472
" />
<path d="M120571 109472
L120517 109444
L120496 109387
L120560 108872
" />
<path d="M121032 109444
L120971 109472
L120857 109472
L120803 109444
L120782 109387
L120810 109158
L120846 109101
L120907 109072
L121021 109072
L121075 109101
L121096 109158
L121089 109215
L120796 109272
" />
<path d="M121321 109415
L121346 109444
L121314 109472
L121289 109444
L121321 109415
L121314 109472
" />
<path d="M121360 109101
L121385 109130
L121353 109158
L121328 109130
L121360 109101
L121353 109158
" />
<path d="M119592 106758
L119392 106758
" />
<path d="M119392 107072
L119392 106472
L119678 106472
" />
<path d="M119907 107072
L119907 106672
" />
<path d="M119907 106472
L119878 106501
L119907 106530
L119935 106501
L119907 106472
L119907 106530
" />
<path d="M120278 107072
L120221 107044
L120192 106987
L120192 106472
" />
<path d="M120735 107044
L120678 107072
L120564 107072
L120507 107044
L120478 106987
L120478 106758
L120507 106701
L120564 106672
L120678 106672
L120735 106701
L120764 106758
L120764 106815
L120478 106872
" />
<path d="M121021 107015
L121050 107044
L121021 107072
L120992 107044
L121021 107015
L121021 107072
" />
<path d="M121021 106701
L121050 106730
L121021 106758
L120992 106730
L121021 106701
L121021 106758
" />
<path d="M121764 107072
L121764 106472
L121964 106901
L122164 106472
L122164 107072
" />
<path d="M122678 107044
L122621 107072
L122507 107072
L122450 107044
L122421 106987
L122421 106758
L122450 106701
L122507 106672
L122621 106672
L122678 106701
L122707 106758
L122707 106815
L122421 106872
" />
<path d="M122878 106672
L123107 106672
" />
<path d="M122964 106472
L122964 106987
L122992 107044
L123050 107072
L123107 107072
" />
<path d="M123307 107072
L123307 106672
" />
<path d="M123307 106787
L123335 106730
L123364 106701
L123421 106672
L123478 106672
" />
<path d="M123764 107072
L123707 107044
L123678 107015
L123650 106958
L123650 106787
L123678 106730
L123707 106701
L123764 106672
L123850 106672
L123907 106701
L123935 106730
L123964 106787
L123964 106958
L123935 107015
L123907 107044
L123850 107072
L123764 107072
" />
<path d="M124221 107072
L124221 106472
L124421 106901
L124621 106472
L124621 107072
" />
<path d="M124907 107072
L124907 106672
" />
<path d="M124907 106472
L124878 106501
L124907 106530
L124935 106501
L124907 106472
L124907 106530
" />
<path d="M125192 106672
L125192 107072
" />
<path d="M125192 106730
L125221 106701
L125278 106672
L125364 106672
L125421 106701
L125450 106758
L125450 107072
" />
<path d="M125735 107072
L125735 106672
" />
<path d="M125735 106472
L125707 106501
L125735 106530
L125764 106501
L125735 106472
L125735 106530
" />
<path d="M125992 106901
L126278 106901
" />
<path d="M125935 107072
L126135 106472
L126335 107072
" />
<path d="M126735 106758
L126821 106787
L126850 106815
L126878 106872
L126878 106958
L126850 107015
L126821 107044
L126764 107072
L126535 107072
L126535 106472
L126735 106472
L126792 106501
L126821 106530
L126850 106587
L126850 106644
L126821 106701
L126792 106730
L126735 106758
L126535 106758
" />
<path d="M127107 107044
L127192 107072
L127335 107072
L127392 107044
L127421 107015
L127450 106958
L127450 106901
L127421 106844
L127392 106815
L127335 106787
L127221 106758
L127164 106730
L127135 106701
L127107 106644
L127107 106587
L127135 106530
L127164 106501
L127221 106472
L127364 106472
L127450 106501
" />
<path d="M127907 106758
L127992 106787
L128021 106815
L128050 106872
L128050 106958
L128021 107015
L127992 107044
L127935 107072
L127707 107072
L127707 106472
L127907 106472
L127964 106501
L127992 106530
L128021 106587
L128021 106644
L127992 106701
L127964 106730
L127907 106758
L127707 106758
" />
<path d="M128307 107072
L128307 106672
" />
<path d="M128307 106472
L128278 106501
L128307 106530
L128335 106501
L128307 106472
L128307 106530
" />
<path d="M128592 107072
L128592 106472
L128735 106472
L128821 106501
L128878 106558
L128907 106615
L128935 106730
L128935 106815
L128907 106930
L128878 106987
L128821 107044
L128735 107072
L128592 107072
" />
<path d="M129192 107072
L129192 106672
" />
<path d="M129192 106472
L129164 106501
L129192 106530
L129221 106501
L129192 106472
L129192 106530
" />
<path d="M129478 107072
L129478 106672
" />
<path d="M129478 106787
L129507 106730
L129535 106701
L129592 106672
L129650 106672
" />
<path d="M129850 106844
L130307 106844
" />
<path d="M130592 106672
L130592 107072
" />
<path d="M130592 106730
L130621 106701
L130678 106672
L130764 106672
L130821 106701
L130850 106758
L130850 107072
" />
<path d="M131221 107072
L131164 107044
L131135 107015
L131107 106958
L131107 106787
L131135 106730
L131164 106701
L131221 106672
L131307 106672
L131364 106701
L131392 106730
L131421 106787
L131421 106958
L131392 107015
L131364 107044
L131307 107072
L131221 107072
" />
<path d="M132021 107015
L131992 107044
L131907 107072
L131850 107072
L131764 107044
L131707 106987
L131678 106930
L131650 106815
L131650 106730
L131678 106615
L131707 106558
L131764 106501
L131850 106472
L131907 106472
L131992 106501
L132021 106530
" />
<path d="M132250 106901
L132535 106901
" />
<path d="M132192 107072
L132392 106472
L132592 107072
" />
<path d="M132792 107072
L132792 106472
L133135 107072
L133135 106472
" />
<path d="M133392 107044
L133478 107072
L133621 107072
L133678 107044
L133707 107015
L133735 106958
L133735 106901
L133707 106844
L133678 106815
L133621 106787
L133507 106758
L133450 106730
L133421 106701
L133392 106644
L133392 106587
L133421 106530
L133450 106501
L133507 106472
L133650 106472
L133735 106501
" />
<path d="M134078 107072
L134021 107044
L133992 106987
L133992 106472
" />
<path d="M134564 107072
L134564 106758
L134535 106701
L134478 106672
L134364 106672
L134307 106701
" />
<path d="M134564 107044
L134507 107072
L134364 107072
L134307 107044
L134278 106987
L134278 106930
L134307 106872
L134364 106844
L134507 106844
L134564 106815
" />
<path d="M134792 106672
L134935 107072
L135078 106672
" />
<path d="M135535 107044
L135478 107072
L135364 107072
L135307 107044
L135278 106987
L135278 106758
L135307 106701
L135364 106672
L135478 106672
L135535 106701
L135564 106758
L135564 106815
L135278 106872
" />
<path d="M135821 107015
L135850 107044
L135821 107072
L135792 107044
L135821 107015
L135821 107072
" />
<path d="M136107 107072
L136107 106472
" />
<path d="M136164 106844
L136335 107072
" />
<path d="M136335 106672
L136107 106901
" />
<path d="M136592 107072
L136592 106672
" />
<path d="M136592 106472
L136564 106501
L136592 106530
L136621 106501
L136592 106472
L136592 106530
" />
<path d="M137135 107044
L137078 107072
L136964 107072
L136907 107044
L136878 107015
L136850 106958
L136850 106787
L136878 106730
L136907 106701
L136964 106672
L137078 106672
L137135 106701
" />
<path d="M137650 107072
L137650 106758
L137621 106701
L137564 106672
L137450 106672
L137392 106701
" />
<path d="M137650 107044
L137592 107072
L137450 107072
L137392 107044
L137364 106987
L137364 106930
L137392 106872
L137450 106844
L137592 106844
L137650 106815
" />
<path d="M138192 107072
L138192 106472
" />
<path d="M138192 107044
L138135 107072
L138021 107072
L137964 107044
L137935 107015
L137907 106958
L137907 106787
L137935 106730
L137964 106701
L138021 106672
L138135 106672
L138192 106701
" />
<path d="M138335 107130
L138792 107130
" />
<path d="M138935 106672
L138935 107272
" />
<path d="M138935 106701
L138992 106672
L139107 106672
L139164 106701
L139192 106730
L139221 106787
L139221 106958
L139192 107015
L139164 107044
L139107 107072
L138992 107072
L138935 107044
" />
<path d="M139735 107044
L139678 107072
L139564 107072
L139507 107044
L139478 107015
L139450 106958
L139450 106787
L139478 106730
L139507 106701
L139564 106672
L139678 106672
L139735 106701
" />
<path d="M139992 107072
L139992 106472
" />
<path d="M139992 106701
L140050 106672
L140164 106672
L140221 106701
L140250 106730
L140278 106787
L140278 106958
L140250 107015
L140221 107044
L140164 107072
L140050 107072
L139992 107044
" />
<path d="M119364 108244
L119450 108272
L119592 108272
L119650 108244
L119678 108215
L119707 108158
L119707 108101
L119678 108044
L119650 108015
L119592 107987
L119478 107958
L119421 107930
L119392 107901
L119364 107844
L119364 107787
L119392 107730
L119421 107701
L119478 107672
L119621 107672
L119707 107701
" />
<path d="M119964 108272
L119964 107672
" />
<path d="M120221 108272
L120221 107958
L120192 107901
L120135 107872
L120050 107872
L119992 107901
L119964 107930
" />
<path d="M120735 108244
L120678 108272
L120564 108272
L120507 108244
L120478 108187
L120478 107958
L120507 107901
L120564 107872
L120678 107872
L120735 107901
L120764 107958
L120764 108015
L120478 108072
" />
<path d="M121250 108244
L121192 108272
L121078 108272
L121021 108244
L120992 108187
L120992 107958
L121021 107901
L121078 107872
L121192 107872
L121250 107901
L121278 107958
L121278 108015
L120992 108072
" />
<path d="M121450 107872
L121678 107872
" />
<path d="M121535 107672
L121535 108187
L121564 108244
L121621 108272
L121678 108272
" />
<path d="M121878 108215
L121907 108244
L121878 108272
L121850 108244
L121878 108215
L121878 108272
" />
<path d="M121878 107901
L121907 107930
L121878 107958
L121850 107930
L121878 107901
L121878 107958
" />
<path d="M118650 106230
L118650 112230
" />
<path d="M118650 106230
L160650 106230
" />
<path d="M118650 106230
L160650 106230
" />
<path d="M118650 108630
L160650 108630
" />
<path d="M151850 109830
L151850 112230
" />
<path d="M118650 111030
L160650 111030
" />
<path d="M118650 109830
L160650 109830
" />
<path d="M125250 109830
L125250 111030
" />
</g>
<g style="fill:#FFFF00; fill-opacity:0.0; 
stroke:#FFFF00; stroke-width:39.3701; stroke-opacity:1; 
stroke-linecap:round; stroke-linejoin:round;">
<path d="M69000 77500
L33000 77500
" />
<path d="M69000 45000
L69000 77500
" />
<path d="M33000 45000
L69000 45000
" />
<path d="M33000 77500
L33000 45000
" />
</g>
<g style="fill:#00A0A0; fill-opacity:0.0; 
stroke:#00A0A0; stroke-width:80; stroke-opacity:1; 
stroke-linecap:round; stroke-linejoin:round;">
<path d="M33280 67158
L33261 67191
L33261 67241
L33280 67291
L33319 67324
L33357 67341
L33433 67358
L33490 67358
L33566 67341
L33604 67324
L33642 67291
L33661 67241
L33661 67208
L33642 67158
L33623 67141
L33490 67141
L33490 67208
" />
<path d="M33661 66991
L33261 66991
L33661 66791
L33261 66791
" />
<path d="M33661 66624
L33261 66624
L33261 66541
L33280 66491
L33319 66458
L33357 66441
L33433 66424
L33490 66424
L33566 66441
L33604 66458
L33642 66491
L33661 66541
L33661 66624
" />
<path d="M33452 66008
L33452 65891
" />
<path d="M33661 65841
L33661 66008
L33261 66008
L33261 65841
" />
<path d="M33280 65508
L33261 65541
L33261 65591
L33280 65641
L33319 65674
L33357 65691
L33433 65708
L33490 65708
L33566 65691
L33604 65674
L33642 65641
L33661 65591
L33661 65558
L33642 65508
L33623 65491
L33490 65491
L33490 65558
" />
<path d="M33452 65074
L33452 64958
" />
<path d="M33661 64908
L33661 65074
L33261 65074
L33261 64908
" />
<path d="M33471 64691
L33661 64691
" />
<path d="M33261 64808
L33471 64691
L33261 64575
" />
<path d="M33452 64191
L33452 64075
" />
<path d="M33661 64025
L33661 64191
L33261 64191
L33261 64025
" />
<path d="M33661 63675
L33471 63791
" />
<path d="M33661 63875
L33261 63875
L33261 63741
L33280 63708
L33300 63691
L33338 63675
L33395 63675
L33433 63691
L33452 63708
L33471 63741
L33471 63875
" />
<path d="M33261 63291
L33661 63208
L33376 63141
L33661 63075
L33261 62991
" />
<path d="M33280 62675
L33261 62708
L33261 62758
L33280 62808
L33319 62841
L33357 62858
L33433 62875
L33490 62875
L33566 62858
L33604 62841
L33642 62808
L33661 62758
L33661 62725
L33642 62675
L33623 62658
L33490 62658
L33490 62725
" />
<path d="M33261 62275
L33661 62191
L33376 62125
L33661 62058
L33261 61975
" />
<path d="M33471 61775
L33661 61775
" />
<path d="M33261 61891
L33471 61775
L33261 61658
" />
<path d="M33261 61308
L33661 61225
L33376 61158
L33661 61091
L33261 61008
" />
<path d="M33661 60675
L33471 60791
" />
<path d="M33661 60875
L33261 60875
L33261 60741
L33280 60708
L33300 60691
L33338 60675
L33395 60675
L33433 60691
L33452 60708
L33471 60741
L33471 60875
" />
<path d="M33509 60258
L33509 59991
" />
<path d="M33661 60125
L33357 60125
" />
<path d="M33261 59658
L33261 59825
L33452 59841
L33433 59825
L33414 59791
L33414 59708
L33433 59675
L33452 59658
L33490 59641
L33585 59641
L33623 59658
L33642 59675
L33661 59708
L33661 59791
L33642 59825
L33623 59841
" />
</g>
<g style="fill:#00A0A0; fill-opacity:0.0; 
stroke:#00A0A0; stroke-width:40; stroke-opacity:1; 
stroke-linecap:round; stroke-linejoin:round;">
<path d="M38276 61101
L38133 61101
" />
<path d="M38204 61101
L38204 60851
L38180 60886
L38157 60910
L38133 60922
" />
<path d="M38502 60851
L38383 60851
L38371 60970
L38383 60958
L38407 60946
L38466 60946
L38490 60958
L38502 60970
L38514 60994
L38514 61053
L38502 61077
L38490 61089
L38466 61101
L38407 61101
L38383 61089
L38371 61077
" />
<path d="M38669 60851
L38692 60851
L38716 60863
L38728 60875
L38740 60898
L38752 60946
L38752 61005
L38740 61053
L38728 61077
L38716 61089
L38692 61101
L38669 61101
L38645 61089
L38633 61077
L38621 61053
L38609 61005
L38609 60946
L38621 60898
L38633 60875
L38645 60863
L38669 60851
" />
<path d="M39097 60851
L39145 60851
L39169 60863
L39192 60886
L39204 60934
L39204 61017
L39192 61065
L39169 61089
L39145 61101
L39097 61101
L39073 61089
L39050 61065
L39038 61017
L39038 60934
L39050 60886
L39073 60863
L39097 60851
" />
<path d="M39311 61101
L39311 60851
" />
<path d="M39419 61101
L39419 60970
L39407 60946
L39383 60934
L39347 60934
L39323 60946
L39311 60958
" />
<path d="M39538 61101
L39538 60934
" />
<path d="M39538 60958
L39550 60946
L39573 60934
L39609 60934
L39633 60946
L39645 60970
L39645 61101
" />
<path d="M39645 60970
L39657 60946
L39680 60934
L39716 60934
L39740 60946
L39752 60970
L39752 61101
" />
<path d="M39859 61089
L39883 61101
L39930 61101
L39954 61089
L39966 61065
L39966 61053
L39954 61029
L39930 61017
L39895 61017
L39871 61005
L39859 60982
L39859 60970
L39871 60946
L39895 60934
L39930 60934
L39954 60946
" />
<path d="M39376 62201
L39233 62201
" />
<path d="M39304 62201
L39304 61951
L39280 61986
L39257 62010
L39233 62022
" />
<path d="M39602 61951
L39483 61951
L39471 62070
L39483 62058
L39507 62046
L39566 62046
L39590 62058
L39602 62070
L39614 62094
L39614 62153
L39602 62177
L39590 62189
L39566 62201
L39507 62201
L39483 62189
L39471 62177
" />
<path d="M39769 61951
L39792 61951
L39816 61963
L39828 61975
L39840 61998
L39852 62046
L39852 62105
L39840 62153
L39828 62177
L39816 62189
L39792 62201
L39769 62201
L39745 62189
L39733 62177
L39721 62153
L39709 62105
L39709 62046
L39721 61998
L39733 61975
L39745 61963
L39769 61951
" />
<path d="M40197 61951
L40245 61951
L40269 61963
L40292 61986
L40304 62034
L40304 62117
L40292 62165
L40269 62189
L40245 62201
L40197 62201
L40173 62189
L40150 62165
L40138 62117
L40138 62034
L40150 61986
L40173 61963
L40197 61951
" />
<path d="M40411 62201
L40411 61951
" />
<path d="M40519 62201
L40519 62070
L40507 62046
L40483 62034
L40447 62034
L40423 62046
L40411 62058
" />
<path d="M40638 62201
L40638 62034
" />
<path d="M40638 62058
L40650 62046
L40673 62034
L40709 62034
L40733 62046
L40745 62070
L40745 62201
" />
<path d="M40745 62070
L40757 62046
L40780 62034
L40816 62034
L40840 62046
L40852 62070
L40852 62201
" />
<path d="M40959 62189
L40983 62201
L41030 62201
L41054 62189
L41066 62165
L41066 62153
L41054 62129
L41030 62117
L40995 62117
L40971 62105
L40959 62082
L40959 62070
L40971 62046
L40995 62034
L41030 62034
L41054 62046
" />
<path d="M38226 63151
L38083 63151
" />
<path d="M38154 63151
L38154 62901
L38130 62936
L38107 62960
L38083 62972
" />
<path d="M38452 62901
L38333 62901
L38321 63020
L38333 63008
L38357 62996
L38416 62996
L38440 63008
L38452 63020
L38464 63044
L38464 63103
L38452 63127
L38440 63139
L38416 63151
L38357 63151
L38333 63139
L38321 63127
" />
<path d="M38619 62901
L38642 62901
L38666 62913
L38678 62925
L38690 62948
L38702 62996
L38702 63055
L38690 63103
L38678 63127
L38666 63139
L38642 63151
L38619 63151
L38595 63139
L38583 63127
L38571 63103
L38559 63055
L38559 62996
L38571 62948
L38583 62925
L38595 62913
L38619 62901
" />
<path d="M39047 62901
L39095 62901
L39119 62913
L39142 62936
L39154 62984
L39154 63067
L39142 63115
L39119 63139
L39095 63151
L39047 63151
L39023 63139
L39000 63115
L38988 63067
L38988 62984
L39000 62936
L39023 62913
L39047 62901
" />
<path d="M39261 63151
L39261 62901
" />
<path d="M39369 63151
L39369 63020
L39357 62996
L39333 62984
L39297 62984
L39273 62996
L39261 63008
" />
<path d="M39488 63151
L39488 62984
" />
<path d="M39488 63008
L39500 62996
L39523 62984
L39559 62984
L39583 62996
L39595 63020
L39595 63151
" />
<path d="M39595 63020
L39607 62996
L39630 62984
L39666 62984
L39690 62996
L39702 63020
L39702 63151
" />
<path d="M39809 63139
L39833 63151
L39880 63151
L39904 63139
L39916 63115
L39916 63103
L39904 63079
L39880 63067
L39845 63067
L39821 63055
L39809 63032
L39809 63020
L39821 62996
L39845 62984
L39880 62984
L39904 62996
" />
<path d="M39226 64101
L39083 64101
" />
<path d="M39154 64101
L39154 63851
L39130 63886
L39107 63910
L39083 63922
" />
<path d="M39452 63851
L39333 63851
L39321 63970
L39333 63958
L39357 63946
L39416 63946
L39440 63958
L39452 63970
L39464 63994
L39464 64053
L39452 64077
L39440 64089
L39416 64101
L39357 64101
L39333 64089
L39321 64077
" />
<path d="M39619 63851
L39642 63851
L39666 63863
L39678 63875
L39690 63898
L39702 63946
L39702 64005
L39690 64053
L39678 64077
L39666 64089
L39642 64101
L39619 64101
L39595 64089
L39583 64077
L39571 64053
L39559 64005
L39559 63946
L39571 63898
L39583 63875
L39595 63863
L39619 63851
" />
<path d="M40047 63851
L40095 63851
L40119 63863
L40142 63886
L40154 63934
L40154 64017
L40142 64065
L40119 64089
L40095 64101
L40047 64101
L40023 64089
L40000 64065
L39988 64017
L39988 63934
L40000 63886
L40023 63863
L40047 63851
" />
<path d="M40261 64101
L40261 63851
" />
<path d="M40369 64101
L40369 63970
L40357 63946
L40333 63934
L40297 63934
L40273 63946
L40261 63958
" />
<path d="M40488 64101
L40488 63934
" />
<path d="M40488 63958
L40500 63946
L40523 63934
L40559 63934
L40583 63946
L40595 63970
L40595 64101
" />
<path d="M40595 63970
L40607 63946
L40630 63934
L40666 63934
L40690 63946
L40702 63970
L40702 64101
" />
<path d="M40809 64089
L40833 64101
L40880 64101
L40904 64089
L40916 64065
L40916 64053
L40904 64029
L40880 64017
L40845 64017
L40821 64005
L40809 63982
L40809 63970
L40821 63946
L40845 63934
L40880 63934
L40904 63946
" />
<path d="M38326 65201
L38183 65201
" />
<path d="M38254 65201
L38254 64951
L38230 64986
L38207 65010
L38183 65022
" />
<path d="M38552 64951
L38433 64951
L38421 65070
L38433 65058
L38457 65046
L38516 65046
L38540 65058
L38552 65070
L38564 65094
L38564 65153
L38552 65177
L38540 65189
L38516 65201
L38457 65201
L38433 65189
L38421 65177
" />
<path d="M38719 64951
L38742 64951
L38766 64963
L38778 64975
L38790 64998
L38802 65046
L38802 65105
L38790 65153
L38778 65177
L38766 65189
L38742 65201
L38719 65201
L38695 65189
L38683 65177
L38671 65153
L38659 65105
L38659 65046
L38671 64998
L38683 64975
L38695 64963
L38719 64951
" />
<path d="M39147 64951
L39195 64951
L39219 64963
L39242 64986
L39254 65034
L39254 65117
L39242 65165
L39219 65189
L39195 65201
L39147 65201
L39123 65189
L39100 65165
L39088 65117
L39088 65034
L39100 64986
L39123 64963
L39147 64951
" />
<path d="M39361 65201
L39361 64951
" />
<path d="M39469 65201
L39469 65070
L39457 65046
L39433 65034
L39397 65034
L39373 65046
L39361 65058
" />
<path d="M39588 65201
L39588 65034
" />
<path d="M39588 65058
L39600 65046
L39623 65034
L39659 65034
L39683 65046
L39695 65070
L39695 65201
" />
<path d="M39695 65070
L39707 65046
L39730 65034
L39766 65034
L39790 65046
L39802 65070
L39802 65201
" />
<path d="M39909 65189
L39933 65201
L39980 65201
L40004 65189
L40016 65165
L40016 65153
L40004 65129
L39980 65117
L39945 65117
L39921 65105
L39909 65082
L39909 65070
L39921 65046
L39945 65034
L39980 65034
L40004 65046
" />
<path d="M39276 66101
L39133 66101
" />
<path d="M39204 66101
L39204 65851
L39180 65886
L39157 65910
L39133 65922
" />
<path d="M39502 65851
L39383 65851
L39371 65970
L39383 65958
L39407 65946
L39466 65946
L39490 65958
L39502 65970
L39514 65994
L39514 66053
L39502 66077
L39490 66089
L39466 66101
L39407 66101
L39383 66089
L39371 66077
" />
<path d="M39669 65851
L39692 65851
L39716 65863
L39728 65875
L39740 65898
L39752 65946
L39752 66005
L39740 66053
L39728 66077
L39716 66089
L39692 66101
L39669 66101
L39645 66089
L39633 66077
L39621 66053
L39609 66005
L39609 65946
L39621 65898
L39633 65875
L39645 65863
L39669 65851
" />
<path d="M40097 65851
L40145 65851
L40169 65863
L40192 65886
L40204 65934
L40204 66017
L40192 66065
L40169 66089
L40145 66101
L40097 66101
L40073 66089
L40050 66065
L40038 66017
L40038 65934
L40050 65886
L40073 65863
L40097 65851
" />
<path d="M40311 66101
L40311 65851
" />
<path d="M40419 66101
L40419 65970
L40407 65946
L40383 65934
L40347 65934
L40323 65946
L40311 65958
" />
<path d="M40538 66101
L40538 65934
" />
<path d="M40538 65958
L40550 65946
L40573 65934
L40609 65934
L40633 65946
L40645 65970
L40645 66101
" />
<path d="M40645 65970
L40657 65946
L40680 65934
L40716 65934
L40740 65946
L40752 65970
L40752 66101
" />
<path d="M40859 66089
L40883 66101
L40930 66101
L40954 66089
L40966 66065
L40966 66053
L40954 66029
L40930 66017
L40895 66017
L40871 66005
L40859 65982
L40859 65970
L40871 65946
L40895 65934
L40930 65934
L40954 65946
" />
<path d="M47170 51151
L47027 51151
" />
<path d="M47098 51151
L47098 50901
L47075 50936
L47051 50960
L47027 50972
" />
<path d="M47325 50901
L47348 50901
L47372 50913
L47384 50925
L47396 50948
L47408 50996
L47408 51055
L47396 51103
L47384 51127
L47372 51139
L47348 51151
L47325 51151
L47301 51139
L47289 51127
L47277 51103
L47265 51055
L47265 50996
L47277 50948
L47289 50925
L47301 50913
L47325 50901
" />
<path d="M47515 51151
L47515 50901
" />
<path d="M47658 51151
L47551 51008
" />
<path d="M47658 50901
L47515 51044
" />
<path d="M48003 50901
L48051 50901
L48075 50913
L48098 50936
L48110 50984
L48110 51067
L48098 51115
L48075 51139
L48051 51151
L48003 51151
L47979 51139
L47955 51115
L47944 51067
L47944 50984
L47955 50936
L47979 50913
L48003 50901
" />
<path d="M48217 51151
L48217 50901
" />
<path d="M48325 51151
L48325 51020
L48313 50996
L48289 50984
L48253 50984
L48229 50996
L48217 51008
" />
<path d="M48444 51151
L48444 50984
" />
<path d="M48444 51008
L48455 50996
L48479 50984
L48515 50984
L48539 50996
L48551 51020
L48551 51151
" />
<path d="M48551 51020
L48563 50996
L48586 50984
L48622 50984
L48646 50996
L48658 51020
L48658 51151
" />
<path d="M48765 51139
L48789 51151
L48836 51151
L48860 51139
L48872 51115
L48872 51103
L48860 51079
L48836 51067
L48801 51067
L48777 51055
L48765 51032
L48765 51020
L48777 50996
L48801 50984
L48836 50984
L48860 50996
" />
<path d="M42345 49751
L42202 49751
" />
<path d="M42273 49751
L42273 49501
L42250 49536
L42226 49560
L42202 49572
" />
<path d="M42500 49501
L42523 49501
L42547 49513
L42559 49525
L42571 49548
L42583 49596
L42583 49655
L42571 49703
L42559 49727
L42547 49739
L42523 49751
L42500 49751
L42476 49739
L42464 49727
L42452 49703
L42440 49655
L42440 49596
L42452 49548
L42464 49525
L42476 49513
L42500 49501
" />
<path d="M42928 49501
L42976 49501
L43000 49513
L43023 49536
L43035 49584
L43035 49667
L43023 49715
L43000 49739
L42976 49751
L42928 49751
L42904 49739
L42880 49715
L42869 49667
L42869 49584
L42880 49536
L42904 49513
L42928 49501
" />
<path d="M43142 49751
L43142 49501
" />
<path d="M43250 49751
L43250 49620
L43238 49596
L43214 49584
L43178 49584
L43154 49596
L43142 49608
" />
<path d="M43369 49751
L43369 49584
" />
<path d="M43369 49608
L43380 49596
L43404 49584
L43440 49584
L43464 49596
L43476 49620
L43476 49751
" />
<path d="M43476 49620
L43488 49596
L43511 49584
L43547 49584
L43571 49596
L43583 49620
L43583 49751
" />
<path d="M43690 49739
L43714 49751
L43761 49751
L43785 49739
L43797 49715
L43797 49703
L43785 49679
L43761 49667
L43726 49667
L43702 49655
L43690 49632
L43690 49620
L43702 49596
L43726 49584
L43761 49584
L43785 49596
" />
</g>
<g style="fill:#00A0A0; fill-opacity:0.0; 
stroke:#00A0A0; stroke-width:80; stroke-opacity:1; 
stroke-linecap:round; stroke-linejoin:round;">
<path d="M50366 76047
L50557 76047
" />
<path d="M50328 76161
L50461 75761
L50595 76161
" />
<path d="M50861 75952
L50919 75971
L50938 75990
L50957 76028
L50957 76085
L50938 76123
L50919 76142
L50880 76161
L50728 76161
L50728 75761
L50861 75761
L50900 75780
L50919 75800
L50938 75838
L50938 75876
L50919 75914
L50900 75933
L50861 75952
L50728 75952
" />
<path d="M51109 76142
L51166 76161
L51261 76161
L51300 76142
L51319 76123
L51338 76085
L51338 76047
L51319 76009
L51300 75990
L51261 75971
L51185 75952
L51147 75933
L51128 75914
L51109 75876
L51109 75838
L51128 75800
L51147 75780
L51185 75761
L51280 75761
L51338 75780
" />
<path d="M51795 76142
L51852 76161
L51947 76161
L51985 76142
L52004 76123
L52023 76085
L52023 76047
L52004 76009
L51985 75990
L51947 75971
L51871 75952
L51833 75933
L51814 75914
L51795 75876
L51795 75838
L51814 75800
L51833 75780
L51871 75761
L51966 75761
L52023 75780
" />
<path d="M52252 76161
L52214 76142
L52195 76104
L52195 75761
" />
<path d="M52576 76161
L52576 75952
L52557 75914
L52519 75895
L52442 75895
L52404 75914
" />
<path d="M52576 76142
L52538 76161
L52442 76161
L52404 76142
L52385 76104
L52385 76066
L52404 76028
L52442 76009
L52538 76009
L52576 75990
" />
<path d="M52728 75895
L52823 76161
L52919 75895
" />
<path d="M53223 76142
L53185 76161
L53109 76161
L53071 76142
L53052 76104
L53052 75952
L53071 75914
L53109 75895
L53185 75895
L53223 75914
L53242 75952
L53242 75990
L53052 76028
" />
<path d="M53852 75952
L53909 75971
L53928 75990
L53947 76028
L53947 76085
L53928 76123
L53909 76142
L53871 76161
L53719 76161
L53719 75761
L53852 75761
L53890 75780
L53909 75800
L53928 75838
L53928 75876
L53909 75914
L53890 75933
L53852 75952
L53719 75952
" />
<path d="M54290 75895
L54290 76161
" />
<path d="M54119 75895
L54119 76104
L54138 76142
L54176 76161
L54233 76161
L54271 76142
L54290 76123
" />
<path d="M54461 76142
L54500 76161
L54576 76161
L54614 76142
L54633 76104
L54633 76085
L54614 76047
L54576 76028
L54519 76028
L54480 76009
L54461 75971
L54461 75952
L54480 75914
L54519 75895
L54576 75895
L54614 75914
" />
<path d="M50366 74047
L50557 74047
" />
<path d="M50328 74161
L50461 73761
L50595 74161
" />
<path d="M50861 73952
L50919 73971
L50938 73990
L50957 74028
L50957 74085
L50938 74123
L50919 74142
L50880 74161
L50728 74161
L50728 73761
L50861 73761
L50900 73780
L50919 73800
L50938 73838
L50938 73876
L50919 73914
L50900 73933
L50861 73952
L50728 73952
" />
<path d="M51109 74142
L51166 74161
L51261 74161
L51300 74142
L51319 74123
L51338 74085
L51338 74047
L51319 74009
L51300 73990
L51261 73971
L51185 73952
L51147 73933
L51128 73914
L51109 73876
L51109 73838
L51128 73800
L51147 73780
L51185 73761
L51280 73761
L51338 73780
" />
<path d="M51795 74142
L51852 74161
L51947 74161
L51985 74142
L52004 74123
L52023 74085
L52023 74047
L52004 74009
L51985 73990
L51947 73971
L51871 73952
L51833 73933
L51814 73914
L51795 73876
L51795 73838
L51814 73800
L51833 73780
L51871 73761
L51966 73761
L52023 73780
" />
<path d="M52252 74161
L52214 74142
L52195 74104
L52195 73761
" />
<path d="M52576 74161
L52576 73952
L52557 73914
L52519 73895
L52442 73895
L52404 73914
" />
<path d="M52576 74142
L52538 74161
L52442 74161
L52404 74142
L52385 74104
L52385 74066
L52404 74028
L52442 74009
L52538 74009
L52576 73990
" />
<path d="M52728 73895
L52823 74161
L52919 73895
" />
<path d="M53223 74142
L53185 74161
L53109 74161
L53071 74142
L53052 74104
L53052 73952
L53071 73914
L53109 73895
L53185 73895
L53223 73914
L53242 73952
L53242 73990
L53052 74028
" />
<path d="M53852 73952
L53909 73971
L53928 73990
L53947 74028
L53947 74085
L53928 74123
L53909 74142
L53871 74161
L53719 74161
L53719 73761
L53852 73761
L53890 73780
L53909 73800
L53928 73838
L53928 73876
L53909 73914
L53890 73933
L53852 73952
L53719 73952
" />
<path d="M54290 73895
L54290 74161
" />
<path d="M54119 73895
L54119 74104
L54138 74142
L54176 74161
L54233 74161
L54271 74142
L54290 74123
" />
<path d="M54461 74142
L54500 74161
L54576 74161
L54614 74142
L54633 74104
L54633 74085
L54614 74047
L54576 74028
L54519 74028
L54480 74009
L54461 73971
L54461 73952
L54480 73914
L54519 73895
L54576 73895
L54614 73914
" />
<path d="M68661 57902
L68261 57902
L68661 57673
L68261 57673
" />
<path d="M68642 57330
L68661 57369
L68661 57445
L68642 57483
L68604 57502
L68452 57502
L68414 57483
L68395 57445
L68395 57369
L68414 57330
L68452 57311
L68490 57311
L68528 57502
" />
<path d="M68661 57178
L68395 56969
" />
<path d="M68395 57178
L68661 56969
" />
<path d="M68395 56873
L68395 56721
" />
<path d="M68261 56816
L68604 56816
L68642 56797
L68661 56759
L68661 56721
" />
<path d="M68452 56283
L68452 56150
" />
<path d="M68661 56092
L68661 56283
L68261 56283
L68261 56092
" />
<path d="M68661 55750
L68452 55750
L68414 55769
L68395 55807
L68395 55883
L68414 55921
" />
<path d="M68642 55750
L68661 55788
L68661 55883
L68642 55921
L68604 55940
L68566 55940
L68528 55921
L68509 55883
L68509 55788
L68490 55750
" />
<path d="M68642 55578
L68661 55540
L68661 55464
L68642 55426
L68604 55407
L68585 55407
L68547 55426
L68528 55464
L68528 55521
L68509 55559
L68471 55578
L68452 55578
L68414 55559
L68395 55521
L68395 55464
L68414 55426
" />
<path d="M68395 55292
L68395 55140
" />
<path d="M68261 55235
L68604 55235
L68642 55216
L68661 55178
L68661 55140
" />
<path d="M68661 62390
L68261 62390
L68661 62161
L68261 62161
" />
<path d="M68642 61819
L68661 61857
L68661 61933
L68642 61971
L68604 61990
L68452 61990
L68414 61971
L68395 61933
L68395 61857
L68414 61819
L68452 61799
L68490 61799
L68528 61990
" />
<path d="M68661 61666
L68395 61457
" />
<path d="M68395 61666
L68661 61457
" />
<path d="M68395 61361
L68395 61209
" />
<path d="M68261 61304
L68604 61304
L68642 61285
L68661 61247
L68661 61209
" />
<path d="M68261 60809
L68661 60714
L68376 60638
L68661 60561
L68261 60466
" />
<path d="M68642 60161
L68661 60200
L68661 60276
L68642 60314
L68604 60333
L68452 60333
L68414 60314
L68395 60276
L68395 60200
L68414 60161
L68452 60142
L68490 60142
L68528 60333
" />
<path d="M68642 59990
L68661 59952
L68661 59876
L68642 59838
L68604 59819
L68585 59819
L68547 59838
L68528 59876
L68528 59933
L68509 59971
L68471 59990
L68452 59990
L68414 59971
L68395 59933
L68395 59876
L68414 59838
" />
<path d="M68395 59704
L68395 59552
" />
<path d="M68261 59647
L68604 59647
L68642 59628
L68661 59590
L68661 59552
" />
</g>
<g style="fill:#00A0A0; fill-opacity:0.0; 
stroke:#00A0A0; stroke-width:120; stroke-opacity:1; 
stroke-linecap:round; stroke-linejoin:round;">
<path d="M37542 56671
L36942 56671
" />
<path d="M37142 56385
L37542 56385
" />
<path d="M37200 56385
L37171 56357
L37142 56300
L37142 56214
L37171 56157
L37228 56128
L37542 56128
" />
<path d="M36942 55471
L36942 55128
" />
<path d="M37542 55300
L36942 55300
" />
<path d="M37542 54928
L37142 54928
" />
<path d="M37257 54928
L37200 54899
L37171 54871
L37142 54814
L37142 54757
" />
<path d="M37542 54299
L37228 54299
L37171 54328
L37142 54385
L37142 54499
L37171 54557
" />
<path d="M37514 54299
L37542 54357
L37542 54499
L37514 54557
L37457 54585
L37400 54585
L37342 54557
L37314 54499
L37314 54357
L37285 54299
" />
<path d="M37514 53757
L37542 53814
L37542 53928
L37514 53985
L37485 54014
L37428 54042
L37257 54042
L37200 54014
L37171 53985
L37142 53928
L37142 53814
L37171 53757
" />
<path d="M37542 53499
L36942 53499
" />
<path d="M37314 53442
L37542 53271
" />
<path d="M37142 53271
L37371 53499
" />
<path d="M36942 52442
L36942 52328
L36971 52271
L37028 52214
L37142 52185
L37342 52185
L37457 52214
L37514 52271
L37542 52328
L37542 52442
L37514 52499
L37457 52557
L37342 52585
L37142 52585
L37028 52557
L36971 52499
L36942 52442
" />
<path d="M37142 51671
L37542 51671
" />
<path d="M37142 51928
L37457 51928
L37514 51899
L37542 51842
L37542 51757
L37514 51699
L37485 51671
" />
<path d="M37142 51471
L37142 51242
" />
<path d="M36942 51385
L37457 51385
L37514 51357
L37542 51300
L37542 51242
" />
</g>
<g style="fill:#00A0A0; fill-opacity:0.0; 
stroke:#00A0A0; stroke-width:59.0551; stroke-opacity:1; 
stroke-linecap:round; stroke-linejoin:round;">
<path d="M54588 58839
L54907 58839
L54944 58820
L54963 58801
L54982 58764
L54982 58689
L54963 58651
L54944 58633
L54907 58614
L54588 58614
" />
<path d="M54982 58220
L54982 58445
" />
<path d="M54982 58333
L54588 58333
L54644 58370
L54682 58408
L54700 58445
" />
<path d="M51005 59981
L50612 59981
L50893 59849
L50612 59718
L51005 59718
" />
<path d="M50799 59531
L50799 59399
" />
<path d="M51005 59343
L51005 59531
L50612 59531
L50612 59343
" />
<path d="M50612 59231
L50612 59006
" />
<path d="M51005 59118
L50612 59118
" />
<path d="M51005 58649
L50818 58781
" />
<path d="M51005 58874
L50612 58874
L50612 58724
L50630 58687
L50649 58668
L50687 58649
L50743 58649
L50780 58668
L50799 58687
L50818 58724
L50818 58874
" />
<path d="M50612 58406
L50612 58331
L50630 58293
L50668 58256
L50743 58237
L50874 58237
L50949 58256
L50987 58293
L51005 58331
L51005 58406
L50987 58443
L50949 58481
L50874 58499
L50743 58499
L50668 58481
L50630 58443
L50612 58406
" />
<path d="M51005 58068
L50612 58068
L50893 57937
L50612 57806
L51005 57806
" />
<path d="M51005 57618
L50612 57618
" />
<path d="M51005 57431
L50612 57431
L51005 57206
L50612 57206
" />
<path d="M51005 57018
L50612 57018
" />
<path d="M38242 56574
L37848 56574
L37848 56480
L37867 56424
L37904 56386
L37942 56367
L38017 56349
L38073 56349
L38148 56367
L38185 56386
L38223 56424
L38242 56480
L38242 56574
" />
<path d="M38242 55974
L38242 56199
" />
<path d="M38242 56086
L37848 56086
L37904 56124
L37942 56161
L37960 56199
" />
<path d="M38075 52905
L38093 52848
L38112 52830
L38150 52811
L38206 52811
L38243 52830
L38262 52848
L38281 52886
L38281 53036
L37887 53036
L37887 52905
L37906 52867
L37925 52848
L37962 52830
L38000 52830
L38037 52848
L38056 52867
L38075 52905
L38075 53036
" />
<path d="M38281 52417
L38093 52548
" />
<path d="M38281 52642
L37887 52642
L37887 52492
L37906 52455
L37925 52436
L37962 52417
L38018 52417
L38056 52436
L38075 52455
L38093 52492
L38093 52642
" />
<path d="M38281 52248
L37887 52248
" />
<path d="M38281 52061
L37887 52061
L37887 51967
L37906 51911
L37943 51874
L37981 51855
L38056 51836
L38112 51836
L38187 51855
L38225 51874
L38262 51911
L38281 51967
L38281 52061
" />
<path d="M37906 51461
L37887 51499
L37887 51555
L37906 51611
L37943 51649
L37981 51667
L38056 51686
L38112 51686
L38187 51667
L38225 51649
L38262 51611
L38281 51555
L38281 51517
L38262 51461
L38243 51442
L38112 51442
L38112 51517
" />
<path d="M38075 51274
L38075 51142
" />
<path d="M38281 51086
L38281 51274
L37887 51274
L37887 51086
" />
<path d="M38641 54329
L38641 54142
" />
<path d="M38753 54367
L38360 54236
L38753 54104
" />
<path d="M38716 53748
L38735 53767
L38753 53823
L38753 53861
L38735 53917
L38697 53955
L38660 53973
L38585 53992
L38528 53992
L38453 53973
L38416 53955
L38378 53917
L38360 53861
L38360 53823
L38378 53767
L38397 53748
" />
<path d="M38564 57181
L38564 56881
" />
<path d="M38603 51118
L38603 50818
" />
<path d="M38753 50968
L38453 50968
" />
</g>
<g style="fill:#00A0A0; fill-opacity:0.0; 
stroke:#00A0A0; stroke-width:80; stroke-opacity:1; 
stroke-linecap:round; stroke-linejoin:round;">
<path d="M39661 70295
L39261 70295
L39261 70199
L39280 70142
L39319 70104
L39357 70085
L39433 70066
L39490 70066
L39566 70085
L39604 70104
L39642 70142
L39661 70199
L39661 70295
" />
<path d="M39300 69914
L39280 69895
L39261 69857
L39261 69761
L39280 69723
L39300 69704
L39338 69685
L39376 69685
L39433 69704
L39661 69933
L39661 69685
" />
<path d="M44560 51202
L44560 50702
" />
<path d="M45032 51154
L45010 51178
L44946 51202
L44903 51202
L44839 51178
L44796 51130
L44775 51083
L44753 50988
L44753 50916
L44775 50821
L44796 50773
L44839 50726
L44903 50702
L44946 50702
L45010 50726
L45032 50750
" />
<path d="M45460 51202
L45203 51202
" />
<path d="M45332 51202
L45332 50702
L45289 50773
L45246 50821
L45203 50845
" />
<path d="M45202 54385
L44702 54385
L45059 54252
L44702 54119
L45202 54119
" />
<path d="M45154 53700
L45178 53719
L45202 53776
L45202 53814
L45178 53871
L45130 53909
L45083 53928
L44988 53947
L44916 53947
L44821 53928
L44773 53909
L44726 53871
L44702 53814
L44702 53776
L44726 53719
L44750 53700
" />
<path d="M44702 53585
L44702 53357
" />
<path d="M45202 53471
L44702 53471
" />
<path d="M44702 53052
L44702 53128
L44726 53166
L44750 53185
L44821 53223
L44916 53242
L45107 53242
L45154 53223
L45178 53204
L45202 53166
L45202 53090
L45178 53052
L45154 53033
L45107 53014
L44988 53014
L44940 53033
L44916 53052
L44892 53090
L44892 53166
L44916 53204
L44940 53223
L44988 53242
" />
<path d="M45202 52842
L44702 52842
" />
<path d="M44940 52842
L44940 52614
" />
<path d="M45202 52614
L44702 52614
" />
<path d="M55202 69842
L55607 69842
L55654 69821
L55678 69800
L55702 69757
L55702 69671
L55678 69628
L55654 69607
L55607 69585
L55202 69585
" />
<path d="M55250 69392
L55226 69371
L55202 69328
L55202 69221
L55226 69178
L55250 69157
L55297 69135
L55345 69135
L55416 69157
L55702 69414
L55702 69135
" />
<path d="M51161 69678
L51219 69702
L51314 69702
L51352 69678
L51371 69654
L51390 69607
L51390 69559
L51371 69511
L51352 69488
L51314 69464
L51238 69440
L51200 69416
L51180 69392
L51161 69345
L51161 69297
L51180 69250
L51200 69226
L51238 69202
L51333 69202
L51390 69226
" />
<path d="M51561 69702
L51561 69202
L51790 69702
L51790 69202
" />
<path d="M51942 69202
L52209 69202
L52038 69702
" />
<path d="M52552 69202
L52361 69202
L52342 69440
L52361 69416
L52400 69392
L52495 69392
L52533 69416
L52552 69440
L52571 69488
L52571 69607
L52552 69654
L52533 69678
L52495 69702
L52400 69702
L52361 69678
L52342 69654
" />
<path d="M52933 69702
L52742 69702
L52742 69202
" />
<path d="M53200 69440
L53257 69464
L53276 69488
L53295 69535
L53295 69607
L53276 69654
L53257 69678
L53219 69702
L53066 69702
L53066 69202
L53200 69202
L53238 69226
L53257 69250
L53276 69297
L53276 69345
L53257 69392
L53238 69416
L53200 69440
L53066 69440
" />
<path d="M53695 69654
L53676 69678
L53619 69702
L53580 69702
L53523 69678
L53485 69630
L53466 69583
L53447 69488
L53447 69416
L53466 69321
L53485 69273
L53523 69226
L53580 69202
L53619 69202
L53676 69226
L53695 69250
" />
<path d="M54076 69702
L53847 69702
" />
<path d="M53961 69702
L53961 69202
L53923 69273
L53885 69321
L53847 69345
" />
<path d="M54209 69202
L54476 69202
L54304 69702
" />
<path d="M54647 69702
L54723 69702
L54761 69678
L54780 69654
L54819 69583
L54838 69488
L54838 69297
L54819 69250
L54800 69226
L54761 69202
L54685 69202
L54647 69226
L54628 69250
L54609 69297
L54609 69416
L54628 69464
L54647 69488
L54685 69511
L54761 69511
L54800 69488
L54819 69464
L54838 69416
" />
</g>
<g style="fill:#00A0A0; fill-opacity:0.0; 
stroke:#00A0A0; stroke-width:120; stroke-opacity:1; 
stroke-linecap:round; stroke-linejoin:round;">
</g>
<g style="fill:#00A0A0; fill-opacity:0.0; 
stroke:#00A0A0; stroke-width:112.5; stroke-opacity:1; 
stroke-linecap:round; stroke-linejoin:round;">
<path d="M64142 56342
L64628 56342
L64685 56321
L64714 56300
L64742 56257
L64742 56171
L64714 56128
L64685 56107
L64628 56085
L64142 56085
" />
<path d="M64142 55914
L64142 55635
L64371 55785
L64371 55721
L64400 55678
L64428 55657
L64485 55635
L64628 55635
L64685 55657
L64714 55678
L64742 55721
L64742 55850
L64714 55892
L64685 55914
" />
</g>
<g style="fill:#00A0A0; fill-opacity:0.0; 
stroke:#00A0A0; stroke-width:120; stroke-opacity:1; 
stroke-linecap:round; stroke-linejoin:round;">
</g>
<g style="fill:#00A0A0; fill-opacity:0.0; 
stroke:#00A0A0; stroke-width:112.5; stroke-opacity:1; 
stroke-linecap:round; stroke-linejoin:round;">
<path d="M63142 60914
L63142 60657
" />
<path d="M63742 60785
L63142 60785
" />
<path d="M63742 60249
L63457 60399
" />
<path d="M63742 60507
L63142 60507
L63142 60335
L63171 60292
L63200 60271
L63257 60249
L63342 60249
L63400 60271
L63428 60292
L63457 60335
L63457 60507
" />
<path d="M63714 60078
L63742 60014
L63742 59907
L63714 59864
L63685 59842
L63628 59821
L63571 59821
L63514 59842
L63485 59864
L63457 59907
L63428 59992
L63400 60035
L63371 60057
L63314 60078
L63257 60078
L63200 60057
L63171 60035
L63142 59992
L63142 59885
L63171 59821
" />
<path d="M63200 59650
L63171 59628
L63142 59585
L63142 59478
L63171 59435
L63200 59414
L63257 59392
L63314 59392
L63400 59414
L63742 59671
L63742 59392
" />
<path d="M63142 59114
L63142 59071
L63171 59028
L63200 59007
L63257 58985
L63371 58964
L63514 58964
L63628 58985
L63685 59007
L63714 59028
L63742 59071
L63742 59114
L63714 59157
L63685 59178
L63628 59200
L63514 59221
L63371 59221
L63257 59200
L63200 59178
L63171 59157
L63142 59114
" />
<path d="M63200 58792
L63171 58771
L63142 58728
L63142 58621
L63171 58578
L63200 58557
L63257 58535
L63314 58535
L63400 58557
L63742 58814
L63742 58535
" />
<path d="M63428 58342
L63428 58192
" />
<path d="M63742 58128
L63742 58342
L63142 58342
L63142 58128
" />
</g>
<g style="fill:#00A0A0; fill-opacity:0.0; 
stroke:#00A0A0; stroke-width:120; stroke-opacity:1; 
stroke-linecap:round; stroke-linejoin:round;">
</g>
<g style="fill:#00A0A0; fill-opacity:0.0; 
stroke:#00A0A0; stroke-width:40; stroke-opacity:1; 
stroke-linecap:round; stroke-linejoin:round;">
<path d="M59185 55560
L59195 55570
L59185 55579
L59176 55570
L59185 55560
L59185 55579
" />
<path d="M59382 55579
L59270 55579
" />
<path d="M59326 55579
L59326 55382
L59307 55410
L59289 55429
L59270 55439
" />
<path d="M59701 55448
L59701 55579
" />
<path d="M59617 55448
L59617 55551
L59626 55570
L59645 55579
L59673 55579
L59692 55570
L59701 55560
" />
<path d="M59767 55448
L59842 55448
" />
<path d="M59795 55579
L59795 55410
L59804 55392
L59823 55382
L59842 55382
" />
<path d="M59185 58560
L59195 58570
L59185 58579
L59176 58570
L59185 58560
L59185 58579
" />
<path d="M59382 58579
L59270 58579
" />
<path d="M59326 58579
L59326 58382
L59307 58410
L59289 58429
L59270 58439
" />
<path d="M59701 58448
L59701 58579
" />
<path d="M59617 58448
L59617 58551
L59626 58570
L59645 58579
L59673 58579
L59692 58570
L59701 58560
" />
<path d="M59767 58448
L59842 58448
" />
<path d="M59795 58579
L59795 58410
L59804 58392
L59823 58382
L59842 58382
" />
<path d="M57685 55560
L57695 55570
L57685 55579
L57676 55570
L57685 55560
L57685 55579
" />
<path d="M57882 55579
L57770 55579
" />
<path d="M57826 55579
L57826 55382
L57807 55410
L57789 55429
L57770 55439
" />
<path d="M58201 55448
L58201 55579
" />
<path d="M58117 55448
L58117 55551
L58126 55570
L58145 55579
L58173 55579
L58192 55570
L58201 55560
" />
<path d="M58267 55448
L58342 55448
" />
<path d="M58295 55579
L58295 55410
L58304 55392
L58323 55382
L58342 55382
" />
<path d="M59185 61060
L59195 61070
L59185 61079
L59176 61070
L59185 61060
L59185 61079
" />
<path d="M59382 61079
L59270 61079
" />
<path d="M59326 61079
L59326 60882
L59307 60910
L59289 60929
L59270 60939
" />
<path d="M59701 60948
L59701 61079
" />
<path d="M59617 60948
L59617 61051
L59626 61070
L59645 61079
L59673 61079
L59692 61070
L59701 61060
" />
<path d="M59767 60948
L59842 60948
" />
<path d="M59795 61079
L59795 60910
L59804 60892
L59823 60882
L59842 60882
" />
<path d="M64060 52814
L64070 52804
L64079 52814
L64070 52823
L64060 52814
L64079 52814
" />
<path d="M64079 52617
L64079 52729
" />
<path d="M64079 52673
L63882 52673
L63910 52692
L63929 52710
L63939 52729
" />
<path d="M63948 52298
L64079 52298
" />
<path d="M63948 52382
L64051 52382
L64070 52373
L64079 52354
L64079 52326
L64070 52307
L64060 52298
" />
<path d="M63948 52232
L63948 52157
" />
<path d="M64079 52204
L63910 52204
L63892 52195
L63882 52176
L63882 52157
" />
</g>
<g style="fill:#00A0A0; fill-opacity:0.0; 
stroke:#00A0A0; stroke-width:80; stroke-opacity:1; 
stroke-linecap:round; stroke-linejoin:round;">
<path d="M33280 68961
L33547 68961
L33376 69361
" />
<path d="M33700 69209
L34004 69209
" />
<path d="M34404 69361
L34176 69361
" />
<path d="M34290 69361
L34290 68961
L34252 69019
L34214 69057
L34176 69076
" />
<path d="M34557 69000
L34576 68980
L34614 68961
L34709 68961
L34747 68980
L34766 69000
L34785 69038
L34785 69076
L34766 69133
L34538 69361
L34785 69361
" />
<path d="M35204 68961
L35338 69361
L35471 68961
" />
<path d="M35909 69361
L35909 68961
L36061 68961
L36100 68980
L36119 69000
L36138 69038
L36138 69095
L36119 69133
L36100 69152
L36061 69171
L35909 69171
" />
<path d="M36366 69361
L36328 69342
L36309 69323
L36290 69285
L36290 69171
L36309 69133
L36328 69114
L36366 69095
L36423 69095
L36461 69114
L36480 69133
L36500 69171
L36500 69285
L36480 69323
L36461 69342
L36423 69361
L36366 69361
" />
<path d="M36633 69095
L36709 69361
L36785 69171
L36861 69361
L36938 69095
" />
<path d="M37242 69342
L37204 69361
L37128 69361
L37090 69342
L37071 69304
L37071 69152
L37090 69114
L37128 69095
L37204 69095
L37242 69114
L37261 69152
L37261 69190
L37071 69228
" />
<path d="M37433 69361
L37433 69095
" />
<path d="M37433 69171
L37452 69133
L37471 69114
L37509 69095
L37547 69095
" />
<path d="M38119 69152
L38176 69171
L38195 69190
L38214 69228
L38214 69285
L38195 69323
L38176 69342
L38138 69361
L37985 69361
L37985 68961
L38119 68961
L38157 68980
L38176 69000
L38195 69038
L38195 69076
L38176 69114
L38157 69133
L38119 69152
L37985 69152
" />
<path d="M38557 69095
L38557 69361
" />
<path d="M38385 69095
L38385 69304
L38404 69342
L38442 69361
L38499 69361
L38538 69342
L38557 69323
" />
<path d="M38728 69342
L38766 69361
L38842 69361
L38880 69342
L38899 69304
L38899 69285
L38880 69247
L38842 69228
L38785 69228
L38747 69209
L38728 69171
L38728 69152
L38747 69114
L38785 69095
L38842 69095
L38880 69114
" />
</g>
<g style="fill:#00A0A0; fill-opacity:0.0; 
stroke:#00A0A0; stroke-width:120; stroke-opacity:1; 
stroke-linecap:round; stroke-linejoin:round;">
</g>
<g style="fill:#00A0A0; fill-opacity:0.0; 
stroke:#00A0A0; stroke-width:112.5; stroke-opacity:1; 
stroke-linecap:round; stroke-linejoin:round;">
<path d="M40900 74714
L40964 74742
L41071 74742
L41114 74714
L41135 74685
L41157 74628
L41157 74571
L41135 74514
L41114 74485
L41071 74457
L40985 74428
L40942 74400
L40921 74371
L40900 74314
L40900 74257
L40921 74200
L40942 74171
L40985 74142
L41092 74142
L41157 74171
" />
<path d="M41307 74142
L41414 74742
L41500 74314
L41585 74742
L41692 74142
" />
<path d="M42100 74742
L41842 74742
" />
<path d="M41971 74742
L41971 74142
L41928 74228
L41885 74285
L41842 74314
" />
</g>
<g style="fill:#00A0A0; fill-opacity:0.0; 
stroke:#00A0A0; stroke-width:120; stroke-opacity:1; 
stroke-linecap:round; stroke-linejoin:round;">
</g>
<g style="fill:#00A0A0; fill-opacity:0.0; 
stroke:#00A0A0; stroke-width:78.7402; stroke-opacity:1; 
stroke-linecap:round; stroke-linejoin:round;">
<path d="M40291 72203
L40347 72221
L40366 72240
L40384 72278
L40384 72334
L40366 72371
L40347 72390
L40309 72409
L40159 72409
L40159 72015
L40291 72015
L40328 72034
L40347 72053
L40366 72090
L40366 72128
L40347 72165
L40328 72184
L40291 72203
L40159 72203
" />
<path d="M40778 72371
L40759 72390
L40703 72409
L40666 72409
L40609 72390
L40572 72353
L40553 72315
L40534 72240
L40534 72184
L40553 72109
L40572 72071
L40609 72034
L40666 72015
L40703 72015
L40759 72034
L40778 72053
" />
<path d="M41472 72371
L41453 72390
L41397 72409
L41359 72409
L41303 72390
L41265 72353
L41247 72315
L41228 72240
L41228 72184
L41247 72109
L41265 72071
L41303 72034
L41359 72015
L41397 72015
L41453 72034
L41472 72053
" />
<path d="M41622 72296
L41809 72296
" />
<path d="M41584 72409
L41715 72015
L41847 72409
" />
<path d="M42653 72015
L42690 72015
L42728 72034
L42747 72053
L42765 72090
L42784 72165
L42784 72259
L42765 72334
L42747 72371
L42728 72390
L42690 72409
L42653 72409
L42615 72390
L42597 72371
L42578 72334
L42559 72259
L42559 72165
L42578 72090
L42597 72053
L42615 72034
L42653 72015
" />
<path d="M43759 72409
L43534 72409
" />
<path d="M43646 72409
L43646 72015
L43609 72071
L43571 72109
L43534 72128
" />
<path d="M44509 72053
L44528 72034
L44565 72015
L44659 72015
L44696 72034
L44715 72053
L44734 72090
L44734 72128
L44715 72184
L44490 72409
L44734 72409
" />
<path d="M45465 72015
L45709 72015
L45577 72165
L45634 72165
L45671 72184
L45690 72203
L45709 72240
L45709 72334
L45690 72371
L45671 72390
L45634 72409
L45521 72409
L45484 72390
L45465 72371
" />
<path d="M46646 72146
L46646 72409
" />
<path d="M46552 71996
L46459 72278
L46702 72278
" />
<path d="M47640 72015
L47452 72015
L47433 72203
L47452 72184
L47490 72165
L47583 72165
L47621 72184
L47640 72203
L47658 72240
L47658 72334
L47640 72371
L47621 72390
L47583 72409
L47490 72409
L47452 72390
L47433 72371
" />
</g>
<g style="fill:#00A0A0; fill-opacity:0.0; 
stroke:#00A0A0; stroke-width:120; stroke-opacity:1; 
stroke-linecap:round; stroke-linejoin:round;">
<path d="M35500 67500
L34500 67500
" />
<path d="M34500 67500
L34500 59500
" />
<path d="M34500 59500
L35500 59500
" />
<path d="M35500 59500
L35500 67500
" />
<path d="M35500 66500
L34500 66500
" />
</g>
<g style="fill:#00A0A0; fill-opacity:0.0; 
stroke:#00A0A0; stroke-width:150; stroke-opacity:1; 
stroke-linecap:round; stroke-linejoin:round;">
<path d="M36500 61000
L37500 61000
" />
<circle cx="36500" cy="61000" r="559.017" /> 
<path d="M37500 62000
L38500 62000
" />
<circle cx="37500" cy="62000" r="559.017" /> 
<path d="M36500 63000
L37500 63000
" />
<circle cx="36500" cy="63000" r="559.017" /> 
<path d="M37500 64000
L38500 64000
" />
<circle cx="37500" cy="64000" r="559.017" /> 
<path d="M36500 65000
L37500 65000
" />
<circle cx="36500" cy="65000" r="559.017" /> 
<path d="M37500 66000
L38500 66000
" />
<circle cx="37500" cy="66000" r="559.017" /> 
<path d="M48000 52000
L48000 53000
" />
<circle cx="48000" cy="52000" r="559.017" /> 
<path d="M42500 50500
L43500 50500
" />
<circle cx="42500" cy="50500" r="559.017" /> 
</g>
<g style="fill:#00A0A0; fill-opacity:0.0; 
stroke:#00A0A0; stroke-width:120; stroke-opacity:1; 
stroke-linecap:round; stroke-linejoin:round;">
<path d="M55000 75500
L55000 74500
" />
<path d="M50000 74500
L50000 75500
" />
<path d="M55000 75500
L50000 75500
" />
<path d="M50000 74500
L55000 74500
" />
<path d="M55000 73500
L55000 72500
" />
<path d="M50000 72500
L50000 73500
" />
<path d="M55000 73500
L50000 73500
" />
<path d="M50000 72500
L55000 72500
" />
</g>
<g style="fill:#00A0A0; fill-opacity:0.0; 
stroke:#00A0A0; stroke-width:100; stroke-opacity:1; 
stroke-linecap:round; stroke-linejoin:round;">
<path d="M67000 58500
L67000 54500
" />
<path d="M68000 58500
L68000 54500
" />
<path d="M68000 54500
L67000 54500
" />
<path d="M67000 58500
L68000 58500
" />
<path d="M67000 63000
L67000 59000
" />
<path d="M68000 63000
L68000 59000
" />
<path d="M68000 59000
L67000 59000
" />
<path d="M67000 63000
L68000 63000
" />
<path d="M33500 52000
L33200 52000
" />
<path d="M33200 52000
L33200 56000
" />
<path d="M33200 56000
L33500 56000
" />
<path d="M36800 52000
L36800 56000
" />
<path d="M36800 56000
L36400 56000
" />
<path d="M36400 56000
L36400 52000
" />
<path d="M36400 52000
L36800 52000
" />
<path d="M36500 52000
L33500 52000
" />
<path d="M33500 56000
L36500 56000
" />
</g>
<g style="fill:#00A0A0; fill-opacity:0.0; 
stroke:#00A0A0; stroke-width:59.0551; stroke-opacity:1; 
stroke-linecap:round; stroke-linejoin:round;">
<path d="M56003 49996
L56003 67003
" />
<path d="M56003 67003
L48996 67003
" />
<path d="M48996 67003
L48996 49996
" />
<path d="M48996 49996
L56003 49996
" />
<path d="M40287 50259
L40287 57740
" />
<path d="M40287 57740
L37826 57740
" />
<path d="M37826 57740
L37826 50259
" />
<path d="M37826 50259
L40287 50259
" />
<path d="M40287 50259
L40287 50220
" />
</g>
<g style="fill:#00A0A0; fill-opacity:0.0; 
stroke:#00A0A0; stroke-width:125; stroke-opacity:1; 
stroke-linecap:round; stroke-linejoin:round;">
<path d="M39500 69200
L39500 68500
" />
<path d="M39500 70800
L39500 71500
" />
<path d="M39100 69400
L39900 69400
" />
<path d="M39100 70800
L39900 70800
" />
<path d="M39900 70800
L39900 69200
" />
<path d="M39900 69200
L39100 69200
" />
<path d="M39100 69200
L39100 70800
" />
</g>
<g style="fill:#00A0A0; fill-opacity:0.0; 
stroke:#00A0A0; stroke-width:100; stroke-opacity:1; 
stroke-linecap:round; stroke-linejoin:round;">
<path d="M45500 51500
L45500 52000
" />
<path d="M45500 52000
L44500 52000
" />
<path d="M44500 52000
L44500 51500
" />
<path d="M46000 51500
L46000 55500
" />
<path d="M46000 55500
L44000 55500
" />
<path d="M44000 55500
L44000 51500
" />
<path d="M44000 51500
L46000 51500
" />
<path d="M55000 70000
L54500 70000
" />
<path d="M54500 70000
L54500 69000
" />
<path d="M54500 69000
L55000 69000
" />
<path d="M55000 70500
L51000 70500
" />
<path d="M51000 70500
L51000 68500
" />
<path d="M51000 68500
L55000 68500
" />
<path d="M55000 68500
L55000 70500
" />
</g>
<g style="fill:#00A0A0; fill-opacity:0.0; 
stroke:#00A0A0; stroke-width:150; stroke-opacity:1; 
stroke-linecap:round; stroke-linejoin:round;">
<path d="M64500 54000
L64500 54000
" />
<path d="M64500 54000
L64500 54500
" />
<path d="M64500 54500
L63500 54500
" />
<path d="M63500 54500
L63500 54000
" />
<path d="M65000 54000
L65000 63000
" />
<path d="M65000 63000
L63000 63000
" />
<path d="M63000 63000
L63000 54000
" />
<path d="M63000 54000
L65000 54000
" />
</g>
<g style="fill:#00A0A0; fill-opacity:0.0; 
stroke:#00A0A0; stroke-width:120; stroke-opacity:1; 
stroke-linecap:round; stroke-linejoin:round;">
<path d="M60000 54520
L60000 56500
" />
<path d="M60000 56500
L59000 56500
" />
<path d="M59000 56500
L59000 54500
" />
<path d="M59000 54500
L60000 54500
" />
<path d="M59750 54500
L60000 54750
" />
<path d="M60000 57520
L60000 59500
" />
<path d="M60000 59500
L59000 59500
" />
<path d="M59000 59500
L59000 57500
" />
<path d="M59000 57500
L60000 57500
" />
<path d="M59750 57500
L60000 57750
" />
<path d="M58500 54520
L58500 56500
" />
<path d="M58500 56500
L57500 56500
" />
<path d="M57500 56500
L57500 54500
" />
<path d="M57500 54500
L58500 54500
" />
<path d="M58250 54500
L58500 54750
" />
<path d="M60000 60020
L60000 62000
" />
<path d="M60000 62000
L59000 62000
" />
<path d="M59000 62000
L59000 60000
" />
<path d="M59000 60000
L60000 60000
" />
<path d="M59750 60000
L60000 60250
" />
<path d="M64980 53000
L63000 53000
" />
<path d="M63000 53000
L63000 52000
" />
<path d="M63000 52000
L65000 52000
" />
<path d="M65000 52000
L65000 53000
" />
<path d="M65000 52750
L64750 53000
" />
</g>
<g style="fill:#00A0A0; fill-opacity:0.0; 
stroke:#00A0A0; stroke-width:150; stroke-opacity:1; 
stroke-linecap:round; stroke-linejoin:round;">
<path d="M32925 69728
L32925 73272
" />
<path d="M31547 69728
L31547 73272
" />
<path d="M31547 73272
L37452 73272
" />
<path d="M37452 73271
L37452 69728
" />
<path d="M37452 69728
L31547 69728
" />
<path d="M39500 74500
L39500 74500
" />
<path d="M39500 74500
L40000 74500
" />
<path d="M40000 74500
L40000 75500
" />
<path d="M40000 75500
L39500 75500
" />
<path d="M39500 74000
L48500 74000
" />
<path d="M48500 74000
L48500 76000
" />
<path d="M48500 76000
L39500 76000
" />
<path d="M39500 76000
L39500 74000
" />
</g>
<g style="fill:#808000; fill-opacity:0.0; 
stroke:#808000; stroke-width:39.3701; stroke-opacity:1; 
stroke-linecap:round; stroke-linejoin:round;">
</g>
<g style="fill:#808000; fill-opacity:1.0; 
stroke:#808000; stroke-width:39.3701; stroke-opacity:1; 
stroke-linecap:round; stroke-linejoin:round;">
<polyline style="fill-rule:evenodd;"
points="35280,67280
34719,67280
34719,66719
35280,66719
35280,67280
" /> 
<circle cx="35000" cy="66000" r="280.315" /> 
<circle cx="35000" cy="65000" r="280.315" /> 
<circle cx="35000" cy="64000" r="280.315" /> 
<circle cx="35000" cy="63000" r="280.315" /> 
<circle cx="35000" cy="62000" r="280.315" /> 
<circle cx="35000" cy="61000" r="280.315" /> 
<circle cx="35000" cy="60000" r="280.315" /> 
<circle cx="36500" cy="61000" r="255.315" /> 
<circle cx="37500" cy="61000" r="255.315" /> 
<circle cx="37500" cy="62000" r="255.315" /> 
<circle cx="38500" cy="62000" r="255.315" /> 
<circle cx="36500" cy="63000" r="255.315" /> 
<circle cx="37500" cy="63000" r="255.315" /> 
<circle cx="37500" cy="64000" r="255.315" /> 
<circle cx="38500" cy="64000" r="255.315" /> 
<circle cx="36500" cy="65000" r="255.315" /> 
<circle cx="37500" cy="65000" r="255.315" /> 
<circle cx="37500" cy="66000" r="255.315" /> 
<circle cx="38500" cy="66000" r="255.315" /> 
<circle cx="48000" cy="52000" r="255.315" /> 
<circle cx="48000" cy="53000" r="255.315" /> 
<circle cx="42500" cy="50500" r="255.315" /> 
<circle cx="43500" cy="50500" r="255.315" /> 
<polyline style="fill-rule:evenodd;"
points="54780,74719
54780,75280
54219,75280
54219,74719
54780,74719
" /> 
<circle cx="53500" cy="75000" r="280.315" /> 
<circle cx="52500" cy="75000" r="280.315" /> 
<circle cx="51500" cy="75000" r="280.315" /> 
<circle cx="50500" cy="75000" r="280.315" /> 
<polyline style="fill-rule:evenodd;"
points="54780,72719
54780,73280
54219,73280
54219,72719
54780,72719
" /> 
<circle cx="53500" cy="73000" r="280.315" /> 
<circle cx="52500" cy="73000" r="280.315" /> 
<circle cx="51500" cy="73000" r="280.315" /> 
<circle cx="50500" cy="73000" r="280.315" /> 
<polyline style="fill-rule:evenodd;"
points="67219,54719
67780,54719
67780,55280
67219,55280
67219,54719
" /> 
<circle cx="67500" cy="56000" r="280.315" /> 
<circle cx="67500" cy="57000" r="280.315" /> 
<circle cx="67500" cy="58000" r="280.315" /> 
<polyline style="fill-rule:evenodd;"
points="67219,59219
67780,59219
67780,59780
67219,59780
67219,59219
" /> 
<circle cx="67500" cy="60500" r="280.315" /> 
<circle cx="67500" cy="61500" r="280.315" /> 
<circle cx="67500" cy="62500" r="280.315" /> 
<polyline style="fill-rule:evenodd;"
points="35570,55570
34429,55570
34429,54429
35570,54429
35570,55570
" /> 
<circle cx="35000" cy="53000" r="570.815" /> 
<circle cx="55250" cy="50750" r="413.386" /> 
<circle cx="49750" cy="50750" r="413.386" /> 
<circle cx="55250" cy="66250" r="413.386" /> 
<circle cx="49750" cy="66250" r="413.386" /> 
<circle cx="55503.9" cy="58000" r="280.315" /> 
<circle cx="55503.9" cy="57000" r="280.315" /> 
<circle cx="55503.9" cy="56000" r="280.315" /> 
<circle cx="55503.9" cy="55000" r="280.315" /> 
<circle cx="55503.9" cy="54000" r="280.315" /> 
<circle cx="55503.9" cy="53000" r="280.315" /> 
<polyline style="fill-rule:evenodd;"
points="55223,51719
55784,51719
55784,52280
55223,52280
55223,51719
" /> 
<circle cx="55503.9" cy="59000" r="280.315" /> 
<circle cx="55503.9" cy="60000" r="280.315" /> 
<circle cx="55503.9" cy="61000" r="280.315" /> 
<circle cx="55503.9" cy="62000" r="280.315" /> 
<circle cx="55503.9" cy="63000" r="280.315" /> 
<circle cx="55503.9" cy="64000" r="280.315" /> 
<circle cx="55503.9" cy="65000" r="280.315" /> 
<circle cx="49496.1" cy="65000" r="280.315" /> 
<circle cx="49496.1" cy="64000" r="280.315" /> 
<circle cx="49496.1" cy="63000" r="280.315" /> 
<circle cx="49496.1" cy="62000" r="280.315" /> 
<circle cx="49496.1" cy="61000" r="280.315" /> 
<circle cx="49496.1" cy="60000" r="280.315" /> 
<circle cx="49496.1" cy="59000" r="280.315" /> 
<circle cx="49496.1" cy="58000" r="280.315" /> 
<circle cx="49496.1" cy="57000" r="280.315" /> 
<circle cx="49496.1" cy="56000" r="280.315" /> 
<circle cx="49496.1" cy="55000" r="280.315" /> 
<circle cx="49496.1" cy="54000" r="280.315" /> 
<circle cx="49496.1" cy="53000" r="280.315" /> 
<circle cx="49496.1" cy="52000" r="280.315" /> 
<polyline style="fill-rule:evenodd;"
points="39019,50507
39980,50507
39980,51468
39019,51468
39019,50507
" /> 
<circle cx="39500" cy="52996.1" r="480.315" /> 
<circle cx="39500" cy="55003.9" r="480.315" /> 
<circle cx="39500" cy="57011.8" r="480.315" /> 
<polyline style="fill-rule:evenodd;"
points="39760,68760
39239,68760
39239,68239
39760,68239
39760,68760
" /> 
<circle cx="39500" cy="71500" r="260.315" /> 
<polyline style="fill-rule:evenodd;"
points="43244,51744
43755,51744
43755,52255
43244,52255
43244,51744
" /> 
<circle cx="43500" cy="53000" r="255.315" /> 
<circle cx="43500" cy="54000" r="255.315" /> 
<circle cx="43500" cy="55000" r="255.315" /> 
<circle cx="46500" cy="55000" r="255.315" /> 
<circle cx="46500" cy="54000" r="255.315" /> 
<circle cx="46500" cy="53000" r="255.315" /> 
<circle cx="46500" cy="52000" r="255.315" /> 
<polyline style="fill-rule:evenodd;"
points="54755,67744
54755,68255
54244,68255
54244,67744
54755,67744
" /> 
<circle cx="53500" cy="68000" r="255.315" /> 
<circle cx="52500" cy="68000" r="255.315" /> 
<circle cx="51500" cy="68000" r="255.315" /> 
<circle cx="51500" cy="71000" r="255.315" /> 
<circle cx="52500" cy="71000" r="255.315" /> 
<circle cx="53500" cy="71000" r="255.315" /> 
<circle cx="54500" cy="71000" r="255.315" /> 
<polyline style="fill-rule:evenodd;"
points="62244,54744
62755,54744
62755,55255
62244,55255
62244,54744
" /> 
<circle cx="62500" cy="56000" r="255.315" /> 
<circle cx="62500" cy="57000" r="255.315" /> 
<circle cx="62500" cy="58000" r="255.315" /> 
<circle cx="62500" cy="59000" r="255.315" /> 
<circle cx="62500" cy="60000" r="255.315" /> 
<circle cx="62500" cy="61000" r="255.315" /> 
<circle cx="62500" cy="62000" r="255.315" /> 
<circle cx="65500" cy="62000" r="255.315" /> 
<circle cx="65500" cy="61000" r="255.315" /> 
<circle cx="65500" cy="60000" r="255.315" /> 
<circle cx="65500" cy="59000" r="255.315" /> 
<circle cx="65500" cy="58000" r="255.315" /> 
<circle cx="65500" cy="57000" r="255.315" /> 
<circle cx="65500" cy="56000" r="255.315" /> 
<circle cx="65500" cy="55000" r="255.315" /> 
<circle cx="59500" cy="55000" r="255.315" /> 
<circle cx="59500" cy="56000" r="255.315" /> 
<circle cx="59500" cy="58000" r="255.315" /> 
<circle cx="59500" cy="59000" r="255.315" /> 
<circle cx="58000" cy="55000" r="255.315" /> 
<circle cx="58000" cy="56000" r="255.315" /> 
<circle cx="59500" cy="60500" r="255.315" /> 
<circle cx="59500" cy="61500" r="255.315" /> 
<circle cx="64500" cy="52500" r="255.315" /> 
<circle cx="63500" cy="52500" r="255.315" /> 
<polyline style="fill-rule:evenodd;"
points="36271,72267
36271,70732
37610,70732
37610,72267
36271,72267
" /> 
<polyline style="fill-rule:evenodd;"
points="33909,72169
33909,70830
35248,70830
35248,72169
33909,72169
" /> 
<polyline style="fill-rule:evenodd;"
points="40244,76755
40244,76244
40755,76244
40755,76755
40244,76755
" /> 
<circle cx="41500" cy="76500" r="255.315" /> 
<circle cx="42500" cy="76500" r="255.315" /> 
<circle cx="43500" cy="76500" r="255.315" /> 
<circle cx="44500" cy="76500" r="255.315" /> 
<circle cx="45500" cy="76500" r="255.315" /> 
<circle cx="46500" cy="76500" r="255.315" /> 
<circle cx="47500" cy="76500" r="255.315" /> 
<circle cx="47500" cy="73500" r="255.315" /> 
<circle cx="46500" cy="73500" r="255.315" /> 
<circle cx="45500" cy="73500" r="255.315" /> 
<circle cx="44500" cy="73500" r="255.315" /> 
<circle cx="43500" cy="73500" r="255.315" /> 
<circle cx="42500" cy="73500" r="255.315" /> 
<circle cx="41500" cy="73500" r="255.315" /> 
<circle cx="40500" cy="73500" r="255.315" /> 
</g> 
</svg>
