<?xml version="1.0" standalone="no"?>
 <!DOCTYPE svg PUBLIC "-//W3C//DTD SVG 1.1//EN" 
 "http://www.w3.org/Graphics/SVG/1.1/DTD/svg11.dtd"> 
<svg xmlns="http://www.w3.org/2000/svg" version="1.1" 
    width="14.8539cm" height="9.66724cm" viewBox="0 0 58480 38060 ">
<title>SVG Picture created as MetroMiniABSBiDir-noCANSlave-F_SilkS.svg date 2018/07/26 16:45:05 </title>
  <desc>Picture generated by PCBNEW </desc>
<g style="fill:#000000; fill-opacity:1;stroke:#000000; stroke-opacity:1;
stroke-linecap:round; stroke-linejoin:round; "
 transform="translate(0 0) scale(1 1)">
</g>
<g style="fill:#FFFF00; fill-opacity:0.0; 
stroke:#FFFF00; stroke-width:39.3701; stroke-opacity:1; 
stroke-linecap:round; stroke-linejoin:round;">
<path d="M47204 33250
L11204 33250
" />
<path d="M47204 750
L47204 33250
" />
<path d="M11204 750
L47204 750
" />
<path d="M11204 33250
L11204 750
" />
</g>
<g style="fill:#00A0A0; fill-opacity:0.0; 
stroke:#00A0A0; stroke-width:80; stroke-opacity:1; 
stroke-linecap:round; stroke-linejoin:round;">
<path d="M11485 22908
L11466 22941
L11466 22991
L11485 23041
L11523 23074
L11561 23091
L11637 23108
L11694 23108
L11770 23091
L11809 23074
L11847 23041
L11866 22991
L11866 22958
L11847 22908
L11828 22891
L11694 22891
L11694 22958
" />
<path d="M11866 22741
L11466 22741
L11866 22541
L11466 22541
" />
<path d="M11866 22374
L11466 22374
L11466 22291
L11485 22241
L11523 22208
L11561 22191
L11637 22174
L11694 22174
L11770 22191
L11809 22208
L11847 22241
L11866 22291
L11866 22374
" />
<path d="M11656 21758
L11656 21641
" />
<path d="M11866 21591
L11866 21758
L11466 21758
L11466 21591
" />
<path d="M11485 21258
L11466 21291
L11466 21341
L11485 21391
L11523 21424
L11561 21441
L11637 21458
L11694 21458
L11770 21441
L11809 21424
L11847 21391
L11866 21341
L11866 21308
L11847 21258
L11828 21241
L11694 21241
L11694 21308
" />
<path d="M11656 20824
L11656 20708
" />
<path d="M11866 20658
L11866 20824
L11466 20824
L11466 20658
" />
<path d="M11675 20441
L11866 20441
" />
<path d="M11466 20558
L11675 20441
L11466 20325
" />
<path d="M11656 19941
L11656 19825
" />
<path d="M11866 19775
L11866 19941
L11466 19941
L11466 19775
" />
<path d="M11866 19425
L11675 19541
" />
<path d="M11866 19625
L11466 19625
L11466 19491
L11485 19458
L11504 19441
L11542 19425
L11599 19425
L11637 19441
L11656 19458
L11675 19491
L11675 19625
" />
<path d="M11466 19041
L11866 18958
L11580 18891
L11866 18825
L11466 18741
" />
<path d="M11485 18425
L11466 18458
L11466 18508
L11485 18558
L11523 18591
L11561 18608
L11637 18625
L11694 18625
L11770 18608
L11809 18591
L11847 18558
L11866 18508
L11866 18475
L11847 18425
L11828 18408
L11694 18408
L11694 18475
" />
<path d="M11466 18025
L11866 17941
L11580 17875
L11866 17808
L11466 17725
" />
<path d="M11675 17525
L11866 17525
" />
<path d="M11466 17641
L11675 17525
L11466 17408
" />
<path d="M11466 17058
L11866 16975
L11580 16908
L11866 16841
L11466 16758
" />
<path d="M11866 16425
L11675 16541
" />
<path d="M11866 16625
L11466 16625
L11466 16491
L11485 16458
L11504 16441
L11542 16425
L11599 16425
L11637 16441
L11656 16458
L11675 16491
L11675 16625
" />
<path d="M11713 16008
L11713 15741
" />
<path d="M11866 15875
L11561 15875
" />
<path d="M11466 15408
L11466 15575
L11656 15591
L11637 15575
L11618 15541
L11618 15458
L11637 15425
L11656 15408
L11694 15391
L11790 15391
L11828 15408
L11847 15425
L11866 15458
L11866 15541
L11847 15575
L11828 15591
" />
</g>
<g style="fill:#00A0A0; fill-opacity:0.0; 
stroke:#00A0A0; stroke-width:40; stroke-opacity:1; 
stroke-linecap:round; stroke-linejoin:round;">
<path d="M16480 16851
L16337 16851
" />
<path d="M16409 16851
L16409 16601
L16385 16636
L16361 16660
L16337 16672
" />
<path d="M16706 16601
L16587 16601
L16575 16720
L16587 16708
L16611 16696
L16670 16696
L16694 16708
L16706 16720
L16718 16744
L16718 16803
L16706 16827
L16694 16839
L16670 16851
L16611 16851
L16587 16839
L16575 16827
" />
<path d="M16873 16601
L16897 16601
L16920 16613
L16932 16625
L16944 16648
L16956 16696
L16956 16755
L16944 16803
L16932 16827
L16920 16839
L16897 16851
L16873 16851
L16849 16839
L16837 16827
L16825 16803
L16813 16755
L16813 16696
L16825 16648
L16837 16625
L16849 16613
L16873 16601
" />
<path d="M17301 16601
L17349 16601
L17373 16613
L17397 16636
L17409 16684
L17409 16767
L17397 16815
L17373 16839
L17349 16851
L17301 16851
L17278 16839
L17254 16815
L17242 16767
L17242 16684
L17254 16636
L17278 16613
L17301 16601
" />
<path d="M17516 16851
L17516 16601
" />
<path d="M17623 16851
L17623 16720
L17611 16696
L17587 16684
L17551 16684
L17528 16696
L17516 16708
" />
<path d="M17742 16851
L17742 16684
" />
<path d="M17742 16708
L17754 16696
L17778 16684
L17813 16684
L17837 16696
L17849 16720
L17849 16851
" />
<path d="M17849 16720
L17861 16696
L17885 16684
L17921 16684
L17944 16696
L17956 16720
L17956 16851
" />
<path d="M18063 16839
L18087 16851
L18135 16851
L18159 16839
L18171 16815
L18171 16803
L18159 16779
L18135 16767
L18099 16767
L18075 16755
L18063 16732
L18063 16720
L18075 16696
L18099 16684
L18135 16684
L18159 16696
" />
<path d="M17580 17951
L17437 17951
" />
<path d="M17509 17951
L17509 17701
L17485 17736
L17461 17760
L17437 17772
" />
<path d="M17806 17701
L17687 17701
L17675 17820
L17687 17808
L17711 17796
L17770 17796
L17794 17808
L17806 17820
L17818 17844
L17818 17903
L17806 17927
L17794 17939
L17770 17951
L17711 17951
L17687 17939
L17675 17927
" />
<path d="M17973 17701
L17997 17701
L18020 17713
L18032 17725
L18044 17748
L18056 17796
L18056 17855
L18044 17903
L18032 17927
L18020 17939
L17997 17951
L17973 17951
L17949 17939
L17937 17927
L17925 17903
L17913 17855
L17913 17796
L17925 17748
L17937 17725
L17949 17713
L17973 17701
" />
<path d="M18401 17701
L18449 17701
L18473 17713
L18497 17736
L18509 17784
L18509 17867
L18497 17915
L18473 17939
L18449 17951
L18401 17951
L18378 17939
L18354 17915
L18342 17867
L18342 17784
L18354 17736
L18378 17713
L18401 17701
" />
<path d="M18616 17951
L18616 17701
" />
<path d="M18723 17951
L18723 17820
L18711 17796
L18687 17784
L18651 17784
L18628 17796
L18616 17808
" />
<path d="M18842 17951
L18842 17784
" />
<path d="M18842 17808
L18854 17796
L18878 17784
L18913 17784
L18937 17796
L18949 17820
L18949 17951
" />
<path d="M18949 17820
L18961 17796
L18985 17784
L19021 17784
L19044 17796
L19056 17820
L19056 17951
" />
<path d="M19163 17939
L19187 17951
L19235 17951
L19259 17939
L19271 17915
L19271 17903
L19259 17879
L19235 17867
L19199 17867
L19175 17855
L19163 17832
L19163 17820
L19175 17796
L19199 17784
L19235 17784
L19259 17796
" />
<path d="M16430 18901
L16287 18901
" />
<path d="M16359 18901
L16359 18651
L16335 18686
L16311 18710
L16287 18722
" />
<path d="M16656 18651
L16537 18651
L16525 18770
L16537 18758
L16561 18746
L16620 18746
L16644 18758
L16656 18770
L16668 18794
L16668 18853
L16656 18877
L16644 18889
L16620 18901
L16561 18901
L16537 18889
L16525 18877
" />
<path d="M16823 18651
L16847 18651
L16870 18663
L16882 18675
L16894 18698
L16906 18746
L16906 18805
L16894 18853
L16882 18877
L16870 18889
L16847 18901
L16823 18901
L16799 18889
L16787 18877
L16775 18853
L16763 18805
L16763 18746
L16775 18698
L16787 18675
L16799 18663
L16823 18651
" />
<path d="M17251 18651
L17299 18651
L17323 18663
L17347 18686
L17359 18734
L17359 18817
L17347 18865
L17323 18889
L17299 18901
L17251 18901
L17228 18889
L17204 18865
L17192 18817
L17192 18734
L17204 18686
L17228 18663
L17251 18651
" />
<path d="M17466 18901
L17466 18651
" />
<path d="M17573 18901
L17573 18770
L17561 18746
L17537 18734
L17501 18734
L17478 18746
L17466 18758
" />
<path d="M17692 18901
L17692 18734
" />
<path d="M17692 18758
L17704 18746
L17728 18734
L17763 18734
L17787 18746
L17799 18770
L17799 18901
" />
<path d="M17799 18770
L17811 18746
L17835 18734
L17871 18734
L17894 18746
L17906 18770
L17906 18901
" />
<path d="M18013 18889
L18037 18901
L18085 18901
L18109 18889
L18121 18865
L18121 18853
L18109 18829
L18085 18817
L18049 18817
L18025 18805
L18013 18782
L18013 18770
L18025 18746
L18049 18734
L18085 18734
L18109 18746
" />
<path d="M17430 19851
L17287 19851
" />
<path d="M17359 19851
L17359 19601
L17335 19636
L17311 19660
L17287 19672
" />
<path d="M17656 19601
L17537 19601
L17525 19720
L17537 19708
L17561 19696
L17620 19696
L17644 19708
L17656 19720
L17668 19744
L17668 19803
L17656 19827
L17644 19839
L17620 19851
L17561 19851
L17537 19839
L17525 19827
" />
<path d="M17823 19601
L17847 19601
L17870 19613
L17882 19625
L17894 19648
L17906 19696
L17906 19755
L17894 19803
L17882 19827
L17870 19839
L17847 19851
L17823 19851
L17799 19839
L17787 19827
L17775 19803
L17763 19755
L17763 19696
L17775 19648
L17787 19625
L17799 19613
L17823 19601
" />
<path d="M18251 19601
L18299 19601
L18323 19613
L18347 19636
L18359 19684
L18359 19767
L18347 19815
L18323 19839
L18299 19851
L18251 19851
L18228 19839
L18204 19815
L18192 19767
L18192 19684
L18204 19636
L18228 19613
L18251 19601
" />
<path d="M18466 19851
L18466 19601
" />
<path d="M18573 19851
L18573 19720
L18561 19696
L18537 19684
L18501 19684
L18478 19696
L18466 19708
" />
<path d="M18692 19851
L18692 19684
" />
<path d="M18692 19708
L18704 19696
L18728 19684
L18763 19684
L18787 19696
L18799 19720
L18799 19851
" />
<path d="M18799 19720
L18811 19696
L18835 19684
L18871 19684
L18894 19696
L18906 19720
L18906 19851
" />
<path d="M19013 19839
L19037 19851
L19085 19851
L19109 19839
L19121 19815
L19121 19803
L19109 19779
L19085 19767
L19049 19767
L19025 19755
L19013 19732
L19013 19720
L19025 19696
L19049 19684
L19085 19684
L19109 19696
" />
<path d="M16530 20951
L16387 20951
" />
<path d="M16459 20951
L16459 20701
L16435 20736
L16411 20760
L16387 20772
" />
<path d="M16756 20701
L16637 20701
L16625 20820
L16637 20808
L16661 20796
L16720 20796
L16744 20808
L16756 20820
L16768 20844
L16768 20903
L16756 20927
L16744 20939
L16720 20951
L16661 20951
L16637 20939
L16625 20927
" />
<path d="M16923 20701
L16947 20701
L16970 20713
L16982 20725
L16994 20748
L17006 20796
L17006 20855
L16994 20903
L16982 20927
L16970 20939
L16947 20951
L16923 20951
L16899 20939
L16887 20927
L16875 20903
L16863 20855
L16863 20796
L16875 20748
L16887 20725
L16899 20713
L16923 20701
" />
<path d="M17351 20701
L17399 20701
L17423 20713
L17447 20736
L17459 20784
L17459 20867
L17447 20915
L17423 20939
L17399 20951
L17351 20951
L17328 20939
L17304 20915
L17292 20867
L17292 20784
L17304 20736
L17328 20713
L17351 20701
" />
<path d="M17566 20951
L17566 20701
" />
<path d="M17673 20951
L17673 20820
L17661 20796
L17637 20784
L17601 20784
L17578 20796
L17566 20808
" />
<path d="M17792 20951
L17792 20784
" />
<path d="M17792 20808
L17804 20796
L17828 20784
L17863 20784
L17887 20796
L17899 20820
L17899 20951
" />
<path d="M17899 20820
L17911 20796
L17935 20784
L17971 20784
L17994 20796
L18006 20820
L18006 20951
" />
<path d="M18113 20939
L18137 20951
L18185 20951
L18209 20939
L18221 20915
L18221 20903
L18209 20879
L18185 20867
L18149 20867
L18125 20855
L18113 20832
L18113 20820
L18125 20796
L18149 20784
L18185 20784
L18209 20796
" />
<path d="M17480 21851
L17337 21851
" />
<path d="M17409 21851
L17409 21601
L17385 21636
L17361 21660
L17337 21672
" />
<path d="M17706 21601
L17587 21601
L17575 21720
L17587 21708
L17611 21696
L17670 21696
L17694 21708
L17706 21720
L17718 21744
L17718 21803
L17706 21827
L17694 21839
L17670 21851
L17611 21851
L17587 21839
L17575 21827
" />
<path d="M17873 21601
L17897 21601
L17920 21613
L17932 21625
L17944 21648
L17956 21696
L17956 21755
L17944 21803
L17932 21827
L17920 21839
L17897 21851
L17873 21851
L17849 21839
L17837 21827
L17825 21803
L17813 21755
L17813 21696
L17825 21648
L17837 21625
L17849 21613
L17873 21601
" />
<path d="M18301 21601
L18349 21601
L18373 21613
L18397 21636
L18409 21684
L18409 21767
L18397 21815
L18373 21839
L18349 21851
L18301 21851
L18278 21839
L18254 21815
L18242 21767
L18242 21684
L18254 21636
L18278 21613
L18301 21601
" />
<path d="M18516 21851
L18516 21601
" />
<path d="M18623 21851
L18623 21720
L18611 21696
L18587 21684
L18551 21684
L18528 21696
L18516 21708
" />
<path d="M18742 21851
L18742 21684
" />
<path d="M18742 21708
L18754 21696
L18778 21684
L18813 21684
L18837 21696
L18849 21720
L18849 21851
" />
<path d="M18849 21720
L18861 21696
L18885 21684
L18921 21684
L18944 21696
L18956 21720
L18956 21851
" />
<path d="M19063 21839
L19087 21851
L19135 21851
L19159 21839
L19171 21815
L19171 21803
L19159 21779
L19135 21767
L19099 21767
L19075 21755
L19063 21732
L19063 21720
L19075 21696
L19099 21684
L19135 21684
L19159 21696
" />
<path d="M25374 6901
L25231 6901
" />
<path d="M25303 6901
L25303 6651
L25279 6686
L25255 6710
L25231 6722
" />
<path d="M25529 6651
L25553 6651
L25576 6663
L25588 6675
L25600 6698
L25612 6746
L25612 6805
L25600 6853
L25588 6877
L25576 6889
L25553 6901
L25529 6901
L25505 6889
L25493 6877
L25481 6853
L25469 6805
L25469 6746
L25481 6698
L25493 6675
L25505 6663
L25529 6651
" />
<path d="M25719 6901
L25719 6651
" />
<path d="M25862 6901
L25755 6758
" />
<path d="M25862 6651
L25719 6794
" />
<path d="M26207 6651
L26255 6651
L26279 6663
L26303 6686
L26315 6734
L26315 6817
L26303 6865
L26279 6889
L26255 6901
L26207 6901
L26184 6889
L26160 6865
L26148 6817
L26148 6734
L26160 6686
L26184 6663
L26207 6651
" />
<path d="M26422 6901
L26422 6651
" />
<path d="M26529 6901
L26529 6770
L26517 6746
L26493 6734
L26457 6734
L26434 6746
L26422 6758
" />
<path d="M26648 6901
L26648 6734
" />
<path d="M26648 6758
L26660 6746
L26684 6734
L26719 6734
L26743 6746
L26755 6770
L26755 6901
" />
<path d="M26755 6770
L26767 6746
L26791 6734
L26826 6734
L26850 6746
L26862 6770
L26862 6901
" />
<path d="M26969 6889
L26993 6901
L27041 6901
L27065 6889
L27076 6865
L27076 6853
L27065 6829
L27041 6817
L27005 6817
L26981 6805
L26969 6782
L26969 6770
L26981 6746
L27005 6734
L27041 6734
L27065 6746
" />
<path d="M20549 5501
L20406 5501
" />
<path d="M20478 5501
L20478 5251
L20454 5286
L20430 5310
L20406 5322
" />
<path d="M20704 5251
L20728 5251
L20751 5263
L20763 5275
L20775 5298
L20787 5346
L20787 5405
L20775 5453
L20763 5477
L20751 5489
L20728 5501
L20704 5501
L20680 5489
L20668 5477
L20656 5453
L20644 5405
L20644 5346
L20656 5298
L20668 5275
L20680 5263
L20704 5251
" />
<path d="M21132 5251
L21180 5251
L21204 5263
L21228 5286
L21240 5334
L21240 5417
L21228 5465
L21204 5489
L21180 5501
L21132 5501
L21109 5489
L21085 5465
L21073 5417
L21073 5334
L21085 5286
L21109 5263
L21132 5251
" />
<path d="M21347 5501
L21347 5251
" />
<path d="M21454 5501
L21454 5370
L21442 5346
L21418 5334
L21382 5334
L21359 5346
L21347 5358
" />
<path d="M21573 5501
L21573 5334
" />
<path d="M21573 5358
L21585 5346
L21609 5334
L21644 5334
L21668 5346
L21680 5370
L21680 5501
" />
<path d="M21680 5370
L21692 5346
L21716 5334
L21751 5334
L21775 5346
L21787 5370
L21787 5501
" />
<path d="M21894 5489
L21918 5501
L21966 5501
L21990 5489
L22001 5465
L22001 5453
L21990 5429
L21966 5417
L21930 5417
L21906 5405
L21894 5382
L21894 5370
L21906 5346
L21930 5334
L21966 5334
L21990 5346
" />
</g>
<g style="fill:#00A0A0; fill-opacity:0.0; 
stroke:#00A0A0; stroke-width:80; stroke-opacity:1; 
stroke-linecap:round; stroke-linejoin:round;">
<path d="M28571 31797
L28761 31797
" />
<path d="M28532 31911
L28666 31511
L28799 31911
" />
<path d="M29066 31702
L29123 31721
L29142 31740
L29161 31778
L29161 31835
L29142 31873
L29123 31892
L29085 31911
L28932 31911
L28932 31511
L29066 31511
L29104 31530
L29123 31550
L29142 31588
L29142 31626
L29123 31664
L29104 31683
L29066 31702
L28932 31702
" />
<path d="M29313 31892
L29371 31911
L29466 31911
L29504 31892
L29523 31873
L29542 31835
L29542 31797
L29523 31759
L29504 31740
L29466 31721
L29390 31702
L29351 31683
L29332 31664
L29313 31626
L29313 31588
L29332 31550
L29351 31530
L29390 31511
L29485 31511
L29542 31530
" />
<path d="M29999 31892
L30056 31911
L30151 31911
L30190 31892
L30209 31873
L30228 31835
L30228 31797
L30209 31759
L30190 31740
L30151 31721
L30075 31702
L30037 31683
L30018 31664
L29999 31626
L29999 31588
L30018 31550
L30037 31530
L30075 31511
L30171 31511
L30228 31530
" />
<path d="M30456 31911
L30418 31892
L30399 31854
L30399 31511
" />
<path d="M30780 31911
L30780 31702
L30761 31664
L30723 31645
L30647 31645
L30609 31664
" />
<path d="M30780 31892
L30742 31911
L30647 31911
L30609 31892
L30590 31854
L30590 31816
L30609 31778
L30647 31759
L30742 31759
L30780 31740
" />
<path d="M30932 31645
L31028 31911
L31123 31645
" />
<path d="M31428 31892
L31390 31911
L31313 31911
L31275 31892
L31256 31854
L31256 31702
L31275 31664
L31313 31645
L31390 31645
L31428 31664
L31447 31702
L31447 31740
L31256 31778
" />
<path d="M32056 31702
L32113 31721
L32132 31740
L32151 31778
L32151 31835
L32132 31873
L32113 31892
L32075 31911
L31923 31911
L31923 31511
L32056 31511
L32094 31530
L32113 31550
L32132 31588
L32132 31626
L32113 31664
L32094 31683
L32056 31702
L31923 31702
" />
<path d="M32494 31645
L32494 31911
" />
<path d="M32323 31645
L32323 31854
L32342 31892
L32380 31911
L32437 31911
L32475 31892
L32494 31873
" />
<path d="M32666 31892
L32704 31911
L32780 31911
L32818 31892
L32837 31854
L32837 31835
L32818 31797
L32780 31778
L32723 31778
L32685 31759
L32666 31721
L32666 31702
L32685 31664
L32723 31645
L32780 31645
L32818 31664
" />
<path d="M28571 29797
L28761 29797
" />
<path d="M28532 29911
L28666 29511
L28799 29911
" />
<path d="M29066 29702
L29123 29721
L29142 29740
L29161 29778
L29161 29835
L29142 29873
L29123 29892
L29085 29911
L28932 29911
L28932 29511
L29066 29511
L29104 29530
L29123 29550
L29142 29588
L29142 29626
L29123 29664
L29104 29683
L29066 29702
L28932 29702
" />
<path d="M29313 29892
L29371 29911
L29466 29911
L29504 29892
L29523 29873
L29542 29835
L29542 29797
L29523 29759
L29504 29740
L29466 29721
L29390 29702
L29351 29683
L29332 29664
L29313 29626
L29313 29588
L29332 29550
L29351 29530
L29390 29511
L29485 29511
L29542 29530
" />
<path d="M29999 29892
L30056 29911
L30151 29911
L30190 29892
L30209 29873
L30228 29835
L30228 29797
L30209 29759
L30190 29740
L30151 29721
L30075 29702
L30037 29683
L30018 29664
L29999 29626
L29999 29588
L30018 29550
L30037 29530
L30075 29511
L30171 29511
L30228 29530
" />
<path d="M30456 29911
L30418 29892
L30399 29854
L30399 29511
" />
<path d="M30780 29911
L30780 29702
L30761 29664
L30723 29645
L30647 29645
L30609 29664
" />
<path d="M30780 29892
L30742 29911
L30647 29911
L30609 29892
L30590 29854
L30590 29816
L30609 29778
L30647 29759
L30742 29759
L30780 29740
" />
<path d="M30932 29645
L31028 29911
L31123 29645
" />
<path d="M31428 29892
L31390 29911
L31313 29911
L31275 29892
L31256 29854
L31256 29702
L31275 29664
L31313 29645
L31390 29645
L31428 29664
L31447 29702
L31447 29740
L31256 29778
" />
<path d="M32056 29702
L32113 29721
L32132 29740
L32151 29778
L32151 29835
L32132 29873
L32113 29892
L32075 29911
L31923 29911
L31923 29511
L32056 29511
L32094 29530
L32113 29550
L32132 29588
L32132 29626
L32113 29664
L32094 29683
L32056 29702
L31923 29702
" />
<path d="M32494 29645
L32494 29911
" />
<path d="M32323 29645
L32323 29854
L32342 29892
L32380 29911
L32437 29911
L32475 29892
L32494 29873
" />
<path d="M32666 29892
L32704 29911
L32780 29911
L32818 29892
L32837 29854
L32837 29835
L32818 29797
L32780 29778
L32723 29778
L32685 29759
L32666 29721
L32666 29702
L32685 29664
L32723 29645
L32780 29645
L32818 29664
" />
<path d="M46866 13652
L46466 13652
L46866 13423
L46466 13423
" />
<path d="M46847 13080
L46866 13119
L46866 13195
L46847 13233
L46809 13252
L46656 13252
L46618 13233
L46599 13195
L46599 13119
L46618 13080
L46656 13061
L46694 13061
L46732 13252
" />
<path d="M46866 12928
L46599 12719
" />
<path d="M46599 12928
L46866 12719
" />
<path d="M46599 12623
L46599 12471
" />
<path d="M46466 12566
L46809 12566
L46847 12547
L46866 12509
L46866 12471
" />
<path d="M46656 12033
L46656 11900
" />
<path d="M46866 11842
L46866 12033
L46466 12033
L46466 11842
" />
<path d="M46866 11500
L46656 11500
L46618 11519
L46599 11557
L46599 11633
L46618 11671
" />
<path d="M46847 11500
L46866 11538
L46866 11633
L46847 11671
L46809 11690
L46770 11690
L46732 11671
L46713 11633
L46713 11538
L46694 11500
" />
<path d="M46847 11328
L46866 11290
L46866 11214
L46847 11176
L46809 11157
L46790 11157
L46751 11176
L46732 11214
L46732 11271
L46713 11309
L46675 11328
L46656 11328
L46618 11309
L46599 11271
L46599 11214
L46618 11176
" />
<path d="M46599 11042
L46599 10890
" />
<path d="M46466 10985
L46809 10985
L46847 10966
L46866 10928
L46866 10890
" />
<path d="M46866 18140
L46466 18140
L46866 17911
L46466 17911
" />
<path d="M46847 17569
L46866 17607
L46866 17683
L46847 17721
L46809 17740
L46656 17740
L46618 17721
L46599 17683
L46599 17607
L46618 17569
L46656 17549
L46694 17549
L46732 17740
" />
<path d="M46866 17416
L46599 17207
" />
<path d="M46599 17416
L46866 17207
" />
<path d="M46599 17111
L46599 16959
" />
<path d="M46466 17054
L46809 17054
L46847 17035
L46866 16997
L46866 16959
" />
<path d="M46466 16559
L46866 16464
L46580 16388
L46866 16311
L46466 16216
" />
<path d="M46847 15911
L46866 15950
L46866 16026
L46847 16064
L46809 16083
L46656 16083
L46618 16064
L46599 16026
L46599 15950
L46618 15911
L46656 15892
L46694 15892
L46732 16083
" />
<path d="M46847 15740
L46866 15702
L46866 15626
L46847 15588
L46809 15569
L46790 15569
L46751 15588
L46732 15626
L46732 15683
L46713 15721
L46675 15740
L46656 15740
L46618 15721
L46599 15683
L46599 15626
L46618 15588
" />
<path d="M46599 15454
L46599 15302
" />
<path d="M46466 15397
L46809 15397
L46847 15378
L46866 15340
L46866 15302
" />
</g>
<g style="fill:#00A0A0; fill-opacity:0.0; 
stroke:#00A0A0; stroke-width:120; stroke-opacity:1; 
stroke-linecap:round; stroke-linejoin:round;">
<path d="M15747 12421
L15147 12421
" />
<path d="M15347 12135
L15747 12135
" />
<path d="M15404 12135
L15375 12107
L15347 12050
L15347 11964
L15375 11907
L15432 11878
L15747 11878
" />
<path d="M15147 11221
L15147 10878
" />
<path d="M15747 11050
L15147 11050
" />
<path d="M15747 10678
L15347 10678
" />
<path d="M15461 10678
L15404 10649
L15375 10621
L15347 10564
L15347 10507
" />
<path d="M15747 10049
L15432 10049
L15375 10078
L15347 10135
L15347 10249
L15375 10307
" />
<path d="M15718 10049
L15747 10107
L15747 10249
L15718 10307
L15661 10335
L15604 10335
L15547 10307
L15518 10249
L15518 10107
L15490 10049
" />
<path d="M15718 9507
L15747 9564
L15747 9678
L15718 9735
L15690 9764
L15632 9792
L15461 9792
L15404 9764
L15375 9735
L15347 9678
L15347 9564
L15375 9507
" />
<path d="M15747 9249
L15147 9249
" />
<path d="M15518 9192
L15747 9021
" />
<path d="M15347 9021
L15575 9249
" />
<path d="M15147 8192
L15147 8078
L15175 8021
L15232 7964
L15347 7935
L15547 7935
L15661 7964
L15718 8021
L15747 8078
L15747 8192
L15718 8249
L15661 8307
L15547 8335
L15347 8335
L15232 8307
L15175 8249
L15147 8192
" />
<path d="M15347 7421
L15747 7421
" />
<path d="M15347 7678
L15661 7678
L15718 7649
L15747 7592
L15747 7507
L15718 7449
L15690 7421
" />
<path d="M15347 7221
L15347 6992
" />
<path d="M15147 7135
L15661 7135
L15718 7107
L15747 7050
L15747 6992
" />
</g>
<g style="fill:#00A0A0; fill-opacity:0.0; 
stroke:#00A0A0; stroke-width:59.0551; stroke-opacity:1; 
stroke-linecap:round; stroke-linejoin:round;">
<path d="M32792 14589
L33111 14589
L33149 14570
L33167 14551
L33186 14514
L33186 14439
L33167 14401
L33149 14383
L33111 14364
L32792 14364
" />
<path d="M33186 13970
L33186 14195
" />
<path d="M33186 14083
L32792 14083
L32849 14120
L32886 14158
L32905 14195
" />
<path d="M29210 15731
L28816 15731
L29097 15599
L28816 15468
L29210 15468
" />
<path d="M29003 15281
L29003 15149
" />
<path d="M29210 15093
L29210 15281
L28816 15281
L28816 15093
" />
<path d="M28816 14981
L28816 14756
" />
<path d="M29210 14868
L28816 14868
" />
<path d="M29210 14399
L29022 14531
" />
<path d="M29210 14624
L28816 14624
L28816 14474
L28835 14437
L28853 14418
L28891 14399
L28947 14399
L28985 14418
L29003 14437
L29022 14474
L29022 14624
" />
<path d="M28816 14156
L28816 14081
L28835 14043
L28872 14006
L28947 13987
L29078 13987
L29153 14006
L29191 14043
L29210 14081
L29210 14156
L29191 14193
L29153 14231
L29078 14249
L28947 14249
L28872 14231
L28835 14193
L28816 14156
" />
<path d="M29210 13818
L28816 13818
L29097 13687
L28816 13556
L29210 13556
" />
<path d="M29210 13368
L28816 13368
" />
<path d="M29210 13181
L28816 13181
L29210 12956
L28816 12956
" />
<path d="M29210 12768
L28816 12768
" />
<path d="M16446 12324
L16052 12324
L16052 12230
L16071 12174
L16108 12136
L16146 12117
L16221 12099
L16277 12099
L16352 12117
L16390 12136
L16427 12174
L16446 12230
L16446 12324
" />
<path d="M16446 11724
L16446 11949
" />
<path d="M16446 11836
L16052 11836
L16108 11874
L16146 11911
L16165 11949
" />
<path d="M16279 8655
L16298 8598
L16317 8580
L16354 8561
L16410 8561
L16448 8580
L16466 8598
L16485 8636
L16485 8786
L16092 8786
L16092 8655
L16110 8617
L16129 8598
L16167 8580
L16204 8580
L16242 8598
L16260 8617
L16279 8655
L16279 8786
" />
<path d="M16485 8167
L16298 8298
" />
<path d="M16485 8392
L16092 8392
L16092 8242
L16110 8205
L16129 8186
L16167 8167
L16223 8167
L16260 8186
L16279 8205
L16298 8242
L16298 8392
" />
<path d="M16485 7998
L16092 7998
" />
<path d="M16485 7811
L16092 7811
L16092 7717
L16110 7661
L16148 7624
L16185 7605
L16260 7586
L16317 7586
L16391 7605
L16429 7624
L16466 7661
L16485 7717
L16485 7811
" />
<path d="M16110 7211
L16092 7249
L16092 7305
L16110 7361
L16148 7399
L16185 7417
L16260 7436
L16317 7436
L16391 7417
L16429 7399
L16466 7361
L16485 7305
L16485 7267
L16466 7211
L16448 7192
L16317 7192
L16317 7267
" />
<path d="M16279 7024
L16279 6892
" />
<path d="M16485 6836
L16485 7024
L16092 7024
L16092 6836
" />
<path d="M16845 10079
L16845 9892
" />
<path d="M16958 10117
L16564 9986
L16958 9854
" />
<path d="M16920 9498
L16939 9517
L16958 9573
L16958 9611
L16939 9667
L16901 9705
L16864 9723
L16789 9742
L16733 9742
L16658 9723
L16620 9705
L16583 9667
L16564 9611
L16564 9573
L16583 9517
L16601 9498
" />
<path d="M16768 12931
L16768 12631
" />
<path d="M16808 6868
L16808 6568
" />
<path d="M16958 6718
L16658 6718
" />
</g>
<g style="fill:#00A0A0; fill-opacity:0.0; 
stroke:#00A0A0; stroke-width:80; stroke-opacity:1; 
stroke-linecap:round; stroke-linejoin:round;">
<path d="M17866 26045
L17466 26045
L17466 25949
L17485 25892
L17523 25854
L17561 25835
L17637 25816
L17694 25816
L17770 25835
L17809 25854
L17847 25892
L17866 25949
L17866 26045
" />
<path d="M17504 25664
L17485 25645
L17466 25607
L17466 25511
L17485 25473
L17504 25454
L17542 25435
L17580 25435
L17637 25454
L17866 25683
L17866 25435
" />
<path d="M22765 6952
L22765 6452
" />
<path d="M23236 6904
L23215 6928
L23150 6952
L23107 6952
L23043 6928
L23000 6880
L22979 6833
L22957 6738
L22957 6666
L22979 6571
L23000 6523
L23043 6476
L23107 6452
L23150 6452
L23215 6476
L23236 6500
" />
<path d="M23665 6952
L23407 6952
" />
<path d="M23536 6952
L23536 6452
L23493 6523
L23450 6571
L23407 6595
" />
<path d="M23406 10135
L22906 10135
L23263 10002
L22906 9869
L23406 9869
" />
<path d="M23359 9450
L23382 9469
L23406 9526
L23406 9564
L23382 9621
L23335 9659
L23287 9678
L23192 9697
L23120 9697
L23025 9678
L22978 9659
L22930 9621
L22906 9564
L22906 9526
L22930 9469
L22954 9450
" />
<path d="M22906 9335
L22906 9107
" />
<path d="M23406 9221
L22906 9221
" />
<path d="M22906 8802
L22906 8878
L22930 8916
L22954 8935
L23025 8973
L23120 8992
L23311 8992
L23359 8973
L23382 8954
L23406 8916
L23406 8840
L23382 8802
L23359 8783
L23311 8764
L23192 8764
L23144 8783
L23120 8802
L23097 8840
L23097 8916
L23120 8954
L23144 8973
L23192 8992
" />
<path d="M23406 8592
L22906 8592
" />
<path d="M23144 8592
L23144 8364
" />
<path d="M23406 8364
L22906 8364
" />
<path d="M33406 25592
L33811 25592
L33859 25571
L33882 25550
L33906 25507
L33906 25421
L33882 25378
L33859 25357
L33811 25335
L33406 25335
" />
<path d="M33454 25142
L33430 25121
L33406 25078
L33406 24971
L33430 24928
L33454 24907
L33501 24885
L33549 24885
L33620 24907
L33906 25164
L33906 24885
" />
<path d="M29366 25428
L29423 25452
L29518 25452
L29556 25428
L29575 25404
L29594 25357
L29594 25309
L29575 25261
L29556 25238
L29518 25214
L29442 25190
L29404 25166
L29385 25142
L29366 25095
L29366 25047
L29385 25000
L29404 24976
L29442 24952
L29537 24952
L29594 24976
" />
<path d="M29766 25452
L29766 24952
L29994 25452
L29994 24952
" />
<path d="M30147 24952
L30413 24952
L30242 25452
" />
<path d="M30756 24952
L30566 24952
L30547 25190
L30566 25166
L30604 25142
L30699 25142
L30737 25166
L30756 25190
L30775 25238
L30775 25357
L30756 25404
L30737 25428
L30699 25452
L30604 25452
L30566 25428
L30547 25404
" />
<path d="M31137 25452
L30947 25452
L30947 24952
" />
<path d="M31404 25190
L31461 25214
L31480 25238
L31499 25285
L31499 25357
L31480 25404
L31461 25428
L31423 25452
L31271 25452
L31271 24952
L31404 24952
L31442 24976
L31461 25000
L31480 25047
L31480 25095
L31461 25142
L31442 25166
L31404 25190
L31271 25190
" />
<path d="M31899 25404
L31880 25428
L31823 25452
L31785 25452
L31728 25428
L31690 25380
L31671 25333
L31651 25238
L31651 25166
L31671 25071
L31690 25023
L31728 24976
L31785 24952
L31823 24952
L31880 24976
L31899 25000
" />
<path d="M32280 25452
L32051 25452
" />
<path d="M32166 25452
L32166 24952
L32128 25023
L32090 25071
L32051 25095
" />
<path d="M32413 24952
L32680 24952
L32509 25452
" />
<path d="M32851 25452
L32928 25452
L32966 25428
L32985 25404
L33023 25333
L33042 25238
L33042 25047
L33023 25000
L33004 24976
L32966 24952
L32890 24952
L32851 24976
L32832 25000
L32813 25047
L32813 25166
L32832 25214
L32851 25238
L32890 25261
L32966 25261
L33004 25238
L33023 25214
L33042 25166
" />
</g>
<g style="fill:#00A0A0; fill-opacity:0.0; 
stroke:#00A0A0; stroke-width:120; stroke-opacity:1; 
stroke-linecap:round; stroke-linejoin:round;">
</g>
<g style="fill:#00A0A0; fill-opacity:0.0; 
stroke:#00A0A0; stroke-width:112.5; stroke-opacity:1; 
stroke-linecap:round; stroke-linejoin:round;">
<path d="M42347 12092
L42832 12092
L42890 12071
L42918 12050
L42947 12007
L42947 11921
L42918 11878
L42890 11857
L42832 11835
L42347 11835
" />
<path d="M42347 11664
L42347 11385
L42575 11535
L42575 11471
L42604 11428
L42632 11407
L42690 11385
L42832 11385
L42890 11407
L42918 11428
L42947 11471
L42947 11600
L42918 11642
L42890 11664
" />
</g>
<g style="fill:#00A0A0; fill-opacity:0.0; 
stroke:#00A0A0; stroke-width:120; stroke-opacity:1; 
stroke-linecap:round; stroke-linejoin:round;">
</g>
<g style="fill:#00A0A0; fill-opacity:0.0; 
stroke:#00A0A0; stroke-width:112.5; stroke-opacity:1; 
stroke-linecap:round; stroke-linejoin:round;">
<path d="M41347 16664
L41347 16407
" />
<path d="M41947 16535
L41347 16535
" />
<path d="M41947 15999
L41661 16149
" />
<path d="M41947 16257
L41347 16257
L41347 16085
L41375 16042
L41404 16021
L41461 15999
L41547 15999
L41604 16021
L41632 16042
L41661 16085
L41661 16257
" />
<path d="M41918 15828
L41947 15764
L41947 15657
L41918 15614
L41890 15592
L41832 15571
L41775 15571
L41718 15592
L41690 15614
L41661 15657
L41632 15742
L41604 15785
L41575 15807
L41518 15828
L41461 15828
L41404 15807
L41375 15785
L41347 15742
L41347 15635
L41375 15571
" />
<path d="M41404 15400
L41375 15378
L41347 15335
L41347 15228
L41375 15185
L41404 15164
L41461 15142
L41518 15142
L41604 15164
L41947 15421
L41947 15142
" />
<path d="M41347 14864
L41347 14821
L41375 14778
L41404 14757
L41461 14735
L41575 14714
L41718 14714
L41832 14735
L41890 14757
L41918 14778
L41947 14821
L41947 14864
L41918 14907
L41890 14928
L41832 14950
L41718 14971
L41575 14971
L41461 14950
L41404 14928
L41375 14907
L41347 14864
" />
<path d="M41404 14542
L41375 14521
L41347 14478
L41347 14371
L41375 14328
L41404 14307
L41461 14285
L41518 14285
L41604 14307
L41947 14564
L41947 14285
" />
<path d="M41632 14092
L41632 13942
" />
<path d="M41947 13878
L41947 14092
L41347 14092
L41347 13878
" />
</g>
<g style="fill:#00A0A0; fill-opacity:0.0; 
stroke:#00A0A0; stroke-width:120; stroke-opacity:1; 
stroke-linecap:round; stroke-linejoin:round;">
</g>
<g style="fill:#00A0A0; fill-opacity:0.0; 
stroke:#00A0A0; stroke-width:40; stroke-opacity:1; 
stroke-linecap:round; stroke-linejoin:round;">
<path d="M37390 11310
L37399 11320
L37390 11329
L37380 11320
L37390 11310
L37390 11329
" />
<path d="M37587 11329
L37474 11329
" />
<path d="M37530 11329
L37530 11132
L37512 11160
L37493 11179
L37474 11189
" />
<path d="M37905 11198
L37905 11329
" />
<path d="M37821 11198
L37821 11301
L37830 11320
L37849 11329
L37877 11329
L37896 11320
L37905 11310
" />
<path d="M37971 11198
L38046 11198
" />
<path d="M37999 11329
L37999 11160
L38008 11142
L38027 11132
L38046 11132
" />
<path d="M37390 14310
L37399 14320
L37390 14329
L37380 14320
L37390 14310
L37390 14329
" />
<path d="M37587 14329
L37474 14329
" />
<path d="M37530 14329
L37530 14132
L37512 14160
L37493 14179
L37474 14189
" />
<path d="M37905 14198
L37905 14329
" />
<path d="M37821 14198
L37821 14301
L37830 14320
L37849 14329
L37877 14329
L37896 14320
L37905 14310
" />
<path d="M37971 14198
L38046 14198
" />
<path d="M37999 14329
L37999 14160
L38008 14142
L38027 14132
L38046 14132
" />
<path d="M35890 11310
L35899 11320
L35890 11329
L35880 11320
L35890 11310
L35890 11329
" />
<path d="M36087 11329
L35974 11329
" />
<path d="M36030 11329
L36030 11132
L36012 11160
L35993 11179
L35974 11189
" />
<path d="M36405 11198
L36405 11329
" />
<path d="M36321 11198
L36321 11301
L36330 11320
L36349 11329
L36377 11329
L36396 11320
L36405 11310
" />
<path d="M36471 11198
L36546 11198
" />
<path d="M36499 11329
L36499 11160
L36508 11142
L36527 11132
L36546 11132
" />
<path d="M37390 16810
L37399 16820
L37390 16829
L37380 16820
L37390 16810
L37390 16829
" />
<path d="M37587 16829
L37474 16829
" />
<path d="M37530 16829
L37530 16632
L37512 16660
L37493 16679
L37474 16689
" />
<path d="M37905 16698
L37905 16829
" />
<path d="M37821 16698
L37821 16801
L37830 16820
L37849 16829
L37877 16829
L37896 16820
L37905 16810
" />
<path d="M37971 16698
L38046 16698
" />
<path d="M37999 16829
L37999 16660
L38008 16642
L38027 16632
L38046 16632
" />
<path d="M42265 8564
L42274 8554
L42284 8564
L42274 8573
L42265 8564
L42284 8564
" />
<path d="M42284 8367
L42284 8479
" />
<path d="M42284 8423
L42087 8423
L42115 8442
L42134 8460
L42143 8479
" />
<path d="M42152 8048
L42284 8048
" />
<path d="M42152 8132
L42255 8132
L42274 8123
L42284 8104
L42284 8076
L42274 8057
L42265 8048
" />
<path d="M42152 7982
L42152 7907
" />
<path d="M42284 7954
L42115 7954
L42096 7945
L42087 7926
L42087 7907
" />
</g>
<g style="fill:#00A0A0; fill-opacity:0.0; 
stroke:#00A0A0; stroke-width:80; stroke-opacity:1; 
stroke-linecap:round; stroke-linejoin:round;">
<path d="M11485 24711
L11751 24711
L11580 25111
" />
<path d="M11904 24959
L12209 24959
" />
<path d="M12609 25111
L12380 25111
" />
<path d="M12494 25111
L12494 24711
L12456 24769
L12418 24807
L12380 24826
" />
<path d="M12761 24750
L12780 24730
L12818 24711
L12913 24711
L12951 24730
L12971 24750
L12990 24788
L12990 24826
L12971 24883
L12742 25111
L12990 25111
" />
<path d="M13409 24711
L13542 25111
L13675 24711
" />
<path d="M14113 25111
L14113 24711
L14266 24711
L14304 24730
L14323 24750
L14342 24788
L14342 24845
L14323 24883
L14304 24902
L14266 24921
L14113 24921
" />
<path d="M14571 25111
L14532 25092
L14513 25073
L14494 25035
L14494 24921
L14513 24883
L14532 24864
L14571 24845
L14628 24845
L14666 24864
L14685 24883
L14704 24921
L14704 25035
L14685 25073
L14666 25092
L14628 25111
L14571 25111
" />
<path d="M14837 24845
L14913 25111
L14990 24921
L15066 25111
L15142 24845
" />
<path d="M15447 25092
L15409 25111
L15332 25111
L15294 25092
L15275 25054
L15275 24902
L15294 24864
L15332 24845
L15409 24845
L15447 24864
L15466 24902
L15466 24940
L15275 24978
" />
<path d="M15637 25111
L15637 24845
" />
<path d="M15637 24921
L15656 24883
L15675 24864
L15713 24845
L15751 24845
" />
<path d="M16323 24902
L16380 24921
L16399 24940
L16418 24978
L16418 25035
L16399 25073
L16380 25092
L16342 25111
L16190 25111
L16190 24711
L16323 24711
L16361 24730
L16380 24750
L16399 24788
L16399 24826
L16380 24864
L16361 24883
L16323 24902
L16190 24902
" />
<path d="M16761 24845
L16761 25111
" />
<path d="M16590 24845
L16590 25054
L16609 25092
L16647 25111
L16704 25111
L16742 25092
L16761 25073
" />
<path d="M16932 25092
L16970 25111
L17047 25111
L17085 25092
L17104 25054
L17104 25035
L17085 24997
L17047 24978
L16990 24978
L16951 24959
L16932 24921
L16932 24902
L16951 24864
L16990 24845
L17047 24845
L17085 24864
" />
</g>
<g style="fill:#00A0A0; fill-opacity:0.0; 
stroke:#00A0A0; stroke-width:120; stroke-opacity:1; 
stroke-linecap:round; stroke-linejoin:round;">
</g>
<g style="fill:#00A0A0; fill-opacity:0.0; 
stroke:#00A0A0; stroke-width:112.5; stroke-opacity:1; 
stroke-linecap:round; stroke-linejoin:round;">
<path d="M19104 30464
L19168 30492
L19275 30492
L19318 30464
L19340 30435
L19361 30378
L19361 30321
L19340 30264
L19318 30235
L19275 30207
L19190 30178
L19147 30150
L19125 30121
L19104 30064
L19104 30007
L19125 29950
L19147 29921
L19190 29892
L19297 29892
L19361 29921
" />
<path d="M19511 29892
L19618 30492
L19704 30064
L19790 30492
L19897 29892
" />
<path d="M20304 30492
L20047 30492
" />
<path d="M20175 30492
L20175 29892
L20132 29978
L20090 30035
L20047 30064
" />
</g>
<g style="fill:#00A0A0; fill-opacity:0.0; 
stroke:#00A0A0; stroke-width:120; stroke-opacity:1; 
stroke-linecap:round; stroke-linejoin:round;">
</g>
<g style="fill:#00A0A0; fill-opacity:0.0; 
stroke:#00A0A0; stroke-width:78.7402; stroke-opacity:1; 
stroke-linecap:round; stroke-linejoin:round;">
<path d="M18495 27953
L18551 27971
L18570 27990
L18589 28028
L18589 28084
L18570 28121
L18551 28140
L18514 28159
L18364 28159
L18364 27765
L18495 27765
L18532 27784
L18551 27803
L18570 27840
L18570 27878
L18551 27915
L18532 27934
L18495 27953
L18364 27953
" />
<path d="M18982 28121
L18964 28140
L18907 28159
L18870 28159
L18814 28140
L18776 28103
L18757 28065
L18739 27990
L18739 27934
L18757 27859
L18776 27821
L18814 27784
L18870 27765
L18907 27765
L18964 27784
L18982 27803
" />
<path d="M19676 28121
L19657 28140
L19601 28159
L19564 28159
L19507 28140
L19470 28103
L19451 28065
L19432 27990
L19432 27934
L19451 27859
L19470 27821
L19507 27784
L19564 27765
L19601 27765
L19657 27784
L19676 27803
" />
<path d="M19826 28046
L20013 28046
" />
<path d="M19788 28159
L19920 27765
L20051 28159
" />
<path d="M20857 27765
L20895 27765
L20932 27784
L20951 27803
L20970 27840
L20988 27915
L20988 28009
L20970 28084
L20951 28121
L20932 28140
L20895 28159
L20857 28159
L20820 28140
L20801 28121
L20782 28084
L20763 28009
L20763 27915
L20782 27840
L20801 27803
L20820 27784
L20857 27765
" />
<path d="M21963 28159
L21738 28159
" />
<path d="M21851 28159
L21851 27765
L21813 27821
L21776 27859
L21738 27878
" />
<path d="M22713 27803
L22732 27784
L22769 27765
L22863 27765
L22901 27784
L22919 27803
L22938 27840
L22938 27878
L22919 27934
L22694 28159
L22938 28159
" />
<path d="M23669 27765
L23913 27765
L23782 27915
L23838 27915
L23875 27934
L23894 27953
L23913 27990
L23913 28084
L23894 28121
L23875 28140
L23838 28159
L23726 28159
L23688 28140
L23669 28121
" />
<path d="M24850 27896
L24850 28159
" />
<path d="M24757 27746
L24663 28028
L24907 28028
" />
<path d="M25844 27765
L25657 27765
L25638 27953
L25657 27934
L25694 27915
L25788 27915
L25825 27934
L25844 27953
L25863 27990
L25863 28084
L25844 28121
L25825 28140
L25788 28159
L25694 28159
L25657 28140
L25638 28121
" />
<path d="M13785 31809
L14085 31809
" />
<path d="M14535 31565
L14798 31565
L14629 31959
" />
<path d="M14948 31809
L15248 31809
" />
<path d="M15641 31959
L15416 31959
" />
<path d="M15529 31959
L15529 31565
L15491 31621
L15454 31659
L15416 31678
" />
<path d="M15791 31603
L15810 31584
L15848 31565
L15941 31565
L15979 31584
L15998 31603
L16016 31640
L16016 31678
L15998 31734
L15773 31959
L16016 31959
" />
<path d="M16129 31565
L16260 31959
L16391 31565
" />
<path d="M16822 31809
L17122 31809
" />
<path d="M16972 31959
L16972 31659
" />
</g>
<g style="fill:#00A0A0; fill-opacity:0.0; 
stroke:#00A0A0; stroke-width:120; stroke-opacity:1; 
stroke-linecap:round; stroke-linejoin:round;">
<path d="M13704 23250
L12704 23250
" />
<path d="M12704 23250
L12704 15250
" />
<path d="M12704 15250
L13704 15250
" />
<path d="M13704 15250
L13704 23250
" />
<path d="M13704 22250
L12704 22250
" />
</g>
<g style="fill:#00A0A0; fill-opacity:0.0; 
stroke:#00A0A0; stroke-width:150; stroke-opacity:1; 
stroke-linecap:round; stroke-linejoin:round;">
<path d="M14704 16750
L15704 16750
" />
<circle cx="14704.3" cy="16750" r="559.017" /> 
<path d="M15704 17750
L16704 17750
" />
<circle cx="15704.3" cy="17750" r="559.017" /> 
<path d="M14704 18750
L15704 18750
" />
<circle cx="14704.3" cy="18750" r="559.017" /> 
<path d="M15704 19750
L16704 19750
" />
<circle cx="15704.3" cy="19750" r="559.017" /> 
<path d="M14704 20750
L15704 20750
" />
<circle cx="14704.3" cy="20750" r="559.017" /> 
<path d="M15704 21750
L16704 21750
" />
<circle cx="15704.3" cy="21750" r="559.017" /> 
<path d="M26204 7750
L26204 8750
" />
<circle cx="26204.3" cy="7750" r="559.017" /> 
<path d="M20704 6250
L21704 6250
" />
<circle cx="20704.3" cy="6250" r="559.017" /> 
</g>
<g style="fill:#00A0A0; fill-opacity:0.0; 
stroke:#00A0A0; stroke-width:120; stroke-opacity:1; 
stroke-linecap:round; stroke-linejoin:round;">
<path d="M33204 31250
L33204 30250
" />
<path d="M28204 30250
L28204 31250
" />
<path d="M33204 31250
L28204 31250
" />
<path d="M28204 30250
L33204 30250
" />
<path d="M33204 29250
L33204 28250
" />
<path d="M28204 28250
L28204 29250
" />
<path d="M33204 29250
L28204 29250
" />
<path d="M28204 28250
L33204 28250
" />
</g>
<g style="fill:#00A0A0; fill-opacity:0.0; 
stroke:#00A0A0; stroke-width:100; stroke-opacity:1; 
stroke-linecap:round; stroke-linejoin:round;">
<path d="M45204 14250
L45204 10250
" />
<path d="M46204 14250
L46204 10250
" />
<path d="M46204 10250
L45204 10250
" />
<path d="M45204 14250
L46204 14250
" />
<path d="M45204 18750
L45204 14750
" />
<path d="M46204 18750
L46204 14750
" />
<path d="M46204 14750
L45204 14750
" />
<path d="M45204 18750
L46204 18750
" />
<path d="M11704 7750
L11404 7750
" />
<path d="M11404 7750
L11404 11750
" />
<path d="M11404 11750
L11704 11750
" />
<path d="M15004 7750
L15004 11750
" />
<path d="M15004 11750
L14604 11750
" />
<path d="M14604 11750
L14604 7750
" />
<path d="M14604 7750
L15004 7750
" />
<path d="M14704 7750
L11704 7750
" />
<path d="M11704 11750
L14704 11750
" />
</g>
<g style="fill:#00A0A0; fill-opacity:0.0; 
stroke:#00A0A0; stroke-width:59.0551; stroke-opacity:1; 
stroke-linecap:round; stroke-linejoin:round;">
<path d="M34208 5746
L34208 22753
" />
<path d="M34208 22753
L27200 22753
" />
<path d="M27200 22753
L27200 5746
" />
<path d="M27200 5746
L34208 5746
" />
<path d="M18491 6009
L18491 13490
" />
<path d="M18491 13490
L16031 13490
" />
<path d="M16031 13490
L16031 6009
" />
<path d="M16031 6009
L18491 6009
" />
<path d="M18491 6009
L18491 5970
" />
</g>
<g style="fill:#00A0A0; fill-opacity:0.0; 
stroke:#00A0A0; stroke-width:125; stroke-opacity:1; 
stroke-linecap:round; stroke-linejoin:round;">
<path d="M17704 24950
L17704 24250
" />
<path d="M17704 26550
L17704 27250
" />
<path d="M17304 25150
L18104 25150
" />
<path d="M17304 26550
L18104 26550
" />
<path d="M18104 26550
L18104 24950
" />
<path d="M18104 24950
L17304 24950
" />
<path d="M17304 24950
L17304 26550
" />
</g>
<g style="fill:#00A0A0; fill-opacity:0.0; 
stroke:#00A0A0; stroke-width:100; stroke-opacity:1; 
stroke-linecap:round; stroke-linejoin:round;">
<path d="M23704 7250
L23704 7750
" />
<path d="M23704 7750
L22704 7750
" />
<path d="M22704 7750
L22704 7250
" />
<path d="M24204 7250
L24204 11250
" />
<path d="M24204 11250
L22204 11250
" />
<path d="M22204 11250
L22204 7250
" />
<path d="M22204 7250
L24204 7250
" />
<path d="M33204 25750
L32704 25750
" />
<path d="M32704 25750
L32704 24750
" />
<path d="M32704 24750
L33204 24750
" />
<path d="M33204 26250
L29204 26250
" />
<path d="M29204 26250
L29204 24250
" />
<path d="M29204 24250
L33204 24250
" />
<path d="M33204 24250
L33204 26250
" />
</g>
<g style="fill:#00A0A0; fill-opacity:0.0; 
stroke:#00A0A0; stroke-width:150; stroke-opacity:1; 
stroke-linecap:round; stroke-linejoin:round;">
<path d="M42704 9750
L42704 9750
" />
<path d="M42704 9750
L42704 10250
" />
<path d="M42704 10250
L41704 10250
" />
<path d="M41704 10250
L41704 9750
" />
<path d="M43204 9750
L43204 18750
" />
<path d="M43204 18750
L41204 18750
" />
<path d="M41204 18750
L41204 9750
" />
<path d="M41204 9750
L43204 9750
" />
</g>
<g style="fill:#00A0A0; fill-opacity:0.0; 
stroke:#00A0A0; stroke-width:120; stroke-opacity:1; 
stroke-linecap:round; stroke-linejoin:round;">
<path d="M38204 10270
L38204 12250
" />
<path d="M38204 12250
L37204 12250
" />
<path d="M37204 12250
L37204 10250
" />
<path d="M37204 10250
L38204 10250
" />
<path d="M37954 10250
L38204 10500
" />
<path d="M38204 13270
L38204 15250
" />
<path d="M38204 15250
L37204 15250
" />
<path d="M37204 15250
L37204 13250
" />
<path d="M37204 13250
L38204 13250
" />
<path d="M37954 13250
L38204 13500
" />
<path d="M36704 10270
L36704 12250
" />
<path d="M36704 12250
L35704 12250
" />
<path d="M35704 12250
L35704 10250
" />
<path d="M35704 10250
L36704 10250
" />
<path d="M36454 10250
L36704 10500
" />
<path d="M38204 15770
L38204 17750
" />
<path d="M38204 17750
L37204 17750
" />
<path d="M37204 17750
L37204 15750
" />
<path d="M37204 15750
L38204 15750
" />
<path d="M37954 15750
L38204 16000
" />
<path d="M43184 8750
L41204 8750
" />
<path d="M41204 8750
L41204 7750
" />
<path d="M41204 7750
L43204 7750
" />
<path d="M43204 7750
L43204 8750
" />
<path d="M43204 8500
L42954 8750
" />
</g>
<g style="fill:#00A0A0; fill-opacity:0.0; 
stroke:#00A0A0; stroke-width:150; stroke-opacity:1; 
stroke-linecap:round; stroke-linejoin:round;">
<path d="M11129 25478
L11129 29022
" />
<path d="M9751 25478
L9751 29022
" />
<path d="M9751 29022
L15657 29022
" />
<path d="M15657 29021
L15657 25478
" />
<path d="M15657 25478
L9751 25478
" />
<path d="M17704 30250
L17704 30250
" />
<path d="M17704 30250
L18204 30250
" />
<path d="M18204 30250
L18204 31250
" />
<path d="M18204 31250
L17704 31250
" />
<path d="M17704 29750
L26704 29750
" />
<path d="M26704 29750
L26704 31750
" />
<path d="M26704 31750
L17704 31750
" />
<path d="M17704 31750
L17704 29750
" />
</g>
<g style="fill:#00A0A0; fill-opacity:0.0; 
stroke:#00A0A0; stroke-width:100; stroke-opacity:1; 
stroke-linecap:round; stroke-linejoin:round;">
<path d="M13454 31000
L13454 31300
" />
<path d="M13454 31300
L17454 31300
" />
<path d="M17454 31300
L17454 31000
" />
<path d="M13454 27700
L17454 27700
" />
<path d="M17454 27700
L17454 28100
" />
<path d="M17454 28100
L13454 28100
" />
<path d="M13454 28100
L13454 27700
" />
<path d="M13454 28000
L13454 31000
" />
<path d="M17454 31000
L17454 28000
" />
</g>
<g style="fill:#808000; fill-opacity:0.0; 
stroke:#808000; stroke-width:39.3701; stroke-opacity:1; 
stroke-linecap:round; stroke-linejoin:round;">
</g>
<g style="fill:#808000; fill-opacity:1.0; 
stroke:#808000; stroke-width:39.3701; stroke-opacity:1; 
stroke-linecap:round; stroke-linejoin:round;">
<polyline style="fill-rule:evenodd;"
points="13484,23030
12924,23030
12924,22469
13484,22469
13484,23030
" /> 
<circle cx="13204.3" cy="21750" r="280.315" /> 
<circle cx="13204.3" cy="20750" r="280.315" /> 
<circle cx="13204.3" cy="19750" r="280.315" /> 
<circle cx="13204.3" cy="18750" r="280.315" /> 
<circle cx="13204.3" cy="17750" r="280.315" /> 
<circle cx="13204.3" cy="16750" r="280.315" /> 
<circle cx="13204.3" cy="15750" r="280.315" /> 
<circle cx="14704.3" cy="16750" r="255.315" /> 
<circle cx="15704.3" cy="16750" r="255.315" /> 
<circle cx="15704.3" cy="17750" r="255.315" /> 
<circle cx="16704.3" cy="17750" r="255.315" /> 
<circle cx="14704.3" cy="18750" r="255.315" /> 
<circle cx="15704.3" cy="18750" r="255.315" /> 
<circle cx="15704.3" cy="19750" r="255.315" /> 
<circle cx="16704.3" cy="19750" r="255.315" /> 
<circle cx="14704.3" cy="20750" r="255.315" /> 
<circle cx="15704.3" cy="20750" r="255.315" /> 
<circle cx="15704.3" cy="21750" r="255.315" /> 
<circle cx="16704.3" cy="21750" r="255.315" /> 
<circle cx="26204.3" cy="7750" r="255.315" /> 
<circle cx="26204.3" cy="8750" r="255.315" /> 
<circle cx="20704.3" cy="6250" r="255.315" /> 
<circle cx="21704.3" cy="6250" r="255.315" /> 
<polyline style="fill-rule:evenodd;"
points="32984,30469
32984,31030
32424,31030
32424,30469
32984,30469
" /> 
<circle cx="31704.3" cy="30750" r="280.315" /> 
<circle cx="30704.3" cy="30750" r="280.315" /> 
<circle cx="29704.3" cy="30750" r="280.315" /> 
<circle cx="28704.3" cy="30750" r="280.315" /> 
<polyline style="fill-rule:evenodd;"
points="32984,28469
32984,29030
32424,29030
32424,28469
32984,28469
" /> 
<circle cx="31704.3" cy="28750" r="280.315" /> 
<circle cx="30704.3" cy="28750" r="280.315" /> 
<circle cx="29704.3" cy="28750" r="280.315" /> 
<circle cx="28704.3" cy="28750" r="280.315" /> 
<polyline style="fill-rule:evenodd;"
points="45424,10469
45984,10469
45984,11030
45424,11030
45424,10469
" /> 
<circle cx="45704.3" cy="11750" r="280.315" /> 
<circle cx="45704.3" cy="12750" r="280.315" /> 
<circle cx="45704.3" cy="13750" r="280.315" /> 
<polyline style="fill-rule:evenodd;"
points="45424,14969
45984,14969
45984,15530
45424,15530
45424,14969
" /> 
<circle cx="45704.3" cy="16250" r="280.315" /> 
<circle cx="45704.3" cy="17250" r="280.315" /> 
<circle cx="45704.3" cy="18250" r="280.315" /> 
<polyline style="fill-rule:evenodd;"
points="13775,11320
12633,11320
12633,10179
13775,10179
13775,11320
" /> 
<circle cx="13204.3" cy="8750" r="570.815" /> 
<circle cx="33454.3" cy="6500" r="413.386" /> 
<circle cx="27954.3" cy="6500" r="413.386" /> 
<circle cx="33454.3" cy="22000" r="413.386" /> 
<circle cx="27954.3" cy="22000" r="413.386" /> 
<circle cx="33708.3" cy="13750" r="280.315" /> 
<circle cx="33708.3" cy="12750" r="280.315" /> 
<circle cx="33708.3" cy="11750" r="280.315" /> 
<circle cx="33708.3" cy="10750" r="280.315" /> 
<circle cx="33708.3" cy="9750" r="280.315" /> 
<circle cx="33708.3" cy="8750" r="280.315" /> 
<polyline style="fill-rule:evenodd;"
points="33427,7469
33988,7469
33988,8030
33427,8030
33427,7469
" /> 
<circle cx="33708.3" cy="14750" r="280.315" /> 
<circle cx="33708.3" cy="15750" r="280.315" /> 
<circle cx="33708.3" cy="16750" r="280.315" /> 
<circle cx="33708.3" cy="17750" r="280.315" /> 
<circle cx="33708.3" cy="18750" r="280.315" /> 
<circle cx="33708.3" cy="19750" r="280.315" /> 
<circle cx="33708.3" cy="20750" r="280.315" /> 
<circle cx="27700.4" cy="20750" r="280.315" /> 
<circle cx="27700.4" cy="19750" r="280.315" /> 
<circle cx="27700.4" cy="18750" r="280.315" /> 
<circle cx="27700.4" cy="17750" r="280.315" /> 
<circle cx="27700.4" cy="16750" r="280.315" /> 
<circle cx="27700.4" cy="15750" r="280.315" /> 
<circle cx="27700.4" cy="14750" r="280.315" /> 
<circle cx="27700.4" cy="13750" r="280.315" /> 
<circle cx="27700.4" cy="12750" r="280.315" /> 
<circle cx="27700.4" cy="11750" r="280.315" /> 
<circle cx="27700.4" cy="10750" r="280.315" /> 
<circle cx="27700.4" cy="9750" r="280.315" /> 
<circle cx="27700.4" cy="8750" r="280.315" /> 
<circle cx="27700.4" cy="7750" r="280.315" /> 
<polyline style="fill-rule:evenodd;"
points="17224,6257
18184,6257
18184,7218
17224,7218
17224,6257
" /> 
<circle cx="17704.3" cy="8746.06" r="480.315" /> 
<circle cx="17704.3" cy="10753.9" r="480.315" /> 
<circle cx="17704.3" cy="12761.8" r="480.315" /> 
<polyline style="fill-rule:evenodd;"
points="17964,24510
17444,24510
17444,23989
17964,23989
17964,24510
" /> 
<circle cx="17704.3" cy="27250" r="260.315" /> 
<polyline style="fill-rule:evenodd;"
points="21449,7494
21959,7494
21959,8005
21449,8005
21449,7494
" /> 
<circle cx="21704.3" cy="8750" r="255.315" /> 
<circle cx="21704.3" cy="9750" r="255.315" /> 
<circle cx="21704.3" cy="10750" r="255.315" /> 
<circle cx="24704.3" cy="10750" r="255.315" /> 
<circle cx="24704.3" cy="9750" r="255.315" /> 
<circle cx="24704.3" cy="8750" r="255.315" /> 
<circle cx="24704.3" cy="7750" r="255.315" /> 
<polyline style="fill-rule:evenodd;"
points="32959,23494
32959,24005
32449,24005
32449,23494
32959,23494
" /> 
<circle cx="31704.3" cy="23750" r="255.315" /> 
<circle cx="30704.3" cy="23750" r="255.315" /> 
<circle cx="29704.3" cy="23750" r="255.315" /> 
<circle cx="29704.3" cy="26750" r="255.315" /> 
<circle cx="30704.3" cy="26750" r="255.315" /> 
<circle cx="31704.3" cy="26750" r="255.315" /> 
<circle cx="32704.3" cy="26750" r="255.315" /> 
<polyline style="fill-rule:evenodd;"
points="40449,10494
40959,10494
40959,11005
40449,11005
40449,10494
" /> 
<circle cx="40704.3" cy="11750" r="255.315" /> 
<circle cx="40704.3" cy="12750" r="255.315" /> 
<circle cx="40704.3" cy="13750" r="255.315" /> 
<circle cx="40704.3" cy="14750" r="255.315" /> 
<circle cx="40704.3" cy="15750" r="255.315" /> 
<circle cx="40704.3" cy="16750" r="255.315" /> 
<circle cx="40704.3" cy="17750" r="255.315" /> 
<circle cx="43704.3" cy="17750" r="255.315" /> 
<circle cx="43704.3" cy="16750" r="255.315" /> 
<circle cx="43704.3" cy="15750" r="255.315" /> 
<circle cx="43704.3" cy="14750" r="255.315" /> 
<circle cx="43704.3" cy="13750" r="255.315" /> 
<circle cx="43704.3" cy="12750" r="255.315" /> 
<circle cx="43704.3" cy="11750" r="255.315" /> 
<circle cx="43704.3" cy="10750" r="255.315" /> 
<circle cx="37704.3" cy="10750" r="255.315" /> 
<circle cx="37704.3" cy="11750" r="255.315" /> 
<circle cx="37704.3" cy="13750" r="255.315" /> 
<circle cx="37704.3" cy="14750" r="255.315" /> 
<circle cx="36204.3" cy="10750" r="255.315" /> 
<circle cx="36204.3" cy="11750" r="255.315" /> 
<circle cx="37704.3" cy="16250" r="255.315" /> 
<circle cx="37704.3" cy="17250" r="255.315" /> 
<circle cx="42704.3" cy="8250" r="255.315" /> 
<circle cx="41704.3" cy="8250" r="255.315" /> 
<polyline style="fill-rule:evenodd;"
points="14475,28017
14475,26482
15814,26482
15814,28017
14475,28017
" /> 
<polyline style="fill-rule:evenodd;"
points="12113,27919
12113,26580
13452,26580
13452,27919
12113,27919
" /> 
<polyline style="fill-rule:evenodd;"
points="18449,32505
18449,31994
18959,31994
18959,32505
18449,32505
" /> 
<circle cx="19704.3" cy="32250" r="255.315" /> 
<circle cx="20704.3" cy="32250" r="255.315" /> 
<circle cx="21704.3" cy="32250" r="255.315" /> 
<circle cx="22704.3" cy="32250" r="255.315" /> 
<circle cx="23704.3" cy="32250" r="255.315" /> 
<circle cx="24704.3" cy="32250" r="255.315" /> 
<circle cx="25704.3" cy="32250" r="255.315" /> 
<circle cx="25704.3" cy="29250" r="255.315" /> 
<circle cx="24704.3" cy="29250" r="255.315" /> 
<circle cx="23704.3" cy="29250" r="255.315" /> 
<circle cx="22704.3" cy="29250" r="255.315" /> 
<circle cx="21704.3" cy="29250" r="255.315" /> 
<circle cx="20704.3" cy="29250" r="255.315" /> 
<circle cx="19704.3" cy="29250" r="255.315" /> 
<circle cx="18704.3" cy="29250" r="255.315" /> 
<polyline style="fill-rule:evenodd;"
points="17025,28929
17025,30070
15883,30070
15883,28929
17025,28929
" /> 
<circle cx="14454.3" cy="29500" r="570.815" /> 
</g> 
</svg>
