<?xml version="1.0" standalone="no"?>
 <!DOCTYPE svg PUBLIC "-//W3C//DTD SVG 1.1//EN" 
 "http://www.w3.org/Graphics/SVG/1.1/DTD/svg11.dtd"> 
<svg xmlns="http://www.w3.org/2000/svg" version="1.1" 
    width="14.8539cm" height="9.66724cm" viewBox="0 0 58480 38060 ">
<title>SVG Picture created as MetroMiniABSBiDir-noCANSlave-F_Cu.svg date 2018/07/26 16:45:05 </title>
  <desc>Picture generated by PCBNEW </desc>
<g style="fill:#000000; fill-opacity:1;stroke:#000000; stroke-opacity:1;
stroke-linecap:round; stroke-linejoin:round; "
 transform="translate(0 0) scale(1 1)">
</g>
<g style="fill:#FFFF00; fill-opacity:0.0; 
stroke:#FFFF00; stroke-width:39.3701; stroke-opacity:1; 
stroke-linecap:round; stroke-linejoin:round;">
<path d="M47204 33250
L11204 33250
" />
<path d="M47204 750
L47204 33250
" />
<path d="M11204 750
L47204 750
" />
<path d="M11204 33250
L11204 750
" />
</g>
<g style="fill:#808000; fill-opacity:0.0; 
stroke:#808000; stroke-width:39.3701; stroke-opacity:1; 
stroke-linecap:round; stroke-linejoin:round;">
</g>
<g style="fill:#808000; fill-opacity:1.0; 
stroke:#808000; stroke-width:39.3701; stroke-opacity:1; 
stroke-linecap:round; stroke-linejoin:round;">
<polyline style="fill-rule:evenodd;"
points="13484,23030
12924,23030
12924,22469
13484,22469
13484,23030
" /> 
<circle cx="13204.3" cy="21750" r="280.315" /> 
<circle cx="13204.3" cy="20750" r="280.315" /> 
<circle cx="13204.3" cy="19750" r="280.315" /> 
<circle cx="13204.3" cy="18750" r="280.315" /> 
<circle cx="13204.3" cy="17750" r="280.315" /> 
<circle cx="13204.3" cy="16750" r="280.315" /> 
<circle cx="13204.3" cy="15750" r="280.315" /> 
<circle cx="14704.3" cy="16750" r="255.315" /> 
<circle cx="15704.3" cy="16750" r="255.315" /> 
<circle cx="15704.3" cy="17750" r="255.315" /> 
<circle cx="16704.3" cy="17750" r="255.315" /> 
<circle cx="14704.3" cy="18750" r="255.315" /> 
<circle cx="15704.3" cy="18750" r="255.315" /> 
<circle cx="15704.3" cy="19750" r="255.315" /> 
<circle cx="16704.3" cy="19750" r="255.315" /> 
<circle cx="14704.3" cy="20750" r="255.315" /> 
<circle cx="15704.3" cy="20750" r="255.315" /> 
<circle cx="15704.3" cy="21750" r="255.315" /> 
<circle cx="16704.3" cy="21750" r="255.315" /> 
<circle cx="26204.3" cy="7750" r="255.315" /> 
<circle cx="26204.3" cy="8750" r="255.315" /> 
<circle cx="20704.3" cy="6250" r="255.315" /> 
<circle cx="21704.3" cy="6250" r="255.315" /> 
<polyline style="fill-rule:evenodd;"
points="32984,30469
32984,31030
32424,31030
32424,30469
32984,30469
" /> 
<circle cx="31704.3" cy="30750" r="280.315" /> 
<circle cx="30704.3" cy="30750" r="280.315" /> 
<circle cx="29704.3" cy="30750" r="280.315" /> 
<circle cx="28704.3" cy="30750" r="280.315" /> 
<polyline style="fill-rule:evenodd;"
points="32984,28469
32984,29030
32424,29030
32424,28469
32984,28469
" /> 
<circle cx="31704.3" cy="28750" r="280.315" /> 
<circle cx="30704.3" cy="28750" r="280.315" /> 
<circle cx="29704.3" cy="28750" r="280.315" /> 
<circle cx="28704.3" cy="28750" r="280.315" /> 
<polyline style="fill-rule:evenodd;"
points="45424,10469
45984,10469
45984,11030
45424,11030
45424,10469
" /> 
<circle cx="45704.3" cy="11750" r="280.315" /> 
<circle cx="45704.3" cy="12750" r="280.315" /> 
<circle cx="45704.3" cy="13750" r="280.315" /> 
<polyline style="fill-rule:evenodd;"
points="45424,14969
45984,14969
45984,15530
45424,15530
45424,14969
" /> 
<circle cx="45704.3" cy="16250" r="280.315" /> 
<circle cx="45704.3" cy="17250" r="280.315" /> 
<circle cx="45704.3" cy="18250" r="280.315" /> 
<polyline style="fill-rule:evenodd;"
points="13775,11320
12633,11320
12633,10179
13775,10179
13775,11320
" /> 
<circle cx="13204.3" cy="8750" r="570.815" /> 
<circle cx="33454.3" cy="6500" r="413.386" /> 
<circle cx="27954.3" cy="6500" r="413.386" /> 
<circle cx="33454.3" cy="22000" r="413.386" /> 
<circle cx="27954.3" cy="22000" r="413.386" /> 
<circle cx="33708.3" cy="13750" r="280.315" /> 
<circle cx="33708.3" cy="12750" r="280.315" /> 
<circle cx="33708.3" cy="11750" r="280.315" /> 
<circle cx="33708.3" cy="10750" r="280.315" /> 
<circle cx="33708.3" cy="9750" r="280.315" /> 
<circle cx="33708.3" cy="8750" r="280.315" /> 
<polyline style="fill-rule:evenodd;"
points="33427,7469
33988,7469
33988,8030
33427,8030
33427,7469
" /> 
<circle cx="33708.3" cy="14750" r="280.315" /> 
<circle cx="33708.3" cy="15750" r="280.315" /> 
<circle cx="33708.3" cy="16750" r="280.315" /> 
<circle cx="33708.3" cy="17750" r="280.315" /> 
<circle cx="33708.3" cy="18750" r="280.315" /> 
<circle cx="33708.3" cy="19750" r="280.315" /> 
<circle cx="33708.3" cy="20750" r="280.315" /> 
<circle cx="27700.4" cy="20750" r="280.315" /> 
<circle cx="27700.4" cy="19750" r="280.315" /> 
<circle cx="27700.4" cy="18750" r="280.315" /> 
<circle cx="27700.4" cy="17750" r="280.315" /> 
<circle cx="27700.4" cy="16750" r="280.315" /> 
<circle cx="27700.4" cy="15750" r="280.315" /> 
<circle cx="27700.4" cy="14750" r="280.315" /> 
<circle cx="27700.4" cy="13750" r="280.315" /> 
<circle cx="27700.4" cy="12750" r="280.315" /> 
<circle cx="27700.4" cy="11750" r="280.315" /> 
<circle cx="27700.4" cy="10750" r="280.315" /> 
<circle cx="27700.4" cy="9750" r="280.315" /> 
<circle cx="27700.4" cy="8750" r="280.315" /> 
<circle cx="27700.4" cy="7750" r="280.315" /> 
<polyline style="fill-rule:evenodd;"
points="17224,6257
18184,6257
18184,7218
17224,7218
17224,6257
" /> 
<circle cx="17704.3" cy="8746.06" r="480.315" /> 
<circle cx="17704.3" cy="10753.9" r="480.315" /> 
<circle cx="17704.3" cy="12761.8" r="480.315" /> 
<polyline style="fill-rule:evenodd;"
points="17964,24510
17444,24510
17444,23989
17964,23989
17964,24510
" /> 
<circle cx="17704.3" cy="27250" r="260.315" /> 
<polyline style="fill-rule:evenodd;"
points="21449,7494
21959,7494
21959,8005
21449,8005
21449,7494
" /> 
<circle cx="21704.3" cy="8750" r="255.315" /> 
<circle cx="21704.3" cy="9750" r="255.315" /> 
<circle cx="21704.3" cy="10750" r="255.315" /> 
<circle cx="24704.3" cy="10750" r="255.315" /> 
<circle cx="24704.3" cy="9750" r="255.315" /> 
<circle cx="24704.3" cy="8750" r="255.315" /> 
<circle cx="24704.3" cy="7750" r="255.315" /> 
<polyline style="fill-rule:evenodd;"
points="32959,23494
32959,24005
32449,24005
32449,23494
32959,23494
" /> 
<circle cx="31704.3" cy="23750" r="255.315" /> 
<circle cx="30704.3" cy="23750" r="255.315" /> 
<circle cx="29704.3" cy="23750" r="255.315" /> 
<circle cx="29704.3" cy="26750" r="255.315" /> 
<circle cx="30704.3" cy="26750" r="255.315" /> 
<circle cx="31704.3" cy="26750" r="255.315" /> 
<circle cx="32704.3" cy="26750" r="255.315" /> 
<polyline style="fill-rule:evenodd;"
points="40449,10494
40959,10494
40959,11005
40449,11005
40449,10494
" /> 
<circle cx="40704.3" cy="11750" r="255.315" /> 
<circle cx="40704.3" cy="12750" r="255.315" /> 
<circle cx="40704.3" cy="13750" r="255.315" /> 
<circle cx="40704.3" cy="14750" r="255.315" /> 
<circle cx="40704.3" cy="15750" r="255.315" /> 
<circle cx="40704.3" cy="16750" r="255.315" /> 
<circle cx="40704.3" cy="17750" r="255.315" /> 
<circle cx="43704.3" cy="17750" r="255.315" /> 
<circle cx="43704.3" cy="16750" r="255.315" /> 
<circle cx="43704.3" cy="15750" r="255.315" /> 
<circle cx="43704.3" cy="14750" r="255.315" /> 
<circle cx="43704.3" cy="13750" r="255.315" /> 
<circle cx="43704.3" cy="12750" r="255.315" /> 
<circle cx="43704.3" cy="11750" r="255.315" /> 
<circle cx="43704.3" cy="10750" r="255.315" /> 
<circle cx="37704.3" cy="10750" r="255.315" /> 
<circle cx="37704.3" cy="11750" r="255.315" /> 
<circle cx="37704.3" cy="13750" r="255.315" /> 
<circle cx="37704.3" cy="14750" r="255.315" /> 
<circle cx="36204.3" cy="10750" r="255.315" /> 
<circle cx="36204.3" cy="11750" r="255.315" /> 
<circle cx="37704.3" cy="16250" r="255.315" /> 
<circle cx="37704.3" cy="17250" r="255.315" /> 
<circle cx="42704.3" cy="8250" r="255.315" /> 
<circle cx="41704.3" cy="8250" r="255.315" /> 
<polyline style="fill-rule:evenodd;"
points="14475,28017
14475,26482
15814,26482
15814,28017
14475,28017
" /> 
<polyline style="fill-rule:evenodd;"
points="12113,27919
12113,26580
13452,26580
13452,27919
12113,27919
" /> 
<polyline style="fill-rule:evenodd;"
points="18449,32505
18449,31994
18959,31994
18959,32505
18449,32505
" /> 
<circle cx="19704.3" cy="32250" r="255.315" /> 
<circle cx="20704.3" cy="32250" r="255.315" /> 
<circle cx="21704.3" cy="32250" r="255.315" /> 
<circle cx="22704.3" cy="32250" r="255.315" /> 
<circle cx="23704.3" cy="32250" r="255.315" /> 
<circle cx="24704.3" cy="32250" r="255.315" /> 
<circle cx="25704.3" cy="32250" r="255.315" /> 
<circle cx="25704.3" cy="29250" r="255.315" /> 
<circle cx="24704.3" cy="29250" r="255.315" /> 
<circle cx="23704.3" cy="29250" r="255.315" /> 
<circle cx="22704.3" cy="29250" r="255.315" /> 
<circle cx="21704.3" cy="29250" r="255.315" /> 
<circle cx="20704.3" cy="29250" r="255.315" /> 
<circle cx="19704.3" cy="29250" r="255.315" /> 
<circle cx="18704.3" cy="29250" r="255.315" /> 
<polyline style="fill-rule:evenodd;"
points="17025,28929
17025,30070
15883,30070
15883,28929
17025,28929
" /> 
<circle cx="14454.3" cy="29500" r="570.815" /> 
</g>
<g style="fill:#C0C0C0; fill-opacity:1.0; 
stroke:#C0C0C0; stroke-width:39.3701; stroke-opacity:1; 
stroke-linecap:round; stroke-linejoin:round;">
<circle cx="25754.3" cy="10700" r="155.315" /> 
<circle cx="44454.3" cy="16250" r="155.315" /> 
<circle cx="34454.3" cy="15250" r="155.315" /> 
<circle cx="42454.3" cy="17750" r="155.315" /> 
<circle cx="42454.3" cy="14250" r="155.315" /> 
<circle cx="23704.3" cy="18750" r="155.315" /> 
<circle cx="24654.3" cy="19750" r="155.315" /> 
<circle cx="25704.3" cy="20750" r="155.315" /> 
<circle cx="45204.3" cy="17750" r="155.315" /> 
<circle cx="19354.3" cy="8300" r="155.315" /> 
<circle cx="19704.3" cy="19800" r="155.315" /> 
<circle cx="21154.3" cy="15750" r="155.315" /> 
<circle cx="21704.3" cy="16750" r="155.315" /> 
<circle cx="22754.3" cy="17750" r="155.315" /> 
<circle cx="42954.3" cy="13250" r="155.315" /> 
<circle cx="32954.3" cy="9250" r="155.315" /> 
<circle cx="44854.3" cy="13750" r="155.315" /> 
<circle cx="44704.3" cy="17250" r="155.315" /> 
<circle cx="32604.3" cy="10750" r="155.315" /> 
<circle cx="32604.3" cy="12250" r="155.315" /> 
<circle cx="33304.3" cy="11250" r="155.315" /> 
<circle cx="41454.3" cy="12250" r="155.315" /> 
<circle cx="26204.3" cy="13750" r="230.315" /> 
<circle cx="26204.3" cy="24250" r="230.315" /> 
<circle cx="30704.3" cy="19750" r="155.315" /> 
</g>
<g style="fill:#A00000; fill-opacity:1.0; 
stroke:#A00000; stroke-width:100; stroke-opacity:1; 
stroke-linecap:round; stroke-linejoin:round;">
<path d="M25804 10750
L27700 10750
" />
<path d="M25754 10700
L25804 10750
" />
<path d="M13204 21750
L15704 21750
" />
<path d="M13204 19750
L15704 19750
" />
<path d="M14704 20750
L13204 20750
" />
<path d="M14704 18750
L13204 18750
" />
<path d="M14704 16750
L13204 16750
" />
<path d="M13204 17750
L15704 17750
" />
<path d="M45704 16250
L44454 16250
" />
<path d="M37704 13750
L40704 13750
" />
<path d="M37704 14750
L40704 14750
" />
<path d="M37704 11750
L38204 11750
" />
<path d="M39204 12750
L40704 12750
" />
<path d="M38204 11750
L39204 12750
" />
<path d="M37704 16250
L40204 16250
" />
<path d="M40204 16250
L40704 15750
" />
<path d="M36204 10750
L36454 10750
" />
<path d="M40204 11250
L40704 11750
" />
<path d="M36954 11250
L40204 11250
" />
<path d="M36454 10750
L36954 11250
" />
<path d="M43704 14750
L43204 15250
" />
<path d="M39704 15250
L34454 15250
" />
<path d="M43204 15250
L39704 15250
" />
<path d="M33708 13750
L36204 13750
" />
<path d="M42454 17750
L43704 17750
" />
<path d="M36704 14250
L42454 14250
" />
<path d="M36204 13750
L36704 14250
" />
<path d="M27700 18750
L23704 18750
" />
<path d="M24654 19750
L27700 19750
" />
<path d="M27700 20750
L25704 20750
" />
<path d="M41204 18250
L40704 17750
" />
<path d="M44704 18250
L41204 18250
" />
<path d="M45204 17750
L44704 18250
" />
<path d="M33504 8750
L33708 8750
" />
<path d="M33004 8250
L33504 8750
" />
<path d="M19404 8250
L33004 8250
" />
<path d="M19354 8300
L19404 8250
" />
<path d="M33708 18750
L28754 18750
" />
<path d="M20254 19250
L19704 19800
" />
<path d="M28254 19250
L20254 19250
" />
<path d="M28754 18750
L28254 19250
" />
<path d="M21154 15750
L27700 15750
" />
<path d="M27700 16750
L21704 16750
" />
<path d="M22754 17750
L27700 17750
" />
<path d="M33708 12750
L38454 12750
" />
<path d="M38954 13250
L42954 13250
" />
<path d="M38454 12750
L38954 13250
" />
<path d="M26204 8750
L26704 9250
" />
<path d="M28204 9250
L32954 9250
" />
<path d="M26704 9250
L28204 9250
" />
<path d="M24704 8750
L26204 8750
" />
<path d="M45704 17250
L44704 17250
" />
<path d="M44854 13750
L43704 13750
" />
<path d="M17704 8746
L21700 8746
" />
<path d="M21700 8746
L21704 8750
" />
</g>
<g style="fill:#A00000; fill-opacity:1.0; 
stroke:#A00000; stroke-width:551.181; stroke-opacity:1; 
stroke-linecap:round; stroke-linejoin:round;">
<path d="M13204 8750
L17700 8750
" />
<path d="M17700 8750
L17704 8746
" />
</g>
<g style="fill:#A00000; fill-opacity:1.0; 
stroke:#A00000; stroke-width:100; stroke-opacity:1; 
stroke-linecap:round; stroke-linejoin:round;">
<path d="M16704 21750
L16704 21550
" />
<path d="M33208 18250
L33708 17750
" />
<path d="M20004 18250
L33208 18250
" />
<path d="M16704 21550
L20004 18250
" />
<path d="M16704 17750
L16704 16600
" />
<path d="M32604 10750
L33708 10750
" />
<path d="M21054 12250
L32604 12250
" />
<path d="M16704 16600
L21054 12250
" />
<path d="M15704 16750
L16054 16750
" />
<path d="M21554 11250
L33304 11250
" />
<path d="M16054 16750
L21554 11250
" />
<path d="M45704 12750
L44704 12750
" />
<path d="M44204 12250
L41454 12250
" />
<path d="M44704 12750
L44204 12250
" />
</g>
<g style="fill:#A00000; fill-opacity:1.0; 
stroke:#A00000; stroke-width:157.48; stroke-opacity:1; 
stroke-linecap:round; stroke-linejoin:round;">
<path d="M17704 24250
L26204 24250
" />
<path d="M26204 13750
L27700 13750
" />
</g>
<g style="fill:#A00000; fill-opacity:1.0; 
stroke:#A00000; stroke-width:100; stroke-opacity:1; 
stroke-linecap:round; stroke-linejoin:round;">
<path d="M15704 20750
L16604 20750
" />
<path d="M33208 16250
L33708 15750
" />
<path d="M21104 16250
L33208 16250
" />
<path d="M16604 20750
L21104 16250
" />
<path d="M16704 19750
L16704 19350
" />
<path d="M33208 14250
L33708 14750
" />
<path d="M21804 14250
L33208 14250
" />
<path d="M16704 19350
L21804 14250
" />
<path d="M15704 18750
L16504 18750
" />
<path d="M32208 13250
L33708 11750
" />
<path d="M27204 13250
L32208 13250
" />
<path d="M26704 12750
L27204 13250
" />
<path d="M22504 12750
L26704 12750
" />
<path d="M16504 18750
L22504 12750
" />
</g>
<g style="fill:#A00000; fill-opacity:1.0; 
stroke:#A00000; stroke-width:157.48; stroke-opacity:1; 
stroke-linecap:round; stroke-linejoin:round;">
<path d="M16454 29500
L16454 28559
" />
<path d="M16454 28559
L15145 27250
" />
<path d="M15145 27250
L17704 27250
" />
</g>
<g style="fill:#A00000; fill-opacity:1.0; 
stroke:#A00000; stroke-width:551.181; stroke-opacity:1; 
stroke-linecap:round; stroke-linejoin:round;">
<path d="M13204 10750
L17700 10750
" />
<path d="M17700 10750
L17704 10753
" />
</g>
<g style="fill:#A00000; fill-opacity:1.0; 
stroke:#A00000; stroke-width:100; stroke-opacity:1; 
stroke-linecap:round; stroke-linejoin:round;">
<path d="M30704 19750
L33708 19750
" />
<path d="M37704 10750
L40704 10750
" />
</g>
<g style="fill:#A00000; fill-opacity:1.0; 
stroke:#A00000; stroke-width:39.3701; stroke-opacity:1; 
stroke-linecap:round; stroke-linejoin:round;">
<polyline style="fill-rule:evenodd;"
points="33478,10249
33397,10283
33242,10438
33237,10450
32905,10450
32845,10389
32689,10325
32520,10324
32363,10389
32244,10508
32179,10665
32179,10834
32227,10950
25189,10950
25229,10854
25229,10646
25149,10453
25002,10305
24869,10249
25001,10195
25149,10047
25229,9854
25229,9646
25149,9453
25002,9305
24869,9249
25001,9195
25146,9050
25761,9050
25906,9194
26099,9274
26305,9275
26492,9462
26492,9462
26589,9527
26704,9550
27187,9550
27150,9640
27150,9858
27233,10061
27388,10215
27590,10299
27809,10300
28011,10216
28166,10061
28250,9859
28250,9641
28212,9550
32653,9550
32713,9610
32869,9674
33038,9675
33165,9622
33158,9640
33158,9858
33241,10061
33396,10215
33478,10249
" /> 
</g>
<g style="fill:#A00000; fill-opacity:0.0; 
stroke:#A00000; stroke-width:100; stroke-opacity:1; 
stroke-linecap:round; stroke-linejoin:round;">
<polyline fill="none;"
points="33478,10249
33397,10283
33242,10438
33237,10450
32905,10450
32845,10389
32689,10325
32520,10324
32363,10389
32244,10508
32179,10665
32179,10834
32227,10950
25189,10950
25229,10854
25229,10646
25149,10453
25002,10305
24869,10249
25001,10195
25149,10047
25229,9854
25229,9646
25149,9453
25002,9305
24869,9249
25001,9195
25146,9050
25761,9050
25906,9194
26099,9274
26305,9275
26492,9462
26492,9462
26589,9527
26704,9550
27187,9550
27150,9640
27150,9858
27233,10061
27388,10215
27590,10299
27809,10300
28011,10216
28166,10061
28250,9859
28250,9641
28212,9550
32653,9550
32713,9610
32869,9674
33038,9675
33165,9622
33158,9640
33158,9858
33241,10061
33396,10215
33478,10249
" /> 
</g>
<g style="fill:#A00000; fill-opacity:1.0; 
stroke:#A00000; stroke-width:39.3701; stroke-opacity:1; 
stroke-linecap:round; stroke-linejoin:round;">
<polyline style="fill-rule:evenodd;"
points="46934,32980
46696,32980
46696,31853
46696,1853
46583,1580
46375,1371
46102,1258
45807,1257
45534,1370
45325,1579
45212,1851
45212,2146
45324,2419
45533,2628
45806,2741
46101,2742
46374,2629
46583,2420
46696,2148
46696,1853
46696,31853
46583,31580
46375,31371
46254,31321
46254,18141
46170,17938
46016,17784
45934,17750
46015,17716
46170,17561
46254,17359
46254,17141
46170,16938
46016,16784
45934,16750
46015,16716
46170,16561
46254,16359
46254,16141
46170,15938
46032,15800
46053,15800
46145,15762
46216,15691
46254,15599
46254,15500
46254,14900
46216,14808
46146,14738
46054,14700
45954,14699
45354,14699
45262,14737
45192,14808
45154,14900
45154,14999
45154,15599
45192,15691
45262,15761
45354,15799
45376,15799
45238,15938
45233,15950
44755,15950
44695,15889
44539,15825
44370,15824
44215,15889
44229,15854
44229,15646
44149,15453
44002,15305
43869,15249
44001,15195
44149,15047
44229,14854
44229,14646
44149,14453
44002,14305
43869,14249
44001,14195
44146,14050
44553,14050
44613,14110
44769,14174
44938,14175
45094,14110
45210,13995
45237,14061
45392,14215
45594,14299
45813,14300
46015,14216
46170,14061
46254,13859
46254,13641
46170,13438
46016,13284
45934,13250
46015,13216
46170,13061
46254,12859
46254,12641
46170,12438
46016,12284
45934,12250
46015,12216
46170,12061
46254,11859
46254,11641
46170,11438
46032,11300
46053,11300
46145,11262
46216,11191
46254,11099
46254,11000
46254,10400
46216,10308
46146,10238
46054,10200
45954,10199
45354,10199
45262,10237
45192,10308
45154,10400
45154,10499
45154,11099
45192,11191
45262,11261
45354,11299
45376,11299
45238,11438
45154,11640
45154,11858
45237,12061
45392,12215
45474,12249
45393,12283
45238,12438
45233,12450
44828,12450
44416,12037
44319,11972
44204,11950
44189,11950
44229,11854
44229,11646
44149,11453
44002,11305
43809,11225
43600,11224
43407,11304
43259,11452
43179,11645
43179,11853
43218,11950
42229,11950
42229,8146
42149,7953
42002,7805
41809,7725
41600,7724
41407,7804
41259,7952
41179,8145
41179,8353
41259,8547
41406,8694
41599,8774
41808,8775
42001,8695
42149,8547
42229,8354
42229,8146
42229,11950
41755,11950
41695,11889
41539,11825
41370,11824
41215,11889
41229,11854
41229,11646
41149,11453
41002,11305
40929,11275
41028,11275
41120,11237
41191,11166
41229,11074
41229,10975
41229,10425
41191,10333
41121,10263
41029,10225
40929,10224
40379,10224
40287,10262
40217,10333
40179,10425
40179,10450
38146,10450
38002,10305
37809,10225
37600,10224
37407,10304
37259,10452
37179,10645
37179,10853
37218,10950
37078,10950
36697,10568
36649,10453
36502,10305
36309,10225
36100,10224
35907,10304
35759,10452
35679,10645
35679,10853
35759,11047
35906,11194
36039,11250
35907,11304
35759,11452
35679,11645
35679,11853
35759,12047
35906,12194
36099,12274
36308,12275
36501,12195
36649,12047
36729,11854
36729,11646
36649,11453
36502,11305
36369,11249
36482,11202
36742,11462
36742,11462
36839,11527
36954,11550
37218,11550
37179,11645
37179,11853
37259,12047
37406,12194
37599,12274
37808,12275
38001,12195
38113,12083
38486,12456
38454,12450
34179,12450
34174,12438
34020,12284
33938,12250
34019,12216
34174,12061
34258,11859
34258,11641
34174,11438
34020,11284
33938,11250
34019,11216
34174,11061
34258,10859
34258,10641
34174,10438
34020,10284
33938,10250
34019,10216
34174,10061
34258,9859
34258,9641
34174,9438
34020,9284
33938,9250
34019,9216
34174,9061
34258,8859
34258,8641
34174,8438
34036,8300
34057,8300
34149,8262
34220,8191
34258,8099
34258,8000
34258,7400
34220,7308
34150,7238
34137,7232
34137,6364
34033,6113
33841,5921
33590,5817
33319,5816
33067,5920
32875,6112
32771,6363
32771,6635
32874,6886
33066,7078
33317,7182
33589,7183
33840,7079
34033,6887
34137,6636
34137,6364
34137,7232
34058,7200
33958,7199
33358,7199
33266,7237
33196,7308
33158,7400
33158,7499
33158,7998
33119,7972
33004,7950
28637,7950
28637,6364
28533,6113
28341,5921
28090,5817
27819,5816
27567,5920
27375,6112
27271,6363
27271,6635
27374,6886
27566,7078
27817,7182
28089,7183
28340,7079
28533,6887
28637,6636
28637,6364
28637,7950
28212,7950
28250,7859
28250,7641
28166,7438
28012,7284
27810,7200
27591,7199
27389,7283
27234,7438
27150,7640
27150,7858
27187,7950
25189,7950
25229,7854
25229,7646
25149,7453
25002,7305
24809,7225
24600,7224
24407,7304
24259,7452
24179,7645
24179,7853
24218,7950
22229,7950
22229,6146
22149,5953
22002,5805
21809,5725
21600,5724
21407,5804
21259,5952
21204,6085
21149,5953
21002,5805
20809,5725
20600,5724
20407,5804
20259,5952
20179,6145
20179,6353
20259,6547
20406,6694
20599,6774
20808,6775
21001,6695
21149,6547
21204,6414
21259,6547
21406,6694
21599,6774
21808,6775
22001,6695
22149,6547
22229,6354
22229,6146
22229,7950
22229,7950
22229,7425
22191,7333
22121,7263
22029,7225
21929,7224
21379,7224
21287,7262
21217,7333
21179,7425
21179,7524
21179,7950
19605,7950
19595,7939
19439,7875
19270,7874
19113,7939
18994,8058
18929,8215
18929,8384
18954,8446
18454,8446
18454,7188
18454,6188
18416,6096
18346,6026
18254,5988
18154,5988
17154,5988
17062,6026
16992,6096
16954,6188
16954,6287
16954,7287
16992,7379
17062,7450
17154,7488
17253,7488
18253,7488
18345,7450
18416,7379
18454,7288
18454,7188
18454,8446
18391,8446
18340,8321
18129,8110
17854,7996
17555,7995
17280,8109
17165,8224
13867,8224
13681,8037
13372,7909
13196,7909
13196,1853
13083,1580
12875,1371
12602,1258
12307,1257
12034,1370
11825,1579
11712,1851
11712,2146
11824,2419
12033,2628
12306,2741
12601,2742
12874,2629
13083,2420
13196,2148
13196,1853
13196,7909
13037,7909
12728,8037
12492,8273
12363,8582
12363,8916
12491,9225
12727,9462
13036,9590
13370,9590
13679,9462
13867,9275
17173,9275
17278,9381
17554,9495
17852,9496
18128,9382
18339,9171
18391,9046
21258,9046
21259,9047
21406,9194
21539,9250
21407,9304
21259,9452
21179,9645
21179,9853
21259,10047
21406,10194
21539,10250
21407,10304
21259,10452
21179,10645
21179,10853
21259,11047
21296,11084
18454,13925
18454,12613
18454,10605
18340,10329
18129,10118
17854,10004
17555,10003
17280,10117
17173,10224
14044,10224
14044,10109
14006,10018
13936,9947
13844,9909
13745,9909
12564,9909
12472,9947
12402,10017
12363,10109
12363,10209
12363,11390
12401,11481
12472,11552
12563,11590
12663,11590
13844,11590
13936,11552
14006,11482
14044,11390
14044,11290
14044,11275
17165,11275
17278,11389
17554,11503
17852,11504
18128,11390
18339,11179
18454,10903
18454,10605
18454,12613
18340,12337
18129,12126
17854,12011
17555,12011
17280,12125
17068,12336
16954,12611
16954,12910
17068,13186
17278,13397
17554,13511
17852,13511
18128,13398
18339,13187
18454,12911
18454,12613
18454,13925
16038,16341
16002,16305
15809,16225
15600,16224
15407,16304
15259,16452
15204,16585
15149,16453
15002,16305
14809,16225
14600,16224
14407,16304
14261,16450
13675,16450
13670,16438
13516,16284
13434,16250
13515,16216
13670,16061
13754,15859
13754,15641
13670,15438
13516,15284
13314,15200
13095,15199
12893,15283
12738,15438
12654,15640
12654,15858
12737,16061
12892,16215
12974,16249
12893,16283
12738,16438
12654,16640
12654,16858
12737,17061
12892,17215
12974,17249
12893,17283
12738,17438
12654,17640
12654,17858
12737,18061
12892,18215
12974,18249
12893,18283
12738,18438
12654,18640
12654,18858
12737,19061
12892,19215
12974,19249
12893,19283
12738,19438
12654,19640
12654,19858
12737,20061
12892,20215
12974,20249
12893,20283
12738,20438
12654,20640
12654,20858
12737,21061
12892,21215
12974,21249
12893,21283
12738,21438
12654,21640
12654,21858
12737,22061
12892,22215
13094,22299
13313,22300
13515,22216
13670,22061
13675,22050
15261,22050
15406,22194
15599,22274
15808,22275
16001,22195
16149,22047
16204,21914
16259,22047
16406,22194
16599,22274
16808,22275
17001,22195
17149,22047
17229,21854
17229,21646
17171,21506
20128,18550
23327,18550
23279,18665
23279,18834
23327,18950
20254,18950
20139,18972
20042,19037
19705,19375
19620,19374
19463,19439
19344,19558
19279,19715
19279,19884
19343,20040
19463,20160
19619,20224
19788,20225
19944,20160
20064,20041
20129,19884
20129,19799
20378,19550
24277,19550
24229,19665
24229,19834
24293,19990
24413,20110
24569,20174
24738,20175
24894,20110
24955,20050
27229,20050
27233,20061
27388,20215
27470,20249
27389,20283
27234,20438
27229,20450
26005,20450
25945,20389
25789,20325
25620,20324
25463,20389
25344,20508
25279,20665
25279,20834
25343,20990
25463,21110
25619,21174
25788,21175
25944,21110
26005,21050
27229,21050
27233,21061
27388,21215
27590,21299
27809,21300
28011,21216
28166,21061
28250,20859
28250,20641
28166,20438
28012,20284
27930,20250
28011,20216
28166,20061
28250,19859
28250,19641
28212,19550
28254,19550
28254,19549
28369,19527
28369,19527
28466,19462
28878,19050
33237,19050
33241,19061
33396,19215
33478,19249
33397,19283
33242,19438
33237,19450
31005,19450
30945,19389
30789,19325
30620,19324
30463,19389
30344,19508
30279,19665
30279,19834
30343,19990
30463,20110
30619,20174
30788,20175
30944,20110
31005,20050
33237,20050
33241,20061
33396,20215
33478,20249
33397,20283
33242,20438
33158,20640
33158,20858
33241,21061
33396,21215
33598,21299
33817,21300
34019,21216
34174,21061
34258,20859
34258,20641
34174,20438
34020,20284
33938,20250
34019,20216
34174,20061
34258,19859
34258,19641
34174,19438
34020,19284
33938,19250
34019,19216
34174,19061
34258,18859
34258,18641
34174,18438
34020,18284
33938,18250
34019,18216
34174,18061
34258,17859
34258,17641
34174,17438
34020,17284
33938,17250
34019,17216
34174,17061
34258,16859
34258,16641
34174,16438
34020,16284
33938,16250
34019,16216
34174,16061
34258,15859
34258,15641
34252,15626
34369,15674
34538,15675
34694,15610
34755,15550
39704,15550
40218,15550
40179,15645
40179,15850
40080,15950
38146,15950
38002,15805
37809,15725
37600,15724
37407,15804
37259,15952
37179,16145
37179,16353
37259,16547
37406,16694
37539,16750
37407,16804
37259,16952
37179,17145
37179,17353
37259,17547
37406,17694
37599,17774
37808,17775
38001,17695
38149,17547
38229,17354
38229,17146
38149,16953
38002,16805
37869,16749
38001,16695
38146,16550
40204,16550
40204,16549
40220,16546
40179,16645
40179,16853
40259,17047
40406,17194
40539,17250
40407,17304
40259,17452
40179,17645
40179,17853
40259,18047
40406,18194
40599,18274
40805,18275
40992,18462
40992,18462
41089,18527
41204,18550
44704,18550
44704,18549
44819,18527
44819,18527
44916,18462
45154,18224
45154,18358
45237,18561
45392,18715
45594,18799
45813,18800
46015,18716
46170,18561
46254,18359
46254,18141
46254,31321
46102,31258
45807,31257
45534,31370
45325,31579
45212,31851
45212,32146
45324,32419
45533,32628
45806,32741
46101,32742
46374,32629
46583,32420
46696,32148
46696,31853
46696,32980
34137,32980
34137,21864
34033,21613
33841,21421
33590,21317
33319,21316
33067,21420
32875,21612
32771,21863
32771,22135
32874,22386
33066,22578
33317,22682
33589,22683
33840,22579
34033,22387
34137,22136
34137,21864
34137,32980
33254,32980
33254,31000
33254,30400
33254,29000
33254,28400
33229,28340
33229,26646
33149,26453
33002,26305
32809,26225
32600,26224
32407,26304
32259,26452
32229,26524
32229,23646
32149,23453
32002,23305
31809,23225
31600,23224
31407,23304
31259,23452
31204,23585
31149,23453
31002,23305
30809,23225
30600,23224
30407,23304
30259,23452
30204,23585
30149,23453
30002,23305
29809,23225
29600,23224
29407,23304
29259,23452
29179,23645
29179,23853
29259,24047
29406,24194
29599,24274
29808,24275
30001,24195
30149,24047
30204,23914
30259,24047
30406,24194
30599,24274
30808,24275
31001,24195
31149,24047
31204,23914
31259,24047
31406,24194
31599,24274
31808,24275
32001,24195
32149,24047
32229,23854
32229,23646
32229,26524
32204,26585
32149,26453
32002,26305
31809,26225
31600,26224
31407,26304
31259,26452
31204,26585
31149,26453
31002,26305
30809,26225
30600,26224
30407,26304
30259,26452
30204,26585
30149,26453
30002,26305
29809,26225
29600,26224
29407,26304
29259,26452
29179,26645
29179,26853
29259,27047
29406,27194
29599,27274
29808,27275
30001,27195
30149,27047
30204,26914
30259,27047
30406,27194
30599,27274
30808,27275
31001,27195
31149,27047
31204,26914
31259,27047
31406,27194
31599,27274
31808,27275
32001,27195
32149,27047
32204,26914
32259,27047
32406,27194
32599,27274
32808,27275
33001,27195
33149,27047
33229,26854
33229,26646
33229,28340
33216,28308
33146,28238
33054,28200
32954,28199
32354,28199
32262,28237
32192,28308
32154,28400
32154,28422
32016,28284
31814,28200
31595,28199
31393,28283
31238,28438
31204,28519
31170,28438
31016,28284
30814,28200
30595,28199
30393,28283
30238,28438
30204,28519
30170,28438
30016,28284
29814,28200
29595,28199
29393,28283
29238,28438
29204,28519
29170,28438
29016,28284
28814,28200
28637,28199
28637,21864
28533,21613
28341,21421
28090,21317
27819,21316
27567,21420
27375,21612
27271,21863
27271,22135
27374,22386
27566,22578
27817,22682
28089,22683
28340,22579
28533,22387
28637,22136
28637,21864
28637,28199
28595,28199
28393,28283
28238,28438
28154,28640
28154,28858
28237,29061
28392,29215
28594,29299
28813,29300
29015,29216
29170,29061
29204,28980
29237,29061
29392,29215
29594,29299
29813,29300
30015,29216
30170,29061
30204,28980
30237,29061
30392,29215
30594,29299
30813,29300
31015,29216
31170,29061
31204,28980
31237,29061
31392,29215
31594,29299
31813,29300
32015,29216
32154,29077
32154,29099
32192,29191
32262,29261
32354,29299
32453,29300
33053,29300
33145,29262
33216,29191
33254,29099
33254,29000
33254,30400
33216,30308
33146,30238
33054,30200
32954,30199
32354,30199
32262,30237
32192,30308
32154,30400
32154,30422
32016,30284
31814,30200
31595,30199
31393,30283
31238,30438
31204,30519
31170,30438
31016,30284
30814,30200
30595,30199
30393,30283
30238,30438
30204,30519
30170,30438
30016,30284
29814,30200
29595,30199
29393,30283
29238,30438
29204,30519
29170,30438
29016,30284
28814,30200
28595,30199
28393,30283
28238,30438
28154,30640
28154,30858
28237,31061
28392,31215
28594,31299
28813,31300
29015,31216
29170,31061
29204,30980
29237,31061
29392,31215
29594,31299
29813,31300
30015,31216
30170,31061
30204,30980
30237,31061
30392,31215
30594,31299
30813,31300
31015,31216
31170,31061
31204,30980
31237,31061
31392,31215
31594,31299
31813,31300
32015,31216
32154,31077
32154,31099
32192,31191
32262,31261
32354,31299
32453,31300
33053,31300
33145,31262
33216,31191
33254,31099
33254,31000
33254,32980
26704,32980
26704,24150
26628,23967
26487,23826
26304,23750
26105,23749
25921,23825
25825,23921
18234,23921
18234,23920
18196,23828
18126,23758
18034,23720
17934,23719
17374,23719
17282,23757
17212,23828
17174,23920
17174,24019
17174,24579
17212,24671
17282,24741
17374,24779
17473,24780
18033,24780
18125,24742
18196,24671
18234,24579
18234,24578
25826,24578
25920,24673
26104,24749
26303,24750
26487,24674
26627,24533
26704,24349
26704,24150
26704,32980
26229,32980
26229,32146
26229,29146
26149,28953
26002,28805
25809,28725
25600,28724
25407,28804
25259,28952
25204,29085
25149,28953
25002,28805
24809,28725
24600,28724
24407,28804
24259,28952
24204,29085
24149,28953
24002,28805
23809,28725
23600,28724
23407,28804
23259,28952
23204,29085
23149,28953
23002,28805
22809,28725
22600,28724
22407,28804
22259,28952
22204,29085
22149,28953
22002,28805
21809,28725
21600,28724
21407,28804
21259,28952
21204,29085
21149,28953
21002,28805
20809,28725
20600,28724
20407,28804
20259,28952
20204,29085
20149,28953
20002,28805
19809,28725
19600,28724
19407,28804
19259,28952
19204,29085
19149,28953
19002,28805
18809,28725
18600,28724
18407,28804
18259,28952
18234,29012
18234,27145
18153,26950
18004,26800
17810,26720
17599,26719
17404,26800
17283,26921
16084,26921
16084,26413
16046,26321
15976,26250
15884,26212
15784,26212
14406,26212
14314,26250
14244,26320
14206,26412
14206,26512
14206,28086
14244,28178
14314,28249
14406,28287
14505,28287
15717,28287
16089,28659
15814,28659
15722,28697
15652,28767
15613,28859
15613,28959
15613,30140
15651,30231
15722,30302
15813,30340
15913,30340
17094,30340
17186,30302
17256,30232
17294,30140
17294,30040
17294,28859
17256,28768
17186,28697
17094,28659
16995,28659
16783,28659
16783,28559
16758,28433
16758,28433
16686,28326
16084,27724
16084,27578
17283,27578
17403,27699
17598,27779
17809,27780
18004,27699
18153,27550
18234,27355
18234,27145
18234,29012
18179,29145
18179,29353
18259,29547
18406,29694
18599,29774
18808,29775
19001,29695
19149,29547
19204,29414
19259,29547
19406,29694
19599,29774
19808,29775
20001,29695
20149,29547
20204,29414
20259,29547
20406,29694
20599,29774
20808,29775
21001,29695
21149,29547
21204,29414
21259,29547
21406,29694
21599,29774
21808,29775
22001,29695
22149,29547
22204,29414
22259,29547
22406,29694
22599,29774
22808,29775
23001,29695
23149,29547
23204,29414
23259,29547
23406,29694
23599,29774
23808,29775
24001,29695
24149,29547
24204,29414
24259,29547
24406,29694
24599,29774
24808,29775
25001,29695
25149,29547
25204,29414
25259,29547
25406,29694
25599,29774
25808,29775
26001,29695
26149,29547
26229,29354
26229,29146
26229,32146
26149,31953
26002,31805
25809,31725
25600,31724
25407,31804
25259,31952
25204,32085
25149,31953
25002,31805
24809,31725
24600,31724
24407,31804
24259,31952
24204,32085
24149,31953
24002,31805
23809,31725
23600,31724
23407,31804
23259,31952
23204,32085
23149,31953
23002,31805
22809,31725
22600,31724
22407,31804
22259,31952
22204,32085
22149,31953
22002,31805
21809,31725
21600,31724
21407,31804
21259,31952
21204,32085
21149,31953
21002,31805
20809,31725
20600,31724
20407,31804
20259,31952
20204,32085
20149,31953
20002,31805
19809,31725
19600,31724
19407,31804
19259,31952
19229,32024
19229,31925
19191,31833
19121,31763
19029,31725
18929,31724
18379,31724
18287,31762
18217,31833
18179,31925
18179,32024
18179,32574
18217,32666
18287,32736
18379,32774
18478,32775
19028,32775
19120,32737
19191,32666
19229,32574
19229,32475
19229,32475
19259,32547
19406,32694
19599,32774
19808,32775
20001,32695
20149,32547
20204,32414
20259,32547
20406,32694
20599,32774
20808,32775
21001,32695
21149,32547
21204,32414
21259,32547
21406,32694
21599,32774
21808,32775
22001,32695
22149,32547
22204,32414
22259,32547
22406,32694
22599,32774
22808,32775
23001,32695
23149,32547
23204,32414
23259,32547
23406,32694
23599,32774
23808,32775
24001,32695
24149,32547
24204,32414
24259,32547
24406,32694
24599,32774
24808,32775
25001,32695
25149,32547
25204,32414
25259,32547
25406,32694
25599,32774
25808,32775
26001,32695
26149,32547
26229,32354
26229,32146
26229,32980
15294,32980
15294,29333
15167,29024
14931,28787
14622,28659
14287,28659
13978,28787
13742,29023
13722,29071
13722,27889
13722,26511
13684,26419
13613,26349
13522,26311
13422,26310
12044,26310
11952,26348
11882,26419
11844,26511
11844,26610
11844,27988
11882,28080
11952,28150
12044,28188
12143,28189
13521,28189
13613,28151
13683,28080
13722,27988
13722,27889
13722,29071
13613,29332
13613,29666
13741,29975
13977,30212
14286,30340
14620,30340
14929,30212
15166,29976
15294,29667
15294,29333
15294,32980
13196,32980
13196,31853
13083,31580
12875,31371
12602,31258
12307,31257
12034,31370
11825,31579
11712,31851
11712,32146
11824,32419
12033,32628
12306,32741
12601,32742
12874,32629
13083,32420
13196,32148
13196,31853
13196,32980
11474,32980
11474,1019
46934,1019
46934,32980
" /> 
</g>
<g style="fill:#A00000; fill-opacity:0.0; 
stroke:#A00000; stroke-width:100; stroke-opacity:1; 
stroke-linecap:round; stroke-linejoin:round;">
<polyline fill="none;"
points="46934,32980
46696,32980
46696,31853
46696,1853
46583,1580
46375,1371
46102,1258
45807,1257
45534,1370
45325,1579
45212,1851
45212,2146
45324,2419
45533,2628
45806,2741
46101,2742
46374,2629
46583,2420
46696,2148
46696,1853
46696,31853
46583,31580
46375,31371
46254,31321
46254,18141
46170,17938
46016,17784
45934,17750
46015,17716
46170,17561
46254,17359
46254,17141
46170,16938
46016,16784
45934,16750
46015,16716
46170,16561
46254,16359
46254,16141
46170,15938
46032,15800
46053,15800
46145,15762
46216,15691
46254,15599
46254,15500
46254,14900
46216,14808
46146,14738
46054,14700
45954,14699
45354,14699
45262,14737
45192,14808
45154,14900
45154,14999
45154,15599
45192,15691
45262,15761
45354,15799
45376,15799
45238,15938
45233,15950
44755,15950
44695,15889
44539,15825
44370,15824
44215,15889
44229,15854
44229,15646
44149,15453
44002,15305
43869,15249
44001,15195
44149,15047
44229,14854
44229,14646
44149,14453
44002,14305
43869,14249
44001,14195
44146,14050
44553,14050
44613,14110
44769,14174
44938,14175
45094,14110
45210,13995
45237,14061
45392,14215
45594,14299
45813,14300
46015,14216
46170,14061
46254,13859
46254,13641
46170,13438
46016,13284
45934,13250
46015,13216
46170,13061
46254,12859
46254,12641
46170,12438
46016,12284
45934,12250
46015,12216
46170,12061
46254,11859
46254,11641
46170,11438
46032,11300
46053,11300
46145,11262
46216,11191
46254,11099
46254,11000
46254,10400
46216,10308
46146,10238
46054,10200
45954,10199
45354,10199
45262,10237
45192,10308
45154,10400
45154,10499
45154,11099
45192,11191
45262,11261
45354,11299
45376,11299
45238,11438
45154,11640
45154,11858
45237,12061
45392,12215
45474,12249
45393,12283
45238,12438
45233,12450
44828,12450
44416,12037
44319,11972
44204,11950
44189,11950
44229,11854
44229,11646
44149,11453
44002,11305
43809,11225
43600,11224
43407,11304
43259,11452
43179,11645
43179,11853
43218,11950
42229,11950
42229,8146
42149,7953
42002,7805
41809,7725
41600,7724
41407,7804
41259,7952
41179,8145
41179,8353
41259,8547
41406,8694
41599,8774
41808,8775
42001,8695
42149,8547
42229,8354
42229,8146
42229,11950
41755,11950
41695,11889
41539,11825
41370,11824
41215,11889
41229,11854
41229,11646
41149,11453
41002,11305
40929,11275
41028,11275
41120,11237
41191,11166
41229,11074
41229,10975
41229,10425
41191,10333
41121,10263
41029,10225
40929,10224
40379,10224
40287,10262
40217,10333
40179,10425
40179,10450
38146,10450
38002,10305
37809,10225
37600,10224
37407,10304
37259,10452
37179,10645
37179,10853
37218,10950
37078,10950
36697,10568
36649,10453
36502,10305
36309,10225
36100,10224
35907,10304
35759,10452
35679,10645
35679,10853
35759,11047
35906,11194
36039,11250
35907,11304
35759,11452
35679,11645
35679,11853
35759,12047
35906,12194
36099,12274
36308,12275
36501,12195
36649,12047
36729,11854
36729,11646
36649,11453
36502,11305
36369,11249
36482,11202
36742,11462
36742,11462
36839,11527
36954,11550
37218,11550
37179,11645
37179,11853
37259,12047
37406,12194
37599,12274
37808,12275
38001,12195
38113,12083
38486,12456
38454,12450
34179,12450
34174,12438
34020,12284
33938,12250
34019,12216
34174,12061
34258,11859
34258,11641
34174,11438
34020,11284
33938,11250
34019,11216
34174,11061
34258,10859
34258,10641
34174,10438
34020,10284
33938,10250
34019,10216
34174,10061
34258,9859
34258,9641
34174,9438
34020,9284
33938,9250
34019,9216
34174,9061
34258,8859
34258,8641
34174,8438
34036,8300
34057,8300
34149,8262
34220,8191
34258,8099
34258,8000
34258,7400
34220,7308
34150,7238
34137,7232
34137,6364
34033,6113
33841,5921
33590,5817
33319,5816
33067,5920
32875,6112
32771,6363
32771,6635
32874,6886
33066,7078
33317,7182
33589,7183
33840,7079
34033,6887
34137,6636
34137,6364
34137,7232
34058,7200
33958,7199
33358,7199
33266,7237
33196,7308
33158,7400
33158,7499
33158,7998
33119,7972
33004,7950
28637,7950
28637,6364
28533,6113
28341,5921
28090,5817
27819,5816
27567,5920
27375,6112
27271,6363
27271,6635
27374,6886
27566,7078
27817,7182
28089,7183
28340,7079
28533,6887
28637,6636
28637,6364
28637,7950
28212,7950
28250,7859
28250,7641
28166,7438
28012,7284
27810,7200
27591,7199
27389,7283
27234,7438
27150,7640
27150,7858
27187,7950
25189,7950
25229,7854
25229,7646
25149,7453
25002,7305
24809,7225
24600,7224
24407,7304
24259,7452
24179,7645
24179,7853
24218,7950
22229,7950
22229,6146
22149,5953
22002,5805
21809,5725
21600,5724
21407,5804
21259,5952
21204,6085
21149,5953
21002,5805
20809,5725
20600,5724
20407,5804
20259,5952
20179,6145
20179,6353
20259,6547
20406,6694
20599,6774
20808,6775
21001,6695
21149,6547
21204,6414
21259,6547
21406,6694
21599,6774
21808,6775
22001,6695
22149,6547
22229,6354
22229,6146
22229,7950
22229,7950
22229,7425
22191,7333
22121,7263
22029,7225
21929,7224
21379,7224
21287,7262
21217,7333
21179,7425
21179,7524
21179,7950
19605,7950
19595,7939
19439,7875
19270,7874
19113,7939
18994,8058
18929,8215
18929,8384
18954,8446
18454,8446
18454,7188
18454,6188
18416,6096
18346,6026
18254,5988
18154,5988
17154,5988
17062,6026
16992,6096
16954,6188
16954,6287
16954,7287
16992,7379
17062,7450
17154,7488
17253,7488
18253,7488
18345,7450
18416,7379
18454,7288
18454,7188
18454,8446
18391,8446
18340,8321
18129,8110
17854,7996
17555,7995
17280,8109
17165,8224
13867,8224
13681,8037
13372,7909
13196,7909
13196,1853
13083,1580
12875,1371
12602,1258
12307,1257
12034,1370
11825,1579
11712,1851
11712,2146
11824,2419
12033,2628
12306,2741
12601,2742
12874,2629
13083,2420
13196,2148
13196,1853
13196,7909
13037,7909
12728,8037
12492,8273
12363,8582
12363,8916
12491,9225
12727,9462
13036,9590
13370,9590
13679,9462
13867,9275
17173,9275
17278,9381
17554,9495
17852,9496
18128,9382
18339,9171
18391,9046
21258,9046
21259,9047
21406,9194
21539,9250
21407,9304
21259,9452
21179,9645
21179,9853
21259,10047
21406,10194
21539,10250
21407,10304
21259,10452
21179,10645
21179,10853
21259,11047
21296,11084
18454,13925
18454,12613
18454,10605
18340,10329
18129,10118
17854,10004
17555,10003
17280,10117
17173,10224
14044,10224
14044,10109
14006,10018
13936,9947
13844,9909
13745,9909
12564,9909
12472,9947
12402,10017
12363,10109
12363,10209
12363,11390
12401,11481
12472,11552
12563,11590
12663,11590
13844,11590
13936,11552
14006,11482
14044,11390
14044,11290
14044,11275
17165,11275
17278,11389
17554,11503
17852,11504
18128,11390
18339,11179
18454,10903
18454,10605
18454,12613
18340,12337
18129,12126
17854,12011
17555,12011
17280,12125
17068,12336
16954,12611
16954,12910
17068,13186
17278,13397
17554,13511
17852,13511
18128,13398
18339,13187
18454,12911
18454,12613
18454,13925
16038,16341
16002,16305
15809,16225
15600,16224
15407,16304
15259,16452
15204,16585
15149,16453
15002,16305
14809,16225
14600,16224
14407,16304
14261,16450
13675,16450
13670,16438
13516,16284
13434,16250
13515,16216
13670,16061
13754,15859
13754,15641
13670,15438
13516,15284
13314,15200
13095,15199
12893,15283
12738,15438
12654,15640
12654,15858
12737,16061
12892,16215
12974,16249
12893,16283
12738,16438
12654,16640
12654,16858
12737,17061
12892,17215
12974,17249
12893,17283
12738,17438
12654,17640
12654,17858
12737,18061
12892,18215
12974,18249
12893,18283
12738,18438
12654,18640
12654,18858
12737,19061
12892,19215
12974,19249
12893,19283
12738,19438
12654,19640
12654,19858
12737,20061
12892,20215
12974,20249
12893,20283
12738,20438
12654,20640
12654,20858
12737,21061
12892,21215
12974,21249
12893,21283
12738,21438
12654,21640
12654,21858
12737,22061
12892,22215
13094,22299
13313,22300
13515,22216
13670,22061
13675,22050
15261,22050
15406,22194
15599,22274
15808,22275
16001,22195
16149,22047
16204,21914
16259,22047
16406,22194
16599,22274
16808,22275
17001,22195
17149,22047
17229,21854
17229,21646
17171,21506
20128,18550
23327,18550
23279,18665
23279,18834
23327,18950
20254,18950
20139,18972
20042,19037
19705,19375
19620,19374
19463,19439
19344,19558
19279,19715
19279,19884
19343,20040
19463,20160
19619,20224
19788,20225
19944,20160
20064,20041
20129,19884
20129,19799
20378,19550
24277,19550
24229,19665
24229,19834
24293,19990
24413,20110
24569,20174
24738,20175
24894,20110
24955,20050
27229,20050
27233,20061
27388,20215
27470,20249
27389,20283
27234,20438
27229,20450
26005,20450
25945,20389
25789,20325
25620,20324
25463,20389
25344,20508
25279,20665
25279,20834
25343,20990
25463,21110
25619,21174
25788,21175
25944,21110
26005,21050
27229,21050
27233,21061
27388,21215
27590,21299
27809,21300
28011,21216
28166,21061
28250,20859
28250,20641
28166,20438
28012,20284
27930,20250
28011,20216
28166,20061
28250,19859
28250,19641
28212,19550
28254,19550
28254,19549
28369,19527
28369,19527
28466,19462
28878,19050
33237,19050
33241,19061
33396,19215
33478,19249
33397,19283
33242,19438
33237,19450
31005,19450
30945,19389
30789,19325
30620,19324
30463,19389
30344,19508
30279,19665
30279,19834
30343,19990
30463,20110
30619,20174
30788,20175
30944,20110
31005,20050
33237,20050
33241,20061
33396,20215
33478,20249
33397,20283
33242,20438
33158,20640
33158,20858
33241,21061
33396,21215
33598,21299
33817,21300
34019,21216
34174,21061
34258,20859
34258,20641
34174,20438
34020,20284
33938,20250
34019,20216
34174,20061
34258,19859
34258,19641
34174,19438
34020,19284
33938,19250
34019,19216
34174,19061
34258,18859
34258,18641
34174,18438
34020,18284
33938,18250
34019,18216
34174,18061
34258,17859
34258,17641
34174,17438
34020,17284
33938,17250
34019,17216
34174,17061
34258,16859
34258,16641
34174,16438
34020,16284
33938,16250
34019,16216
34174,16061
34258,15859
34258,15641
34252,15626
34369,15674
34538,15675
34694,15610
34755,15550
39704,15550
40218,15550
40179,15645
40179,15850
40080,15950
38146,15950
38002,15805
37809,15725
37600,15724
37407,15804
37259,15952
37179,16145
37179,16353
37259,16547
37406,16694
37539,16750
37407,16804
37259,16952
37179,17145
37179,17353
37259,17547
37406,17694
37599,17774
37808,17775
38001,17695
38149,17547
38229,17354
38229,17146
38149,16953
38002,16805
37869,16749
38001,16695
38146,16550
40204,16550
40204,16549
40220,16546
40179,16645
40179,16853
40259,17047
40406,17194
40539,17250
40407,17304
40259,17452
40179,17645
40179,17853
40259,18047
40406,18194
40599,18274
40805,18275
40992,18462
40992,18462
41089,18527
41204,18550
44704,18550
44704,18549
44819,18527
44819,18527
44916,18462
45154,18224
45154,18358
45237,18561
45392,18715
45594,18799
45813,18800
46015,18716
46170,18561
46254,18359
46254,18141
46254,31321
46102,31258
45807,31257
45534,31370
45325,31579
45212,31851
45212,32146
45324,32419
45533,32628
45806,32741
46101,32742
46374,32629
46583,32420
46696,32148
46696,31853
46696,32980
34137,32980
34137,21864
34033,21613
33841,21421
33590,21317
33319,21316
33067,21420
32875,21612
32771,21863
32771,22135
32874,22386
33066,22578
33317,22682
33589,22683
33840,22579
34033,22387
34137,22136
34137,21864
34137,32980
33254,32980
33254,31000
33254,30400
33254,29000
33254,28400
33229,28340
33229,26646
33149,26453
33002,26305
32809,26225
32600,26224
32407,26304
32259,26452
32229,26524
32229,23646
32149,23453
32002,23305
31809,23225
31600,23224
31407,23304
31259,23452
31204,23585
31149,23453
31002,23305
30809,23225
30600,23224
30407,23304
30259,23452
30204,23585
30149,23453
30002,23305
29809,23225
29600,23224
29407,23304
29259,23452
29179,23645
29179,23853
29259,24047
29406,24194
29599,24274
29808,24275
30001,24195
30149,24047
30204,23914
30259,24047
30406,24194
30599,24274
30808,24275
31001,24195
31149,24047
31204,23914
31259,24047
31406,24194
31599,24274
31808,24275
32001,24195
32149,24047
32229,23854
32229,23646
32229,26524
32204,26585
32149,26453
32002,26305
31809,26225
31600,26224
31407,26304
31259,26452
31204,26585
31149,26453
31002,26305
30809,26225
30600,26224
30407,26304
30259,26452
30204,26585
30149,26453
30002,26305
29809,26225
29600,26224
29407,26304
29259,26452
29179,26645
29179,26853
29259,27047
29406,27194
29599,27274
29808,27275
30001,27195
30149,27047
30204,26914
30259,27047
30406,27194
30599,27274
30808,27275
31001,27195
31149,27047
31204,26914
31259,27047
31406,27194
31599,27274
31808,27275
32001,27195
32149,27047
32204,26914
32259,27047
32406,27194
32599,27274
32808,27275
33001,27195
33149,27047
33229,26854
33229,26646
33229,28340
33216,28308
33146,28238
33054,28200
32954,28199
32354,28199
32262,28237
32192,28308
32154,28400
32154,28422
32016,28284
31814,28200
31595,28199
31393,28283
31238,28438
31204,28519
31170,28438
31016,28284
30814,28200
30595,28199
30393,28283
30238,28438
30204,28519
30170,28438
30016,28284
29814,28200
29595,28199
29393,28283
29238,28438
29204,28519
29170,28438
29016,28284
28814,28200
28637,28199
28637,21864
28533,21613
28341,21421
28090,21317
27819,21316
27567,21420
27375,21612
27271,21863
27271,22135
27374,22386
27566,22578
27817,22682
28089,22683
28340,22579
28533,22387
28637,22136
28637,21864
28637,28199
28595,28199
28393,28283
28238,28438
28154,28640
28154,28858
28237,29061
28392,29215
28594,29299
28813,29300
29015,29216
29170,29061
29204,28980
29237,29061
29392,29215
29594,29299
29813,29300
30015,29216
30170,29061
30204,28980
30237,29061
30392,29215
30594,29299
30813,29300
31015,29216
31170,29061
31204,28980
31237,29061
31392,29215
31594,29299
31813,29300
32015,29216
32154,29077
32154,29099
32192,29191
32262,29261
32354,29299
32453,29300
33053,29300
33145,29262
33216,29191
33254,29099
33254,29000
33254,30400
33216,30308
33146,30238
33054,30200
32954,30199
32354,30199
32262,30237
32192,30308
32154,30400
32154,30422
32016,30284
31814,30200
31595,30199
31393,30283
31238,30438
31204,30519
31170,30438
31016,30284
30814,30200
30595,30199
30393,30283
30238,30438
30204,30519
30170,30438
30016,30284
29814,30200
29595,30199
29393,30283
29238,30438
29204,30519
29170,30438
29016,30284
28814,30200
28595,30199
28393,30283
28238,30438
28154,30640
28154,30858
28237,31061
28392,31215
28594,31299
28813,31300
29015,31216
29170,31061
29204,30980
29237,31061
29392,31215
29594,31299
29813,31300
30015,31216
30170,31061
30204,30980
30237,31061
30392,31215
30594,31299
30813,31300
31015,31216
31170,31061
31204,30980
31237,31061
31392,31215
31594,31299
31813,31300
32015,31216
32154,31077
32154,31099
32192,31191
32262,31261
32354,31299
32453,31300
33053,31300
33145,31262
33216,31191
33254,31099
33254,31000
33254,32980
26704,32980
26704,24150
26628,23967
26487,23826
26304,23750
26105,23749
25921,23825
25825,23921
18234,23921
18234,23920
18196,23828
18126,23758
18034,23720
17934,23719
17374,23719
17282,23757
17212,23828
17174,23920
17174,24019
17174,24579
17212,24671
17282,24741
17374,24779
17473,24780
18033,24780
18125,24742
18196,24671
18234,24579
18234,24578
25826,24578
25920,24673
26104,24749
26303,24750
26487,24674
26627,24533
26704,24349
26704,24150
26704,32980
26229,32980
26229,32146
26229,29146
26149,28953
26002,28805
25809,28725
25600,28724
25407,28804
25259,28952
25204,29085
25149,28953
25002,28805
24809,28725
24600,28724
24407,28804
24259,28952
24204,29085
24149,28953
24002,28805
23809,28725
23600,28724
23407,28804
23259,28952
23204,29085
23149,28953
23002,28805
22809,28725
22600,28724
22407,28804
22259,28952
22204,29085
22149,28953
22002,28805
21809,28725
21600,28724
21407,28804
21259,28952
21204,29085
21149,28953
21002,28805
20809,28725
20600,28724
20407,28804
20259,28952
20204,29085
20149,28953
20002,28805
19809,28725
19600,28724
19407,28804
19259,28952
19204,29085
19149,28953
19002,28805
18809,28725
18600,28724
18407,28804
18259,28952
18234,29012
18234,27145
18153,26950
18004,26800
17810,26720
17599,26719
17404,26800
17283,26921
16084,26921
16084,26413
16046,26321
15976,26250
15884,26212
15784,26212
14406,26212
14314,26250
14244,26320
14206,26412
14206,26512
14206,28086
14244,28178
14314,28249
14406,28287
14505,28287
15717,28287
16089,28659
15814,28659
15722,28697
15652,28767
15613,28859
15613,28959
15613,30140
15651,30231
15722,30302
15813,30340
15913,30340
17094,30340
17186,30302
17256,30232
17294,30140
17294,30040
17294,28859
17256,28768
17186,28697
17094,28659
16995,28659
16783,28659
16783,28559
16758,28433
16758,28433
16686,28326
16084,27724
16084,27578
17283,27578
17403,27699
17598,27779
17809,27780
18004,27699
18153,27550
18234,27355
18234,27145
18234,29012
18179,29145
18179,29353
18259,29547
18406,29694
18599,29774
18808,29775
19001,29695
19149,29547
19204,29414
19259,29547
19406,29694
19599,29774
19808,29775
20001,29695
20149,29547
20204,29414
20259,29547
20406,29694
20599,29774
20808,29775
21001,29695
21149,29547
21204,29414
21259,29547
21406,29694
21599,29774
21808,29775
22001,29695
22149,29547
22204,29414
22259,29547
22406,29694
22599,29774
22808,29775
23001,29695
23149,29547
23204,29414
23259,29547
23406,29694
23599,29774
23808,29775
24001,29695
24149,29547
24204,29414
24259,29547
24406,29694
24599,29774
24808,29775
25001,29695
25149,29547
25204,29414
25259,29547
25406,29694
25599,29774
25808,29775
26001,29695
26149,29547
26229,29354
26229,29146
26229,32146
26149,31953
26002,31805
25809,31725
25600,31724
25407,31804
25259,31952
25204,32085
25149,31953
25002,31805
24809,31725
24600,31724
24407,31804
24259,31952
24204,32085
24149,31953
24002,31805
23809,31725
23600,31724
23407,31804
23259,31952
23204,32085
23149,31953
23002,31805
22809,31725
22600,31724
22407,31804
22259,31952
22204,32085
22149,31953
22002,31805
21809,31725
21600,31724
21407,31804
21259,31952
21204,32085
21149,31953
21002,31805
20809,31725
20600,31724
20407,31804
20259,31952
20204,32085
20149,31953
20002,31805
19809,31725
19600,31724
19407,31804
19259,31952
19229,32024
19229,31925
19191,31833
19121,31763
19029,31725
18929,31724
18379,31724
18287,31762
18217,31833
18179,31925
18179,32024
18179,32574
18217,32666
18287,32736
18379,32774
18478,32775
19028,32775
19120,32737
19191,32666
19229,32574
19229,32475
19229,32475
19259,32547
19406,32694
19599,32774
19808,32775
20001,32695
20149,32547
20204,32414
20259,32547
20406,32694
20599,32774
20808,32775
21001,32695
21149,32547
21204,32414
21259,32547
21406,32694
21599,32774
21808,32775
22001,32695
22149,32547
22204,32414
22259,32547
22406,32694
22599,32774
22808,32775
23001,32695
23149,32547
23204,32414
23259,32547
23406,32694
23599,32774
23808,32775
24001,32695
24149,32547
24204,32414
24259,32547
24406,32694
24599,32774
24808,32775
25001,32695
25149,32547
25204,32414
25259,32547
25406,32694
25599,32774
25808,32775
26001,32695
26149,32547
26229,32354
26229,32146
26229,32980
15294,32980
15294,29333
15167,29024
14931,28787
14622,28659
14287,28659
13978,28787
13742,29023
13722,29071
13722,27889
13722,26511
13684,26419
13613,26349
13522,26311
13422,26310
12044,26310
11952,26348
11882,26419
11844,26511
11844,26610
11844,27988
11882,28080
11952,28150
12044,28188
12143,28189
13521,28189
13613,28151
13683,28080
13722,27988
13722,27889
13722,29071
13613,29332
13613,29666
13741,29975
13977,30212
14286,30340
14620,30340
14929,30212
15166,29976
15294,29667
15294,29333
15294,32980
13196,32980
13196,31853
13083,31580
12875,31371
12602,31258
12307,31257
12034,31370
11825,31579
11712,31851
11712,32146
11824,32419
12033,32628
12306,32741
12601,32742
12874,32629
13083,32420
13196,32148
13196,31853
13196,32980
11474,32980
11474,1019
46934,1019
46934,32980
" /> 
</g>
<g style="fill:#FFFFFF; fill-opacity:0.0; 
stroke:#FFFFFF; stroke-width:39.3701; stroke-opacity:1; 
stroke-linecap:round; stroke-linejoin:round;">
</g>
<g style="fill:#FFFFFF; fill-opacity:1.0; 
stroke:#FFFFFF; stroke-width:39.3701; stroke-opacity:1; 
stroke-linecap:round; stroke-linejoin:round;">
<circle cx="25754.3" cy="10700" r="105.315" /> 
<circle cx="44454.3" cy="16250" r="105.315" /> 
<circle cx="34454.3" cy="15250" r="105.315" /> 
<circle cx="42454.3" cy="17750" r="105.315" /> 
<circle cx="42454.3" cy="14250" r="105.315" /> 
<circle cx="23704.3" cy="18750" r="105.315" /> 
<circle cx="24654.3" cy="19750" r="105.315" /> 
<circle cx="25704.3" cy="20750" r="105.315" /> 
<circle cx="45204.3" cy="17750" r="105.315" /> 
<circle cx="19354.3" cy="8300" r="105.315" /> 
<circle cx="19704.3" cy="19800" r="105.315" /> 
<circle cx="21154.3" cy="15750" r="105.315" /> 
<circle cx="21704.3" cy="16750" r="105.315" /> 
<circle cx="22754.3" cy="17750" r="105.315" /> 
<circle cx="42954.3" cy="13250" r="105.315" /> 
<circle cx="32954.3" cy="9250" r="105.315" /> 
<circle cx="44854.3" cy="13750" r="105.315" /> 
<circle cx="44704.3" cy="17250" r="105.315" /> 
<circle cx="32604.3" cy="10750" r="105.315" /> 
<circle cx="32604.3" cy="12250" r="105.315" /> 
<circle cx="33304.3" cy="11250" r="105.315" /> 
<circle cx="41454.3" cy="12250" r="105.315" /> 
<circle cx="26204.3" cy="13750" r="155.315" /> 
<circle cx="26204.3" cy="24250" r="155.315" /> 
<circle cx="30704.3" cy="19750" r="105.315" /> 
<circle cx="13204.3" cy="22750" r="180.315" /> 
<circle cx="13204.3" cy="21750" r="180.315" /> 
<circle cx="13204.3" cy="20750" r="180.315" /> 
<circle cx="13204.3" cy="19750" r="180.315" /> 
<circle cx="13204.3" cy="18750" r="180.315" /> 
<circle cx="13204.3" cy="17750" r="180.315" /> 
<circle cx="13204.3" cy="16750" r="180.315" /> 
<circle cx="13204.3" cy="15750" r="180.315" /> 
<circle cx="14704.3" cy="16750" r="140.315" /> 
<circle cx="15704.3" cy="16750" r="140.315" /> 
<circle cx="15704.3" cy="17750" r="140.315" /> 
<circle cx="16704.3" cy="17750" r="140.315" /> 
<circle cx="14704.3" cy="18750" r="140.315" /> 
<circle cx="15704.3" cy="18750" r="140.315" /> 
<circle cx="15704.3" cy="19750" r="140.315" /> 
<circle cx="16704.3" cy="19750" r="140.315" /> 
<circle cx="14704.3" cy="20750" r="140.315" /> 
<circle cx="15704.3" cy="20750" r="140.315" /> 
<circle cx="15704.3" cy="21750" r="140.315" /> 
<circle cx="16704.3" cy="21750" r="140.315" /> 
<circle cx="26204.3" cy="7750" r="140.315" /> 
<circle cx="26204.3" cy="8750" r="140.315" /> 
<circle cx="20704.3" cy="6250" r="140.315" /> 
<circle cx="21704.3" cy="6250" r="140.315" /> 
<circle cx="32704.3" cy="30750" r="180.315" /> 
<circle cx="31704.3" cy="30750" r="180.315" /> 
<circle cx="30704.3" cy="30750" r="180.315" /> 
<circle cx="29704.3" cy="30750" r="180.315" /> 
<circle cx="28704.3" cy="30750" r="180.315" /> 
<circle cx="32704.3" cy="28750" r="180.315" /> 
<circle cx="31704.3" cy="28750" r="180.315" /> 
<circle cx="30704.3" cy="28750" r="180.315" /> 
<circle cx="29704.3" cy="28750" r="180.315" /> 
<circle cx="28704.3" cy="28750" r="180.315" /> 
<circle cx="45704.3" cy="10750" r="180.315" /> 
<circle cx="45704.3" cy="11750" r="180.315" /> 
<circle cx="45704.3" cy="12750" r="180.315" /> 
<circle cx="45704.3" cy="13750" r="180.315" /> 
<circle cx="45704.3" cy="15250" r="180.315" /> 
<circle cx="45704.3" cy="16250" r="180.315" /> 
<circle cx="45704.3" cy="17250" r="180.315" /> 
<circle cx="45704.3" cy="18250" r="180.315" /> 
<circle cx="13204.3" cy="10750" r="226.315" /> 
<circle cx="13204.3" cy="8750" r="226.315" /> 
<circle cx="33454.3" cy="6500" r="413.386" /> 
<circle cx="27954.3" cy="6500" r="413.386" /> 
<circle cx="33454.3" cy="22000" r="413.386" /> 
<circle cx="27954.3" cy="22000" r="413.386" /> 
<circle cx="33708.3" cy="13750" r="180.315" /> 
<circle cx="33708.3" cy="12750" r="180.315" /> 
<circle cx="33708.3" cy="11750" r="180.315" /> 
<circle cx="33708.3" cy="10750" r="180.315" /> 
<circle cx="33708.3" cy="9750" r="180.315" /> 
<circle cx="33708.3" cy="8750" r="180.315" /> 
<circle cx="33708.3" cy="7750" r="180.315" /> 
<circle cx="33708.3" cy="14750" r="180.315" /> 
<circle cx="33708.3" cy="15750" r="180.315" /> 
<circle cx="33708.3" cy="16750" r="180.315" /> 
<circle cx="33708.3" cy="17750" r="180.315" /> 
<circle cx="33708.3" cy="18750" r="180.315" /> 
<circle cx="33708.3" cy="19750" r="180.315" /> 
<circle cx="33708.3" cy="20750" r="180.315" /> 
<circle cx="27700.4" cy="20750" r="180.315" /> 
<circle cx="27700.4" cy="19750" r="180.315" /> 
<circle cx="27700.4" cy="18750" r="180.315" /> 
<circle cx="27700.4" cy="17750" r="180.315" /> 
<circle cx="27700.4" cy="16750" r="180.315" /> 
<circle cx="27700.4" cy="15750" r="180.315" /> 
<circle cx="27700.4" cy="14750" r="180.315" /> 
<circle cx="27700.4" cy="13750" r="180.315" /> 
<circle cx="27700.4" cy="12750" r="180.315" /> 
<circle cx="27700.4" cy="11750" r="180.315" /> 
<circle cx="27700.4" cy="10750" r="180.315" /> 
<circle cx="27700.4" cy="9750" r="180.315" /> 
<circle cx="27700.4" cy="8750" r="180.315" /> 
<circle cx="27700.4" cy="7750" r="180.315" /> 
<circle cx="17704.3" cy="6738.19" r="280.315" /> 
<circle cx="17704.3" cy="8746.06" r="280.315" /> 
<circle cx="17704.3" cy="10753.9" r="280.315" /> 
<circle cx="17704.3" cy="12761.8" r="280.315" /> 
<circle cx="17704.3" cy="24250" r="100.315" /> 
<circle cx="17704.3" cy="27250" r="100.315" /> 
<circle cx="21704.3" cy="7750" r="140.315" /> 
<circle cx="21704.3" cy="8750" r="140.315" /> 
<circle cx="21704.3" cy="9750" r="140.315" /> 
<circle cx="21704.3" cy="10750" r="140.315" /> 
<circle cx="24704.3" cy="10750" r="140.315" /> 
<circle cx="24704.3" cy="9750" r="140.315" /> 
<circle cx="24704.3" cy="8750" r="140.315" /> 
<circle cx="24704.3" cy="7750" r="140.315" /> 
<circle cx="32704.3" cy="23750" r="140.315" /> 
<circle cx="31704.3" cy="23750" r="140.315" /> 
<circle cx="30704.3" cy="23750" r="140.315" /> 
<circle cx="29704.3" cy="23750" r="140.315" /> 
<circle cx="29704.3" cy="26750" r="140.315" /> 
<circle cx="30704.3" cy="26750" r="140.315" /> 
<circle cx="31704.3" cy="26750" r="140.315" /> 
<circle cx="32704.3" cy="26750" r="140.315" /> 
<circle cx="40704.3" cy="10750" r="140.315" /> 
<circle cx="40704.3" cy="11750" r="140.315" /> 
<circle cx="40704.3" cy="12750" r="140.315" /> 
<circle cx="40704.3" cy="13750" r="140.315" /> 
<circle cx="40704.3" cy="14750" r="140.315" /> 
<circle cx="40704.3" cy="15750" r="140.315" /> 
<circle cx="40704.3" cy="16750" r="140.315" /> 
<circle cx="40704.3" cy="17750" r="140.315" /> 
<circle cx="43704.3" cy="17750" r="140.315" /> 
<circle cx="43704.3" cy="16750" r="140.315" /> 
<circle cx="43704.3" cy="15750" r="140.315" /> 
<circle cx="43704.3" cy="14750" r="140.315" /> 
<circle cx="43704.3" cy="13750" r="140.315" /> 
<circle cx="43704.3" cy="12750" r="140.315" /> 
<circle cx="43704.3" cy="11750" r="140.315" /> 
<circle cx="43704.3" cy="10750" r="140.315" /> 
<circle cx="37704.3" cy="10750" r="140.315" /> 
<circle cx="37704.3" cy="11750" r="140.315" /> 
<circle cx="37704.3" cy="13750" r="140.315" /> 
<circle cx="37704.3" cy="14750" r="140.315" /> 
<circle cx="36204.3" cy="10750" r="140.315" /> 
<circle cx="36204.3" cy="11750" r="140.315" /> 
<circle cx="37704.3" cy="16250" r="140.315" /> 
<circle cx="37704.3" cy="17250" r="140.315" /> 
<circle cx="42704.3" cy="8250" r="140.315" /> 
<circle cx="41704.3" cy="8250" r="140.315" /> 
</g>
<g style="fill:#FFFFFF; fill-opacity:1.0; 
stroke:#FFFFFF; stroke-width:393.701; stroke-opacity:1; 
stroke-linecap:round; stroke-linejoin:round;">
<path d="M15145 26757
L15145 27742
" />
</g>
<g style="fill:#FFFFFF; fill-opacity:1.0; 
stroke:#FFFFFF; stroke-width:394; stroke-opacity:1; 
stroke-linecap:round; stroke-linejoin:round;">
<path d="M12783 26856
L12783 27643
" />
</g>
<g style="fill:#FFFFFF; fill-opacity:1.0; 
stroke:#FFFFFF; stroke-width:39.3701; stroke-opacity:1; 
stroke-linecap:round; stroke-linejoin:round;">
<circle cx="12454.3" cy="2000" r="472.315" /> 
<circle cx="45954.3" cy="2000" r="472.315" /> 
<circle cx="45954.3" cy="32000" r="472.315" /> 
<circle cx="12454.3" cy="32000" r="472.315" /> 
<circle cx="18704.3" cy="32250" r="140.315" /> 
<circle cx="19704.3" cy="32250" r="140.315" /> 
<circle cx="20704.3" cy="32250" r="140.315" /> 
<circle cx="21704.3" cy="32250" r="140.315" /> 
<circle cx="22704.3" cy="32250" r="140.315" /> 
<circle cx="23704.3" cy="32250" r="140.315" /> 
<circle cx="24704.3" cy="32250" r="140.315" /> 
<circle cx="25704.3" cy="32250" r="140.315" /> 
<circle cx="25704.3" cy="29250" r="140.315" /> 
<circle cx="24704.3" cy="29250" r="140.315" /> 
<circle cx="23704.3" cy="29250" r="140.315" /> 
<circle cx="22704.3" cy="29250" r="140.315" /> 
<circle cx="21704.3" cy="29250" r="140.315" /> 
<circle cx="20704.3" cy="29250" r="140.315" /> 
<circle cx="19704.3" cy="29250" r="140.315" /> 
<circle cx="18704.3" cy="29250" r="140.315" /> 
<circle cx="16454.3" cy="29500" r="226.315" /> 
<circle cx="14454.3" cy="29500" r="226.315" /> 
</g> 
</svg>
