<?xml version="1.0" standalone="no"?>
 <!DOCTYPE svg PUBLIC "-//W3C//DTD SVG 1.1//EN" 
 "http://www.w3.org/Graphics/SVG/1.1/DTD/svg11.dtd"> 
<svg xmlns="http://www.w3.org/2000/svg" version="1.1" 
    width="41.9989cm" height="29.7002cm" viewBox="0 0 165350 116930 ">
<title>SVG Picture created as MetroMiniABSBiDir-noCANSlave-B_Cu.svg date 2018/06/16 15:05:28 </title>
  <desc>Picture generated by PCBNEW </desc>
<g style="fill:#000000; fill-opacity:1;stroke:#000000; stroke-opacity:1;
stroke-linecap:round; stroke-linejoin:round; "
 transform="translate(0 0) scale(1 1)">
</g>
<g style="fill:#000000; fill-opacity:0.0; 
stroke:#000000; stroke-width:39.3701; stroke-opacity:1; 
stroke-linecap:round; stroke-linejoin:round;">
<path d="M4000 4000
L161350 4000
L161350 112930
L4000 112930
L4000 4000
" />
<path d="M4700 4700
L160650 4700
L160650 112230
L4700 112230
L4700 4700
" />
<path d="M26470 4000
L26470 4700
" />
<path d="M15382 4552
L15097 4552
" />
<path d="M15240 4552
L15240 4052
L15192 4123
L15144 4171
L15097 4195
" />
<path d="M26470 112930
L26470 112230
" />
<path d="M15382 112782
L15097 112782
" />
<path d="M15240 112782
L15240 112282
L15192 112353
L15144 112401
L15097 112425
" />
<path d="M48940 4000
L48940 4700
" />
<path d="M37567 4100
L37590 4076
L37638 4052
L37757 4052
L37805 4076
L37829 4100
L37852 4147
L37852 4195
L37829 4266
L37543 4552
L37852 4552
" />
<path d="M48940 112930
L48940 112230
" />
<path d="M37567 112330
L37590 112306
L37638 112282
L37757 112282
L37805 112306
L37829 112330
L37852 112377
L37852 112425
L37829 112496
L37543 112782
L37852 112782
" />
<path d="M71410 4000
L71410 4700
" />
<path d="M60013 4052
L60322 4052
L60156 4242
L60227 4242
L60275 4266
L60299 4290
L60322 4338
L60322 4457
L60299 4504
L60275 4528
L60227 4552
L60084 4552
L60037 4528
L60013 4504
" />
<path d="M71410 112930
L71410 112230
" />
<path d="M60013 112282
L60322 112282
L60156 112472
L60227 112472
L60275 112496
L60299 112520
L60322 112568
L60322 112687
L60299 112734
L60275 112758
L60227 112782
L60084 112782
L60037 112758
L60013 112734
" />
<path d="M93880 4000
L93880 4700
" />
<path d="M82745 4219
L82745 4552
" />
<path d="M82626 4028
L82507 4385
L82816 4385
" />
<path d="M93880 112930
L93880 112230
" />
<path d="M82745 112449
L82745 112782
" />
<path d="M82626 112258
L82507 112615
L82816 112615
" />
<path d="M116350 4000
L116350 4700
" />
<path d="M105239 4052
L105000 4052
L104977 4290
L105000 4266
L105048 4242
L105167 4242
L105215 4266
L105239 4290
L105262 4338
L105262 4457
L105239 4504
L105215 4528
L105167 4552
L105048 4552
L105000 4528
L104977 4504
" />
<path d="M116350 112930
L116350 112230
" />
<path d="M105239 112282
L105000 112282
L104977 112520
L105000 112496
L105048 112472
L105167 112472
L105215 112496
L105239 112520
L105262 112568
L105262 112687
L105239 112734
L105215 112758
L105167 112782
L105048 112782
L105000 112758
L104977 112734
" />
<path d="M138820 4000
L138820 4700
" />
<path d="M127685 4052
L127590 4052
L127542 4076
L127518 4100
L127470 4171
L127447 4266
L127447 4457
L127470 4504
L127494 4528
L127542 4552
L127637 4552
L127685 4528
L127709 4504
L127732 4457
L127732 4338
L127709 4290
L127685 4266
L127637 4242
L127542 4242
L127494 4266
L127470 4290
L127447 4338
" />
<path d="M138820 112930
L138820 112230
" />
<path d="M127685 112282
L127590 112282
L127542 112306
L127518 112330
L127470 112401
L127447 112496
L127447 112687
L127470 112734
L127494 112758
L127542 112782
L127637 112782
L127685 112758
L127709 112734
L127732 112687
L127732 112568
L127709 112520
L127685 112496
L127637 112472
L127542 112472
L127494 112496
L127470 112520
L127447 112568
" />
<path d="M149893 4052
L150226 4052
L150012 4552
" />
<path d="M149893 112282
L150226 112282
L150012 112782
" />
<path d="M4000 25780
L4700 25780
" />
<path d="M4230 14949
L4469 14949
" />
<path d="M4183 15092
L4350 14592
L4516 15092
" />
<path d="M161350 25780
L160650 25780
" />
<path d="M160880 14949
L161119 14949
" />
<path d="M160833 15092
L161000 14592
L161166 15092
" />
<path d="M4000 47560
L4700 47560
" />
<path d="M4385 36610
L4457 36634
L4480 36658
L4504 36705
L4504 36777
L4480 36824
L4457 36848
L4409 36872
L4219 36872
L4219 36372
L4385 36372
L4433 36396
L4457 36420
L4480 36467
L4480 36515
L4457 36562
L4433 36586
L4385 36610
L4219 36610
" />
<path d="M161350 47560
L160650 47560
" />
<path d="M161035 36610
L161107 36634
L161130 36658
L161154 36705
L161154 36777
L161130 36824
L161107 36848
L161059 36872
L160869 36872
L160869 36372
L161035 36372
L161083 36396
L161107 36420
L161130 36467
L161130 36515
L161107 36562
L161083 36586
L161035 36610
L160869 36610
" />
<path d="M4000 69340
L4700 69340
" />
<path d="M4504 58604
L4480 58628
L4409 58652
L4361 58652
L4290 58628
L4242 58580
L4219 58533
L4195 58438
L4195 58366
L4219 58271
L4242 58223
L4290 58176
L4361 58152
L4409 58152
L4480 58176
L4504 58200
" />
<path d="M161350 69340
L160650 69340
" />
<path d="M161154 58604
L161130 58628
L161059 58652
L161011 58652
L160940 58628
L160892 58580
L160869 58533
L160845 58438
L160845 58366
L160869 58271
L160892 58223
L160940 58176
L161011 58152
L161059 58152
L161130 58176
L161154 58200
" />
<path d="M4000 91120
L4700 91120
" />
<path d="M4219 80432
L4219 79932
L4338 79932
L4409 79956
L4457 80003
L4480 80051
L4504 80146
L4504 80218
L4480 80313
L4457 80360
L4409 80408
L4338 80432
L4219 80432
" />
<path d="M161350 91120
L160650 91120
" />
<path d="M160869 80432
L160869 79932
L160988 79932
L161059 79956
L161107 80003
L161130 80051
L161154 80146
L161154 80218
L161130 80313
L161107 80360
L161059 80408
L160988 80432
L160869 80432
" />
<path d="M4242 101950
L4409 101950
" />
<path d="M4480 102212
L4242 102212
L4242 101712
L4480 101712
" />
<path d="M160892 101950
L161059 101950
" />
<path d="M161130 102212
L160892 102212
L160892 101712
L161130 101712
" />
<path d="M127800 110672
L127875 110072
L128017 110072
L128100 110101
L128150 110158
L128171 110215
L128185 110330
L128175 110415
L128132 110530
L128096 110587
L128032 110644
L127942 110672
L127800 110672
" />
<path d="M128657 110672
L128696 110358
L128675 110301
L128621 110272
L128507 110272
L128446 110301
" />
<path d="M128660 110644
L128600 110672
L128457 110672
L128403 110644
L128382 110587
L128389 110530
L128425 110472
L128485 110444
L128628 110444
L128689 110415
" />
<path d="M128907 110272
L129135 110272
" />
<path d="M129017 110072
L128953 110587
L128975 110644
L129028 110672
L129085 110672
" />
<path d="M129517 110644
L129457 110672
L129342 110672
L129289 110644
L129267 110587
L129296 110358
L129332 110301
L129392 110272
L129507 110272
L129560 110301
L129582 110358
L129575 110415
L129282 110472
" />
<path d="M129807 110615
L129832 110644
L129800 110672
L129775 110644
L129807 110615
L129800 110672
" />
<path d="M129846 110301
L129871 110330
L129839 110358
L129814 110330
L129846 110301
L129839 110358
" />
<path d="M130857 110672
L130514 110672
" />
<path d="M130685 110672
L130760 110072
L130692 110158
L130628 110215
L130567 110244
" />
<path d="M131446 110072
L131332 110072
L131271 110101
L131239 110130
L131171 110215
L131128 110330
L131100 110558
L131121 110615
L131146 110644
L131200 110672
L131314 110672
L131375 110644
L131407 110615
L131442 110558
L131460 110415
L131439 110358
L131414 110330
L131360 110301
L131246 110301
L131185 110330
L131153 110358
L131117 110415
" />
<path d="M132192 110272
L132128 110787
L132092 110844
L132032 110872
L132003 110872
" />
<path d="M132217 110072
L132185 110101
L132210 110130
L132242 110101
L132217 110072
L132210 110130
" />
<path d="M132735 110272
L132685 110672
" />
<path d="M132478 110272
L132439 110587
L132460 110644
L132514 110672
L132600 110672
L132660 110644
L132692 110615
" />
<path d="M133021 110272
L132971 110672
" />
<path d="M133014 110330
L133046 110301
L133107 110272
L133192 110272
L133246 110301
L133267 110358
L133228 110672
" />
<path d="M134010 110130
L134042 110101
L134103 110072
L134246 110072
L134300 110101
L134325 110130
L134346 110187
L134339 110244
L134300 110330
L133914 110672
L134285 110672
" />
<path d="M134732 110072
L134789 110072
L134842 110101
L134867 110130
L134889 110187
L134903 110301
L134885 110444
L134842 110558
L134807 110615
L134775 110644
L134714 110672
L134657 110672
L134603 110644
L134578 110615
L134557 110558
L134542 110444
L134560 110301
L134603 110187
L134639 110130
L134671 110101
L134732 110072
" />
<path d="M135428 110672
L135085 110672
" />
<path d="M135257 110672
L135332 110072
L135264 110158
L135200 110215
L135139 110244
" />
<path d="M135814 110330
L135760 110301
L135735 110272
L135714 110215
L135717 110187
L135753 110130
L135785 110101
L135846 110072
L135960 110072
L136014 110101
L136039 110130
L136060 110187
L136057 110215
L136021 110272
L135989 110301
L135928 110330
L135814 110330
L135753 110358
L135721 110387
L135685 110444
L135671 110558
L135692 110615
L135717 110644
L135771 110672
L135885 110672
L135946 110644
L135978 110615
L136014 110558
L136028 110444
L136007 110387
L135982 110358
L135928 110330
" />
<path d="M119392 111872
L119392 111272
" />
<path d="M119735 111872
L119478 111530
" />
<path d="M119735 111272
L119392 111615
" />
<path d="M119992 111872
L119992 111472
" />
<path d="M119992 111272
L119964 111301
L119992 111330
L120021 111301
L119992 111272
L119992 111330
" />
<path d="M120621 111815
L120592 111844
L120507 111872
L120450 111872
L120364 111844
L120307 111787
L120278 111730
L120250 111615
L120250 111530
L120278 111415
L120307 111358
L120364 111301
L120450 111272
L120507 111272
L120592 111301
L120621 111330
" />
<path d="M121135 111872
L121135 111558
L121107 111501
L121050 111472
L120935 111472
L120878 111501
" />
<path d="M121135 111844
L121078 111872
L120935 111872
L120878 111844
L120850 111787
L120850 111730
L120878 111672
L120935 111644
L121078 111644
L121135 111615
" />
<path d="M121678 111872
L121678 111272
" />
<path d="M121678 111844
L121621 111872
L121507 111872
L121450 111844
L121421 111815
L121392 111758
L121392 111587
L121421 111530
L121450 111501
L121507 111472
L121621 111472
L121678 111501
" />
<path d="M122421 111558
L122621 111558
" />
<path d="M122707 111872
L122421 111872
L122421 111272
L122707 111272
" />
<path d="M122964 111815
L122992 111844
L122964 111872
L122935 111844
L122964 111815
L122964 111872
" />
<path d="M123249 111872
L123249 111272
L123392 111272
L123478 111301
L123535 111358
L123564 111415
L123592 111530
L123592 111615
L123564 111730
L123535 111787
L123478 111844
L123392 111872
L123249 111872
" />
<path d="M123849 111815
L123878 111844
L123849 111872
L123821 111844
L123849 111815
L123849 111872
" />
<path d="M124107 111701
L124392 111701
" />
<path d="M124049 111872
L124249 111272
L124449 111872
" />
<path d="M124649 111815
L124678 111844
L124649 111872
L124621 111844
L124649 111815
L124649 111872
" />
<path d="M152942 110672
L152778 110387
" />
<path d="M152600 110672
L152675 110072
L152903 110072
L152957 110101
L152982 110130
L153003 110187
L152992 110272
L152957 110330
L152925 110358
L152864 110387
L152635 110387
" />
<path d="M153432 110644
L153371 110672
L153257 110672
L153203 110644
L153182 110587
L153210 110358
L153246 110301
L153307 110272
L153421 110272
L153475 110301
L153496 110358
L153489 110415
L153196 110472
" />
<path d="M153707 110272
L153800 110672
L153992 110272
" />
<path d="M154178 110615
L154203 110644
L154171 110672
L154146 110644
L154178 110615
L154171 110672
" />
<path d="M154217 110301
L154242 110330
L154210 110358
L154185 110330
L154217 110301
L154210 110358
" />
<path d="M119364 110644
L119450 110672
L119592 110672
L119650 110644
L119678 110615
L119707 110558
L119707 110501
L119678 110444
L119650 110415
L119592 110387
L119478 110358
L119421 110330
L119392 110301
L119364 110244
L119364 110187
L119392 110130
L119421 110101
L119478 110072
L119621 110072
L119707 110101
" />
<path d="M119964 110672
L119964 110272
" />
<path d="M119964 110072
L119935 110101
L119964 110130
L119992 110101
L119964 110072
L119964 110130
" />
<path d="M120192 110272
L120507 110272
L120192 110672
L120507 110672
" />
<path d="M120964 110644
L120907 110672
L120792 110672
L120735 110644
L120707 110587
L120707 110358
L120735 110301
L120792 110272
L120907 110272
L120964 110301
L120992 110358
L120992 110415
L120707 110472
" />
<path d="M121250 110615
L121278 110644
L121250 110672
L121221 110644
L121250 110615
L121250 110672
" />
<path d="M121250 110301
L121278 110330
L121250 110358
L121221 110330
L121250 110301
L121250 110358
" />
<path d="M121964 110501
L122250 110501
" />
<path d="M121907 110672
L122107 110072
L122307 110672
" />
<path d="M122450 110072
L122821 110072
L122621 110301
L122707 110301
L122764 110330
L122792 110358
L122821 110415
L122821 110558
L122792 110615
L122764 110644
L122707 110672
L122535 110672
L122478 110644
L122450 110615
" />
<path d="M152592 111872
L152592 111272
" />
<path d="M153135 111872
L153135 111272
" />
<path d="M153135 111844
L153078 111872
L152964 111872
L152907 111844
L152878 111815
L152850 111758
L152850 111587
L152878 111530
L152907 111501
L152964 111472
L153078 111472
L153135 111501
" />
<path d="M153421 111815
L153450 111844
L153421 111872
L153392 111844
L153421 111815
L153421 111872
" />
<path d="M153421 111501
L153450 111530
L153421 111558
L153392 111530
L153421 111501
L153421 111558
" />
<path d="M154478 111872
L154135 111872
" />
<path d="M154307 111872
L154307 111272
L154249 111358
L154192 111415
L154135 111444
" />
<path d="M155164 111244
L154650 112015
" />
<path d="M155678 111872
L155335 111872
" />
<path d="M155507 111872
L155507 111272
L155449 111358
L155392 111415
L155335 111444
" />
<path d="M119389 108872
L119732 108872
" />
<path d="M119485 109472
L119560 108872
" />
<path d="M119857 109472
L119907 109072
" />
<path d="M119932 108872
L119900 108901
L119925 108930
L119957 108901
L119932 108872
L119925 108930
" />
<path d="M120107 109072
L120335 109072
" />
<path d="M120217 108872
L120153 109387
L120175 109444
L120228 109472
L120285 109472
" />
<path d="M120571 109472
L120517 109444
L120496 109387
L120560 108872
" />
<path d="M121032 109444
L120971 109472
L120857 109472
L120803 109444
L120782 109387
L120810 109158
L120846 109101
L120907 109072
L121021 109072
L121075 109101
L121096 109158
L121089 109215
L120796 109272
" />
<path d="M121321 109415
L121346 109444
L121314 109472
L121289 109444
L121321 109415
L121314 109472
" />
<path d="M121360 109101
L121385 109130
L121353 109158
L121328 109130
L121360 109101
L121353 109158
" />
<path d="M119592 106758
L119392 106758
" />
<path d="M119392 107072
L119392 106472
L119678 106472
" />
<path d="M119907 107072
L119907 106672
" />
<path d="M119907 106472
L119878 106501
L119907 106530
L119935 106501
L119907 106472
L119907 106530
" />
<path d="M120278 107072
L120221 107044
L120192 106987
L120192 106472
" />
<path d="M120735 107044
L120678 107072
L120564 107072
L120507 107044
L120478 106987
L120478 106758
L120507 106701
L120564 106672
L120678 106672
L120735 106701
L120764 106758
L120764 106815
L120478 106872
" />
<path d="M121021 107015
L121050 107044
L121021 107072
L120992 107044
L121021 107015
L121021 107072
" />
<path d="M121021 106701
L121050 106730
L121021 106758
L120992 106730
L121021 106701
L121021 106758
" />
<path d="M121764 107072
L121764 106472
L121964 106901
L122164 106472
L122164 107072
" />
<path d="M122678 107044
L122621 107072
L122507 107072
L122450 107044
L122421 106987
L122421 106758
L122450 106701
L122507 106672
L122621 106672
L122678 106701
L122707 106758
L122707 106815
L122421 106872
" />
<path d="M122878 106672
L123107 106672
" />
<path d="M122964 106472
L122964 106987
L122992 107044
L123050 107072
L123107 107072
" />
<path d="M123307 107072
L123307 106672
" />
<path d="M123307 106787
L123335 106730
L123364 106701
L123421 106672
L123478 106672
" />
<path d="M123764 107072
L123707 107044
L123678 107015
L123650 106958
L123650 106787
L123678 106730
L123707 106701
L123764 106672
L123850 106672
L123907 106701
L123935 106730
L123964 106787
L123964 106958
L123935 107015
L123907 107044
L123850 107072
L123764 107072
" />
<path d="M124221 107072
L124221 106472
L124421 106901
L124621 106472
L124621 107072
" />
<path d="M124907 107072
L124907 106672
" />
<path d="M124907 106472
L124878 106501
L124907 106530
L124935 106501
L124907 106472
L124907 106530
" />
<path d="M125192 106672
L125192 107072
" />
<path d="M125192 106730
L125221 106701
L125278 106672
L125364 106672
L125421 106701
L125450 106758
L125450 107072
" />
<path d="M125735 107072
L125735 106672
" />
<path d="M125735 106472
L125707 106501
L125735 106530
L125764 106501
L125735 106472
L125735 106530
" />
<path d="M125992 106901
L126278 106901
" />
<path d="M125935 107072
L126135 106472
L126335 107072
" />
<path d="M126735 106758
L126821 106787
L126850 106815
L126878 106872
L126878 106958
L126850 107015
L126821 107044
L126764 107072
L126535 107072
L126535 106472
L126735 106472
L126792 106501
L126821 106530
L126850 106587
L126850 106644
L126821 106701
L126792 106730
L126735 106758
L126535 106758
" />
<path d="M127107 107044
L127192 107072
L127335 107072
L127392 107044
L127421 107015
L127450 106958
L127450 106901
L127421 106844
L127392 106815
L127335 106787
L127221 106758
L127164 106730
L127135 106701
L127107 106644
L127107 106587
L127135 106530
L127164 106501
L127221 106472
L127364 106472
L127450 106501
" />
<path d="M127907 106758
L127992 106787
L128021 106815
L128050 106872
L128050 106958
L128021 107015
L127992 107044
L127935 107072
L127707 107072
L127707 106472
L127907 106472
L127964 106501
L127992 106530
L128021 106587
L128021 106644
L127992 106701
L127964 106730
L127907 106758
L127707 106758
" />
<path d="M128307 107072
L128307 106672
" />
<path d="M128307 106472
L128278 106501
L128307 106530
L128335 106501
L128307 106472
L128307 106530
" />
<path d="M128592 107072
L128592 106472
L128735 106472
L128821 106501
L128878 106558
L128907 106615
L128935 106730
L128935 106815
L128907 106930
L128878 106987
L128821 107044
L128735 107072
L128592 107072
" />
<path d="M129192 107072
L129192 106672
" />
<path d="M129192 106472
L129164 106501
L129192 106530
L129221 106501
L129192 106472
L129192 106530
" />
<path d="M129478 107072
L129478 106672
" />
<path d="M129478 106787
L129507 106730
L129535 106701
L129592 106672
L129650 106672
" />
<path d="M129850 106844
L130307 106844
" />
<path d="M130592 106672
L130592 107072
" />
<path d="M130592 106730
L130621 106701
L130678 106672
L130764 106672
L130821 106701
L130850 106758
L130850 107072
" />
<path d="M131221 107072
L131164 107044
L131135 107015
L131107 106958
L131107 106787
L131135 106730
L131164 106701
L131221 106672
L131307 106672
L131364 106701
L131392 106730
L131421 106787
L131421 106958
L131392 107015
L131364 107044
L131307 107072
L131221 107072
" />
<path d="M132021 107015
L131992 107044
L131907 107072
L131850 107072
L131764 107044
L131707 106987
L131678 106930
L131650 106815
L131650 106730
L131678 106615
L131707 106558
L131764 106501
L131850 106472
L131907 106472
L131992 106501
L132021 106530
" />
<path d="M132250 106901
L132535 106901
" />
<path d="M132192 107072
L132392 106472
L132592 107072
" />
<path d="M132792 107072
L132792 106472
L133135 107072
L133135 106472
" />
<path d="M133392 107044
L133478 107072
L133621 107072
L133678 107044
L133707 107015
L133735 106958
L133735 106901
L133707 106844
L133678 106815
L133621 106787
L133507 106758
L133450 106730
L133421 106701
L133392 106644
L133392 106587
L133421 106530
L133450 106501
L133507 106472
L133650 106472
L133735 106501
" />
<path d="M134078 107072
L134021 107044
L133992 106987
L133992 106472
" />
<path d="M134564 107072
L134564 106758
L134535 106701
L134478 106672
L134364 106672
L134307 106701
" />
<path d="M134564 107044
L134507 107072
L134364 107072
L134307 107044
L134278 106987
L134278 106930
L134307 106872
L134364 106844
L134507 106844
L134564 106815
" />
<path d="M134792 106672
L134935 107072
L135078 106672
" />
<path d="M135535 107044
L135478 107072
L135364 107072
L135307 107044
L135278 106987
L135278 106758
L135307 106701
L135364 106672
L135478 106672
L135535 106701
L135564 106758
L135564 106815
L135278 106872
" />
<path d="M135821 107015
L135850 107044
L135821 107072
L135792 107044
L135821 107015
L135821 107072
" />
<path d="M136107 107072
L136107 106472
" />
<path d="M136164 106844
L136335 107072
" />
<path d="M136335 106672
L136107 106901
" />
<path d="M136592 107072
L136592 106672
" />
<path d="M136592 106472
L136564 106501
L136592 106530
L136621 106501
L136592 106472
L136592 106530
" />
<path d="M137135 107044
L137078 107072
L136964 107072
L136907 107044
L136878 107015
L136850 106958
L136850 106787
L136878 106730
L136907 106701
L136964 106672
L137078 106672
L137135 106701
" />
<path d="M137650 107072
L137650 106758
L137621 106701
L137564 106672
L137450 106672
L137392 106701
" />
<path d="M137650 107044
L137592 107072
L137450 107072
L137392 107044
L137364 106987
L137364 106930
L137392 106872
L137450 106844
L137592 106844
L137650 106815
" />
<path d="M138192 107072
L138192 106472
" />
<path d="M138192 107044
L138135 107072
L138021 107072
L137964 107044
L137935 107015
L137907 106958
L137907 106787
L137935 106730
L137964 106701
L138021 106672
L138135 106672
L138192 106701
" />
<path d="M138335 107130
L138792 107130
" />
<path d="M138935 106672
L138935 107272
" />
<path d="M138935 106701
L138992 106672
L139107 106672
L139164 106701
L139192 106730
L139221 106787
L139221 106958
L139192 107015
L139164 107044
L139107 107072
L138992 107072
L138935 107044
" />
<path d="M139735 107044
L139678 107072
L139564 107072
L139507 107044
L139478 107015
L139450 106958
L139450 106787
L139478 106730
L139507 106701
L139564 106672
L139678 106672
L139735 106701
" />
<path d="M139992 107072
L139992 106472
" />
<path d="M139992 106701
L140050 106672
L140164 106672
L140221 106701
L140250 106730
L140278 106787
L140278 106958
L140250 107015
L140221 107044
L140164 107072
L140050 107072
L139992 107044
" />
<path d="M119364 108244
L119450 108272
L119592 108272
L119650 108244
L119678 108215
L119707 108158
L119707 108101
L119678 108044
L119650 108015
L119592 107987
L119478 107958
L119421 107930
L119392 107901
L119364 107844
L119364 107787
L119392 107730
L119421 107701
L119478 107672
L119621 107672
L119707 107701
" />
<path d="M119964 108272
L119964 107672
" />
<path d="M120221 108272
L120221 107958
L120192 107901
L120135 107872
L120050 107872
L119992 107901
L119964 107930
" />
<path d="M120735 108244
L120678 108272
L120564 108272
L120507 108244
L120478 108187
L120478 107958
L120507 107901
L120564 107872
L120678 107872
L120735 107901
L120764 107958
L120764 108015
L120478 108072
" />
<path d="M121250 108244
L121192 108272
L121078 108272
L121021 108244
L120992 108187
L120992 107958
L121021 107901
L121078 107872
L121192 107872
L121250 107901
L121278 107958
L121278 108015
L120992 108072
" />
<path d="M121450 107872
L121678 107872
" />
<path d="M121535 107672
L121535 108187
L121564 108244
L121621 108272
L121678 108272
" />
<path d="M121878 108215
L121907 108244
L121878 108272
L121850 108244
L121878 108215
L121878 108272
" />
<path d="M121878 107901
L121907 107930
L121878 107958
L121850 107930
L121878 107901
L121878 107958
" />
<path d="M118650 106230
L118650 112230
" />
<path d="M118650 106230
L160650 106230
" />
<path d="M118650 106230
L160650 106230
" />
<path d="M118650 108630
L160650 108630
" />
<path d="M151850 109830
L151850 112230
" />
<path d="M118650 111030
L160650 111030
" />
<path d="M118650 109830
L160650 109830
" />
<path d="M125250 109830
L125250 111030
" />
</g>
<g style="fill:#FFFF00; fill-opacity:0.0; 
stroke:#FFFF00; stroke-width:39.3701; stroke-opacity:1; 
stroke-linecap:round; stroke-linejoin:round;">
<path d="M69000 77500
L33000 77500
" />
<path d="M69000 45000
L69000 77500
" />
<path d="M33000 45000
L69000 45000
" />
<path d="M33000 77500
L33000 45000
" />
</g>
<g style="fill:#808000; fill-opacity:0.0; 
stroke:#808000; stroke-width:39.3701; stroke-opacity:1; 
stroke-linecap:round; stroke-linejoin:round;">
</g>
<g style="fill:#808000; fill-opacity:1.0; 
stroke:#808000; stroke-width:39.3701; stroke-opacity:1; 
stroke-linecap:round; stroke-linejoin:round;">
<polyline style="fill-rule:evenodd;"
points="35280,67280
34719,67280
34719,66719
35280,66719
35280,67280
" /> 
<circle cx="35000" cy="66000" r="280.315" /> 
<circle cx="35000" cy="65000" r="280.315" /> 
<circle cx="35000" cy="64000" r="280.315" /> 
<circle cx="35000" cy="63000" r="280.315" /> 
<circle cx="35000" cy="62000" r="280.315" /> 
<circle cx="35000" cy="61000" r="280.315" /> 
<circle cx="35000" cy="60000" r="280.315" /> 
<circle cx="36500" cy="61000" r="255.315" /> 
<circle cx="37500" cy="61000" r="255.315" /> 
<circle cx="37500" cy="62000" r="255.315" /> 
<circle cx="38500" cy="62000" r="255.315" /> 
<circle cx="36500" cy="63000" r="255.315" /> 
<circle cx="37500" cy="63000" r="255.315" /> 
<circle cx="37500" cy="64000" r="255.315" /> 
<circle cx="38500" cy="64000" r="255.315" /> 
<circle cx="36500" cy="65000" r="255.315" /> 
<circle cx="37500" cy="65000" r="255.315" /> 
<circle cx="37500" cy="66000" r="255.315" /> 
<circle cx="38500" cy="66000" r="255.315" /> 
<circle cx="48000" cy="52000" r="255.315" /> 
<circle cx="48000" cy="53000" r="255.315" /> 
<circle cx="42500" cy="50500" r="255.315" /> 
<circle cx="43500" cy="50500" r="255.315" /> 
<polyline style="fill-rule:evenodd;"
points="54780,74719
54780,75280
54219,75280
54219,74719
54780,74719
" /> 
<circle cx="53500" cy="75000" r="280.315" /> 
<circle cx="52500" cy="75000" r="280.315" /> 
<circle cx="51500" cy="75000" r="280.315" /> 
<circle cx="50500" cy="75000" r="280.315" /> 
<polyline style="fill-rule:evenodd;"
points="54780,72719
54780,73280
54219,73280
54219,72719
54780,72719
" /> 
<circle cx="53500" cy="73000" r="280.315" /> 
<circle cx="52500" cy="73000" r="280.315" /> 
<circle cx="51500" cy="73000" r="280.315" /> 
<circle cx="50500" cy="73000" r="280.315" /> 
<polyline style="fill-rule:evenodd;"
points="67219,54719
67780,54719
67780,55280
67219,55280
67219,54719
" /> 
<circle cx="67500" cy="56000" r="280.315" /> 
<circle cx="67500" cy="57000" r="280.315" /> 
<circle cx="67500" cy="58000" r="280.315" /> 
<polyline style="fill-rule:evenodd;"
points="67219,59219
67780,59219
67780,59780
67219,59780
67219,59219
" /> 
<circle cx="67500" cy="60500" r="280.315" /> 
<circle cx="67500" cy="61500" r="280.315" /> 
<circle cx="67500" cy="62500" r="280.315" /> 
<polyline style="fill-rule:evenodd;"
points="35570,55570
34429,55570
34429,54429
35570,54429
35570,55570
" /> 
<circle cx="35000" cy="53000" r="570.815" /> 
<circle cx="55250" cy="50750" r="413.386" /> 
<circle cx="49750" cy="50750" r="413.386" /> 
<circle cx="55250" cy="66250" r="413.386" /> 
<circle cx="49750" cy="66250" r="413.386" /> 
<circle cx="55503.9" cy="58000" r="280.315" /> 
<circle cx="55503.9" cy="57000" r="280.315" /> 
<circle cx="55503.9" cy="56000" r="280.315" /> 
<circle cx="55503.9" cy="55000" r="280.315" /> 
<circle cx="55503.9" cy="54000" r="280.315" /> 
<circle cx="55503.9" cy="53000" r="280.315" /> 
<polyline style="fill-rule:evenodd;"
points="55223,51719
55784,51719
55784,52280
55223,52280
55223,51719
" /> 
<circle cx="55503.9" cy="59000" r="280.315" /> 
<circle cx="55503.9" cy="60000" r="280.315" /> 
<circle cx="55503.9" cy="61000" r="280.315" /> 
<circle cx="55503.9" cy="62000" r="280.315" /> 
<circle cx="55503.9" cy="63000" r="280.315" /> 
<circle cx="55503.9" cy="64000" r="280.315" /> 
<circle cx="55503.9" cy="65000" r="280.315" /> 
<circle cx="49496.1" cy="65000" r="280.315" /> 
<circle cx="49496.1" cy="64000" r="280.315" /> 
<circle cx="49496.1" cy="63000" r="280.315" /> 
<circle cx="49496.1" cy="62000" r="280.315" /> 
<circle cx="49496.1" cy="61000" r="280.315" /> 
<circle cx="49496.1" cy="60000" r="280.315" /> 
<circle cx="49496.1" cy="59000" r="280.315" /> 
<circle cx="49496.1" cy="58000" r="280.315" /> 
<circle cx="49496.1" cy="57000" r="280.315" /> 
<circle cx="49496.1" cy="56000" r="280.315" /> 
<circle cx="49496.1" cy="55000" r="280.315" /> 
<circle cx="49496.1" cy="54000" r="280.315" /> 
<circle cx="49496.1" cy="53000" r="280.315" /> 
<circle cx="49496.1" cy="52000" r="280.315" /> 
<polyline style="fill-rule:evenodd;"
points="39019,50507
39980,50507
39980,51468
39019,51468
39019,50507
" /> 
<circle cx="39500" cy="52996.1" r="480.315" /> 
<circle cx="39500" cy="55003.9" r="480.315" /> 
<circle cx="39500" cy="57011.8" r="480.315" /> 
<polyline style="fill-rule:evenodd;"
points="39760,68760
39239,68760
39239,68239
39760,68239
39760,68760
" /> 
<circle cx="39500" cy="71500" r="260.315" /> 
<polyline style="fill-rule:evenodd;"
points="43244,51744
43755,51744
43755,52255
43244,52255
43244,51744
" /> 
<circle cx="43500" cy="53000" r="255.315" /> 
<circle cx="43500" cy="54000" r="255.315" /> 
<circle cx="43500" cy="55000" r="255.315" /> 
<circle cx="46500" cy="55000" r="255.315" /> 
<circle cx="46500" cy="54000" r="255.315" /> 
<circle cx="46500" cy="53000" r="255.315" /> 
<circle cx="46500" cy="52000" r="255.315" /> 
<polyline style="fill-rule:evenodd;"
points="54755,67744
54755,68255
54244,68255
54244,67744
54755,67744
" /> 
<circle cx="53500" cy="68000" r="255.315" /> 
<circle cx="52500" cy="68000" r="255.315" /> 
<circle cx="51500" cy="68000" r="255.315" /> 
<circle cx="51500" cy="71000" r="255.315" /> 
<circle cx="52500" cy="71000" r="255.315" /> 
<circle cx="53500" cy="71000" r="255.315" /> 
<circle cx="54500" cy="71000" r="255.315" /> 
<polyline style="fill-rule:evenodd;"
points="62244,54744
62755,54744
62755,55255
62244,55255
62244,54744
" /> 
<circle cx="62500" cy="56000" r="255.315" /> 
<circle cx="62500" cy="57000" r="255.315" /> 
<circle cx="62500" cy="58000" r="255.315" /> 
<circle cx="62500" cy="59000" r="255.315" /> 
<circle cx="62500" cy="60000" r="255.315" /> 
<circle cx="62500" cy="61000" r="255.315" /> 
<circle cx="62500" cy="62000" r="255.315" /> 
<circle cx="65500" cy="62000" r="255.315" /> 
<circle cx="65500" cy="61000" r="255.315" /> 
<circle cx="65500" cy="60000" r="255.315" /> 
<circle cx="65500" cy="59000" r="255.315" /> 
<circle cx="65500" cy="58000" r="255.315" /> 
<circle cx="65500" cy="57000" r="255.315" /> 
<circle cx="65500" cy="56000" r="255.315" /> 
<circle cx="65500" cy="55000" r="255.315" /> 
<circle cx="59500" cy="55000" r="255.315" /> 
<circle cx="59500" cy="56000" r="255.315" /> 
<circle cx="59500" cy="58000" r="255.315" /> 
<circle cx="59500" cy="59000" r="255.315" /> 
<circle cx="58000" cy="55000" r="255.315" /> 
<circle cx="58000" cy="56000" r="255.315" /> 
<circle cx="59500" cy="60500" r="255.315" /> 
<circle cx="59500" cy="61500" r="255.315" /> 
<circle cx="64500" cy="52500" r="255.315" /> 
<circle cx="63500" cy="52500" r="255.315" /> 
<polyline style="fill-rule:evenodd;"
points="36271,72267
36271,70732
37610,70732
37610,72267
36271,72267
" /> 
<polyline style="fill-rule:evenodd;"
points="33909,72169
33909,70830
35248,70830
35248,72169
33909,72169
" /> 
<polyline style="fill-rule:evenodd;"
points="40244,76755
40244,76244
40755,76244
40755,76755
40244,76755
" /> 
<circle cx="41500" cy="76500" r="255.315" /> 
<circle cx="42500" cy="76500" r="255.315" /> 
<circle cx="43500" cy="76500" r="255.315" /> 
<circle cx="44500" cy="76500" r="255.315" /> 
<circle cx="45500" cy="76500" r="255.315" /> 
<circle cx="46500" cy="76500" r="255.315" /> 
<circle cx="47500" cy="76500" r="255.315" /> 
<circle cx="47500" cy="73500" r="255.315" /> 
<circle cx="46500" cy="73500" r="255.315" /> 
<circle cx="45500" cy="73500" r="255.315" /> 
<circle cx="44500" cy="73500" r="255.315" /> 
<circle cx="43500" cy="73500" r="255.315" /> 
<circle cx="42500" cy="73500" r="255.315" /> 
<circle cx="41500" cy="73500" r="255.315" /> 
<circle cx="40500" cy="73500" r="255.315" /> 
</g>
<g style="fill:#C0C0C0; fill-opacity:1.0; 
stroke:#C0C0C0; stroke-width:39.3701; stroke-opacity:1; 
stroke-linecap:round; stroke-linejoin:round;">
<circle cx="47550" cy="54950" r="155.315" /> 
<circle cx="67000" cy="62000" r="155.315" /> 
<circle cx="56250" cy="59500" r="155.315" /> 
<circle cx="64250" cy="62000" r="155.315" /> 
<circle cx="64250" cy="58500" r="155.315" /> 
<circle cx="41150" cy="52550" r="155.315" /> 
<circle cx="41500" cy="64050" r="155.315" /> 
<circle cx="66650" cy="58000" r="155.315" /> 
<circle cx="66500" cy="61500" r="155.315" /> 
<circle cx="42950" cy="60000" r="155.315" /> 
<circle cx="43500" cy="61000" r="155.315" /> 
<circle cx="44550" cy="62000" r="155.315" /> 
<circle cx="45500" cy="63000" r="155.315" /> 
<circle cx="46450" cy="64000" r="155.315" /> 
<circle cx="47500" cy="65000" r="155.315" /> 
<circle cx="63250" cy="56500" r="155.315" /> 
<circle cx="64750" cy="57500" r="155.315" /> 
<circle cx="54750" cy="53500" r="155.315" /> 
<circle cx="48000" cy="58000" r="230.315" /> 
<circle cx="48000" cy="68500" r="230.315" /> 
<circle cx="66250" cy="60500" r="155.315" /> 
<circle cx="54400" cy="55000" r="155.315" /> 
<circle cx="54400" cy="56500" r="155.315" /> 
<circle cx="55100" cy="55500" r="155.315" /> 
<circle cx="52500" cy="64000" r="155.315" /> 
</g>
<g style="fill:#00A000; fill-opacity:1.0; 
stroke:#00A000; stroke-width:100; stroke-opacity:1; 
stroke-linecap:round; stroke-linejoin:round;">
<path d="M48000 52000
L47300 52700
" />
<path d="M47300 54700
L47550 54950
" />
<path d="M47300 52700
L47300 54700
" />
<path d="M67500 56000
L67000 56500
" />
<path d="M67000 56500
L67000 62000
" />
<path d="M55750 61000
L55503 61000
" />
<path d="M56250 60500
L55750 61000
" />
<path d="M56250 59500
L56250 60500
" />
<path d="M64250 58500
L64250 62000
" />
<path d="M40500 73500
L40500 54850
" />
<path d="M41150 54200
L41150 52550
" />
<path d="M40500 54850
L41150 54200
" />
<path d="M41500 64050
L41500 73500
" />
<path d="M66500 61500
L66650 61250
" />
<path d="M66650 61250
L66650 58000
" />
<path d="M42500 73500
L42500 60450
" />
<path d="M42500 60450
L42950 60000
" />
<path d="M43500 61000
L43500 73500
" />
<path d="M44500 73500
L44500 62050
" />
<path d="M44500 62050
L44550 62000
" />
<path d="M45500 63000
L45500 73500
" />
<path d="M46500 73500
L46500 64050
" />
<path d="M46500 64050
L46450 64000
" />
<path d="M47500 65000
L47500 73500
" />
<path d="M52500 73000
L52500 75000
" />
<path d="M52500 71000
L52500 73000
" />
<path d="M53500 73000
L53500 75000
" />
<path d="M53500 71000
L53500 73000
" />
<path d="M54500 73000
L54500 75000
" />
<path d="M54500 71000
L54500 73000
" />
<path d="M43500 53000
L43750 53000
" />
<path d="M44250 54250
L43500 55000
" />
<path d="M44250 53500
L44250 54250
" />
<path d="M43750 53000
L44250 53500
" />
<path d="M63000 61000
L62500 61000
" />
<path d="M63250 60750
L63000 61000
" />
<path d="M63250 56500
L63250 60750
" />
</g>
<g style="fill:#00A000; fill-opacity:1.0; 
stroke:#00A000; stroke-width:551.181; stroke-opacity:1; 
stroke-linecap:round; stroke-linejoin:round;">
<path d="M39500 50988
L39500 51000
" />
<path d="M38250 55761
L39500 57011
" />
<path d="M38250 52250
L38250 55761
" />
<path d="M39500 51000
L38250 52250
" />
</g>
<g style="fill:#00A000; fill-opacity:1.0; 
stroke:#00A000; stroke-width:100; stroke-opacity:1; 
stroke-linecap:round; stroke-linejoin:round;">
<path d="M65500 60000
L65500 61000
" />
<path d="M64750 60000
L65500 60000
" />
<path d="M64750 57500
L64750 60000
" />
<path d="M55250 57000
L55503 57000
" />
<path d="M54750 56500
L55250 57000
" />
<path d="M54750 53500
L54750 56500
" />
<path d="M46500 53000
L46500 54000
" />
</g>
<g style="fill:#00A000; fill-opacity:1.0; 
stroke:#00A000; stroke-width:157.48; stroke-opacity:1; 
stroke-linecap:round; stroke-linejoin:round;">
<path d="M48000 68500
L48000 58000
" />
</g>
<g style="fill:#00A000; fill-opacity:1.0; 
stroke:#00A000; stroke-width:100; stroke-opacity:1; 
stroke-linecap:round; stroke-linejoin:round;">
<path d="M65750 57000
L65500 57000
" />
<path d="M66250 57500
L65750 57000
" />
<path d="M66250 60500
L66250 57500
" />
<path d="M54400 56500
L54400 55000
" />
<path d="M55050 54453
L55503 54000
" />
<path d="M55050 55450
L55050 54453
" />
<path d="M55100 55500
L55050 55450
" />
<path d="M52500 68000
L52500 64000
" />
<path d="M39500 55003
L39500 55000
" />
<path d="M41500 50500
L42500 50500
" />
<path d="M40500 51500
L41500 50500
" />
<path d="M40500 54000
L40500 51500
" />
<path d="M39500 55000
L40500 54000
" />
<path d="M43500 50500
L43500 52000
" />
<path d="M43500 52000
L42750 52750
" />
<path d="M42750 52750
L42750 53750
" />
<path d="M42750 53750
L43000 54000
" />
<path d="M43000 54000
L43500 54000
" />
<path d="M53500 68000
L53500 66000
" />
<path d="M54500 65000
L55503 65000
" />
<path d="M53500 66000
L54500 65000
" />
<path d="M51500 73000
L51500 75000
" />
<path d="M51500 71000
L51500 73000
" />
</g>
<g style="fill:#00A000; fill-opacity:1.0; 
stroke:#00A000; stroke-width:39.3701; stroke-opacity:1; 
stroke-linecap:round; stroke-linejoin:round;">
<polyline style="fill-rule:evenodd;"
points="68730,77230
68492,77230
68492,76103
68492,46103
68379,45830
68170,45621
67898,45508
67603,45507
67330,45620
67121,45829
67008,46101
67007,46396
67120,46669
67329,46878
67601,46991
67896,46992
68169,46879
68378,46670
68491,46398
68492,46103
68492,76103
68379,75830
68170,75621
68050,75571
68050,61391
67966,61188
67811,61034
67730,61000
67811,60966
67965,60811
68049,60609
68050,60391
67966,60188
67811,60034
67609,59950
67391,59949
67300,59987
67300,57512
67390,57549
67608,57550
67811,57466
67965,57311
68049,57109
68050,56891
67966,56688
67811,56534
67730,56500
67811,56466
67965,56311
68049,56109
68050,55891
67966,55688
67811,55534
67609,55450
67391,55449
67188,55533
67034,55688
66950,55890
66949,56108
66954,56120
66787,56287
66722,56385
66700,56500
66700,57575
66565,57574
66550,57581
66550,57500
66527,57385
66462,57287
66462,57287
66025,56850
66025,54896
65945,54703
65797,54555
65604,54475
65396,54474
65203,54554
65055,54702
65025,54774
65025,52396
64945,52203
64797,52055
64604,51975
64396,51974
64203,52054
64055,52202
63975,52395
63974,52603
64054,52797
64202,52944
64395,53024
64603,53025
64797,52945
64944,52797
65024,52604
65025,52396
65025,54774
64975,54895
64974,55103
65054,55297
65202,55444
65395,55524
65603,55525
65797,55445
65944,55297
66024,55104
66025,54896
66025,56850
65993,56818
65945,56703
65797,56555
65604,56475
65396,56474
65203,56554
65055,56702
64975,56895
64974,57103
64989,57139
64834,57075
64665,57074
64509,57139
64389,57258
64325,57415
64324,57584
64389,57740
64450,57801
64450,58122
64334,58075
64165,58074
64009,58139
63889,58258
63825,58415
63824,58584
63889,58740
63950,58801
63950,61698
63889,61758
63825,61915
63824,62084
63889,62240
64008,62360
64165,62424
64334,62425
64490,62360
64610,62241
64674,62084
64675,61915
64610,61759
64550,61698
64550,60220
64635,60277
64750,60300
65057,60300
65200,60442
65200,60557
65055,60702
64975,60895
64974,61103
65054,61297
65202,61444
65335,61500
65203,61554
65055,61702
64975,61895
64974,62103
65054,62297
65202,62444
65395,62524
65603,62525
65797,62445
65944,62297
66024,62104
66025,61896
65945,61703
65797,61555
65664,61499
65797,61445
65944,61297
66024,61104
66025,60896
66010,60860
66165,60924
66334,60925
66350,60918
66350,61102
66259,61139
66139,61258
66075,61415
66074,61584
66139,61740
66258,61860
66415,61924
66575,61925
66574,62084
66639,62240
66758,62360
66915,62424
67084,62425
67240,62360
67360,62241
67424,62084
67424,62049
67608,62050
67811,61966
67965,61811
68049,61609
68050,61391
68050,75571
67898,75508
67603,75507
67330,75620
67121,75829
67008,76101
67007,76396
67120,76669
67329,76878
67601,76991
67896,76992
68169,76879
68378,76670
68491,76398
68492,76103
68492,77230
63675,77230
63675,56415
63610,56259
63491,56139
63334,56075
63165,56074
63010,56139
63024,56104
63025,55896
62945,55703
62797,55555
62725,55525
62824,55525
62916,55487
62986,55416
63024,55324
63025,55225
63025,54675
62987,54583
62916,54513
62824,54475
62725,54474
62175,54474
62083,54512
62013,54583
61975,54675
61974,54774
61974,55324
62012,55416
62083,55486
62175,55524
62274,55525
62274,55525
62203,55554
62055,55702
61975,55895
61974,56103
62054,56297
62202,56444
62335,56500
62203,56554
62055,56702
61975,56895
61974,57103
62054,57297
62202,57444
62335,57500
62203,57554
62055,57702
61975,57895
61974,58103
62054,58297
62202,58444
62335,58500
62203,58554
62055,58702
61975,58895
61974,59103
62054,59297
62202,59444
62335,59500
62203,59554
62055,59702
61975,59895
61974,60103
62054,60297
62202,60444
62335,60500
62203,60554
62055,60702
61975,60895
61974,61103
62054,61297
62202,61444
62335,61500
62203,61554
62055,61702
61975,61895
61974,62103
62054,62297
62202,62444
62395,62524
62603,62525
62797,62445
62944,62297
63024,62104
63025,61896
62945,61703
62797,61555
62664,61499
62797,61445
62942,61300
63000,61300
63000,61299
63114,61277
63114,61277
63212,61212
63462,60962
63462,60962
63527,60864
63549,60750
63550,60750
63550,56801
63610,56741
63674,56584
63675,56415
63675,77230
60025,77230
60025,60396
60025,58896
59945,58703
59797,58555
59664,58499
59797,58445
59944,58297
60024,58104
60025,57896
60025,55896
59945,55703
59797,55555
59664,55499
59797,55445
59944,55297
60024,55104
60025,54896
59945,54703
59797,54555
59604,54475
59396,54474
59203,54554
59055,54702
58975,54895
58974,55103
59054,55297
59202,55444
59335,55500
59203,55554
59055,55702
58975,55895
58974,56103
59054,56297
59202,56444
59395,56524
59603,56525
59797,56445
59944,56297
60024,56104
60025,55896
60025,57896
59945,57703
59797,57555
59604,57475
59396,57474
59203,57554
59055,57702
58975,57895
58974,58103
59054,58297
59202,58444
59335,58500
59203,58554
59055,58702
58975,58895
58974,59103
59054,59297
59202,59444
59395,59524
59603,59525
59797,59445
59944,59297
60024,59104
60025,58896
60025,60396
59945,60203
59797,60055
59604,59975
59396,59974
59203,60054
59055,60202
58975,60395
58974,60603
59054,60797
59202,60944
59395,61024
59603,61025
59797,60945
59944,60797
60024,60604
60025,60396
60025,77230
58525,77230
58525,54896
58445,54703
58297,54555
58104,54475
57896,54474
57703,54554
57555,54702
57475,54895
57474,55103
57554,55297
57702,55444
57895,55524
58103,55525
58297,55445
58444,55297
58524,55104
58525,54896
58525,77230
56675,77230
56675,59415
56610,59259
56491,59139
56334,59075
56165,59074
56048,59123
56053,59109
56054,58891
55970,58688
55815,58534
55734,58500
55815,58466
55969,58311
56053,58109
56054,57891
55970,57688
55815,57534
55734,57500
55815,57466
55969,57311
56053,57109
56054,56891
55970,56688
55815,56534
55734,56500
55815,56466
55969,56311
56053,56109
56054,55891
55970,55688
55815,55534
55734,55500
55815,55466
55969,55311
56053,55109
56054,54891
55970,54688
55815,54534
55734,54500
55815,54466
55969,54311
56053,54109
56054,53891
55970,53688
55815,53534
55734,53500
55815,53466
55969,53311
56053,53109
56054,52891
55970,52688
55831,52550
55853,52550
55945,52512
56015,52441
56053,52349
56053,52250
56053,51650
56016,51558
55945,51488
55933,51482
55933,50614
55829,50363
55637,50171
55386,50067
55114,50066
54863,50170
54671,50362
54567,50613
54566,50885
54670,51136
54862,51328
55113,51432
55385,51433
55636,51329
55828,51137
55932,50886
55933,50614
55933,51482
55853,51450
55754,51449
55154,51449
55062,51487
54992,51558
54953,51650
54953,51749
54953,52349
54991,52441
55062,52511
55153,52549
55176,52549
55037,52688
54954,52890
54953,53108
54961,53127
54834,53075
54665,53074
54509,53139
54389,53258
54325,53415
54324,53584
54389,53740
54450,53801
54450,54575
54315,54574
54159,54639
54039,54758
53975,54915
53974,55084
54039,55240
54100,55301
54100,56198
54039,56258
53975,56415
53974,56584
54039,56740
54158,56860
54315,56924
54484,56925
54640,56860
54663,56837
54967,57141
55037,57311
55191,57465
55273,57499
55192,57533
55037,57688
54954,57890
54953,58108
55037,58311
55191,58465
55273,58499
55192,58533
55037,58688
54954,58890
54953,59108
55037,59311
55191,59465
55273,59499
55192,59533
55037,59688
54954,59890
54953,60108
55037,60311
55191,60465
55273,60499
55192,60533
55037,60688
54954,60890
54953,61108
55037,61311
55191,61465
55273,61499
55192,61533
55037,61688
54954,61890
54953,62108
55037,62311
55191,62465
55273,62499
55192,62533
55037,62688
54954,62890
54953,63108
55037,63311
55191,63465
55273,63499
55192,63533
55037,63688
54954,63890
54953,64108
55037,64311
55191,64465
55273,64499
55192,64533
55037,64688
55032,64700
54500,64700
54385,64722
54287,64787
53287,65787
53222,65885
53200,66000
53200,67557
53055,67702
52999,67835
52945,67703
52800,67557
52800,64301
52860,64241
52924,64084
52925,63915
52860,63759
52741,63639
52584,63575
52415,63574
52259,63639
52139,63758
52075,63915
52074,64084
52139,64240
52200,64301
52200,67557
52055,67702
51975,67895
51974,68103
52054,68297
52202,68444
52395,68524
52603,68525
52797,68445
52944,68297
53000,68164
53054,68297
53202,68444
53395,68524
53603,68525
53797,68445
53944,68297
53974,68225
53974,68324
54012,68416
54083,68486
54175,68524
54274,68525
54824,68525
54916,68487
54986,68416
55024,68324
55025,68225
55025,67675
54987,67583
54916,67513
54824,67475
54725,67474
54175,67474
54083,67512
54013,67583
53975,67675
53974,67774
53974,67774
53945,67703
53800,67557
53800,66124
54624,65300
55032,65300
55037,65311
55191,65465
55394,65549
55612,65550
55815,65466
55969,65311
56053,65109
56054,64891
55970,64688
55815,64534
55734,64500
55815,64466
55969,64311
56053,64109
56054,63891
55970,63688
55815,63534
55734,63500
55815,63466
55969,63311
56053,63109
56054,62891
55970,62688
55815,62534
55734,62500
55815,62466
55969,62311
56053,62109
56054,61891
55970,61688
55815,61534
55734,61500
55815,61466
55969,61311
56046,61127
56462,60712
56462,60712
56527,60614
56549,60500
56550,60500
56550,59801
56610,59741
56674,59584
56675,59415
56675,77230
55933,77230
55933,66114
55829,65863
55637,65671
55386,65567
55114,65566
54863,65670
54671,65862
54567,66113
54566,66385
54670,66636
54862,66828
55113,66932
55385,66933
55636,66829
55828,66637
55932,66386
55933,66114
55933,77230
55050,77230
55050,75250
55050,74650
55012,74558
54941,74488
54849,74450
54800,74450
54800,73550
54849,73550
54941,73512
55011,73441
55049,73349
55050,73250
55050,72650
55012,72558
54941,72488
54849,72450
54800,72450
54800,71442
54944,71297
55024,71104
55025,70896
54945,70703
54797,70555
54604,70475
54396,70474
54203,70554
54055,70702
53999,70835
53945,70703
53797,70555
53604,70475
53396,70474
53203,70554
53055,70702
52999,70835
52945,70703
52797,70555
52604,70475
52396,70474
52203,70554
52055,70702
51999,70835
51945,70703
51797,70555
51604,70475
51396,70474
51203,70554
51055,70702
50975,70895
50974,71103
51054,71297
51200,71442
51200,72528
51188,72533
51034,72688
50950,72890
50949,73108
51033,73311
51188,73465
51200,73470
51200,74528
51188,74533
51034,74688
50950,74890
50949,75108
51033,75311
51188,75465
51390,75549
51608,75550
51811,75466
51965,75311
51999,75230
52033,75311
52188,75465
52390,75549
52608,75550
52811,75466
52965,75311
52999,75230
53033,75311
53188,75465
53390,75549
53608,75550
53811,75466
53949,75327
53949,75349
53987,75441
54058,75511
54150,75549
54249,75550
54849,75550
54941,75512
55011,75441
55049,75349
55050,75250
55050,77230
50433,77230
50433,66114
50433,50614
50329,50363
50137,50171
49886,50067
49614,50066
49363,50170
49171,50362
49067,50613
49066,50885
49170,51136
49362,51328
49613,51432
49885,51433
50136,51329
50328,51137
50432,50886
50433,50614
50433,66114
50329,65863
50137,65671
50046,65633
50046,64891
49962,64688
49808,64534
49726,64500
49807,64466
49962,64311
50045,64109
50046,63891
49962,63688
49808,63534
49726,63500
49807,63466
49962,63311
50045,63109
50046,62891
49962,62688
49808,62534
49726,62500
49807,62466
49962,62311
50045,62109
50046,61891
49962,61688
49808,61534
49726,61500
49807,61466
49962,61311
50045,61109
50046,60891
49962,60688
49808,60534
49726,60500
49807,60466
49962,60311
50045,60109
50046,59891
49962,59688
49808,59534
49726,59500
49807,59466
49962,59311
50045,59109
50046,58891
49962,58688
49808,58534
49726,58500
49807,58466
49962,58311
50045,58109
50046,57891
50046,54891
49962,54688
49808,54534
49726,54500
49807,54466
49962,54311
50045,54109
50046,53891
49962,53688
49808,53534
49726,53500
49807,53466
49962,53311
50045,53109
50046,52891
49962,52688
49808,52534
49726,52500
49807,52466
49962,52311
50045,52109
50046,51891
49962,51688
49808,51534
49605,51450
49387,51449
49184,51533
49030,51688
48946,51890
48945,52108
49029,52311
49184,52465
49265,52499
49184,52533
49030,52688
48946,52890
48945,53108
49029,53311
49184,53465
49265,53499
49184,53533
49030,53688
48946,53890
48945,54108
49029,54311
49184,54465
49265,54499
49184,54533
49030,54688
48946,54890
48945,55108
49029,55311
49184,55465
49386,55549
49604,55550
49807,55466
49962,55311
50045,55109
50046,54891
50046,57891
49962,57688
49808,57534
49605,57450
49387,57449
49184,57533
49030,57688
48946,57890
48945,58108
49029,58311
49184,58465
49265,58499
49184,58533
49030,58688
48946,58890
48945,59108
49029,59311
49184,59465
49265,59499
49184,59533
49030,59688
48946,59890
48945,60108
49029,60311
49184,60465
49265,60499
49184,60533
49030,60688
48946,60890
48945,61108
49029,61311
49184,61465
49265,61499
49184,61533
49030,61688
48946,61890
48945,62108
49029,62311
49184,62465
49265,62499
49184,62533
49030,62688
48946,62890
48945,63108
49029,63311
49184,63465
49265,63499
49184,63533
49030,63688
48946,63890
48945,64108
49029,64311
49184,64465
49265,64499
49184,64533
49030,64688
48946,64890
48945,65108
49029,65311
49184,65465
49386,65549
49604,65550
49807,65466
49962,65311
50045,65109
50046,64891
50046,65633
49886,65567
49614,65566
49363,65670
49171,65862
49067,66113
49066,66385
49170,66636
49362,66828
49613,66932
49885,66933
50136,66829
50328,66637
50432,66386
50433,66114
50433,77230
48525,77230
48525,52896
48445,52703
48297,52555
48164,52499
48297,52445
48444,52297
48524,52104
48525,51896
48445,51703
48297,51555
48104,51475
47896,51474
47703,51554
47555,51702
47475,51895
47474,52100
47087,52487
47022,52585
47000,52700
47000,52835
46945,52703
46797,52555
46604,52475
46396,52474
46203,52554
46055,52702
45975,52895
45974,53103
46054,53297
46200,53442
46200,53557
46055,53702
45975,53895
45974,54103
46054,54297
46202,54444
46395,54524
46603,54525
46797,54445
46944,54297
47000,54164
47000,54700
47022,54814
47087,54912
47125,54949
47124,55034
47189,55190
47308,55310
47465,55374
47634,55375
47790,55310
47910,55191
47974,55034
47975,54865
47910,54709
47791,54589
47634,54525
47600,54525
47600,53342
47702,53444
47895,53524
48103,53525
48297,53445
48444,53297
48524,53104
48525,52896
48525,77230
48500,77230
48500,68400
48424,68217
48328,68121
48328,58378
48423,58283
48499,58099
48500,57900
48424,57717
48283,57576
48099,57500
47900,57499
47717,57575
47576,57716
47500,57900
47499,58099
47575,58282
47671,58378
47671,64610
47584,64575
47415,64574
47259,64639
47139,64758
47075,64915
47074,65084
47139,65240
47200,65301
47200,73057
47055,73202
46999,73335
46945,73203
46800,73057
46800,64251
46810,64241
46874,64084
46875,63915
46810,63759
46691,63639
46534,63575
46365,63574
46209,63639
46089,63758
46025,63915
46024,64084
46089,64240
46200,64351
46200,73057
46055,73202
45999,73335
45945,73203
45800,73057
45800,63301
45860,63241
45924,63084
45925,62915
45860,62759
45741,62639
45584,62575
45415,62574
45259,62639
45139,62758
45075,62915
45074,63084
45139,63240
45200,63301
45200,73057
45055,73202
44999,73335
44945,73203
44800,73057
44800,62350
44910,62241
44974,62084
44975,61915
44910,61759
44791,61639
44634,61575
44465,61574
44309,61639
44189,61758
44125,61915
44124,62084
44189,62240
44200,62250
44200,73057
44055,73202
43999,73335
43945,73203
43800,73057
43800,61301
43860,61241
43924,61084
43925,60915
43860,60759
43741,60639
43584,60575
43415,60574
43259,60639
43139,60758
43075,60915
43074,61084
43139,61240
43200,61301
43200,73057
43055,73202
42999,73335
42945,73203
42800,73057
42800,60574
42949,60424
43034,60425
43190,60360
43310,60241
43374,60084
43375,59915
43310,59759
43191,59639
43034,59575
42865,59574
42709,59639
42589,59758
42525,59915
42524,60000
42287,60237
42222,60335
42200,60450
42200,73057
42055,73202
41999,73335
41945,73203
41800,73057
41800,64351
41860,64291
41924,64134
41925,63965
41860,63809
41741,63689
41584,63625
41415,63624
41259,63689
41139,63808
41075,63965
41074,64134
41139,64290
41200,64351
41200,73057
41055,73202
40999,73335
40945,73203
40800,73057
40800,54974
41362,54412
41362,54412
41427,54314
41449,54200
41450,54200
41450,52851
41510,52791
41574,52634
41575,52465
41510,52309
41391,52189
41234,52125
41065,52124
40909,52189
40800,52298
40800,51624
41624,50800
42057,50800
42202,50944
42395,51024
42603,51025
42797,50945
42944,50797
43000,50664
43054,50797
43200,50942
43200,51474
43175,51474
43083,51512
43013,51583
42975,51675
42974,51774
42974,52100
42537,52537
42472,52635
42450,52750
42450,53750
42472,53864
42537,53962
42787,54212
42787,54212
42885,54277
43000,54300
43057,54300
43202,54444
43335,54500
43203,54554
43055,54702
42975,54895
42974,55103
43054,55297
43202,55444
43395,55524
43603,55525
43797,55445
43944,55297
44024,55104
44025,54899
44462,54462
44462,54462
44527,54364
44549,54250
44550,54250
44550,53500
44527,53385
44462,53287
44462,53287
43993,52818
43945,52703
43797,52555
43725,52525
43824,52525
43916,52487
43986,52416
44024,52324
44025,52225
44025,51675
43987,51583
43916,51513
43824,51475
43800,51475
43800,50942
43944,50797
44024,50604
44025,50396
43945,50203
43797,50055
43604,49975
43396,49974
43203,50054
43055,50202
42999,50335
42945,50203
42797,50055
42604,49975
42396,49974
42203,50054
42057,50200
41500,50200
41385,50222
41287,50287
40287,51287
40250,51344
40250,50438
40212,50346
40141,50276
40049,50238
39950,50238
38950,50238
38858,50276
38788,50346
38750,50438
38749,50537
38749,51006
37878,51878
37764,52048
37724,52250
37724,52250
37724,55761
37724,55761
37764,55962
37878,56133
38750,57005
38749,57160
38863,57436
39074,57647
39350,57761
39648,57761
39924,57648
40135,57437
40200,57281
40200,73057
40055,73202
40030,73262
40030,71395
40030,71394
40030,68730
40030,68170
39992,68078
39921,68008
39829,67970
39730,67969
39170,67969
39078,68007
39025,68061
39025,65896
38945,65703
38797,65555
38604,65475
38396,65474
38203,65554
38055,65702
37999,65835
37945,65703
37797,65555
37664,65499
37797,65445
37944,65297
38024,65104
38025,64896
37945,64703
37797,64555
37664,64499
37797,64445
37944,64297
38000,64164
38054,64297
38202,64444
38395,64524
38603,64525
38797,64445
38944,64297
39024,64104
39025,63896
38945,63703
38797,63555
38604,63475
38396,63474
38203,63554
38055,63702
37999,63835
37945,63703
37797,63555
37664,63499
37797,63445
37944,63297
38024,63104
38025,62896
37945,62703
37797,62555
37664,62499
37797,62445
37944,62297
38000,62164
38054,62297
38202,62444
38395,62524
38603,62525
38797,62445
38944,62297
39024,62104
39025,61896
38945,61703
38797,61555
38604,61475
38396,61474
38203,61554
38055,61702
37999,61835
37945,61703
37797,61555
37664,61499
37797,61445
37944,61297
38024,61104
38025,60896
37945,60703
37797,60555
37604,60475
37396,60474
37203,60554
37055,60702
36999,60835
36945,60703
36797,60555
36604,60475
36396,60474
36203,60554
36055,60702
35975,60895
35974,61103
36054,61297
36202,61444
36395,61524
36603,61525
36797,61445
36944,61297
37000,61164
37054,61297
37202,61444
37335,61500
37203,61554
37055,61702
36975,61895
36974,62103
37054,62297
37202,62444
37335,62500
37203,62554
37055,62702
36999,62835
36945,62703
36797,62555
36604,62475
36396,62474
36203,62554
36055,62702
35975,62895
35974,63103
36054,63297
36202,63444
36395,63524
36603,63525
36797,63445
36944,63297
37000,63164
37054,63297
37202,63444
37335,63500
37203,63554
37055,63702
36975,63895
36974,64103
37054,64297
37202,64444
37335,64500
37203,64554
37055,64702
36999,64835
36945,64703
36797,64555
36604,64475
36396,64474
36203,64554
36055,64702
35975,64895
35974,65103
36054,65297
36202,65444
36395,65524
36603,65525
36797,65445
36944,65297
37000,65164
37054,65297
37202,65444
37335,65500
37203,65554
37055,65702
36975,65895
36974,66103
37054,66297
37202,66444
37395,66524
37603,66525
37797,66445
37944,66297
38000,66164
38054,66297
38202,66444
38395,66524
38603,66525
38797,66445
38944,66297
39024,66104
39025,65896
39025,68061
39008,68078
38970,68170
38969,68269
38969,68829
39007,68921
39078,68991
39170,69029
39269,69030
39829,69030
39921,68992
39991,68921
40029,68829
40030,68730
40030,71394
39949,71200
39800,71050
39605,70970
39395,70969
39200,71050
39050,71199
38970,71394
38969,71604
39050,71799
39199,71949
39394,72029
39604,72030
39799,71949
39949,71800
40029,71605
40030,71395
40030,73262
39975,73395
39974,73603
40054,73797
40202,73944
40395,74024
40603,74025
40797,73945
40944,73797
41000,73664
41054,73797
41202,73944
41395,74024
41603,74025
41797,73945
41944,73797
42000,73664
42054,73797
42202,73944
42395,74024
42603,74025
42797,73945
42944,73797
43000,73664
43054,73797
43202,73944
43395,74024
43603,74025
43797,73945
43944,73797
44000,73664
44054,73797
44202,73944
44395,74024
44603,74025
44797,73945
44944,73797
45000,73664
45054,73797
45202,73944
45395,74024
45603,74025
45797,73945
45944,73797
46000,73664
46054,73797
46202,73944
46395,74024
46603,74025
46797,73945
46944,73797
47000,73664
47054,73797
47202,73944
47395,74024
47603,74025
47797,73945
47944,73797
48024,73604
48025,73396
47945,73203
47800,73057
47800,68958
47900,68999
48099,69000
48282,68924
48423,68783
48499,68599
48500,68400
48500,77230
37879,77230
37879,72237
37879,70663
37842,70571
37771,70500
37679,70462
37580,70462
36202,70462
36110,70500
36040,70570
36001,70662
36001,70762
36001,72336
36039,72428
36110,72499
36201,72537
36301,72537
37679,72537
37771,72499
37841,72429
37879,72337
37879,72237
37879,77230
35840,77230
35840,52833
35712,52524
35476,52287
35167,52159
34992,52159
34992,46103
34879,45830
34670,45621
34398,45508
34103,45507
33830,45620
33621,45829
33508,46101
33507,46396
33620,46669
33829,46878
34101,46991
34396,46992
34669,46879
34878,46670
34991,46398
34992,46103
34992,52159
34833,52159
34524,52287
34287,52523
34159,52832
34159,53166
34287,53475
34523,53712
34832,53840
35166,53840
35475,53712
35712,53476
35840,53167
35840,52833
35840,77230
35840,77230
35840,55540
35840,54359
35802,54268
35732,54197
35640,54159
35540,54159
34359,54159
34268,54197
34197,54267
34159,54359
34159,54459
34159,55640
34197,55731
34267,55802
34359,55840
34459,55840
35640,55840
35731,55802
35802,55732
35840,55640
35840,55540
35840,77230
35550,77230
35550,65891
35466,65688
35311,65534
35230,65500
35311,65466
35465,65311
35549,65109
35550,64891
35466,64688
35311,64534
35230,64500
35311,64466
35465,64311
35549,64109
35550,63891
35466,63688
35311,63534
35230,63500
35311,63466
35465,63311
35549,63109
35550,62891
35466,62688
35311,62534
35230,62500
35311,62466
35465,62311
35549,62109
35550,61891
35466,61688
35311,61534
35230,61500
35311,61466
35465,61311
35549,61109
35550,60891
35466,60688
35311,60534
35109,60450
34891,60449
34688,60533
34534,60688
34450,60890
34449,61108
34533,61311
34688,61465
34769,61499
34688,61533
34534,61688
34450,61890
34449,62108
34533,62311
34688,62465
34769,62499
34688,62533
34534,62688
34450,62890
34449,63108
34533,63311
34688,63465
34769,63499
34688,63533
34534,63688
34450,63890
34449,64108
34533,64311
34688,64465
34769,64499
34688,64533
34534,64688
34450,64890
34449,65108
34533,65311
34688,65465
34769,65499
34688,65533
34534,65688
34450,65890
34449,66108
34533,66311
34672,66449
34650,66449
34558,66487
34488,66558
34450,66650
34449,66749
34449,67349
34487,67441
34558,67511
34650,67549
34749,67550
35349,67550
35441,67512
35511,67441
35549,67349
35550,67250
35550,66650
35512,66558
35441,66488
35349,66450
35327,66450
35465,66311
35549,66109
35550,65891
35550,77230
34992,77230
34992,76103
34879,75830
34670,75621
34398,75508
34103,75507
33830,75620
33621,75829
33508,76101
33507,76396
33620,76669
33829,76878
34101,76991
34396,76992
34669,76879
34878,76670
34991,76398
34992,76103
34992,77230
33269,77230
33269,45269
68730,45269
68730,77230
" /> 
</g>
<g style="fill:#00A000; fill-opacity:0.0; 
stroke:#00A000; stroke-width:100; stroke-opacity:1; 
stroke-linecap:round; stroke-linejoin:round;">
<polyline fill="none;"
points="68730,77230
68492,77230
68492,76103
68492,46103
68379,45830
68170,45621
67898,45508
67603,45507
67330,45620
67121,45829
67008,46101
67007,46396
67120,46669
67329,46878
67601,46991
67896,46992
68169,46879
68378,46670
68491,46398
68492,46103
68492,76103
68379,75830
68170,75621
68050,75571
68050,61391
67966,61188
67811,61034
67730,61000
67811,60966
67965,60811
68049,60609
68050,60391
67966,60188
67811,60034
67609,59950
67391,59949
67300,59987
67300,57512
67390,57549
67608,57550
67811,57466
67965,57311
68049,57109
68050,56891
67966,56688
67811,56534
67730,56500
67811,56466
67965,56311
68049,56109
68050,55891
67966,55688
67811,55534
67609,55450
67391,55449
67188,55533
67034,55688
66950,55890
66949,56108
66954,56120
66787,56287
66722,56385
66700,56500
66700,57575
66565,57574
66550,57581
66550,57500
66527,57385
66462,57287
66462,57287
66025,56850
66025,54896
65945,54703
65797,54555
65604,54475
65396,54474
65203,54554
65055,54702
65025,54774
65025,52396
64945,52203
64797,52055
64604,51975
64396,51974
64203,52054
64055,52202
63975,52395
63974,52603
64054,52797
64202,52944
64395,53024
64603,53025
64797,52945
64944,52797
65024,52604
65025,52396
65025,54774
64975,54895
64974,55103
65054,55297
65202,55444
65395,55524
65603,55525
65797,55445
65944,55297
66024,55104
66025,54896
66025,56850
65993,56818
65945,56703
65797,56555
65604,56475
65396,56474
65203,56554
65055,56702
64975,56895
64974,57103
64989,57139
64834,57075
64665,57074
64509,57139
64389,57258
64325,57415
64324,57584
64389,57740
64450,57801
64450,58122
64334,58075
64165,58074
64009,58139
63889,58258
63825,58415
63824,58584
63889,58740
63950,58801
63950,61698
63889,61758
63825,61915
63824,62084
63889,62240
64008,62360
64165,62424
64334,62425
64490,62360
64610,62241
64674,62084
64675,61915
64610,61759
64550,61698
64550,60220
64635,60277
64750,60300
65057,60300
65200,60442
65200,60557
65055,60702
64975,60895
64974,61103
65054,61297
65202,61444
65335,61500
65203,61554
65055,61702
64975,61895
64974,62103
65054,62297
65202,62444
65395,62524
65603,62525
65797,62445
65944,62297
66024,62104
66025,61896
65945,61703
65797,61555
65664,61499
65797,61445
65944,61297
66024,61104
66025,60896
66010,60860
66165,60924
66334,60925
66350,60918
66350,61102
66259,61139
66139,61258
66075,61415
66074,61584
66139,61740
66258,61860
66415,61924
66575,61925
66574,62084
66639,62240
66758,62360
66915,62424
67084,62425
67240,62360
67360,62241
67424,62084
67424,62049
67608,62050
67811,61966
67965,61811
68049,61609
68050,61391
68050,75571
67898,75508
67603,75507
67330,75620
67121,75829
67008,76101
67007,76396
67120,76669
67329,76878
67601,76991
67896,76992
68169,76879
68378,76670
68491,76398
68492,76103
68492,77230
63675,77230
63675,56415
63610,56259
63491,56139
63334,56075
63165,56074
63010,56139
63024,56104
63025,55896
62945,55703
62797,55555
62725,55525
62824,55525
62916,55487
62986,55416
63024,55324
63025,55225
63025,54675
62987,54583
62916,54513
62824,54475
62725,54474
62175,54474
62083,54512
62013,54583
61975,54675
61974,54774
61974,55324
62012,55416
62083,55486
62175,55524
62274,55525
62274,55525
62203,55554
62055,55702
61975,55895
61974,56103
62054,56297
62202,56444
62335,56500
62203,56554
62055,56702
61975,56895
61974,57103
62054,57297
62202,57444
62335,57500
62203,57554
62055,57702
61975,57895
61974,58103
62054,58297
62202,58444
62335,58500
62203,58554
62055,58702
61975,58895
61974,59103
62054,59297
62202,59444
62335,59500
62203,59554
62055,59702
61975,59895
61974,60103
62054,60297
62202,60444
62335,60500
62203,60554
62055,60702
61975,60895
61974,61103
62054,61297
62202,61444
62335,61500
62203,61554
62055,61702
61975,61895
61974,62103
62054,62297
62202,62444
62395,62524
62603,62525
62797,62445
62944,62297
63024,62104
63025,61896
62945,61703
62797,61555
62664,61499
62797,61445
62942,61300
63000,61300
63000,61299
63114,61277
63114,61277
63212,61212
63462,60962
63462,60962
63527,60864
63549,60750
63550,60750
63550,56801
63610,56741
63674,56584
63675,56415
63675,77230
60025,77230
60025,60396
60025,58896
59945,58703
59797,58555
59664,58499
59797,58445
59944,58297
60024,58104
60025,57896
60025,55896
59945,55703
59797,55555
59664,55499
59797,55445
59944,55297
60024,55104
60025,54896
59945,54703
59797,54555
59604,54475
59396,54474
59203,54554
59055,54702
58975,54895
58974,55103
59054,55297
59202,55444
59335,55500
59203,55554
59055,55702
58975,55895
58974,56103
59054,56297
59202,56444
59395,56524
59603,56525
59797,56445
59944,56297
60024,56104
60025,55896
60025,57896
59945,57703
59797,57555
59604,57475
59396,57474
59203,57554
59055,57702
58975,57895
58974,58103
59054,58297
59202,58444
59335,58500
59203,58554
59055,58702
58975,58895
58974,59103
59054,59297
59202,59444
59395,59524
59603,59525
59797,59445
59944,59297
60024,59104
60025,58896
60025,60396
59945,60203
59797,60055
59604,59975
59396,59974
59203,60054
59055,60202
58975,60395
58974,60603
59054,60797
59202,60944
59395,61024
59603,61025
59797,60945
59944,60797
60024,60604
60025,60396
60025,77230
58525,77230
58525,54896
58445,54703
58297,54555
58104,54475
57896,54474
57703,54554
57555,54702
57475,54895
57474,55103
57554,55297
57702,55444
57895,55524
58103,55525
58297,55445
58444,55297
58524,55104
58525,54896
58525,77230
56675,77230
56675,59415
56610,59259
56491,59139
56334,59075
56165,59074
56048,59123
56053,59109
56054,58891
55970,58688
55815,58534
55734,58500
55815,58466
55969,58311
56053,58109
56054,57891
55970,57688
55815,57534
55734,57500
55815,57466
55969,57311
56053,57109
56054,56891
55970,56688
55815,56534
55734,56500
55815,56466
55969,56311
56053,56109
56054,55891
55970,55688
55815,55534
55734,55500
55815,55466
55969,55311
56053,55109
56054,54891
55970,54688
55815,54534
55734,54500
55815,54466
55969,54311
56053,54109
56054,53891
55970,53688
55815,53534
55734,53500
55815,53466
55969,53311
56053,53109
56054,52891
55970,52688
55831,52550
55853,52550
55945,52512
56015,52441
56053,52349
56053,52250
56053,51650
56016,51558
55945,51488
55933,51482
55933,50614
55829,50363
55637,50171
55386,50067
55114,50066
54863,50170
54671,50362
54567,50613
54566,50885
54670,51136
54862,51328
55113,51432
55385,51433
55636,51329
55828,51137
55932,50886
55933,50614
55933,51482
55853,51450
55754,51449
55154,51449
55062,51487
54992,51558
54953,51650
54953,51749
54953,52349
54991,52441
55062,52511
55153,52549
55176,52549
55037,52688
54954,52890
54953,53108
54961,53127
54834,53075
54665,53074
54509,53139
54389,53258
54325,53415
54324,53584
54389,53740
54450,53801
54450,54575
54315,54574
54159,54639
54039,54758
53975,54915
53974,55084
54039,55240
54100,55301
54100,56198
54039,56258
53975,56415
53974,56584
54039,56740
54158,56860
54315,56924
54484,56925
54640,56860
54663,56837
54967,57141
55037,57311
55191,57465
55273,57499
55192,57533
55037,57688
54954,57890
54953,58108
55037,58311
55191,58465
55273,58499
55192,58533
55037,58688
54954,58890
54953,59108
55037,59311
55191,59465
55273,59499
55192,59533
55037,59688
54954,59890
54953,60108
55037,60311
55191,60465
55273,60499
55192,60533
55037,60688
54954,60890
54953,61108
55037,61311
55191,61465
55273,61499
55192,61533
55037,61688
54954,61890
54953,62108
55037,62311
55191,62465
55273,62499
55192,62533
55037,62688
54954,62890
54953,63108
55037,63311
55191,63465
55273,63499
55192,63533
55037,63688
54954,63890
54953,64108
55037,64311
55191,64465
55273,64499
55192,64533
55037,64688
55032,64700
54500,64700
54385,64722
54287,64787
53287,65787
53222,65885
53200,66000
53200,67557
53055,67702
52999,67835
52945,67703
52800,67557
52800,64301
52860,64241
52924,64084
52925,63915
52860,63759
52741,63639
52584,63575
52415,63574
52259,63639
52139,63758
52075,63915
52074,64084
52139,64240
52200,64301
52200,67557
52055,67702
51975,67895
51974,68103
52054,68297
52202,68444
52395,68524
52603,68525
52797,68445
52944,68297
53000,68164
53054,68297
53202,68444
53395,68524
53603,68525
53797,68445
53944,68297
53974,68225
53974,68324
54012,68416
54083,68486
54175,68524
54274,68525
54824,68525
54916,68487
54986,68416
55024,68324
55025,68225
55025,67675
54987,67583
54916,67513
54824,67475
54725,67474
54175,67474
54083,67512
54013,67583
53975,67675
53974,67774
53974,67774
53945,67703
53800,67557
53800,66124
54624,65300
55032,65300
55037,65311
55191,65465
55394,65549
55612,65550
55815,65466
55969,65311
56053,65109
56054,64891
55970,64688
55815,64534
55734,64500
55815,64466
55969,64311
56053,64109
56054,63891
55970,63688
55815,63534
55734,63500
55815,63466
55969,63311
56053,63109
56054,62891
55970,62688
55815,62534
55734,62500
55815,62466
55969,62311
56053,62109
56054,61891
55970,61688
55815,61534
55734,61500
55815,61466
55969,61311
56046,61127
56462,60712
56462,60712
56527,60614
56549,60500
56550,60500
56550,59801
56610,59741
56674,59584
56675,59415
56675,77230
55933,77230
55933,66114
55829,65863
55637,65671
55386,65567
55114,65566
54863,65670
54671,65862
54567,66113
54566,66385
54670,66636
54862,66828
55113,66932
55385,66933
55636,66829
55828,66637
55932,66386
55933,66114
55933,77230
55050,77230
55050,75250
55050,74650
55012,74558
54941,74488
54849,74450
54800,74450
54800,73550
54849,73550
54941,73512
55011,73441
55049,73349
55050,73250
55050,72650
55012,72558
54941,72488
54849,72450
54800,72450
54800,71442
54944,71297
55024,71104
55025,70896
54945,70703
54797,70555
54604,70475
54396,70474
54203,70554
54055,70702
53999,70835
53945,70703
53797,70555
53604,70475
53396,70474
53203,70554
53055,70702
52999,70835
52945,70703
52797,70555
52604,70475
52396,70474
52203,70554
52055,70702
51999,70835
51945,70703
51797,70555
51604,70475
51396,70474
51203,70554
51055,70702
50975,70895
50974,71103
51054,71297
51200,71442
51200,72528
51188,72533
51034,72688
50950,72890
50949,73108
51033,73311
51188,73465
51200,73470
51200,74528
51188,74533
51034,74688
50950,74890
50949,75108
51033,75311
51188,75465
51390,75549
51608,75550
51811,75466
51965,75311
51999,75230
52033,75311
52188,75465
52390,75549
52608,75550
52811,75466
52965,75311
52999,75230
53033,75311
53188,75465
53390,75549
53608,75550
53811,75466
53949,75327
53949,75349
53987,75441
54058,75511
54150,75549
54249,75550
54849,75550
54941,75512
55011,75441
55049,75349
55050,75250
55050,77230
50433,77230
50433,66114
50433,50614
50329,50363
50137,50171
49886,50067
49614,50066
49363,50170
49171,50362
49067,50613
49066,50885
49170,51136
49362,51328
49613,51432
49885,51433
50136,51329
50328,51137
50432,50886
50433,50614
50433,66114
50329,65863
50137,65671
50046,65633
50046,64891
49962,64688
49808,64534
49726,64500
49807,64466
49962,64311
50045,64109
50046,63891
49962,63688
49808,63534
49726,63500
49807,63466
49962,63311
50045,63109
50046,62891
49962,62688
49808,62534
49726,62500
49807,62466
49962,62311
50045,62109
50046,61891
49962,61688
49808,61534
49726,61500
49807,61466
49962,61311
50045,61109
50046,60891
49962,60688
49808,60534
49726,60500
49807,60466
49962,60311
50045,60109
50046,59891
49962,59688
49808,59534
49726,59500
49807,59466
49962,59311
50045,59109
50046,58891
49962,58688
49808,58534
49726,58500
49807,58466
49962,58311
50045,58109
50046,57891
50046,54891
49962,54688
49808,54534
49726,54500
49807,54466
49962,54311
50045,54109
50046,53891
49962,53688
49808,53534
49726,53500
49807,53466
49962,53311
50045,53109
50046,52891
49962,52688
49808,52534
49726,52500
49807,52466
49962,52311
50045,52109
50046,51891
49962,51688
49808,51534
49605,51450
49387,51449
49184,51533
49030,51688
48946,51890
48945,52108
49029,52311
49184,52465
49265,52499
49184,52533
49030,52688
48946,52890
48945,53108
49029,53311
49184,53465
49265,53499
49184,53533
49030,53688
48946,53890
48945,54108
49029,54311
49184,54465
49265,54499
49184,54533
49030,54688
48946,54890
48945,55108
49029,55311
49184,55465
49386,55549
49604,55550
49807,55466
49962,55311
50045,55109
50046,54891
50046,57891
49962,57688
49808,57534
49605,57450
49387,57449
49184,57533
49030,57688
48946,57890
48945,58108
49029,58311
49184,58465
49265,58499
49184,58533
49030,58688
48946,58890
48945,59108
49029,59311
49184,59465
49265,59499
49184,59533
49030,59688
48946,59890
48945,60108
49029,60311
49184,60465
49265,60499
49184,60533
49030,60688
48946,60890
48945,61108
49029,61311
49184,61465
49265,61499
49184,61533
49030,61688
48946,61890
48945,62108
49029,62311
49184,62465
49265,62499
49184,62533
49030,62688
48946,62890
48945,63108
49029,63311
49184,63465
49265,63499
49184,63533
49030,63688
48946,63890
48945,64108
49029,64311
49184,64465
49265,64499
49184,64533
49030,64688
48946,64890
48945,65108
49029,65311
49184,65465
49386,65549
49604,65550
49807,65466
49962,65311
50045,65109
50046,64891
50046,65633
49886,65567
49614,65566
49363,65670
49171,65862
49067,66113
49066,66385
49170,66636
49362,66828
49613,66932
49885,66933
50136,66829
50328,66637
50432,66386
50433,66114
50433,77230
48525,77230
48525,52896
48445,52703
48297,52555
48164,52499
48297,52445
48444,52297
48524,52104
48525,51896
48445,51703
48297,51555
48104,51475
47896,51474
47703,51554
47555,51702
47475,51895
47474,52100
47087,52487
47022,52585
47000,52700
47000,52835
46945,52703
46797,52555
46604,52475
46396,52474
46203,52554
46055,52702
45975,52895
45974,53103
46054,53297
46200,53442
46200,53557
46055,53702
45975,53895
45974,54103
46054,54297
46202,54444
46395,54524
46603,54525
46797,54445
46944,54297
47000,54164
47000,54700
47022,54814
47087,54912
47125,54949
47124,55034
47189,55190
47308,55310
47465,55374
47634,55375
47790,55310
47910,55191
47974,55034
47975,54865
47910,54709
47791,54589
47634,54525
47600,54525
47600,53342
47702,53444
47895,53524
48103,53525
48297,53445
48444,53297
48524,53104
48525,52896
48525,77230
48500,77230
48500,68400
48424,68217
48328,68121
48328,58378
48423,58283
48499,58099
48500,57900
48424,57717
48283,57576
48099,57500
47900,57499
47717,57575
47576,57716
47500,57900
47499,58099
47575,58282
47671,58378
47671,64610
47584,64575
47415,64574
47259,64639
47139,64758
47075,64915
47074,65084
47139,65240
47200,65301
47200,73057
47055,73202
46999,73335
46945,73203
46800,73057
46800,64251
46810,64241
46874,64084
46875,63915
46810,63759
46691,63639
46534,63575
46365,63574
46209,63639
46089,63758
46025,63915
46024,64084
46089,64240
46200,64351
46200,73057
46055,73202
45999,73335
45945,73203
45800,73057
45800,63301
45860,63241
45924,63084
45925,62915
45860,62759
45741,62639
45584,62575
45415,62574
45259,62639
45139,62758
45075,62915
45074,63084
45139,63240
45200,63301
45200,73057
45055,73202
44999,73335
44945,73203
44800,73057
44800,62350
44910,62241
44974,62084
44975,61915
44910,61759
44791,61639
44634,61575
44465,61574
44309,61639
44189,61758
44125,61915
44124,62084
44189,62240
44200,62250
44200,73057
44055,73202
43999,73335
43945,73203
43800,73057
43800,61301
43860,61241
43924,61084
43925,60915
43860,60759
43741,60639
43584,60575
43415,60574
43259,60639
43139,60758
43075,60915
43074,61084
43139,61240
43200,61301
43200,73057
43055,73202
42999,73335
42945,73203
42800,73057
42800,60574
42949,60424
43034,60425
43190,60360
43310,60241
43374,60084
43375,59915
43310,59759
43191,59639
43034,59575
42865,59574
42709,59639
42589,59758
42525,59915
42524,60000
42287,60237
42222,60335
42200,60450
42200,73057
42055,73202
41999,73335
41945,73203
41800,73057
41800,64351
41860,64291
41924,64134
41925,63965
41860,63809
41741,63689
41584,63625
41415,63624
41259,63689
41139,63808
41075,63965
41074,64134
41139,64290
41200,64351
41200,73057
41055,73202
40999,73335
40945,73203
40800,73057
40800,54974
41362,54412
41362,54412
41427,54314
41449,54200
41450,54200
41450,52851
41510,52791
41574,52634
41575,52465
41510,52309
41391,52189
41234,52125
41065,52124
40909,52189
40800,52298
40800,51624
41624,50800
42057,50800
42202,50944
42395,51024
42603,51025
42797,50945
42944,50797
43000,50664
43054,50797
43200,50942
43200,51474
43175,51474
43083,51512
43013,51583
42975,51675
42974,51774
42974,52100
42537,52537
42472,52635
42450,52750
42450,53750
42472,53864
42537,53962
42787,54212
42787,54212
42885,54277
43000,54300
43057,54300
43202,54444
43335,54500
43203,54554
43055,54702
42975,54895
42974,55103
43054,55297
43202,55444
43395,55524
43603,55525
43797,55445
43944,55297
44024,55104
44025,54899
44462,54462
44462,54462
44527,54364
44549,54250
44550,54250
44550,53500
44527,53385
44462,53287
44462,53287
43993,52818
43945,52703
43797,52555
43725,52525
43824,52525
43916,52487
43986,52416
44024,52324
44025,52225
44025,51675
43987,51583
43916,51513
43824,51475
43800,51475
43800,50942
43944,50797
44024,50604
44025,50396
43945,50203
43797,50055
43604,49975
43396,49974
43203,50054
43055,50202
42999,50335
42945,50203
42797,50055
42604,49975
42396,49974
42203,50054
42057,50200
41500,50200
41385,50222
41287,50287
40287,51287
40250,51344
40250,50438
40212,50346
40141,50276
40049,50238
39950,50238
38950,50238
38858,50276
38788,50346
38750,50438
38749,50537
38749,51006
37878,51878
37764,52048
37724,52250
37724,52250
37724,55761
37724,55761
37764,55962
37878,56133
38750,57005
38749,57160
38863,57436
39074,57647
39350,57761
39648,57761
39924,57648
40135,57437
40200,57281
40200,73057
40055,73202
40030,73262
40030,71395
40030,71394
40030,68730
40030,68170
39992,68078
39921,68008
39829,67970
39730,67969
39170,67969
39078,68007
39025,68061
39025,65896
38945,65703
38797,65555
38604,65475
38396,65474
38203,65554
38055,65702
37999,65835
37945,65703
37797,65555
37664,65499
37797,65445
37944,65297
38024,65104
38025,64896
37945,64703
37797,64555
37664,64499
37797,64445
37944,64297
38000,64164
38054,64297
38202,64444
38395,64524
38603,64525
38797,64445
38944,64297
39024,64104
39025,63896
38945,63703
38797,63555
38604,63475
38396,63474
38203,63554
38055,63702
37999,63835
37945,63703
37797,63555
37664,63499
37797,63445
37944,63297
38024,63104
38025,62896
37945,62703
37797,62555
37664,62499
37797,62445
37944,62297
38000,62164
38054,62297
38202,62444
38395,62524
38603,62525
38797,62445
38944,62297
39024,62104
39025,61896
38945,61703
38797,61555
38604,61475
38396,61474
38203,61554
38055,61702
37999,61835
37945,61703
37797,61555
37664,61499
37797,61445
37944,61297
38024,61104
38025,60896
37945,60703
37797,60555
37604,60475
37396,60474
37203,60554
37055,60702
36999,60835
36945,60703
36797,60555
36604,60475
36396,60474
36203,60554
36055,60702
35975,60895
35974,61103
36054,61297
36202,61444
36395,61524
36603,61525
36797,61445
36944,61297
37000,61164
37054,61297
37202,61444
37335,61500
37203,61554
37055,61702
36975,61895
36974,62103
37054,62297
37202,62444
37335,62500
37203,62554
37055,62702
36999,62835
36945,62703
36797,62555
36604,62475
36396,62474
36203,62554
36055,62702
35975,62895
35974,63103
36054,63297
36202,63444
36395,63524
36603,63525
36797,63445
36944,63297
37000,63164
37054,63297
37202,63444
37335,63500
37203,63554
37055,63702
36975,63895
36974,64103
37054,64297
37202,64444
37335,64500
37203,64554
37055,64702
36999,64835
36945,64703
36797,64555
36604,64475
36396,64474
36203,64554
36055,64702
35975,64895
35974,65103
36054,65297
36202,65444
36395,65524
36603,65525
36797,65445
36944,65297
37000,65164
37054,65297
37202,65444
37335,65500
37203,65554
37055,65702
36975,65895
36974,66103
37054,66297
37202,66444
37395,66524
37603,66525
37797,66445
37944,66297
38000,66164
38054,66297
38202,66444
38395,66524
38603,66525
38797,66445
38944,66297
39024,66104
39025,65896
39025,68061
39008,68078
38970,68170
38969,68269
38969,68829
39007,68921
39078,68991
39170,69029
39269,69030
39829,69030
39921,68992
39991,68921
40029,68829
40030,68730
40030,71394
39949,71200
39800,71050
39605,70970
39395,70969
39200,71050
39050,71199
38970,71394
38969,71604
39050,71799
39199,71949
39394,72029
39604,72030
39799,71949
39949,71800
40029,71605
40030,71395
40030,73262
39975,73395
39974,73603
40054,73797
40202,73944
40395,74024
40603,74025
40797,73945
40944,73797
41000,73664
41054,73797
41202,73944
41395,74024
41603,74025
41797,73945
41944,73797
42000,73664
42054,73797
42202,73944
42395,74024
42603,74025
42797,73945
42944,73797
43000,73664
43054,73797
43202,73944
43395,74024
43603,74025
43797,73945
43944,73797
44000,73664
44054,73797
44202,73944
44395,74024
44603,74025
44797,73945
44944,73797
45000,73664
45054,73797
45202,73944
45395,74024
45603,74025
45797,73945
45944,73797
46000,73664
46054,73797
46202,73944
46395,74024
46603,74025
46797,73945
46944,73797
47000,73664
47054,73797
47202,73944
47395,74024
47603,74025
47797,73945
47944,73797
48024,73604
48025,73396
47945,73203
47800,73057
47800,68958
47900,68999
48099,69000
48282,68924
48423,68783
48499,68599
48500,68400
48500,77230
37879,77230
37879,72237
37879,70663
37842,70571
37771,70500
37679,70462
37580,70462
36202,70462
36110,70500
36040,70570
36001,70662
36001,70762
36001,72336
36039,72428
36110,72499
36201,72537
36301,72537
37679,72537
37771,72499
37841,72429
37879,72337
37879,72237
37879,77230
35840,77230
35840,52833
35712,52524
35476,52287
35167,52159
34992,52159
34992,46103
34879,45830
34670,45621
34398,45508
34103,45507
33830,45620
33621,45829
33508,46101
33507,46396
33620,46669
33829,46878
34101,46991
34396,46992
34669,46879
34878,46670
34991,46398
34992,46103
34992,52159
34833,52159
34524,52287
34287,52523
34159,52832
34159,53166
34287,53475
34523,53712
34832,53840
35166,53840
35475,53712
35712,53476
35840,53167
35840,52833
35840,77230
35840,77230
35840,55540
35840,54359
35802,54268
35732,54197
35640,54159
35540,54159
34359,54159
34268,54197
34197,54267
34159,54359
34159,54459
34159,55640
34197,55731
34267,55802
34359,55840
34459,55840
35640,55840
35731,55802
35802,55732
35840,55640
35840,55540
35840,77230
35550,77230
35550,65891
35466,65688
35311,65534
35230,65500
35311,65466
35465,65311
35549,65109
35550,64891
35466,64688
35311,64534
35230,64500
35311,64466
35465,64311
35549,64109
35550,63891
35466,63688
35311,63534
35230,63500
35311,63466
35465,63311
35549,63109
35550,62891
35466,62688
35311,62534
35230,62500
35311,62466
35465,62311
35549,62109
35550,61891
35466,61688
35311,61534
35230,61500
35311,61466
35465,61311
35549,61109
35550,60891
35466,60688
35311,60534
35109,60450
34891,60449
34688,60533
34534,60688
34450,60890
34449,61108
34533,61311
34688,61465
34769,61499
34688,61533
34534,61688
34450,61890
34449,62108
34533,62311
34688,62465
34769,62499
34688,62533
34534,62688
34450,62890
34449,63108
34533,63311
34688,63465
34769,63499
34688,63533
34534,63688
34450,63890
34449,64108
34533,64311
34688,64465
34769,64499
34688,64533
34534,64688
34450,64890
34449,65108
34533,65311
34688,65465
34769,65499
34688,65533
34534,65688
34450,65890
34449,66108
34533,66311
34672,66449
34650,66449
34558,66487
34488,66558
34450,66650
34449,66749
34449,67349
34487,67441
34558,67511
34650,67549
34749,67550
35349,67550
35441,67512
35511,67441
35549,67349
35550,67250
35550,66650
35512,66558
35441,66488
35349,66450
35327,66450
35465,66311
35549,66109
35550,65891
35550,77230
34992,77230
34992,76103
34879,75830
34670,75621
34398,75508
34103,75507
33830,75620
33621,75829
33508,76101
33507,76396
33620,76669
33829,76878
34101,76991
34396,76992
34669,76879
34878,76670
34991,76398
34992,76103
34992,77230
33269,77230
33269,45269
68730,45269
68730,77230
" /> 
</g>
<g style="fill:#FFFFFF; fill-opacity:0.0; 
stroke:#FFFFFF; stroke-width:39.3701; stroke-opacity:1; 
stroke-linecap:round; stroke-linejoin:round;">
</g>
<g style="fill:#FFFFFF; fill-opacity:1.0; 
stroke:#FFFFFF; stroke-width:39.3701; stroke-opacity:1; 
stroke-linecap:round; stroke-linejoin:round;">
<circle cx="47550" cy="54950" r="105.315" /> 
<circle cx="67000" cy="62000" r="105.315" /> 
<circle cx="56250" cy="59500" r="105.315" /> 
<circle cx="64250" cy="62000" r="105.315" /> 
<circle cx="64250" cy="58500" r="105.315" /> 
<circle cx="41150" cy="52550" r="105.315" /> 
<circle cx="41500" cy="64050" r="105.315" /> 
<circle cx="66650" cy="58000" r="105.315" /> 
<circle cx="66500" cy="61500" r="105.315" /> 
<circle cx="42950" cy="60000" r="105.315" /> 
<circle cx="43500" cy="61000" r="105.315" /> 
<circle cx="44550" cy="62000" r="105.315" /> 
<circle cx="45500" cy="63000" r="105.315" /> 
<circle cx="46450" cy="64000" r="105.315" /> 
<circle cx="47500" cy="65000" r="105.315" /> 
<circle cx="63250" cy="56500" r="105.315" /> 
<circle cx="64750" cy="57500" r="105.315" /> 
<circle cx="54750" cy="53500" r="105.315" /> 
<circle cx="48000" cy="58000" r="155.315" /> 
<circle cx="48000" cy="68500" r="155.315" /> 
<circle cx="66250" cy="60500" r="105.315" /> 
<circle cx="54400" cy="55000" r="105.315" /> 
<circle cx="54400" cy="56500" r="105.315" /> 
<circle cx="55100" cy="55500" r="105.315" /> 
<circle cx="52500" cy="64000" r="105.315" /> 
<circle cx="35000" cy="67000" r="180.315" /> 
<circle cx="35000" cy="66000" r="180.315" /> 
<circle cx="35000" cy="65000" r="180.315" /> 
<circle cx="35000" cy="64000" r="180.315" /> 
<circle cx="35000" cy="63000" r="180.315" /> 
<circle cx="35000" cy="62000" r="180.315" /> 
<circle cx="35000" cy="61000" r="180.315" /> 
<circle cx="35000" cy="60000" r="180.315" /> 
<circle cx="36500" cy="61000" r="140.315" /> 
<circle cx="37500" cy="61000" r="140.315" /> 
<circle cx="37500" cy="62000" r="140.315" /> 
<circle cx="38500" cy="62000" r="140.315" /> 
<circle cx="36500" cy="63000" r="140.315" /> 
<circle cx="37500" cy="63000" r="140.315" /> 
<circle cx="37500" cy="64000" r="140.315" /> 
<circle cx="38500" cy="64000" r="140.315" /> 
<circle cx="36500" cy="65000" r="140.315" /> 
<circle cx="37500" cy="65000" r="140.315" /> 
<circle cx="37500" cy="66000" r="140.315" /> 
<circle cx="38500" cy="66000" r="140.315" /> 
<circle cx="48000" cy="52000" r="140.315" /> 
<circle cx="48000" cy="53000" r="140.315" /> 
<circle cx="42500" cy="50500" r="140.315" /> 
<circle cx="43500" cy="50500" r="140.315" /> 
<circle cx="54500" cy="75000" r="180.315" /> 
<circle cx="53500" cy="75000" r="180.315" /> 
<circle cx="52500" cy="75000" r="180.315" /> 
<circle cx="51500" cy="75000" r="180.315" /> 
<circle cx="50500" cy="75000" r="180.315" /> 
<circle cx="54500" cy="73000" r="180.315" /> 
<circle cx="53500" cy="73000" r="180.315" /> 
<circle cx="52500" cy="73000" r="180.315" /> 
<circle cx="51500" cy="73000" r="180.315" /> 
<circle cx="50500" cy="73000" r="180.315" /> 
<circle cx="67500" cy="55000" r="180.315" /> 
<circle cx="67500" cy="56000" r="180.315" /> 
<circle cx="67500" cy="57000" r="180.315" /> 
<circle cx="67500" cy="58000" r="180.315" /> 
<circle cx="67500" cy="59500" r="180.315" /> 
<circle cx="67500" cy="60500" r="180.315" /> 
<circle cx="67500" cy="61500" r="180.315" /> 
<circle cx="67500" cy="62500" r="180.315" /> 
<circle cx="35000" cy="55000" r="226.315" /> 
<circle cx="35000" cy="53000" r="226.315" /> 
<circle cx="55250" cy="50750" r="413.386" /> 
<circle cx="49750" cy="50750" r="413.386" /> 
<circle cx="55250" cy="66250" r="413.386" /> 
<circle cx="49750" cy="66250" r="413.386" /> 
<circle cx="55503.9" cy="58000" r="180.315" /> 
<circle cx="55503.9" cy="57000" r="180.315" /> 
<circle cx="55503.9" cy="56000" r="180.315" /> 
<circle cx="55503.9" cy="55000" r="180.315" /> 
<circle cx="55503.9" cy="54000" r="180.315" /> 
<circle cx="55503.9" cy="53000" r="180.315" /> 
<circle cx="55503.9" cy="52000" r="180.315" /> 
<circle cx="55503.9" cy="59000" r="180.315" /> 
<circle cx="55503.9" cy="60000" r="180.315" /> 
<circle cx="55503.9" cy="61000" r="180.315" /> 
<circle cx="55503.9" cy="62000" r="180.315" /> 
<circle cx="55503.9" cy="63000" r="180.315" /> 
<circle cx="55503.9" cy="64000" r="180.315" /> 
<circle cx="55503.9" cy="65000" r="180.315" /> 
<circle cx="49496.1" cy="65000" r="180.315" /> 
<circle cx="49496.1" cy="64000" r="180.315" /> 
<circle cx="49496.1" cy="63000" r="180.315" /> 
<circle cx="49496.1" cy="62000" r="180.315" /> 
<circle cx="49496.1" cy="61000" r="180.315" /> 
<circle cx="49496.1" cy="60000" r="180.315" /> 
<circle cx="49496.1" cy="59000" r="180.315" /> 
<circle cx="49496.1" cy="58000" r="180.315" /> 
<circle cx="49496.1" cy="57000" r="180.315" /> 
<circle cx="49496.1" cy="56000" r="180.315" /> 
<circle cx="49496.1" cy="55000" r="180.315" /> 
<circle cx="49496.1" cy="54000" r="180.315" /> 
<circle cx="49496.1" cy="53000" r="180.315" /> 
<circle cx="49496.1" cy="52000" r="180.315" /> 
<circle cx="39500" cy="50988.2" r="280.315" /> 
<circle cx="39500" cy="52996.1" r="280.315" /> 
<circle cx="39500" cy="55003.9" r="280.315" /> 
<circle cx="39500" cy="57011.8" r="280.315" /> 
<circle cx="39500" cy="68500" r="100.315" /> 
<circle cx="39500" cy="71500" r="100.315" /> 
<circle cx="43500" cy="52000" r="140.315" /> 
<circle cx="43500" cy="53000" r="140.315" /> 
<circle cx="43500" cy="54000" r="140.315" /> 
<circle cx="43500" cy="55000" r="140.315" /> 
<circle cx="46500" cy="55000" r="140.315" /> 
<circle cx="46500" cy="54000" r="140.315" /> 
<circle cx="46500" cy="53000" r="140.315" /> 
<circle cx="46500" cy="52000" r="140.315" /> 
<circle cx="54500" cy="68000" r="140.315" /> 
<circle cx="53500" cy="68000" r="140.315" /> 
<circle cx="52500" cy="68000" r="140.315" /> 
<circle cx="51500" cy="68000" r="140.315" /> 
<circle cx="51500" cy="71000" r="140.315" /> 
<circle cx="52500" cy="71000" r="140.315" /> 
<circle cx="53500" cy="71000" r="140.315" /> 
<circle cx="54500" cy="71000" r="140.315" /> 
<circle cx="62500" cy="55000" r="140.315" /> 
<circle cx="62500" cy="56000" r="140.315" /> 
<circle cx="62500" cy="57000" r="140.315" /> 
<circle cx="62500" cy="58000" r="140.315" /> 
<circle cx="62500" cy="59000" r="140.315" /> 
<circle cx="62500" cy="60000" r="140.315" /> 
<circle cx="62500" cy="61000" r="140.315" /> 
<circle cx="62500" cy="62000" r="140.315" /> 
<circle cx="65500" cy="62000" r="140.315" /> 
<circle cx="65500" cy="61000" r="140.315" /> 
<circle cx="65500" cy="60000" r="140.315" /> 
<circle cx="65500" cy="59000" r="140.315" /> 
<circle cx="65500" cy="58000" r="140.315" /> 
<circle cx="65500" cy="57000" r="140.315" /> 
<circle cx="65500" cy="56000" r="140.315" /> 
<circle cx="65500" cy="55000" r="140.315" /> 
<circle cx="59500" cy="55000" r="140.315" /> 
<circle cx="59500" cy="56000" r="140.315" /> 
<circle cx="59500" cy="58000" r="140.315" /> 
<circle cx="59500" cy="59000" r="140.315" /> 
<circle cx="58000" cy="55000" r="140.315" /> 
<circle cx="58000" cy="56000" r="140.315" /> 
<circle cx="59500" cy="60500" r="140.315" /> 
<circle cx="59500" cy="61500" r="140.315" /> 
<circle cx="64500" cy="52500" r="140.315" /> 
<circle cx="63500" cy="52500" r="140.315" /> 
</g>
<g style="fill:#FFFFFF; fill-opacity:1.0; 
stroke:#FFFFFF; stroke-width:393.701; stroke-opacity:1; 
stroke-linecap:round; stroke-linejoin:round;">
<path d="M36940 71007
L36940 71992
" />
</g>
<g style="fill:#FFFFFF; fill-opacity:1.0; 
stroke:#FFFFFF; stroke-width:394; stroke-opacity:1; 
stroke-linecap:round; stroke-linejoin:round;">
<path d="M34578 71106
L34578 71893
" />
</g>
<g style="fill:#FFFFFF; fill-opacity:1.0; 
stroke:#FFFFFF; stroke-width:39.3701; stroke-opacity:1; 
stroke-linecap:round; stroke-linejoin:round;">
<circle cx="34250" cy="46250" r="472.315" /> 
<circle cx="67750" cy="46250" r="472.315" /> 
<circle cx="67750" cy="76250" r="472.315" /> 
<circle cx="34250" cy="76250" r="472.315" /> 
<circle cx="40500" cy="76500" r="140.315" /> 
<circle cx="41500" cy="76500" r="140.315" /> 
<circle cx="42500" cy="76500" r="140.315" /> 
<circle cx="43500" cy="76500" r="140.315" /> 
<circle cx="44500" cy="76500" r="140.315" /> 
<circle cx="45500" cy="76500" r="140.315" /> 
<circle cx="46500" cy="76500" r="140.315" /> 
<circle cx="47500" cy="76500" r="140.315" /> 
<circle cx="47500" cy="73500" r="140.315" /> 
<circle cx="46500" cy="73500" r="140.315" /> 
<circle cx="45500" cy="73500" r="140.315" /> 
<circle cx="44500" cy="73500" r="140.315" /> 
<circle cx="43500" cy="73500" r="140.315" /> 
<circle cx="42500" cy="73500" r="140.315" /> 
<circle cx="41500" cy="73500" r="140.315" /> 
<circle cx="40500" cy="73500" r="140.315" /> 
</g> 
</svg>
