G04 (created by PCBNEW (2013-june-11)-stable) date Thu 24 May 2018 19:10:00 EDT*
%MOIN*%
G04 Gerber Fmt 3.4, Leading zero omitted, Abs format*
%FSLAX34Y34*%
G01*
G70*
G90*
G04 APERTURE LIST*
%ADD10C,0.005*%
%ADD11C,0.00393701*%
%ADD12C,0.00787402*%
%ADD13C,0.011811*%
G04 APERTURE END LIST*
G54D10*
G54D11*
X33000Y-66000D02*
X64500Y-66000D01*
X33000Y-40500D02*
X33000Y-66000D01*
X64500Y-40500D02*
X33000Y-40500D01*
X64500Y-66000D02*
X64500Y-40500D01*
G54D12*
X33825Y-59325D02*
X34075Y-59575D01*
X34075Y-59325D02*
X33825Y-59575D01*
X34875Y-62375D02*
X35125Y-62625D01*
X35125Y-62375D02*
X34875Y-62625D01*
X35225Y-60875D02*
X35475Y-61125D01*
X35475Y-60875D02*
X35225Y-61125D01*
X36875Y-53375D02*
X37125Y-53625D01*
X37125Y-53375D02*
X36875Y-53625D01*
X36875Y-55375D02*
X37125Y-55625D01*
X37125Y-55375D02*
X36875Y-55625D01*
X38375Y-56875D02*
X38625Y-57125D01*
X38625Y-56875D02*
X38375Y-57125D01*
X38875Y-57875D02*
X39125Y-58125D01*
X39125Y-57875D02*
X38875Y-58125D01*
X39375Y-60875D02*
X39625Y-61125D01*
X39625Y-60875D02*
X39375Y-61125D01*
X44875Y-52875D02*
X45125Y-53125D01*
X45125Y-52875D02*
X44875Y-53125D01*
X47375Y-48875D02*
X47625Y-49125D01*
X47625Y-48875D02*
X47375Y-49125D01*
X47425Y-62025D02*
X47675Y-62275D01*
X47675Y-62025D02*
X47425Y-62275D01*
X47875Y-50375D02*
X48125Y-50625D01*
X48125Y-50375D02*
X47875Y-50625D01*
X47875Y-61575D02*
X48125Y-61825D01*
X48125Y-61575D02*
X47875Y-61825D01*
X48425Y-61075D02*
X48675Y-61325D01*
X48675Y-61075D02*
X48425Y-61325D01*
X51375Y-44025D02*
X51625Y-44275D01*
X51625Y-44025D02*
X51375Y-44275D01*
X53325Y-62025D02*
X53575Y-62275D01*
X53575Y-62025D02*
X53325Y-62275D01*
X56375Y-50125D02*
X56625Y-50375D01*
X56625Y-50125D02*
X56375Y-50375D01*
X56375Y-57625D02*
X56625Y-57875D01*
X56625Y-57625D02*
X56375Y-57875D01*
X56725Y-52125D02*
X56975Y-52375D01*
X56975Y-52125D02*
X56725Y-52375D01*
X56725Y-59625D02*
X56975Y-59875D01*
X56975Y-59625D02*
X56725Y-59875D01*
X57075Y-51625D02*
X57325Y-51875D01*
X57325Y-51625D02*
X57075Y-51875D01*
X57075Y-59125D02*
X57325Y-59375D01*
X57325Y-59125D02*
X57075Y-59375D01*
X57375Y-61525D02*
X57625Y-61775D01*
X57625Y-61525D02*
X57375Y-61775D01*
X57425Y-45375D02*
X57675Y-45625D01*
X57675Y-45375D02*
X57425Y-45625D01*
X57425Y-53125D02*
X57675Y-53375D01*
X57675Y-53125D02*
X57425Y-53375D01*
X57425Y-60625D02*
X57675Y-60875D01*
X57675Y-60625D02*
X57425Y-60875D01*
X57775Y-53625D02*
X58025Y-53875D01*
X58025Y-53625D02*
X57775Y-53875D01*
X57875Y-46825D02*
X58125Y-47075D01*
X58125Y-46825D02*
X57875Y-47075D01*
X57875Y-61125D02*
X58125Y-61375D01*
X58125Y-61125D02*
X57875Y-61375D01*
X58375Y-43975D02*
X58625Y-44225D01*
X58625Y-43975D02*
X58375Y-44225D01*
X53650Y-47000D02*
G75*
G03X53650Y-47000I-150J0D01*
G74*
G01*
X53650Y-49000D02*
G75*
G03X53650Y-49000I-150J0D01*
G74*
G01*
X36000Y-53340D02*
X36000Y-53660D01*
X35840Y-53500D02*
X36160Y-53500D01*
X36000Y-54340D02*
X36000Y-54660D01*
X35840Y-54500D02*
X36160Y-54500D01*
X36000Y-55340D02*
X36000Y-55660D01*
X35840Y-55500D02*
X36160Y-55500D01*
X36000Y-56340D02*
X36000Y-56660D01*
X35840Y-56500D02*
X36160Y-56500D01*
X37000Y-57840D02*
X37000Y-58160D01*
X36840Y-58000D02*
X37160Y-58000D01*
X37000Y-59340D02*
X37000Y-59660D01*
X36840Y-59500D02*
X37160Y-59500D01*
X37000Y-60840D02*
X37000Y-61160D01*
X36840Y-61000D02*
X37160Y-61000D01*
X37000Y-62340D02*
X37000Y-62660D01*
X36840Y-62500D02*
X37160Y-62500D01*
X38000Y-57840D02*
X38000Y-58160D01*
X37840Y-58000D02*
X38160Y-58000D01*
X38000Y-59340D02*
X38000Y-59660D01*
X37840Y-59500D02*
X38160Y-59500D01*
X38000Y-60840D02*
X38000Y-61160D01*
X37840Y-61000D02*
X38160Y-61000D01*
X38000Y-62340D02*
X38000Y-62660D01*
X37840Y-62500D02*
X38160Y-62500D01*
X39000Y-49840D02*
X39000Y-50160D01*
X38840Y-50000D02*
X39160Y-50000D01*
X39000Y-50840D02*
X39000Y-51160D01*
X38840Y-51000D02*
X39160Y-51000D01*
X39000Y-53340D02*
X39000Y-53660D01*
X38840Y-53500D02*
X39160Y-53500D01*
X39000Y-54340D02*
X39000Y-54660D01*
X38840Y-54500D02*
X39160Y-54500D01*
X39000Y-55340D02*
X39000Y-55660D01*
X38840Y-55500D02*
X39160Y-55500D01*
X39000Y-56340D02*
X39000Y-56660D01*
X38840Y-56500D02*
X39160Y-56500D01*
X42500Y-63340D02*
X42500Y-63660D01*
X42340Y-63500D02*
X42660Y-63500D01*
X42500Y-64340D02*
X42500Y-64660D01*
X42340Y-64500D02*
X42660Y-64500D01*
X44000Y-63840D02*
X44000Y-64160D01*
X43840Y-64000D02*
X44160Y-64000D01*
X44000Y-64840D02*
X44000Y-65160D01*
X43840Y-65000D02*
X44160Y-65000D01*
X45500Y-63840D02*
X45500Y-64160D01*
X45340Y-64000D02*
X45660Y-64000D01*
X46500Y-63840D02*
X46500Y-64160D01*
X46340Y-64000D02*
X46660Y-64000D01*
X47000Y-43840D02*
X47000Y-44160D01*
X46840Y-44000D02*
X47160Y-44000D01*
X48000Y-52840D02*
X48000Y-53160D01*
X47840Y-53000D02*
X48160Y-53000D01*
X48000Y-53840D02*
X48000Y-54160D01*
X47840Y-54000D02*
X48160Y-54000D01*
X49000Y-45840D02*
X49000Y-46160D01*
X48840Y-46000D02*
X49160Y-46000D01*
X49000Y-46840D02*
X49000Y-47160D01*
X48840Y-47000D02*
X49160Y-47000D01*
X49000Y-47840D02*
X49000Y-48160D01*
X48840Y-48000D02*
X49160Y-48000D01*
X49000Y-48840D02*
X49000Y-49160D01*
X48840Y-49000D02*
X49160Y-49000D01*
X49000Y-49840D02*
X49000Y-50160D01*
X48840Y-50000D02*
X49160Y-50000D01*
X49000Y-50840D02*
X49000Y-51160D01*
X48840Y-51000D02*
X49160Y-51000D01*
X49000Y-51840D02*
X49000Y-52160D01*
X48840Y-52000D02*
X49160Y-52000D01*
X49000Y-52840D02*
X49000Y-53160D01*
X48840Y-53000D02*
X49160Y-53000D01*
X49000Y-53840D02*
X49000Y-54160D01*
X48840Y-54000D02*
X49160Y-54000D01*
X49000Y-57340D02*
X49000Y-57660D01*
X48840Y-57500D02*
X49160Y-57500D01*
X49000Y-58340D02*
X49000Y-58660D01*
X48840Y-58500D02*
X49160Y-58500D01*
X49000Y-59340D02*
X49000Y-59660D01*
X48840Y-59500D02*
X49160Y-59500D01*
X49000Y-60340D02*
X49000Y-60660D01*
X48840Y-60500D02*
X49160Y-60500D01*
X50000Y-43840D02*
X50000Y-44160D01*
X49840Y-44000D02*
X50160Y-44000D01*
X50000Y-55840D02*
X50000Y-56160D01*
X49840Y-56000D02*
X50160Y-56000D01*
X51000Y-55840D02*
X51000Y-56160D01*
X50840Y-56000D02*
X51160Y-56000D01*
X51500Y-41840D02*
X51500Y-42160D01*
X51340Y-42000D02*
X51660Y-42000D01*
X51500Y-63840D02*
X51500Y-64160D01*
X51340Y-64000D02*
X51660Y-64000D01*
X51500Y-64840D02*
X51500Y-65160D01*
X51340Y-65000D02*
X51660Y-65000D01*
X52000Y-45840D02*
X52000Y-46160D01*
X51840Y-46000D02*
X52160Y-46000D01*
X52000Y-46840D02*
X52000Y-47160D01*
X51840Y-47000D02*
X52160Y-47000D01*
X52000Y-47840D02*
X52000Y-48160D01*
X51840Y-48000D02*
X52160Y-48000D01*
X52000Y-48840D02*
X52000Y-49160D01*
X51840Y-49000D02*
X52160Y-49000D01*
X52000Y-49840D02*
X52000Y-50160D01*
X51840Y-50000D02*
X52160Y-50000D01*
X52000Y-50840D02*
X52000Y-51160D01*
X51840Y-51000D02*
X52160Y-51000D01*
X52000Y-51840D02*
X52000Y-52160D01*
X51840Y-52000D02*
X52160Y-52000D01*
X52000Y-52840D02*
X52000Y-53160D01*
X51840Y-53000D02*
X52160Y-53000D01*
X52000Y-53840D02*
X52000Y-54160D01*
X51840Y-54000D02*
X52160Y-54000D01*
X52000Y-57340D02*
X52000Y-57660D01*
X51840Y-57500D02*
X52160Y-57500D01*
X52000Y-58340D02*
X52000Y-58660D01*
X51840Y-58500D02*
X52160Y-58500D01*
X52000Y-59340D02*
X52000Y-59660D01*
X51840Y-59500D02*
X52160Y-59500D01*
X52000Y-60340D02*
X52000Y-60660D01*
X51840Y-60500D02*
X52160Y-60500D01*
X52500Y-63840D02*
X52500Y-64160D01*
X52340Y-64000D02*
X52660Y-64000D01*
X53500Y-63840D02*
X53500Y-64160D01*
X53340Y-64000D02*
X53660Y-64000D01*
X54500Y-41840D02*
X54500Y-42160D01*
X54340Y-42000D02*
X54660Y-42000D01*
X55500Y-46840D02*
X55500Y-47160D01*
X55340Y-47000D02*
X55660Y-47000D01*
X55500Y-48840D02*
X55500Y-49160D01*
X55340Y-49000D02*
X55660Y-49000D01*
X56500Y-46840D02*
X56500Y-47160D01*
X56340Y-47000D02*
X56660Y-47000D01*
X56500Y-48840D02*
X56500Y-49160D01*
X56340Y-49000D02*
X56660Y-49000D01*
X59000Y-63340D02*
X59000Y-63660D01*
X58840Y-63500D02*
X59160Y-63500D01*
X59000Y-64340D02*
X59000Y-64660D01*
X58840Y-64500D02*
X59160Y-64500D01*
X59500Y-45340D02*
X59500Y-45660D01*
X59340Y-45500D02*
X59660Y-45500D01*
X59500Y-46840D02*
X59500Y-47160D01*
X59340Y-47000D02*
X59660Y-47000D01*
X60500Y-45340D02*
X60500Y-45660D01*
X60340Y-45500D02*
X60660Y-45500D01*
X60500Y-46840D02*
X60500Y-47160D01*
X60340Y-47000D02*
X60660Y-47000D01*
X62000Y-43840D02*
X62000Y-44160D01*
X61840Y-44000D02*
X62160Y-44000D01*
X63000Y-43840D02*
X63000Y-44160D01*
X62840Y-44000D02*
X63160Y-44000D01*
X58625Y-50375D02*
X58625Y-50124D01*
X58374Y-50124D01*
X58374Y-50375D01*
X58625Y-50375D01*
X58625Y-51375D02*
X58625Y-51124D01*
X58374Y-51124D01*
X58374Y-51375D01*
X58625Y-51375D01*
X58625Y-52375D02*
X58625Y-52124D01*
X58374Y-52124D01*
X58374Y-52375D01*
X58625Y-52375D01*
X58625Y-53375D02*
X58625Y-53124D01*
X58374Y-53124D01*
X58374Y-53375D01*
X58625Y-53375D01*
X58625Y-57875D02*
X58625Y-57624D01*
X58374Y-57624D01*
X58374Y-57875D01*
X58625Y-57875D01*
X58625Y-58875D02*
X58625Y-58624D01*
X58374Y-58624D01*
X58374Y-58875D01*
X58625Y-58875D01*
X58625Y-59875D02*
X58625Y-59624D01*
X58374Y-59624D01*
X58374Y-59875D01*
X58625Y-59875D01*
X58625Y-60875D02*
X58625Y-60624D01*
X58374Y-60624D01*
X58374Y-60875D01*
X58625Y-60875D01*
X59625Y-50875D02*
X59625Y-50624D01*
X59374Y-50624D01*
X59374Y-50875D01*
X59625Y-50875D01*
X59625Y-51875D02*
X59625Y-51624D01*
X59374Y-51624D01*
X59374Y-51875D01*
X59625Y-51875D01*
X59625Y-52875D02*
X59625Y-52624D01*
X59374Y-52624D01*
X59374Y-52875D01*
X59625Y-52875D01*
X59625Y-53875D02*
X59625Y-53624D01*
X59374Y-53624D01*
X59374Y-53875D01*
X59625Y-53875D01*
X59625Y-58375D02*
X59625Y-58124D01*
X59374Y-58124D01*
X59374Y-58375D01*
X59625Y-58375D01*
X59625Y-59375D02*
X59625Y-59124D01*
X59374Y-59124D01*
X59374Y-59375D01*
X59625Y-59375D01*
X59625Y-60375D02*
X59625Y-60124D01*
X59374Y-60124D01*
X59374Y-60375D01*
X59625Y-60375D01*
X59625Y-61375D02*
X59625Y-61124D01*
X59374Y-61124D01*
X59374Y-61375D01*
X59625Y-61375D01*
X47720Y-63309D02*
X47915Y-63114D01*
X47720Y-62919D01*
X47525Y-63114D01*
X47720Y-63309D01*
X47720Y-65080D02*
X47915Y-64885D01*
X47720Y-64690D01*
X47525Y-64885D01*
X47720Y-65080D01*
X50279Y-63309D02*
X50474Y-63114D01*
X50279Y-62919D01*
X50084Y-63114D01*
X50279Y-63309D01*
X50279Y-65080D02*
X50474Y-64885D01*
X50279Y-64690D01*
X50084Y-64885D01*
X50279Y-65080D01*
X54720Y-63309D02*
X54915Y-63114D01*
X54720Y-62919D01*
X54525Y-63114D01*
X54720Y-63309D01*
X54720Y-65080D02*
X54915Y-64885D01*
X54720Y-64690D01*
X54525Y-64885D01*
X54720Y-65080D01*
X57279Y-63309D02*
X57474Y-63114D01*
X57279Y-62919D01*
X57084Y-63114D01*
X57279Y-63309D01*
X57279Y-65080D02*
X57474Y-64885D01*
X57279Y-64690D01*
X57084Y-64885D01*
X57279Y-65080D01*
X34300Y-53300D02*
X34700Y-53700D01*
X34700Y-53300D02*
X34300Y-53700D01*
X34700Y-53500D02*
G75*
G03X34700Y-53500I-200J0D01*
G74*
G01*
X34300Y-54300D02*
X34700Y-54700D01*
X34700Y-54300D02*
X34300Y-54700D01*
X34700Y-54500D02*
G75*
G03X34700Y-54500I-200J0D01*
G74*
G01*
X34300Y-55300D02*
X34700Y-55700D01*
X34700Y-55300D02*
X34300Y-55700D01*
X34700Y-55500D02*
G75*
G03X34700Y-55500I-200J0D01*
G74*
G01*
X34300Y-56300D02*
X34700Y-56700D01*
X34700Y-56300D02*
X34300Y-56700D01*
X34700Y-56500D02*
G75*
G03X34700Y-56500I-200J0D01*
G74*
G01*
X34300Y-57300D02*
X34700Y-57700D01*
X34700Y-57300D02*
X34300Y-57700D01*
X34700Y-57500D02*
G75*
G03X34700Y-57500I-200J0D01*
G74*
G01*
X40296Y-47300D02*
X40696Y-47700D01*
X40696Y-47300D02*
X40296Y-47700D01*
X40696Y-47500D02*
G75*
G03X40696Y-47500I-200J0D01*
G74*
G01*
X40296Y-48300D02*
X40696Y-48700D01*
X40696Y-48300D02*
X40296Y-48700D01*
X40696Y-48500D02*
G75*
G03X40696Y-48500I-200J0D01*
G74*
G01*
X40296Y-49300D02*
X40696Y-49700D01*
X40696Y-49300D02*
X40296Y-49700D01*
X40696Y-49500D02*
G75*
G03X40696Y-49500I-200J0D01*
G74*
G01*
X40296Y-50300D02*
X40696Y-50700D01*
X40696Y-50300D02*
X40296Y-50700D01*
X40696Y-50500D02*
G75*
G03X40696Y-50500I-200J0D01*
G74*
G01*
X40296Y-51300D02*
X40696Y-51700D01*
X40696Y-51300D02*
X40296Y-51700D01*
X40696Y-51500D02*
G75*
G03X40696Y-51500I-200J0D01*
G74*
G01*
X40296Y-52300D02*
X40696Y-52700D01*
X40696Y-52300D02*
X40296Y-52700D01*
X40696Y-52500D02*
G75*
G03X40696Y-52500I-200J0D01*
G74*
G01*
X40296Y-53300D02*
X40696Y-53700D01*
X40696Y-53300D02*
X40296Y-53700D01*
X40696Y-53500D02*
G75*
G03X40696Y-53500I-200J0D01*
G74*
G01*
X40296Y-54300D02*
X40696Y-54700D01*
X40696Y-54300D02*
X40296Y-54700D01*
X40696Y-54500D02*
G75*
G03X40696Y-54500I-200J0D01*
G74*
G01*
X40296Y-55300D02*
X40696Y-55700D01*
X40696Y-55300D02*
X40296Y-55700D01*
X40696Y-55500D02*
G75*
G03X40696Y-55500I-200J0D01*
G74*
G01*
X40296Y-56300D02*
X40696Y-56700D01*
X40696Y-56300D02*
X40296Y-56700D01*
X40696Y-56500D02*
G75*
G03X40696Y-56500I-200J0D01*
G74*
G01*
X40296Y-57300D02*
X40696Y-57700D01*
X40696Y-57300D02*
X40296Y-57700D01*
X40696Y-57500D02*
G75*
G03X40696Y-57500I-200J0D01*
G74*
G01*
X40296Y-58300D02*
X40696Y-58700D01*
X40696Y-58300D02*
X40296Y-58700D01*
X40696Y-58500D02*
G75*
G03X40696Y-58500I-200J0D01*
G74*
G01*
X40296Y-59300D02*
X40696Y-59700D01*
X40696Y-59300D02*
X40296Y-59700D01*
X40696Y-59500D02*
G75*
G03X40696Y-59500I-200J0D01*
G74*
G01*
X40296Y-60300D02*
X40696Y-60700D01*
X40696Y-60300D02*
X40296Y-60700D01*
X40696Y-60500D02*
G75*
G03X40696Y-60500I-200J0D01*
G74*
G01*
X46303Y-47300D02*
X46703Y-47700D01*
X46703Y-47300D02*
X46303Y-47700D01*
X46703Y-47500D02*
G75*
G03X46703Y-47500I-200J0D01*
G74*
G01*
X46303Y-48300D02*
X46703Y-48700D01*
X46703Y-48300D02*
X46303Y-48700D01*
X46703Y-48500D02*
G75*
G03X46703Y-48500I-200J0D01*
G74*
G01*
X46303Y-49300D02*
X46703Y-49700D01*
X46703Y-49300D02*
X46303Y-49700D01*
X46703Y-49500D02*
G75*
G03X46703Y-49500I-200J0D01*
G74*
G01*
X46303Y-50300D02*
X46703Y-50700D01*
X46703Y-50300D02*
X46303Y-50700D01*
X46703Y-50500D02*
G75*
G03X46703Y-50500I-200J0D01*
G74*
G01*
X46303Y-51300D02*
X46703Y-51700D01*
X46703Y-51300D02*
X46303Y-51700D01*
X46703Y-51500D02*
G75*
G03X46703Y-51500I-200J0D01*
G74*
G01*
X46303Y-52300D02*
X46703Y-52700D01*
X46703Y-52300D02*
X46303Y-52700D01*
X46703Y-52500D02*
G75*
G03X46703Y-52500I-200J0D01*
G74*
G01*
X46303Y-53300D02*
X46703Y-53700D01*
X46703Y-53300D02*
X46303Y-53700D01*
X46703Y-53500D02*
G75*
G03X46703Y-53500I-200J0D01*
G74*
G01*
X46303Y-54300D02*
X46703Y-54700D01*
X46703Y-54300D02*
X46303Y-54700D01*
X46703Y-54500D02*
G75*
G03X46703Y-54500I-200J0D01*
G74*
G01*
X46303Y-55300D02*
X46703Y-55700D01*
X46703Y-55300D02*
X46303Y-55700D01*
X46703Y-55500D02*
G75*
G03X46703Y-55500I-200J0D01*
G74*
G01*
X46303Y-56300D02*
X46703Y-56700D01*
X46703Y-56300D02*
X46303Y-56700D01*
X46703Y-56500D02*
G75*
G03X46703Y-56500I-200J0D01*
G74*
G01*
X46303Y-57300D02*
X46703Y-57700D01*
X46703Y-57300D02*
X46303Y-57700D01*
X46703Y-57500D02*
G75*
G03X46703Y-57500I-200J0D01*
G74*
G01*
X46303Y-58300D02*
X46703Y-58700D01*
X46703Y-58300D02*
X46303Y-58700D01*
X46703Y-58500D02*
G75*
G03X46703Y-58500I-200J0D01*
G74*
G01*
X46303Y-59300D02*
X46703Y-59700D01*
X46703Y-59300D02*
X46303Y-59700D01*
X46703Y-59500D02*
G75*
G03X46703Y-59500I-200J0D01*
G74*
G01*
X46303Y-60300D02*
X46703Y-60700D01*
X46703Y-60300D02*
X46303Y-60700D01*
X46703Y-60500D02*
G75*
G03X46703Y-60500I-200J0D01*
G74*
G01*
X47800Y-41800D02*
X48200Y-42200D01*
X48200Y-41800D02*
X47800Y-42200D01*
X48200Y-42000D02*
G75*
G03X48200Y-42000I-200J0D01*
G74*
G01*
X48800Y-41800D02*
X49200Y-42200D01*
X49200Y-41800D02*
X48800Y-42200D01*
X49200Y-42000D02*
G75*
G03X49200Y-42000I-200J0D01*
G74*
G01*
X61800Y-45800D02*
X62200Y-46200D01*
X62200Y-45800D02*
X61800Y-46200D01*
X62200Y-46000D02*
G75*
G03X62200Y-46000I-200J0D01*
G74*
G01*
X61800Y-46800D02*
X62200Y-47200D01*
X62200Y-46800D02*
X61800Y-47200D01*
X62200Y-47000D02*
G75*
G03X62200Y-47000I-200J0D01*
G74*
G01*
X62800Y-45800D02*
X63200Y-46200D01*
X63200Y-45800D02*
X62800Y-46200D01*
X63200Y-46000D02*
G75*
G03X63200Y-46000I-200J0D01*
G74*
G01*
X62800Y-46800D02*
X63200Y-47200D01*
X63200Y-46800D02*
X62800Y-47200D01*
X63200Y-47000D02*
G75*
G03X63200Y-47000I-200J0D01*
G74*
G01*
X35754Y-49254D02*
X36246Y-49746D01*
X36246Y-49254D02*
X35754Y-49746D01*
X36000Y-49254D02*
X36000Y-49746D01*
X35754Y-49500D02*
X36246Y-49500D01*
X35754Y-51254D02*
X36246Y-51746D01*
X36246Y-51254D02*
X35754Y-51746D01*
X36000Y-51254D02*
X36000Y-51746D01*
X35754Y-51500D02*
X36246Y-51500D01*
X56254Y-42754D02*
X56746Y-43246D01*
X56746Y-42754D02*
X56254Y-43246D01*
X56500Y-42754D02*
X56500Y-43246D01*
X56254Y-43000D02*
X56746Y-43000D01*
X58254Y-42754D02*
X58746Y-43246D01*
X58746Y-42754D02*
X58254Y-43246D01*
X58500Y-42754D02*
X58500Y-43246D01*
X58254Y-43000D02*
X58746Y-43000D01*
X36700Y-41188D02*
X37300Y-41788D01*
X37300Y-41188D02*
X36700Y-41788D01*
X37212Y-41700D02*
X37212Y-41276D01*
X36787Y-41276D01*
X36787Y-41700D01*
X37212Y-41700D01*
X36700Y-43196D02*
X37300Y-43796D01*
X37300Y-43196D02*
X36700Y-43796D01*
X37212Y-43708D02*
X37212Y-43283D01*
X36787Y-43283D01*
X36787Y-43708D01*
X37212Y-43708D01*
X36700Y-45203D02*
X37300Y-45803D01*
X37300Y-45203D02*
X36700Y-45803D01*
X37212Y-45716D02*
X37212Y-45291D01*
X36787Y-45291D01*
X36787Y-45716D01*
X37212Y-45716D01*
X36700Y-47211D02*
X37300Y-47811D01*
X37300Y-47211D02*
X36700Y-47811D01*
X37212Y-47723D02*
X37212Y-47299D01*
X36787Y-47299D01*
X36787Y-47723D01*
X37212Y-47723D01*
X62820Y-48420D02*
X63580Y-49180D01*
X63580Y-48420D02*
X62820Y-49180D01*
X63200Y-49180D02*
X63580Y-48800D01*
X63200Y-48420D01*
X62820Y-48800D01*
X63200Y-49180D01*
X62820Y-54820D02*
X63580Y-55580D01*
X63580Y-54820D02*
X62820Y-55580D01*
X63200Y-55580D02*
X63580Y-55200D01*
X63200Y-54820D01*
X62820Y-55200D01*
X63200Y-55580D01*
X62820Y-55920D02*
X63580Y-56680D01*
X63580Y-55920D02*
X62820Y-56680D01*
X63200Y-56680D02*
X63580Y-56300D01*
X63200Y-55920D01*
X62820Y-56300D01*
X63200Y-56680D01*
X62820Y-62320D02*
X63580Y-63080D01*
X63580Y-62320D02*
X62820Y-63080D01*
X63200Y-63080D02*
X63580Y-62700D01*
X63200Y-62320D01*
X62820Y-62700D01*
X63200Y-63080D01*
X34500Y-41508D02*
X34500Y-42492D01*
X34008Y-42000D02*
X34992Y-42000D01*
X34992Y-42000D02*
G75*
G03X34992Y-42000I-492J0D01*
G74*
G01*
X34500Y-64008D02*
X34500Y-64992D01*
X34008Y-64500D02*
X34992Y-64500D01*
X34992Y-64500D02*
G75*
G03X34992Y-64500I-492J0D01*
G74*
G01*
X63000Y-41508D02*
X63000Y-42492D01*
X62508Y-42000D02*
X63492Y-42000D01*
X63492Y-42000D02*
G75*
G03X63492Y-42000I-492J0D01*
G74*
G01*
X63000Y-64008D02*
X63000Y-64992D01*
X62508Y-64500D02*
X63492Y-64500D01*
X63492Y-64500D02*
G75*
G03X63492Y-64500I-492J0D01*
G74*
G01*
G54D13*
X34048Y-67796D02*
X34048Y-66615D01*
X34330Y-66615D01*
X34498Y-66672D01*
X34611Y-66784D01*
X34667Y-66897D01*
X34723Y-67122D01*
X34723Y-67290D01*
X34667Y-67515D01*
X34611Y-67628D01*
X34498Y-67740D01*
X34330Y-67796D01*
X34048Y-67796D01*
X35230Y-67796D02*
X35230Y-67009D01*
X35230Y-67234D02*
X35286Y-67122D01*
X35342Y-67065D01*
X35455Y-67009D01*
X35567Y-67009D01*
X35961Y-67796D02*
X35961Y-67009D01*
X35961Y-66615D02*
X35904Y-66672D01*
X35961Y-66728D01*
X36017Y-66672D01*
X35961Y-66615D01*
X35961Y-66728D01*
X36692Y-67796D02*
X36579Y-67740D01*
X36523Y-67628D01*
X36523Y-66615D01*
X37311Y-67796D02*
X37198Y-67740D01*
X37142Y-67628D01*
X37142Y-66615D01*
X38660Y-67796D02*
X38660Y-66615D01*
X39054Y-67459D01*
X39448Y-66615D01*
X39448Y-67796D01*
X40516Y-67796D02*
X40516Y-67178D01*
X40460Y-67065D01*
X40348Y-67009D01*
X40123Y-67009D01*
X40010Y-67065D01*
X40516Y-67740D02*
X40404Y-67796D01*
X40123Y-67796D01*
X40010Y-67740D01*
X39954Y-67628D01*
X39954Y-67515D01*
X40010Y-67403D01*
X40123Y-67347D01*
X40404Y-67347D01*
X40516Y-67290D01*
X41079Y-67009D02*
X41079Y-68190D01*
X41079Y-67065D02*
X41191Y-67009D01*
X41416Y-67009D01*
X41529Y-67065D01*
X41585Y-67122D01*
X41641Y-67234D01*
X41641Y-67571D01*
X41585Y-67684D01*
X41529Y-67740D01*
X41416Y-67796D01*
X41191Y-67796D01*
X41079Y-67740D01*
X42147Y-67684D02*
X42204Y-67740D01*
X42147Y-67796D01*
X42091Y-67740D01*
X42147Y-67684D01*
X42147Y-67796D01*
X42147Y-67065D02*
X42204Y-67122D01*
X42147Y-67178D01*
X42091Y-67122D01*
X42147Y-67065D01*
X42147Y-67178D01*
X32730Y-69674D02*
X32980Y-69924D01*
X32980Y-69674D02*
X32730Y-69924D01*
X34273Y-69096D02*
X34386Y-69096D01*
X34498Y-69152D01*
X34555Y-69208D01*
X34611Y-69321D01*
X34667Y-69546D01*
X34667Y-69827D01*
X34611Y-70052D01*
X34555Y-70164D01*
X34498Y-70221D01*
X34386Y-70277D01*
X34273Y-70277D01*
X34161Y-70221D01*
X34105Y-70164D01*
X34048Y-70052D01*
X33992Y-69827D01*
X33992Y-69546D01*
X34048Y-69321D01*
X34105Y-69208D01*
X34161Y-69152D01*
X34273Y-69096D01*
X35173Y-70164D02*
X35230Y-70221D01*
X35173Y-70277D01*
X35117Y-70221D01*
X35173Y-70164D01*
X35173Y-70277D01*
X36242Y-69096D02*
X36017Y-69096D01*
X35904Y-69152D01*
X35848Y-69208D01*
X35736Y-69377D01*
X35679Y-69602D01*
X35679Y-70052D01*
X35736Y-70164D01*
X35792Y-70221D01*
X35904Y-70277D01*
X36129Y-70277D01*
X36242Y-70221D01*
X36298Y-70164D01*
X36354Y-70052D01*
X36354Y-69771D01*
X36298Y-69658D01*
X36242Y-69602D01*
X36129Y-69546D01*
X35904Y-69546D01*
X35792Y-69602D01*
X35736Y-69658D01*
X35679Y-69771D01*
X37367Y-69489D02*
X37367Y-70277D01*
X37086Y-69039D02*
X36804Y-69883D01*
X37535Y-69883D01*
X37985Y-70277D02*
X37985Y-69489D01*
X37985Y-69602D02*
X38042Y-69546D01*
X38154Y-69489D01*
X38323Y-69489D01*
X38435Y-69546D01*
X38492Y-69658D01*
X38492Y-70277D01*
X38492Y-69658D02*
X38548Y-69546D01*
X38660Y-69489D01*
X38829Y-69489D01*
X38942Y-69546D01*
X38998Y-69658D01*
X38998Y-70277D01*
X39560Y-70277D02*
X39560Y-69489D01*
X39560Y-69602D02*
X39616Y-69546D01*
X39729Y-69489D01*
X39898Y-69489D01*
X40010Y-69546D01*
X40066Y-69658D01*
X40066Y-70277D01*
X40066Y-69658D02*
X40123Y-69546D01*
X40235Y-69489D01*
X40404Y-69489D01*
X40516Y-69546D01*
X40573Y-69658D01*
X40573Y-70277D01*
X42879Y-69039D02*
X41866Y-70558D01*
X44397Y-69096D02*
X44510Y-69096D01*
X44622Y-69152D01*
X44678Y-69208D01*
X44735Y-69321D01*
X44791Y-69546D01*
X44791Y-69827D01*
X44735Y-70052D01*
X44678Y-70164D01*
X44622Y-70221D01*
X44510Y-70277D01*
X44397Y-70277D01*
X44285Y-70221D01*
X44228Y-70164D01*
X44172Y-70052D01*
X44116Y-69827D01*
X44116Y-69546D01*
X44172Y-69321D01*
X44228Y-69208D01*
X44285Y-69152D01*
X44397Y-69096D01*
X45297Y-70164D02*
X45353Y-70221D01*
X45297Y-70277D01*
X45241Y-70221D01*
X45297Y-70164D01*
X45297Y-70277D01*
X46084Y-69096D02*
X46197Y-69096D01*
X46309Y-69152D01*
X46366Y-69208D01*
X46422Y-69321D01*
X46478Y-69546D01*
X46478Y-69827D01*
X46422Y-70052D01*
X46366Y-70164D01*
X46309Y-70221D01*
X46197Y-70277D01*
X46084Y-70277D01*
X45972Y-70221D01*
X45916Y-70164D01*
X45859Y-70052D01*
X45803Y-69827D01*
X45803Y-69546D01*
X45859Y-69321D01*
X45916Y-69208D01*
X45972Y-69152D01*
X46084Y-69096D01*
X46928Y-69208D02*
X46984Y-69152D01*
X47097Y-69096D01*
X47378Y-69096D01*
X47491Y-69152D01*
X47547Y-69208D01*
X47603Y-69321D01*
X47603Y-69433D01*
X47547Y-69602D01*
X46872Y-70277D01*
X47603Y-70277D01*
X48672Y-69096D02*
X48109Y-69096D01*
X48053Y-69658D01*
X48109Y-69602D01*
X48222Y-69546D01*
X48503Y-69546D01*
X48615Y-69602D01*
X48672Y-69658D01*
X48728Y-69771D01*
X48728Y-70052D01*
X48672Y-70164D01*
X48615Y-70221D01*
X48503Y-70277D01*
X48222Y-70277D01*
X48109Y-70221D01*
X48053Y-70164D01*
X49178Y-69096D02*
X49178Y-69321D01*
X49628Y-69096D02*
X49628Y-69321D01*
X51371Y-70727D02*
X51315Y-70670D01*
X51203Y-70502D01*
X51146Y-70389D01*
X51090Y-70221D01*
X51034Y-69939D01*
X51034Y-69714D01*
X51090Y-69433D01*
X51146Y-69264D01*
X51203Y-69152D01*
X51315Y-68983D01*
X51371Y-68927D01*
X51709Y-69096D02*
X52440Y-69096D01*
X52046Y-69546D01*
X52215Y-69546D01*
X52327Y-69602D01*
X52384Y-69658D01*
X52440Y-69771D01*
X52440Y-70052D01*
X52384Y-70164D01*
X52327Y-70221D01*
X52215Y-70277D01*
X51877Y-70277D01*
X51765Y-70221D01*
X51709Y-70164D01*
X53171Y-69096D02*
X53284Y-69096D01*
X53396Y-69152D01*
X53452Y-69208D01*
X53508Y-69321D01*
X53565Y-69546D01*
X53565Y-69827D01*
X53508Y-70052D01*
X53452Y-70164D01*
X53396Y-70221D01*
X53284Y-70277D01*
X53171Y-70277D01*
X53059Y-70221D01*
X53002Y-70164D01*
X52946Y-70052D01*
X52890Y-69827D01*
X52890Y-69546D01*
X52946Y-69321D01*
X53002Y-69208D01*
X53059Y-69152D01*
X53171Y-69096D01*
X54971Y-70277D02*
X54971Y-69096D01*
X55477Y-70277D02*
X55477Y-69658D01*
X55421Y-69546D01*
X55308Y-69489D01*
X55140Y-69489D01*
X55027Y-69546D01*
X54971Y-69602D01*
X56208Y-70277D02*
X56096Y-70221D01*
X56039Y-70164D01*
X55983Y-70052D01*
X55983Y-69714D01*
X56039Y-69602D01*
X56096Y-69546D01*
X56208Y-69489D01*
X56377Y-69489D01*
X56489Y-69546D01*
X56546Y-69602D01*
X56602Y-69714D01*
X56602Y-70052D01*
X56546Y-70164D01*
X56489Y-70221D01*
X56377Y-70277D01*
X56208Y-70277D01*
X57277Y-70277D02*
X57164Y-70221D01*
X57108Y-70108D01*
X57108Y-69096D01*
X58177Y-70221D02*
X58064Y-70277D01*
X57839Y-70277D01*
X57727Y-70221D01*
X57670Y-70108D01*
X57670Y-69658D01*
X57727Y-69546D01*
X57839Y-69489D01*
X58064Y-69489D01*
X58177Y-69546D01*
X58233Y-69658D01*
X58233Y-69771D01*
X57670Y-69883D01*
X58683Y-70221D02*
X58795Y-70277D01*
X59020Y-70277D01*
X59133Y-70221D01*
X59189Y-70108D01*
X59189Y-70052D01*
X59133Y-69939D01*
X59020Y-69883D01*
X58852Y-69883D01*
X58739Y-69827D01*
X58683Y-69714D01*
X58683Y-69658D01*
X58739Y-69546D01*
X58852Y-69489D01*
X59020Y-69489D01*
X59133Y-69546D01*
X59583Y-70727D02*
X59639Y-70670D01*
X59751Y-70502D01*
X59808Y-70389D01*
X59864Y-70221D01*
X59920Y-69939D01*
X59920Y-69714D01*
X59864Y-69433D01*
X59808Y-69264D01*
X59751Y-69152D01*
X59639Y-68983D01*
X59583Y-68927D01*
G54D12*
X32980Y-71358D02*
G75*
G03X32980Y-71358I-150J0D01*
G74*
G01*
G54D13*
X34273Y-70655D02*
X34386Y-70655D01*
X34498Y-70711D01*
X34555Y-70767D01*
X34611Y-70880D01*
X34667Y-71105D01*
X34667Y-71386D01*
X34611Y-71611D01*
X34555Y-71723D01*
X34498Y-71780D01*
X34386Y-71836D01*
X34273Y-71836D01*
X34161Y-71780D01*
X34105Y-71723D01*
X34048Y-71611D01*
X33992Y-71386D01*
X33992Y-71105D01*
X34048Y-70880D01*
X34105Y-70767D01*
X34161Y-70711D01*
X34273Y-70655D01*
X35173Y-71723D02*
X35230Y-71780D01*
X35173Y-71836D01*
X35117Y-71780D01*
X35173Y-71723D01*
X35173Y-71836D01*
X35623Y-70655D02*
X36411Y-70655D01*
X35904Y-71836D01*
X37367Y-70655D02*
X37142Y-70655D01*
X37029Y-70711D01*
X36973Y-70767D01*
X36861Y-70936D01*
X36804Y-71161D01*
X36804Y-71611D01*
X36861Y-71723D01*
X36917Y-71780D01*
X37029Y-71836D01*
X37254Y-71836D01*
X37367Y-71780D01*
X37423Y-71723D01*
X37479Y-71611D01*
X37479Y-71330D01*
X37423Y-71217D01*
X37367Y-71161D01*
X37254Y-71105D01*
X37029Y-71105D01*
X36917Y-71161D01*
X36861Y-71217D01*
X36804Y-71330D01*
X37985Y-71836D02*
X37985Y-71048D01*
X37985Y-71161D02*
X38042Y-71105D01*
X38154Y-71048D01*
X38323Y-71048D01*
X38435Y-71105D01*
X38492Y-71217D01*
X38492Y-71836D01*
X38492Y-71217D02*
X38548Y-71105D01*
X38660Y-71048D01*
X38829Y-71048D01*
X38942Y-71105D01*
X38998Y-71217D01*
X38998Y-71836D01*
X39560Y-71836D02*
X39560Y-71048D01*
X39560Y-71161D02*
X39616Y-71105D01*
X39729Y-71048D01*
X39898Y-71048D01*
X40010Y-71105D01*
X40066Y-71217D01*
X40066Y-71836D01*
X40066Y-71217D02*
X40123Y-71105D01*
X40235Y-71048D01*
X40404Y-71048D01*
X40516Y-71105D01*
X40573Y-71217D01*
X40573Y-71836D01*
X42879Y-70598D02*
X41866Y-72117D01*
X44397Y-70655D02*
X44510Y-70655D01*
X44622Y-70711D01*
X44678Y-70767D01*
X44735Y-70880D01*
X44791Y-71105D01*
X44791Y-71386D01*
X44735Y-71611D01*
X44678Y-71723D01*
X44622Y-71780D01*
X44510Y-71836D01*
X44397Y-71836D01*
X44285Y-71780D01*
X44228Y-71723D01*
X44172Y-71611D01*
X44116Y-71386D01*
X44116Y-71105D01*
X44172Y-70880D01*
X44228Y-70767D01*
X44285Y-70711D01*
X44397Y-70655D01*
X45297Y-71723D02*
X45353Y-71780D01*
X45297Y-71836D01*
X45241Y-71780D01*
X45297Y-71723D01*
X45297Y-71836D01*
X46084Y-70655D02*
X46197Y-70655D01*
X46309Y-70711D01*
X46366Y-70767D01*
X46422Y-70880D01*
X46478Y-71105D01*
X46478Y-71386D01*
X46422Y-71611D01*
X46366Y-71723D01*
X46309Y-71780D01*
X46197Y-71836D01*
X46084Y-71836D01*
X45972Y-71780D01*
X45916Y-71723D01*
X45859Y-71611D01*
X45803Y-71386D01*
X45803Y-71105D01*
X45859Y-70880D01*
X45916Y-70767D01*
X45972Y-70711D01*
X46084Y-70655D01*
X46872Y-70655D02*
X47603Y-70655D01*
X47209Y-71105D01*
X47378Y-71105D01*
X47491Y-71161D01*
X47547Y-71217D01*
X47603Y-71330D01*
X47603Y-71611D01*
X47547Y-71723D01*
X47491Y-71780D01*
X47378Y-71836D01*
X47041Y-71836D01*
X46928Y-71780D01*
X46872Y-71723D01*
X48334Y-70655D02*
X48447Y-70655D01*
X48559Y-70711D01*
X48615Y-70767D01*
X48672Y-70880D01*
X48728Y-71105D01*
X48728Y-71386D01*
X48672Y-71611D01*
X48615Y-71723D01*
X48559Y-71780D01*
X48447Y-71836D01*
X48334Y-71836D01*
X48222Y-71780D01*
X48165Y-71723D01*
X48109Y-71611D01*
X48053Y-71386D01*
X48053Y-71105D01*
X48109Y-70880D01*
X48165Y-70767D01*
X48222Y-70711D01*
X48334Y-70655D01*
X49178Y-70655D02*
X49178Y-70880D01*
X49628Y-70655D02*
X49628Y-70880D01*
X51371Y-72286D02*
X51315Y-72230D01*
X51203Y-72061D01*
X51146Y-71948D01*
X51090Y-71780D01*
X51034Y-71498D01*
X51034Y-71273D01*
X51090Y-70992D01*
X51146Y-70823D01*
X51203Y-70711D01*
X51315Y-70542D01*
X51371Y-70486D01*
X51765Y-70767D02*
X51821Y-70711D01*
X51934Y-70655D01*
X52215Y-70655D01*
X52327Y-70711D01*
X52384Y-70767D01*
X52440Y-70880D01*
X52440Y-70992D01*
X52384Y-71161D01*
X51709Y-71836D01*
X52440Y-71836D01*
X53846Y-71836D02*
X53846Y-70655D01*
X54352Y-71836D02*
X54352Y-71217D01*
X54296Y-71105D01*
X54183Y-71048D01*
X54015Y-71048D01*
X53902Y-71105D01*
X53846Y-71161D01*
X55083Y-71836D02*
X54971Y-71780D01*
X54915Y-71723D01*
X54858Y-71611D01*
X54858Y-71273D01*
X54915Y-71161D01*
X54971Y-71105D01*
X55083Y-71048D01*
X55252Y-71048D01*
X55365Y-71105D01*
X55421Y-71161D01*
X55477Y-71273D01*
X55477Y-71611D01*
X55421Y-71723D01*
X55365Y-71780D01*
X55252Y-71836D01*
X55083Y-71836D01*
X56152Y-71836D02*
X56039Y-71780D01*
X55983Y-71667D01*
X55983Y-70655D01*
X57052Y-71780D02*
X56939Y-71836D01*
X56714Y-71836D01*
X56602Y-71780D01*
X56546Y-71667D01*
X56546Y-71217D01*
X56602Y-71105D01*
X56714Y-71048D01*
X56939Y-71048D01*
X57052Y-71105D01*
X57108Y-71217D01*
X57108Y-71330D01*
X56546Y-71442D01*
X57558Y-71780D02*
X57670Y-71836D01*
X57895Y-71836D01*
X58008Y-71780D01*
X58064Y-71667D01*
X58064Y-71611D01*
X58008Y-71498D01*
X57895Y-71442D01*
X57727Y-71442D01*
X57614Y-71386D01*
X57558Y-71273D01*
X57558Y-71217D01*
X57614Y-71105D01*
X57727Y-71048D01*
X57895Y-71048D01*
X58008Y-71105D01*
X58458Y-72286D02*
X58514Y-72230D01*
X58627Y-72061D01*
X58683Y-71948D01*
X58739Y-71780D01*
X58795Y-71498D01*
X58795Y-71273D01*
X58739Y-70992D01*
X58683Y-70823D01*
X58627Y-70711D01*
X58514Y-70542D01*
X58458Y-70486D01*
X32820Y-72757D02*
X32820Y-73077D01*
X32660Y-72917D02*
X32980Y-72917D01*
X34273Y-72214D02*
X34386Y-72214D01*
X34498Y-72270D01*
X34555Y-72326D01*
X34611Y-72439D01*
X34667Y-72664D01*
X34667Y-72945D01*
X34611Y-73170D01*
X34555Y-73282D01*
X34498Y-73339D01*
X34386Y-73395D01*
X34273Y-73395D01*
X34161Y-73339D01*
X34105Y-73282D01*
X34048Y-73170D01*
X33992Y-72945D01*
X33992Y-72664D01*
X34048Y-72439D01*
X34105Y-72326D01*
X34161Y-72270D01*
X34273Y-72214D01*
X35173Y-73282D02*
X35230Y-73339D01*
X35173Y-73395D01*
X35117Y-73339D01*
X35173Y-73282D01*
X35173Y-73395D01*
X35904Y-72720D02*
X35792Y-72664D01*
X35736Y-72607D01*
X35679Y-72495D01*
X35679Y-72439D01*
X35736Y-72326D01*
X35792Y-72270D01*
X35904Y-72214D01*
X36129Y-72214D01*
X36242Y-72270D01*
X36298Y-72326D01*
X36354Y-72439D01*
X36354Y-72495D01*
X36298Y-72607D01*
X36242Y-72664D01*
X36129Y-72720D01*
X35904Y-72720D01*
X35792Y-72776D01*
X35736Y-72832D01*
X35679Y-72945D01*
X35679Y-73170D01*
X35736Y-73282D01*
X35792Y-73339D01*
X35904Y-73395D01*
X36129Y-73395D01*
X36242Y-73339D01*
X36298Y-73282D01*
X36354Y-73170D01*
X36354Y-72945D01*
X36298Y-72832D01*
X36242Y-72776D01*
X36129Y-72720D01*
X37479Y-73395D02*
X36804Y-73395D01*
X37142Y-73395D02*
X37142Y-72214D01*
X37029Y-72383D01*
X36917Y-72495D01*
X36804Y-72551D01*
X37985Y-73395D02*
X37985Y-72607D01*
X37985Y-72720D02*
X38042Y-72664D01*
X38154Y-72607D01*
X38323Y-72607D01*
X38435Y-72664D01*
X38492Y-72776D01*
X38492Y-73395D01*
X38492Y-72776D02*
X38548Y-72664D01*
X38660Y-72607D01*
X38829Y-72607D01*
X38942Y-72664D01*
X38998Y-72776D01*
X38998Y-73395D01*
X39560Y-73395D02*
X39560Y-72607D01*
X39560Y-72720D02*
X39616Y-72664D01*
X39729Y-72607D01*
X39898Y-72607D01*
X40010Y-72664D01*
X40066Y-72776D01*
X40066Y-73395D01*
X40066Y-72776D02*
X40123Y-72664D01*
X40235Y-72607D01*
X40404Y-72607D01*
X40516Y-72664D01*
X40573Y-72776D01*
X40573Y-73395D01*
X42879Y-72158D02*
X41866Y-73676D01*
X44397Y-72214D02*
X44510Y-72214D01*
X44622Y-72270D01*
X44678Y-72326D01*
X44735Y-72439D01*
X44791Y-72664D01*
X44791Y-72945D01*
X44735Y-73170D01*
X44678Y-73282D01*
X44622Y-73339D01*
X44510Y-73395D01*
X44397Y-73395D01*
X44285Y-73339D01*
X44228Y-73282D01*
X44172Y-73170D01*
X44116Y-72945D01*
X44116Y-72664D01*
X44172Y-72439D01*
X44228Y-72326D01*
X44285Y-72270D01*
X44397Y-72214D01*
X45297Y-73282D02*
X45353Y-73339D01*
X45297Y-73395D01*
X45241Y-73339D01*
X45297Y-73282D01*
X45297Y-73395D01*
X46084Y-72214D02*
X46197Y-72214D01*
X46309Y-72270D01*
X46366Y-72326D01*
X46422Y-72439D01*
X46478Y-72664D01*
X46478Y-72945D01*
X46422Y-73170D01*
X46366Y-73282D01*
X46309Y-73339D01*
X46197Y-73395D01*
X46084Y-73395D01*
X45972Y-73339D01*
X45916Y-73282D01*
X45859Y-73170D01*
X45803Y-72945D01*
X45803Y-72664D01*
X45859Y-72439D01*
X45916Y-72326D01*
X45972Y-72270D01*
X46084Y-72214D01*
X46872Y-72214D02*
X47603Y-72214D01*
X47209Y-72664D01*
X47378Y-72664D01*
X47491Y-72720D01*
X47547Y-72776D01*
X47603Y-72889D01*
X47603Y-73170D01*
X47547Y-73282D01*
X47491Y-73339D01*
X47378Y-73395D01*
X47041Y-73395D01*
X46928Y-73339D01*
X46872Y-73282D01*
X48053Y-72326D02*
X48109Y-72270D01*
X48222Y-72214D01*
X48503Y-72214D01*
X48615Y-72270D01*
X48672Y-72326D01*
X48728Y-72439D01*
X48728Y-72551D01*
X48672Y-72720D01*
X47997Y-73395D01*
X48728Y-73395D01*
X49178Y-72214D02*
X49178Y-72439D01*
X49628Y-72214D02*
X49628Y-72439D01*
X51371Y-73845D02*
X51315Y-73789D01*
X51203Y-73620D01*
X51146Y-73507D01*
X51090Y-73339D01*
X51034Y-73057D01*
X51034Y-72832D01*
X51090Y-72551D01*
X51146Y-72383D01*
X51203Y-72270D01*
X51315Y-72101D01*
X51371Y-72045D01*
X51709Y-72214D02*
X52496Y-72214D01*
X51990Y-73395D01*
X53452Y-72607D02*
X53452Y-73395D01*
X53171Y-72158D02*
X52890Y-73001D01*
X53621Y-73001D01*
X54971Y-73395D02*
X54971Y-72214D01*
X55477Y-73395D02*
X55477Y-72776D01*
X55421Y-72664D01*
X55308Y-72607D01*
X55140Y-72607D01*
X55027Y-72664D01*
X54971Y-72720D01*
X56208Y-73395D02*
X56096Y-73339D01*
X56039Y-73282D01*
X55983Y-73170D01*
X55983Y-72832D01*
X56039Y-72720D01*
X56096Y-72664D01*
X56208Y-72607D01*
X56377Y-72607D01*
X56489Y-72664D01*
X56546Y-72720D01*
X56602Y-72832D01*
X56602Y-73170D01*
X56546Y-73282D01*
X56489Y-73339D01*
X56377Y-73395D01*
X56208Y-73395D01*
X57277Y-73395D02*
X57164Y-73339D01*
X57108Y-73226D01*
X57108Y-72214D01*
X58177Y-73339D02*
X58064Y-73395D01*
X57839Y-73395D01*
X57727Y-73339D01*
X57670Y-73226D01*
X57670Y-72776D01*
X57727Y-72664D01*
X57839Y-72607D01*
X58064Y-72607D01*
X58177Y-72664D01*
X58233Y-72776D01*
X58233Y-72889D01*
X57670Y-73001D01*
X58683Y-73339D02*
X58795Y-73395D01*
X59020Y-73395D01*
X59133Y-73339D01*
X59189Y-73226D01*
X59189Y-73170D01*
X59133Y-73057D01*
X59020Y-73001D01*
X58852Y-73001D01*
X58739Y-72945D01*
X58683Y-72832D01*
X58683Y-72776D01*
X58739Y-72664D01*
X58852Y-72607D01*
X59020Y-72607D01*
X59133Y-72664D01*
X59583Y-73845D02*
X59639Y-73789D01*
X59751Y-73620D01*
X59808Y-73507D01*
X59864Y-73339D01*
X59920Y-73057D01*
X59920Y-72832D01*
X59864Y-72551D01*
X59808Y-72383D01*
X59751Y-72270D01*
X59639Y-72101D01*
X59583Y-72045D01*
G54D12*
X32928Y-74601D02*
X32928Y-74351D01*
X32678Y-74351D01*
X32678Y-74601D01*
X32928Y-74601D01*
G54D13*
X34273Y-73773D02*
X34386Y-73773D01*
X34498Y-73829D01*
X34555Y-73885D01*
X34611Y-73998D01*
X34667Y-74223D01*
X34667Y-74504D01*
X34611Y-74729D01*
X34555Y-74841D01*
X34498Y-74898D01*
X34386Y-74954D01*
X34273Y-74954D01*
X34161Y-74898D01*
X34105Y-74841D01*
X34048Y-74729D01*
X33992Y-74504D01*
X33992Y-74223D01*
X34048Y-73998D01*
X34105Y-73885D01*
X34161Y-73829D01*
X34273Y-73773D01*
X35173Y-74841D02*
X35230Y-74898D01*
X35173Y-74954D01*
X35117Y-74898D01*
X35173Y-74841D01*
X35173Y-74954D01*
X35792Y-74954D02*
X36017Y-74954D01*
X36129Y-74898D01*
X36186Y-74841D01*
X36298Y-74673D01*
X36354Y-74448D01*
X36354Y-73998D01*
X36298Y-73885D01*
X36242Y-73829D01*
X36129Y-73773D01*
X35904Y-73773D01*
X35792Y-73829D01*
X35736Y-73885D01*
X35679Y-73998D01*
X35679Y-74279D01*
X35736Y-74392D01*
X35792Y-74448D01*
X35904Y-74504D01*
X36129Y-74504D01*
X36242Y-74448D01*
X36298Y-74392D01*
X36354Y-74279D01*
X37086Y-73773D02*
X37198Y-73773D01*
X37311Y-73829D01*
X37367Y-73885D01*
X37423Y-73998D01*
X37479Y-74223D01*
X37479Y-74504D01*
X37423Y-74729D01*
X37367Y-74841D01*
X37311Y-74898D01*
X37198Y-74954D01*
X37086Y-74954D01*
X36973Y-74898D01*
X36917Y-74841D01*
X36861Y-74729D01*
X36804Y-74504D01*
X36804Y-74223D01*
X36861Y-73998D01*
X36917Y-73885D01*
X36973Y-73829D01*
X37086Y-73773D01*
X37985Y-74954D02*
X37985Y-74167D01*
X37985Y-74279D02*
X38042Y-74223D01*
X38154Y-74167D01*
X38323Y-74167D01*
X38435Y-74223D01*
X38492Y-74335D01*
X38492Y-74954D01*
X38492Y-74335D02*
X38548Y-74223D01*
X38660Y-74167D01*
X38829Y-74167D01*
X38942Y-74223D01*
X38998Y-74335D01*
X38998Y-74954D01*
X39560Y-74954D02*
X39560Y-74167D01*
X39560Y-74279D02*
X39616Y-74223D01*
X39729Y-74167D01*
X39898Y-74167D01*
X40010Y-74223D01*
X40066Y-74335D01*
X40066Y-74954D01*
X40066Y-74335D02*
X40123Y-74223D01*
X40235Y-74167D01*
X40404Y-74167D01*
X40516Y-74223D01*
X40573Y-74335D01*
X40573Y-74954D01*
X42879Y-73717D02*
X41866Y-75235D01*
X44397Y-73773D02*
X44510Y-73773D01*
X44622Y-73829D01*
X44678Y-73885D01*
X44735Y-73998D01*
X44791Y-74223D01*
X44791Y-74504D01*
X44735Y-74729D01*
X44678Y-74841D01*
X44622Y-74898D01*
X44510Y-74954D01*
X44397Y-74954D01*
X44285Y-74898D01*
X44228Y-74841D01*
X44172Y-74729D01*
X44116Y-74504D01*
X44116Y-74223D01*
X44172Y-73998D01*
X44228Y-73885D01*
X44285Y-73829D01*
X44397Y-73773D01*
X45297Y-74841D02*
X45353Y-74898D01*
X45297Y-74954D01*
X45241Y-74898D01*
X45297Y-74841D01*
X45297Y-74954D01*
X46084Y-73773D02*
X46197Y-73773D01*
X46309Y-73829D01*
X46366Y-73885D01*
X46422Y-73998D01*
X46478Y-74223D01*
X46478Y-74504D01*
X46422Y-74729D01*
X46366Y-74841D01*
X46309Y-74898D01*
X46197Y-74954D01*
X46084Y-74954D01*
X45972Y-74898D01*
X45916Y-74841D01*
X45859Y-74729D01*
X45803Y-74504D01*
X45803Y-74223D01*
X45859Y-73998D01*
X45916Y-73885D01*
X45972Y-73829D01*
X46084Y-73773D01*
X46872Y-73773D02*
X47603Y-73773D01*
X47209Y-74223D01*
X47378Y-74223D01*
X47491Y-74279D01*
X47547Y-74335D01*
X47603Y-74448D01*
X47603Y-74729D01*
X47547Y-74841D01*
X47491Y-74898D01*
X47378Y-74954D01*
X47041Y-74954D01*
X46928Y-74898D01*
X46872Y-74841D01*
X48672Y-73773D02*
X48109Y-73773D01*
X48053Y-74335D01*
X48109Y-74279D01*
X48222Y-74223D01*
X48503Y-74223D01*
X48615Y-74279D01*
X48672Y-74335D01*
X48728Y-74448D01*
X48728Y-74729D01*
X48672Y-74841D01*
X48615Y-74898D01*
X48503Y-74954D01*
X48222Y-74954D01*
X48109Y-74898D01*
X48053Y-74841D01*
X49178Y-73773D02*
X49178Y-73998D01*
X49628Y-73773D02*
X49628Y-73998D01*
X51371Y-75404D02*
X51315Y-75348D01*
X51203Y-75179D01*
X51146Y-75066D01*
X51090Y-74898D01*
X51034Y-74616D01*
X51034Y-74392D01*
X51090Y-74110D01*
X51146Y-73942D01*
X51203Y-73829D01*
X51315Y-73660D01*
X51371Y-73604D01*
X52440Y-74954D02*
X51765Y-74954D01*
X52102Y-74954D02*
X52102Y-73773D01*
X51990Y-73942D01*
X51877Y-74054D01*
X51765Y-74110D01*
X53452Y-73773D02*
X53227Y-73773D01*
X53115Y-73829D01*
X53059Y-73885D01*
X52946Y-74054D01*
X52890Y-74279D01*
X52890Y-74729D01*
X52946Y-74841D01*
X53002Y-74898D01*
X53115Y-74954D01*
X53340Y-74954D01*
X53452Y-74898D01*
X53508Y-74841D01*
X53565Y-74729D01*
X53565Y-74448D01*
X53508Y-74335D01*
X53452Y-74279D01*
X53340Y-74223D01*
X53115Y-74223D01*
X53002Y-74279D01*
X52946Y-74335D01*
X52890Y-74448D01*
X54971Y-74954D02*
X54971Y-73773D01*
X55477Y-74954D02*
X55477Y-74335D01*
X55421Y-74223D01*
X55308Y-74167D01*
X55140Y-74167D01*
X55027Y-74223D01*
X54971Y-74279D01*
X56208Y-74954D02*
X56096Y-74898D01*
X56039Y-74841D01*
X55983Y-74729D01*
X55983Y-74392D01*
X56039Y-74279D01*
X56096Y-74223D01*
X56208Y-74167D01*
X56377Y-74167D01*
X56489Y-74223D01*
X56546Y-74279D01*
X56602Y-74392D01*
X56602Y-74729D01*
X56546Y-74841D01*
X56489Y-74898D01*
X56377Y-74954D01*
X56208Y-74954D01*
X57277Y-74954D02*
X57164Y-74898D01*
X57108Y-74785D01*
X57108Y-73773D01*
X58177Y-74898D02*
X58064Y-74954D01*
X57839Y-74954D01*
X57727Y-74898D01*
X57670Y-74785D01*
X57670Y-74335D01*
X57727Y-74223D01*
X57839Y-74167D01*
X58064Y-74167D01*
X58177Y-74223D01*
X58233Y-74335D01*
X58233Y-74448D01*
X57670Y-74560D01*
X58683Y-74898D02*
X58795Y-74954D01*
X59020Y-74954D01*
X59133Y-74898D01*
X59189Y-74785D01*
X59189Y-74729D01*
X59133Y-74616D01*
X59020Y-74560D01*
X58852Y-74560D01*
X58739Y-74504D01*
X58683Y-74392D01*
X58683Y-74335D01*
X58739Y-74223D01*
X58852Y-74167D01*
X59020Y-74167D01*
X59133Y-74223D01*
X59583Y-75404D02*
X59639Y-75348D01*
X59751Y-75179D01*
X59808Y-75066D01*
X59864Y-74898D01*
X59920Y-74616D01*
X59920Y-74392D01*
X59864Y-74110D01*
X59808Y-73942D01*
X59751Y-73829D01*
X59639Y-73660D01*
X59583Y-73604D01*
G54D12*
X32785Y-76230D02*
X32980Y-76035D01*
X32785Y-75840D01*
X32590Y-76035D01*
X32785Y-76230D01*
G54D13*
X34273Y-75332D02*
X34386Y-75332D01*
X34498Y-75388D01*
X34555Y-75444D01*
X34611Y-75557D01*
X34667Y-75782D01*
X34667Y-76063D01*
X34611Y-76288D01*
X34555Y-76401D01*
X34498Y-76457D01*
X34386Y-76513D01*
X34273Y-76513D01*
X34161Y-76457D01*
X34105Y-76401D01*
X34048Y-76288D01*
X33992Y-76063D01*
X33992Y-75782D01*
X34048Y-75557D01*
X34105Y-75444D01*
X34161Y-75388D01*
X34273Y-75332D01*
X35173Y-76401D02*
X35230Y-76457D01*
X35173Y-76513D01*
X35117Y-76457D01*
X35173Y-76401D01*
X35173Y-76513D01*
X35792Y-76513D02*
X36017Y-76513D01*
X36129Y-76457D01*
X36186Y-76401D01*
X36298Y-76232D01*
X36354Y-76007D01*
X36354Y-75557D01*
X36298Y-75444D01*
X36242Y-75388D01*
X36129Y-75332D01*
X35904Y-75332D01*
X35792Y-75388D01*
X35736Y-75444D01*
X35679Y-75557D01*
X35679Y-75838D01*
X35736Y-75951D01*
X35792Y-76007D01*
X35904Y-76063D01*
X36129Y-76063D01*
X36242Y-76007D01*
X36298Y-75951D01*
X36354Y-75838D01*
X36917Y-76513D02*
X37142Y-76513D01*
X37254Y-76457D01*
X37311Y-76401D01*
X37423Y-76232D01*
X37479Y-76007D01*
X37479Y-75557D01*
X37423Y-75444D01*
X37367Y-75388D01*
X37254Y-75332D01*
X37029Y-75332D01*
X36917Y-75388D01*
X36861Y-75444D01*
X36804Y-75557D01*
X36804Y-75838D01*
X36861Y-75951D01*
X36917Y-76007D01*
X37029Y-76063D01*
X37254Y-76063D01*
X37367Y-76007D01*
X37423Y-75951D01*
X37479Y-75838D01*
X37985Y-76513D02*
X37985Y-75726D01*
X37985Y-75838D02*
X38042Y-75782D01*
X38154Y-75726D01*
X38323Y-75726D01*
X38435Y-75782D01*
X38492Y-75894D01*
X38492Y-76513D01*
X38492Y-75894D02*
X38548Y-75782D01*
X38660Y-75726D01*
X38829Y-75726D01*
X38942Y-75782D01*
X38998Y-75894D01*
X38998Y-76513D01*
X39560Y-76513D02*
X39560Y-75726D01*
X39560Y-75838D02*
X39616Y-75782D01*
X39729Y-75726D01*
X39898Y-75726D01*
X40010Y-75782D01*
X40066Y-75894D01*
X40066Y-76513D01*
X40066Y-75894D02*
X40123Y-75782D01*
X40235Y-75726D01*
X40404Y-75726D01*
X40516Y-75782D01*
X40573Y-75894D01*
X40573Y-76513D01*
X42879Y-75276D02*
X41866Y-76794D01*
X44397Y-75332D02*
X44510Y-75332D01*
X44622Y-75388D01*
X44678Y-75444D01*
X44735Y-75557D01*
X44791Y-75782D01*
X44791Y-76063D01*
X44735Y-76288D01*
X44678Y-76401D01*
X44622Y-76457D01*
X44510Y-76513D01*
X44397Y-76513D01*
X44285Y-76457D01*
X44228Y-76401D01*
X44172Y-76288D01*
X44116Y-76063D01*
X44116Y-75782D01*
X44172Y-75557D01*
X44228Y-75444D01*
X44285Y-75388D01*
X44397Y-75332D01*
X45297Y-76401D02*
X45353Y-76457D01*
X45297Y-76513D01*
X45241Y-76457D01*
X45297Y-76401D01*
X45297Y-76513D01*
X46084Y-75332D02*
X46197Y-75332D01*
X46309Y-75388D01*
X46366Y-75444D01*
X46422Y-75557D01*
X46478Y-75782D01*
X46478Y-76063D01*
X46422Y-76288D01*
X46366Y-76401D01*
X46309Y-76457D01*
X46197Y-76513D01*
X46084Y-76513D01*
X45972Y-76457D01*
X45916Y-76401D01*
X45859Y-76288D01*
X45803Y-76063D01*
X45803Y-75782D01*
X45859Y-75557D01*
X45916Y-75444D01*
X45972Y-75388D01*
X46084Y-75332D01*
X46872Y-75332D02*
X47603Y-75332D01*
X47209Y-75782D01*
X47378Y-75782D01*
X47491Y-75838D01*
X47547Y-75894D01*
X47603Y-76007D01*
X47603Y-76288D01*
X47547Y-76401D01*
X47491Y-76457D01*
X47378Y-76513D01*
X47041Y-76513D01*
X46928Y-76457D01*
X46872Y-76401D01*
X48165Y-76513D02*
X48390Y-76513D01*
X48503Y-76457D01*
X48559Y-76401D01*
X48672Y-76232D01*
X48728Y-76007D01*
X48728Y-75557D01*
X48672Y-75444D01*
X48615Y-75388D01*
X48503Y-75332D01*
X48278Y-75332D01*
X48165Y-75388D01*
X48109Y-75444D01*
X48053Y-75557D01*
X48053Y-75838D01*
X48109Y-75951D01*
X48165Y-76007D01*
X48278Y-76063D01*
X48503Y-76063D01*
X48615Y-76007D01*
X48672Y-75951D01*
X48728Y-75838D01*
X49178Y-75332D02*
X49178Y-75557D01*
X49628Y-75332D02*
X49628Y-75557D01*
X51371Y-76963D02*
X51315Y-76907D01*
X51203Y-76738D01*
X51146Y-76625D01*
X51090Y-76457D01*
X51034Y-76176D01*
X51034Y-75951D01*
X51090Y-75669D01*
X51146Y-75501D01*
X51203Y-75388D01*
X51315Y-75219D01*
X51371Y-75163D01*
X51990Y-75838D02*
X51877Y-75782D01*
X51821Y-75726D01*
X51765Y-75613D01*
X51765Y-75557D01*
X51821Y-75444D01*
X51877Y-75388D01*
X51990Y-75332D01*
X52215Y-75332D01*
X52327Y-75388D01*
X52384Y-75444D01*
X52440Y-75557D01*
X52440Y-75613D01*
X52384Y-75726D01*
X52327Y-75782D01*
X52215Y-75838D01*
X51990Y-75838D01*
X51877Y-75894D01*
X51821Y-75951D01*
X51765Y-76063D01*
X51765Y-76288D01*
X51821Y-76401D01*
X51877Y-76457D01*
X51990Y-76513D01*
X52215Y-76513D01*
X52327Y-76457D01*
X52384Y-76401D01*
X52440Y-76288D01*
X52440Y-76063D01*
X52384Y-75951D01*
X52327Y-75894D01*
X52215Y-75838D01*
X53846Y-76513D02*
X53846Y-75332D01*
X54352Y-76513D02*
X54352Y-75894D01*
X54296Y-75782D01*
X54183Y-75726D01*
X54015Y-75726D01*
X53902Y-75782D01*
X53846Y-75838D01*
X55083Y-76513D02*
X54971Y-76457D01*
X54915Y-76401D01*
X54858Y-76288D01*
X54858Y-75951D01*
X54915Y-75838D01*
X54971Y-75782D01*
X55083Y-75726D01*
X55252Y-75726D01*
X55365Y-75782D01*
X55421Y-75838D01*
X55477Y-75951D01*
X55477Y-76288D01*
X55421Y-76401D01*
X55365Y-76457D01*
X55252Y-76513D01*
X55083Y-76513D01*
X56152Y-76513D02*
X56039Y-76457D01*
X55983Y-76344D01*
X55983Y-75332D01*
X57052Y-76457D02*
X56939Y-76513D01*
X56714Y-76513D01*
X56602Y-76457D01*
X56546Y-76344D01*
X56546Y-75894D01*
X56602Y-75782D01*
X56714Y-75726D01*
X56939Y-75726D01*
X57052Y-75782D01*
X57108Y-75894D01*
X57108Y-76007D01*
X56546Y-76119D01*
X57558Y-76457D02*
X57670Y-76513D01*
X57895Y-76513D01*
X58008Y-76457D01*
X58064Y-76344D01*
X58064Y-76288D01*
X58008Y-76176D01*
X57895Y-76119D01*
X57727Y-76119D01*
X57614Y-76063D01*
X57558Y-75951D01*
X57558Y-75894D01*
X57614Y-75782D01*
X57727Y-75726D01*
X57895Y-75726D01*
X58008Y-75782D01*
X58458Y-76963D02*
X58514Y-76907D01*
X58627Y-76738D01*
X58683Y-76625D01*
X58739Y-76457D01*
X58795Y-76176D01*
X58795Y-75951D01*
X58739Y-75669D01*
X58683Y-75501D01*
X58627Y-75388D01*
X58514Y-75219D01*
X58458Y-75163D01*
X32580Y-77394D02*
X32980Y-77794D01*
X32980Y-77394D02*
X32580Y-77794D01*
G54D12*
X32980Y-77594D02*
G75*
G03X32980Y-77594I-200J0D01*
G74*
G01*
G54D13*
X34667Y-78072D02*
X33992Y-78072D01*
X34330Y-78072D02*
X34330Y-76891D01*
X34217Y-77060D01*
X34105Y-77172D01*
X33992Y-77228D01*
X35173Y-77960D02*
X35230Y-78016D01*
X35173Y-78072D01*
X35117Y-78016D01*
X35173Y-77960D01*
X35173Y-78072D01*
X35961Y-76891D02*
X36073Y-76891D01*
X36186Y-76947D01*
X36242Y-77003D01*
X36298Y-77116D01*
X36354Y-77341D01*
X36354Y-77622D01*
X36298Y-77847D01*
X36242Y-77960D01*
X36186Y-78016D01*
X36073Y-78072D01*
X35961Y-78072D01*
X35848Y-78016D01*
X35792Y-77960D01*
X35736Y-77847D01*
X35679Y-77622D01*
X35679Y-77341D01*
X35736Y-77116D01*
X35792Y-77003D01*
X35848Y-76947D01*
X35961Y-76891D01*
X36804Y-77003D02*
X36861Y-76947D01*
X36973Y-76891D01*
X37254Y-76891D01*
X37367Y-76947D01*
X37423Y-77003D01*
X37479Y-77116D01*
X37479Y-77228D01*
X37423Y-77397D01*
X36748Y-78072D01*
X37479Y-78072D01*
X37985Y-78072D02*
X37985Y-77285D01*
X37985Y-77397D02*
X38042Y-77341D01*
X38154Y-77285D01*
X38323Y-77285D01*
X38435Y-77341D01*
X38492Y-77453D01*
X38492Y-78072D01*
X38492Y-77453D02*
X38548Y-77341D01*
X38660Y-77285D01*
X38829Y-77285D01*
X38942Y-77341D01*
X38998Y-77453D01*
X38998Y-78072D01*
X39560Y-78072D02*
X39560Y-77285D01*
X39560Y-77397D02*
X39616Y-77341D01*
X39729Y-77285D01*
X39898Y-77285D01*
X40010Y-77341D01*
X40066Y-77453D01*
X40066Y-78072D01*
X40066Y-77453D02*
X40123Y-77341D01*
X40235Y-77285D01*
X40404Y-77285D01*
X40516Y-77341D01*
X40573Y-77453D01*
X40573Y-78072D01*
X42879Y-76835D02*
X41866Y-78353D01*
X44397Y-76891D02*
X44510Y-76891D01*
X44622Y-76947D01*
X44678Y-77003D01*
X44735Y-77116D01*
X44791Y-77341D01*
X44791Y-77622D01*
X44735Y-77847D01*
X44678Y-77960D01*
X44622Y-78016D01*
X44510Y-78072D01*
X44397Y-78072D01*
X44285Y-78016D01*
X44228Y-77960D01*
X44172Y-77847D01*
X44116Y-77622D01*
X44116Y-77341D01*
X44172Y-77116D01*
X44228Y-77003D01*
X44285Y-76947D01*
X44397Y-76891D01*
X45297Y-77960D02*
X45353Y-78016D01*
X45297Y-78072D01*
X45241Y-78016D01*
X45297Y-77960D01*
X45297Y-78072D01*
X46084Y-76891D02*
X46197Y-76891D01*
X46309Y-76947D01*
X46366Y-77003D01*
X46422Y-77116D01*
X46478Y-77341D01*
X46478Y-77622D01*
X46422Y-77847D01*
X46366Y-77960D01*
X46309Y-78016D01*
X46197Y-78072D01*
X46084Y-78072D01*
X45972Y-78016D01*
X45916Y-77960D01*
X45859Y-77847D01*
X45803Y-77622D01*
X45803Y-77341D01*
X45859Y-77116D01*
X45916Y-77003D01*
X45972Y-76947D01*
X46084Y-76891D01*
X47491Y-77285D02*
X47491Y-78072D01*
X47209Y-76835D02*
X46928Y-77678D01*
X47659Y-77678D01*
X48334Y-76891D02*
X48447Y-76891D01*
X48559Y-76947D01*
X48615Y-77003D01*
X48672Y-77116D01*
X48728Y-77341D01*
X48728Y-77622D01*
X48672Y-77847D01*
X48615Y-77960D01*
X48559Y-78016D01*
X48447Y-78072D01*
X48334Y-78072D01*
X48222Y-78016D01*
X48165Y-77960D01*
X48109Y-77847D01*
X48053Y-77622D01*
X48053Y-77341D01*
X48109Y-77116D01*
X48165Y-77003D01*
X48222Y-76947D01*
X48334Y-76891D01*
X49178Y-76891D02*
X49178Y-77116D01*
X49628Y-76891D02*
X49628Y-77116D01*
X51371Y-78522D02*
X51315Y-78466D01*
X51203Y-78297D01*
X51146Y-78185D01*
X51090Y-78016D01*
X51034Y-77735D01*
X51034Y-77510D01*
X51090Y-77228D01*
X51146Y-77060D01*
X51203Y-76947D01*
X51315Y-76778D01*
X51371Y-76722D01*
X51709Y-76891D02*
X52440Y-76891D01*
X52046Y-77341D01*
X52215Y-77341D01*
X52327Y-77397D01*
X52384Y-77453D01*
X52440Y-77566D01*
X52440Y-77847D01*
X52384Y-77960D01*
X52327Y-78016D01*
X52215Y-78072D01*
X51877Y-78072D01*
X51765Y-78016D01*
X51709Y-77960D01*
X53002Y-78072D02*
X53227Y-78072D01*
X53340Y-78016D01*
X53396Y-77960D01*
X53508Y-77791D01*
X53565Y-77566D01*
X53565Y-77116D01*
X53508Y-77003D01*
X53452Y-76947D01*
X53340Y-76891D01*
X53115Y-76891D01*
X53002Y-76947D01*
X52946Y-77003D01*
X52890Y-77116D01*
X52890Y-77397D01*
X52946Y-77510D01*
X53002Y-77566D01*
X53115Y-77622D01*
X53340Y-77622D01*
X53452Y-77566D01*
X53508Y-77510D01*
X53565Y-77397D01*
X54971Y-78072D02*
X54971Y-76891D01*
X55477Y-78072D02*
X55477Y-77453D01*
X55421Y-77341D01*
X55308Y-77285D01*
X55140Y-77285D01*
X55027Y-77341D01*
X54971Y-77397D01*
X56208Y-78072D02*
X56096Y-78016D01*
X56039Y-77960D01*
X55983Y-77847D01*
X55983Y-77510D01*
X56039Y-77397D01*
X56096Y-77341D01*
X56208Y-77285D01*
X56377Y-77285D01*
X56489Y-77341D01*
X56546Y-77397D01*
X56602Y-77510D01*
X56602Y-77847D01*
X56546Y-77960D01*
X56489Y-78016D01*
X56377Y-78072D01*
X56208Y-78072D01*
X57277Y-78072D02*
X57164Y-78016D01*
X57108Y-77903D01*
X57108Y-76891D01*
X58177Y-78016D02*
X58064Y-78072D01*
X57839Y-78072D01*
X57727Y-78016D01*
X57670Y-77903D01*
X57670Y-77453D01*
X57727Y-77341D01*
X57839Y-77285D01*
X58064Y-77285D01*
X58177Y-77341D01*
X58233Y-77453D01*
X58233Y-77566D01*
X57670Y-77678D01*
X58683Y-78016D02*
X58795Y-78072D01*
X59020Y-78072D01*
X59133Y-78016D01*
X59189Y-77903D01*
X59189Y-77847D01*
X59133Y-77735D01*
X59020Y-77678D01*
X58852Y-77678D01*
X58739Y-77622D01*
X58683Y-77510D01*
X58683Y-77453D01*
X58739Y-77341D01*
X58852Y-77285D01*
X59020Y-77285D01*
X59133Y-77341D01*
X59583Y-78522D02*
X59639Y-78466D01*
X59751Y-78297D01*
X59808Y-78185D01*
X59864Y-78016D01*
X59920Y-77735D01*
X59920Y-77510D01*
X59864Y-77228D01*
X59808Y-77060D01*
X59751Y-76947D01*
X59639Y-76778D01*
X59583Y-76722D01*
X32488Y-78907D02*
X32980Y-79399D01*
X32980Y-78907D02*
X32488Y-79399D01*
X32734Y-78907D02*
X32734Y-79399D01*
X32488Y-79153D02*
X32980Y-79153D01*
X34667Y-79631D02*
X33992Y-79631D01*
X34330Y-79631D02*
X34330Y-78450D01*
X34217Y-78619D01*
X34105Y-78731D01*
X33992Y-78787D01*
X35173Y-79519D02*
X35230Y-79575D01*
X35173Y-79631D01*
X35117Y-79575D01*
X35173Y-79519D01*
X35173Y-79631D01*
X35679Y-78562D02*
X35736Y-78506D01*
X35848Y-78450D01*
X36129Y-78450D01*
X36242Y-78506D01*
X36298Y-78562D01*
X36354Y-78675D01*
X36354Y-78787D01*
X36298Y-78956D01*
X35623Y-79631D01*
X36354Y-79631D01*
X37423Y-78450D02*
X36861Y-78450D01*
X36804Y-79012D01*
X36861Y-78956D01*
X36973Y-78900D01*
X37254Y-78900D01*
X37367Y-78956D01*
X37423Y-79012D01*
X37479Y-79125D01*
X37479Y-79406D01*
X37423Y-79519D01*
X37367Y-79575D01*
X37254Y-79631D01*
X36973Y-79631D01*
X36861Y-79575D01*
X36804Y-79519D01*
X37985Y-79631D02*
X37985Y-78844D01*
X37985Y-78956D02*
X38042Y-78900D01*
X38154Y-78844D01*
X38323Y-78844D01*
X38435Y-78900D01*
X38492Y-79012D01*
X38492Y-79631D01*
X38492Y-79012D02*
X38548Y-78900D01*
X38660Y-78844D01*
X38829Y-78844D01*
X38942Y-78900D01*
X38998Y-79012D01*
X38998Y-79631D01*
X39560Y-79631D02*
X39560Y-78844D01*
X39560Y-78956D02*
X39616Y-78900D01*
X39729Y-78844D01*
X39898Y-78844D01*
X40010Y-78900D01*
X40066Y-79012D01*
X40066Y-79631D01*
X40066Y-79012D02*
X40123Y-78900D01*
X40235Y-78844D01*
X40404Y-78844D01*
X40516Y-78900D01*
X40573Y-79012D01*
X40573Y-79631D01*
X42879Y-78394D02*
X41866Y-79912D01*
X44397Y-78450D02*
X44510Y-78450D01*
X44622Y-78506D01*
X44678Y-78562D01*
X44735Y-78675D01*
X44791Y-78900D01*
X44791Y-79181D01*
X44735Y-79406D01*
X44678Y-79519D01*
X44622Y-79575D01*
X44510Y-79631D01*
X44397Y-79631D01*
X44285Y-79575D01*
X44228Y-79519D01*
X44172Y-79406D01*
X44116Y-79181D01*
X44116Y-78900D01*
X44172Y-78675D01*
X44228Y-78562D01*
X44285Y-78506D01*
X44397Y-78450D01*
X45297Y-79519D02*
X45353Y-79575D01*
X45297Y-79631D01*
X45241Y-79575D01*
X45297Y-79519D01*
X45297Y-79631D01*
X46084Y-78450D02*
X46197Y-78450D01*
X46309Y-78506D01*
X46366Y-78562D01*
X46422Y-78675D01*
X46478Y-78900D01*
X46478Y-79181D01*
X46422Y-79406D01*
X46366Y-79519D01*
X46309Y-79575D01*
X46197Y-79631D01*
X46084Y-79631D01*
X45972Y-79575D01*
X45916Y-79519D01*
X45859Y-79406D01*
X45803Y-79181D01*
X45803Y-78900D01*
X45859Y-78675D01*
X45916Y-78562D01*
X45972Y-78506D01*
X46084Y-78450D01*
X47491Y-78844D02*
X47491Y-79631D01*
X47209Y-78394D02*
X46928Y-79237D01*
X47659Y-79237D01*
X48165Y-79631D02*
X48390Y-79631D01*
X48503Y-79575D01*
X48559Y-79519D01*
X48672Y-79350D01*
X48728Y-79125D01*
X48728Y-78675D01*
X48672Y-78562D01*
X48615Y-78506D01*
X48503Y-78450D01*
X48278Y-78450D01*
X48165Y-78506D01*
X48109Y-78562D01*
X48053Y-78675D01*
X48053Y-78956D01*
X48109Y-79069D01*
X48165Y-79125D01*
X48278Y-79181D01*
X48503Y-79181D01*
X48615Y-79125D01*
X48672Y-79069D01*
X48728Y-78956D01*
X49178Y-78450D02*
X49178Y-78675D01*
X49628Y-78450D02*
X49628Y-78675D01*
X51371Y-80081D02*
X51315Y-80025D01*
X51203Y-79856D01*
X51146Y-79744D01*
X51090Y-79575D01*
X51034Y-79294D01*
X51034Y-79069D01*
X51090Y-78787D01*
X51146Y-78619D01*
X51203Y-78506D01*
X51315Y-78338D01*
X51371Y-78281D01*
X52327Y-78844D02*
X52327Y-79631D01*
X52046Y-78394D02*
X51765Y-79237D01*
X52496Y-79237D01*
X53846Y-79631D02*
X53846Y-78450D01*
X54352Y-79631D02*
X54352Y-79012D01*
X54296Y-78900D01*
X54183Y-78844D01*
X54015Y-78844D01*
X53902Y-78900D01*
X53846Y-78956D01*
X55083Y-79631D02*
X54971Y-79575D01*
X54915Y-79519D01*
X54858Y-79406D01*
X54858Y-79069D01*
X54915Y-78956D01*
X54971Y-78900D01*
X55083Y-78844D01*
X55252Y-78844D01*
X55365Y-78900D01*
X55421Y-78956D01*
X55477Y-79069D01*
X55477Y-79406D01*
X55421Y-79519D01*
X55365Y-79575D01*
X55252Y-79631D01*
X55083Y-79631D01*
X56152Y-79631D02*
X56039Y-79575D01*
X55983Y-79462D01*
X55983Y-78450D01*
X57052Y-79575D02*
X56939Y-79631D01*
X56714Y-79631D01*
X56602Y-79575D01*
X56546Y-79462D01*
X56546Y-79012D01*
X56602Y-78900D01*
X56714Y-78844D01*
X56939Y-78844D01*
X57052Y-78900D01*
X57108Y-79012D01*
X57108Y-79125D01*
X56546Y-79237D01*
X57558Y-79575D02*
X57670Y-79631D01*
X57895Y-79631D01*
X58008Y-79575D01*
X58064Y-79462D01*
X58064Y-79406D01*
X58008Y-79294D01*
X57895Y-79237D01*
X57727Y-79237D01*
X57614Y-79181D01*
X57558Y-79069D01*
X57558Y-79012D01*
X57614Y-78900D01*
X57727Y-78844D01*
X57895Y-78844D01*
X58008Y-78900D01*
X58458Y-80081D02*
X58514Y-80025D01*
X58627Y-79856D01*
X58683Y-79744D01*
X58739Y-79575D01*
X58795Y-79294D01*
X58795Y-79069D01*
X58739Y-78787D01*
X58683Y-78619D01*
X58627Y-78506D01*
X58514Y-78338D01*
X58458Y-78281D01*
X32380Y-80412D02*
X32980Y-81012D01*
X32980Y-80412D02*
X32380Y-81012D01*
G54D12*
X32892Y-80924D02*
X32892Y-80500D01*
X32468Y-80500D01*
X32468Y-80924D01*
X32892Y-80924D01*
G54D13*
X34667Y-81190D02*
X33992Y-81190D01*
X34330Y-81190D02*
X34330Y-80009D01*
X34217Y-80178D01*
X34105Y-80290D01*
X33992Y-80347D01*
X35173Y-81078D02*
X35230Y-81134D01*
X35173Y-81190D01*
X35117Y-81134D01*
X35173Y-81078D01*
X35173Y-81190D01*
X36298Y-80009D02*
X35736Y-80009D01*
X35679Y-80571D01*
X35736Y-80515D01*
X35848Y-80459D01*
X36129Y-80459D01*
X36242Y-80515D01*
X36298Y-80571D01*
X36354Y-80684D01*
X36354Y-80965D01*
X36298Y-81078D01*
X36242Y-81134D01*
X36129Y-81190D01*
X35848Y-81190D01*
X35736Y-81134D01*
X35679Y-81078D01*
X36804Y-80122D02*
X36861Y-80065D01*
X36973Y-80009D01*
X37254Y-80009D01*
X37367Y-80065D01*
X37423Y-80122D01*
X37479Y-80234D01*
X37479Y-80347D01*
X37423Y-80515D01*
X36748Y-81190D01*
X37479Y-81190D01*
X37985Y-81190D02*
X37985Y-80403D01*
X37985Y-80515D02*
X38042Y-80459D01*
X38154Y-80403D01*
X38323Y-80403D01*
X38435Y-80459D01*
X38492Y-80571D01*
X38492Y-81190D01*
X38492Y-80571D02*
X38548Y-80459D01*
X38660Y-80403D01*
X38829Y-80403D01*
X38942Y-80459D01*
X38998Y-80571D01*
X38998Y-81190D01*
X39560Y-81190D02*
X39560Y-80403D01*
X39560Y-80515D02*
X39616Y-80459D01*
X39729Y-80403D01*
X39898Y-80403D01*
X40010Y-80459D01*
X40066Y-80571D01*
X40066Y-81190D01*
X40066Y-80571D02*
X40123Y-80459D01*
X40235Y-80403D01*
X40404Y-80403D01*
X40516Y-80459D01*
X40573Y-80571D01*
X40573Y-81190D01*
X42879Y-79953D02*
X41866Y-81471D01*
X44397Y-80009D02*
X44510Y-80009D01*
X44622Y-80065D01*
X44678Y-80122D01*
X44735Y-80234D01*
X44791Y-80459D01*
X44791Y-80740D01*
X44735Y-80965D01*
X44678Y-81078D01*
X44622Y-81134D01*
X44510Y-81190D01*
X44397Y-81190D01*
X44285Y-81134D01*
X44228Y-81078D01*
X44172Y-80965D01*
X44116Y-80740D01*
X44116Y-80459D01*
X44172Y-80234D01*
X44228Y-80122D01*
X44285Y-80065D01*
X44397Y-80009D01*
X45297Y-81078D02*
X45353Y-81134D01*
X45297Y-81190D01*
X45241Y-81134D01*
X45297Y-81078D01*
X45297Y-81190D01*
X46084Y-80009D02*
X46197Y-80009D01*
X46309Y-80065D01*
X46366Y-80122D01*
X46422Y-80234D01*
X46478Y-80459D01*
X46478Y-80740D01*
X46422Y-80965D01*
X46366Y-81078D01*
X46309Y-81134D01*
X46197Y-81190D01*
X46084Y-81190D01*
X45972Y-81134D01*
X45916Y-81078D01*
X45859Y-80965D01*
X45803Y-80740D01*
X45803Y-80459D01*
X45859Y-80234D01*
X45916Y-80122D01*
X45972Y-80065D01*
X46084Y-80009D01*
X47491Y-80009D02*
X47266Y-80009D01*
X47153Y-80065D01*
X47097Y-80122D01*
X46984Y-80290D01*
X46928Y-80515D01*
X46928Y-80965D01*
X46984Y-81078D01*
X47041Y-81134D01*
X47153Y-81190D01*
X47378Y-81190D01*
X47491Y-81134D01*
X47547Y-81078D01*
X47603Y-80965D01*
X47603Y-80684D01*
X47547Y-80571D01*
X47491Y-80515D01*
X47378Y-80459D01*
X47153Y-80459D01*
X47041Y-80515D01*
X46984Y-80571D01*
X46928Y-80684D01*
X48334Y-80009D02*
X48447Y-80009D01*
X48559Y-80065D01*
X48615Y-80122D01*
X48672Y-80234D01*
X48728Y-80459D01*
X48728Y-80740D01*
X48672Y-80965D01*
X48615Y-81078D01*
X48559Y-81134D01*
X48447Y-81190D01*
X48334Y-81190D01*
X48222Y-81134D01*
X48165Y-81078D01*
X48109Y-80965D01*
X48053Y-80740D01*
X48053Y-80459D01*
X48109Y-80234D01*
X48165Y-80122D01*
X48222Y-80065D01*
X48334Y-80009D01*
X49178Y-80009D02*
X49178Y-80234D01*
X49628Y-80009D02*
X49628Y-80234D01*
X51371Y-81640D02*
X51315Y-81584D01*
X51203Y-81415D01*
X51146Y-81303D01*
X51090Y-81134D01*
X51034Y-80853D01*
X51034Y-80628D01*
X51090Y-80347D01*
X51146Y-80178D01*
X51203Y-80065D01*
X51315Y-79897D01*
X51371Y-79840D01*
X52327Y-80403D02*
X52327Y-81190D01*
X52046Y-79953D02*
X51765Y-80796D01*
X52496Y-80796D01*
X53846Y-81190D02*
X53846Y-80009D01*
X54352Y-81190D02*
X54352Y-80571D01*
X54296Y-80459D01*
X54183Y-80403D01*
X54015Y-80403D01*
X53902Y-80459D01*
X53846Y-80515D01*
X55083Y-81190D02*
X54971Y-81134D01*
X54915Y-81078D01*
X54858Y-80965D01*
X54858Y-80628D01*
X54915Y-80515D01*
X54971Y-80459D01*
X55083Y-80403D01*
X55252Y-80403D01*
X55365Y-80459D01*
X55421Y-80515D01*
X55477Y-80628D01*
X55477Y-80965D01*
X55421Y-81078D01*
X55365Y-81134D01*
X55252Y-81190D01*
X55083Y-81190D01*
X56152Y-81190D02*
X56039Y-81134D01*
X55983Y-81021D01*
X55983Y-80009D01*
X57052Y-81134D02*
X56939Y-81190D01*
X56714Y-81190D01*
X56602Y-81134D01*
X56546Y-81021D01*
X56546Y-80571D01*
X56602Y-80459D01*
X56714Y-80403D01*
X56939Y-80403D01*
X57052Y-80459D01*
X57108Y-80571D01*
X57108Y-80684D01*
X56546Y-80796D01*
X57558Y-81134D02*
X57670Y-81190D01*
X57895Y-81190D01*
X58008Y-81134D01*
X58064Y-81021D01*
X58064Y-80965D01*
X58008Y-80853D01*
X57895Y-80796D01*
X57727Y-80796D01*
X57614Y-80740D01*
X57558Y-80628D01*
X57558Y-80571D01*
X57614Y-80459D01*
X57727Y-80403D01*
X57895Y-80403D01*
X58008Y-80459D01*
X58458Y-81640D02*
X58514Y-81584D01*
X58627Y-81415D01*
X58683Y-81303D01*
X58739Y-81134D01*
X58795Y-80853D01*
X58795Y-80628D01*
X58739Y-80347D01*
X58683Y-80178D01*
X58627Y-80065D01*
X58514Y-79897D01*
X58458Y-79840D01*
X32220Y-81891D02*
X32980Y-82651D01*
X32980Y-81891D02*
X32220Y-82651D01*
G54D12*
X32600Y-82651D02*
X32980Y-82271D01*
X32600Y-81891D01*
X32220Y-82271D01*
X32600Y-82651D01*
G54D13*
X34667Y-82749D02*
X33992Y-82749D01*
X34330Y-82749D02*
X34330Y-81568D01*
X34217Y-81737D01*
X34105Y-81849D01*
X33992Y-81906D01*
X35173Y-82637D02*
X35230Y-82693D01*
X35173Y-82749D01*
X35117Y-82693D01*
X35173Y-82637D01*
X35173Y-82749D01*
X35792Y-82749D02*
X36017Y-82749D01*
X36129Y-82693D01*
X36186Y-82637D01*
X36298Y-82468D01*
X36354Y-82243D01*
X36354Y-81793D01*
X36298Y-81681D01*
X36242Y-81624D01*
X36129Y-81568D01*
X35904Y-81568D01*
X35792Y-81624D01*
X35736Y-81681D01*
X35679Y-81793D01*
X35679Y-82074D01*
X35736Y-82187D01*
X35792Y-82243D01*
X35904Y-82299D01*
X36129Y-82299D01*
X36242Y-82243D01*
X36298Y-82187D01*
X36354Y-82074D01*
X36748Y-81568D02*
X37479Y-81568D01*
X37086Y-82018D01*
X37254Y-82018D01*
X37367Y-82074D01*
X37423Y-82131D01*
X37479Y-82243D01*
X37479Y-82524D01*
X37423Y-82637D01*
X37367Y-82693D01*
X37254Y-82749D01*
X36917Y-82749D01*
X36804Y-82693D01*
X36748Y-82637D01*
X37985Y-82749D02*
X37985Y-81962D01*
X37985Y-82074D02*
X38042Y-82018D01*
X38154Y-81962D01*
X38323Y-81962D01*
X38435Y-82018D01*
X38492Y-82131D01*
X38492Y-82749D01*
X38492Y-82131D02*
X38548Y-82018D01*
X38660Y-81962D01*
X38829Y-81962D01*
X38942Y-82018D01*
X38998Y-82131D01*
X38998Y-82749D01*
X39560Y-82749D02*
X39560Y-81962D01*
X39560Y-82074D02*
X39616Y-82018D01*
X39729Y-81962D01*
X39898Y-81962D01*
X40010Y-82018D01*
X40066Y-82131D01*
X40066Y-82749D01*
X40066Y-82131D02*
X40123Y-82018D01*
X40235Y-81962D01*
X40404Y-81962D01*
X40516Y-82018D01*
X40573Y-82131D01*
X40573Y-82749D01*
X42879Y-81512D02*
X41866Y-83030D01*
X44397Y-81568D02*
X44510Y-81568D01*
X44622Y-81624D01*
X44678Y-81681D01*
X44735Y-81793D01*
X44791Y-82018D01*
X44791Y-82299D01*
X44735Y-82524D01*
X44678Y-82637D01*
X44622Y-82693D01*
X44510Y-82749D01*
X44397Y-82749D01*
X44285Y-82693D01*
X44228Y-82637D01*
X44172Y-82524D01*
X44116Y-82299D01*
X44116Y-82018D01*
X44172Y-81793D01*
X44228Y-81681D01*
X44285Y-81624D01*
X44397Y-81568D01*
X45297Y-82637D02*
X45353Y-82693D01*
X45297Y-82749D01*
X45241Y-82693D01*
X45297Y-82637D01*
X45297Y-82749D01*
X46084Y-81568D02*
X46197Y-81568D01*
X46309Y-81624D01*
X46366Y-81681D01*
X46422Y-81793D01*
X46478Y-82018D01*
X46478Y-82299D01*
X46422Y-82524D01*
X46366Y-82637D01*
X46309Y-82693D01*
X46197Y-82749D01*
X46084Y-82749D01*
X45972Y-82693D01*
X45916Y-82637D01*
X45859Y-82524D01*
X45803Y-82299D01*
X45803Y-82018D01*
X45859Y-81793D01*
X45916Y-81681D01*
X45972Y-81624D01*
X46084Y-81568D01*
X46872Y-81568D02*
X47659Y-81568D01*
X47153Y-82749D01*
X48615Y-81568D02*
X48390Y-81568D01*
X48278Y-81624D01*
X48222Y-81681D01*
X48109Y-81849D01*
X48053Y-82074D01*
X48053Y-82524D01*
X48109Y-82637D01*
X48165Y-82693D01*
X48278Y-82749D01*
X48503Y-82749D01*
X48615Y-82693D01*
X48672Y-82637D01*
X48728Y-82524D01*
X48728Y-82243D01*
X48672Y-82131D01*
X48615Y-82074D01*
X48503Y-82018D01*
X48278Y-82018D01*
X48165Y-82074D01*
X48109Y-82131D01*
X48053Y-82243D01*
X49178Y-81568D02*
X49178Y-81793D01*
X49628Y-81568D02*
X49628Y-81793D01*
X51371Y-83199D02*
X51315Y-83143D01*
X51203Y-82974D01*
X51146Y-82862D01*
X51090Y-82693D01*
X51034Y-82412D01*
X51034Y-82187D01*
X51090Y-81906D01*
X51146Y-81737D01*
X51203Y-81624D01*
X51315Y-81456D01*
X51371Y-81399D01*
X52327Y-81962D02*
X52327Y-82749D01*
X52046Y-81512D02*
X51765Y-82356D01*
X52496Y-82356D01*
X53846Y-82749D02*
X53846Y-81568D01*
X54352Y-82749D02*
X54352Y-82131D01*
X54296Y-82018D01*
X54183Y-81962D01*
X54015Y-81962D01*
X53902Y-82018D01*
X53846Y-82074D01*
X55083Y-82749D02*
X54971Y-82693D01*
X54915Y-82637D01*
X54858Y-82524D01*
X54858Y-82187D01*
X54915Y-82074D01*
X54971Y-82018D01*
X55083Y-81962D01*
X55252Y-81962D01*
X55365Y-82018D01*
X55421Y-82074D01*
X55477Y-82187D01*
X55477Y-82524D01*
X55421Y-82637D01*
X55365Y-82693D01*
X55252Y-82749D01*
X55083Y-82749D01*
X56152Y-82749D02*
X56039Y-82693D01*
X55983Y-82580D01*
X55983Y-81568D01*
X57052Y-82693D02*
X56939Y-82749D01*
X56714Y-82749D01*
X56602Y-82693D01*
X56546Y-82580D01*
X56546Y-82131D01*
X56602Y-82018D01*
X56714Y-81962D01*
X56939Y-81962D01*
X57052Y-82018D01*
X57108Y-82131D01*
X57108Y-82243D01*
X56546Y-82356D01*
X57558Y-82693D02*
X57670Y-82749D01*
X57895Y-82749D01*
X58008Y-82693D01*
X58064Y-82580D01*
X58064Y-82524D01*
X58008Y-82412D01*
X57895Y-82356D01*
X57727Y-82356D01*
X57614Y-82299D01*
X57558Y-82187D01*
X57558Y-82131D01*
X57614Y-82018D01*
X57727Y-81962D01*
X57895Y-81962D01*
X58008Y-82018D01*
X58458Y-83199D02*
X58514Y-83143D01*
X58627Y-82974D01*
X58683Y-82862D01*
X58739Y-82693D01*
X58795Y-82412D01*
X58795Y-82187D01*
X58739Y-81906D01*
X58683Y-81737D01*
X58627Y-81624D01*
X58514Y-81456D01*
X58458Y-81399D01*
X32488Y-83338D02*
X32488Y-84322D01*
X31996Y-83830D02*
X32980Y-83830D01*
G54D12*
X32980Y-83830D02*
G75*
G03X32980Y-83830I-492J0D01*
G74*
G01*
G54D13*
X33992Y-83240D02*
X34048Y-83183D01*
X34161Y-83127D01*
X34442Y-83127D01*
X34555Y-83183D01*
X34611Y-83240D01*
X34667Y-83352D01*
X34667Y-83465D01*
X34611Y-83633D01*
X33936Y-84308D01*
X34667Y-84308D01*
X35173Y-84196D02*
X35230Y-84252D01*
X35173Y-84308D01*
X35117Y-84252D01*
X35173Y-84196D01*
X35173Y-84308D01*
X36298Y-83127D02*
X35736Y-83127D01*
X35679Y-83690D01*
X35736Y-83633D01*
X35848Y-83577D01*
X36129Y-83577D01*
X36242Y-83633D01*
X36298Y-83690D01*
X36354Y-83802D01*
X36354Y-84083D01*
X36298Y-84196D01*
X36242Y-84252D01*
X36129Y-84308D01*
X35848Y-84308D01*
X35736Y-84252D01*
X35679Y-84196D01*
X37086Y-83127D02*
X37198Y-83127D01*
X37311Y-83183D01*
X37367Y-83240D01*
X37423Y-83352D01*
X37479Y-83577D01*
X37479Y-83858D01*
X37423Y-84083D01*
X37367Y-84196D01*
X37311Y-84252D01*
X37198Y-84308D01*
X37086Y-84308D01*
X36973Y-84252D01*
X36917Y-84196D01*
X36861Y-84083D01*
X36804Y-83858D01*
X36804Y-83577D01*
X36861Y-83352D01*
X36917Y-83240D01*
X36973Y-83183D01*
X37086Y-83127D01*
X37985Y-84308D02*
X37985Y-83521D01*
X37985Y-83633D02*
X38042Y-83577D01*
X38154Y-83521D01*
X38323Y-83521D01*
X38435Y-83577D01*
X38492Y-83690D01*
X38492Y-84308D01*
X38492Y-83690D02*
X38548Y-83577D01*
X38660Y-83521D01*
X38829Y-83521D01*
X38942Y-83577D01*
X38998Y-83690D01*
X38998Y-84308D01*
X39560Y-84308D02*
X39560Y-83521D01*
X39560Y-83633D02*
X39616Y-83577D01*
X39729Y-83521D01*
X39898Y-83521D01*
X40010Y-83577D01*
X40066Y-83690D01*
X40066Y-84308D01*
X40066Y-83690D02*
X40123Y-83577D01*
X40235Y-83521D01*
X40404Y-83521D01*
X40516Y-83577D01*
X40573Y-83690D01*
X40573Y-84308D01*
X42879Y-83071D02*
X41866Y-84589D01*
X44397Y-83127D02*
X44510Y-83127D01*
X44622Y-83183D01*
X44678Y-83240D01*
X44735Y-83352D01*
X44791Y-83577D01*
X44791Y-83858D01*
X44735Y-84083D01*
X44678Y-84196D01*
X44622Y-84252D01*
X44510Y-84308D01*
X44397Y-84308D01*
X44285Y-84252D01*
X44228Y-84196D01*
X44172Y-84083D01*
X44116Y-83858D01*
X44116Y-83577D01*
X44172Y-83352D01*
X44228Y-83240D01*
X44285Y-83183D01*
X44397Y-83127D01*
X45297Y-84196D02*
X45353Y-84252D01*
X45297Y-84308D01*
X45241Y-84252D01*
X45297Y-84196D01*
X45297Y-84308D01*
X46084Y-83127D02*
X46197Y-83127D01*
X46309Y-83183D01*
X46366Y-83240D01*
X46422Y-83352D01*
X46478Y-83577D01*
X46478Y-83858D01*
X46422Y-84083D01*
X46366Y-84196D01*
X46309Y-84252D01*
X46197Y-84308D01*
X46084Y-84308D01*
X45972Y-84252D01*
X45916Y-84196D01*
X45859Y-84083D01*
X45803Y-83858D01*
X45803Y-83577D01*
X45859Y-83352D01*
X45916Y-83240D01*
X45972Y-83183D01*
X46084Y-83127D01*
X47041Y-84308D02*
X47266Y-84308D01*
X47378Y-84252D01*
X47434Y-84196D01*
X47547Y-84027D01*
X47603Y-83802D01*
X47603Y-83352D01*
X47547Y-83240D01*
X47491Y-83183D01*
X47378Y-83127D01*
X47153Y-83127D01*
X47041Y-83183D01*
X46984Y-83240D01*
X46928Y-83352D01*
X46928Y-83633D01*
X46984Y-83746D01*
X47041Y-83802D01*
X47153Y-83858D01*
X47378Y-83858D01*
X47491Y-83802D01*
X47547Y-83746D01*
X47603Y-83633D01*
X48278Y-83633D02*
X48165Y-83577D01*
X48109Y-83521D01*
X48053Y-83408D01*
X48053Y-83352D01*
X48109Y-83240D01*
X48165Y-83183D01*
X48278Y-83127D01*
X48503Y-83127D01*
X48615Y-83183D01*
X48672Y-83240D01*
X48728Y-83352D01*
X48728Y-83408D01*
X48672Y-83521D01*
X48615Y-83577D01*
X48503Y-83633D01*
X48278Y-83633D01*
X48165Y-83690D01*
X48109Y-83746D01*
X48053Y-83858D01*
X48053Y-84083D01*
X48109Y-84196D01*
X48165Y-84252D01*
X48278Y-84308D01*
X48503Y-84308D01*
X48615Y-84252D01*
X48672Y-84196D01*
X48728Y-84083D01*
X48728Y-83858D01*
X48672Y-83746D01*
X48615Y-83690D01*
X48503Y-83633D01*
X49178Y-83127D02*
X49178Y-83352D01*
X49628Y-83127D02*
X49628Y-83352D01*
X51371Y-84758D02*
X51315Y-84702D01*
X51203Y-84533D01*
X51146Y-84421D01*
X51090Y-84252D01*
X51034Y-83971D01*
X51034Y-83746D01*
X51090Y-83465D01*
X51146Y-83296D01*
X51203Y-83183D01*
X51315Y-83015D01*
X51371Y-82958D01*
X52327Y-83521D02*
X52327Y-84308D01*
X52046Y-83071D02*
X51765Y-83915D01*
X52496Y-83915D01*
X53846Y-84308D02*
X53846Y-83127D01*
X54352Y-84308D02*
X54352Y-83690D01*
X54296Y-83577D01*
X54183Y-83521D01*
X54015Y-83521D01*
X53902Y-83577D01*
X53846Y-83633D01*
X55083Y-84308D02*
X54971Y-84252D01*
X54915Y-84196D01*
X54858Y-84083D01*
X54858Y-83746D01*
X54915Y-83633D01*
X54971Y-83577D01*
X55083Y-83521D01*
X55252Y-83521D01*
X55365Y-83577D01*
X55421Y-83633D01*
X55477Y-83746D01*
X55477Y-84083D01*
X55421Y-84196D01*
X55365Y-84252D01*
X55252Y-84308D01*
X55083Y-84308D01*
X56152Y-84308D02*
X56039Y-84252D01*
X55983Y-84140D01*
X55983Y-83127D01*
X57052Y-84252D02*
X56939Y-84308D01*
X56714Y-84308D01*
X56602Y-84252D01*
X56546Y-84140D01*
X56546Y-83690D01*
X56602Y-83577D01*
X56714Y-83521D01*
X56939Y-83521D01*
X57052Y-83577D01*
X57108Y-83690D01*
X57108Y-83802D01*
X56546Y-83915D01*
X57558Y-84252D02*
X57670Y-84308D01*
X57895Y-84308D01*
X58008Y-84252D01*
X58064Y-84140D01*
X58064Y-84083D01*
X58008Y-83971D01*
X57895Y-83915D01*
X57727Y-83915D01*
X57614Y-83858D01*
X57558Y-83746D01*
X57558Y-83690D01*
X57614Y-83577D01*
X57727Y-83521D01*
X57895Y-83521D01*
X58008Y-83577D01*
X58458Y-84758D02*
X58514Y-84702D01*
X58627Y-84533D01*
X58683Y-84421D01*
X58739Y-84252D01*
X58795Y-83971D01*
X58795Y-83746D01*
X58739Y-83465D01*
X58683Y-83296D01*
X58627Y-83183D01*
X58514Y-83015D01*
X58458Y-82958D01*
M02*
