G04 (created by PCBNEW (2013-june-11)-stable) date Thu 24 May 2018 08:46:14 EDT*
%MOIN*%
G04 Gerber Fmt 3.4, Leading zero omitted, Abs format*
%FSLAX34Y34*%
G01*
G70*
G90*
G04 APERTURE LIST*
%ADD10C,0.00590551*%
%ADD11C,0.011811*%
%ADD12C,0.015*%
G04 APERTURE END LIST*
G54D10*
G54D11*
X29116Y-55415D02*
X29116Y-55527D01*
X29145Y-55584D01*
X29173Y-55612D01*
X29257Y-55668D01*
X29370Y-55696D01*
X29595Y-55696D01*
X29651Y-55668D01*
X29679Y-55640D01*
X29707Y-55584D01*
X29707Y-55471D01*
X29679Y-55415D01*
X29651Y-55387D01*
X29595Y-55359D01*
X29454Y-55359D01*
X29398Y-55387D01*
X29370Y-55415D01*
X29341Y-55471D01*
X29341Y-55584D01*
X29370Y-55640D01*
X29398Y-55668D01*
X29454Y-55696D01*
X29313Y-54852D02*
X29707Y-54852D01*
X29088Y-54993D02*
X29510Y-55134D01*
X29510Y-54768D01*
X29651Y-54543D02*
X29679Y-54515D01*
X29707Y-54543D01*
X29679Y-54571D01*
X29651Y-54543D01*
X29707Y-54543D01*
X29116Y-54318D02*
X29116Y-53924D01*
X29707Y-54178D01*
X29116Y-53756D02*
X29116Y-53362D01*
X29707Y-53615D01*
X29116Y-53025D02*
X29116Y-52968D01*
X29145Y-52912D01*
X29173Y-52884D01*
X29229Y-52856D01*
X29341Y-52828D01*
X29482Y-52828D01*
X29595Y-52856D01*
X29651Y-52884D01*
X29679Y-52912D01*
X29707Y-52968D01*
X29707Y-53025D01*
X29679Y-53081D01*
X29651Y-53109D01*
X29595Y-53137D01*
X29482Y-53165D01*
X29341Y-53165D01*
X29229Y-53137D01*
X29173Y-53109D01*
X29145Y-53081D01*
X29116Y-53025D01*
X29707Y-52125D02*
X29313Y-52125D01*
X29370Y-52125D02*
X29341Y-52097D01*
X29313Y-52040D01*
X29313Y-51956D01*
X29341Y-51900D01*
X29398Y-51872D01*
X29707Y-51872D01*
X29398Y-51872D02*
X29341Y-51843D01*
X29313Y-51787D01*
X29313Y-51703D01*
X29341Y-51647D01*
X29398Y-51618D01*
X29707Y-51618D01*
X29707Y-51337D02*
X29313Y-51337D01*
X29370Y-51337D02*
X29341Y-51309D01*
X29313Y-51253D01*
X29313Y-51169D01*
X29341Y-51112D01*
X29398Y-51084D01*
X29707Y-51084D01*
X29398Y-51084D02*
X29341Y-51056D01*
X29313Y-51000D01*
X29313Y-50915D01*
X29341Y-50859D01*
X29398Y-50831D01*
X29707Y-50831D01*
X30000Y-66000D02*
X30000Y-40500D01*
X34500Y-66000D02*
X28937Y-66000D01*
X34500Y-40500D02*
X28937Y-40500D01*
X30000Y-40500D02*
X30230Y-40943D01*
X30000Y-40500D02*
X29769Y-40943D01*
X30000Y-66000D02*
X30230Y-65556D01*
X30000Y-66000D02*
X29769Y-65556D01*
X31820Y-51112D02*
X31820Y-50831D01*
X31538Y-50803D01*
X31566Y-50831D01*
X31595Y-50887D01*
X31595Y-51028D01*
X31566Y-51084D01*
X31538Y-51112D01*
X31482Y-51140D01*
X31341Y-51140D01*
X31285Y-51112D01*
X31257Y-51084D01*
X31229Y-51028D01*
X31229Y-50887D01*
X31257Y-50831D01*
X31285Y-50803D01*
X31820Y-51337D02*
X31820Y-51731D01*
X31229Y-51478D01*
X31285Y-51956D02*
X31257Y-51984D01*
X31229Y-51956D01*
X31257Y-51928D01*
X31285Y-51956D01*
X31229Y-51956D01*
X31229Y-52546D02*
X31229Y-52209D01*
X31229Y-52378D02*
X31820Y-52378D01*
X31735Y-52321D01*
X31679Y-52265D01*
X31651Y-52209D01*
X31820Y-53081D02*
X31820Y-52800D01*
X31538Y-52771D01*
X31566Y-52800D01*
X31595Y-52856D01*
X31595Y-52996D01*
X31566Y-53053D01*
X31538Y-53081D01*
X31482Y-53109D01*
X31341Y-53109D01*
X31285Y-53081D01*
X31257Y-53053D01*
X31229Y-52996D01*
X31229Y-52856D01*
X31257Y-52800D01*
X31285Y-52771D01*
X31820Y-53474D02*
X31820Y-53531D01*
X31791Y-53587D01*
X31763Y-53615D01*
X31707Y-53643D01*
X31595Y-53671D01*
X31454Y-53671D01*
X31341Y-53643D01*
X31285Y-53615D01*
X31257Y-53587D01*
X31229Y-53531D01*
X31229Y-53474D01*
X31257Y-53418D01*
X31285Y-53390D01*
X31341Y-53362D01*
X31454Y-53334D01*
X31595Y-53334D01*
X31707Y-53362D01*
X31763Y-53390D01*
X31791Y-53418D01*
X31820Y-53474D01*
X31229Y-54374D02*
X31623Y-54374D01*
X31566Y-54374D02*
X31595Y-54402D01*
X31623Y-54459D01*
X31623Y-54543D01*
X31595Y-54599D01*
X31538Y-54627D01*
X31229Y-54627D01*
X31538Y-54627D02*
X31595Y-54656D01*
X31623Y-54712D01*
X31623Y-54796D01*
X31595Y-54852D01*
X31538Y-54881D01*
X31229Y-54881D01*
X31229Y-55162D02*
X31623Y-55162D01*
X31566Y-55162D02*
X31595Y-55190D01*
X31623Y-55246D01*
X31623Y-55330D01*
X31595Y-55387D01*
X31538Y-55415D01*
X31229Y-55415D01*
X31538Y-55415D02*
X31595Y-55443D01*
X31623Y-55499D01*
X31623Y-55584D01*
X31595Y-55640D01*
X31538Y-55668D01*
X31229Y-55668D01*
X32000Y-42000D02*
X32000Y-64500D01*
X34500Y-42000D02*
X30937Y-42000D01*
X34500Y-64500D02*
X30937Y-64500D01*
X32000Y-64500D02*
X31769Y-64056D01*
X32000Y-64500D02*
X32230Y-64056D01*
X32000Y-42000D02*
X31769Y-42443D01*
X32000Y-42000D02*
X32230Y-42443D01*
X46415Y-36870D02*
X46359Y-36841D01*
X46331Y-36813D01*
X46303Y-36757D01*
X46303Y-36729D01*
X46331Y-36673D01*
X46359Y-36645D01*
X46415Y-36616D01*
X46528Y-36616D01*
X46584Y-36645D01*
X46612Y-36673D01*
X46640Y-36729D01*
X46640Y-36757D01*
X46612Y-36813D01*
X46584Y-36841D01*
X46528Y-36870D01*
X46415Y-36870D01*
X46359Y-36898D01*
X46331Y-36926D01*
X46303Y-36982D01*
X46303Y-37095D01*
X46331Y-37151D01*
X46359Y-37179D01*
X46415Y-37207D01*
X46528Y-37207D01*
X46584Y-37179D01*
X46612Y-37151D01*
X46640Y-37095D01*
X46640Y-36982D01*
X46612Y-36926D01*
X46584Y-36898D01*
X46528Y-36870D01*
X47006Y-36616D02*
X47062Y-36616D01*
X47118Y-36645D01*
X47147Y-36673D01*
X47175Y-36729D01*
X47203Y-36841D01*
X47203Y-36982D01*
X47175Y-37095D01*
X47147Y-37151D01*
X47118Y-37179D01*
X47062Y-37207D01*
X47006Y-37207D01*
X46950Y-37179D01*
X46922Y-37151D01*
X46893Y-37095D01*
X46865Y-36982D01*
X46865Y-36841D01*
X46893Y-36729D01*
X46922Y-36673D01*
X46950Y-36645D01*
X47006Y-36616D01*
X47456Y-37151D02*
X47484Y-37179D01*
X47456Y-37207D01*
X47428Y-37179D01*
X47456Y-37151D01*
X47456Y-37207D01*
X47850Y-36616D02*
X47906Y-36616D01*
X47962Y-36645D01*
X47990Y-36673D01*
X48018Y-36729D01*
X48046Y-36841D01*
X48046Y-36982D01*
X48018Y-37095D01*
X47990Y-37151D01*
X47962Y-37179D01*
X47906Y-37207D01*
X47850Y-37207D01*
X47793Y-37179D01*
X47765Y-37151D01*
X47737Y-37095D01*
X47709Y-36982D01*
X47709Y-36841D01*
X47737Y-36729D01*
X47765Y-36673D01*
X47793Y-36645D01*
X47850Y-36616D01*
X48609Y-37207D02*
X48271Y-37207D01*
X48440Y-37207D02*
X48440Y-36616D01*
X48384Y-36701D01*
X48328Y-36757D01*
X48271Y-36785D01*
X48974Y-36616D02*
X49031Y-36616D01*
X49087Y-36645D01*
X49115Y-36673D01*
X49143Y-36729D01*
X49171Y-36841D01*
X49171Y-36982D01*
X49143Y-37095D01*
X49115Y-37151D01*
X49087Y-37179D01*
X49031Y-37207D01*
X48974Y-37207D01*
X48918Y-37179D01*
X48890Y-37151D01*
X48862Y-37095D01*
X48834Y-36982D01*
X48834Y-36841D01*
X48862Y-36729D01*
X48890Y-36673D01*
X48918Y-36645D01*
X48974Y-36616D01*
X49874Y-37207D02*
X49874Y-36813D01*
X49874Y-36870D02*
X49902Y-36841D01*
X49959Y-36813D01*
X50043Y-36813D01*
X50099Y-36841D01*
X50127Y-36898D01*
X50127Y-37207D01*
X50127Y-36898D02*
X50156Y-36841D01*
X50212Y-36813D01*
X50296Y-36813D01*
X50352Y-36841D01*
X50381Y-36898D01*
X50381Y-37207D01*
X50662Y-37207D02*
X50662Y-36813D01*
X50662Y-36870D02*
X50690Y-36841D01*
X50746Y-36813D01*
X50830Y-36813D01*
X50887Y-36841D01*
X50915Y-36898D01*
X50915Y-37207D01*
X50915Y-36898D02*
X50943Y-36841D01*
X50999Y-36813D01*
X51084Y-36813D01*
X51140Y-36841D01*
X51168Y-36898D01*
X51168Y-37207D01*
X64500Y-37500D02*
X33000Y-37500D01*
X64500Y-42000D02*
X64500Y-36437D01*
X33000Y-42000D02*
X33000Y-36437D01*
X33000Y-37500D02*
X33443Y-37269D01*
X33000Y-37500D02*
X33443Y-37730D01*
X64500Y-37500D02*
X64056Y-37269D01*
X64500Y-37500D02*
X64056Y-37730D01*
X46275Y-38616D02*
X46669Y-38616D01*
X46415Y-39207D01*
X46865Y-38673D02*
X46893Y-38645D01*
X46950Y-38616D01*
X47090Y-38616D01*
X47147Y-38645D01*
X47175Y-38673D01*
X47203Y-38729D01*
X47203Y-38785D01*
X47175Y-38870D01*
X46837Y-39207D01*
X47203Y-39207D01*
X47456Y-39151D02*
X47484Y-39179D01*
X47456Y-39207D01*
X47428Y-39179D01*
X47456Y-39151D01*
X47456Y-39207D01*
X47681Y-38616D02*
X48046Y-38616D01*
X47850Y-38841D01*
X47934Y-38841D01*
X47990Y-38870D01*
X48018Y-38898D01*
X48046Y-38954D01*
X48046Y-39095D01*
X48018Y-39151D01*
X47990Y-39179D01*
X47934Y-39207D01*
X47765Y-39207D01*
X47709Y-39179D01*
X47681Y-39151D01*
X48328Y-39207D02*
X48440Y-39207D01*
X48496Y-39179D01*
X48525Y-39151D01*
X48581Y-39066D01*
X48609Y-38954D01*
X48609Y-38729D01*
X48581Y-38673D01*
X48553Y-38645D01*
X48496Y-38616D01*
X48384Y-38616D01*
X48328Y-38645D01*
X48300Y-38673D01*
X48271Y-38729D01*
X48271Y-38870D01*
X48300Y-38926D01*
X48328Y-38954D01*
X48384Y-38982D01*
X48496Y-38982D01*
X48553Y-38954D01*
X48581Y-38926D01*
X48609Y-38870D01*
X48974Y-38616D02*
X49031Y-38616D01*
X49087Y-38645D01*
X49115Y-38673D01*
X49143Y-38729D01*
X49171Y-38841D01*
X49171Y-38982D01*
X49143Y-39095D01*
X49115Y-39151D01*
X49087Y-39179D01*
X49031Y-39207D01*
X48974Y-39207D01*
X48918Y-39179D01*
X48890Y-39151D01*
X48862Y-39095D01*
X48834Y-38982D01*
X48834Y-38841D01*
X48862Y-38729D01*
X48890Y-38673D01*
X48918Y-38645D01*
X48974Y-38616D01*
X49874Y-39207D02*
X49874Y-38813D01*
X49874Y-38870D02*
X49902Y-38841D01*
X49959Y-38813D01*
X50043Y-38813D01*
X50099Y-38841D01*
X50127Y-38898D01*
X50127Y-39207D01*
X50127Y-38898D02*
X50156Y-38841D01*
X50212Y-38813D01*
X50296Y-38813D01*
X50352Y-38841D01*
X50381Y-38898D01*
X50381Y-39207D01*
X50662Y-39207D02*
X50662Y-38813D01*
X50662Y-38870D02*
X50690Y-38841D01*
X50746Y-38813D01*
X50830Y-38813D01*
X50887Y-38841D01*
X50915Y-38898D01*
X50915Y-39207D01*
X50915Y-38898D02*
X50943Y-38841D01*
X50999Y-38813D01*
X51084Y-38813D01*
X51140Y-38841D01*
X51168Y-38898D01*
X51168Y-39207D01*
X34500Y-39500D02*
X63000Y-39500D01*
X34500Y-42000D02*
X34500Y-38437D01*
X63000Y-42000D02*
X63000Y-38437D01*
X63000Y-39500D02*
X62556Y-39730D01*
X63000Y-39500D02*
X62556Y-39269D01*
X34500Y-39500D02*
X34943Y-39730D01*
X34500Y-39500D02*
X34943Y-39269D01*
G54D12*
X63984Y-42000D02*
G75*
G03X63984Y-42000I-984J0D01*
G74*
G01*
X63984Y-64500D02*
G75*
G03X63984Y-64500I-984J0D01*
G74*
G01*
X35484Y-64500D02*
G75*
G03X35484Y-64500I-984J0D01*
G74*
G01*
X35484Y-42000D02*
G75*
G03X35484Y-42000I-984J0D01*
G74*
G01*
M02*
