G04 (created by PCBNEW (2013-june-11)-stable) date Fri 22 Jun 2018 15:48:43 EDT*
%MOIN*%
G04 Gerber Fmt 3.4, Leading zero omitted, Abs format*
%FSLAX34Y34*%
G01*
G70*
G90*
G04 APERTURE LIST*
%ADD10C,0.005*%
%ADD11C,0.00590551*%
%ADD12C,0.00787402*%
%ADD13C,0.011811*%
G04 APERTURE END LIST*
G54D10*
G54D11*
X69700Y-29350D02*
X69100Y-28750D01*
X69700Y-33850D02*
X69700Y-29350D01*
X70700Y-34850D02*
X69700Y-33850D01*
X70700Y-47750D02*
X70700Y-34850D01*
X69700Y-48750D02*
X70700Y-47750D01*
X69700Y-49750D02*
X69700Y-48750D01*
X43700Y-49750D02*
X69700Y-49750D01*
X43700Y-28750D02*
X43700Y-49750D01*
X69100Y-28750D02*
X43700Y-28750D01*
G54D12*
X44171Y-30921D02*
X44328Y-31078D01*
X44328Y-30921D02*
X44171Y-31078D01*
X44171Y-46171D02*
X44328Y-46328D01*
X44328Y-46171D02*
X44171Y-46328D01*
X50171Y-41121D02*
X50328Y-41278D01*
X50328Y-41121D02*
X50171Y-41278D01*
X50421Y-32671D02*
X50578Y-32828D01*
X50578Y-32671D02*
X50421Y-32828D01*
X50421Y-36421D02*
X50578Y-36578D01*
X50578Y-36421D02*
X50421Y-36578D01*
X51421Y-32921D02*
X51578Y-33078D01*
X51578Y-32921D02*
X51421Y-33078D01*
X53421Y-38871D02*
X53578Y-39028D01*
X53578Y-38871D02*
X53421Y-39028D01*
X53921Y-40421D02*
X54078Y-40578D01*
X54078Y-40421D02*
X53921Y-40578D01*
X54571Y-37471D02*
X54728Y-37628D01*
X54728Y-37471D02*
X54571Y-37628D01*
X56921Y-34921D02*
X57078Y-35078D01*
X57078Y-34921D02*
X56921Y-35078D01*
X56921Y-41171D02*
X57078Y-41328D01*
X57078Y-41171D02*
X56921Y-41328D01*
X57421Y-40421D02*
X57578Y-40578D01*
X57578Y-40421D02*
X57421Y-40578D01*
X59921Y-33921D02*
X60078Y-34078D01*
X60078Y-33921D02*
X59921Y-34078D01*
X60021Y-41421D02*
X60178Y-41578D01*
X60178Y-41421D02*
X60021Y-41578D01*
X60571Y-35371D02*
X60728Y-35528D01*
X60728Y-35371D02*
X60571Y-35528D01*
X60571Y-40921D02*
X60728Y-41078D01*
X60728Y-40921D02*
X60571Y-41078D01*
X60621Y-34371D02*
X60778Y-34528D01*
X60778Y-34371D02*
X60621Y-34528D01*
X60671Y-32621D02*
X60828Y-32778D01*
X60828Y-32621D02*
X60671Y-32778D01*
X61421Y-45921D02*
X61578Y-46078D01*
X61578Y-45921D02*
X61421Y-46078D01*
X61471Y-38421D02*
X61628Y-38578D01*
X61628Y-38421D02*
X61471Y-38578D01*
X63371Y-47721D02*
X63528Y-47878D01*
X63528Y-47721D02*
X63371Y-47878D01*
X64921Y-38471D02*
X65078Y-38628D01*
X65078Y-38471D02*
X64921Y-38628D01*
X66921Y-47421D02*
X67078Y-47578D01*
X67078Y-47421D02*
X66921Y-47578D01*
X46660Y-39500D02*
G75*
G03X46660Y-39500I-160J0D01*
G74*
G01*
X46660Y-40500D02*
G75*
G03X46660Y-40500I-160J0D01*
G74*
G01*
X46660Y-42000D02*
G75*
G03X46660Y-42000I-160J0D01*
G74*
G01*
X46660Y-43000D02*
G75*
G03X46660Y-43000I-160J0D01*
G74*
G01*
X47160Y-36000D02*
G75*
G03X47160Y-36000I-160J0D01*
G74*
G01*
X47160Y-37000D02*
G75*
G03X47160Y-37000I-160J0D01*
G74*
G01*
X48660Y-33500D02*
G75*
G03X48660Y-33500I-160J0D01*
G74*
G01*
X48660Y-34500D02*
G75*
G03X48660Y-34500I-160J0D01*
G74*
G01*
X48660Y-36000D02*
G75*
G03X48660Y-36000I-160J0D01*
G74*
G01*
X48660Y-37000D02*
G75*
G03X48660Y-37000I-160J0D01*
G74*
G01*
X48660Y-38500D02*
G75*
G03X48660Y-38500I-160J0D01*
G74*
G01*
X48660Y-39500D02*
G75*
G03X48660Y-39500I-160J0D01*
G74*
G01*
X49660Y-33500D02*
G75*
G03X49660Y-33500I-160J0D01*
G74*
G01*
X49660Y-34500D02*
G75*
G03X49660Y-34500I-160J0D01*
G74*
G01*
X49660Y-35500D02*
G75*
G03X49660Y-35500I-160J0D01*
G74*
G01*
X49660Y-36500D02*
G75*
G03X49660Y-36500I-160J0D01*
G74*
G01*
X49660Y-37500D02*
G75*
G03X49660Y-37500I-160J0D01*
G74*
G01*
X49660Y-38500D02*
G75*
G03X49660Y-38500I-160J0D01*
G74*
G01*
X49660Y-39500D02*
G75*
G03X49660Y-39500I-160J0D01*
G74*
G01*
X49660Y-40500D02*
G75*
G03X49660Y-40500I-160J0D01*
G74*
G01*
X50660Y-31500D02*
G75*
G03X50660Y-31500I-160J0D01*
G74*
G01*
X50660Y-44000D02*
G75*
G03X50660Y-44000I-160J0D01*
G74*
G01*
X50660Y-47000D02*
G75*
G03X50660Y-47000I-160J0D01*
G74*
G01*
X51660Y-31500D02*
G75*
G03X51660Y-31500I-160J0D01*
G74*
G01*
X51660Y-44000D02*
G75*
G03X51660Y-44000I-160J0D01*
G74*
G01*
X51660Y-47000D02*
G75*
G03X51660Y-47000I-160J0D01*
G74*
G01*
X52660Y-33500D02*
G75*
G03X52660Y-33500I-160J0D01*
G74*
G01*
X52660Y-34500D02*
G75*
G03X52660Y-34500I-160J0D01*
G74*
G01*
X52660Y-35500D02*
G75*
G03X52660Y-35500I-160J0D01*
G74*
G01*
X52660Y-36500D02*
G75*
G03X52660Y-36500I-160J0D01*
G74*
G01*
X52660Y-37500D02*
G75*
G03X52660Y-37500I-160J0D01*
G74*
G01*
X52660Y-38500D02*
G75*
G03X52660Y-38500I-160J0D01*
G74*
G01*
X52660Y-39500D02*
G75*
G03X52660Y-39500I-160J0D01*
G74*
G01*
X52660Y-40500D02*
G75*
G03X52660Y-40500I-160J0D01*
G74*
G01*
X52660Y-44000D02*
G75*
G03X52660Y-44000I-160J0D01*
G74*
G01*
X52660Y-47000D02*
G75*
G03X52660Y-47000I-160J0D01*
G74*
G01*
X53660Y-44000D02*
G75*
G03X53660Y-44000I-160J0D01*
G74*
G01*
X53660Y-47000D02*
G75*
G03X53660Y-47000I-160J0D01*
G74*
G01*
X54160Y-36000D02*
G75*
G03X54160Y-36000I-160J0D01*
G74*
G01*
X54160Y-37000D02*
G75*
G03X54160Y-37000I-160J0D01*
G74*
G01*
X55660Y-33500D02*
G75*
G03X55660Y-33500I-160J0D01*
G74*
G01*
X55660Y-34500D02*
G75*
G03X55660Y-34500I-160J0D01*
G74*
G01*
X55660Y-36000D02*
G75*
G03X55660Y-36000I-160J0D01*
G74*
G01*
X55660Y-37000D02*
G75*
G03X55660Y-37000I-160J0D01*
G74*
G01*
X55660Y-38500D02*
G75*
G03X55660Y-38500I-160J0D01*
G74*
G01*
X55660Y-39500D02*
G75*
G03X55660Y-39500I-160J0D01*
G74*
G01*
X56660Y-33500D02*
G75*
G03X56660Y-33500I-160J0D01*
G74*
G01*
X56660Y-34500D02*
G75*
G03X56660Y-34500I-160J0D01*
G74*
G01*
X56660Y-35500D02*
G75*
G03X56660Y-35500I-160J0D01*
G74*
G01*
X56660Y-36500D02*
G75*
G03X56660Y-36500I-160J0D01*
G74*
G01*
X56660Y-37500D02*
G75*
G03X56660Y-37500I-160J0D01*
G74*
G01*
X56660Y-38500D02*
G75*
G03X56660Y-38500I-160J0D01*
G74*
G01*
X56660Y-39500D02*
G75*
G03X56660Y-39500I-160J0D01*
G74*
G01*
X56660Y-40500D02*
G75*
G03X56660Y-40500I-160J0D01*
G74*
G01*
X57160Y-42500D02*
G75*
G03X57160Y-42500I-160J0D01*
G74*
G01*
X57660Y-31500D02*
G75*
G03X57660Y-31500I-160J0D01*
G74*
G01*
X58160Y-42500D02*
G75*
G03X58160Y-42500I-160J0D01*
G74*
G01*
X58660Y-31500D02*
G75*
G03X58660Y-31500I-160J0D01*
G74*
G01*
X59160Y-42500D02*
G75*
G03X59160Y-42500I-160J0D01*
G74*
G01*
X59160Y-43500D02*
G75*
G03X59160Y-43500I-160J0D01*
G74*
G01*
X59160Y-44500D02*
G75*
G03X59160Y-44500I-160J0D01*
G74*
G01*
X59160Y-45500D02*
G75*
G03X59160Y-45500I-160J0D01*
G74*
G01*
X59660Y-33500D02*
G75*
G03X59660Y-33500I-160J0D01*
G74*
G01*
X59660Y-34500D02*
G75*
G03X59660Y-34500I-160J0D01*
G74*
G01*
X59660Y-35500D02*
G75*
G03X59660Y-35500I-160J0D01*
G74*
G01*
X59660Y-36500D02*
G75*
G03X59660Y-36500I-160J0D01*
G74*
G01*
X59660Y-37500D02*
G75*
G03X59660Y-37500I-160J0D01*
G74*
G01*
X59660Y-38500D02*
G75*
G03X59660Y-38500I-160J0D01*
G74*
G01*
X59660Y-39500D02*
G75*
G03X59660Y-39500I-160J0D01*
G74*
G01*
X59660Y-40500D02*
G75*
G03X59660Y-40500I-160J0D01*
G74*
G01*
X62160Y-40500D02*
G75*
G03X62160Y-40500I-160J0D01*
G74*
G01*
X62160Y-41500D02*
G75*
G03X62160Y-41500I-160J0D01*
G74*
G01*
X62160Y-42500D02*
G75*
G03X62160Y-42500I-160J0D01*
G74*
G01*
X62160Y-43500D02*
G75*
G03X62160Y-43500I-160J0D01*
G74*
G01*
X62160Y-44500D02*
G75*
G03X62160Y-44500I-160J0D01*
G74*
G01*
X62160Y-45500D02*
G75*
G03X62160Y-45500I-160J0D01*
G74*
G01*
X67160Y-31000D02*
G75*
G03X67160Y-31000I-160J0D01*
G74*
G01*
X67160Y-32000D02*
G75*
G03X67160Y-32000I-160J0D01*
G74*
G01*
X68160Y-31000D02*
G75*
G03X68160Y-31000I-160J0D01*
G74*
G01*
X68160Y-32000D02*
G75*
G03X68160Y-32000I-160J0D01*
G74*
G01*
X45000Y-39800D02*
X45000Y-40200D01*
X44800Y-40000D02*
X45200Y-40000D01*
X45000Y-40800D02*
X45000Y-41200D01*
X44800Y-41000D02*
X45200Y-41000D01*
X45000Y-41800D02*
X45000Y-42200D01*
X44800Y-42000D02*
X45200Y-42000D01*
X45000Y-42800D02*
X45000Y-43200D01*
X44800Y-43000D02*
X45200Y-43000D01*
X45000Y-43800D02*
X45000Y-44200D01*
X44800Y-44000D02*
X45200Y-44000D01*
X51100Y-29550D02*
X51100Y-29950D01*
X50900Y-29750D02*
X51300Y-29750D01*
X52100Y-29550D02*
X52100Y-29950D01*
X51900Y-29750D02*
X52300Y-29750D01*
X53100Y-29550D02*
X53100Y-29950D01*
X52900Y-29750D02*
X53300Y-29750D01*
X54100Y-29550D02*
X54100Y-29950D01*
X53900Y-29750D02*
X54300Y-29750D01*
X54700Y-48550D02*
X54700Y-48950D01*
X54500Y-48750D02*
X54900Y-48750D01*
X55000Y-46300D02*
X55000Y-46700D01*
X54800Y-46500D02*
X55200Y-46500D01*
X55100Y-29550D02*
X55100Y-29950D01*
X54900Y-29750D02*
X55300Y-29750D01*
X55700Y-48550D02*
X55700Y-48950D01*
X55500Y-48750D02*
X55900Y-48750D01*
X56000Y-46300D02*
X56000Y-46700D01*
X55800Y-46500D02*
X56200Y-46500D01*
X56100Y-29550D02*
X56100Y-29950D01*
X55900Y-29750D02*
X56300Y-29750D01*
X56700Y-48550D02*
X56700Y-48950D01*
X56500Y-48750D02*
X56900Y-48750D01*
X57000Y-46300D02*
X57000Y-46700D01*
X56800Y-46500D02*
X57200Y-46500D01*
X57100Y-29550D02*
X57100Y-29950D01*
X56900Y-29750D02*
X57300Y-29750D01*
X57700Y-48550D02*
X57700Y-48950D01*
X57500Y-48750D02*
X57900Y-48750D01*
X58000Y-46300D02*
X58000Y-46700D01*
X57800Y-46500D02*
X58200Y-46500D01*
X58100Y-29550D02*
X58100Y-29950D01*
X57900Y-29750D02*
X58300Y-29750D01*
X58700Y-48550D02*
X58700Y-48950D01*
X58500Y-48750D02*
X58900Y-48750D01*
X59100Y-29550D02*
X59100Y-29950D01*
X58900Y-29750D02*
X59300Y-29750D01*
X59700Y-48550D02*
X59700Y-48950D01*
X59500Y-48750D02*
X59900Y-48750D01*
X60100Y-29550D02*
X60100Y-29950D01*
X59900Y-29750D02*
X60300Y-29750D01*
X60700Y-48550D02*
X60700Y-48950D01*
X60500Y-48750D02*
X60900Y-48750D01*
X61500Y-32800D02*
X61500Y-33200D01*
X61300Y-33000D02*
X61700Y-33000D01*
X61500Y-33800D02*
X61500Y-34200D01*
X61300Y-34000D02*
X61700Y-34000D01*
X61500Y-34800D02*
X61500Y-35200D01*
X61300Y-35000D02*
X61700Y-35000D01*
X61500Y-35800D02*
X61500Y-36200D01*
X61300Y-36000D02*
X61700Y-36000D01*
X61700Y-29550D02*
X61700Y-29950D01*
X61500Y-29750D02*
X61900Y-29750D01*
X61700Y-48550D02*
X61700Y-48950D01*
X61500Y-48750D02*
X61900Y-48750D01*
X62700Y-29550D02*
X62700Y-29950D01*
X62500Y-29750D02*
X62900Y-29750D01*
X63500Y-32800D02*
X63500Y-33200D01*
X63300Y-33000D02*
X63700Y-33000D01*
X63500Y-33800D02*
X63500Y-34200D01*
X63300Y-34000D02*
X63700Y-34000D01*
X63500Y-34800D02*
X63500Y-35200D01*
X63300Y-35000D02*
X63700Y-35000D01*
X63500Y-35800D02*
X63500Y-36200D01*
X63300Y-36000D02*
X63700Y-36000D01*
X63700Y-29550D02*
X63700Y-29950D01*
X63500Y-29750D02*
X63900Y-29750D01*
X63700Y-48550D02*
X63700Y-48950D01*
X63500Y-48750D02*
X63900Y-48750D01*
X64700Y-29550D02*
X64700Y-29950D01*
X64500Y-29750D02*
X64900Y-29750D01*
X64700Y-48550D02*
X64700Y-48950D01*
X64500Y-48750D02*
X64900Y-48750D01*
X65500Y-32800D02*
X65500Y-33200D01*
X65300Y-33000D02*
X65700Y-33000D01*
X65500Y-33800D02*
X65500Y-34200D01*
X65300Y-34000D02*
X65700Y-34000D01*
X65500Y-34800D02*
X65500Y-35200D01*
X65300Y-35000D02*
X65700Y-35000D01*
X65500Y-35800D02*
X65500Y-36200D01*
X65300Y-36000D02*
X65700Y-36000D01*
X65700Y-29550D02*
X65700Y-29950D01*
X65500Y-29750D02*
X65900Y-29750D01*
X65700Y-48550D02*
X65700Y-48950D01*
X65500Y-48750D02*
X65900Y-48750D01*
X66700Y-29550D02*
X66700Y-29950D01*
X66500Y-29750D02*
X66900Y-29750D01*
X66700Y-48550D02*
X66700Y-48950D01*
X66500Y-48750D02*
X66900Y-48750D01*
X67700Y-29550D02*
X67700Y-29950D01*
X67500Y-29750D02*
X67900Y-29750D01*
X67700Y-48550D02*
X67700Y-48950D01*
X67500Y-48750D02*
X67900Y-48750D01*
X68700Y-29550D02*
X68700Y-29950D01*
X68500Y-29750D02*
X68900Y-29750D01*
X68700Y-48550D02*
X68700Y-48950D01*
X68500Y-48750D02*
X68900Y-48750D01*
X68673Y-41673D02*
X68673Y-41326D01*
X68326Y-41326D01*
X68326Y-41673D01*
X68673Y-41673D01*
X68673Y-43673D02*
X68673Y-43326D01*
X68326Y-43326D01*
X68326Y-43673D01*
X68673Y-43673D01*
X64500Y-39788D02*
X64800Y-39488D01*
X64500Y-39188D01*
X64200Y-39488D01*
X64500Y-39788D01*
X64500Y-41796D02*
X64800Y-41496D01*
X64500Y-41196D01*
X64200Y-41496D01*
X64500Y-41796D01*
X64500Y-43803D02*
X64800Y-43503D01*
X64500Y-43203D01*
X64200Y-43503D01*
X64500Y-43803D01*
X64500Y-45811D02*
X64800Y-45511D01*
X64500Y-45211D01*
X64200Y-45511D01*
X64500Y-45811D01*
X48600Y-48150D02*
X49800Y-49350D01*
X49800Y-48150D02*
X48600Y-49350D01*
X49800Y-48750D02*
G75*
G03X49800Y-48750I-600J0D01*
G74*
G01*
X49100Y-29150D02*
X50300Y-30350D01*
X50300Y-29150D02*
X49100Y-30350D01*
X50300Y-29750D02*
G75*
G03X50300Y-29750I-600J0D01*
G74*
G01*
X69100Y-35150D02*
X70300Y-36350D01*
X70300Y-35150D02*
X69100Y-36350D01*
X70300Y-35750D02*
G75*
G03X70300Y-35750I-600J0D01*
G74*
G01*
X69100Y-46150D02*
X70300Y-47350D01*
X70300Y-46150D02*
X69100Y-47350D01*
X70300Y-46750D02*
G75*
G03X70300Y-46750I-600J0D01*
G74*
G01*
G54D13*
X44739Y-51556D02*
X44739Y-50375D01*
X45020Y-50375D01*
X45189Y-50431D01*
X45301Y-50544D01*
X45357Y-50656D01*
X45414Y-50881D01*
X45414Y-51050D01*
X45357Y-51275D01*
X45301Y-51388D01*
X45189Y-51500D01*
X45020Y-51556D01*
X44739Y-51556D01*
X45920Y-51556D02*
X45920Y-50769D01*
X45920Y-50994D02*
X45976Y-50881D01*
X46032Y-50825D01*
X46145Y-50769D01*
X46257Y-50769D01*
X46651Y-51556D02*
X46651Y-50769D01*
X46651Y-50375D02*
X46595Y-50431D01*
X46651Y-50488D01*
X46707Y-50431D01*
X46651Y-50375D01*
X46651Y-50488D01*
X47382Y-51556D02*
X47270Y-51500D01*
X47213Y-51388D01*
X47213Y-50375D01*
X48001Y-51556D02*
X47888Y-51500D01*
X47832Y-51388D01*
X47832Y-50375D01*
X49351Y-51556D02*
X49351Y-50375D01*
X49744Y-51219D01*
X50138Y-50375D01*
X50138Y-51556D01*
X51207Y-51556D02*
X51207Y-50938D01*
X51150Y-50825D01*
X51038Y-50769D01*
X50813Y-50769D01*
X50700Y-50825D01*
X51207Y-51500D02*
X51094Y-51556D01*
X50813Y-51556D01*
X50700Y-51500D01*
X50644Y-51388D01*
X50644Y-51275D01*
X50700Y-51163D01*
X50813Y-51106D01*
X51094Y-51106D01*
X51207Y-51050D01*
X51769Y-50769D02*
X51769Y-51950D01*
X51769Y-50825D02*
X51881Y-50769D01*
X52106Y-50769D01*
X52219Y-50825D01*
X52275Y-50881D01*
X52331Y-50994D01*
X52331Y-51331D01*
X52275Y-51444D01*
X52219Y-51500D01*
X52106Y-51556D01*
X51881Y-51556D01*
X51769Y-51500D01*
X52838Y-51444D02*
X52894Y-51500D01*
X52838Y-51556D01*
X52781Y-51500D01*
X52838Y-51444D01*
X52838Y-51556D01*
X52838Y-50825D02*
X52894Y-50881D01*
X52838Y-50938D01*
X52781Y-50881D01*
X52838Y-50825D01*
X52838Y-50938D01*
X43512Y-53480D02*
X43670Y-53637D01*
X43670Y-53480D02*
X43512Y-53637D01*
X44964Y-52856D02*
X45076Y-52856D01*
X45189Y-52912D01*
X45245Y-52968D01*
X45301Y-53080D01*
X45357Y-53305D01*
X45357Y-53587D01*
X45301Y-53812D01*
X45245Y-53924D01*
X45189Y-53980D01*
X45076Y-54037D01*
X44964Y-54037D01*
X44851Y-53980D01*
X44795Y-53924D01*
X44739Y-53812D01*
X44682Y-53587D01*
X44682Y-53305D01*
X44739Y-53080D01*
X44795Y-52968D01*
X44851Y-52912D01*
X44964Y-52856D01*
X45863Y-53924D02*
X45920Y-53980D01*
X45863Y-54037D01*
X45807Y-53980D01*
X45863Y-53924D01*
X45863Y-54037D01*
X46932Y-53249D02*
X46932Y-54037D01*
X46651Y-52799D02*
X46370Y-53643D01*
X47101Y-53643D01*
X47776Y-52856D02*
X47888Y-52856D01*
X48001Y-52912D01*
X48057Y-52968D01*
X48113Y-53080D01*
X48169Y-53305D01*
X48169Y-53587D01*
X48113Y-53812D01*
X48057Y-53924D01*
X48001Y-53980D01*
X47888Y-54037D01*
X47776Y-54037D01*
X47663Y-53980D01*
X47607Y-53924D01*
X47551Y-53812D01*
X47494Y-53587D01*
X47494Y-53305D01*
X47551Y-53080D01*
X47607Y-52968D01*
X47663Y-52912D01*
X47776Y-52856D01*
X48676Y-54037D02*
X48676Y-53249D01*
X48676Y-53362D02*
X48732Y-53305D01*
X48844Y-53249D01*
X49013Y-53249D01*
X49126Y-53305D01*
X49182Y-53418D01*
X49182Y-54037D01*
X49182Y-53418D02*
X49238Y-53305D01*
X49351Y-53249D01*
X49519Y-53249D01*
X49632Y-53305D01*
X49688Y-53418D01*
X49688Y-54037D01*
X50250Y-54037D02*
X50250Y-53249D01*
X50250Y-53362D02*
X50307Y-53305D01*
X50419Y-53249D01*
X50588Y-53249D01*
X50700Y-53305D01*
X50757Y-53418D01*
X50757Y-54037D01*
X50757Y-53418D02*
X50813Y-53305D01*
X50925Y-53249D01*
X51094Y-53249D01*
X51207Y-53305D01*
X51263Y-53418D01*
X51263Y-54037D01*
X53569Y-52799D02*
X52556Y-54318D01*
X55087Y-52856D02*
X55200Y-52856D01*
X55312Y-52912D01*
X55369Y-52968D01*
X55425Y-53080D01*
X55481Y-53305D01*
X55481Y-53587D01*
X55425Y-53812D01*
X55369Y-53924D01*
X55312Y-53980D01*
X55200Y-54037D01*
X55087Y-54037D01*
X54975Y-53980D01*
X54919Y-53924D01*
X54862Y-53812D01*
X54806Y-53587D01*
X54806Y-53305D01*
X54862Y-53080D01*
X54919Y-52968D01*
X54975Y-52912D01*
X55087Y-52856D01*
X55987Y-53924D02*
X56043Y-53980D01*
X55987Y-54037D01*
X55931Y-53980D01*
X55987Y-53924D01*
X55987Y-54037D01*
X56775Y-52856D02*
X56887Y-52856D01*
X57000Y-52912D01*
X57056Y-52968D01*
X57112Y-53080D01*
X57168Y-53305D01*
X57168Y-53587D01*
X57112Y-53812D01*
X57056Y-53924D01*
X57000Y-53980D01*
X56887Y-54037D01*
X56775Y-54037D01*
X56662Y-53980D01*
X56606Y-53924D01*
X56550Y-53812D01*
X56493Y-53587D01*
X56493Y-53305D01*
X56550Y-53080D01*
X56606Y-52968D01*
X56662Y-52912D01*
X56775Y-52856D01*
X58293Y-54037D02*
X57618Y-54037D01*
X57956Y-54037D02*
X57956Y-52856D01*
X57843Y-53024D01*
X57731Y-53137D01*
X57618Y-53193D01*
X59306Y-52856D02*
X59081Y-52856D01*
X58968Y-52912D01*
X58912Y-52968D01*
X58799Y-53137D01*
X58743Y-53362D01*
X58743Y-53812D01*
X58799Y-53924D01*
X58856Y-53980D01*
X58968Y-54037D01*
X59193Y-54037D01*
X59306Y-53980D01*
X59362Y-53924D01*
X59418Y-53812D01*
X59418Y-53530D01*
X59362Y-53418D01*
X59306Y-53362D01*
X59193Y-53305D01*
X58968Y-53305D01*
X58856Y-53362D01*
X58799Y-53418D01*
X58743Y-53530D01*
X59868Y-52856D02*
X59868Y-53080D01*
X60318Y-52856D02*
X60318Y-53080D01*
X62061Y-54487D02*
X62005Y-54430D01*
X61893Y-54262D01*
X61836Y-54149D01*
X61780Y-53980D01*
X61724Y-53699D01*
X61724Y-53474D01*
X61780Y-53193D01*
X61836Y-53024D01*
X61893Y-52912D01*
X62005Y-52743D01*
X62061Y-52687D01*
X62455Y-52968D02*
X62511Y-52912D01*
X62624Y-52856D01*
X62905Y-52856D01*
X63018Y-52912D01*
X63074Y-52968D01*
X63130Y-53080D01*
X63130Y-53193D01*
X63074Y-53362D01*
X62399Y-54037D01*
X63130Y-54037D01*
X63524Y-52856D02*
X64255Y-52856D01*
X63861Y-53305D01*
X64030Y-53305D01*
X64142Y-53362D01*
X64199Y-53418D01*
X64255Y-53530D01*
X64255Y-53812D01*
X64199Y-53924D01*
X64142Y-53980D01*
X64030Y-54037D01*
X63692Y-54037D01*
X63580Y-53980D01*
X63524Y-53924D01*
X65661Y-54037D02*
X65661Y-52856D01*
X66167Y-54037D02*
X66167Y-53418D01*
X66111Y-53305D01*
X65998Y-53249D01*
X65830Y-53249D01*
X65717Y-53305D01*
X65661Y-53362D01*
X66898Y-54037D02*
X66786Y-53980D01*
X66730Y-53924D01*
X66673Y-53812D01*
X66673Y-53474D01*
X66730Y-53362D01*
X66786Y-53305D01*
X66898Y-53249D01*
X67067Y-53249D01*
X67180Y-53305D01*
X67236Y-53362D01*
X67292Y-53474D01*
X67292Y-53812D01*
X67236Y-53924D01*
X67180Y-53980D01*
X67067Y-54037D01*
X66898Y-54037D01*
X67967Y-54037D02*
X67854Y-53980D01*
X67798Y-53868D01*
X67798Y-52856D01*
X68867Y-53980D02*
X68754Y-54037D01*
X68529Y-54037D01*
X68417Y-53980D01*
X68361Y-53868D01*
X68361Y-53418D01*
X68417Y-53305D01*
X68529Y-53249D01*
X68754Y-53249D01*
X68867Y-53305D01*
X68923Y-53418D01*
X68923Y-53530D01*
X68361Y-53643D01*
X69373Y-53980D02*
X69485Y-54037D01*
X69710Y-54037D01*
X69823Y-53980D01*
X69879Y-53868D01*
X69879Y-53812D01*
X69823Y-53699D01*
X69710Y-53643D01*
X69542Y-53643D01*
X69429Y-53587D01*
X69373Y-53474D01*
X69373Y-53418D01*
X69429Y-53305D01*
X69542Y-53249D01*
X69710Y-53249D01*
X69823Y-53305D01*
X70273Y-54487D02*
X70329Y-54430D01*
X70442Y-54262D01*
X70498Y-54149D01*
X70554Y-53980D01*
X70610Y-53699D01*
X70610Y-53474D01*
X70554Y-53193D01*
X70498Y-53024D01*
X70442Y-52912D01*
X70329Y-52743D01*
X70273Y-52687D01*
G54D12*
X43670Y-55118D02*
G75*
G03X43670Y-55118I-160J0D01*
G74*
G01*
G54D13*
X44964Y-54415D02*
X45076Y-54415D01*
X45189Y-54471D01*
X45245Y-54527D01*
X45301Y-54640D01*
X45357Y-54865D01*
X45357Y-55146D01*
X45301Y-55371D01*
X45245Y-55483D01*
X45189Y-55539D01*
X45076Y-55596D01*
X44964Y-55596D01*
X44851Y-55539D01*
X44795Y-55483D01*
X44739Y-55371D01*
X44682Y-55146D01*
X44682Y-54865D01*
X44739Y-54640D01*
X44795Y-54527D01*
X44851Y-54471D01*
X44964Y-54415D01*
X45863Y-55483D02*
X45920Y-55539D01*
X45863Y-55596D01*
X45807Y-55539D01*
X45863Y-55483D01*
X45863Y-55596D01*
X46595Y-54921D02*
X46482Y-54865D01*
X46426Y-54808D01*
X46370Y-54696D01*
X46370Y-54640D01*
X46426Y-54527D01*
X46482Y-54471D01*
X46595Y-54415D01*
X46820Y-54415D01*
X46932Y-54471D01*
X46988Y-54527D01*
X47045Y-54640D01*
X47045Y-54696D01*
X46988Y-54808D01*
X46932Y-54865D01*
X46820Y-54921D01*
X46595Y-54921D01*
X46482Y-54977D01*
X46426Y-55033D01*
X46370Y-55146D01*
X46370Y-55371D01*
X46426Y-55483D01*
X46482Y-55539D01*
X46595Y-55596D01*
X46820Y-55596D01*
X46932Y-55539D01*
X46988Y-55483D01*
X47045Y-55371D01*
X47045Y-55146D01*
X46988Y-55033D01*
X46932Y-54977D01*
X46820Y-54921D01*
X48169Y-55596D02*
X47494Y-55596D01*
X47832Y-55596D02*
X47832Y-54415D01*
X47719Y-54583D01*
X47607Y-54696D01*
X47494Y-54752D01*
X48676Y-55596D02*
X48676Y-54808D01*
X48676Y-54921D02*
X48732Y-54865D01*
X48844Y-54808D01*
X49013Y-54808D01*
X49126Y-54865D01*
X49182Y-54977D01*
X49182Y-55596D01*
X49182Y-54977D02*
X49238Y-54865D01*
X49351Y-54808D01*
X49519Y-54808D01*
X49632Y-54865D01*
X49688Y-54977D01*
X49688Y-55596D01*
X50250Y-55596D02*
X50250Y-54808D01*
X50250Y-54921D02*
X50307Y-54865D01*
X50419Y-54808D01*
X50588Y-54808D01*
X50700Y-54865D01*
X50757Y-54977D01*
X50757Y-55596D01*
X50757Y-54977D02*
X50813Y-54865D01*
X50925Y-54808D01*
X51094Y-54808D01*
X51207Y-54865D01*
X51263Y-54977D01*
X51263Y-55596D01*
X53569Y-54358D02*
X52556Y-55877D01*
X55087Y-54415D02*
X55200Y-54415D01*
X55312Y-54471D01*
X55369Y-54527D01*
X55425Y-54640D01*
X55481Y-54865D01*
X55481Y-55146D01*
X55425Y-55371D01*
X55369Y-55483D01*
X55312Y-55539D01*
X55200Y-55596D01*
X55087Y-55596D01*
X54975Y-55539D01*
X54919Y-55483D01*
X54862Y-55371D01*
X54806Y-55146D01*
X54806Y-54865D01*
X54862Y-54640D01*
X54919Y-54527D01*
X54975Y-54471D01*
X55087Y-54415D01*
X55987Y-55483D02*
X56043Y-55539D01*
X55987Y-55596D01*
X55931Y-55539D01*
X55987Y-55483D01*
X55987Y-55596D01*
X56775Y-54415D02*
X56887Y-54415D01*
X57000Y-54471D01*
X57056Y-54527D01*
X57112Y-54640D01*
X57168Y-54865D01*
X57168Y-55146D01*
X57112Y-55371D01*
X57056Y-55483D01*
X57000Y-55539D01*
X56887Y-55596D01*
X56775Y-55596D01*
X56662Y-55539D01*
X56606Y-55483D01*
X56550Y-55371D01*
X56493Y-55146D01*
X56493Y-54865D01*
X56550Y-54640D01*
X56606Y-54527D01*
X56662Y-54471D01*
X56775Y-54415D01*
X57562Y-54415D02*
X58293Y-54415D01*
X57899Y-54865D01*
X58068Y-54865D01*
X58181Y-54921D01*
X58237Y-54977D01*
X58293Y-55089D01*
X58293Y-55371D01*
X58237Y-55483D01*
X58181Y-55539D01*
X58068Y-55596D01*
X57731Y-55596D01*
X57618Y-55539D01*
X57562Y-55483D01*
X58743Y-54527D02*
X58799Y-54471D01*
X58912Y-54415D01*
X59193Y-54415D01*
X59306Y-54471D01*
X59362Y-54527D01*
X59418Y-54640D01*
X59418Y-54752D01*
X59362Y-54921D01*
X58687Y-55596D01*
X59418Y-55596D01*
X59868Y-54415D02*
X59868Y-54640D01*
X60318Y-54415D02*
X60318Y-54640D01*
X62061Y-56046D02*
X62005Y-55989D01*
X61893Y-55821D01*
X61836Y-55708D01*
X61780Y-55539D01*
X61724Y-55258D01*
X61724Y-55033D01*
X61780Y-54752D01*
X61836Y-54583D01*
X61893Y-54471D01*
X62005Y-54302D01*
X62061Y-54246D01*
X62680Y-54921D02*
X62568Y-54865D01*
X62511Y-54808D01*
X62455Y-54696D01*
X62455Y-54640D01*
X62511Y-54527D01*
X62568Y-54471D01*
X62680Y-54415D01*
X62905Y-54415D01*
X63018Y-54471D01*
X63074Y-54527D01*
X63130Y-54640D01*
X63130Y-54696D01*
X63074Y-54808D01*
X63018Y-54865D01*
X62905Y-54921D01*
X62680Y-54921D01*
X62568Y-54977D01*
X62511Y-55033D01*
X62455Y-55146D01*
X62455Y-55371D01*
X62511Y-55483D01*
X62568Y-55539D01*
X62680Y-55596D01*
X62905Y-55596D01*
X63018Y-55539D01*
X63074Y-55483D01*
X63130Y-55371D01*
X63130Y-55146D01*
X63074Y-55033D01*
X63018Y-54977D01*
X62905Y-54921D01*
X63861Y-54415D02*
X63974Y-54415D01*
X64086Y-54471D01*
X64142Y-54527D01*
X64199Y-54640D01*
X64255Y-54865D01*
X64255Y-55146D01*
X64199Y-55371D01*
X64142Y-55483D01*
X64086Y-55539D01*
X63974Y-55596D01*
X63861Y-55596D01*
X63749Y-55539D01*
X63692Y-55483D01*
X63636Y-55371D01*
X63580Y-55146D01*
X63580Y-54865D01*
X63636Y-54640D01*
X63692Y-54527D01*
X63749Y-54471D01*
X63861Y-54415D01*
X65661Y-55596D02*
X65661Y-54415D01*
X66167Y-55596D02*
X66167Y-54977D01*
X66111Y-54865D01*
X65998Y-54808D01*
X65830Y-54808D01*
X65717Y-54865D01*
X65661Y-54921D01*
X66898Y-55596D02*
X66786Y-55539D01*
X66730Y-55483D01*
X66673Y-55371D01*
X66673Y-55033D01*
X66730Y-54921D01*
X66786Y-54865D01*
X66898Y-54808D01*
X67067Y-54808D01*
X67180Y-54865D01*
X67236Y-54921D01*
X67292Y-55033D01*
X67292Y-55371D01*
X67236Y-55483D01*
X67180Y-55539D01*
X67067Y-55596D01*
X66898Y-55596D01*
X67967Y-55596D02*
X67854Y-55539D01*
X67798Y-55427D01*
X67798Y-54415D01*
X68867Y-55539D02*
X68754Y-55596D01*
X68529Y-55596D01*
X68417Y-55539D01*
X68361Y-55427D01*
X68361Y-54977D01*
X68417Y-54865D01*
X68529Y-54808D01*
X68754Y-54808D01*
X68867Y-54865D01*
X68923Y-54977D01*
X68923Y-55089D01*
X68361Y-55202D01*
X69373Y-55539D02*
X69485Y-55596D01*
X69710Y-55596D01*
X69823Y-55539D01*
X69879Y-55427D01*
X69879Y-55371D01*
X69823Y-55258D01*
X69710Y-55202D01*
X69542Y-55202D01*
X69429Y-55146D01*
X69373Y-55033D01*
X69373Y-54977D01*
X69429Y-54865D01*
X69542Y-54808D01*
X69710Y-54808D01*
X69823Y-54865D01*
X70273Y-56046D02*
X70329Y-55989D01*
X70442Y-55821D01*
X70498Y-55708D01*
X70554Y-55539D01*
X70610Y-55258D01*
X70610Y-55033D01*
X70554Y-54752D01*
X70498Y-54583D01*
X70442Y-54471D01*
X70329Y-54302D01*
X70273Y-54246D01*
X43470Y-56477D02*
X43470Y-56877D01*
X43270Y-56677D02*
X43670Y-56677D01*
X45357Y-57155D02*
X44682Y-57155D01*
X45020Y-57155D02*
X45020Y-55974D01*
X44907Y-56142D01*
X44795Y-56255D01*
X44682Y-56311D01*
X45863Y-57042D02*
X45920Y-57098D01*
X45863Y-57155D01*
X45807Y-57098D01*
X45863Y-57042D01*
X45863Y-57155D01*
X46651Y-55974D02*
X46763Y-55974D01*
X46876Y-56030D01*
X46932Y-56086D01*
X46988Y-56199D01*
X47045Y-56424D01*
X47045Y-56705D01*
X46988Y-56930D01*
X46932Y-57042D01*
X46876Y-57098D01*
X46763Y-57155D01*
X46651Y-57155D01*
X46538Y-57098D01*
X46482Y-57042D01*
X46426Y-56930D01*
X46370Y-56705D01*
X46370Y-56424D01*
X46426Y-56199D01*
X46482Y-56086D01*
X46538Y-56030D01*
X46651Y-55974D01*
X47494Y-56086D02*
X47551Y-56030D01*
X47663Y-55974D01*
X47944Y-55974D01*
X48057Y-56030D01*
X48113Y-56086D01*
X48169Y-56199D01*
X48169Y-56311D01*
X48113Y-56480D01*
X47438Y-57155D01*
X48169Y-57155D01*
X48676Y-57155D02*
X48676Y-56367D01*
X48676Y-56480D02*
X48732Y-56424D01*
X48844Y-56367D01*
X49013Y-56367D01*
X49126Y-56424D01*
X49182Y-56536D01*
X49182Y-57155D01*
X49182Y-56536D02*
X49238Y-56424D01*
X49351Y-56367D01*
X49519Y-56367D01*
X49632Y-56424D01*
X49688Y-56536D01*
X49688Y-57155D01*
X50250Y-57155D02*
X50250Y-56367D01*
X50250Y-56480D02*
X50307Y-56424D01*
X50419Y-56367D01*
X50588Y-56367D01*
X50700Y-56424D01*
X50757Y-56536D01*
X50757Y-57155D01*
X50757Y-56536D02*
X50813Y-56424D01*
X50925Y-56367D01*
X51094Y-56367D01*
X51207Y-56424D01*
X51263Y-56536D01*
X51263Y-57155D01*
X53569Y-55917D02*
X52556Y-57436D01*
X55087Y-55974D02*
X55200Y-55974D01*
X55312Y-56030D01*
X55369Y-56086D01*
X55425Y-56199D01*
X55481Y-56424D01*
X55481Y-56705D01*
X55425Y-56930D01*
X55369Y-57042D01*
X55312Y-57098D01*
X55200Y-57155D01*
X55087Y-57155D01*
X54975Y-57098D01*
X54919Y-57042D01*
X54862Y-56930D01*
X54806Y-56705D01*
X54806Y-56424D01*
X54862Y-56199D01*
X54919Y-56086D01*
X54975Y-56030D01*
X55087Y-55974D01*
X55987Y-57042D02*
X56043Y-57098D01*
X55987Y-57155D01*
X55931Y-57098D01*
X55987Y-57042D01*
X55987Y-57155D01*
X56775Y-55974D02*
X56887Y-55974D01*
X57000Y-56030D01*
X57056Y-56086D01*
X57112Y-56199D01*
X57168Y-56424D01*
X57168Y-56705D01*
X57112Y-56930D01*
X57056Y-57042D01*
X57000Y-57098D01*
X56887Y-57155D01*
X56775Y-57155D01*
X56662Y-57098D01*
X56606Y-57042D01*
X56550Y-56930D01*
X56493Y-56705D01*
X56493Y-56424D01*
X56550Y-56199D01*
X56606Y-56086D01*
X56662Y-56030D01*
X56775Y-55974D01*
X58181Y-56367D02*
X58181Y-57155D01*
X57899Y-55917D02*
X57618Y-56761D01*
X58349Y-56761D01*
X59024Y-55974D02*
X59137Y-55974D01*
X59249Y-56030D01*
X59306Y-56086D01*
X59362Y-56199D01*
X59418Y-56424D01*
X59418Y-56705D01*
X59362Y-56930D01*
X59306Y-57042D01*
X59249Y-57098D01*
X59137Y-57155D01*
X59024Y-57155D01*
X58912Y-57098D01*
X58856Y-57042D01*
X58799Y-56930D01*
X58743Y-56705D01*
X58743Y-56424D01*
X58799Y-56199D01*
X58856Y-56086D01*
X58912Y-56030D01*
X59024Y-55974D01*
X59868Y-55974D02*
X59868Y-56199D01*
X60318Y-55974D02*
X60318Y-56199D01*
X62061Y-57605D02*
X62005Y-57548D01*
X61893Y-57380D01*
X61836Y-57267D01*
X61780Y-57098D01*
X61724Y-56817D01*
X61724Y-56592D01*
X61780Y-56311D01*
X61836Y-56142D01*
X61893Y-56030D01*
X62005Y-55861D01*
X62061Y-55805D01*
X63074Y-55974D02*
X62511Y-55974D01*
X62455Y-56536D01*
X62511Y-56480D01*
X62624Y-56424D01*
X62905Y-56424D01*
X63018Y-56480D01*
X63074Y-56536D01*
X63130Y-56649D01*
X63130Y-56930D01*
X63074Y-57042D01*
X63018Y-57098D01*
X62905Y-57155D01*
X62624Y-57155D01*
X62511Y-57098D01*
X62455Y-57042D01*
X63524Y-55974D02*
X64255Y-55974D01*
X63861Y-56424D01*
X64030Y-56424D01*
X64142Y-56480D01*
X64199Y-56536D01*
X64255Y-56649D01*
X64255Y-56930D01*
X64199Y-57042D01*
X64142Y-57098D01*
X64030Y-57155D01*
X63692Y-57155D01*
X63580Y-57098D01*
X63524Y-57042D01*
X65661Y-57155D02*
X65661Y-55974D01*
X66167Y-57155D02*
X66167Y-56536D01*
X66111Y-56424D01*
X65998Y-56367D01*
X65830Y-56367D01*
X65717Y-56424D01*
X65661Y-56480D01*
X66898Y-57155D02*
X66786Y-57098D01*
X66730Y-57042D01*
X66673Y-56930D01*
X66673Y-56592D01*
X66730Y-56480D01*
X66786Y-56424D01*
X66898Y-56367D01*
X67067Y-56367D01*
X67180Y-56424D01*
X67236Y-56480D01*
X67292Y-56592D01*
X67292Y-56930D01*
X67236Y-57042D01*
X67180Y-57098D01*
X67067Y-57155D01*
X66898Y-57155D01*
X67967Y-57155D02*
X67854Y-57098D01*
X67798Y-56986D01*
X67798Y-55974D01*
X68867Y-57098D02*
X68754Y-57155D01*
X68529Y-57155D01*
X68417Y-57098D01*
X68361Y-56986D01*
X68361Y-56536D01*
X68417Y-56424D01*
X68529Y-56367D01*
X68754Y-56367D01*
X68867Y-56424D01*
X68923Y-56536D01*
X68923Y-56649D01*
X68361Y-56761D01*
X69373Y-57098D02*
X69485Y-57155D01*
X69710Y-57155D01*
X69823Y-57098D01*
X69879Y-56986D01*
X69879Y-56930D01*
X69823Y-56817D01*
X69710Y-56761D01*
X69542Y-56761D01*
X69429Y-56705D01*
X69373Y-56592D01*
X69373Y-56536D01*
X69429Y-56424D01*
X69542Y-56367D01*
X69710Y-56367D01*
X69823Y-56424D01*
X70273Y-57605D02*
X70329Y-57548D01*
X70442Y-57380D01*
X70498Y-57267D01*
X70554Y-57098D01*
X70610Y-56817D01*
X70610Y-56592D01*
X70554Y-56311D01*
X70498Y-56142D01*
X70442Y-56030D01*
X70329Y-55861D01*
X70273Y-55805D01*
G54D12*
X43598Y-58410D02*
X43598Y-58062D01*
X43250Y-58062D01*
X43250Y-58410D01*
X43598Y-58410D01*
G54D13*
X45357Y-58714D02*
X44682Y-58714D01*
X45020Y-58714D02*
X45020Y-57533D01*
X44907Y-57701D01*
X44795Y-57814D01*
X44682Y-57870D01*
X45863Y-58601D02*
X45920Y-58658D01*
X45863Y-58714D01*
X45807Y-58658D01*
X45863Y-58601D01*
X45863Y-58714D01*
X46370Y-57645D02*
X46426Y-57589D01*
X46538Y-57533D01*
X46820Y-57533D01*
X46932Y-57589D01*
X46988Y-57645D01*
X47045Y-57758D01*
X47045Y-57870D01*
X46988Y-58039D01*
X46313Y-58714D01*
X47045Y-58714D01*
X48113Y-57533D02*
X47551Y-57533D01*
X47494Y-58095D01*
X47551Y-58039D01*
X47663Y-57983D01*
X47944Y-57983D01*
X48057Y-58039D01*
X48113Y-58095D01*
X48169Y-58208D01*
X48169Y-58489D01*
X48113Y-58601D01*
X48057Y-58658D01*
X47944Y-58714D01*
X47663Y-58714D01*
X47551Y-58658D01*
X47494Y-58601D01*
X48676Y-58714D02*
X48676Y-57926D01*
X48676Y-58039D02*
X48732Y-57983D01*
X48844Y-57926D01*
X49013Y-57926D01*
X49126Y-57983D01*
X49182Y-58095D01*
X49182Y-58714D01*
X49182Y-58095D02*
X49238Y-57983D01*
X49351Y-57926D01*
X49519Y-57926D01*
X49632Y-57983D01*
X49688Y-58095D01*
X49688Y-58714D01*
X50250Y-58714D02*
X50250Y-57926D01*
X50250Y-58039D02*
X50307Y-57983D01*
X50419Y-57926D01*
X50588Y-57926D01*
X50700Y-57983D01*
X50757Y-58095D01*
X50757Y-58714D01*
X50757Y-58095D02*
X50813Y-57983D01*
X50925Y-57926D01*
X51094Y-57926D01*
X51207Y-57983D01*
X51263Y-58095D01*
X51263Y-58714D01*
X53569Y-57476D02*
X52556Y-58995D01*
X55087Y-57533D02*
X55200Y-57533D01*
X55312Y-57589D01*
X55369Y-57645D01*
X55425Y-57758D01*
X55481Y-57983D01*
X55481Y-58264D01*
X55425Y-58489D01*
X55369Y-58601D01*
X55312Y-58658D01*
X55200Y-58714D01*
X55087Y-58714D01*
X54975Y-58658D01*
X54919Y-58601D01*
X54862Y-58489D01*
X54806Y-58264D01*
X54806Y-57983D01*
X54862Y-57758D01*
X54919Y-57645D01*
X54975Y-57589D01*
X55087Y-57533D01*
X55987Y-58601D02*
X56043Y-58658D01*
X55987Y-58714D01*
X55931Y-58658D01*
X55987Y-58601D01*
X55987Y-58714D01*
X56775Y-57533D02*
X56887Y-57533D01*
X57000Y-57589D01*
X57056Y-57645D01*
X57112Y-57758D01*
X57168Y-57983D01*
X57168Y-58264D01*
X57112Y-58489D01*
X57056Y-58601D01*
X57000Y-58658D01*
X56887Y-58714D01*
X56775Y-58714D01*
X56662Y-58658D01*
X56606Y-58601D01*
X56550Y-58489D01*
X56493Y-58264D01*
X56493Y-57983D01*
X56550Y-57758D01*
X56606Y-57645D01*
X56662Y-57589D01*
X56775Y-57533D01*
X58181Y-57926D02*
X58181Y-58714D01*
X57899Y-57476D02*
X57618Y-58320D01*
X58349Y-58320D01*
X58856Y-58714D02*
X59081Y-58714D01*
X59193Y-58658D01*
X59249Y-58601D01*
X59362Y-58433D01*
X59418Y-58208D01*
X59418Y-57758D01*
X59362Y-57645D01*
X59306Y-57589D01*
X59193Y-57533D01*
X58968Y-57533D01*
X58856Y-57589D01*
X58799Y-57645D01*
X58743Y-57758D01*
X58743Y-58039D01*
X58799Y-58151D01*
X58856Y-58208D01*
X58968Y-58264D01*
X59193Y-58264D01*
X59306Y-58208D01*
X59362Y-58151D01*
X59418Y-58039D01*
X59868Y-57533D02*
X59868Y-57758D01*
X60318Y-57533D02*
X60318Y-57758D01*
X62061Y-59164D02*
X62005Y-59107D01*
X61893Y-58939D01*
X61836Y-58826D01*
X61780Y-58658D01*
X61724Y-58376D01*
X61724Y-58151D01*
X61780Y-57870D01*
X61836Y-57701D01*
X61893Y-57589D01*
X62005Y-57420D01*
X62061Y-57364D01*
X62455Y-57645D02*
X62511Y-57589D01*
X62624Y-57533D01*
X62905Y-57533D01*
X63018Y-57589D01*
X63074Y-57645D01*
X63130Y-57758D01*
X63130Y-57870D01*
X63074Y-58039D01*
X62399Y-58714D01*
X63130Y-58714D01*
X64536Y-58714D02*
X64536Y-57533D01*
X65042Y-58714D02*
X65042Y-58095D01*
X64986Y-57983D01*
X64874Y-57926D01*
X64705Y-57926D01*
X64592Y-57983D01*
X64536Y-58039D01*
X65773Y-58714D02*
X65661Y-58658D01*
X65605Y-58601D01*
X65548Y-58489D01*
X65548Y-58151D01*
X65605Y-58039D01*
X65661Y-57983D01*
X65773Y-57926D01*
X65942Y-57926D01*
X66055Y-57983D01*
X66111Y-58039D01*
X66167Y-58151D01*
X66167Y-58489D01*
X66111Y-58601D01*
X66055Y-58658D01*
X65942Y-58714D01*
X65773Y-58714D01*
X66842Y-58714D02*
X66730Y-58658D01*
X66673Y-58545D01*
X66673Y-57533D01*
X67742Y-58658D02*
X67629Y-58714D01*
X67405Y-58714D01*
X67292Y-58658D01*
X67236Y-58545D01*
X67236Y-58095D01*
X67292Y-57983D01*
X67405Y-57926D01*
X67629Y-57926D01*
X67742Y-57983D01*
X67798Y-58095D01*
X67798Y-58208D01*
X67236Y-58320D01*
X68248Y-58658D02*
X68361Y-58714D01*
X68586Y-58714D01*
X68698Y-58658D01*
X68754Y-58545D01*
X68754Y-58489D01*
X68698Y-58376D01*
X68586Y-58320D01*
X68417Y-58320D01*
X68304Y-58264D01*
X68248Y-58151D01*
X68248Y-58095D01*
X68304Y-57983D01*
X68417Y-57926D01*
X68586Y-57926D01*
X68698Y-57983D01*
X69148Y-59164D02*
X69204Y-59107D01*
X69317Y-58939D01*
X69373Y-58826D01*
X69429Y-58658D01*
X69485Y-58376D01*
X69485Y-58151D01*
X69429Y-57870D01*
X69373Y-57701D01*
X69317Y-57589D01*
X69204Y-57420D01*
X69148Y-57364D01*
G54D12*
X43370Y-60095D02*
X43670Y-59795D01*
X43370Y-59495D01*
X43070Y-59795D01*
X43370Y-60095D01*
G54D13*
X45357Y-60273D02*
X44682Y-60273D01*
X45020Y-60273D02*
X45020Y-59092D01*
X44907Y-59260D01*
X44795Y-59373D01*
X44682Y-59429D01*
X45863Y-60160D02*
X45920Y-60217D01*
X45863Y-60273D01*
X45807Y-60217D01*
X45863Y-60160D01*
X45863Y-60273D01*
X46988Y-59092D02*
X46426Y-59092D01*
X46370Y-59654D01*
X46426Y-59598D01*
X46538Y-59542D01*
X46820Y-59542D01*
X46932Y-59598D01*
X46988Y-59654D01*
X47045Y-59767D01*
X47045Y-60048D01*
X46988Y-60160D01*
X46932Y-60217D01*
X46820Y-60273D01*
X46538Y-60273D01*
X46426Y-60217D01*
X46370Y-60160D01*
X47494Y-59204D02*
X47551Y-59148D01*
X47663Y-59092D01*
X47944Y-59092D01*
X48057Y-59148D01*
X48113Y-59204D01*
X48169Y-59317D01*
X48169Y-59429D01*
X48113Y-59598D01*
X47438Y-60273D01*
X48169Y-60273D01*
X48676Y-60273D02*
X48676Y-59485D01*
X48676Y-59598D02*
X48732Y-59542D01*
X48844Y-59485D01*
X49013Y-59485D01*
X49126Y-59542D01*
X49182Y-59654D01*
X49182Y-60273D01*
X49182Y-59654D02*
X49238Y-59542D01*
X49351Y-59485D01*
X49519Y-59485D01*
X49632Y-59542D01*
X49688Y-59654D01*
X49688Y-60273D01*
X50250Y-60273D02*
X50250Y-59485D01*
X50250Y-59598D02*
X50307Y-59542D01*
X50419Y-59485D01*
X50588Y-59485D01*
X50700Y-59542D01*
X50757Y-59654D01*
X50757Y-60273D01*
X50757Y-59654D02*
X50813Y-59542D01*
X50925Y-59485D01*
X51094Y-59485D01*
X51207Y-59542D01*
X51263Y-59654D01*
X51263Y-60273D01*
X53569Y-59035D02*
X52556Y-60554D01*
X55087Y-59092D02*
X55200Y-59092D01*
X55312Y-59148D01*
X55369Y-59204D01*
X55425Y-59317D01*
X55481Y-59542D01*
X55481Y-59823D01*
X55425Y-60048D01*
X55369Y-60160D01*
X55312Y-60217D01*
X55200Y-60273D01*
X55087Y-60273D01*
X54975Y-60217D01*
X54919Y-60160D01*
X54862Y-60048D01*
X54806Y-59823D01*
X54806Y-59542D01*
X54862Y-59317D01*
X54919Y-59204D01*
X54975Y-59148D01*
X55087Y-59092D01*
X55987Y-60160D02*
X56043Y-60217D01*
X55987Y-60273D01*
X55931Y-60217D01*
X55987Y-60160D01*
X55987Y-60273D01*
X56775Y-59092D02*
X56887Y-59092D01*
X57000Y-59148D01*
X57056Y-59204D01*
X57112Y-59317D01*
X57168Y-59542D01*
X57168Y-59823D01*
X57112Y-60048D01*
X57056Y-60160D01*
X57000Y-60217D01*
X56887Y-60273D01*
X56775Y-60273D01*
X56662Y-60217D01*
X56606Y-60160D01*
X56550Y-60048D01*
X56493Y-59823D01*
X56493Y-59542D01*
X56550Y-59317D01*
X56606Y-59204D01*
X56662Y-59148D01*
X56775Y-59092D01*
X58181Y-59092D02*
X57956Y-59092D01*
X57843Y-59148D01*
X57787Y-59204D01*
X57674Y-59373D01*
X57618Y-59598D01*
X57618Y-60048D01*
X57674Y-60160D01*
X57731Y-60217D01*
X57843Y-60273D01*
X58068Y-60273D01*
X58181Y-60217D01*
X58237Y-60160D01*
X58293Y-60048D01*
X58293Y-59767D01*
X58237Y-59654D01*
X58181Y-59598D01*
X58068Y-59542D01*
X57843Y-59542D01*
X57731Y-59598D01*
X57674Y-59654D01*
X57618Y-59767D01*
X59024Y-59092D02*
X59137Y-59092D01*
X59249Y-59148D01*
X59306Y-59204D01*
X59362Y-59317D01*
X59418Y-59542D01*
X59418Y-59823D01*
X59362Y-60048D01*
X59306Y-60160D01*
X59249Y-60217D01*
X59137Y-60273D01*
X59024Y-60273D01*
X58912Y-60217D01*
X58856Y-60160D01*
X58799Y-60048D01*
X58743Y-59823D01*
X58743Y-59542D01*
X58799Y-59317D01*
X58856Y-59204D01*
X58912Y-59148D01*
X59024Y-59092D01*
X59868Y-59092D02*
X59868Y-59317D01*
X60318Y-59092D02*
X60318Y-59317D01*
X62061Y-60723D02*
X62005Y-60667D01*
X61893Y-60498D01*
X61836Y-60385D01*
X61780Y-60217D01*
X61724Y-59935D01*
X61724Y-59710D01*
X61780Y-59429D01*
X61836Y-59260D01*
X61893Y-59148D01*
X62005Y-58979D01*
X62061Y-58923D01*
X63018Y-59485D02*
X63018Y-60273D01*
X62736Y-59035D02*
X62455Y-59879D01*
X63186Y-59879D01*
X64536Y-60273D02*
X64536Y-59092D01*
X65042Y-60273D02*
X65042Y-59654D01*
X64986Y-59542D01*
X64874Y-59485D01*
X64705Y-59485D01*
X64592Y-59542D01*
X64536Y-59598D01*
X65773Y-60273D02*
X65661Y-60217D01*
X65605Y-60160D01*
X65548Y-60048D01*
X65548Y-59710D01*
X65605Y-59598D01*
X65661Y-59542D01*
X65773Y-59485D01*
X65942Y-59485D01*
X66055Y-59542D01*
X66111Y-59598D01*
X66167Y-59710D01*
X66167Y-60048D01*
X66111Y-60160D01*
X66055Y-60217D01*
X65942Y-60273D01*
X65773Y-60273D01*
X66842Y-60273D02*
X66730Y-60217D01*
X66673Y-60104D01*
X66673Y-59092D01*
X67742Y-60217D02*
X67629Y-60273D01*
X67405Y-60273D01*
X67292Y-60217D01*
X67236Y-60104D01*
X67236Y-59654D01*
X67292Y-59542D01*
X67405Y-59485D01*
X67629Y-59485D01*
X67742Y-59542D01*
X67798Y-59654D01*
X67798Y-59767D01*
X67236Y-59879D01*
X68248Y-60217D02*
X68361Y-60273D01*
X68586Y-60273D01*
X68698Y-60217D01*
X68754Y-60104D01*
X68754Y-60048D01*
X68698Y-59935D01*
X68586Y-59879D01*
X68417Y-59879D01*
X68304Y-59823D01*
X68248Y-59710D01*
X68248Y-59654D01*
X68304Y-59542D01*
X68417Y-59485D01*
X68586Y-59485D01*
X68698Y-59542D01*
X69148Y-60723D02*
X69204Y-60667D01*
X69317Y-60498D01*
X69373Y-60385D01*
X69429Y-60217D01*
X69485Y-59935D01*
X69485Y-59710D01*
X69429Y-59429D01*
X69373Y-59260D01*
X69317Y-59148D01*
X69204Y-58979D01*
X69148Y-58923D01*
X42470Y-60754D02*
X43670Y-61954D01*
X43670Y-60754D02*
X42470Y-61954D01*
G54D12*
X43670Y-61354D02*
G75*
G03X43670Y-61354I-600J0D01*
G74*
G01*
G54D13*
X44626Y-60651D02*
X45357Y-60651D01*
X44964Y-61101D01*
X45132Y-61101D01*
X45245Y-61157D01*
X45301Y-61213D01*
X45357Y-61326D01*
X45357Y-61607D01*
X45301Y-61719D01*
X45245Y-61776D01*
X45132Y-61832D01*
X44795Y-61832D01*
X44682Y-61776D01*
X44626Y-61719D01*
X45863Y-61719D02*
X45920Y-61776D01*
X45863Y-61832D01*
X45807Y-61776D01*
X45863Y-61719D01*
X45863Y-61832D01*
X46651Y-60651D02*
X46763Y-60651D01*
X46876Y-60707D01*
X46932Y-60763D01*
X46988Y-60876D01*
X47045Y-61101D01*
X47045Y-61382D01*
X46988Y-61607D01*
X46932Y-61719D01*
X46876Y-61776D01*
X46763Y-61832D01*
X46651Y-61832D01*
X46538Y-61776D01*
X46482Y-61719D01*
X46426Y-61607D01*
X46370Y-61382D01*
X46370Y-61101D01*
X46426Y-60876D01*
X46482Y-60763D01*
X46538Y-60707D01*
X46651Y-60651D01*
X48113Y-60651D02*
X47551Y-60651D01*
X47494Y-61213D01*
X47551Y-61157D01*
X47663Y-61101D01*
X47944Y-61101D01*
X48057Y-61157D01*
X48113Y-61213D01*
X48169Y-61326D01*
X48169Y-61607D01*
X48113Y-61719D01*
X48057Y-61776D01*
X47944Y-61832D01*
X47663Y-61832D01*
X47551Y-61776D01*
X47494Y-61719D01*
X48676Y-61832D02*
X48676Y-61044D01*
X48676Y-61157D02*
X48732Y-61101D01*
X48844Y-61044D01*
X49013Y-61044D01*
X49126Y-61101D01*
X49182Y-61213D01*
X49182Y-61832D01*
X49182Y-61213D02*
X49238Y-61101D01*
X49351Y-61044D01*
X49519Y-61044D01*
X49632Y-61101D01*
X49688Y-61213D01*
X49688Y-61832D01*
X50250Y-61832D02*
X50250Y-61044D01*
X50250Y-61157D02*
X50307Y-61101D01*
X50419Y-61044D01*
X50588Y-61044D01*
X50700Y-61101D01*
X50757Y-61213D01*
X50757Y-61832D01*
X50757Y-61213D02*
X50813Y-61101D01*
X50925Y-61044D01*
X51094Y-61044D01*
X51207Y-61101D01*
X51263Y-61213D01*
X51263Y-61832D01*
X53569Y-60595D02*
X52556Y-62113D01*
X55087Y-60651D02*
X55200Y-60651D01*
X55312Y-60707D01*
X55369Y-60763D01*
X55425Y-60876D01*
X55481Y-61101D01*
X55481Y-61382D01*
X55425Y-61607D01*
X55369Y-61719D01*
X55312Y-61776D01*
X55200Y-61832D01*
X55087Y-61832D01*
X54975Y-61776D01*
X54919Y-61719D01*
X54862Y-61607D01*
X54806Y-61382D01*
X54806Y-61101D01*
X54862Y-60876D01*
X54919Y-60763D01*
X54975Y-60707D01*
X55087Y-60651D01*
X55987Y-61719D02*
X56043Y-61776D01*
X55987Y-61832D01*
X55931Y-61776D01*
X55987Y-61719D01*
X55987Y-61832D01*
X57168Y-61832D02*
X56493Y-61832D01*
X56831Y-61832D02*
X56831Y-60651D01*
X56718Y-60820D01*
X56606Y-60932D01*
X56493Y-60988D01*
X57618Y-60763D02*
X57674Y-60707D01*
X57787Y-60651D01*
X58068Y-60651D01*
X58181Y-60707D01*
X58237Y-60763D01*
X58293Y-60876D01*
X58293Y-60988D01*
X58237Y-61157D01*
X57562Y-61832D01*
X58293Y-61832D01*
X59024Y-60651D02*
X59137Y-60651D01*
X59249Y-60707D01*
X59306Y-60763D01*
X59362Y-60876D01*
X59418Y-61101D01*
X59418Y-61382D01*
X59362Y-61607D01*
X59306Y-61719D01*
X59249Y-61776D01*
X59137Y-61832D01*
X59024Y-61832D01*
X58912Y-61776D01*
X58856Y-61719D01*
X58799Y-61607D01*
X58743Y-61382D01*
X58743Y-61101D01*
X58799Y-60876D01*
X58856Y-60763D01*
X58912Y-60707D01*
X59024Y-60651D01*
X59868Y-60651D02*
X59868Y-60876D01*
X60318Y-60651D02*
X60318Y-60876D01*
X62061Y-62282D02*
X62005Y-62226D01*
X61893Y-62057D01*
X61836Y-61944D01*
X61780Y-61776D01*
X61724Y-61494D01*
X61724Y-61269D01*
X61780Y-60988D01*
X61836Y-60820D01*
X61893Y-60707D01*
X62005Y-60538D01*
X62061Y-60482D01*
X63018Y-61044D02*
X63018Y-61832D01*
X62736Y-60595D02*
X62455Y-61438D01*
X63186Y-61438D01*
X64536Y-61832D02*
X64536Y-60651D01*
X65042Y-61832D02*
X65042Y-61213D01*
X64986Y-61101D01*
X64874Y-61044D01*
X64705Y-61044D01*
X64592Y-61101D01*
X64536Y-61157D01*
X65773Y-61832D02*
X65661Y-61776D01*
X65605Y-61719D01*
X65548Y-61607D01*
X65548Y-61269D01*
X65605Y-61157D01*
X65661Y-61101D01*
X65773Y-61044D01*
X65942Y-61044D01*
X66055Y-61101D01*
X66111Y-61157D01*
X66167Y-61269D01*
X66167Y-61607D01*
X66111Y-61719D01*
X66055Y-61776D01*
X65942Y-61832D01*
X65773Y-61832D01*
X66842Y-61832D02*
X66730Y-61776D01*
X66673Y-61663D01*
X66673Y-60651D01*
X67742Y-61776D02*
X67629Y-61832D01*
X67405Y-61832D01*
X67292Y-61776D01*
X67236Y-61663D01*
X67236Y-61213D01*
X67292Y-61101D01*
X67405Y-61044D01*
X67629Y-61044D01*
X67742Y-61101D01*
X67798Y-61213D01*
X67798Y-61326D01*
X67236Y-61438D01*
X68248Y-61776D02*
X68361Y-61832D01*
X68586Y-61832D01*
X68698Y-61776D01*
X68754Y-61663D01*
X68754Y-61607D01*
X68698Y-61494D01*
X68586Y-61438D01*
X68417Y-61438D01*
X68304Y-61382D01*
X68248Y-61269D01*
X68248Y-61213D01*
X68304Y-61101D01*
X68417Y-61044D01*
X68586Y-61044D01*
X68698Y-61101D01*
X69148Y-62282D02*
X69204Y-62226D01*
X69317Y-62057D01*
X69373Y-61944D01*
X69429Y-61776D01*
X69485Y-61494D01*
X69485Y-61269D01*
X69429Y-60988D01*
X69373Y-60820D01*
X69317Y-60707D01*
X69204Y-60538D01*
X69148Y-60482D01*
M02*
