G04 (created by PCBNEW (2013-june-11)-stable) date Sat 23 Jun 2018 10:31:18 EDT*
%MOIN*%
G04 Gerber Fmt 3.4, Leading zero omitted, Abs format*
%FSLAX34Y34*%
G01*
G70*
G90*
G04 APERTURE LIST*
%ADD10C,0.00393701*%
%ADD11O,0.068X0.08*%
%ADD12C,0.16*%
%ADD13C,0.055*%
%ADD14R,0.06X0.06*%
%ADD15C,0.06*%
%ADD16R,0.055X0.055*%
%ADD17R,0.1181X0.1181*%
%ADD18C,0.1181*%
%ADD19R,0.1X0.1*%
%ADD20C,0.1*%
G04 APERTURE END LIST*
G54D10*
G54D11*
X54700Y-48750D03*
X55700Y-48750D03*
X56700Y-48750D03*
X57700Y-48750D03*
X58700Y-48750D03*
X59700Y-48750D03*
X60700Y-48750D03*
X61700Y-48750D03*
X63700Y-48750D03*
X64700Y-48750D03*
X65700Y-48750D03*
X66700Y-48750D03*
X67700Y-48750D03*
X68700Y-48750D03*
X51100Y-29750D03*
X52100Y-29750D03*
X53100Y-29750D03*
X54100Y-29750D03*
X55100Y-29750D03*
X56100Y-29750D03*
X57100Y-29750D03*
X58100Y-29750D03*
X59100Y-29750D03*
X60100Y-29750D03*
X61700Y-29750D03*
X62700Y-29750D03*
X63700Y-29750D03*
X64700Y-29750D03*
X65700Y-29750D03*
X66700Y-29750D03*
X67700Y-29750D03*
X68700Y-29750D03*
G54D12*
X49200Y-48750D03*
X69700Y-46750D03*
X49700Y-29750D03*
X69700Y-35750D03*
G54D13*
X46500Y-43000D03*
X46500Y-42000D03*
X46500Y-40500D03*
X46500Y-39500D03*
X62000Y-41500D03*
X62000Y-40500D03*
X57000Y-42500D03*
X58000Y-42500D03*
G54D14*
X45000Y-40000D03*
G54D15*
X45000Y-41000D03*
X45000Y-42000D03*
X45000Y-43000D03*
X45000Y-44000D03*
G54D14*
X65500Y-36000D03*
G54D15*
X65500Y-35000D03*
X65500Y-34000D03*
X65500Y-33000D03*
G54D14*
X63500Y-36000D03*
G54D15*
X63500Y-35000D03*
X63500Y-34000D03*
X63500Y-33000D03*
G54D14*
X61500Y-36000D03*
G54D15*
X61500Y-35000D03*
X61500Y-34000D03*
X61500Y-33000D03*
G54D16*
X59000Y-42500D03*
G54D13*
X59000Y-43500D03*
X59000Y-44500D03*
X59000Y-45500D03*
X62000Y-45500D03*
X62000Y-44500D03*
X62000Y-43500D03*
X62000Y-42500D03*
G54D16*
X50500Y-47000D03*
G54D13*
X51500Y-47000D03*
X52500Y-47000D03*
X53500Y-47000D03*
X53500Y-44000D03*
X52500Y-44000D03*
X51500Y-44000D03*
X50500Y-44000D03*
G54D16*
X56500Y-33500D03*
G54D13*
X56500Y-34500D03*
X56500Y-35500D03*
X56500Y-36500D03*
X56500Y-37500D03*
X56500Y-38500D03*
X56500Y-39500D03*
X56500Y-40500D03*
X59500Y-40500D03*
X59500Y-39500D03*
X59500Y-38500D03*
X59500Y-37500D03*
X59500Y-36500D03*
X59500Y-35500D03*
X59500Y-34500D03*
X59500Y-33500D03*
G54D16*
X49500Y-33500D03*
G54D13*
X49500Y-34500D03*
X49500Y-35500D03*
X49500Y-36500D03*
X49500Y-37500D03*
X49500Y-38500D03*
X49500Y-39500D03*
X49500Y-40500D03*
X52500Y-40500D03*
X52500Y-39500D03*
X52500Y-38500D03*
X52500Y-37500D03*
X52500Y-36500D03*
X52500Y-35500D03*
X52500Y-34500D03*
X52500Y-33500D03*
X48500Y-38500D03*
X48500Y-39500D03*
X51500Y-31500D03*
X50500Y-31500D03*
X47000Y-36000D03*
X47000Y-37000D03*
X48500Y-36000D03*
X48500Y-37000D03*
X55500Y-33500D03*
X55500Y-34500D03*
X55500Y-36000D03*
X55500Y-37000D03*
X54000Y-36000D03*
X54000Y-37000D03*
X55500Y-38500D03*
X55500Y-39500D03*
X58500Y-31500D03*
X57500Y-31500D03*
X48500Y-33500D03*
X48500Y-34500D03*
G54D17*
X68500Y-41500D03*
G54D18*
X68500Y-43500D03*
G54D19*
X64500Y-45511D03*
G54D20*
X64500Y-43503D03*
X64500Y-41496D03*
X64500Y-39488D03*
G54D14*
X55000Y-46500D03*
G54D15*
X56000Y-46500D03*
X57000Y-46500D03*
X58000Y-46500D03*
G54D13*
X51500Y-48500D03*
X52500Y-48500D03*
M02*
