G04 (created by PCBNEW (2013-june-11)-stable) date Sun 17 Jun 2018 11:09:32 EDT*
%MOIN*%
G04 Gerber Fmt 3.4, Leading zero omitted, Abs format*
%FSLAX34Y34*%
G01*
G70*
G90*
G04 APERTURE LIST*
%ADD10C,0.00393701*%
%ADD11O,0.068X0.08*%
%ADD12C,0.16*%
%ADD13C,0.055*%
%ADD14R,0.06X0.06*%
%ADD15C,0.06*%
%ADD16R,0.055X0.055*%
%ADD17R,0.1181X0.1181*%
%ADD18C,0.1181*%
%ADD19R,0.1X0.1*%
%ADD20C,0.1*%
%ADD21C,0.023622*%
%ADD22C,0.00984252*%
%ADD23C,0.0551181*%
%ADD24C,0.01*%
G04 APERTURE END LIST*
G54D10*
G54D11*
X54700Y-48750D03*
X55700Y-48750D03*
X56700Y-48750D03*
X57700Y-48750D03*
X58700Y-48750D03*
X59700Y-48750D03*
X60700Y-48750D03*
X61700Y-48750D03*
X63700Y-48750D03*
X64700Y-48750D03*
X65700Y-48750D03*
X66700Y-48750D03*
X67700Y-48750D03*
X68700Y-48750D03*
X51100Y-29750D03*
X52100Y-29750D03*
X53100Y-29750D03*
X54100Y-29750D03*
X55100Y-29750D03*
X56100Y-29750D03*
X57100Y-29750D03*
X58100Y-29750D03*
X59100Y-29750D03*
X60100Y-29750D03*
X61700Y-29750D03*
X62700Y-29750D03*
X63700Y-29750D03*
X64700Y-29750D03*
X65700Y-29750D03*
X66700Y-29750D03*
X67700Y-29750D03*
X68700Y-29750D03*
G54D12*
X49200Y-48750D03*
X69700Y-46750D03*
X49700Y-29750D03*
X69700Y-35750D03*
G54D13*
X46500Y-43000D03*
X46500Y-42000D03*
X46500Y-40500D03*
X46500Y-39500D03*
X62000Y-41500D03*
X62000Y-40500D03*
X57000Y-42500D03*
X58000Y-42500D03*
G54D14*
X45000Y-40000D03*
G54D15*
X45000Y-41000D03*
X45000Y-42000D03*
X45000Y-43000D03*
X45000Y-44000D03*
G54D14*
X65500Y-36000D03*
G54D15*
X65500Y-35000D03*
X65500Y-34000D03*
X65500Y-33000D03*
G54D14*
X63500Y-36000D03*
G54D15*
X63500Y-35000D03*
X63500Y-34000D03*
X63500Y-33000D03*
G54D14*
X61500Y-36000D03*
G54D15*
X61500Y-35000D03*
X61500Y-34000D03*
X61500Y-33000D03*
G54D16*
X59000Y-42500D03*
G54D13*
X59000Y-43500D03*
X59000Y-44500D03*
X59000Y-45500D03*
X62000Y-45500D03*
X62000Y-44500D03*
X62000Y-43500D03*
X62000Y-42500D03*
G54D16*
X50500Y-47000D03*
G54D13*
X51500Y-47000D03*
X52500Y-47000D03*
X53500Y-47000D03*
X53500Y-44000D03*
X52500Y-44000D03*
X51500Y-44000D03*
X50500Y-44000D03*
G54D16*
X56500Y-33500D03*
G54D13*
X56500Y-34500D03*
X56500Y-35500D03*
X56500Y-36500D03*
X56500Y-37500D03*
X56500Y-38500D03*
X56500Y-39500D03*
X56500Y-40500D03*
X59500Y-40500D03*
X59500Y-39500D03*
X59500Y-38500D03*
X59500Y-37500D03*
X59500Y-36500D03*
X59500Y-35500D03*
X59500Y-34500D03*
X59500Y-33500D03*
G54D16*
X49500Y-33500D03*
G54D13*
X49500Y-34500D03*
X49500Y-35500D03*
X49500Y-36500D03*
X49500Y-37500D03*
X49500Y-38500D03*
X49500Y-39500D03*
X49500Y-40500D03*
X52500Y-40500D03*
X52500Y-39500D03*
X52500Y-38500D03*
X52500Y-37500D03*
X52500Y-36500D03*
X52500Y-35500D03*
X52500Y-34500D03*
X52500Y-33500D03*
X48500Y-38500D03*
X48500Y-39500D03*
X51500Y-31500D03*
X50500Y-31500D03*
X47000Y-36000D03*
X47000Y-37000D03*
X48500Y-36000D03*
X48500Y-37000D03*
X55500Y-33500D03*
X55500Y-34500D03*
X55500Y-36000D03*
X55500Y-37000D03*
X54000Y-36000D03*
X54000Y-37000D03*
X55500Y-38500D03*
X55500Y-39500D03*
X58500Y-31500D03*
X57500Y-31500D03*
X48500Y-33500D03*
X48500Y-34500D03*
G54D17*
X68500Y-41500D03*
G54D18*
X68500Y-43500D03*
G54D19*
X64500Y-45511D03*
G54D20*
X64500Y-43503D03*
X64500Y-41496D03*
X64500Y-39488D03*
G54D13*
X51000Y-48000D03*
X51000Y-49000D03*
X52000Y-49000D03*
X52000Y-48000D03*
X56000Y-44000D03*
X56000Y-45000D03*
X57000Y-45000D03*
X57000Y-44000D03*
X60500Y-47000D03*
X59500Y-47000D03*
X62000Y-47000D03*
X63000Y-47000D03*
G54D14*
X55000Y-46500D03*
G54D15*
X56000Y-46500D03*
X57000Y-46500D03*
X58000Y-46500D03*
G54D13*
X68000Y-31000D03*
X68000Y-32000D03*
X67000Y-32000D03*
X67000Y-31000D03*
G54D21*
X50000Y-30800D03*
X63450Y-47800D03*
X53200Y-32300D03*
X60100Y-32300D03*
X61500Y-46000D03*
X61550Y-38500D03*
X54000Y-49000D03*
X54500Y-47000D03*
X61100Y-40500D03*
X61100Y-38150D03*
X64750Y-38150D03*
X58750Y-39500D03*
X56000Y-41800D03*
X51700Y-41750D03*
X67000Y-47500D03*
X60300Y-35000D03*
X60300Y-40000D03*
X60650Y-35450D03*
X60650Y-41000D03*
X49000Y-47150D03*
X54400Y-32700D03*
X60750Y-32700D03*
X60700Y-34450D03*
X52900Y-35000D03*
X54350Y-34900D03*
X53500Y-38950D03*
X51500Y-42050D03*
X54650Y-32950D03*
X54550Y-36450D03*
X52000Y-40000D03*
X60000Y-34000D03*
X60100Y-41500D03*
G54D22*
X50000Y-30700D02*
X50050Y-30650D01*
X57700Y-48100D02*
X57700Y-48750D01*
X58000Y-47800D02*
X57700Y-48100D01*
X63450Y-47800D02*
X58000Y-47800D01*
X59500Y-33500D02*
X59500Y-33550D01*
X53000Y-34000D02*
X52500Y-33500D01*
X59050Y-34000D02*
X53000Y-34000D01*
X59500Y-33550D02*
X59050Y-34000D01*
X67000Y-31000D02*
X68000Y-31000D01*
X60100Y-32300D02*
X53200Y-32300D01*
X55000Y-46500D02*
X55500Y-46000D01*
X55500Y-46000D02*
X61500Y-46000D01*
X59500Y-38500D02*
X59450Y-38500D01*
X53000Y-38000D02*
X52500Y-38500D01*
X58950Y-38000D02*
X53000Y-38000D01*
X59450Y-38500D02*
X58950Y-38000D01*
X61550Y-38500D02*
X59500Y-38500D01*
X56000Y-46500D02*
X55500Y-47000D01*
X54000Y-49000D02*
X52000Y-49000D01*
X55500Y-47000D02*
X54500Y-47000D01*
X51000Y-49000D02*
X52000Y-49000D01*
X56000Y-45000D02*
X57000Y-45000D01*
X62000Y-47000D02*
X61500Y-46500D01*
X60000Y-46500D02*
X59500Y-47000D01*
X61500Y-46500D02*
X60000Y-46500D01*
X59500Y-47000D02*
X58500Y-47000D01*
X58500Y-47000D02*
X58000Y-46500D01*
X54000Y-36000D02*
X54550Y-36000D01*
X55050Y-36500D02*
X56500Y-36500D01*
X54550Y-36000D02*
X55050Y-36500D01*
X58000Y-42500D02*
X59000Y-42500D01*
X64500Y-43503D02*
X62946Y-43503D01*
X59500Y-44000D02*
X59000Y-43500D01*
X62450Y-44000D02*
X59500Y-44000D01*
X62946Y-43503D02*
X62450Y-44000D01*
G54D23*
X68500Y-43500D02*
X64503Y-43500D01*
X64503Y-43500D02*
X64500Y-43503D01*
G54D22*
X64500Y-41496D02*
X62803Y-41496D01*
X57500Y-42000D02*
X57000Y-42500D01*
X62300Y-42000D02*
X57500Y-42000D01*
X62803Y-41496D02*
X62300Y-42000D01*
G54D23*
X68500Y-41500D02*
X64503Y-41500D01*
X64503Y-41500D02*
X64500Y-41496D01*
G54D22*
X61100Y-40500D02*
X59500Y-40500D01*
X64750Y-38150D02*
X61100Y-38150D01*
X55500Y-33500D02*
X56500Y-33500D01*
X56500Y-39500D02*
X58750Y-39500D01*
X51750Y-41800D02*
X56000Y-41800D01*
X51700Y-41750D02*
X51750Y-41800D01*
X64200Y-47500D02*
X52000Y-47500D01*
X67000Y-47500D02*
X66700Y-47500D01*
X66700Y-47500D02*
X64200Y-47500D01*
X52000Y-47500D02*
X51500Y-47000D01*
X52500Y-40500D02*
X55650Y-40500D01*
X60300Y-35000D02*
X61500Y-35000D01*
X56150Y-40000D02*
X60300Y-40000D01*
X55650Y-40500D02*
X56150Y-40000D01*
X56500Y-40500D02*
X56500Y-40600D01*
X65500Y-35050D02*
X65500Y-35000D01*
X65100Y-35450D02*
X65500Y-35050D01*
X60650Y-35450D02*
X65100Y-35450D01*
X56900Y-41000D02*
X60650Y-41000D01*
X56500Y-40600D02*
X56900Y-41000D01*
X55500Y-38500D02*
X56500Y-38500D01*
X50550Y-47550D02*
X51000Y-48000D01*
X49400Y-47550D02*
X50550Y-47550D01*
X49000Y-47150D02*
X49400Y-47550D01*
X54400Y-32700D02*
X54450Y-32750D01*
X54500Y-32700D02*
X60750Y-32700D01*
X54450Y-32750D02*
X54500Y-32700D01*
X60700Y-34450D02*
X60750Y-34500D01*
X60750Y-34500D02*
X63000Y-34500D01*
X63500Y-35000D02*
X63000Y-34500D01*
X54250Y-35000D02*
X52900Y-35000D01*
X54350Y-34900D02*
X54250Y-35000D01*
X48500Y-38500D02*
X49500Y-38500D01*
X47000Y-37000D02*
X47350Y-37000D01*
X47850Y-37500D02*
X49500Y-37500D01*
X47350Y-37000D02*
X47850Y-37500D01*
X47000Y-36000D02*
X47400Y-36000D01*
X47900Y-36500D02*
X49500Y-36500D01*
X47400Y-36000D02*
X47900Y-36500D01*
X48500Y-34500D02*
X48500Y-35100D01*
X48900Y-35500D02*
X49500Y-35500D01*
X48500Y-35100D02*
X48900Y-35500D01*
X49500Y-33500D02*
X48500Y-33500D01*
X54000Y-37000D02*
X54500Y-37000D01*
X55000Y-37500D02*
X56500Y-37500D01*
X54500Y-37000D02*
X55000Y-37500D01*
X46500Y-39500D02*
X47550Y-39500D01*
X53450Y-39000D02*
X53500Y-38950D01*
X48050Y-39000D02*
X53450Y-39000D01*
X47550Y-39500D02*
X48050Y-39000D01*
X46500Y-39500D02*
X45500Y-39500D01*
X45500Y-39500D02*
X45000Y-40000D01*
X55500Y-34500D02*
X55500Y-34900D01*
X56100Y-35500D02*
X56500Y-35500D01*
X55500Y-34900D02*
X56100Y-35500D01*
X46500Y-42000D02*
X51450Y-42000D01*
X51450Y-42000D02*
X51500Y-42050D01*
X46500Y-42000D02*
X45000Y-42000D01*
X63500Y-33950D02*
X63050Y-33500D01*
X63050Y-33500D02*
X60400Y-33500D01*
X60400Y-33500D02*
X59850Y-32950D01*
X59850Y-32950D02*
X54650Y-32950D01*
X63500Y-33950D02*
X63500Y-34000D01*
X53500Y-36500D02*
X54500Y-36500D01*
X52500Y-37500D02*
X53500Y-36500D01*
X54500Y-36500D02*
X54550Y-36450D01*
X50500Y-44000D02*
X50500Y-43450D01*
X50050Y-43000D02*
X46500Y-43000D01*
X50500Y-43450D02*
X50050Y-43000D01*
X46500Y-43000D02*
X45000Y-43000D01*
X46500Y-40400D02*
X46500Y-40500D01*
X46900Y-40000D02*
X46500Y-40400D01*
X52000Y-40000D02*
X46900Y-40000D01*
X46500Y-40500D02*
X45500Y-40500D01*
X45500Y-40500D02*
X45000Y-41000D01*
X49500Y-40500D02*
X49600Y-40500D01*
X60000Y-34000D02*
X61500Y-34000D01*
X50050Y-41500D02*
X60100Y-41500D01*
X49600Y-40500D02*
X50050Y-41500D01*
G54D10*
G36*
X60133Y-33656D02*
X60073Y-33631D01*
X59927Y-33631D01*
X59791Y-33687D01*
X59688Y-33791D01*
X59631Y-33926D01*
X59631Y-33986D01*
X59604Y-33975D01*
X59396Y-33974D01*
X59203Y-34054D01*
X59055Y-34202D01*
X58975Y-34395D01*
X58974Y-34603D01*
X59054Y-34797D01*
X59202Y-34944D01*
X59335Y-35000D01*
X59203Y-35054D01*
X59055Y-35202D01*
X58975Y-35395D01*
X58974Y-35603D01*
X59054Y-35797D01*
X59202Y-35944D01*
X59335Y-36000D01*
X59203Y-36054D01*
X59055Y-36202D01*
X58975Y-36395D01*
X58974Y-36603D01*
X59054Y-36797D01*
X59202Y-36944D01*
X59335Y-37000D01*
X59203Y-37054D01*
X59055Y-37202D01*
X58975Y-37395D01*
X58974Y-37603D01*
X59020Y-37714D01*
X58950Y-37700D01*
X56985Y-37700D01*
X57024Y-37604D01*
X57025Y-37396D01*
X56945Y-37203D01*
X56797Y-37055D01*
X56664Y-36999D01*
X56797Y-36945D01*
X56944Y-36797D01*
X57024Y-36604D01*
X57025Y-36396D01*
X56945Y-36203D01*
X56797Y-36055D01*
X56664Y-35999D01*
X56797Y-35945D01*
X56944Y-35797D01*
X57024Y-35604D01*
X57025Y-35396D01*
X56945Y-35203D01*
X56797Y-35055D01*
X56664Y-34999D01*
X56797Y-34945D01*
X56944Y-34797D01*
X57024Y-34604D01*
X57025Y-34396D01*
X56945Y-34203D01*
X56797Y-34055D01*
X56725Y-34025D01*
X56824Y-34025D01*
X56916Y-33987D01*
X56986Y-33916D01*
X57024Y-33824D01*
X57025Y-33725D01*
X57025Y-33249D01*
X59726Y-33249D01*
X60133Y-33656D01*
X60133Y-33656D01*
G37*
G54D24*
X60133Y-33656D02*
X60073Y-33631D01*
X59927Y-33631D01*
X59791Y-33687D01*
X59688Y-33791D01*
X59631Y-33926D01*
X59631Y-33986D01*
X59604Y-33975D01*
X59396Y-33974D01*
X59203Y-34054D01*
X59055Y-34202D01*
X58975Y-34395D01*
X58974Y-34603D01*
X59054Y-34797D01*
X59202Y-34944D01*
X59335Y-35000D01*
X59203Y-35054D01*
X59055Y-35202D01*
X58975Y-35395D01*
X58974Y-35603D01*
X59054Y-35797D01*
X59202Y-35944D01*
X59335Y-36000D01*
X59203Y-36054D01*
X59055Y-36202D01*
X58975Y-36395D01*
X58974Y-36603D01*
X59054Y-36797D01*
X59202Y-36944D01*
X59335Y-37000D01*
X59203Y-37054D01*
X59055Y-37202D01*
X58975Y-37395D01*
X58974Y-37603D01*
X59020Y-37714D01*
X58950Y-37700D01*
X56985Y-37700D01*
X57024Y-37604D01*
X57025Y-37396D01*
X56945Y-37203D01*
X56797Y-37055D01*
X56664Y-36999D01*
X56797Y-36945D01*
X56944Y-36797D01*
X57024Y-36604D01*
X57025Y-36396D01*
X56945Y-36203D01*
X56797Y-36055D01*
X56664Y-35999D01*
X56797Y-35945D01*
X56944Y-35797D01*
X57024Y-35604D01*
X57025Y-35396D01*
X56945Y-35203D01*
X56797Y-35055D01*
X56664Y-34999D01*
X56797Y-34945D01*
X56944Y-34797D01*
X57024Y-34604D01*
X57025Y-34396D01*
X56945Y-34203D01*
X56797Y-34055D01*
X56725Y-34025D01*
X56824Y-34025D01*
X56916Y-33987D01*
X56986Y-33916D01*
X57024Y-33824D01*
X57025Y-33725D01*
X57025Y-33249D01*
X59726Y-33249D01*
X60133Y-33656D01*
G54D10*
G36*
X70420Y-47634D02*
X69502Y-48552D01*
X69441Y-48643D01*
X69420Y-48750D01*
X69420Y-49470D01*
X52236Y-49470D01*
X52297Y-49445D01*
X52443Y-49299D01*
X53778Y-49299D01*
X53791Y-49311D01*
X53926Y-49368D01*
X54072Y-49368D01*
X54208Y-49312D01*
X54281Y-49238D01*
X54282Y-49239D01*
X54474Y-49367D01*
X54700Y-49412D01*
X54925Y-49367D01*
X55117Y-49239D01*
X55200Y-49115D01*
X55282Y-49239D01*
X55474Y-49367D01*
X55700Y-49412D01*
X55925Y-49367D01*
X56117Y-49239D01*
X56200Y-49115D01*
X56282Y-49239D01*
X56474Y-49367D01*
X56700Y-49412D01*
X56925Y-49367D01*
X57117Y-49239D01*
X57200Y-49115D01*
X57282Y-49239D01*
X57474Y-49367D01*
X57700Y-49412D01*
X57925Y-49367D01*
X58117Y-49239D01*
X58245Y-49048D01*
X58290Y-48822D01*
X58290Y-48677D01*
X58245Y-48451D01*
X58117Y-48260D01*
X58024Y-48198D01*
X58123Y-48099D01*
X59639Y-48099D01*
X59474Y-48132D01*
X59282Y-48260D01*
X59154Y-48451D01*
X59110Y-48677D01*
X59110Y-48822D01*
X59154Y-49048D01*
X59282Y-49239D01*
X59474Y-49367D01*
X59700Y-49412D01*
X59925Y-49367D01*
X60117Y-49239D01*
X60200Y-49115D01*
X60282Y-49239D01*
X60474Y-49367D01*
X60700Y-49412D01*
X60925Y-49367D01*
X61117Y-49239D01*
X61200Y-49115D01*
X61282Y-49239D01*
X61474Y-49367D01*
X61700Y-49412D01*
X61925Y-49367D01*
X62117Y-49239D01*
X62245Y-49048D01*
X62290Y-48822D01*
X62290Y-48677D01*
X62245Y-48451D01*
X62117Y-48260D01*
X61925Y-48132D01*
X61760Y-48099D01*
X63228Y-48099D01*
X63241Y-48111D01*
X63376Y-48168D01*
X63420Y-48168D01*
X63282Y-48260D01*
X63154Y-48451D01*
X63110Y-48677D01*
X63110Y-48822D01*
X63154Y-49048D01*
X63282Y-49239D01*
X63474Y-49367D01*
X63700Y-49412D01*
X63925Y-49367D01*
X64117Y-49239D01*
X64200Y-49115D01*
X64282Y-49239D01*
X64474Y-49367D01*
X64700Y-49412D01*
X64925Y-49367D01*
X65117Y-49239D01*
X65200Y-49115D01*
X65282Y-49239D01*
X65474Y-49367D01*
X65700Y-49412D01*
X65925Y-49367D01*
X66117Y-49239D01*
X66200Y-49115D01*
X66282Y-49239D01*
X66474Y-49367D01*
X66700Y-49412D01*
X66925Y-49367D01*
X67117Y-49239D01*
X67200Y-49115D01*
X67282Y-49239D01*
X67474Y-49367D01*
X67700Y-49412D01*
X67925Y-49367D01*
X68117Y-49239D01*
X68200Y-49115D01*
X68282Y-49239D01*
X68474Y-49367D01*
X68700Y-49412D01*
X68925Y-49367D01*
X69117Y-49239D01*
X69245Y-49048D01*
X69290Y-48822D01*
X69290Y-48677D01*
X69245Y-48451D01*
X69117Y-48260D01*
X68925Y-48132D01*
X68700Y-48087D01*
X68474Y-48132D01*
X68282Y-48260D01*
X68200Y-48384D01*
X68117Y-48260D01*
X67925Y-48132D01*
X67700Y-48087D01*
X67474Y-48132D01*
X67282Y-48260D01*
X67200Y-48384D01*
X67117Y-48260D01*
X66925Y-48132D01*
X66700Y-48087D01*
X66474Y-48132D01*
X66282Y-48260D01*
X66200Y-48384D01*
X66117Y-48260D01*
X65925Y-48132D01*
X65700Y-48087D01*
X65474Y-48132D01*
X65282Y-48260D01*
X65200Y-48384D01*
X65117Y-48260D01*
X64925Y-48132D01*
X64700Y-48087D01*
X64474Y-48132D01*
X64282Y-48260D01*
X64200Y-48384D01*
X64117Y-48260D01*
X63925Y-48132D01*
X63700Y-48087D01*
X63679Y-48091D01*
X63761Y-48008D01*
X63818Y-47873D01*
X63818Y-47799D01*
X64200Y-47799D01*
X66700Y-47799D01*
X66778Y-47799D01*
X66791Y-47811D01*
X66926Y-47868D01*
X67072Y-47868D01*
X67208Y-47812D01*
X67311Y-47708D01*
X67368Y-47573D01*
X67368Y-47427D01*
X67312Y-47291D01*
X67208Y-47188D01*
X67073Y-47131D01*
X66927Y-47131D01*
X66791Y-47187D01*
X66778Y-47200D01*
X66700Y-47200D01*
X65250Y-47200D01*
X65250Y-45962D01*
X65250Y-44962D01*
X65212Y-44870D01*
X65141Y-44799D01*
X65049Y-44761D01*
X64950Y-44761D01*
X63950Y-44761D01*
X63858Y-44799D01*
X63788Y-44870D01*
X63750Y-44961D01*
X63749Y-45061D01*
X63749Y-46061D01*
X63787Y-46153D01*
X63858Y-46223D01*
X63950Y-46261D01*
X64049Y-46261D01*
X65049Y-46261D01*
X65141Y-46223D01*
X65211Y-46153D01*
X65249Y-46061D01*
X65250Y-45962D01*
X65250Y-47200D01*
X64200Y-47200D01*
X63485Y-47200D01*
X63524Y-47104D01*
X63525Y-46896D01*
X63445Y-46703D01*
X63297Y-46555D01*
X63104Y-46475D01*
X62896Y-46474D01*
X62703Y-46554D01*
X62555Y-46702D01*
X62499Y-46835D01*
X62445Y-46703D01*
X62297Y-46555D01*
X62104Y-46475D01*
X61898Y-46474D01*
X61721Y-46298D01*
X61811Y-46208D01*
X61868Y-46073D01*
X61868Y-46013D01*
X61895Y-46024D01*
X62103Y-46025D01*
X62297Y-45945D01*
X62444Y-45797D01*
X62524Y-45604D01*
X62525Y-45396D01*
X62445Y-45203D01*
X62297Y-45055D01*
X62164Y-44999D01*
X62297Y-44945D01*
X62444Y-44797D01*
X62524Y-44604D01*
X62525Y-44396D01*
X62482Y-44292D01*
X62564Y-44276D01*
X62661Y-44211D01*
X63070Y-43803D01*
X63812Y-43803D01*
X63863Y-43928D01*
X64074Y-44139D01*
X64350Y-44253D01*
X64648Y-44254D01*
X64924Y-44140D01*
X65039Y-44025D01*
X67837Y-44025D01*
X68023Y-44212D01*
X68332Y-44340D01*
X68666Y-44340D01*
X68975Y-44212D01*
X69212Y-43976D01*
X69340Y-43667D01*
X69340Y-43333D01*
X69212Y-43024D01*
X68976Y-42787D01*
X68667Y-42659D01*
X68333Y-42659D01*
X68024Y-42787D01*
X67836Y-42974D01*
X65031Y-42974D01*
X64925Y-42868D01*
X64649Y-42754D01*
X64351Y-42753D01*
X64075Y-42867D01*
X63864Y-43078D01*
X63812Y-43204D01*
X62946Y-43204D01*
X62831Y-43227D01*
X62734Y-43292D01*
X62524Y-43501D01*
X62525Y-43396D01*
X62445Y-43203D01*
X62297Y-43055D01*
X62164Y-42999D01*
X62297Y-42945D01*
X62444Y-42797D01*
X62524Y-42604D01*
X62525Y-42396D01*
X62462Y-42244D01*
X62511Y-42211D01*
X62927Y-41795D01*
X63812Y-41795D01*
X63863Y-41920D01*
X64074Y-42131D01*
X64350Y-42245D01*
X64648Y-42246D01*
X64924Y-42132D01*
X65031Y-42025D01*
X67659Y-42025D01*
X67659Y-42140D01*
X67697Y-42231D01*
X67767Y-42302D01*
X67859Y-42340D01*
X67959Y-42340D01*
X69140Y-42340D01*
X69231Y-42302D01*
X69302Y-42232D01*
X69340Y-42140D01*
X69340Y-42040D01*
X69340Y-40859D01*
X69302Y-40768D01*
X69232Y-40697D01*
X69140Y-40659D01*
X69040Y-40659D01*
X68525Y-40659D01*
X68525Y-31896D01*
X68445Y-31703D01*
X68297Y-31555D01*
X68164Y-31499D01*
X68297Y-31445D01*
X68444Y-31297D01*
X68524Y-31104D01*
X68525Y-30896D01*
X68445Y-30703D01*
X68297Y-30555D01*
X68104Y-30475D01*
X67896Y-30474D01*
X67703Y-30554D01*
X67556Y-30700D01*
X67443Y-30700D01*
X67297Y-30555D01*
X67104Y-30475D01*
X66896Y-30474D01*
X66703Y-30554D01*
X66555Y-30702D01*
X66475Y-30895D01*
X66474Y-31103D01*
X66554Y-31297D01*
X66702Y-31444D01*
X66835Y-31500D01*
X66703Y-31554D01*
X66555Y-31702D01*
X66475Y-31895D01*
X66474Y-32103D01*
X66554Y-32297D01*
X66702Y-32444D01*
X66895Y-32524D01*
X67103Y-32525D01*
X67297Y-32445D01*
X67444Y-32297D01*
X67500Y-32164D01*
X67554Y-32297D01*
X67702Y-32444D01*
X67895Y-32524D01*
X68103Y-32525D01*
X68297Y-32445D01*
X68444Y-32297D01*
X68524Y-32104D01*
X68525Y-31896D01*
X68525Y-40659D01*
X67859Y-40659D01*
X67768Y-40697D01*
X67697Y-40767D01*
X67659Y-40859D01*
X67659Y-40959D01*
X67659Y-40974D01*
X65250Y-40974D01*
X65250Y-39339D01*
X65136Y-39063D01*
X64925Y-38852D01*
X64649Y-38738D01*
X64351Y-38738D01*
X64075Y-38851D01*
X63864Y-39062D01*
X63750Y-39338D01*
X63749Y-39636D01*
X63863Y-39912D01*
X64074Y-40123D01*
X64350Y-40238D01*
X64648Y-40238D01*
X64924Y-40124D01*
X65135Y-39913D01*
X65249Y-39638D01*
X65250Y-39339D01*
X65250Y-40974D01*
X65038Y-40974D01*
X64925Y-40860D01*
X64649Y-40746D01*
X64351Y-40745D01*
X64075Y-40859D01*
X63864Y-41070D01*
X63812Y-41196D01*
X62803Y-41196D01*
X62689Y-41219D01*
X62592Y-41284D01*
X62512Y-41364D01*
X62445Y-41203D01*
X62297Y-41055D01*
X62164Y-40999D01*
X62297Y-40945D01*
X62444Y-40797D01*
X62524Y-40604D01*
X62525Y-40396D01*
X62445Y-40203D01*
X62297Y-40055D01*
X62104Y-39975D01*
X61896Y-39974D01*
X61703Y-40054D01*
X61555Y-40202D01*
X61475Y-40395D01*
X61474Y-40603D01*
X61554Y-40797D01*
X61702Y-40944D01*
X61835Y-41000D01*
X61703Y-41054D01*
X61555Y-41202D01*
X61475Y-41395D01*
X61474Y-41603D01*
X61514Y-41700D01*
X60415Y-41700D01*
X60468Y-41573D01*
X60468Y-41427D01*
X60415Y-41299D01*
X60428Y-41299D01*
X60441Y-41311D01*
X60576Y-41368D01*
X60722Y-41368D01*
X60858Y-41312D01*
X60961Y-41208D01*
X61018Y-41073D01*
X61018Y-40927D01*
X60987Y-40851D01*
X61026Y-40868D01*
X61172Y-40868D01*
X61308Y-40812D01*
X61411Y-40708D01*
X61468Y-40573D01*
X61468Y-40427D01*
X61412Y-40291D01*
X61308Y-40188D01*
X61173Y-40131D01*
X61027Y-40131D01*
X60891Y-40187D01*
X60878Y-40200D01*
X60615Y-40200D01*
X60668Y-40073D01*
X60668Y-39927D01*
X60612Y-39791D01*
X60508Y-39688D01*
X60373Y-39631D01*
X60227Y-39631D01*
X60091Y-39687D01*
X60078Y-39700D01*
X59985Y-39700D01*
X60024Y-39604D01*
X60025Y-39396D01*
X59945Y-39203D01*
X59797Y-39055D01*
X59664Y-38999D01*
X59797Y-38945D01*
X59943Y-38799D01*
X61328Y-38799D01*
X61341Y-38811D01*
X61476Y-38868D01*
X61622Y-38868D01*
X61758Y-38812D01*
X61861Y-38708D01*
X61918Y-38573D01*
X61918Y-38449D01*
X64528Y-38449D01*
X64541Y-38461D01*
X64676Y-38518D01*
X64822Y-38518D01*
X64958Y-38462D01*
X65061Y-38358D01*
X65118Y-38223D01*
X65118Y-38077D01*
X65062Y-37941D01*
X64958Y-37838D01*
X64823Y-37781D01*
X64677Y-37781D01*
X64541Y-37837D01*
X64528Y-37850D01*
X61321Y-37850D01*
X61308Y-37838D01*
X61173Y-37781D01*
X61027Y-37781D01*
X60891Y-37837D01*
X60788Y-37941D01*
X60731Y-38076D01*
X60731Y-38200D01*
X59943Y-38200D01*
X59797Y-38055D01*
X59664Y-37999D01*
X59797Y-37945D01*
X59944Y-37797D01*
X60024Y-37604D01*
X60025Y-37396D01*
X59945Y-37203D01*
X59797Y-37055D01*
X59664Y-36999D01*
X59797Y-36945D01*
X59944Y-36797D01*
X60024Y-36604D01*
X60025Y-36396D01*
X59945Y-36203D01*
X59797Y-36055D01*
X59664Y-35999D01*
X59797Y-35945D01*
X59944Y-35797D01*
X60024Y-35604D01*
X60025Y-35396D01*
X59945Y-35203D01*
X59797Y-35055D01*
X59664Y-34999D01*
X59797Y-34945D01*
X59944Y-34797D01*
X60024Y-34604D01*
X60025Y-34396D01*
X60013Y-34368D01*
X60072Y-34368D01*
X60208Y-34312D01*
X60221Y-34299D01*
X60364Y-34299D01*
X60331Y-34376D01*
X60331Y-34522D01*
X60377Y-34633D01*
X60373Y-34631D01*
X60227Y-34631D01*
X60091Y-34687D01*
X59988Y-34791D01*
X59931Y-34926D01*
X59931Y-35072D01*
X59987Y-35208D01*
X60091Y-35311D01*
X60226Y-35368D01*
X60285Y-35368D01*
X60281Y-35376D01*
X60281Y-35522D01*
X60337Y-35658D01*
X60441Y-35761D01*
X60576Y-35818D01*
X60722Y-35818D01*
X60858Y-35762D01*
X60871Y-35749D01*
X60949Y-35749D01*
X60949Y-35749D01*
X60949Y-36349D01*
X60987Y-36441D01*
X61058Y-36511D01*
X61150Y-36549D01*
X61249Y-36550D01*
X61849Y-36550D01*
X61941Y-36512D01*
X62011Y-36441D01*
X62049Y-36349D01*
X62050Y-36250D01*
X62050Y-35749D01*
X62949Y-35749D01*
X62949Y-35749D01*
X62949Y-36349D01*
X62987Y-36441D01*
X63058Y-36511D01*
X63150Y-36549D01*
X63249Y-36550D01*
X63849Y-36550D01*
X63941Y-36512D01*
X64011Y-36441D01*
X64049Y-36349D01*
X64050Y-36250D01*
X64050Y-35749D01*
X64949Y-35749D01*
X64949Y-35749D01*
X64949Y-36349D01*
X64987Y-36441D01*
X65058Y-36511D01*
X65150Y-36549D01*
X65249Y-36550D01*
X65849Y-36550D01*
X65941Y-36512D01*
X66011Y-36441D01*
X66049Y-36349D01*
X66050Y-36250D01*
X66050Y-35650D01*
X66012Y-35558D01*
X65941Y-35488D01*
X65849Y-35450D01*
X65827Y-35450D01*
X65965Y-35311D01*
X66049Y-35109D01*
X66050Y-34891D01*
X65966Y-34688D01*
X65811Y-34534D01*
X65730Y-34500D01*
X65811Y-34466D01*
X65965Y-34311D01*
X66049Y-34109D01*
X66050Y-33891D01*
X65966Y-33688D01*
X65811Y-33534D01*
X65730Y-33500D01*
X65811Y-33466D01*
X65965Y-33311D01*
X66049Y-33109D01*
X66050Y-32891D01*
X65966Y-32688D01*
X65811Y-32534D01*
X65609Y-32450D01*
X65391Y-32449D01*
X65188Y-32533D01*
X65034Y-32688D01*
X64950Y-32890D01*
X64949Y-33108D01*
X65033Y-33311D01*
X65188Y-33465D01*
X65269Y-33499D01*
X65188Y-33533D01*
X65034Y-33688D01*
X64950Y-33890D01*
X64949Y-34108D01*
X65033Y-34311D01*
X65188Y-34465D01*
X65269Y-34499D01*
X65188Y-34533D01*
X65034Y-34688D01*
X64950Y-34890D01*
X64949Y-35108D01*
X64967Y-35150D01*
X64032Y-35150D01*
X64049Y-35109D01*
X64050Y-34891D01*
X63966Y-34688D01*
X63811Y-34534D01*
X63730Y-34500D01*
X63811Y-34466D01*
X63965Y-34311D01*
X64049Y-34109D01*
X64050Y-33891D01*
X63966Y-33688D01*
X63811Y-33534D01*
X63730Y-33500D01*
X63811Y-33466D01*
X63965Y-33311D01*
X64049Y-33109D01*
X64050Y-32891D01*
X63966Y-32688D01*
X63811Y-32534D01*
X63609Y-32450D01*
X63391Y-32449D01*
X63188Y-32533D01*
X63034Y-32688D01*
X62950Y-32890D01*
X62949Y-33108D01*
X62987Y-33200D01*
X62012Y-33200D01*
X62049Y-33109D01*
X62050Y-32891D01*
X61966Y-32688D01*
X61811Y-32534D01*
X61609Y-32450D01*
X61391Y-32449D01*
X61188Y-32533D01*
X61111Y-32610D01*
X61062Y-32491D01*
X60958Y-32388D01*
X60823Y-32331D01*
X60677Y-32331D01*
X60541Y-32387D01*
X60528Y-32400D01*
X60456Y-32400D01*
X60468Y-32373D01*
X60468Y-32227D01*
X60412Y-32091D01*
X60308Y-31988D01*
X60173Y-31931D01*
X60027Y-31931D01*
X59891Y-31987D01*
X59878Y-32000D01*
X57662Y-32000D01*
X57797Y-31945D01*
X57944Y-31797D01*
X58024Y-31604D01*
X58025Y-31396D01*
X57945Y-31203D01*
X57797Y-31055D01*
X57604Y-30975D01*
X57396Y-30974D01*
X57203Y-31054D01*
X57055Y-31202D01*
X56975Y-31395D01*
X56974Y-31603D01*
X57054Y-31797D01*
X57202Y-31944D01*
X57337Y-32000D01*
X53421Y-32000D01*
X53408Y-31988D01*
X53273Y-31931D01*
X53127Y-31931D01*
X52991Y-31987D01*
X52888Y-32091D01*
X52831Y-32226D01*
X52831Y-32372D01*
X52887Y-32508D01*
X52991Y-32611D01*
X53126Y-32668D01*
X53272Y-32668D01*
X53408Y-32612D01*
X53421Y-32599D01*
X54043Y-32599D01*
X54031Y-32626D01*
X54031Y-32772D01*
X54087Y-32908D01*
X54191Y-33011D01*
X54295Y-33055D01*
X54337Y-33158D01*
X54441Y-33261D01*
X54576Y-33318D01*
X54722Y-33318D01*
X54858Y-33262D01*
X54871Y-33249D01*
X55035Y-33249D01*
X54975Y-33395D01*
X54974Y-33603D01*
X55054Y-33797D01*
X55202Y-33944D01*
X55335Y-34000D01*
X55203Y-34054D01*
X55055Y-34202D01*
X54975Y-34395D01*
X54974Y-34603D01*
X55054Y-34797D01*
X55202Y-34944D01*
X55210Y-34948D01*
X55223Y-35014D01*
X55288Y-35111D01*
X55685Y-35508D01*
X55604Y-35475D01*
X55396Y-35474D01*
X55203Y-35554D01*
X55055Y-35702D01*
X54975Y-35895D01*
X54974Y-36001D01*
X54761Y-35788D01*
X54664Y-35723D01*
X54550Y-35700D01*
X54443Y-35700D01*
X54297Y-35555D01*
X54104Y-35475D01*
X53896Y-35474D01*
X53703Y-35554D01*
X53555Y-35702D01*
X53475Y-35895D01*
X53474Y-36103D01*
X53514Y-36200D01*
X53500Y-36200D01*
X53404Y-36219D01*
X53385Y-36223D01*
X53288Y-36288D01*
X53024Y-36551D01*
X53025Y-36396D01*
X52945Y-36203D01*
X52797Y-36055D01*
X52664Y-35999D01*
X52797Y-35945D01*
X52944Y-35797D01*
X53024Y-35604D01*
X53025Y-35396D01*
X53007Y-35353D01*
X53108Y-35312D01*
X53121Y-35299D01*
X54250Y-35299D01*
X54364Y-35276D01*
X54376Y-35268D01*
X54422Y-35268D01*
X54558Y-35212D01*
X54661Y-35108D01*
X54718Y-34973D01*
X54718Y-34827D01*
X54662Y-34691D01*
X54558Y-34588D01*
X54423Y-34531D01*
X54277Y-34531D01*
X54141Y-34587D01*
X54038Y-34691D01*
X54034Y-34700D01*
X53121Y-34700D01*
X53108Y-34688D01*
X53007Y-34646D01*
X53024Y-34604D01*
X53025Y-34396D01*
X52945Y-34203D01*
X52797Y-34055D01*
X52604Y-33975D01*
X52396Y-33974D01*
X52203Y-34054D01*
X52055Y-34202D01*
X51975Y-34395D01*
X51974Y-34603D01*
X52054Y-34797D01*
X52202Y-34944D01*
X52335Y-35000D01*
X52203Y-35054D01*
X52055Y-35202D01*
X51975Y-35395D01*
X51974Y-35603D01*
X52054Y-35797D01*
X52202Y-35944D01*
X52335Y-36000D01*
X52203Y-36054D01*
X52055Y-36202D01*
X51975Y-36395D01*
X51974Y-36603D01*
X52054Y-36797D01*
X52202Y-36944D01*
X52335Y-37000D01*
X52203Y-37054D01*
X52055Y-37202D01*
X51975Y-37395D01*
X51974Y-37603D01*
X52054Y-37797D01*
X52202Y-37944D01*
X52335Y-38000D01*
X52203Y-38054D01*
X52055Y-38202D01*
X51975Y-38395D01*
X51974Y-38603D01*
X52014Y-38700D01*
X49985Y-38700D01*
X50024Y-38604D01*
X50025Y-38396D01*
X49945Y-38203D01*
X49797Y-38055D01*
X49664Y-37999D01*
X49797Y-37945D01*
X49944Y-37797D01*
X50024Y-37604D01*
X50025Y-37396D01*
X49945Y-37203D01*
X49797Y-37055D01*
X49664Y-36999D01*
X49797Y-36945D01*
X49944Y-36797D01*
X50024Y-36604D01*
X50025Y-36396D01*
X49945Y-36203D01*
X49797Y-36055D01*
X49664Y-35999D01*
X49797Y-35945D01*
X49944Y-35797D01*
X50024Y-35604D01*
X50025Y-35396D01*
X49945Y-35203D01*
X49797Y-35055D01*
X49664Y-34999D01*
X49797Y-34945D01*
X49944Y-34797D01*
X50024Y-34604D01*
X50025Y-34396D01*
X49945Y-34203D01*
X49797Y-34055D01*
X49725Y-34025D01*
X49824Y-34025D01*
X49916Y-33987D01*
X49986Y-33916D01*
X50024Y-33824D01*
X50025Y-33725D01*
X50025Y-33175D01*
X49987Y-33083D01*
X49916Y-33013D01*
X49824Y-32975D01*
X49725Y-32974D01*
X49175Y-32974D01*
X49083Y-33012D01*
X49013Y-33083D01*
X48975Y-33175D01*
X48975Y-33200D01*
X48943Y-33200D01*
X48797Y-33055D01*
X48604Y-32975D01*
X48396Y-32974D01*
X48203Y-33054D01*
X48055Y-33202D01*
X47975Y-33395D01*
X47974Y-33603D01*
X48054Y-33797D01*
X48202Y-33944D01*
X48335Y-34000D01*
X48203Y-34054D01*
X48055Y-34202D01*
X47975Y-34395D01*
X47974Y-34603D01*
X48054Y-34797D01*
X48200Y-34943D01*
X48200Y-35100D01*
X48223Y-35214D01*
X48288Y-35311D01*
X48451Y-35474D01*
X48396Y-35474D01*
X48203Y-35554D01*
X48055Y-35702D01*
X47975Y-35895D01*
X47974Y-36103D01*
X48008Y-36185D01*
X47611Y-35788D01*
X47514Y-35723D01*
X47448Y-35710D01*
X47445Y-35703D01*
X47297Y-35555D01*
X47104Y-35475D01*
X46896Y-35474D01*
X46703Y-35554D01*
X46555Y-35702D01*
X46475Y-35895D01*
X46474Y-36103D01*
X46554Y-36297D01*
X46702Y-36444D01*
X46835Y-36500D01*
X46703Y-36554D01*
X46555Y-36702D01*
X46475Y-36895D01*
X46474Y-37103D01*
X46554Y-37297D01*
X46702Y-37444D01*
X46895Y-37524D01*
X47103Y-37525D01*
X47297Y-37445D01*
X47334Y-37407D01*
X47638Y-37711D01*
X47735Y-37776D01*
X47735Y-37776D01*
X47850Y-37799D01*
X49056Y-37799D01*
X49202Y-37944D01*
X49335Y-38000D01*
X49203Y-38054D01*
X49056Y-38200D01*
X48943Y-38200D01*
X48797Y-38055D01*
X48604Y-37975D01*
X48396Y-37974D01*
X48203Y-38054D01*
X48055Y-38202D01*
X47975Y-38395D01*
X47974Y-38603D01*
X48017Y-38707D01*
X48017Y-38707D01*
X47935Y-38723D01*
X47838Y-38788D01*
X47426Y-39200D01*
X46943Y-39200D01*
X46797Y-39055D01*
X46604Y-38975D01*
X46396Y-38974D01*
X46203Y-39054D01*
X46056Y-39200D01*
X45500Y-39200D01*
X45385Y-39223D01*
X45288Y-39288D01*
X45126Y-39449D01*
X44650Y-39449D01*
X44558Y-39487D01*
X44488Y-39558D01*
X44450Y-39650D01*
X44449Y-39749D01*
X44449Y-40349D01*
X44487Y-40441D01*
X44558Y-40511D01*
X44650Y-40549D01*
X44672Y-40549D01*
X44534Y-40688D01*
X44450Y-40890D01*
X44449Y-41108D01*
X44533Y-41311D01*
X44688Y-41465D01*
X44769Y-41499D01*
X44688Y-41533D01*
X44534Y-41688D01*
X44450Y-41890D01*
X44449Y-42108D01*
X44533Y-42311D01*
X44688Y-42465D01*
X44769Y-42499D01*
X44688Y-42533D01*
X44534Y-42688D01*
X44450Y-42890D01*
X44449Y-43108D01*
X44533Y-43311D01*
X44688Y-43465D01*
X44769Y-43499D01*
X44688Y-43533D01*
X44534Y-43688D01*
X44450Y-43890D01*
X44449Y-44108D01*
X44533Y-44311D01*
X44688Y-44465D01*
X44890Y-44549D01*
X45108Y-44550D01*
X45311Y-44466D01*
X45465Y-44311D01*
X45549Y-44109D01*
X45550Y-43891D01*
X45466Y-43688D01*
X45311Y-43534D01*
X45230Y-43500D01*
X45311Y-43466D01*
X45465Y-43311D01*
X45471Y-43299D01*
X46056Y-43299D01*
X46202Y-43444D01*
X46395Y-43524D01*
X46603Y-43525D01*
X46797Y-43445D01*
X46943Y-43299D01*
X49926Y-43299D01*
X50192Y-43565D01*
X50055Y-43702D01*
X49975Y-43895D01*
X49974Y-44103D01*
X50054Y-44297D01*
X50202Y-44444D01*
X50395Y-44524D01*
X50603Y-44525D01*
X50797Y-44445D01*
X50944Y-44297D01*
X51000Y-44164D01*
X51054Y-44297D01*
X51202Y-44444D01*
X51395Y-44524D01*
X51603Y-44525D01*
X51797Y-44445D01*
X51944Y-44297D01*
X52000Y-44164D01*
X52054Y-44297D01*
X52202Y-44444D01*
X52395Y-44524D01*
X52603Y-44525D01*
X52797Y-44445D01*
X52944Y-44297D01*
X53000Y-44164D01*
X53054Y-44297D01*
X53202Y-44444D01*
X53395Y-44524D01*
X53603Y-44525D01*
X53797Y-44445D01*
X53944Y-44297D01*
X54024Y-44104D01*
X54025Y-43896D01*
X53945Y-43703D01*
X53797Y-43555D01*
X53604Y-43475D01*
X53396Y-43474D01*
X53203Y-43554D01*
X53055Y-43702D01*
X52999Y-43835D01*
X52945Y-43703D01*
X52797Y-43555D01*
X52604Y-43475D01*
X52396Y-43474D01*
X52203Y-43554D01*
X52055Y-43702D01*
X51999Y-43835D01*
X51945Y-43703D01*
X51797Y-43555D01*
X51604Y-43475D01*
X51396Y-43474D01*
X51203Y-43554D01*
X51055Y-43702D01*
X50999Y-43835D01*
X50945Y-43703D01*
X50799Y-43556D01*
X50799Y-43450D01*
X50776Y-43335D01*
X50711Y-43238D01*
X50261Y-42788D01*
X50164Y-42723D01*
X50050Y-42700D01*
X46943Y-42700D01*
X46797Y-42555D01*
X46664Y-42499D01*
X46797Y-42445D01*
X46943Y-42299D01*
X51228Y-42299D01*
X51291Y-42361D01*
X51426Y-42418D01*
X51572Y-42418D01*
X51708Y-42362D01*
X51811Y-42258D01*
X51868Y-42123D01*
X51868Y-42099D01*
X55778Y-42099D01*
X55791Y-42111D01*
X55926Y-42168D01*
X56072Y-42168D01*
X56208Y-42112D01*
X56311Y-42008D01*
X56368Y-41873D01*
X56368Y-41799D01*
X57277Y-41799D01*
X57101Y-41975D01*
X56896Y-41974D01*
X56703Y-42054D01*
X56555Y-42202D01*
X56475Y-42395D01*
X56474Y-42603D01*
X56554Y-42797D01*
X56702Y-42944D01*
X56895Y-43024D01*
X57103Y-43025D01*
X57297Y-42945D01*
X57444Y-42797D01*
X57500Y-42664D01*
X57554Y-42797D01*
X57702Y-42944D01*
X57895Y-43024D01*
X58103Y-43025D01*
X58297Y-42945D01*
X58443Y-42799D01*
X58474Y-42799D01*
X58474Y-42824D01*
X58512Y-42916D01*
X58583Y-42986D01*
X58675Y-43024D01*
X58774Y-43025D01*
X58774Y-43025D01*
X58703Y-43054D01*
X58555Y-43202D01*
X58475Y-43395D01*
X58474Y-43603D01*
X58554Y-43797D01*
X58702Y-43944D01*
X58835Y-44000D01*
X58703Y-44054D01*
X58555Y-44202D01*
X58475Y-44395D01*
X58474Y-44603D01*
X58554Y-44797D01*
X58702Y-44944D01*
X58835Y-45000D01*
X58703Y-45054D01*
X58555Y-45202D01*
X58475Y-45395D01*
X58474Y-45603D01*
X58514Y-45700D01*
X57525Y-45700D01*
X57525Y-44896D01*
X57445Y-44703D01*
X57297Y-44555D01*
X57164Y-44499D01*
X57297Y-44445D01*
X57444Y-44297D01*
X57524Y-44104D01*
X57525Y-43896D01*
X57445Y-43703D01*
X57297Y-43555D01*
X57104Y-43475D01*
X56896Y-43474D01*
X56703Y-43554D01*
X56555Y-43702D01*
X56499Y-43835D01*
X56445Y-43703D01*
X56297Y-43555D01*
X56104Y-43475D01*
X55896Y-43474D01*
X55703Y-43554D01*
X55555Y-43702D01*
X55475Y-43895D01*
X55474Y-44103D01*
X55554Y-44297D01*
X55702Y-44444D01*
X55835Y-44500D01*
X55703Y-44554D01*
X55555Y-44702D01*
X55475Y-44895D01*
X55474Y-45103D01*
X55554Y-45297D01*
X55702Y-45444D01*
X55895Y-45524D01*
X56103Y-45525D01*
X56297Y-45445D01*
X56443Y-45299D01*
X56556Y-45299D01*
X56702Y-45444D01*
X56895Y-45524D01*
X57103Y-45525D01*
X57297Y-45445D01*
X57444Y-45297D01*
X57524Y-45104D01*
X57525Y-44896D01*
X57525Y-45700D01*
X55500Y-45700D01*
X55385Y-45723D01*
X55288Y-45788D01*
X55126Y-45949D01*
X54650Y-45949D01*
X54558Y-45987D01*
X54488Y-46058D01*
X54450Y-46150D01*
X54449Y-46249D01*
X54449Y-46631D01*
X54427Y-46631D01*
X54291Y-46687D01*
X54188Y-46791D01*
X54131Y-46926D01*
X54131Y-47072D01*
X54184Y-47200D01*
X53985Y-47200D01*
X54024Y-47104D01*
X54025Y-46896D01*
X53945Y-46703D01*
X53797Y-46555D01*
X53604Y-46475D01*
X53396Y-46474D01*
X53203Y-46554D01*
X53055Y-46702D01*
X52999Y-46835D01*
X52945Y-46703D01*
X52797Y-46555D01*
X52604Y-46475D01*
X52396Y-46474D01*
X52203Y-46554D01*
X52055Y-46702D01*
X51999Y-46835D01*
X51945Y-46703D01*
X51797Y-46555D01*
X51604Y-46475D01*
X51396Y-46474D01*
X51203Y-46554D01*
X51055Y-46702D01*
X50975Y-46895D01*
X50974Y-47103D01*
X51054Y-47297D01*
X51202Y-47444D01*
X51395Y-47524D01*
X51601Y-47525D01*
X51667Y-47590D01*
X51555Y-47702D01*
X51499Y-47835D01*
X51445Y-47703D01*
X51297Y-47555D01*
X51104Y-47475D01*
X50898Y-47474D01*
X50761Y-47338D01*
X50664Y-47273D01*
X50550Y-47250D01*
X49523Y-47250D01*
X49368Y-47095D01*
X49368Y-47077D01*
X49312Y-46941D01*
X49208Y-46838D01*
X49073Y-46781D01*
X48927Y-46781D01*
X48791Y-46837D01*
X48688Y-46941D01*
X48631Y-47076D01*
X48631Y-47222D01*
X48687Y-47358D01*
X48791Y-47461D01*
X48926Y-47518D01*
X48944Y-47518D01*
X49126Y-47699D01*
X48992Y-47699D01*
X48606Y-47859D01*
X48310Y-48154D01*
X48150Y-48540D01*
X48149Y-48957D01*
X48309Y-49344D01*
X48435Y-49470D01*
X43979Y-49470D01*
X43979Y-29029D01*
X48935Y-29029D01*
X48810Y-29154D01*
X48650Y-29540D01*
X48649Y-29957D01*
X48809Y-30344D01*
X49104Y-30639D01*
X49490Y-30799D01*
X49631Y-30799D01*
X49631Y-30872D01*
X49687Y-31008D01*
X49791Y-31111D01*
X49926Y-31168D01*
X50072Y-31168D01*
X50100Y-31156D01*
X50055Y-31202D01*
X49975Y-31395D01*
X49974Y-31603D01*
X50054Y-31797D01*
X50202Y-31944D01*
X50395Y-32024D01*
X50603Y-32025D01*
X50797Y-31945D01*
X50944Y-31797D01*
X51024Y-31604D01*
X51025Y-31396D01*
X50945Y-31203D01*
X50797Y-31055D01*
X50604Y-30975D01*
X50396Y-30974D01*
X50310Y-31010D01*
X50311Y-31008D01*
X50368Y-30873D01*
X50368Y-30727D01*
X50345Y-30671D01*
X50349Y-30650D01*
X50338Y-30596D01*
X50589Y-30345D01*
X50652Y-30194D01*
X50682Y-30239D01*
X50874Y-30367D01*
X51100Y-30412D01*
X51325Y-30367D01*
X51517Y-30239D01*
X51600Y-30115D01*
X51682Y-30239D01*
X51874Y-30367D01*
X52100Y-30412D01*
X52325Y-30367D01*
X52517Y-30239D01*
X52600Y-30115D01*
X52682Y-30239D01*
X52874Y-30367D01*
X53100Y-30412D01*
X53325Y-30367D01*
X53517Y-30239D01*
X53600Y-30115D01*
X53682Y-30239D01*
X53874Y-30367D01*
X54100Y-30412D01*
X54325Y-30367D01*
X54517Y-30239D01*
X54600Y-30115D01*
X54682Y-30239D01*
X54874Y-30367D01*
X55100Y-30412D01*
X55325Y-30367D01*
X55517Y-30239D01*
X55600Y-30115D01*
X55682Y-30239D01*
X55874Y-30367D01*
X56100Y-30412D01*
X56325Y-30367D01*
X56517Y-30239D01*
X56600Y-30115D01*
X56682Y-30239D01*
X56874Y-30367D01*
X57100Y-30412D01*
X57325Y-30367D01*
X57517Y-30239D01*
X57600Y-30115D01*
X57682Y-30239D01*
X57874Y-30367D01*
X58100Y-30412D01*
X58325Y-30367D01*
X58517Y-30239D01*
X58600Y-30115D01*
X58682Y-30239D01*
X58874Y-30367D01*
X59100Y-30412D01*
X59325Y-30367D01*
X59517Y-30239D01*
X59600Y-30115D01*
X59682Y-30239D01*
X59874Y-30367D01*
X60100Y-30412D01*
X60325Y-30367D01*
X60517Y-30239D01*
X60645Y-30048D01*
X60690Y-29822D01*
X60690Y-29677D01*
X60645Y-29451D01*
X60517Y-29260D01*
X60325Y-29132D01*
X60100Y-29087D01*
X59874Y-29132D01*
X59682Y-29260D01*
X59600Y-29384D01*
X59517Y-29260D01*
X59325Y-29132D01*
X59100Y-29087D01*
X58874Y-29132D01*
X58682Y-29260D01*
X58600Y-29384D01*
X58517Y-29260D01*
X58325Y-29132D01*
X58100Y-29087D01*
X57874Y-29132D01*
X57682Y-29260D01*
X57600Y-29384D01*
X57517Y-29260D01*
X57325Y-29132D01*
X57100Y-29087D01*
X56874Y-29132D01*
X56682Y-29260D01*
X56600Y-29384D01*
X56517Y-29260D01*
X56325Y-29132D01*
X56100Y-29087D01*
X55874Y-29132D01*
X55682Y-29260D01*
X55600Y-29384D01*
X55517Y-29260D01*
X55325Y-29132D01*
X55100Y-29087D01*
X54874Y-29132D01*
X54682Y-29260D01*
X54600Y-29384D01*
X54517Y-29260D01*
X54325Y-29132D01*
X54100Y-29087D01*
X53874Y-29132D01*
X53682Y-29260D01*
X53600Y-29384D01*
X53517Y-29260D01*
X53325Y-29132D01*
X53100Y-29087D01*
X52874Y-29132D01*
X52682Y-29260D01*
X52600Y-29384D01*
X52517Y-29260D01*
X52325Y-29132D01*
X52100Y-29087D01*
X51874Y-29132D01*
X51682Y-29260D01*
X51600Y-29384D01*
X51517Y-29260D01*
X51325Y-29132D01*
X51100Y-29087D01*
X50874Y-29132D01*
X50682Y-29260D01*
X50652Y-29305D01*
X50590Y-29156D01*
X50464Y-29029D01*
X68984Y-29029D01*
X69420Y-29465D01*
X69420Y-33850D01*
X69441Y-33956D01*
X69502Y-34047D01*
X70420Y-34965D01*
X70420Y-34985D01*
X70295Y-34860D01*
X69909Y-34700D01*
X69492Y-34699D01*
X69290Y-34783D01*
X69290Y-29822D01*
X69290Y-29677D01*
X69245Y-29451D01*
X69117Y-29260D01*
X68925Y-29132D01*
X68700Y-29087D01*
X68474Y-29132D01*
X68282Y-29260D01*
X68200Y-29384D01*
X68117Y-29260D01*
X67925Y-29132D01*
X67700Y-29087D01*
X67474Y-29132D01*
X67282Y-29260D01*
X67200Y-29384D01*
X67117Y-29260D01*
X66925Y-29132D01*
X66700Y-29087D01*
X66474Y-29132D01*
X66282Y-29260D01*
X66200Y-29384D01*
X66117Y-29260D01*
X65925Y-29132D01*
X65700Y-29087D01*
X65474Y-29132D01*
X65282Y-29260D01*
X65200Y-29384D01*
X65117Y-29260D01*
X64925Y-29132D01*
X64700Y-29087D01*
X64474Y-29132D01*
X64282Y-29260D01*
X64200Y-29384D01*
X64117Y-29260D01*
X63925Y-29132D01*
X63700Y-29087D01*
X63474Y-29132D01*
X63282Y-29260D01*
X63200Y-29384D01*
X63117Y-29260D01*
X62925Y-29132D01*
X62700Y-29087D01*
X62474Y-29132D01*
X62282Y-29260D01*
X62200Y-29384D01*
X62117Y-29260D01*
X61925Y-29132D01*
X61700Y-29087D01*
X61474Y-29132D01*
X61282Y-29260D01*
X61154Y-29451D01*
X61110Y-29677D01*
X61110Y-29822D01*
X61154Y-30048D01*
X61282Y-30239D01*
X61474Y-30367D01*
X61700Y-30412D01*
X61925Y-30367D01*
X62117Y-30239D01*
X62200Y-30115D01*
X62282Y-30239D01*
X62474Y-30367D01*
X62700Y-30412D01*
X62925Y-30367D01*
X63117Y-30239D01*
X63200Y-30115D01*
X63282Y-30239D01*
X63474Y-30367D01*
X63700Y-30412D01*
X63925Y-30367D01*
X64117Y-30239D01*
X64200Y-30115D01*
X64282Y-30239D01*
X64474Y-30367D01*
X64700Y-30412D01*
X64925Y-30367D01*
X65117Y-30239D01*
X65200Y-30115D01*
X65282Y-30239D01*
X65474Y-30367D01*
X65700Y-30412D01*
X65925Y-30367D01*
X66117Y-30239D01*
X66200Y-30115D01*
X66282Y-30239D01*
X66474Y-30367D01*
X66700Y-30412D01*
X66925Y-30367D01*
X67117Y-30239D01*
X67200Y-30115D01*
X67282Y-30239D01*
X67474Y-30367D01*
X67700Y-30412D01*
X67925Y-30367D01*
X68117Y-30239D01*
X68200Y-30115D01*
X68282Y-30239D01*
X68474Y-30367D01*
X68700Y-30412D01*
X68925Y-30367D01*
X69117Y-30239D01*
X69245Y-30048D01*
X69290Y-29822D01*
X69290Y-34783D01*
X69106Y-34859D01*
X68810Y-35154D01*
X68650Y-35540D01*
X68649Y-35957D01*
X68809Y-36344D01*
X69104Y-36639D01*
X69490Y-36799D01*
X69907Y-36800D01*
X70294Y-36640D01*
X70420Y-36514D01*
X70420Y-45985D01*
X70295Y-45860D01*
X69909Y-45700D01*
X69492Y-45699D01*
X69106Y-45859D01*
X68810Y-46154D01*
X68650Y-46540D01*
X68649Y-46957D01*
X68809Y-47344D01*
X69104Y-47639D01*
X69490Y-47799D01*
X69907Y-47800D01*
X70294Y-47640D01*
X70420Y-47514D01*
X70420Y-47634D01*
X70420Y-47634D01*
G37*
G54D24*
X70420Y-47634D02*
X69502Y-48552D01*
X69441Y-48643D01*
X69420Y-48750D01*
X69420Y-49470D01*
X52236Y-49470D01*
X52297Y-49445D01*
X52443Y-49299D01*
X53778Y-49299D01*
X53791Y-49311D01*
X53926Y-49368D01*
X54072Y-49368D01*
X54208Y-49312D01*
X54281Y-49238D01*
X54282Y-49239D01*
X54474Y-49367D01*
X54700Y-49412D01*
X54925Y-49367D01*
X55117Y-49239D01*
X55200Y-49115D01*
X55282Y-49239D01*
X55474Y-49367D01*
X55700Y-49412D01*
X55925Y-49367D01*
X56117Y-49239D01*
X56200Y-49115D01*
X56282Y-49239D01*
X56474Y-49367D01*
X56700Y-49412D01*
X56925Y-49367D01*
X57117Y-49239D01*
X57200Y-49115D01*
X57282Y-49239D01*
X57474Y-49367D01*
X57700Y-49412D01*
X57925Y-49367D01*
X58117Y-49239D01*
X58245Y-49048D01*
X58290Y-48822D01*
X58290Y-48677D01*
X58245Y-48451D01*
X58117Y-48260D01*
X58024Y-48198D01*
X58123Y-48099D01*
X59639Y-48099D01*
X59474Y-48132D01*
X59282Y-48260D01*
X59154Y-48451D01*
X59110Y-48677D01*
X59110Y-48822D01*
X59154Y-49048D01*
X59282Y-49239D01*
X59474Y-49367D01*
X59700Y-49412D01*
X59925Y-49367D01*
X60117Y-49239D01*
X60200Y-49115D01*
X60282Y-49239D01*
X60474Y-49367D01*
X60700Y-49412D01*
X60925Y-49367D01*
X61117Y-49239D01*
X61200Y-49115D01*
X61282Y-49239D01*
X61474Y-49367D01*
X61700Y-49412D01*
X61925Y-49367D01*
X62117Y-49239D01*
X62245Y-49048D01*
X62290Y-48822D01*
X62290Y-48677D01*
X62245Y-48451D01*
X62117Y-48260D01*
X61925Y-48132D01*
X61760Y-48099D01*
X63228Y-48099D01*
X63241Y-48111D01*
X63376Y-48168D01*
X63420Y-48168D01*
X63282Y-48260D01*
X63154Y-48451D01*
X63110Y-48677D01*
X63110Y-48822D01*
X63154Y-49048D01*
X63282Y-49239D01*
X63474Y-49367D01*
X63700Y-49412D01*
X63925Y-49367D01*
X64117Y-49239D01*
X64200Y-49115D01*
X64282Y-49239D01*
X64474Y-49367D01*
X64700Y-49412D01*
X64925Y-49367D01*
X65117Y-49239D01*
X65200Y-49115D01*
X65282Y-49239D01*
X65474Y-49367D01*
X65700Y-49412D01*
X65925Y-49367D01*
X66117Y-49239D01*
X66200Y-49115D01*
X66282Y-49239D01*
X66474Y-49367D01*
X66700Y-49412D01*
X66925Y-49367D01*
X67117Y-49239D01*
X67200Y-49115D01*
X67282Y-49239D01*
X67474Y-49367D01*
X67700Y-49412D01*
X67925Y-49367D01*
X68117Y-49239D01*
X68200Y-49115D01*
X68282Y-49239D01*
X68474Y-49367D01*
X68700Y-49412D01*
X68925Y-49367D01*
X69117Y-49239D01*
X69245Y-49048D01*
X69290Y-48822D01*
X69290Y-48677D01*
X69245Y-48451D01*
X69117Y-48260D01*
X68925Y-48132D01*
X68700Y-48087D01*
X68474Y-48132D01*
X68282Y-48260D01*
X68200Y-48384D01*
X68117Y-48260D01*
X67925Y-48132D01*
X67700Y-48087D01*
X67474Y-48132D01*
X67282Y-48260D01*
X67200Y-48384D01*
X67117Y-48260D01*
X66925Y-48132D01*
X66700Y-48087D01*
X66474Y-48132D01*
X66282Y-48260D01*
X66200Y-48384D01*
X66117Y-48260D01*
X65925Y-48132D01*
X65700Y-48087D01*
X65474Y-48132D01*
X65282Y-48260D01*
X65200Y-48384D01*
X65117Y-48260D01*
X64925Y-48132D01*
X64700Y-48087D01*
X64474Y-48132D01*
X64282Y-48260D01*
X64200Y-48384D01*
X64117Y-48260D01*
X63925Y-48132D01*
X63700Y-48087D01*
X63679Y-48091D01*
X63761Y-48008D01*
X63818Y-47873D01*
X63818Y-47799D01*
X64200Y-47799D01*
X66700Y-47799D01*
X66778Y-47799D01*
X66791Y-47811D01*
X66926Y-47868D01*
X67072Y-47868D01*
X67208Y-47812D01*
X67311Y-47708D01*
X67368Y-47573D01*
X67368Y-47427D01*
X67312Y-47291D01*
X67208Y-47188D01*
X67073Y-47131D01*
X66927Y-47131D01*
X66791Y-47187D01*
X66778Y-47200D01*
X66700Y-47200D01*
X65250Y-47200D01*
X65250Y-45962D01*
X65250Y-44962D01*
X65212Y-44870D01*
X65141Y-44799D01*
X65049Y-44761D01*
X64950Y-44761D01*
X63950Y-44761D01*
X63858Y-44799D01*
X63788Y-44870D01*
X63750Y-44961D01*
X63749Y-45061D01*
X63749Y-46061D01*
X63787Y-46153D01*
X63858Y-46223D01*
X63950Y-46261D01*
X64049Y-46261D01*
X65049Y-46261D01*
X65141Y-46223D01*
X65211Y-46153D01*
X65249Y-46061D01*
X65250Y-45962D01*
X65250Y-47200D01*
X64200Y-47200D01*
X63485Y-47200D01*
X63524Y-47104D01*
X63525Y-46896D01*
X63445Y-46703D01*
X63297Y-46555D01*
X63104Y-46475D01*
X62896Y-46474D01*
X62703Y-46554D01*
X62555Y-46702D01*
X62499Y-46835D01*
X62445Y-46703D01*
X62297Y-46555D01*
X62104Y-46475D01*
X61898Y-46474D01*
X61721Y-46298D01*
X61811Y-46208D01*
X61868Y-46073D01*
X61868Y-46013D01*
X61895Y-46024D01*
X62103Y-46025D01*
X62297Y-45945D01*
X62444Y-45797D01*
X62524Y-45604D01*
X62525Y-45396D01*
X62445Y-45203D01*
X62297Y-45055D01*
X62164Y-44999D01*
X62297Y-44945D01*
X62444Y-44797D01*
X62524Y-44604D01*
X62525Y-44396D01*
X62482Y-44292D01*
X62564Y-44276D01*
X62661Y-44211D01*
X63070Y-43803D01*
X63812Y-43803D01*
X63863Y-43928D01*
X64074Y-44139D01*
X64350Y-44253D01*
X64648Y-44254D01*
X64924Y-44140D01*
X65039Y-44025D01*
X67837Y-44025D01*
X68023Y-44212D01*
X68332Y-44340D01*
X68666Y-44340D01*
X68975Y-44212D01*
X69212Y-43976D01*
X69340Y-43667D01*
X69340Y-43333D01*
X69212Y-43024D01*
X68976Y-42787D01*
X68667Y-42659D01*
X68333Y-42659D01*
X68024Y-42787D01*
X67836Y-42974D01*
X65031Y-42974D01*
X64925Y-42868D01*
X64649Y-42754D01*
X64351Y-42753D01*
X64075Y-42867D01*
X63864Y-43078D01*
X63812Y-43204D01*
X62946Y-43204D01*
X62831Y-43227D01*
X62734Y-43292D01*
X62524Y-43501D01*
X62525Y-43396D01*
X62445Y-43203D01*
X62297Y-43055D01*
X62164Y-42999D01*
X62297Y-42945D01*
X62444Y-42797D01*
X62524Y-42604D01*
X62525Y-42396D01*
X62462Y-42244D01*
X62511Y-42211D01*
X62927Y-41795D01*
X63812Y-41795D01*
X63863Y-41920D01*
X64074Y-42131D01*
X64350Y-42245D01*
X64648Y-42246D01*
X64924Y-42132D01*
X65031Y-42025D01*
X67659Y-42025D01*
X67659Y-42140D01*
X67697Y-42231D01*
X67767Y-42302D01*
X67859Y-42340D01*
X67959Y-42340D01*
X69140Y-42340D01*
X69231Y-42302D01*
X69302Y-42232D01*
X69340Y-42140D01*
X69340Y-42040D01*
X69340Y-40859D01*
X69302Y-40768D01*
X69232Y-40697D01*
X69140Y-40659D01*
X69040Y-40659D01*
X68525Y-40659D01*
X68525Y-31896D01*
X68445Y-31703D01*
X68297Y-31555D01*
X68164Y-31499D01*
X68297Y-31445D01*
X68444Y-31297D01*
X68524Y-31104D01*
X68525Y-30896D01*
X68445Y-30703D01*
X68297Y-30555D01*
X68104Y-30475D01*
X67896Y-30474D01*
X67703Y-30554D01*
X67556Y-30700D01*
X67443Y-30700D01*
X67297Y-30555D01*
X67104Y-30475D01*
X66896Y-30474D01*
X66703Y-30554D01*
X66555Y-30702D01*
X66475Y-30895D01*
X66474Y-31103D01*
X66554Y-31297D01*
X66702Y-31444D01*
X66835Y-31500D01*
X66703Y-31554D01*
X66555Y-31702D01*
X66475Y-31895D01*
X66474Y-32103D01*
X66554Y-32297D01*
X66702Y-32444D01*
X66895Y-32524D01*
X67103Y-32525D01*
X67297Y-32445D01*
X67444Y-32297D01*
X67500Y-32164D01*
X67554Y-32297D01*
X67702Y-32444D01*
X67895Y-32524D01*
X68103Y-32525D01*
X68297Y-32445D01*
X68444Y-32297D01*
X68524Y-32104D01*
X68525Y-31896D01*
X68525Y-40659D01*
X67859Y-40659D01*
X67768Y-40697D01*
X67697Y-40767D01*
X67659Y-40859D01*
X67659Y-40959D01*
X67659Y-40974D01*
X65250Y-40974D01*
X65250Y-39339D01*
X65136Y-39063D01*
X64925Y-38852D01*
X64649Y-38738D01*
X64351Y-38738D01*
X64075Y-38851D01*
X63864Y-39062D01*
X63750Y-39338D01*
X63749Y-39636D01*
X63863Y-39912D01*
X64074Y-40123D01*
X64350Y-40238D01*
X64648Y-40238D01*
X64924Y-40124D01*
X65135Y-39913D01*
X65249Y-39638D01*
X65250Y-39339D01*
X65250Y-40974D01*
X65038Y-40974D01*
X64925Y-40860D01*
X64649Y-40746D01*
X64351Y-40745D01*
X64075Y-40859D01*
X63864Y-41070D01*
X63812Y-41196D01*
X62803Y-41196D01*
X62689Y-41219D01*
X62592Y-41284D01*
X62512Y-41364D01*
X62445Y-41203D01*
X62297Y-41055D01*
X62164Y-40999D01*
X62297Y-40945D01*
X62444Y-40797D01*
X62524Y-40604D01*
X62525Y-40396D01*
X62445Y-40203D01*
X62297Y-40055D01*
X62104Y-39975D01*
X61896Y-39974D01*
X61703Y-40054D01*
X61555Y-40202D01*
X61475Y-40395D01*
X61474Y-40603D01*
X61554Y-40797D01*
X61702Y-40944D01*
X61835Y-41000D01*
X61703Y-41054D01*
X61555Y-41202D01*
X61475Y-41395D01*
X61474Y-41603D01*
X61514Y-41700D01*
X60415Y-41700D01*
X60468Y-41573D01*
X60468Y-41427D01*
X60415Y-41299D01*
X60428Y-41299D01*
X60441Y-41311D01*
X60576Y-41368D01*
X60722Y-41368D01*
X60858Y-41312D01*
X60961Y-41208D01*
X61018Y-41073D01*
X61018Y-40927D01*
X60987Y-40851D01*
X61026Y-40868D01*
X61172Y-40868D01*
X61308Y-40812D01*
X61411Y-40708D01*
X61468Y-40573D01*
X61468Y-40427D01*
X61412Y-40291D01*
X61308Y-40188D01*
X61173Y-40131D01*
X61027Y-40131D01*
X60891Y-40187D01*
X60878Y-40200D01*
X60615Y-40200D01*
X60668Y-40073D01*
X60668Y-39927D01*
X60612Y-39791D01*
X60508Y-39688D01*
X60373Y-39631D01*
X60227Y-39631D01*
X60091Y-39687D01*
X60078Y-39700D01*
X59985Y-39700D01*
X60024Y-39604D01*
X60025Y-39396D01*
X59945Y-39203D01*
X59797Y-39055D01*
X59664Y-38999D01*
X59797Y-38945D01*
X59943Y-38799D01*
X61328Y-38799D01*
X61341Y-38811D01*
X61476Y-38868D01*
X61622Y-38868D01*
X61758Y-38812D01*
X61861Y-38708D01*
X61918Y-38573D01*
X61918Y-38449D01*
X64528Y-38449D01*
X64541Y-38461D01*
X64676Y-38518D01*
X64822Y-38518D01*
X64958Y-38462D01*
X65061Y-38358D01*
X65118Y-38223D01*
X65118Y-38077D01*
X65062Y-37941D01*
X64958Y-37838D01*
X64823Y-37781D01*
X64677Y-37781D01*
X64541Y-37837D01*
X64528Y-37850D01*
X61321Y-37850D01*
X61308Y-37838D01*
X61173Y-37781D01*
X61027Y-37781D01*
X60891Y-37837D01*
X60788Y-37941D01*
X60731Y-38076D01*
X60731Y-38200D01*
X59943Y-38200D01*
X59797Y-38055D01*
X59664Y-37999D01*
X59797Y-37945D01*
X59944Y-37797D01*
X60024Y-37604D01*
X60025Y-37396D01*
X59945Y-37203D01*
X59797Y-37055D01*
X59664Y-36999D01*
X59797Y-36945D01*
X59944Y-36797D01*
X60024Y-36604D01*
X60025Y-36396D01*
X59945Y-36203D01*
X59797Y-36055D01*
X59664Y-35999D01*
X59797Y-35945D01*
X59944Y-35797D01*
X60024Y-35604D01*
X60025Y-35396D01*
X59945Y-35203D01*
X59797Y-35055D01*
X59664Y-34999D01*
X59797Y-34945D01*
X59944Y-34797D01*
X60024Y-34604D01*
X60025Y-34396D01*
X60013Y-34368D01*
X60072Y-34368D01*
X60208Y-34312D01*
X60221Y-34299D01*
X60364Y-34299D01*
X60331Y-34376D01*
X60331Y-34522D01*
X60377Y-34633D01*
X60373Y-34631D01*
X60227Y-34631D01*
X60091Y-34687D01*
X59988Y-34791D01*
X59931Y-34926D01*
X59931Y-35072D01*
X59987Y-35208D01*
X60091Y-35311D01*
X60226Y-35368D01*
X60285Y-35368D01*
X60281Y-35376D01*
X60281Y-35522D01*
X60337Y-35658D01*
X60441Y-35761D01*
X60576Y-35818D01*
X60722Y-35818D01*
X60858Y-35762D01*
X60871Y-35749D01*
X60949Y-35749D01*
X60949Y-35749D01*
X60949Y-36349D01*
X60987Y-36441D01*
X61058Y-36511D01*
X61150Y-36549D01*
X61249Y-36550D01*
X61849Y-36550D01*
X61941Y-36512D01*
X62011Y-36441D01*
X62049Y-36349D01*
X62050Y-36250D01*
X62050Y-35749D01*
X62949Y-35749D01*
X62949Y-35749D01*
X62949Y-36349D01*
X62987Y-36441D01*
X63058Y-36511D01*
X63150Y-36549D01*
X63249Y-36550D01*
X63849Y-36550D01*
X63941Y-36512D01*
X64011Y-36441D01*
X64049Y-36349D01*
X64050Y-36250D01*
X64050Y-35749D01*
X64949Y-35749D01*
X64949Y-35749D01*
X64949Y-36349D01*
X64987Y-36441D01*
X65058Y-36511D01*
X65150Y-36549D01*
X65249Y-36550D01*
X65849Y-36550D01*
X65941Y-36512D01*
X66011Y-36441D01*
X66049Y-36349D01*
X66050Y-36250D01*
X66050Y-35650D01*
X66012Y-35558D01*
X65941Y-35488D01*
X65849Y-35450D01*
X65827Y-35450D01*
X65965Y-35311D01*
X66049Y-35109D01*
X66050Y-34891D01*
X65966Y-34688D01*
X65811Y-34534D01*
X65730Y-34500D01*
X65811Y-34466D01*
X65965Y-34311D01*
X66049Y-34109D01*
X66050Y-33891D01*
X65966Y-33688D01*
X65811Y-33534D01*
X65730Y-33500D01*
X65811Y-33466D01*
X65965Y-33311D01*
X66049Y-33109D01*
X66050Y-32891D01*
X65966Y-32688D01*
X65811Y-32534D01*
X65609Y-32450D01*
X65391Y-32449D01*
X65188Y-32533D01*
X65034Y-32688D01*
X64950Y-32890D01*
X64949Y-33108D01*
X65033Y-33311D01*
X65188Y-33465D01*
X65269Y-33499D01*
X65188Y-33533D01*
X65034Y-33688D01*
X64950Y-33890D01*
X64949Y-34108D01*
X65033Y-34311D01*
X65188Y-34465D01*
X65269Y-34499D01*
X65188Y-34533D01*
X65034Y-34688D01*
X64950Y-34890D01*
X64949Y-35108D01*
X64967Y-35150D01*
X64032Y-35150D01*
X64049Y-35109D01*
X64050Y-34891D01*
X63966Y-34688D01*
X63811Y-34534D01*
X63730Y-34500D01*
X63811Y-34466D01*
X63965Y-34311D01*
X64049Y-34109D01*
X64050Y-33891D01*
X63966Y-33688D01*
X63811Y-33534D01*
X63730Y-33500D01*
X63811Y-33466D01*
X63965Y-33311D01*
X64049Y-33109D01*
X64050Y-32891D01*
X63966Y-32688D01*
X63811Y-32534D01*
X63609Y-32450D01*
X63391Y-32449D01*
X63188Y-32533D01*
X63034Y-32688D01*
X62950Y-32890D01*
X62949Y-33108D01*
X62987Y-33200D01*
X62012Y-33200D01*
X62049Y-33109D01*
X62050Y-32891D01*
X61966Y-32688D01*
X61811Y-32534D01*
X61609Y-32450D01*
X61391Y-32449D01*
X61188Y-32533D01*
X61111Y-32610D01*
X61062Y-32491D01*
X60958Y-32388D01*
X60823Y-32331D01*
X60677Y-32331D01*
X60541Y-32387D01*
X60528Y-32400D01*
X60456Y-32400D01*
X60468Y-32373D01*
X60468Y-32227D01*
X60412Y-32091D01*
X60308Y-31988D01*
X60173Y-31931D01*
X60027Y-31931D01*
X59891Y-31987D01*
X59878Y-32000D01*
X57662Y-32000D01*
X57797Y-31945D01*
X57944Y-31797D01*
X58024Y-31604D01*
X58025Y-31396D01*
X57945Y-31203D01*
X57797Y-31055D01*
X57604Y-30975D01*
X57396Y-30974D01*
X57203Y-31054D01*
X57055Y-31202D01*
X56975Y-31395D01*
X56974Y-31603D01*
X57054Y-31797D01*
X57202Y-31944D01*
X57337Y-32000D01*
X53421Y-32000D01*
X53408Y-31988D01*
X53273Y-31931D01*
X53127Y-31931D01*
X52991Y-31987D01*
X52888Y-32091D01*
X52831Y-32226D01*
X52831Y-32372D01*
X52887Y-32508D01*
X52991Y-32611D01*
X53126Y-32668D01*
X53272Y-32668D01*
X53408Y-32612D01*
X53421Y-32599D01*
X54043Y-32599D01*
X54031Y-32626D01*
X54031Y-32772D01*
X54087Y-32908D01*
X54191Y-33011D01*
X54295Y-33055D01*
X54337Y-33158D01*
X54441Y-33261D01*
X54576Y-33318D01*
X54722Y-33318D01*
X54858Y-33262D01*
X54871Y-33249D01*
X55035Y-33249D01*
X54975Y-33395D01*
X54974Y-33603D01*
X55054Y-33797D01*
X55202Y-33944D01*
X55335Y-34000D01*
X55203Y-34054D01*
X55055Y-34202D01*
X54975Y-34395D01*
X54974Y-34603D01*
X55054Y-34797D01*
X55202Y-34944D01*
X55210Y-34948D01*
X55223Y-35014D01*
X55288Y-35111D01*
X55685Y-35508D01*
X55604Y-35475D01*
X55396Y-35474D01*
X55203Y-35554D01*
X55055Y-35702D01*
X54975Y-35895D01*
X54974Y-36001D01*
X54761Y-35788D01*
X54664Y-35723D01*
X54550Y-35700D01*
X54443Y-35700D01*
X54297Y-35555D01*
X54104Y-35475D01*
X53896Y-35474D01*
X53703Y-35554D01*
X53555Y-35702D01*
X53475Y-35895D01*
X53474Y-36103D01*
X53514Y-36200D01*
X53500Y-36200D01*
X53404Y-36219D01*
X53385Y-36223D01*
X53288Y-36288D01*
X53024Y-36551D01*
X53025Y-36396D01*
X52945Y-36203D01*
X52797Y-36055D01*
X52664Y-35999D01*
X52797Y-35945D01*
X52944Y-35797D01*
X53024Y-35604D01*
X53025Y-35396D01*
X53007Y-35353D01*
X53108Y-35312D01*
X53121Y-35299D01*
X54250Y-35299D01*
X54364Y-35276D01*
X54376Y-35268D01*
X54422Y-35268D01*
X54558Y-35212D01*
X54661Y-35108D01*
X54718Y-34973D01*
X54718Y-34827D01*
X54662Y-34691D01*
X54558Y-34588D01*
X54423Y-34531D01*
X54277Y-34531D01*
X54141Y-34587D01*
X54038Y-34691D01*
X54034Y-34700D01*
X53121Y-34700D01*
X53108Y-34688D01*
X53007Y-34646D01*
X53024Y-34604D01*
X53025Y-34396D01*
X52945Y-34203D01*
X52797Y-34055D01*
X52604Y-33975D01*
X52396Y-33974D01*
X52203Y-34054D01*
X52055Y-34202D01*
X51975Y-34395D01*
X51974Y-34603D01*
X52054Y-34797D01*
X52202Y-34944D01*
X52335Y-35000D01*
X52203Y-35054D01*
X52055Y-35202D01*
X51975Y-35395D01*
X51974Y-35603D01*
X52054Y-35797D01*
X52202Y-35944D01*
X52335Y-36000D01*
X52203Y-36054D01*
X52055Y-36202D01*
X51975Y-36395D01*
X51974Y-36603D01*
X52054Y-36797D01*
X52202Y-36944D01*
X52335Y-37000D01*
X52203Y-37054D01*
X52055Y-37202D01*
X51975Y-37395D01*
X51974Y-37603D01*
X52054Y-37797D01*
X52202Y-37944D01*
X52335Y-38000D01*
X52203Y-38054D01*
X52055Y-38202D01*
X51975Y-38395D01*
X51974Y-38603D01*
X52014Y-38700D01*
X49985Y-38700D01*
X50024Y-38604D01*
X50025Y-38396D01*
X49945Y-38203D01*
X49797Y-38055D01*
X49664Y-37999D01*
X49797Y-37945D01*
X49944Y-37797D01*
X50024Y-37604D01*
X50025Y-37396D01*
X49945Y-37203D01*
X49797Y-37055D01*
X49664Y-36999D01*
X49797Y-36945D01*
X49944Y-36797D01*
X50024Y-36604D01*
X50025Y-36396D01*
X49945Y-36203D01*
X49797Y-36055D01*
X49664Y-35999D01*
X49797Y-35945D01*
X49944Y-35797D01*
X50024Y-35604D01*
X50025Y-35396D01*
X49945Y-35203D01*
X49797Y-35055D01*
X49664Y-34999D01*
X49797Y-34945D01*
X49944Y-34797D01*
X50024Y-34604D01*
X50025Y-34396D01*
X49945Y-34203D01*
X49797Y-34055D01*
X49725Y-34025D01*
X49824Y-34025D01*
X49916Y-33987D01*
X49986Y-33916D01*
X50024Y-33824D01*
X50025Y-33725D01*
X50025Y-33175D01*
X49987Y-33083D01*
X49916Y-33013D01*
X49824Y-32975D01*
X49725Y-32974D01*
X49175Y-32974D01*
X49083Y-33012D01*
X49013Y-33083D01*
X48975Y-33175D01*
X48975Y-33200D01*
X48943Y-33200D01*
X48797Y-33055D01*
X48604Y-32975D01*
X48396Y-32974D01*
X48203Y-33054D01*
X48055Y-33202D01*
X47975Y-33395D01*
X47974Y-33603D01*
X48054Y-33797D01*
X48202Y-33944D01*
X48335Y-34000D01*
X48203Y-34054D01*
X48055Y-34202D01*
X47975Y-34395D01*
X47974Y-34603D01*
X48054Y-34797D01*
X48200Y-34943D01*
X48200Y-35100D01*
X48223Y-35214D01*
X48288Y-35311D01*
X48451Y-35474D01*
X48396Y-35474D01*
X48203Y-35554D01*
X48055Y-35702D01*
X47975Y-35895D01*
X47974Y-36103D01*
X48008Y-36185D01*
X47611Y-35788D01*
X47514Y-35723D01*
X47448Y-35710D01*
X47445Y-35703D01*
X47297Y-35555D01*
X47104Y-35475D01*
X46896Y-35474D01*
X46703Y-35554D01*
X46555Y-35702D01*
X46475Y-35895D01*
X46474Y-36103D01*
X46554Y-36297D01*
X46702Y-36444D01*
X46835Y-36500D01*
X46703Y-36554D01*
X46555Y-36702D01*
X46475Y-36895D01*
X46474Y-37103D01*
X46554Y-37297D01*
X46702Y-37444D01*
X46895Y-37524D01*
X47103Y-37525D01*
X47297Y-37445D01*
X47334Y-37407D01*
X47638Y-37711D01*
X47735Y-37776D01*
X47735Y-37776D01*
X47850Y-37799D01*
X49056Y-37799D01*
X49202Y-37944D01*
X49335Y-38000D01*
X49203Y-38054D01*
X49056Y-38200D01*
X48943Y-38200D01*
X48797Y-38055D01*
X48604Y-37975D01*
X48396Y-37974D01*
X48203Y-38054D01*
X48055Y-38202D01*
X47975Y-38395D01*
X47974Y-38603D01*
X48017Y-38707D01*
X48017Y-38707D01*
X47935Y-38723D01*
X47838Y-38788D01*
X47426Y-39200D01*
X46943Y-39200D01*
X46797Y-39055D01*
X46604Y-38975D01*
X46396Y-38974D01*
X46203Y-39054D01*
X46056Y-39200D01*
X45500Y-39200D01*
X45385Y-39223D01*
X45288Y-39288D01*
X45126Y-39449D01*
X44650Y-39449D01*
X44558Y-39487D01*
X44488Y-39558D01*
X44450Y-39650D01*
X44449Y-39749D01*
X44449Y-40349D01*
X44487Y-40441D01*
X44558Y-40511D01*
X44650Y-40549D01*
X44672Y-40549D01*
X44534Y-40688D01*
X44450Y-40890D01*
X44449Y-41108D01*
X44533Y-41311D01*
X44688Y-41465D01*
X44769Y-41499D01*
X44688Y-41533D01*
X44534Y-41688D01*
X44450Y-41890D01*
X44449Y-42108D01*
X44533Y-42311D01*
X44688Y-42465D01*
X44769Y-42499D01*
X44688Y-42533D01*
X44534Y-42688D01*
X44450Y-42890D01*
X44449Y-43108D01*
X44533Y-43311D01*
X44688Y-43465D01*
X44769Y-43499D01*
X44688Y-43533D01*
X44534Y-43688D01*
X44450Y-43890D01*
X44449Y-44108D01*
X44533Y-44311D01*
X44688Y-44465D01*
X44890Y-44549D01*
X45108Y-44550D01*
X45311Y-44466D01*
X45465Y-44311D01*
X45549Y-44109D01*
X45550Y-43891D01*
X45466Y-43688D01*
X45311Y-43534D01*
X45230Y-43500D01*
X45311Y-43466D01*
X45465Y-43311D01*
X45471Y-43299D01*
X46056Y-43299D01*
X46202Y-43444D01*
X46395Y-43524D01*
X46603Y-43525D01*
X46797Y-43445D01*
X46943Y-43299D01*
X49926Y-43299D01*
X50192Y-43565D01*
X50055Y-43702D01*
X49975Y-43895D01*
X49974Y-44103D01*
X50054Y-44297D01*
X50202Y-44444D01*
X50395Y-44524D01*
X50603Y-44525D01*
X50797Y-44445D01*
X50944Y-44297D01*
X51000Y-44164D01*
X51054Y-44297D01*
X51202Y-44444D01*
X51395Y-44524D01*
X51603Y-44525D01*
X51797Y-44445D01*
X51944Y-44297D01*
X52000Y-44164D01*
X52054Y-44297D01*
X52202Y-44444D01*
X52395Y-44524D01*
X52603Y-44525D01*
X52797Y-44445D01*
X52944Y-44297D01*
X53000Y-44164D01*
X53054Y-44297D01*
X53202Y-44444D01*
X53395Y-44524D01*
X53603Y-44525D01*
X53797Y-44445D01*
X53944Y-44297D01*
X54024Y-44104D01*
X54025Y-43896D01*
X53945Y-43703D01*
X53797Y-43555D01*
X53604Y-43475D01*
X53396Y-43474D01*
X53203Y-43554D01*
X53055Y-43702D01*
X52999Y-43835D01*
X52945Y-43703D01*
X52797Y-43555D01*
X52604Y-43475D01*
X52396Y-43474D01*
X52203Y-43554D01*
X52055Y-43702D01*
X51999Y-43835D01*
X51945Y-43703D01*
X51797Y-43555D01*
X51604Y-43475D01*
X51396Y-43474D01*
X51203Y-43554D01*
X51055Y-43702D01*
X50999Y-43835D01*
X50945Y-43703D01*
X50799Y-43556D01*
X50799Y-43450D01*
X50776Y-43335D01*
X50711Y-43238D01*
X50261Y-42788D01*
X50164Y-42723D01*
X50050Y-42700D01*
X46943Y-42700D01*
X46797Y-42555D01*
X46664Y-42499D01*
X46797Y-42445D01*
X46943Y-42299D01*
X51228Y-42299D01*
X51291Y-42361D01*
X51426Y-42418D01*
X51572Y-42418D01*
X51708Y-42362D01*
X51811Y-42258D01*
X51868Y-42123D01*
X51868Y-42099D01*
X55778Y-42099D01*
X55791Y-42111D01*
X55926Y-42168D01*
X56072Y-42168D01*
X56208Y-42112D01*
X56311Y-42008D01*
X56368Y-41873D01*
X56368Y-41799D01*
X57277Y-41799D01*
X57101Y-41975D01*
X56896Y-41974D01*
X56703Y-42054D01*
X56555Y-42202D01*
X56475Y-42395D01*
X56474Y-42603D01*
X56554Y-42797D01*
X56702Y-42944D01*
X56895Y-43024D01*
X57103Y-43025D01*
X57297Y-42945D01*
X57444Y-42797D01*
X57500Y-42664D01*
X57554Y-42797D01*
X57702Y-42944D01*
X57895Y-43024D01*
X58103Y-43025D01*
X58297Y-42945D01*
X58443Y-42799D01*
X58474Y-42799D01*
X58474Y-42824D01*
X58512Y-42916D01*
X58583Y-42986D01*
X58675Y-43024D01*
X58774Y-43025D01*
X58774Y-43025D01*
X58703Y-43054D01*
X58555Y-43202D01*
X58475Y-43395D01*
X58474Y-43603D01*
X58554Y-43797D01*
X58702Y-43944D01*
X58835Y-44000D01*
X58703Y-44054D01*
X58555Y-44202D01*
X58475Y-44395D01*
X58474Y-44603D01*
X58554Y-44797D01*
X58702Y-44944D01*
X58835Y-45000D01*
X58703Y-45054D01*
X58555Y-45202D01*
X58475Y-45395D01*
X58474Y-45603D01*
X58514Y-45700D01*
X57525Y-45700D01*
X57525Y-44896D01*
X57445Y-44703D01*
X57297Y-44555D01*
X57164Y-44499D01*
X57297Y-44445D01*
X57444Y-44297D01*
X57524Y-44104D01*
X57525Y-43896D01*
X57445Y-43703D01*
X57297Y-43555D01*
X57104Y-43475D01*
X56896Y-43474D01*
X56703Y-43554D01*
X56555Y-43702D01*
X56499Y-43835D01*
X56445Y-43703D01*
X56297Y-43555D01*
X56104Y-43475D01*
X55896Y-43474D01*
X55703Y-43554D01*
X55555Y-43702D01*
X55475Y-43895D01*
X55474Y-44103D01*
X55554Y-44297D01*
X55702Y-44444D01*
X55835Y-44500D01*
X55703Y-44554D01*
X55555Y-44702D01*
X55475Y-44895D01*
X55474Y-45103D01*
X55554Y-45297D01*
X55702Y-45444D01*
X55895Y-45524D01*
X56103Y-45525D01*
X56297Y-45445D01*
X56443Y-45299D01*
X56556Y-45299D01*
X56702Y-45444D01*
X56895Y-45524D01*
X57103Y-45525D01*
X57297Y-45445D01*
X57444Y-45297D01*
X57524Y-45104D01*
X57525Y-44896D01*
X57525Y-45700D01*
X55500Y-45700D01*
X55385Y-45723D01*
X55288Y-45788D01*
X55126Y-45949D01*
X54650Y-45949D01*
X54558Y-45987D01*
X54488Y-46058D01*
X54450Y-46150D01*
X54449Y-46249D01*
X54449Y-46631D01*
X54427Y-46631D01*
X54291Y-46687D01*
X54188Y-46791D01*
X54131Y-46926D01*
X54131Y-47072D01*
X54184Y-47200D01*
X53985Y-47200D01*
X54024Y-47104D01*
X54025Y-46896D01*
X53945Y-46703D01*
X53797Y-46555D01*
X53604Y-46475D01*
X53396Y-46474D01*
X53203Y-46554D01*
X53055Y-46702D01*
X52999Y-46835D01*
X52945Y-46703D01*
X52797Y-46555D01*
X52604Y-46475D01*
X52396Y-46474D01*
X52203Y-46554D01*
X52055Y-46702D01*
X51999Y-46835D01*
X51945Y-46703D01*
X51797Y-46555D01*
X51604Y-46475D01*
X51396Y-46474D01*
X51203Y-46554D01*
X51055Y-46702D01*
X50975Y-46895D01*
X50974Y-47103D01*
X51054Y-47297D01*
X51202Y-47444D01*
X51395Y-47524D01*
X51601Y-47525D01*
X51667Y-47590D01*
X51555Y-47702D01*
X51499Y-47835D01*
X51445Y-47703D01*
X51297Y-47555D01*
X51104Y-47475D01*
X50898Y-47474D01*
X50761Y-47338D01*
X50664Y-47273D01*
X50550Y-47250D01*
X49523Y-47250D01*
X49368Y-47095D01*
X49368Y-47077D01*
X49312Y-46941D01*
X49208Y-46838D01*
X49073Y-46781D01*
X48927Y-46781D01*
X48791Y-46837D01*
X48688Y-46941D01*
X48631Y-47076D01*
X48631Y-47222D01*
X48687Y-47358D01*
X48791Y-47461D01*
X48926Y-47518D01*
X48944Y-47518D01*
X49126Y-47699D01*
X48992Y-47699D01*
X48606Y-47859D01*
X48310Y-48154D01*
X48150Y-48540D01*
X48149Y-48957D01*
X48309Y-49344D01*
X48435Y-49470D01*
X43979Y-49470D01*
X43979Y-29029D01*
X48935Y-29029D01*
X48810Y-29154D01*
X48650Y-29540D01*
X48649Y-29957D01*
X48809Y-30344D01*
X49104Y-30639D01*
X49490Y-30799D01*
X49631Y-30799D01*
X49631Y-30872D01*
X49687Y-31008D01*
X49791Y-31111D01*
X49926Y-31168D01*
X50072Y-31168D01*
X50100Y-31156D01*
X50055Y-31202D01*
X49975Y-31395D01*
X49974Y-31603D01*
X50054Y-31797D01*
X50202Y-31944D01*
X50395Y-32024D01*
X50603Y-32025D01*
X50797Y-31945D01*
X50944Y-31797D01*
X51024Y-31604D01*
X51025Y-31396D01*
X50945Y-31203D01*
X50797Y-31055D01*
X50604Y-30975D01*
X50396Y-30974D01*
X50310Y-31010D01*
X50311Y-31008D01*
X50368Y-30873D01*
X50368Y-30727D01*
X50345Y-30671D01*
X50349Y-30650D01*
X50338Y-30596D01*
X50589Y-30345D01*
X50652Y-30194D01*
X50682Y-30239D01*
X50874Y-30367D01*
X51100Y-30412D01*
X51325Y-30367D01*
X51517Y-30239D01*
X51600Y-30115D01*
X51682Y-30239D01*
X51874Y-30367D01*
X52100Y-30412D01*
X52325Y-30367D01*
X52517Y-30239D01*
X52600Y-30115D01*
X52682Y-30239D01*
X52874Y-30367D01*
X53100Y-30412D01*
X53325Y-30367D01*
X53517Y-30239D01*
X53600Y-30115D01*
X53682Y-30239D01*
X53874Y-30367D01*
X54100Y-30412D01*
X54325Y-30367D01*
X54517Y-30239D01*
X54600Y-30115D01*
X54682Y-30239D01*
X54874Y-30367D01*
X55100Y-30412D01*
X55325Y-30367D01*
X55517Y-30239D01*
X55600Y-30115D01*
X55682Y-30239D01*
X55874Y-30367D01*
X56100Y-30412D01*
X56325Y-30367D01*
X56517Y-30239D01*
X56600Y-30115D01*
X56682Y-30239D01*
X56874Y-30367D01*
X57100Y-30412D01*
X57325Y-30367D01*
X57517Y-30239D01*
X57600Y-30115D01*
X57682Y-30239D01*
X57874Y-30367D01*
X58100Y-30412D01*
X58325Y-30367D01*
X58517Y-30239D01*
X58600Y-30115D01*
X58682Y-30239D01*
X58874Y-30367D01*
X59100Y-30412D01*
X59325Y-30367D01*
X59517Y-30239D01*
X59600Y-30115D01*
X59682Y-30239D01*
X59874Y-30367D01*
X60100Y-30412D01*
X60325Y-30367D01*
X60517Y-30239D01*
X60645Y-30048D01*
X60690Y-29822D01*
X60690Y-29677D01*
X60645Y-29451D01*
X60517Y-29260D01*
X60325Y-29132D01*
X60100Y-29087D01*
X59874Y-29132D01*
X59682Y-29260D01*
X59600Y-29384D01*
X59517Y-29260D01*
X59325Y-29132D01*
X59100Y-29087D01*
X58874Y-29132D01*
X58682Y-29260D01*
X58600Y-29384D01*
X58517Y-29260D01*
X58325Y-29132D01*
X58100Y-29087D01*
X57874Y-29132D01*
X57682Y-29260D01*
X57600Y-29384D01*
X57517Y-29260D01*
X57325Y-29132D01*
X57100Y-29087D01*
X56874Y-29132D01*
X56682Y-29260D01*
X56600Y-29384D01*
X56517Y-29260D01*
X56325Y-29132D01*
X56100Y-29087D01*
X55874Y-29132D01*
X55682Y-29260D01*
X55600Y-29384D01*
X55517Y-29260D01*
X55325Y-29132D01*
X55100Y-29087D01*
X54874Y-29132D01*
X54682Y-29260D01*
X54600Y-29384D01*
X54517Y-29260D01*
X54325Y-29132D01*
X54100Y-29087D01*
X53874Y-29132D01*
X53682Y-29260D01*
X53600Y-29384D01*
X53517Y-29260D01*
X53325Y-29132D01*
X53100Y-29087D01*
X52874Y-29132D01*
X52682Y-29260D01*
X52600Y-29384D01*
X52517Y-29260D01*
X52325Y-29132D01*
X52100Y-29087D01*
X51874Y-29132D01*
X51682Y-29260D01*
X51600Y-29384D01*
X51517Y-29260D01*
X51325Y-29132D01*
X51100Y-29087D01*
X50874Y-29132D01*
X50682Y-29260D01*
X50652Y-29305D01*
X50590Y-29156D01*
X50464Y-29029D01*
X68984Y-29029D01*
X69420Y-29465D01*
X69420Y-33850D01*
X69441Y-33956D01*
X69502Y-34047D01*
X70420Y-34965D01*
X70420Y-34985D01*
X70295Y-34860D01*
X69909Y-34700D01*
X69492Y-34699D01*
X69290Y-34783D01*
X69290Y-29822D01*
X69290Y-29677D01*
X69245Y-29451D01*
X69117Y-29260D01*
X68925Y-29132D01*
X68700Y-29087D01*
X68474Y-29132D01*
X68282Y-29260D01*
X68200Y-29384D01*
X68117Y-29260D01*
X67925Y-29132D01*
X67700Y-29087D01*
X67474Y-29132D01*
X67282Y-29260D01*
X67200Y-29384D01*
X67117Y-29260D01*
X66925Y-29132D01*
X66700Y-29087D01*
X66474Y-29132D01*
X66282Y-29260D01*
X66200Y-29384D01*
X66117Y-29260D01*
X65925Y-29132D01*
X65700Y-29087D01*
X65474Y-29132D01*
X65282Y-29260D01*
X65200Y-29384D01*
X65117Y-29260D01*
X64925Y-29132D01*
X64700Y-29087D01*
X64474Y-29132D01*
X64282Y-29260D01*
X64200Y-29384D01*
X64117Y-29260D01*
X63925Y-29132D01*
X63700Y-29087D01*
X63474Y-29132D01*
X63282Y-29260D01*
X63200Y-29384D01*
X63117Y-29260D01*
X62925Y-29132D01*
X62700Y-29087D01*
X62474Y-29132D01*
X62282Y-29260D01*
X62200Y-29384D01*
X62117Y-29260D01*
X61925Y-29132D01*
X61700Y-29087D01*
X61474Y-29132D01*
X61282Y-29260D01*
X61154Y-29451D01*
X61110Y-29677D01*
X61110Y-29822D01*
X61154Y-30048D01*
X61282Y-30239D01*
X61474Y-30367D01*
X61700Y-30412D01*
X61925Y-30367D01*
X62117Y-30239D01*
X62200Y-30115D01*
X62282Y-30239D01*
X62474Y-30367D01*
X62700Y-30412D01*
X62925Y-30367D01*
X63117Y-30239D01*
X63200Y-30115D01*
X63282Y-30239D01*
X63474Y-30367D01*
X63700Y-30412D01*
X63925Y-30367D01*
X64117Y-30239D01*
X64200Y-30115D01*
X64282Y-30239D01*
X64474Y-30367D01*
X64700Y-30412D01*
X64925Y-30367D01*
X65117Y-30239D01*
X65200Y-30115D01*
X65282Y-30239D01*
X65474Y-30367D01*
X65700Y-30412D01*
X65925Y-30367D01*
X66117Y-30239D01*
X66200Y-30115D01*
X66282Y-30239D01*
X66474Y-30367D01*
X66700Y-30412D01*
X66925Y-30367D01*
X67117Y-30239D01*
X67200Y-30115D01*
X67282Y-30239D01*
X67474Y-30367D01*
X67700Y-30412D01*
X67925Y-30367D01*
X68117Y-30239D01*
X68200Y-30115D01*
X68282Y-30239D01*
X68474Y-30367D01*
X68700Y-30412D01*
X68925Y-30367D01*
X69117Y-30239D01*
X69245Y-30048D01*
X69290Y-29822D01*
X69290Y-34783D01*
X69106Y-34859D01*
X68810Y-35154D01*
X68650Y-35540D01*
X68649Y-35957D01*
X68809Y-36344D01*
X69104Y-36639D01*
X69490Y-36799D01*
X69907Y-36800D01*
X70294Y-36640D01*
X70420Y-36514D01*
X70420Y-45985D01*
X70295Y-45860D01*
X69909Y-45700D01*
X69492Y-45699D01*
X69106Y-45859D01*
X68810Y-46154D01*
X68650Y-46540D01*
X68649Y-46957D01*
X68809Y-47344D01*
X69104Y-47639D01*
X69490Y-47799D01*
X69907Y-47800D01*
X70294Y-47640D01*
X70420Y-47514D01*
X70420Y-47634D01*
M02*
