G04 (created by PCBNEW (2013-june-11)-stable) date Sun 17 Jun 2018 18:07:35 EDT*
%MOIN*%
G04 Gerber Fmt 3.4, Leading zero omitted, Abs format*
%FSLAX34Y34*%
G01*
G70*
G90*
G04 APERTURE LIST*
%ADD10C,0.00393701*%
%ADD11O,0.068X0.08*%
%ADD12C,0.16*%
%ADD13C,0.055*%
%ADD14R,0.06X0.06*%
%ADD15C,0.06*%
%ADD16R,0.055X0.055*%
%ADD17R,0.1181X0.1181*%
%ADD18C,0.1181*%
%ADD19R,0.1X0.1*%
%ADD20C,0.1*%
%ADD21C,0.023622*%
%ADD22C,0.00984252*%
%ADD23C,0.0551181*%
%ADD24C,0.01*%
G04 APERTURE END LIST*
G54D10*
G54D11*
X54700Y-48750D03*
X55700Y-48750D03*
X56700Y-48750D03*
X57700Y-48750D03*
X58700Y-48750D03*
X59700Y-48750D03*
X60700Y-48750D03*
X61700Y-48750D03*
X63700Y-48750D03*
X64700Y-48750D03*
X65700Y-48750D03*
X66700Y-48750D03*
X67700Y-48750D03*
X68700Y-48750D03*
X51100Y-29750D03*
X52100Y-29750D03*
X53100Y-29750D03*
X54100Y-29750D03*
X55100Y-29750D03*
X56100Y-29750D03*
X57100Y-29750D03*
X58100Y-29750D03*
X59100Y-29750D03*
X60100Y-29750D03*
X61700Y-29750D03*
X62700Y-29750D03*
X63700Y-29750D03*
X64700Y-29750D03*
X65700Y-29750D03*
X66700Y-29750D03*
X67700Y-29750D03*
X68700Y-29750D03*
G54D12*
X49200Y-48750D03*
X69700Y-46750D03*
X49700Y-29750D03*
X69700Y-35750D03*
G54D13*
X46500Y-43000D03*
X46500Y-42000D03*
X46500Y-40500D03*
X46500Y-39500D03*
X62000Y-41500D03*
X62000Y-40500D03*
X57000Y-42500D03*
X58000Y-42500D03*
G54D14*
X45000Y-40000D03*
G54D15*
X45000Y-41000D03*
X45000Y-42000D03*
X45000Y-43000D03*
X45000Y-44000D03*
G54D14*
X65500Y-36000D03*
G54D15*
X65500Y-35000D03*
X65500Y-34000D03*
X65500Y-33000D03*
G54D14*
X63500Y-36000D03*
G54D15*
X63500Y-35000D03*
X63500Y-34000D03*
X63500Y-33000D03*
G54D14*
X61500Y-36000D03*
G54D15*
X61500Y-35000D03*
X61500Y-34000D03*
X61500Y-33000D03*
G54D16*
X59000Y-42500D03*
G54D13*
X59000Y-43500D03*
X59000Y-44500D03*
X59000Y-45500D03*
X62000Y-45500D03*
X62000Y-44500D03*
X62000Y-43500D03*
X62000Y-42500D03*
G54D16*
X50500Y-47000D03*
G54D13*
X51500Y-47000D03*
X52500Y-47000D03*
X53500Y-47000D03*
X53500Y-44000D03*
X52500Y-44000D03*
X51500Y-44000D03*
X50500Y-44000D03*
G54D16*
X56500Y-33500D03*
G54D13*
X56500Y-34500D03*
X56500Y-35500D03*
X56500Y-36500D03*
X56500Y-37500D03*
X56500Y-38500D03*
X56500Y-39500D03*
X56500Y-40500D03*
X59500Y-40500D03*
X59500Y-39500D03*
X59500Y-38500D03*
X59500Y-37500D03*
X59500Y-36500D03*
X59500Y-35500D03*
X59500Y-34500D03*
X59500Y-33500D03*
G54D16*
X49500Y-33500D03*
G54D13*
X49500Y-34500D03*
X49500Y-35500D03*
X49500Y-36500D03*
X49500Y-37500D03*
X49500Y-38500D03*
X49500Y-39500D03*
X49500Y-40500D03*
X52500Y-40500D03*
X52500Y-39500D03*
X52500Y-38500D03*
X52500Y-37500D03*
X52500Y-36500D03*
X52500Y-35500D03*
X52500Y-34500D03*
X52500Y-33500D03*
X48500Y-38500D03*
X48500Y-39500D03*
X51500Y-31500D03*
X50500Y-31500D03*
X47000Y-36000D03*
X47000Y-37000D03*
X48500Y-36000D03*
X48500Y-37000D03*
X55500Y-33500D03*
X55500Y-34500D03*
X55500Y-36000D03*
X55500Y-37000D03*
X54000Y-36000D03*
X54000Y-37000D03*
X55500Y-38500D03*
X55500Y-39500D03*
X58500Y-31500D03*
X57500Y-31500D03*
X48500Y-33500D03*
X48500Y-34500D03*
G54D17*
X68500Y-41500D03*
G54D18*
X68500Y-43500D03*
G54D19*
X64500Y-45511D03*
G54D20*
X64500Y-43503D03*
X64500Y-41496D03*
X64500Y-39488D03*
G54D13*
X51000Y-48000D03*
X51000Y-49000D03*
X52000Y-49000D03*
X52000Y-48000D03*
X56000Y-44000D03*
X56000Y-45000D03*
X57000Y-45000D03*
X57000Y-44000D03*
X60500Y-47000D03*
X59500Y-47000D03*
X62000Y-47000D03*
X63000Y-47000D03*
G54D14*
X55000Y-46500D03*
G54D15*
X56000Y-46500D03*
X57000Y-46500D03*
X58000Y-46500D03*
G54D13*
X68000Y-31000D03*
X68000Y-32000D03*
X67000Y-32000D03*
X67000Y-31000D03*
G54D21*
X50000Y-30800D03*
X63450Y-47800D03*
X53200Y-32300D03*
X60100Y-32300D03*
X61500Y-46000D03*
X61550Y-38500D03*
X54000Y-49000D03*
X54500Y-47000D03*
X51500Y-42050D03*
X60650Y-35450D03*
X60650Y-41000D03*
X54400Y-32700D03*
X60750Y-32700D03*
X60700Y-34450D03*
X52900Y-35000D03*
X54350Y-34900D03*
X60000Y-34000D03*
X60100Y-41500D03*
X65000Y-38550D03*
X54750Y-33000D03*
X54700Y-35500D03*
X50250Y-41200D03*
X57000Y-41250D03*
X57000Y-35000D03*
X54650Y-37550D03*
X50950Y-40500D03*
X67000Y-47500D03*
X53500Y-38950D03*
X52000Y-40000D03*
G54D22*
X62000Y-40500D02*
X62100Y-40500D01*
X63450Y-41150D02*
X63450Y-47800D01*
X62100Y-40500D02*
X63450Y-41150D01*
X58500Y-31500D02*
X59000Y-31500D01*
X59500Y-32000D02*
X59500Y-33500D01*
X59000Y-31500D02*
X59500Y-32000D01*
X66700Y-29750D02*
X66700Y-30700D01*
X66700Y-30700D02*
X67000Y-31000D01*
X60100Y-29750D02*
X60100Y-32300D01*
X53000Y-37900D02*
X53000Y-36400D01*
X53200Y-36200D02*
X53200Y-32450D01*
X53200Y-32450D02*
X53200Y-32300D01*
X53200Y-32300D02*
X53200Y-32250D01*
X53000Y-36400D02*
X53200Y-36200D01*
X52500Y-47000D02*
X52500Y-45550D01*
X53000Y-45050D02*
X53000Y-37900D01*
X53000Y-37900D02*
X53000Y-37850D01*
X52500Y-45550D02*
X53000Y-45050D01*
X61500Y-45000D02*
X62000Y-44500D01*
X61500Y-46000D02*
X61500Y-45000D01*
X61550Y-41050D02*
X61550Y-38500D01*
X62000Y-41500D02*
X61550Y-41050D01*
X59500Y-39500D02*
X59500Y-38500D01*
X52500Y-39500D02*
X52500Y-38500D01*
X62000Y-43500D02*
X62000Y-43400D01*
X61550Y-41950D02*
X62000Y-41500D01*
X61550Y-42950D02*
X61550Y-41950D01*
X62000Y-43400D02*
X61550Y-42950D01*
X62000Y-44500D02*
X62000Y-43500D01*
X54000Y-47500D02*
X54000Y-49000D01*
X54500Y-47000D02*
X54000Y-47500D01*
X57000Y-45000D02*
X57000Y-46500D01*
X55500Y-37000D02*
X56000Y-37500D01*
X56000Y-39000D02*
X55500Y-39500D01*
X56000Y-37500D02*
X56000Y-39000D01*
G54D23*
X64500Y-39488D02*
X64988Y-39488D01*
X65800Y-44211D02*
X64500Y-45511D01*
X65800Y-40300D02*
X65800Y-44211D01*
X64988Y-39488D02*
X65800Y-40300D01*
G54D22*
X51500Y-42050D02*
X51500Y-44000D01*
X60650Y-41000D02*
X60650Y-35450D01*
X54400Y-32700D02*
X54400Y-34850D01*
X60750Y-32700D02*
X60700Y-32750D01*
X60700Y-32750D02*
X60700Y-34450D01*
X52950Y-36050D02*
X52500Y-36500D01*
X52950Y-35050D02*
X52950Y-36050D01*
X52900Y-35000D02*
X52950Y-35050D01*
X54400Y-34850D02*
X54350Y-34900D01*
X60050Y-41450D02*
X60000Y-34000D01*
X60100Y-41500D02*
X60050Y-41450D01*
X65500Y-34000D02*
X65000Y-34500D01*
X65000Y-34500D02*
X65000Y-38550D01*
X54750Y-35450D02*
X54750Y-33000D01*
X54700Y-35500D02*
X54750Y-35450D01*
X50050Y-40050D02*
X49500Y-39500D01*
X50050Y-41000D02*
X50050Y-40050D01*
X50250Y-41200D02*
X50050Y-41000D01*
X57000Y-35000D02*
X57000Y-41250D01*
X59500Y-40500D02*
X59500Y-41750D01*
X60500Y-42750D02*
X60500Y-47000D01*
X59500Y-41750D02*
X60500Y-42750D01*
X55300Y-44000D02*
X56000Y-44000D01*
X54650Y-43350D02*
X55300Y-44000D01*
X54650Y-37550D02*
X54650Y-43350D01*
X51000Y-48000D02*
X51000Y-40550D01*
X51000Y-40550D02*
X50950Y-40500D01*
X67000Y-32000D02*
X67000Y-47500D01*
X53500Y-38950D02*
X53500Y-44000D01*
X52500Y-44000D02*
X52500Y-41400D01*
X52000Y-40900D02*
X52000Y-40000D01*
X52500Y-41400D02*
X52000Y-40900D01*
X56500Y-34500D02*
X56500Y-34650D01*
X55500Y-35650D02*
X55500Y-36000D01*
X56500Y-34650D02*
X55500Y-35650D01*
X49500Y-34500D02*
X49500Y-34650D01*
X48500Y-35650D02*
X48500Y-36000D01*
X49500Y-34650D02*
X48500Y-35650D01*
X59000Y-42500D02*
X58450Y-43050D01*
X58450Y-43950D02*
X59000Y-44500D01*
X58450Y-43050D02*
X58450Y-43950D01*
X59000Y-43500D02*
X59500Y-44000D01*
X59500Y-45000D02*
X59000Y-45500D01*
X59500Y-44000D02*
X59500Y-45000D01*
G54D10*
G36*
X70420Y-47634D02*
X69502Y-48552D01*
X69441Y-48643D01*
X69420Y-48750D01*
X69420Y-49470D01*
X69290Y-49470D01*
X69290Y-48822D01*
X69290Y-48677D01*
X69245Y-48451D01*
X69117Y-48260D01*
X68925Y-48132D01*
X68700Y-48087D01*
X68474Y-48132D01*
X68282Y-48260D01*
X68200Y-48384D01*
X68117Y-48260D01*
X67925Y-48132D01*
X67700Y-48087D01*
X67474Y-48132D01*
X67282Y-48260D01*
X67200Y-48384D01*
X67117Y-48260D01*
X66925Y-48132D01*
X66700Y-48087D01*
X66474Y-48132D01*
X66325Y-48231D01*
X66325Y-44211D01*
X66325Y-44211D01*
X66325Y-40300D01*
X66285Y-40098D01*
X66285Y-40098D01*
X66239Y-40030D01*
X66171Y-39928D01*
X66171Y-39928D01*
X65359Y-39116D01*
X65189Y-39002D01*
X65046Y-38974D01*
X64990Y-38918D01*
X65072Y-38918D01*
X65208Y-38862D01*
X65311Y-38758D01*
X65368Y-38623D01*
X65368Y-38477D01*
X65312Y-38341D01*
X65299Y-38328D01*
X65299Y-35512D01*
X65390Y-35549D01*
X65608Y-35550D01*
X65811Y-35466D01*
X65965Y-35311D01*
X66049Y-35109D01*
X66050Y-34891D01*
X65966Y-34688D01*
X65811Y-34534D01*
X65730Y-34500D01*
X65811Y-34466D01*
X65965Y-34311D01*
X66049Y-34109D01*
X66050Y-33891D01*
X65966Y-33688D01*
X65811Y-33534D01*
X65609Y-33450D01*
X65391Y-33449D01*
X65188Y-33533D01*
X65034Y-33688D01*
X64950Y-33890D01*
X64949Y-34108D01*
X64955Y-34121D01*
X64788Y-34288D01*
X64723Y-34385D01*
X64700Y-34500D01*
X64700Y-38328D01*
X64688Y-38341D01*
X64631Y-38476D01*
X64631Y-38622D01*
X64685Y-38753D01*
X64649Y-38738D01*
X64351Y-38738D01*
X64075Y-38851D01*
X64050Y-38877D01*
X64050Y-34891D01*
X63966Y-34688D01*
X63811Y-34534D01*
X63730Y-34500D01*
X63811Y-34466D01*
X63965Y-34311D01*
X64049Y-34109D01*
X64050Y-33891D01*
X63966Y-33688D01*
X63811Y-33534D01*
X63609Y-33450D01*
X63391Y-33449D01*
X63188Y-33533D01*
X63034Y-33688D01*
X62950Y-33890D01*
X62949Y-34108D01*
X63033Y-34311D01*
X63188Y-34465D01*
X63269Y-34499D01*
X63188Y-34533D01*
X63034Y-34688D01*
X62950Y-34890D01*
X62949Y-35108D01*
X63033Y-35311D01*
X63188Y-35465D01*
X63390Y-35549D01*
X63608Y-35550D01*
X63811Y-35466D01*
X63965Y-35311D01*
X64049Y-35109D01*
X64050Y-34891D01*
X64050Y-38877D01*
X63864Y-39062D01*
X63750Y-39338D01*
X63749Y-39636D01*
X63863Y-39912D01*
X64074Y-40123D01*
X64350Y-40238D01*
X64648Y-40238D01*
X64893Y-40137D01*
X65274Y-40517D01*
X65274Y-43994D01*
X65250Y-44018D01*
X65250Y-43355D01*
X65250Y-41347D01*
X65136Y-41071D01*
X64925Y-40860D01*
X64649Y-40746D01*
X64351Y-40745D01*
X64075Y-40859D01*
X63864Y-41070D01*
X63750Y-41346D01*
X63749Y-41644D01*
X63863Y-41920D01*
X64074Y-42131D01*
X64350Y-42245D01*
X64648Y-42246D01*
X64924Y-42132D01*
X65135Y-41921D01*
X65249Y-41645D01*
X65250Y-41347D01*
X65250Y-43355D01*
X65136Y-43079D01*
X64925Y-42868D01*
X64649Y-42754D01*
X64351Y-42753D01*
X64075Y-42867D01*
X63864Y-43078D01*
X63750Y-43354D01*
X63749Y-43652D01*
X63863Y-43928D01*
X64074Y-44139D01*
X64350Y-44253D01*
X64648Y-44254D01*
X64924Y-44140D01*
X65135Y-43929D01*
X65249Y-43653D01*
X65250Y-43355D01*
X65250Y-44018D01*
X64506Y-44761D01*
X63950Y-44761D01*
X63858Y-44799D01*
X63788Y-44870D01*
X63750Y-44961D01*
X63749Y-45061D01*
X63749Y-46061D01*
X63787Y-46153D01*
X63858Y-46223D01*
X63950Y-46261D01*
X64049Y-46261D01*
X65049Y-46261D01*
X65141Y-46223D01*
X65211Y-46153D01*
X65249Y-46061D01*
X65250Y-45962D01*
X65250Y-45505D01*
X66171Y-44583D01*
X66171Y-44583D01*
X66171Y-44583D01*
X66239Y-44481D01*
X66285Y-44412D01*
X66285Y-44412D01*
X66325Y-44211D01*
X66325Y-44211D01*
X66325Y-48231D01*
X66282Y-48260D01*
X66200Y-48384D01*
X66117Y-48260D01*
X65925Y-48132D01*
X65700Y-48087D01*
X65474Y-48132D01*
X65282Y-48260D01*
X65200Y-48384D01*
X65117Y-48260D01*
X64925Y-48132D01*
X64700Y-48087D01*
X64474Y-48132D01*
X64282Y-48260D01*
X64200Y-48384D01*
X64117Y-48260D01*
X63925Y-48132D01*
X63700Y-48087D01*
X63679Y-48091D01*
X63761Y-48008D01*
X63818Y-47873D01*
X63818Y-47727D01*
X63762Y-47591D01*
X63749Y-47578D01*
X63749Y-41150D01*
X63739Y-41103D01*
X63732Y-41050D01*
X63727Y-41043D01*
X63726Y-41035D01*
X63700Y-40997D01*
X63673Y-40950D01*
X63665Y-40944D01*
X63661Y-40938D01*
X63623Y-40913D01*
X63579Y-40880D01*
X62512Y-40366D01*
X62445Y-40203D01*
X62297Y-40055D01*
X62104Y-39975D01*
X62050Y-39975D01*
X62050Y-34891D01*
X61966Y-34688D01*
X61811Y-34534D01*
X61730Y-34500D01*
X61811Y-34466D01*
X61965Y-34311D01*
X62049Y-34109D01*
X62050Y-33891D01*
X61966Y-33688D01*
X61811Y-33534D01*
X61609Y-33450D01*
X61391Y-33449D01*
X61188Y-33533D01*
X61034Y-33688D01*
X60999Y-33771D01*
X60999Y-32971D01*
X61061Y-32908D01*
X61118Y-32773D01*
X61118Y-32627D01*
X61062Y-32491D01*
X60958Y-32388D01*
X60823Y-32331D01*
X60677Y-32331D01*
X60541Y-32387D01*
X60438Y-32491D01*
X60381Y-32626D01*
X60381Y-32772D01*
X60400Y-32818D01*
X60400Y-34228D01*
X60388Y-34241D01*
X60331Y-34376D01*
X60331Y-34522D01*
X60387Y-34658D01*
X60491Y-34761D01*
X60626Y-34818D01*
X60772Y-34818D01*
X60908Y-34762D01*
X61011Y-34658D01*
X61068Y-34523D01*
X61068Y-34377D01*
X61046Y-34323D01*
X61188Y-34465D01*
X61269Y-34499D01*
X61188Y-34533D01*
X61034Y-34688D01*
X60950Y-34890D01*
X60949Y-35108D01*
X61033Y-35311D01*
X61188Y-35465D01*
X61390Y-35549D01*
X61608Y-35550D01*
X61811Y-35466D01*
X61965Y-35311D01*
X62049Y-35109D01*
X62050Y-34891D01*
X62050Y-39975D01*
X61896Y-39974D01*
X61849Y-39994D01*
X61849Y-38721D01*
X61861Y-38708D01*
X61918Y-38573D01*
X61918Y-38427D01*
X61862Y-38291D01*
X61758Y-38188D01*
X61623Y-38131D01*
X61477Y-38131D01*
X61341Y-38187D01*
X61238Y-38291D01*
X61181Y-38426D01*
X61181Y-38572D01*
X61237Y-38708D01*
X61250Y-38721D01*
X61250Y-41050D01*
X61273Y-41164D01*
X61338Y-41261D01*
X61475Y-41398D01*
X61474Y-41601D01*
X61338Y-41738D01*
X61273Y-41835D01*
X61250Y-41950D01*
X61250Y-42950D01*
X61273Y-43064D01*
X61338Y-43161D01*
X61503Y-43326D01*
X61475Y-43395D01*
X61474Y-43603D01*
X61554Y-43797D01*
X61700Y-43943D01*
X61700Y-44056D01*
X61555Y-44202D01*
X61475Y-44395D01*
X61474Y-44601D01*
X61288Y-44788D01*
X61223Y-44885D01*
X61200Y-45000D01*
X61200Y-45778D01*
X61188Y-45791D01*
X61131Y-45926D01*
X61131Y-46072D01*
X61187Y-46208D01*
X61291Y-46311D01*
X61426Y-46368D01*
X61572Y-46368D01*
X61708Y-46312D01*
X61811Y-46208D01*
X61868Y-46073D01*
X61868Y-45927D01*
X61812Y-45791D01*
X61799Y-45778D01*
X61799Y-45123D01*
X61898Y-45024D01*
X62103Y-45025D01*
X62297Y-44945D01*
X62444Y-44797D01*
X62524Y-44604D01*
X62525Y-44396D01*
X62445Y-44203D01*
X62299Y-44056D01*
X62299Y-43943D01*
X62444Y-43797D01*
X62524Y-43604D01*
X62525Y-43396D01*
X62445Y-43203D01*
X62297Y-43055D01*
X62104Y-42975D01*
X61998Y-42974D01*
X61849Y-42826D01*
X61849Y-42073D01*
X61898Y-42024D01*
X62103Y-42025D01*
X62297Y-41945D01*
X62444Y-41797D01*
X62524Y-41604D01*
X62525Y-41396D01*
X62445Y-41203D01*
X62297Y-41055D01*
X62164Y-40999D01*
X62297Y-40945D01*
X62309Y-40932D01*
X63150Y-41337D01*
X63150Y-47578D01*
X63138Y-47591D01*
X63081Y-47726D01*
X63081Y-47872D01*
X63137Y-48008D01*
X63241Y-48111D01*
X63376Y-48168D01*
X63420Y-48168D01*
X63282Y-48260D01*
X63154Y-48451D01*
X63110Y-48677D01*
X63110Y-48822D01*
X63154Y-49048D01*
X63282Y-49239D01*
X63474Y-49367D01*
X63700Y-49412D01*
X63925Y-49367D01*
X64117Y-49239D01*
X64200Y-49115D01*
X64282Y-49239D01*
X64474Y-49367D01*
X64700Y-49412D01*
X64925Y-49367D01*
X65117Y-49239D01*
X65200Y-49115D01*
X65282Y-49239D01*
X65474Y-49367D01*
X65700Y-49412D01*
X65925Y-49367D01*
X66117Y-49239D01*
X66200Y-49115D01*
X66282Y-49239D01*
X66474Y-49367D01*
X66700Y-49412D01*
X66925Y-49367D01*
X67117Y-49239D01*
X67200Y-49115D01*
X67282Y-49239D01*
X67474Y-49367D01*
X67700Y-49412D01*
X67925Y-49367D01*
X68117Y-49239D01*
X68200Y-49115D01*
X68282Y-49239D01*
X68474Y-49367D01*
X68700Y-49412D01*
X68925Y-49367D01*
X69117Y-49239D01*
X69245Y-49048D01*
X69290Y-48822D01*
X69290Y-49470D01*
X62525Y-49470D01*
X62525Y-46896D01*
X62445Y-46703D01*
X62297Y-46555D01*
X62104Y-46475D01*
X61896Y-46474D01*
X61703Y-46554D01*
X61555Y-46702D01*
X61475Y-46895D01*
X61474Y-47103D01*
X61554Y-47297D01*
X61702Y-47444D01*
X61895Y-47524D01*
X62103Y-47525D01*
X62297Y-47445D01*
X62444Y-47297D01*
X62524Y-47104D01*
X62525Y-46896D01*
X62525Y-49470D01*
X62290Y-49470D01*
X62290Y-48822D01*
X62290Y-48677D01*
X62245Y-48451D01*
X62117Y-48260D01*
X61925Y-48132D01*
X61700Y-48087D01*
X61474Y-48132D01*
X61282Y-48260D01*
X61154Y-48451D01*
X61110Y-48677D01*
X61110Y-48822D01*
X61154Y-49048D01*
X61282Y-49239D01*
X61474Y-49367D01*
X61700Y-49412D01*
X61925Y-49367D01*
X62117Y-49239D01*
X62245Y-49048D01*
X62290Y-48822D01*
X62290Y-49470D01*
X61025Y-49470D01*
X61025Y-46896D01*
X60945Y-46703D01*
X60799Y-46556D01*
X60799Y-42750D01*
X60780Y-42654D01*
X60776Y-42635D01*
X60776Y-42635D01*
X60711Y-42538D01*
X60041Y-41868D01*
X60172Y-41868D01*
X60308Y-41812D01*
X60411Y-41708D01*
X60468Y-41573D01*
X60468Y-41427D01*
X60412Y-41291D01*
X60349Y-41229D01*
X60349Y-41220D01*
X60441Y-41311D01*
X60576Y-41368D01*
X60722Y-41368D01*
X60858Y-41312D01*
X60961Y-41208D01*
X61018Y-41073D01*
X61018Y-40927D01*
X60962Y-40791D01*
X60949Y-40778D01*
X60949Y-35671D01*
X60961Y-35658D01*
X61018Y-35523D01*
X61018Y-35377D01*
X60962Y-35241D01*
X60858Y-35138D01*
X60723Y-35081D01*
X60577Y-35081D01*
X60441Y-35137D01*
X60338Y-35241D01*
X60308Y-35312D01*
X60300Y-34219D01*
X60311Y-34208D01*
X60368Y-34073D01*
X60368Y-33927D01*
X60312Y-33791D01*
X60208Y-33688D01*
X60073Y-33631D01*
X60013Y-33631D01*
X60024Y-33604D01*
X60025Y-33396D01*
X59945Y-33203D01*
X59799Y-33056D01*
X59799Y-32519D01*
X59891Y-32611D01*
X60026Y-32668D01*
X60172Y-32668D01*
X60308Y-32612D01*
X60411Y-32508D01*
X60468Y-32373D01*
X60468Y-32227D01*
X60412Y-32091D01*
X60399Y-32078D01*
X60399Y-30318D01*
X60517Y-30239D01*
X60645Y-30048D01*
X60690Y-29822D01*
X60690Y-29677D01*
X60645Y-29451D01*
X60517Y-29260D01*
X60325Y-29132D01*
X60100Y-29087D01*
X59874Y-29132D01*
X59682Y-29260D01*
X59600Y-29384D01*
X59517Y-29260D01*
X59325Y-29132D01*
X59100Y-29087D01*
X58874Y-29132D01*
X58682Y-29260D01*
X58600Y-29384D01*
X58517Y-29260D01*
X58325Y-29132D01*
X58100Y-29087D01*
X57874Y-29132D01*
X57682Y-29260D01*
X57600Y-29384D01*
X57517Y-29260D01*
X57325Y-29132D01*
X57100Y-29087D01*
X56874Y-29132D01*
X56682Y-29260D01*
X56600Y-29384D01*
X56517Y-29260D01*
X56325Y-29132D01*
X56100Y-29087D01*
X55874Y-29132D01*
X55682Y-29260D01*
X55600Y-29384D01*
X55517Y-29260D01*
X55325Y-29132D01*
X55100Y-29087D01*
X54874Y-29132D01*
X54682Y-29260D01*
X54554Y-29451D01*
X54510Y-29677D01*
X54510Y-29822D01*
X54554Y-30048D01*
X54682Y-30239D01*
X54874Y-30367D01*
X55100Y-30412D01*
X55325Y-30367D01*
X55517Y-30239D01*
X55600Y-30115D01*
X55682Y-30239D01*
X55874Y-30367D01*
X56100Y-30412D01*
X56325Y-30367D01*
X56517Y-30239D01*
X56600Y-30115D01*
X56682Y-30239D01*
X56874Y-30367D01*
X57100Y-30412D01*
X57325Y-30367D01*
X57517Y-30239D01*
X57600Y-30115D01*
X57682Y-30239D01*
X57874Y-30367D01*
X58100Y-30412D01*
X58325Y-30367D01*
X58517Y-30239D01*
X58600Y-30115D01*
X58682Y-30239D01*
X58874Y-30367D01*
X59100Y-30412D01*
X59325Y-30367D01*
X59517Y-30239D01*
X59600Y-30115D01*
X59682Y-30239D01*
X59800Y-30318D01*
X59800Y-32078D01*
X59799Y-32080D01*
X59799Y-32000D01*
X59776Y-31885D01*
X59776Y-31885D01*
X59711Y-31788D01*
X59211Y-31288D01*
X59114Y-31223D01*
X59000Y-31200D01*
X58943Y-31200D01*
X58797Y-31055D01*
X58604Y-30975D01*
X58396Y-30974D01*
X58203Y-31054D01*
X58055Y-31202D01*
X57975Y-31395D01*
X57974Y-31603D01*
X58054Y-31797D01*
X58202Y-31944D01*
X58395Y-32024D01*
X58603Y-32025D01*
X58797Y-31945D01*
X58909Y-31832D01*
X59200Y-32123D01*
X59200Y-33056D01*
X59055Y-33202D01*
X58975Y-33395D01*
X58974Y-33603D01*
X59054Y-33797D01*
X59202Y-33944D01*
X59395Y-34024D01*
X59603Y-34025D01*
X59631Y-34013D01*
X59631Y-34072D01*
X59687Y-34208D01*
X59702Y-34222D01*
X59707Y-35017D01*
X59604Y-34975D01*
X59396Y-34974D01*
X59203Y-35054D01*
X59055Y-35202D01*
X58975Y-35395D01*
X58974Y-35603D01*
X59054Y-35797D01*
X59202Y-35944D01*
X59335Y-36000D01*
X59203Y-36054D01*
X59055Y-36202D01*
X58975Y-36395D01*
X58974Y-36603D01*
X59054Y-36797D01*
X59202Y-36944D01*
X59335Y-37000D01*
X59203Y-37054D01*
X59055Y-37202D01*
X58975Y-37395D01*
X58974Y-37603D01*
X59054Y-37797D01*
X59202Y-37944D01*
X59335Y-38000D01*
X59203Y-38054D01*
X59055Y-38202D01*
X58975Y-38395D01*
X58974Y-38603D01*
X59054Y-38797D01*
X59200Y-38943D01*
X59200Y-39056D01*
X59055Y-39202D01*
X58975Y-39395D01*
X58974Y-39603D01*
X59054Y-39797D01*
X59202Y-39944D01*
X59335Y-40000D01*
X59203Y-40054D01*
X59055Y-40202D01*
X58975Y-40395D01*
X58974Y-40603D01*
X59054Y-40797D01*
X59200Y-40943D01*
X59200Y-41750D01*
X59223Y-41864D01*
X59288Y-41961D01*
X59301Y-41975D01*
X59225Y-41974D01*
X58675Y-41974D01*
X58583Y-42012D01*
X58513Y-42083D01*
X58475Y-42175D01*
X58474Y-42274D01*
X58474Y-42274D01*
X58445Y-42203D01*
X58297Y-42055D01*
X58104Y-41975D01*
X57896Y-41974D01*
X57703Y-42054D01*
X57555Y-42202D01*
X57499Y-42335D01*
X57445Y-42203D01*
X57297Y-42055D01*
X57104Y-41975D01*
X56896Y-41974D01*
X56703Y-42054D01*
X56555Y-42202D01*
X56475Y-42395D01*
X56474Y-42603D01*
X56554Y-42797D01*
X56702Y-42944D01*
X56895Y-43024D01*
X57103Y-43025D01*
X57297Y-42945D01*
X57444Y-42797D01*
X57500Y-42664D01*
X57554Y-42797D01*
X57702Y-42944D01*
X57895Y-43024D01*
X58103Y-43025D01*
X58160Y-43001D01*
X58150Y-43050D01*
X58150Y-43950D01*
X58173Y-44064D01*
X58238Y-44161D01*
X58475Y-44398D01*
X58474Y-44603D01*
X58554Y-44797D01*
X58702Y-44944D01*
X58835Y-45000D01*
X58703Y-45054D01*
X58555Y-45202D01*
X58475Y-45395D01*
X58474Y-45603D01*
X58554Y-45797D01*
X58702Y-45944D01*
X58895Y-46024D01*
X59103Y-46025D01*
X59297Y-45945D01*
X59444Y-45797D01*
X59524Y-45604D01*
X59525Y-45398D01*
X59711Y-45211D01*
X59776Y-45114D01*
X59776Y-45114D01*
X59799Y-45000D01*
X59799Y-44000D01*
X59776Y-43885D01*
X59776Y-43885D01*
X59711Y-43788D01*
X59524Y-43601D01*
X59525Y-43396D01*
X59445Y-43203D01*
X59297Y-43055D01*
X59225Y-43025D01*
X59324Y-43025D01*
X59416Y-42987D01*
X59486Y-42916D01*
X59524Y-42824D01*
X59525Y-42725D01*
X59525Y-42198D01*
X60200Y-42873D01*
X60200Y-46556D01*
X60055Y-46702D01*
X59999Y-46835D01*
X59945Y-46703D01*
X59797Y-46555D01*
X59604Y-46475D01*
X59396Y-46474D01*
X59203Y-46554D01*
X59055Y-46702D01*
X58975Y-46895D01*
X58974Y-47103D01*
X59054Y-47297D01*
X59202Y-47444D01*
X59395Y-47524D01*
X59603Y-47525D01*
X59797Y-47445D01*
X59944Y-47297D01*
X60000Y-47164D01*
X60054Y-47297D01*
X60202Y-47444D01*
X60395Y-47524D01*
X60603Y-47525D01*
X60797Y-47445D01*
X60944Y-47297D01*
X61024Y-47104D01*
X61025Y-46896D01*
X61025Y-49470D01*
X52236Y-49470D01*
X52297Y-49445D01*
X52444Y-49297D01*
X52524Y-49104D01*
X52525Y-48896D01*
X52445Y-48703D01*
X52297Y-48555D01*
X52104Y-48475D01*
X51896Y-48474D01*
X51703Y-48554D01*
X51555Y-48702D01*
X51499Y-48835D01*
X51445Y-48703D01*
X51297Y-48555D01*
X51164Y-48499D01*
X51297Y-48445D01*
X51444Y-48297D01*
X51524Y-48104D01*
X51525Y-47896D01*
X51445Y-47703D01*
X51299Y-47556D01*
X51299Y-47485D01*
X51395Y-47524D01*
X51603Y-47525D01*
X51797Y-47445D01*
X51944Y-47297D01*
X52000Y-47164D01*
X52054Y-47297D01*
X52202Y-47444D01*
X52395Y-47524D01*
X52603Y-47525D01*
X52797Y-47445D01*
X52944Y-47297D01*
X53024Y-47104D01*
X53025Y-46896D01*
X52945Y-46703D01*
X52799Y-46556D01*
X52799Y-45673D01*
X53211Y-45261D01*
X53276Y-45164D01*
X53276Y-45164D01*
X53299Y-45050D01*
X53299Y-44485D01*
X53395Y-44524D01*
X53603Y-44525D01*
X53797Y-44445D01*
X53944Y-44297D01*
X54024Y-44104D01*
X54025Y-43896D01*
X53945Y-43703D01*
X53799Y-43556D01*
X53799Y-39171D01*
X53811Y-39158D01*
X53868Y-39023D01*
X53868Y-38877D01*
X53812Y-38741D01*
X53708Y-38638D01*
X53573Y-38581D01*
X53427Y-38581D01*
X53299Y-38634D01*
X53299Y-37900D01*
X53299Y-37850D01*
X53299Y-36523D01*
X53411Y-36411D01*
X53476Y-36314D01*
X53476Y-36314D01*
X53499Y-36200D01*
X53499Y-36200D01*
X53499Y-36162D01*
X53554Y-36297D01*
X53702Y-36444D01*
X53835Y-36500D01*
X53703Y-36554D01*
X53555Y-36702D01*
X53475Y-36895D01*
X53474Y-37103D01*
X53554Y-37297D01*
X53702Y-37444D01*
X53895Y-37524D01*
X54103Y-37525D01*
X54294Y-37446D01*
X54281Y-37476D01*
X54281Y-37622D01*
X54337Y-37758D01*
X54350Y-37771D01*
X54350Y-43350D01*
X54373Y-43464D01*
X54438Y-43561D01*
X55088Y-44211D01*
X55088Y-44211D01*
X55153Y-44254D01*
X55185Y-44276D01*
X55185Y-44276D01*
X55300Y-44299D01*
X55556Y-44299D01*
X55702Y-44444D01*
X55835Y-44500D01*
X55703Y-44554D01*
X55555Y-44702D01*
X55475Y-44895D01*
X55474Y-45103D01*
X55554Y-45297D01*
X55702Y-45444D01*
X55895Y-45524D01*
X56103Y-45525D01*
X56297Y-45445D01*
X56444Y-45297D01*
X56500Y-45164D01*
X56554Y-45297D01*
X56700Y-45443D01*
X56700Y-46028D01*
X56688Y-46033D01*
X56534Y-46188D01*
X56500Y-46269D01*
X56466Y-46188D01*
X56311Y-46034D01*
X56109Y-45950D01*
X55891Y-45949D01*
X55688Y-46033D01*
X55550Y-46172D01*
X55550Y-46150D01*
X55512Y-46058D01*
X55441Y-45988D01*
X55349Y-45950D01*
X55250Y-45949D01*
X54650Y-45949D01*
X54558Y-45987D01*
X54488Y-46058D01*
X54450Y-46150D01*
X54449Y-46249D01*
X54449Y-46631D01*
X54427Y-46631D01*
X54291Y-46687D01*
X54188Y-46791D01*
X54131Y-46926D01*
X54131Y-46944D01*
X53788Y-47288D01*
X53723Y-47385D01*
X53700Y-47500D01*
X53700Y-48778D01*
X53688Y-48791D01*
X53631Y-48926D01*
X53631Y-49072D01*
X53687Y-49208D01*
X53791Y-49311D01*
X53926Y-49368D01*
X54072Y-49368D01*
X54208Y-49312D01*
X54281Y-49238D01*
X54282Y-49239D01*
X54474Y-49367D01*
X54700Y-49412D01*
X54925Y-49367D01*
X55117Y-49239D01*
X55200Y-49115D01*
X55282Y-49239D01*
X55474Y-49367D01*
X55700Y-49412D01*
X55925Y-49367D01*
X56117Y-49239D01*
X56200Y-49115D01*
X56282Y-49239D01*
X56474Y-49367D01*
X56700Y-49412D01*
X56925Y-49367D01*
X57117Y-49239D01*
X57200Y-49115D01*
X57282Y-49239D01*
X57474Y-49367D01*
X57700Y-49412D01*
X57925Y-49367D01*
X58117Y-49239D01*
X58200Y-49115D01*
X58282Y-49239D01*
X58474Y-49367D01*
X58700Y-49412D01*
X58925Y-49367D01*
X59117Y-49239D01*
X59245Y-49048D01*
X59290Y-48822D01*
X59290Y-48677D01*
X59245Y-48451D01*
X59117Y-48260D01*
X58925Y-48132D01*
X58700Y-48087D01*
X58474Y-48132D01*
X58282Y-48260D01*
X58200Y-48384D01*
X58117Y-48260D01*
X57925Y-48132D01*
X57700Y-48087D01*
X57474Y-48132D01*
X57282Y-48260D01*
X57200Y-48384D01*
X57117Y-48260D01*
X56925Y-48132D01*
X56700Y-48087D01*
X56474Y-48132D01*
X56282Y-48260D01*
X56200Y-48384D01*
X56117Y-48260D01*
X55925Y-48132D01*
X55700Y-48087D01*
X55474Y-48132D01*
X55282Y-48260D01*
X55200Y-48384D01*
X55117Y-48260D01*
X54925Y-48132D01*
X54700Y-48087D01*
X54474Y-48132D01*
X54299Y-48249D01*
X54299Y-47623D01*
X54554Y-47368D01*
X54572Y-47368D01*
X54708Y-47312D01*
X54811Y-47208D01*
X54868Y-47073D01*
X54868Y-47050D01*
X55349Y-47050D01*
X55441Y-47012D01*
X55511Y-46941D01*
X55549Y-46849D01*
X55549Y-46827D01*
X55688Y-46965D01*
X55890Y-47049D01*
X56108Y-47050D01*
X56311Y-46966D01*
X56465Y-46811D01*
X56499Y-46730D01*
X56533Y-46811D01*
X56688Y-46965D01*
X56890Y-47049D01*
X57108Y-47050D01*
X57311Y-46966D01*
X57465Y-46811D01*
X57499Y-46730D01*
X57533Y-46811D01*
X57688Y-46965D01*
X57890Y-47049D01*
X58108Y-47050D01*
X58311Y-46966D01*
X58465Y-46811D01*
X58549Y-46609D01*
X58550Y-46391D01*
X58466Y-46188D01*
X58311Y-46034D01*
X58109Y-45950D01*
X57891Y-45949D01*
X57688Y-46033D01*
X57534Y-46188D01*
X57500Y-46269D01*
X57466Y-46188D01*
X57311Y-46034D01*
X57299Y-46028D01*
X57299Y-45443D01*
X57444Y-45297D01*
X57524Y-45104D01*
X57525Y-44896D01*
X57445Y-44703D01*
X57297Y-44555D01*
X57104Y-44475D01*
X56896Y-44474D01*
X56703Y-44554D01*
X56555Y-44702D01*
X56499Y-44835D01*
X56445Y-44703D01*
X56297Y-44555D01*
X56164Y-44499D01*
X56297Y-44445D01*
X56444Y-44297D01*
X56524Y-44104D01*
X56525Y-43896D01*
X56445Y-43703D01*
X56297Y-43555D01*
X56104Y-43475D01*
X55896Y-43474D01*
X55703Y-43554D01*
X55556Y-43700D01*
X55423Y-43700D01*
X54949Y-43226D01*
X54949Y-37771D01*
X54961Y-37758D01*
X55018Y-37623D01*
X55018Y-37477D01*
X54962Y-37341D01*
X54858Y-37238D01*
X54723Y-37181D01*
X54577Y-37181D01*
X54475Y-37223D01*
X54524Y-37104D01*
X54525Y-36896D01*
X54445Y-36703D01*
X54297Y-36555D01*
X54164Y-36499D01*
X54297Y-36445D01*
X54444Y-36297D01*
X54524Y-36104D01*
X54525Y-35896D01*
X54489Y-35810D01*
X54491Y-35811D01*
X54626Y-35868D01*
X54772Y-35868D01*
X54908Y-35812D01*
X55011Y-35708D01*
X55068Y-35573D01*
X55068Y-35427D01*
X55049Y-35381D01*
X55049Y-34783D01*
X55054Y-34797D01*
X55202Y-34944D01*
X55395Y-35024D01*
X55603Y-35025D01*
X55770Y-34956D01*
X55288Y-35438D01*
X55223Y-35535D01*
X55221Y-35547D01*
X55203Y-35554D01*
X55055Y-35702D01*
X54975Y-35895D01*
X54974Y-36103D01*
X55054Y-36297D01*
X55202Y-36444D01*
X55395Y-36524D01*
X55603Y-36525D01*
X55797Y-36445D01*
X55944Y-36297D01*
X56024Y-36104D01*
X56025Y-35896D01*
X55945Y-35703D01*
X55907Y-35665D01*
X55974Y-35598D01*
X55974Y-35603D01*
X56054Y-35797D01*
X56202Y-35944D01*
X56335Y-36000D01*
X56203Y-36054D01*
X56055Y-36202D01*
X55975Y-36395D01*
X55974Y-36603D01*
X56054Y-36797D01*
X56202Y-36944D01*
X56335Y-37000D01*
X56203Y-37054D01*
X56055Y-37202D01*
X55975Y-37395D01*
X55974Y-37603D01*
X56054Y-37797D01*
X56202Y-37944D01*
X56335Y-38000D01*
X56203Y-38054D01*
X56055Y-38202D01*
X55999Y-38335D01*
X55945Y-38203D01*
X55797Y-38055D01*
X55604Y-37975D01*
X55396Y-37974D01*
X55203Y-38054D01*
X55055Y-38202D01*
X54975Y-38395D01*
X54974Y-38603D01*
X55054Y-38797D01*
X55202Y-38944D01*
X55395Y-39024D01*
X55603Y-39025D01*
X55797Y-38945D01*
X55944Y-38797D01*
X56000Y-38664D01*
X56054Y-38797D01*
X56202Y-38944D01*
X56335Y-39000D01*
X56203Y-39054D01*
X56055Y-39202D01*
X55975Y-39395D01*
X55974Y-39603D01*
X56054Y-39797D01*
X56202Y-39944D01*
X56335Y-40000D01*
X56203Y-40054D01*
X56055Y-40202D01*
X55975Y-40395D01*
X55974Y-40603D01*
X56054Y-40797D01*
X56202Y-40944D01*
X56395Y-41024D01*
X56603Y-41025D01*
X56700Y-40985D01*
X56700Y-41028D01*
X56688Y-41041D01*
X56631Y-41176D01*
X56631Y-41322D01*
X56687Y-41458D01*
X56791Y-41561D01*
X56926Y-41618D01*
X57072Y-41618D01*
X57208Y-41562D01*
X57311Y-41458D01*
X57368Y-41323D01*
X57368Y-41177D01*
X57312Y-41041D01*
X57299Y-41028D01*
X57299Y-35221D01*
X57311Y-35208D01*
X57368Y-35073D01*
X57368Y-34927D01*
X57312Y-34791D01*
X57208Y-34688D01*
X57073Y-34631D01*
X57013Y-34631D01*
X57024Y-34604D01*
X57025Y-34396D01*
X56945Y-34203D01*
X56797Y-34055D01*
X56725Y-34025D01*
X56824Y-34025D01*
X56916Y-33987D01*
X56986Y-33916D01*
X57024Y-33824D01*
X57025Y-33725D01*
X57025Y-33175D01*
X56987Y-33083D01*
X56916Y-33013D01*
X56824Y-32975D01*
X56725Y-32974D01*
X56175Y-32974D01*
X56083Y-33012D01*
X56013Y-33083D01*
X55975Y-33175D01*
X55974Y-33274D01*
X55974Y-33274D01*
X55945Y-33203D01*
X55797Y-33055D01*
X55604Y-32975D01*
X55396Y-32974D01*
X55203Y-33054D01*
X55071Y-33186D01*
X55118Y-33073D01*
X55118Y-32927D01*
X55062Y-32791D01*
X54958Y-32688D01*
X54823Y-32631D01*
X54768Y-32631D01*
X54768Y-32627D01*
X54712Y-32491D01*
X54608Y-32388D01*
X54473Y-32331D01*
X54327Y-32331D01*
X54191Y-32387D01*
X54088Y-32491D01*
X54031Y-32626D01*
X54031Y-32772D01*
X54087Y-32908D01*
X54100Y-32921D01*
X54100Y-34628D01*
X54038Y-34691D01*
X53981Y-34826D01*
X53981Y-34972D01*
X54037Y-35108D01*
X54141Y-35211D01*
X54276Y-35268D01*
X54411Y-35268D01*
X54388Y-35291D01*
X54331Y-35426D01*
X54331Y-35572D01*
X54343Y-35600D01*
X54297Y-35555D01*
X54104Y-35475D01*
X53896Y-35474D01*
X53703Y-35554D01*
X53555Y-35702D01*
X53499Y-35837D01*
X53499Y-32521D01*
X53511Y-32508D01*
X53568Y-32373D01*
X53568Y-32227D01*
X53512Y-32091D01*
X53408Y-31988D01*
X53273Y-31931D01*
X53127Y-31931D01*
X52991Y-31987D01*
X52888Y-32091D01*
X52831Y-32226D01*
X52831Y-32372D01*
X52887Y-32508D01*
X52900Y-32521D01*
X52900Y-33158D01*
X52797Y-33055D01*
X52604Y-32975D01*
X52396Y-32974D01*
X52203Y-33054D01*
X52055Y-33202D01*
X52025Y-33274D01*
X52025Y-31396D01*
X51945Y-31203D01*
X51797Y-31055D01*
X51604Y-30975D01*
X51396Y-30974D01*
X51203Y-31054D01*
X51055Y-31202D01*
X50975Y-31395D01*
X50974Y-31603D01*
X51054Y-31797D01*
X51202Y-31944D01*
X51395Y-32024D01*
X51603Y-32025D01*
X51797Y-31945D01*
X51944Y-31797D01*
X52024Y-31604D01*
X52025Y-31396D01*
X52025Y-33274D01*
X51975Y-33395D01*
X51974Y-33603D01*
X52054Y-33797D01*
X52202Y-33944D01*
X52395Y-34024D01*
X52603Y-34025D01*
X52797Y-33945D01*
X52900Y-33841D01*
X52900Y-34631D01*
X52827Y-34631D01*
X52691Y-34687D01*
X52588Y-34791D01*
X52531Y-34926D01*
X52531Y-34975D01*
X52396Y-34974D01*
X52203Y-35054D01*
X52055Y-35202D01*
X51975Y-35395D01*
X51974Y-35603D01*
X52054Y-35797D01*
X52202Y-35944D01*
X52335Y-36000D01*
X52203Y-36054D01*
X52055Y-36202D01*
X51975Y-36395D01*
X51974Y-36603D01*
X52054Y-36797D01*
X52202Y-36944D01*
X52335Y-37000D01*
X52203Y-37054D01*
X52055Y-37202D01*
X51975Y-37395D01*
X51974Y-37603D01*
X52054Y-37797D01*
X52202Y-37944D01*
X52335Y-38000D01*
X52203Y-38054D01*
X52055Y-38202D01*
X51975Y-38395D01*
X51974Y-38603D01*
X52054Y-38797D01*
X52200Y-38943D01*
X52200Y-39056D01*
X52055Y-39202D01*
X51975Y-39395D01*
X51974Y-39603D01*
X51986Y-39631D01*
X51927Y-39631D01*
X51791Y-39687D01*
X51688Y-39791D01*
X51631Y-39926D01*
X51631Y-40072D01*
X51687Y-40208D01*
X51700Y-40221D01*
X51700Y-40900D01*
X51723Y-41014D01*
X51788Y-41111D01*
X52200Y-41523D01*
X52200Y-43556D01*
X52055Y-43702D01*
X51999Y-43835D01*
X51945Y-43703D01*
X51799Y-43556D01*
X51799Y-42271D01*
X51811Y-42258D01*
X51868Y-42123D01*
X51868Y-41977D01*
X51812Y-41841D01*
X51708Y-41738D01*
X51573Y-41681D01*
X51427Y-41681D01*
X51299Y-41734D01*
X51299Y-40618D01*
X51318Y-40573D01*
X51318Y-40427D01*
X51262Y-40291D01*
X51158Y-40188D01*
X51023Y-40131D01*
X50877Y-40131D01*
X50741Y-40187D01*
X50638Y-40291D01*
X50581Y-40426D01*
X50581Y-40572D01*
X50637Y-40708D01*
X50700Y-40771D01*
X50700Y-43514D01*
X50618Y-43480D01*
X50618Y-41127D01*
X50562Y-40991D01*
X50458Y-40888D01*
X50349Y-40842D01*
X50349Y-40050D01*
X50326Y-39935D01*
X50326Y-39935D01*
X50261Y-39838D01*
X50024Y-39601D01*
X50025Y-39396D01*
X49945Y-39203D01*
X49797Y-39055D01*
X49664Y-38999D01*
X49797Y-38945D01*
X49944Y-38797D01*
X50024Y-38604D01*
X50025Y-38396D01*
X49945Y-38203D01*
X49797Y-38055D01*
X49664Y-37999D01*
X49797Y-37945D01*
X49944Y-37797D01*
X50024Y-37604D01*
X50025Y-37396D01*
X49945Y-37203D01*
X49797Y-37055D01*
X49664Y-36999D01*
X49797Y-36945D01*
X49944Y-36797D01*
X50024Y-36604D01*
X50025Y-36396D01*
X49945Y-36203D01*
X49797Y-36055D01*
X49664Y-35999D01*
X49797Y-35945D01*
X49944Y-35797D01*
X50024Y-35604D01*
X50025Y-35396D01*
X49945Y-35203D01*
X49797Y-35055D01*
X49664Y-34999D01*
X49797Y-34945D01*
X49944Y-34797D01*
X50024Y-34604D01*
X50025Y-34396D01*
X49945Y-34203D01*
X49797Y-34055D01*
X49725Y-34025D01*
X49824Y-34025D01*
X49916Y-33987D01*
X49986Y-33916D01*
X50024Y-33824D01*
X50025Y-33725D01*
X50025Y-33175D01*
X49987Y-33083D01*
X49916Y-33013D01*
X49824Y-32975D01*
X49725Y-32974D01*
X49175Y-32974D01*
X49083Y-33012D01*
X49013Y-33083D01*
X48975Y-33175D01*
X48974Y-33274D01*
X48974Y-33274D01*
X48945Y-33203D01*
X48797Y-33055D01*
X48604Y-32975D01*
X48396Y-32974D01*
X48203Y-33054D01*
X48055Y-33202D01*
X47975Y-33395D01*
X47974Y-33603D01*
X48054Y-33797D01*
X48202Y-33944D01*
X48335Y-34000D01*
X48203Y-34054D01*
X48055Y-34202D01*
X47975Y-34395D01*
X47974Y-34603D01*
X48054Y-34797D01*
X48202Y-34944D01*
X48395Y-35024D01*
X48603Y-35025D01*
X48770Y-34956D01*
X48288Y-35438D01*
X48223Y-35535D01*
X48221Y-35547D01*
X48203Y-35554D01*
X48055Y-35702D01*
X47975Y-35895D01*
X47974Y-36103D01*
X48054Y-36297D01*
X48202Y-36444D01*
X48395Y-36524D01*
X48603Y-36525D01*
X48797Y-36445D01*
X48944Y-36297D01*
X49024Y-36104D01*
X49025Y-35896D01*
X48945Y-35703D01*
X48907Y-35665D01*
X48974Y-35598D01*
X48974Y-35603D01*
X49054Y-35797D01*
X49202Y-35944D01*
X49335Y-36000D01*
X49203Y-36054D01*
X49055Y-36202D01*
X48975Y-36395D01*
X48974Y-36603D01*
X49054Y-36797D01*
X49202Y-36944D01*
X49335Y-37000D01*
X49203Y-37054D01*
X49055Y-37202D01*
X48975Y-37395D01*
X48974Y-37603D01*
X49054Y-37797D01*
X49202Y-37944D01*
X49335Y-38000D01*
X49203Y-38054D01*
X49055Y-38202D01*
X48999Y-38335D01*
X48945Y-38203D01*
X48797Y-38055D01*
X48604Y-37975D01*
X48396Y-37974D01*
X48203Y-38054D01*
X48055Y-38202D01*
X47975Y-38395D01*
X47974Y-38603D01*
X48054Y-38797D01*
X48202Y-38944D01*
X48395Y-39024D01*
X48603Y-39025D01*
X48797Y-38945D01*
X48944Y-38797D01*
X49000Y-38664D01*
X49054Y-38797D01*
X49202Y-38944D01*
X49335Y-39000D01*
X49203Y-39054D01*
X49055Y-39202D01*
X48975Y-39395D01*
X48974Y-39603D01*
X49054Y-39797D01*
X49202Y-39944D01*
X49335Y-40000D01*
X49203Y-40054D01*
X49055Y-40202D01*
X48975Y-40395D01*
X48974Y-40603D01*
X49054Y-40797D01*
X49202Y-40944D01*
X49395Y-41024D01*
X49603Y-41025D01*
X49750Y-40964D01*
X49750Y-41000D01*
X49773Y-41114D01*
X49838Y-41211D01*
X49881Y-41254D01*
X49881Y-41272D01*
X49937Y-41408D01*
X50041Y-41511D01*
X50176Y-41568D01*
X50322Y-41568D01*
X50458Y-41512D01*
X50561Y-41408D01*
X50618Y-41273D01*
X50618Y-41127D01*
X50618Y-43480D01*
X50604Y-43475D01*
X50396Y-43474D01*
X50203Y-43554D01*
X50055Y-43702D01*
X49975Y-43895D01*
X49974Y-44103D01*
X50054Y-44297D01*
X50202Y-44444D01*
X50395Y-44524D01*
X50603Y-44525D01*
X50700Y-44485D01*
X50700Y-46474D01*
X50175Y-46474D01*
X50083Y-46512D01*
X50013Y-46583D01*
X49975Y-46675D01*
X49974Y-46774D01*
X49974Y-47324D01*
X50012Y-47416D01*
X50083Y-47486D01*
X50175Y-47524D01*
X50274Y-47525D01*
X50700Y-47525D01*
X50700Y-47556D01*
X50555Y-47702D01*
X50475Y-47895D01*
X50474Y-48103D01*
X50554Y-48297D01*
X50702Y-48444D01*
X50835Y-48500D01*
X50703Y-48554D01*
X50555Y-48702D01*
X50475Y-48895D01*
X50474Y-49103D01*
X50554Y-49297D01*
X50702Y-49444D01*
X50764Y-49470D01*
X49964Y-49470D01*
X50089Y-49345D01*
X50249Y-48959D01*
X50250Y-48542D01*
X50090Y-48156D01*
X49795Y-47860D01*
X49409Y-47700D01*
X48992Y-47699D01*
X48606Y-47859D01*
X48310Y-48154D01*
X48150Y-48540D01*
X48149Y-48957D01*
X48309Y-49344D01*
X48435Y-49470D01*
X47525Y-49470D01*
X47525Y-36896D01*
X47445Y-36703D01*
X47297Y-36555D01*
X47164Y-36499D01*
X47297Y-36445D01*
X47444Y-36297D01*
X47524Y-36104D01*
X47525Y-35896D01*
X47445Y-35703D01*
X47297Y-35555D01*
X47104Y-35475D01*
X46896Y-35474D01*
X46703Y-35554D01*
X46555Y-35702D01*
X46475Y-35895D01*
X46474Y-36103D01*
X46554Y-36297D01*
X46702Y-36444D01*
X46835Y-36500D01*
X46703Y-36554D01*
X46555Y-36702D01*
X46475Y-36895D01*
X46474Y-37103D01*
X46554Y-37297D01*
X46702Y-37444D01*
X46895Y-37524D01*
X47103Y-37525D01*
X47297Y-37445D01*
X47444Y-37297D01*
X47524Y-37104D01*
X47525Y-36896D01*
X47525Y-49470D01*
X47025Y-49470D01*
X47025Y-42896D01*
X46945Y-42703D01*
X46797Y-42555D01*
X46664Y-42499D01*
X46797Y-42445D01*
X46944Y-42297D01*
X47024Y-42104D01*
X47025Y-41896D01*
X47025Y-40396D01*
X46945Y-40203D01*
X46797Y-40055D01*
X46664Y-39999D01*
X46797Y-39945D01*
X46944Y-39797D01*
X47024Y-39604D01*
X47025Y-39396D01*
X46945Y-39203D01*
X46797Y-39055D01*
X46604Y-38975D01*
X46396Y-38974D01*
X46203Y-39054D01*
X46055Y-39202D01*
X45975Y-39395D01*
X45974Y-39603D01*
X46054Y-39797D01*
X46202Y-39944D01*
X46335Y-40000D01*
X46203Y-40054D01*
X46055Y-40202D01*
X45975Y-40395D01*
X45974Y-40603D01*
X46054Y-40797D01*
X46202Y-40944D01*
X46395Y-41024D01*
X46603Y-41025D01*
X46797Y-40945D01*
X46944Y-40797D01*
X47024Y-40604D01*
X47025Y-40396D01*
X47025Y-41896D01*
X46945Y-41703D01*
X46797Y-41555D01*
X46604Y-41475D01*
X46396Y-41474D01*
X46203Y-41554D01*
X46055Y-41702D01*
X45975Y-41895D01*
X45974Y-42103D01*
X46054Y-42297D01*
X46202Y-42444D01*
X46335Y-42500D01*
X46203Y-42554D01*
X46055Y-42702D01*
X45975Y-42895D01*
X45974Y-43103D01*
X46054Y-43297D01*
X46202Y-43444D01*
X46395Y-43524D01*
X46603Y-43525D01*
X46797Y-43445D01*
X46944Y-43297D01*
X47024Y-43104D01*
X47025Y-42896D01*
X47025Y-49470D01*
X45550Y-49470D01*
X45550Y-42891D01*
X45466Y-42688D01*
X45311Y-42534D01*
X45230Y-42500D01*
X45311Y-42466D01*
X45465Y-42311D01*
X45549Y-42109D01*
X45550Y-41891D01*
X45466Y-41688D01*
X45311Y-41534D01*
X45230Y-41500D01*
X45311Y-41466D01*
X45465Y-41311D01*
X45549Y-41109D01*
X45550Y-40891D01*
X45466Y-40688D01*
X45327Y-40550D01*
X45349Y-40550D01*
X45441Y-40512D01*
X45511Y-40441D01*
X45549Y-40349D01*
X45550Y-40250D01*
X45550Y-39650D01*
X45512Y-39558D01*
X45441Y-39488D01*
X45349Y-39450D01*
X45250Y-39449D01*
X44650Y-39449D01*
X44558Y-39487D01*
X44488Y-39558D01*
X44450Y-39650D01*
X44449Y-39749D01*
X44449Y-40349D01*
X44487Y-40441D01*
X44558Y-40511D01*
X44650Y-40549D01*
X44672Y-40549D01*
X44534Y-40688D01*
X44450Y-40890D01*
X44449Y-41108D01*
X44533Y-41311D01*
X44688Y-41465D01*
X44769Y-41499D01*
X44688Y-41533D01*
X44534Y-41688D01*
X44450Y-41890D01*
X44449Y-42108D01*
X44533Y-42311D01*
X44688Y-42465D01*
X44769Y-42499D01*
X44688Y-42533D01*
X44534Y-42688D01*
X44450Y-42890D01*
X44449Y-43108D01*
X44533Y-43311D01*
X44688Y-43465D01*
X44890Y-43549D01*
X45108Y-43550D01*
X45311Y-43466D01*
X45465Y-43311D01*
X45549Y-43109D01*
X45550Y-42891D01*
X45550Y-49470D01*
X43979Y-49470D01*
X43979Y-29029D01*
X48935Y-29029D01*
X48810Y-29154D01*
X48650Y-29540D01*
X48649Y-29957D01*
X48809Y-30344D01*
X49104Y-30639D01*
X49490Y-30799D01*
X49631Y-30799D01*
X49631Y-30872D01*
X49687Y-31008D01*
X49791Y-31111D01*
X49926Y-31168D01*
X50072Y-31168D01*
X50208Y-31112D01*
X50311Y-31008D01*
X50368Y-30873D01*
X50368Y-30727D01*
X50321Y-30613D01*
X50589Y-30345D01*
X50652Y-30194D01*
X50682Y-30239D01*
X50874Y-30367D01*
X51100Y-30412D01*
X51325Y-30367D01*
X51517Y-30239D01*
X51600Y-30115D01*
X51682Y-30239D01*
X51874Y-30367D01*
X52100Y-30412D01*
X52325Y-30367D01*
X52517Y-30239D01*
X52600Y-30115D01*
X52682Y-30239D01*
X52874Y-30367D01*
X53100Y-30412D01*
X53325Y-30367D01*
X53517Y-30239D01*
X53645Y-30048D01*
X53690Y-29822D01*
X53690Y-29677D01*
X53645Y-29451D01*
X53517Y-29260D01*
X53325Y-29132D01*
X53100Y-29087D01*
X52874Y-29132D01*
X52682Y-29260D01*
X52600Y-29384D01*
X52517Y-29260D01*
X52325Y-29132D01*
X52100Y-29087D01*
X51874Y-29132D01*
X51682Y-29260D01*
X51600Y-29384D01*
X51517Y-29260D01*
X51325Y-29132D01*
X51100Y-29087D01*
X50874Y-29132D01*
X50682Y-29260D01*
X50652Y-29305D01*
X50590Y-29156D01*
X50464Y-29029D01*
X68984Y-29029D01*
X69420Y-29465D01*
X69420Y-33850D01*
X69441Y-33956D01*
X69502Y-34047D01*
X70420Y-34965D01*
X70420Y-34985D01*
X70295Y-34860D01*
X69909Y-34700D01*
X69492Y-34699D01*
X69290Y-34783D01*
X69290Y-29822D01*
X69290Y-29677D01*
X69245Y-29451D01*
X69117Y-29260D01*
X68925Y-29132D01*
X68700Y-29087D01*
X68474Y-29132D01*
X68282Y-29260D01*
X68200Y-29384D01*
X68117Y-29260D01*
X67925Y-29132D01*
X67700Y-29087D01*
X67474Y-29132D01*
X67282Y-29260D01*
X67200Y-29384D01*
X67117Y-29260D01*
X66925Y-29132D01*
X66700Y-29087D01*
X66474Y-29132D01*
X66282Y-29260D01*
X66200Y-29384D01*
X66117Y-29260D01*
X65925Y-29132D01*
X65700Y-29087D01*
X65474Y-29132D01*
X65282Y-29260D01*
X65200Y-29384D01*
X65117Y-29260D01*
X64925Y-29132D01*
X64700Y-29087D01*
X64474Y-29132D01*
X64282Y-29260D01*
X64200Y-29384D01*
X64117Y-29260D01*
X63925Y-29132D01*
X63700Y-29087D01*
X63474Y-29132D01*
X63282Y-29260D01*
X63200Y-29384D01*
X63117Y-29260D01*
X62925Y-29132D01*
X62700Y-29087D01*
X62474Y-29132D01*
X62282Y-29260D01*
X62200Y-29384D01*
X62117Y-29260D01*
X61925Y-29132D01*
X61700Y-29087D01*
X61474Y-29132D01*
X61282Y-29260D01*
X61154Y-29451D01*
X61110Y-29677D01*
X61110Y-29822D01*
X61154Y-30048D01*
X61282Y-30239D01*
X61474Y-30367D01*
X61700Y-30412D01*
X61925Y-30367D01*
X62117Y-30239D01*
X62200Y-30115D01*
X62282Y-30239D01*
X62474Y-30367D01*
X62700Y-30412D01*
X62925Y-30367D01*
X63117Y-30239D01*
X63200Y-30115D01*
X63282Y-30239D01*
X63474Y-30367D01*
X63700Y-30412D01*
X63925Y-30367D01*
X64117Y-30239D01*
X64200Y-30115D01*
X64282Y-30239D01*
X64474Y-30367D01*
X64700Y-30412D01*
X64925Y-30367D01*
X65117Y-30239D01*
X65200Y-30115D01*
X65282Y-30239D01*
X65474Y-30367D01*
X65700Y-30412D01*
X65925Y-30367D01*
X66117Y-30239D01*
X66200Y-30115D01*
X66282Y-30239D01*
X66400Y-30318D01*
X66400Y-30700D01*
X66423Y-30814D01*
X66475Y-30892D01*
X66475Y-30895D01*
X66474Y-31103D01*
X66554Y-31297D01*
X66702Y-31444D01*
X66835Y-31500D01*
X66703Y-31554D01*
X66555Y-31702D01*
X66475Y-31895D01*
X66474Y-32103D01*
X66554Y-32297D01*
X66700Y-32443D01*
X66700Y-47278D01*
X66688Y-47291D01*
X66631Y-47426D01*
X66631Y-47572D01*
X66687Y-47708D01*
X66791Y-47811D01*
X66926Y-47868D01*
X67072Y-47868D01*
X67208Y-47812D01*
X67311Y-47708D01*
X67368Y-47573D01*
X67368Y-47427D01*
X67312Y-47291D01*
X67299Y-47278D01*
X67299Y-32443D01*
X67444Y-32297D01*
X67524Y-32104D01*
X67525Y-31896D01*
X67445Y-31703D01*
X67297Y-31555D01*
X67164Y-31499D01*
X67297Y-31445D01*
X67444Y-31297D01*
X67500Y-31164D01*
X67554Y-31297D01*
X67702Y-31444D01*
X67895Y-31524D01*
X68103Y-31525D01*
X68297Y-31445D01*
X68444Y-31297D01*
X68524Y-31104D01*
X68525Y-30896D01*
X68445Y-30703D01*
X68297Y-30555D01*
X68104Y-30475D01*
X67896Y-30474D01*
X67703Y-30554D01*
X67555Y-30702D01*
X67499Y-30835D01*
X67445Y-30703D01*
X67297Y-30555D01*
X67104Y-30475D01*
X66999Y-30474D01*
X66999Y-30318D01*
X67117Y-30239D01*
X67200Y-30115D01*
X67282Y-30239D01*
X67474Y-30367D01*
X67700Y-30412D01*
X67925Y-30367D01*
X68117Y-30239D01*
X68200Y-30115D01*
X68282Y-30239D01*
X68474Y-30367D01*
X68700Y-30412D01*
X68925Y-30367D01*
X69117Y-30239D01*
X69245Y-30048D01*
X69290Y-29822D01*
X69290Y-34783D01*
X69106Y-34859D01*
X68810Y-35154D01*
X68650Y-35540D01*
X68649Y-35957D01*
X68809Y-36344D01*
X69104Y-36639D01*
X69490Y-36799D01*
X69907Y-36800D01*
X70294Y-36640D01*
X70420Y-36514D01*
X70420Y-45985D01*
X70295Y-45860D01*
X69909Y-45700D01*
X69492Y-45699D01*
X69340Y-45762D01*
X69340Y-43333D01*
X69340Y-43333D01*
X69340Y-42040D01*
X69340Y-40859D01*
X69302Y-40768D01*
X69232Y-40697D01*
X69140Y-40659D01*
X69040Y-40659D01*
X67859Y-40659D01*
X67768Y-40697D01*
X67697Y-40767D01*
X67659Y-40859D01*
X67659Y-40959D01*
X67659Y-42140D01*
X67697Y-42231D01*
X67767Y-42302D01*
X67859Y-42340D01*
X67959Y-42340D01*
X69140Y-42340D01*
X69231Y-42302D01*
X69302Y-42232D01*
X69340Y-42140D01*
X69340Y-42040D01*
X69340Y-43333D01*
X69212Y-43024D01*
X68976Y-42787D01*
X68667Y-42659D01*
X68333Y-42659D01*
X68024Y-42787D01*
X67787Y-43023D01*
X67659Y-43332D01*
X67659Y-43666D01*
X67787Y-43975D01*
X68023Y-44212D01*
X68332Y-44340D01*
X68666Y-44340D01*
X68975Y-44212D01*
X69212Y-43976D01*
X69340Y-43667D01*
X69340Y-43333D01*
X69340Y-45762D01*
X69106Y-45859D01*
X68810Y-46154D01*
X68650Y-46540D01*
X68649Y-46957D01*
X68809Y-47344D01*
X69104Y-47639D01*
X69490Y-47799D01*
X69907Y-47800D01*
X70294Y-47640D01*
X70420Y-47514D01*
X70420Y-47634D01*
X70420Y-47634D01*
G37*
G54D24*
X70420Y-47634D02*
X69502Y-48552D01*
X69441Y-48643D01*
X69420Y-48750D01*
X69420Y-49470D01*
X69290Y-49470D01*
X69290Y-48822D01*
X69290Y-48677D01*
X69245Y-48451D01*
X69117Y-48260D01*
X68925Y-48132D01*
X68700Y-48087D01*
X68474Y-48132D01*
X68282Y-48260D01*
X68200Y-48384D01*
X68117Y-48260D01*
X67925Y-48132D01*
X67700Y-48087D01*
X67474Y-48132D01*
X67282Y-48260D01*
X67200Y-48384D01*
X67117Y-48260D01*
X66925Y-48132D01*
X66700Y-48087D01*
X66474Y-48132D01*
X66325Y-48231D01*
X66325Y-44211D01*
X66325Y-44211D01*
X66325Y-40300D01*
X66285Y-40098D01*
X66285Y-40098D01*
X66239Y-40030D01*
X66171Y-39928D01*
X66171Y-39928D01*
X65359Y-39116D01*
X65189Y-39002D01*
X65046Y-38974D01*
X64990Y-38918D01*
X65072Y-38918D01*
X65208Y-38862D01*
X65311Y-38758D01*
X65368Y-38623D01*
X65368Y-38477D01*
X65312Y-38341D01*
X65299Y-38328D01*
X65299Y-35512D01*
X65390Y-35549D01*
X65608Y-35550D01*
X65811Y-35466D01*
X65965Y-35311D01*
X66049Y-35109D01*
X66050Y-34891D01*
X65966Y-34688D01*
X65811Y-34534D01*
X65730Y-34500D01*
X65811Y-34466D01*
X65965Y-34311D01*
X66049Y-34109D01*
X66050Y-33891D01*
X65966Y-33688D01*
X65811Y-33534D01*
X65609Y-33450D01*
X65391Y-33449D01*
X65188Y-33533D01*
X65034Y-33688D01*
X64950Y-33890D01*
X64949Y-34108D01*
X64955Y-34121D01*
X64788Y-34288D01*
X64723Y-34385D01*
X64700Y-34500D01*
X64700Y-38328D01*
X64688Y-38341D01*
X64631Y-38476D01*
X64631Y-38622D01*
X64685Y-38753D01*
X64649Y-38738D01*
X64351Y-38738D01*
X64075Y-38851D01*
X64050Y-38877D01*
X64050Y-34891D01*
X63966Y-34688D01*
X63811Y-34534D01*
X63730Y-34500D01*
X63811Y-34466D01*
X63965Y-34311D01*
X64049Y-34109D01*
X64050Y-33891D01*
X63966Y-33688D01*
X63811Y-33534D01*
X63609Y-33450D01*
X63391Y-33449D01*
X63188Y-33533D01*
X63034Y-33688D01*
X62950Y-33890D01*
X62949Y-34108D01*
X63033Y-34311D01*
X63188Y-34465D01*
X63269Y-34499D01*
X63188Y-34533D01*
X63034Y-34688D01*
X62950Y-34890D01*
X62949Y-35108D01*
X63033Y-35311D01*
X63188Y-35465D01*
X63390Y-35549D01*
X63608Y-35550D01*
X63811Y-35466D01*
X63965Y-35311D01*
X64049Y-35109D01*
X64050Y-34891D01*
X64050Y-38877D01*
X63864Y-39062D01*
X63750Y-39338D01*
X63749Y-39636D01*
X63863Y-39912D01*
X64074Y-40123D01*
X64350Y-40238D01*
X64648Y-40238D01*
X64893Y-40137D01*
X65274Y-40517D01*
X65274Y-43994D01*
X65250Y-44018D01*
X65250Y-43355D01*
X65250Y-41347D01*
X65136Y-41071D01*
X64925Y-40860D01*
X64649Y-40746D01*
X64351Y-40745D01*
X64075Y-40859D01*
X63864Y-41070D01*
X63750Y-41346D01*
X63749Y-41644D01*
X63863Y-41920D01*
X64074Y-42131D01*
X64350Y-42245D01*
X64648Y-42246D01*
X64924Y-42132D01*
X65135Y-41921D01*
X65249Y-41645D01*
X65250Y-41347D01*
X65250Y-43355D01*
X65136Y-43079D01*
X64925Y-42868D01*
X64649Y-42754D01*
X64351Y-42753D01*
X64075Y-42867D01*
X63864Y-43078D01*
X63750Y-43354D01*
X63749Y-43652D01*
X63863Y-43928D01*
X64074Y-44139D01*
X64350Y-44253D01*
X64648Y-44254D01*
X64924Y-44140D01*
X65135Y-43929D01*
X65249Y-43653D01*
X65250Y-43355D01*
X65250Y-44018D01*
X64506Y-44761D01*
X63950Y-44761D01*
X63858Y-44799D01*
X63788Y-44870D01*
X63750Y-44961D01*
X63749Y-45061D01*
X63749Y-46061D01*
X63787Y-46153D01*
X63858Y-46223D01*
X63950Y-46261D01*
X64049Y-46261D01*
X65049Y-46261D01*
X65141Y-46223D01*
X65211Y-46153D01*
X65249Y-46061D01*
X65250Y-45962D01*
X65250Y-45505D01*
X66171Y-44583D01*
X66171Y-44583D01*
X66171Y-44583D01*
X66239Y-44481D01*
X66285Y-44412D01*
X66285Y-44412D01*
X66325Y-44211D01*
X66325Y-44211D01*
X66325Y-48231D01*
X66282Y-48260D01*
X66200Y-48384D01*
X66117Y-48260D01*
X65925Y-48132D01*
X65700Y-48087D01*
X65474Y-48132D01*
X65282Y-48260D01*
X65200Y-48384D01*
X65117Y-48260D01*
X64925Y-48132D01*
X64700Y-48087D01*
X64474Y-48132D01*
X64282Y-48260D01*
X64200Y-48384D01*
X64117Y-48260D01*
X63925Y-48132D01*
X63700Y-48087D01*
X63679Y-48091D01*
X63761Y-48008D01*
X63818Y-47873D01*
X63818Y-47727D01*
X63762Y-47591D01*
X63749Y-47578D01*
X63749Y-41150D01*
X63739Y-41103D01*
X63732Y-41050D01*
X63727Y-41043D01*
X63726Y-41035D01*
X63700Y-40997D01*
X63673Y-40950D01*
X63665Y-40944D01*
X63661Y-40938D01*
X63623Y-40913D01*
X63579Y-40880D01*
X62512Y-40366D01*
X62445Y-40203D01*
X62297Y-40055D01*
X62104Y-39975D01*
X62050Y-39975D01*
X62050Y-34891D01*
X61966Y-34688D01*
X61811Y-34534D01*
X61730Y-34500D01*
X61811Y-34466D01*
X61965Y-34311D01*
X62049Y-34109D01*
X62050Y-33891D01*
X61966Y-33688D01*
X61811Y-33534D01*
X61609Y-33450D01*
X61391Y-33449D01*
X61188Y-33533D01*
X61034Y-33688D01*
X60999Y-33771D01*
X60999Y-32971D01*
X61061Y-32908D01*
X61118Y-32773D01*
X61118Y-32627D01*
X61062Y-32491D01*
X60958Y-32388D01*
X60823Y-32331D01*
X60677Y-32331D01*
X60541Y-32387D01*
X60438Y-32491D01*
X60381Y-32626D01*
X60381Y-32772D01*
X60400Y-32818D01*
X60400Y-34228D01*
X60388Y-34241D01*
X60331Y-34376D01*
X60331Y-34522D01*
X60387Y-34658D01*
X60491Y-34761D01*
X60626Y-34818D01*
X60772Y-34818D01*
X60908Y-34762D01*
X61011Y-34658D01*
X61068Y-34523D01*
X61068Y-34377D01*
X61046Y-34323D01*
X61188Y-34465D01*
X61269Y-34499D01*
X61188Y-34533D01*
X61034Y-34688D01*
X60950Y-34890D01*
X60949Y-35108D01*
X61033Y-35311D01*
X61188Y-35465D01*
X61390Y-35549D01*
X61608Y-35550D01*
X61811Y-35466D01*
X61965Y-35311D01*
X62049Y-35109D01*
X62050Y-34891D01*
X62050Y-39975D01*
X61896Y-39974D01*
X61849Y-39994D01*
X61849Y-38721D01*
X61861Y-38708D01*
X61918Y-38573D01*
X61918Y-38427D01*
X61862Y-38291D01*
X61758Y-38188D01*
X61623Y-38131D01*
X61477Y-38131D01*
X61341Y-38187D01*
X61238Y-38291D01*
X61181Y-38426D01*
X61181Y-38572D01*
X61237Y-38708D01*
X61250Y-38721D01*
X61250Y-41050D01*
X61273Y-41164D01*
X61338Y-41261D01*
X61475Y-41398D01*
X61474Y-41601D01*
X61338Y-41738D01*
X61273Y-41835D01*
X61250Y-41950D01*
X61250Y-42950D01*
X61273Y-43064D01*
X61338Y-43161D01*
X61503Y-43326D01*
X61475Y-43395D01*
X61474Y-43603D01*
X61554Y-43797D01*
X61700Y-43943D01*
X61700Y-44056D01*
X61555Y-44202D01*
X61475Y-44395D01*
X61474Y-44601D01*
X61288Y-44788D01*
X61223Y-44885D01*
X61200Y-45000D01*
X61200Y-45778D01*
X61188Y-45791D01*
X61131Y-45926D01*
X61131Y-46072D01*
X61187Y-46208D01*
X61291Y-46311D01*
X61426Y-46368D01*
X61572Y-46368D01*
X61708Y-46312D01*
X61811Y-46208D01*
X61868Y-46073D01*
X61868Y-45927D01*
X61812Y-45791D01*
X61799Y-45778D01*
X61799Y-45123D01*
X61898Y-45024D01*
X62103Y-45025D01*
X62297Y-44945D01*
X62444Y-44797D01*
X62524Y-44604D01*
X62525Y-44396D01*
X62445Y-44203D01*
X62299Y-44056D01*
X62299Y-43943D01*
X62444Y-43797D01*
X62524Y-43604D01*
X62525Y-43396D01*
X62445Y-43203D01*
X62297Y-43055D01*
X62104Y-42975D01*
X61998Y-42974D01*
X61849Y-42826D01*
X61849Y-42073D01*
X61898Y-42024D01*
X62103Y-42025D01*
X62297Y-41945D01*
X62444Y-41797D01*
X62524Y-41604D01*
X62525Y-41396D01*
X62445Y-41203D01*
X62297Y-41055D01*
X62164Y-40999D01*
X62297Y-40945D01*
X62309Y-40932D01*
X63150Y-41337D01*
X63150Y-47578D01*
X63138Y-47591D01*
X63081Y-47726D01*
X63081Y-47872D01*
X63137Y-48008D01*
X63241Y-48111D01*
X63376Y-48168D01*
X63420Y-48168D01*
X63282Y-48260D01*
X63154Y-48451D01*
X63110Y-48677D01*
X63110Y-48822D01*
X63154Y-49048D01*
X63282Y-49239D01*
X63474Y-49367D01*
X63700Y-49412D01*
X63925Y-49367D01*
X64117Y-49239D01*
X64200Y-49115D01*
X64282Y-49239D01*
X64474Y-49367D01*
X64700Y-49412D01*
X64925Y-49367D01*
X65117Y-49239D01*
X65200Y-49115D01*
X65282Y-49239D01*
X65474Y-49367D01*
X65700Y-49412D01*
X65925Y-49367D01*
X66117Y-49239D01*
X66200Y-49115D01*
X66282Y-49239D01*
X66474Y-49367D01*
X66700Y-49412D01*
X66925Y-49367D01*
X67117Y-49239D01*
X67200Y-49115D01*
X67282Y-49239D01*
X67474Y-49367D01*
X67700Y-49412D01*
X67925Y-49367D01*
X68117Y-49239D01*
X68200Y-49115D01*
X68282Y-49239D01*
X68474Y-49367D01*
X68700Y-49412D01*
X68925Y-49367D01*
X69117Y-49239D01*
X69245Y-49048D01*
X69290Y-48822D01*
X69290Y-49470D01*
X62525Y-49470D01*
X62525Y-46896D01*
X62445Y-46703D01*
X62297Y-46555D01*
X62104Y-46475D01*
X61896Y-46474D01*
X61703Y-46554D01*
X61555Y-46702D01*
X61475Y-46895D01*
X61474Y-47103D01*
X61554Y-47297D01*
X61702Y-47444D01*
X61895Y-47524D01*
X62103Y-47525D01*
X62297Y-47445D01*
X62444Y-47297D01*
X62524Y-47104D01*
X62525Y-46896D01*
X62525Y-49470D01*
X62290Y-49470D01*
X62290Y-48822D01*
X62290Y-48677D01*
X62245Y-48451D01*
X62117Y-48260D01*
X61925Y-48132D01*
X61700Y-48087D01*
X61474Y-48132D01*
X61282Y-48260D01*
X61154Y-48451D01*
X61110Y-48677D01*
X61110Y-48822D01*
X61154Y-49048D01*
X61282Y-49239D01*
X61474Y-49367D01*
X61700Y-49412D01*
X61925Y-49367D01*
X62117Y-49239D01*
X62245Y-49048D01*
X62290Y-48822D01*
X62290Y-49470D01*
X61025Y-49470D01*
X61025Y-46896D01*
X60945Y-46703D01*
X60799Y-46556D01*
X60799Y-42750D01*
X60780Y-42654D01*
X60776Y-42635D01*
X60776Y-42635D01*
X60711Y-42538D01*
X60041Y-41868D01*
X60172Y-41868D01*
X60308Y-41812D01*
X60411Y-41708D01*
X60468Y-41573D01*
X60468Y-41427D01*
X60412Y-41291D01*
X60349Y-41229D01*
X60349Y-41220D01*
X60441Y-41311D01*
X60576Y-41368D01*
X60722Y-41368D01*
X60858Y-41312D01*
X60961Y-41208D01*
X61018Y-41073D01*
X61018Y-40927D01*
X60962Y-40791D01*
X60949Y-40778D01*
X60949Y-35671D01*
X60961Y-35658D01*
X61018Y-35523D01*
X61018Y-35377D01*
X60962Y-35241D01*
X60858Y-35138D01*
X60723Y-35081D01*
X60577Y-35081D01*
X60441Y-35137D01*
X60338Y-35241D01*
X60308Y-35312D01*
X60300Y-34219D01*
X60311Y-34208D01*
X60368Y-34073D01*
X60368Y-33927D01*
X60312Y-33791D01*
X60208Y-33688D01*
X60073Y-33631D01*
X60013Y-33631D01*
X60024Y-33604D01*
X60025Y-33396D01*
X59945Y-33203D01*
X59799Y-33056D01*
X59799Y-32519D01*
X59891Y-32611D01*
X60026Y-32668D01*
X60172Y-32668D01*
X60308Y-32612D01*
X60411Y-32508D01*
X60468Y-32373D01*
X60468Y-32227D01*
X60412Y-32091D01*
X60399Y-32078D01*
X60399Y-30318D01*
X60517Y-30239D01*
X60645Y-30048D01*
X60690Y-29822D01*
X60690Y-29677D01*
X60645Y-29451D01*
X60517Y-29260D01*
X60325Y-29132D01*
X60100Y-29087D01*
X59874Y-29132D01*
X59682Y-29260D01*
X59600Y-29384D01*
X59517Y-29260D01*
X59325Y-29132D01*
X59100Y-29087D01*
X58874Y-29132D01*
X58682Y-29260D01*
X58600Y-29384D01*
X58517Y-29260D01*
X58325Y-29132D01*
X58100Y-29087D01*
X57874Y-29132D01*
X57682Y-29260D01*
X57600Y-29384D01*
X57517Y-29260D01*
X57325Y-29132D01*
X57100Y-29087D01*
X56874Y-29132D01*
X56682Y-29260D01*
X56600Y-29384D01*
X56517Y-29260D01*
X56325Y-29132D01*
X56100Y-29087D01*
X55874Y-29132D01*
X55682Y-29260D01*
X55600Y-29384D01*
X55517Y-29260D01*
X55325Y-29132D01*
X55100Y-29087D01*
X54874Y-29132D01*
X54682Y-29260D01*
X54554Y-29451D01*
X54510Y-29677D01*
X54510Y-29822D01*
X54554Y-30048D01*
X54682Y-30239D01*
X54874Y-30367D01*
X55100Y-30412D01*
X55325Y-30367D01*
X55517Y-30239D01*
X55600Y-30115D01*
X55682Y-30239D01*
X55874Y-30367D01*
X56100Y-30412D01*
X56325Y-30367D01*
X56517Y-30239D01*
X56600Y-30115D01*
X56682Y-30239D01*
X56874Y-30367D01*
X57100Y-30412D01*
X57325Y-30367D01*
X57517Y-30239D01*
X57600Y-30115D01*
X57682Y-30239D01*
X57874Y-30367D01*
X58100Y-30412D01*
X58325Y-30367D01*
X58517Y-30239D01*
X58600Y-30115D01*
X58682Y-30239D01*
X58874Y-30367D01*
X59100Y-30412D01*
X59325Y-30367D01*
X59517Y-30239D01*
X59600Y-30115D01*
X59682Y-30239D01*
X59800Y-30318D01*
X59800Y-32078D01*
X59799Y-32080D01*
X59799Y-32000D01*
X59776Y-31885D01*
X59776Y-31885D01*
X59711Y-31788D01*
X59211Y-31288D01*
X59114Y-31223D01*
X59000Y-31200D01*
X58943Y-31200D01*
X58797Y-31055D01*
X58604Y-30975D01*
X58396Y-30974D01*
X58203Y-31054D01*
X58055Y-31202D01*
X57975Y-31395D01*
X57974Y-31603D01*
X58054Y-31797D01*
X58202Y-31944D01*
X58395Y-32024D01*
X58603Y-32025D01*
X58797Y-31945D01*
X58909Y-31832D01*
X59200Y-32123D01*
X59200Y-33056D01*
X59055Y-33202D01*
X58975Y-33395D01*
X58974Y-33603D01*
X59054Y-33797D01*
X59202Y-33944D01*
X59395Y-34024D01*
X59603Y-34025D01*
X59631Y-34013D01*
X59631Y-34072D01*
X59687Y-34208D01*
X59702Y-34222D01*
X59707Y-35017D01*
X59604Y-34975D01*
X59396Y-34974D01*
X59203Y-35054D01*
X59055Y-35202D01*
X58975Y-35395D01*
X58974Y-35603D01*
X59054Y-35797D01*
X59202Y-35944D01*
X59335Y-36000D01*
X59203Y-36054D01*
X59055Y-36202D01*
X58975Y-36395D01*
X58974Y-36603D01*
X59054Y-36797D01*
X59202Y-36944D01*
X59335Y-37000D01*
X59203Y-37054D01*
X59055Y-37202D01*
X58975Y-37395D01*
X58974Y-37603D01*
X59054Y-37797D01*
X59202Y-37944D01*
X59335Y-38000D01*
X59203Y-38054D01*
X59055Y-38202D01*
X58975Y-38395D01*
X58974Y-38603D01*
X59054Y-38797D01*
X59200Y-38943D01*
X59200Y-39056D01*
X59055Y-39202D01*
X58975Y-39395D01*
X58974Y-39603D01*
X59054Y-39797D01*
X59202Y-39944D01*
X59335Y-40000D01*
X59203Y-40054D01*
X59055Y-40202D01*
X58975Y-40395D01*
X58974Y-40603D01*
X59054Y-40797D01*
X59200Y-40943D01*
X59200Y-41750D01*
X59223Y-41864D01*
X59288Y-41961D01*
X59301Y-41975D01*
X59225Y-41974D01*
X58675Y-41974D01*
X58583Y-42012D01*
X58513Y-42083D01*
X58475Y-42175D01*
X58474Y-42274D01*
X58474Y-42274D01*
X58445Y-42203D01*
X58297Y-42055D01*
X58104Y-41975D01*
X57896Y-41974D01*
X57703Y-42054D01*
X57555Y-42202D01*
X57499Y-42335D01*
X57445Y-42203D01*
X57297Y-42055D01*
X57104Y-41975D01*
X56896Y-41974D01*
X56703Y-42054D01*
X56555Y-42202D01*
X56475Y-42395D01*
X56474Y-42603D01*
X56554Y-42797D01*
X56702Y-42944D01*
X56895Y-43024D01*
X57103Y-43025D01*
X57297Y-42945D01*
X57444Y-42797D01*
X57500Y-42664D01*
X57554Y-42797D01*
X57702Y-42944D01*
X57895Y-43024D01*
X58103Y-43025D01*
X58160Y-43001D01*
X58150Y-43050D01*
X58150Y-43950D01*
X58173Y-44064D01*
X58238Y-44161D01*
X58475Y-44398D01*
X58474Y-44603D01*
X58554Y-44797D01*
X58702Y-44944D01*
X58835Y-45000D01*
X58703Y-45054D01*
X58555Y-45202D01*
X58475Y-45395D01*
X58474Y-45603D01*
X58554Y-45797D01*
X58702Y-45944D01*
X58895Y-46024D01*
X59103Y-46025D01*
X59297Y-45945D01*
X59444Y-45797D01*
X59524Y-45604D01*
X59525Y-45398D01*
X59711Y-45211D01*
X59776Y-45114D01*
X59776Y-45114D01*
X59799Y-45000D01*
X59799Y-44000D01*
X59776Y-43885D01*
X59776Y-43885D01*
X59711Y-43788D01*
X59524Y-43601D01*
X59525Y-43396D01*
X59445Y-43203D01*
X59297Y-43055D01*
X59225Y-43025D01*
X59324Y-43025D01*
X59416Y-42987D01*
X59486Y-42916D01*
X59524Y-42824D01*
X59525Y-42725D01*
X59525Y-42198D01*
X60200Y-42873D01*
X60200Y-46556D01*
X60055Y-46702D01*
X59999Y-46835D01*
X59945Y-46703D01*
X59797Y-46555D01*
X59604Y-46475D01*
X59396Y-46474D01*
X59203Y-46554D01*
X59055Y-46702D01*
X58975Y-46895D01*
X58974Y-47103D01*
X59054Y-47297D01*
X59202Y-47444D01*
X59395Y-47524D01*
X59603Y-47525D01*
X59797Y-47445D01*
X59944Y-47297D01*
X60000Y-47164D01*
X60054Y-47297D01*
X60202Y-47444D01*
X60395Y-47524D01*
X60603Y-47525D01*
X60797Y-47445D01*
X60944Y-47297D01*
X61024Y-47104D01*
X61025Y-46896D01*
X61025Y-49470D01*
X52236Y-49470D01*
X52297Y-49445D01*
X52444Y-49297D01*
X52524Y-49104D01*
X52525Y-48896D01*
X52445Y-48703D01*
X52297Y-48555D01*
X52104Y-48475D01*
X51896Y-48474D01*
X51703Y-48554D01*
X51555Y-48702D01*
X51499Y-48835D01*
X51445Y-48703D01*
X51297Y-48555D01*
X51164Y-48499D01*
X51297Y-48445D01*
X51444Y-48297D01*
X51524Y-48104D01*
X51525Y-47896D01*
X51445Y-47703D01*
X51299Y-47556D01*
X51299Y-47485D01*
X51395Y-47524D01*
X51603Y-47525D01*
X51797Y-47445D01*
X51944Y-47297D01*
X52000Y-47164D01*
X52054Y-47297D01*
X52202Y-47444D01*
X52395Y-47524D01*
X52603Y-47525D01*
X52797Y-47445D01*
X52944Y-47297D01*
X53024Y-47104D01*
X53025Y-46896D01*
X52945Y-46703D01*
X52799Y-46556D01*
X52799Y-45673D01*
X53211Y-45261D01*
X53276Y-45164D01*
X53276Y-45164D01*
X53299Y-45050D01*
X53299Y-44485D01*
X53395Y-44524D01*
X53603Y-44525D01*
X53797Y-44445D01*
X53944Y-44297D01*
X54024Y-44104D01*
X54025Y-43896D01*
X53945Y-43703D01*
X53799Y-43556D01*
X53799Y-39171D01*
X53811Y-39158D01*
X53868Y-39023D01*
X53868Y-38877D01*
X53812Y-38741D01*
X53708Y-38638D01*
X53573Y-38581D01*
X53427Y-38581D01*
X53299Y-38634D01*
X53299Y-37900D01*
X53299Y-37850D01*
X53299Y-36523D01*
X53411Y-36411D01*
X53476Y-36314D01*
X53476Y-36314D01*
X53499Y-36200D01*
X53499Y-36200D01*
X53499Y-36162D01*
X53554Y-36297D01*
X53702Y-36444D01*
X53835Y-36500D01*
X53703Y-36554D01*
X53555Y-36702D01*
X53475Y-36895D01*
X53474Y-37103D01*
X53554Y-37297D01*
X53702Y-37444D01*
X53895Y-37524D01*
X54103Y-37525D01*
X54294Y-37446D01*
X54281Y-37476D01*
X54281Y-37622D01*
X54337Y-37758D01*
X54350Y-37771D01*
X54350Y-43350D01*
X54373Y-43464D01*
X54438Y-43561D01*
X55088Y-44211D01*
X55088Y-44211D01*
X55153Y-44254D01*
X55185Y-44276D01*
X55185Y-44276D01*
X55300Y-44299D01*
X55556Y-44299D01*
X55702Y-44444D01*
X55835Y-44500D01*
X55703Y-44554D01*
X55555Y-44702D01*
X55475Y-44895D01*
X55474Y-45103D01*
X55554Y-45297D01*
X55702Y-45444D01*
X55895Y-45524D01*
X56103Y-45525D01*
X56297Y-45445D01*
X56444Y-45297D01*
X56500Y-45164D01*
X56554Y-45297D01*
X56700Y-45443D01*
X56700Y-46028D01*
X56688Y-46033D01*
X56534Y-46188D01*
X56500Y-46269D01*
X56466Y-46188D01*
X56311Y-46034D01*
X56109Y-45950D01*
X55891Y-45949D01*
X55688Y-46033D01*
X55550Y-46172D01*
X55550Y-46150D01*
X55512Y-46058D01*
X55441Y-45988D01*
X55349Y-45950D01*
X55250Y-45949D01*
X54650Y-45949D01*
X54558Y-45987D01*
X54488Y-46058D01*
X54450Y-46150D01*
X54449Y-46249D01*
X54449Y-46631D01*
X54427Y-46631D01*
X54291Y-46687D01*
X54188Y-46791D01*
X54131Y-46926D01*
X54131Y-46944D01*
X53788Y-47288D01*
X53723Y-47385D01*
X53700Y-47500D01*
X53700Y-48778D01*
X53688Y-48791D01*
X53631Y-48926D01*
X53631Y-49072D01*
X53687Y-49208D01*
X53791Y-49311D01*
X53926Y-49368D01*
X54072Y-49368D01*
X54208Y-49312D01*
X54281Y-49238D01*
X54282Y-49239D01*
X54474Y-49367D01*
X54700Y-49412D01*
X54925Y-49367D01*
X55117Y-49239D01*
X55200Y-49115D01*
X55282Y-49239D01*
X55474Y-49367D01*
X55700Y-49412D01*
X55925Y-49367D01*
X56117Y-49239D01*
X56200Y-49115D01*
X56282Y-49239D01*
X56474Y-49367D01*
X56700Y-49412D01*
X56925Y-49367D01*
X57117Y-49239D01*
X57200Y-49115D01*
X57282Y-49239D01*
X57474Y-49367D01*
X57700Y-49412D01*
X57925Y-49367D01*
X58117Y-49239D01*
X58200Y-49115D01*
X58282Y-49239D01*
X58474Y-49367D01*
X58700Y-49412D01*
X58925Y-49367D01*
X59117Y-49239D01*
X59245Y-49048D01*
X59290Y-48822D01*
X59290Y-48677D01*
X59245Y-48451D01*
X59117Y-48260D01*
X58925Y-48132D01*
X58700Y-48087D01*
X58474Y-48132D01*
X58282Y-48260D01*
X58200Y-48384D01*
X58117Y-48260D01*
X57925Y-48132D01*
X57700Y-48087D01*
X57474Y-48132D01*
X57282Y-48260D01*
X57200Y-48384D01*
X57117Y-48260D01*
X56925Y-48132D01*
X56700Y-48087D01*
X56474Y-48132D01*
X56282Y-48260D01*
X56200Y-48384D01*
X56117Y-48260D01*
X55925Y-48132D01*
X55700Y-48087D01*
X55474Y-48132D01*
X55282Y-48260D01*
X55200Y-48384D01*
X55117Y-48260D01*
X54925Y-48132D01*
X54700Y-48087D01*
X54474Y-48132D01*
X54299Y-48249D01*
X54299Y-47623D01*
X54554Y-47368D01*
X54572Y-47368D01*
X54708Y-47312D01*
X54811Y-47208D01*
X54868Y-47073D01*
X54868Y-47050D01*
X55349Y-47050D01*
X55441Y-47012D01*
X55511Y-46941D01*
X55549Y-46849D01*
X55549Y-46827D01*
X55688Y-46965D01*
X55890Y-47049D01*
X56108Y-47050D01*
X56311Y-46966D01*
X56465Y-46811D01*
X56499Y-46730D01*
X56533Y-46811D01*
X56688Y-46965D01*
X56890Y-47049D01*
X57108Y-47050D01*
X57311Y-46966D01*
X57465Y-46811D01*
X57499Y-46730D01*
X57533Y-46811D01*
X57688Y-46965D01*
X57890Y-47049D01*
X58108Y-47050D01*
X58311Y-46966D01*
X58465Y-46811D01*
X58549Y-46609D01*
X58550Y-46391D01*
X58466Y-46188D01*
X58311Y-46034D01*
X58109Y-45950D01*
X57891Y-45949D01*
X57688Y-46033D01*
X57534Y-46188D01*
X57500Y-46269D01*
X57466Y-46188D01*
X57311Y-46034D01*
X57299Y-46028D01*
X57299Y-45443D01*
X57444Y-45297D01*
X57524Y-45104D01*
X57525Y-44896D01*
X57445Y-44703D01*
X57297Y-44555D01*
X57104Y-44475D01*
X56896Y-44474D01*
X56703Y-44554D01*
X56555Y-44702D01*
X56499Y-44835D01*
X56445Y-44703D01*
X56297Y-44555D01*
X56164Y-44499D01*
X56297Y-44445D01*
X56444Y-44297D01*
X56524Y-44104D01*
X56525Y-43896D01*
X56445Y-43703D01*
X56297Y-43555D01*
X56104Y-43475D01*
X55896Y-43474D01*
X55703Y-43554D01*
X55556Y-43700D01*
X55423Y-43700D01*
X54949Y-43226D01*
X54949Y-37771D01*
X54961Y-37758D01*
X55018Y-37623D01*
X55018Y-37477D01*
X54962Y-37341D01*
X54858Y-37238D01*
X54723Y-37181D01*
X54577Y-37181D01*
X54475Y-37223D01*
X54524Y-37104D01*
X54525Y-36896D01*
X54445Y-36703D01*
X54297Y-36555D01*
X54164Y-36499D01*
X54297Y-36445D01*
X54444Y-36297D01*
X54524Y-36104D01*
X54525Y-35896D01*
X54489Y-35810D01*
X54491Y-35811D01*
X54626Y-35868D01*
X54772Y-35868D01*
X54908Y-35812D01*
X55011Y-35708D01*
X55068Y-35573D01*
X55068Y-35427D01*
X55049Y-35381D01*
X55049Y-34783D01*
X55054Y-34797D01*
X55202Y-34944D01*
X55395Y-35024D01*
X55603Y-35025D01*
X55770Y-34956D01*
X55288Y-35438D01*
X55223Y-35535D01*
X55221Y-35547D01*
X55203Y-35554D01*
X55055Y-35702D01*
X54975Y-35895D01*
X54974Y-36103D01*
X55054Y-36297D01*
X55202Y-36444D01*
X55395Y-36524D01*
X55603Y-36525D01*
X55797Y-36445D01*
X55944Y-36297D01*
X56024Y-36104D01*
X56025Y-35896D01*
X55945Y-35703D01*
X55907Y-35665D01*
X55974Y-35598D01*
X55974Y-35603D01*
X56054Y-35797D01*
X56202Y-35944D01*
X56335Y-36000D01*
X56203Y-36054D01*
X56055Y-36202D01*
X55975Y-36395D01*
X55974Y-36603D01*
X56054Y-36797D01*
X56202Y-36944D01*
X56335Y-37000D01*
X56203Y-37054D01*
X56055Y-37202D01*
X55975Y-37395D01*
X55974Y-37603D01*
X56054Y-37797D01*
X56202Y-37944D01*
X56335Y-38000D01*
X56203Y-38054D01*
X56055Y-38202D01*
X55999Y-38335D01*
X55945Y-38203D01*
X55797Y-38055D01*
X55604Y-37975D01*
X55396Y-37974D01*
X55203Y-38054D01*
X55055Y-38202D01*
X54975Y-38395D01*
X54974Y-38603D01*
X55054Y-38797D01*
X55202Y-38944D01*
X55395Y-39024D01*
X55603Y-39025D01*
X55797Y-38945D01*
X55944Y-38797D01*
X56000Y-38664D01*
X56054Y-38797D01*
X56202Y-38944D01*
X56335Y-39000D01*
X56203Y-39054D01*
X56055Y-39202D01*
X55975Y-39395D01*
X55974Y-39603D01*
X56054Y-39797D01*
X56202Y-39944D01*
X56335Y-40000D01*
X56203Y-40054D01*
X56055Y-40202D01*
X55975Y-40395D01*
X55974Y-40603D01*
X56054Y-40797D01*
X56202Y-40944D01*
X56395Y-41024D01*
X56603Y-41025D01*
X56700Y-40985D01*
X56700Y-41028D01*
X56688Y-41041D01*
X56631Y-41176D01*
X56631Y-41322D01*
X56687Y-41458D01*
X56791Y-41561D01*
X56926Y-41618D01*
X57072Y-41618D01*
X57208Y-41562D01*
X57311Y-41458D01*
X57368Y-41323D01*
X57368Y-41177D01*
X57312Y-41041D01*
X57299Y-41028D01*
X57299Y-35221D01*
X57311Y-35208D01*
X57368Y-35073D01*
X57368Y-34927D01*
X57312Y-34791D01*
X57208Y-34688D01*
X57073Y-34631D01*
X57013Y-34631D01*
X57024Y-34604D01*
X57025Y-34396D01*
X56945Y-34203D01*
X56797Y-34055D01*
X56725Y-34025D01*
X56824Y-34025D01*
X56916Y-33987D01*
X56986Y-33916D01*
X57024Y-33824D01*
X57025Y-33725D01*
X57025Y-33175D01*
X56987Y-33083D01*
X56916Y-33013D01*
X56824Y-32975D01*
X56725Y-32974D01*
X56175Y-32974D01*
X56083Y-33012D01*
X56013Y-33083D01*
X55975Y-33175D01*
X55974Y-33274D01*
X55974Y-33274D01*
X55945Y-33203D01*
X55797Y-33055D01*
X55604Y-32975D01*
X55396Y-32974D01*
X55203Y-33054D01*
X55071Y-33186D01*
X55118Y-33073D01*
X55118Y-32927D01*
X55062Y-32791D01*
X54958Y-32688D01*
X54823Y-32631D01*
X54768Y-32631D01*
X54768Y-32627D01*
X54712Y-32491D01*
X54608Y-32388D01*
X54473Y-32331D01*
X54327Y-32331D01*
X54191Y-32387D01*
X54088Y-32491D01*
X54031Y-32626D01*
X54031Y-32772D01*
X54087Y-32908D01*
X54100Y-32921D01*
X54100Y-34628D01*
X54038Y-34691D01*
X53981Y-34826D01*
X53981Y-34972D01*
X54037Y-35108D01*
X54141Y-35211D01*
X54276Y-35268D01*
X54411Y-35268D01*
X54388Y-35291D01*
X54331Y-35426D01*
X54331Y-35572D01*
X54343Y-35600D01*
X54297Y-35555D01*
X54104Y-35475D01*
X53896Y-35474D01*
X53703Y-35554D01*
X53555Y-35702D01*
X53499Y-35837D01*
X53499Y-32521D01*
X53511Y-32508D01*
X53568Y-32373D01*
X53568Y-32227D01*
X53512Y-32091D01*
X53408Y-31988D01*
X53273Y-31931D01*
X53127Y-31931D01*
X52991Y-31987D01*
X52888Y-32091D01*
X52831Y-32226D01*
X52831Y-32372D01*
X52887Y-32508D01*
X52900Y-32521D01*
X52900Y-33158D01*
X52797Y-33055D01*
X52604Y-32975D01*
X52396Y-32974D01*
X52203Y-33054D01*
X52055Y-33202D01*
X52025Y-33274D01*
X52025Y-31396D01*
X51945Y-31203D01*
X51797Y-31055D01*
X51604Y-30975D01*
X51396Y-30974D01*
X51203Y-31054D01*
X51055Y-31202D01*
X50975Y-31395D01*
X50974Y-31603D01*
X51054Y-31797D01*
X51202Y-31944D01*
X51395Y-32024D01*
X51603Y-32025D01*
X51797Y-31945D01*
X51944Y-31797D01*
X52024Y-31604D01*
X52025Y-31396D01*
X52025Y-33274D01*
X51975Y-33395D01*
X51974Y-33603D01*
X52054Y-33797D01*
X52202Y-33944D01*
X52395Y-34024D01*
X52603Y-34025D01*
X52797Y-33945D01*
X52900Y-33841D01*
X52900Y-34631D01*
X52827Y-34631D01*
X52691Y-34687D01*
X52588Y-34791D01*
X52531Y-34926D01*
X52531Y-34975D01*
X52396Y-34974D01*
X52203Y-35054D01*
X52055Y-35202D01*
X51975Y-35395D01*
X51974Y-35603D01*
X52054Y-35797D01*
X52202Y-35944D01*
X52335Y-36000D01*
X52203Y-36054D01*
X52055Y-36202D01*
X51975Y-36395D01*
X51974Y-36603D01*
X52054Y-36797D01*
X52202Y-36944D01*
X52335Y-37000D01*
X52203Y-37054D01*
X52055Y-37202D01*
X51975Y-37395D01*
X51974Y-37603D01*
X52054Y-37797D01*
X52202Y-37944D01*
X52335Y-38000D01*
X52203Y-38054D01*
X52055Y-38202D01*
X51975Y-38395D01*
X51974Y-38603D01*
X52054Y-38797D01*
X52200Y-38943D01*
X52200Y-39056D01*
X52055Y-39202D01*
X51975Y-39395D01*
X51974Y-39603D01*
X51986Y-39631D01*
X51927Y-39631D01*
X51791Y-39687D01*
X51688Y-39791D01*
X51631Y-39926D01*
X51631Y-40072D01*
X51687Y-40208D01*
X51700Y-40221D01*
X51700Y-40900D01*
X51723Y-41014D01*
X51788Y-41111D01*
X52200Y-41523D01*
X52200Y-43556D01*
X52055Y-43702D01*
X51999Y-43835D01*
X51945Y-43703D01*
X51799Y-43556D01*
X51799Y-42271D01*
X51811Y-42258D01*
X51868Y-42123D01*
X51868Y-41977D01*
X51812Y-41841D01*
X51708Y-41738D01*
X51573Y-41681D01*
X51427Y-41681D01*
X51299Y-41734D01*
X51299Y-40618D01*
X51318Y-40573D01*
X51318Y-40427D01*
X51262Y-40291D01*
X51158Y-40188D01*
X51023Y-40131D01*
X50877Y-40131D01*
X50741Y-40187D01*
X50638Y-40291D01*
X50581Y-40426D01*
X50581Y-40572D01*
X50637Y-40708D01*
X50700Y-40771D01*
X50700Y-43514D01*
X50618Y-43480D01*
X50618Y-41127D01*
X50562Y-40991D01*
X50458Y-40888D01*
X50349Y-40842D01*
X50349Y-40050D01*
X50326Y-39935D01*
X50326Y-39935D01*
X50261Y-39838D01*
X50024Y-39601D01*
X50025Y-39396D01*
X49945Y-39203D01*
X49797Y-39055D01*
X49664Y-38999D01*
X49797Y-38945D01*
X49944Y-38797D01*
X50024Y-38604D01*
X50025Y-38396D01*
X49945Y-38203D01*
X49797Y-38055D01*
X49664Y-37999D01*
X49797Y-37945D01*
X49944Y-37797D01*
X50024Y-37604D01*
X50025Y-37396D01*
X49945Y-37203D01*
X49797Y-37055D01*
X49664Y-36999D01*
X49797Y-36945D01*
X49944Y-36797D01*
X50024Y-36604D01*
X50025Y-36396D01*
X49945Y-36203D01*
X49797Y-36055D01*
X49664Y-35999D01*
X49797Y-35945D01*
X49944Y-35797D01*
X50024Y-35604D01*
X50025Y-35396D01*
X49945Y-35203D01*
X49797Y-35055D01*
X49664Y-34999D01*
X49797Y-34945D01*
X49944Y-34797D01*
X50024Y-34604D01*
X50025Y-34396D01*
X49945Y-34203D01*
X49797Y-34055D01*
X49725Y-34025D01*
X49824Y-34025D01*
X49916Y-33987D01*
X49986Y-33916D01*
X50024Y-33824D01*
X50025Y-33725D01*
X50025Y-33175D01*
X49987Y-33083D01*
X49916Y-33013D01*
X49824Y-32975D01*
X49725Y-32974D01*
X49175Y-32974D01*
X49083Y-33012D01*
X49013Y-33083D01*
X48975Y-33175D01*
X48974Y-33274D01*
X48974Y-33274D01*
X48945Y-33203D01*
X48797Y-33055D01*
X48604Y-32975D01*
X48396Y-32974D01*
X48203Y-33054D01*
X48055Y-33202D01*
X47975Y-33395D01*
X47974Y-33603D01*
X48054Y-33797D01*
X48202Y-33944D01*
X48335Y-34000D01*
X48203Y-34054D01*
X48055Y-34202D01*
X47975Y-34395D01*
X47974Y-34603D01*
X48054Y-34797D01*
X48202Y-34944D01*
X48395Y-35024D01*
X48603Y-35025D01*
X48770Y-34956D01*
X48288Y-35438D01*
X48223Y-35535D01*
X48221Y-35547D01*
X48203Y-35554D01*
X48055Y-35702D01*
X47975Y-35895D01*
X47974Y-36103D01*
X48054Y-36297D01*
X48202Y-36444D01*
X48395Y-36524D01*
X48603Y-36525D01*
X48797Y-36445D01*
X48944Y-36297D01*
X49024Y-36104D01*
X49025Y-35896D01*
X48945Y-35703D01*
X48907Y-35665D01*
X48974Y-35598D01*
X48974Y-35603D01*
X49054Y-35797D01*
X49202Y-35944D01*
X49335Y-36000D01*
X49203Y-36054D01*
X49055Y-36202D01*
X48975Y-36395D01*
X48974Y-36603D01*
X49054Y-36797D01*
X49202Y-36944D01*
X49335Y-37000D01*
X49203Y-37054D01*
X49055Y-37202D01*
X48975Y-37395D01*
X48974Y-37603D01*
X49054Y-37797D01*
X49202Y-37944D01*
X49335Y-38000D01*
X49203Y-38054D01*
X49055Y-38202D01*
X48999Y-38335D01*
X48945Y-38203D01*
X48797Y-38055D01*
X48604Y-37975D01*
X48396Y-37974D01*
X48203Y-38054D01*
X48055Y-38202D01*
X47975Y-38395D01*
X47974Y-38603D01*
X48054Y-38797D01*
X48202Y-38944D01*
X48395Y-39024D01*
X48603Y-39025D01*
X48797Y-38945D01*
X48944Y-38797D01*
X49000Y-38664D01*
X49054Y-38797D01*
X49202Y-38944D01*
X49335Y-39000D01*
X49203Y-39054D01*
X49055Y-39202D01*
X48975Y-39395D01*
X48974Y-39603D01*
X49054Y-39797D01*
X49202Y-39944D01*
X49335Y-40000D01*
X49203Y-40054D01*
X49055Y-40202D01*
X48975Y-40395D01*
X48974Y-40603D01*
X49054Y-40797D01*
X49202Y-40944D01*
X49395Y-41024D01*
X49603Y-41025D01*
X49750Y-40964D01*
X49750Y-41000D01*
X49773Y-41114D01*
X49838Y-41211D01*
X49881Y-41254D01*
X49881Y-41272D01*
X49937Y-41408D01*
X50041Y-41511D01*
X50176Y-41568D01*
X50322Y-41568D01*
X50458Y-41512D01*
X50561Y-41408D01*
X50618Y-41273D01*
X50618Y-41127D01*
X50618Y-43480D01*
X50604Y-43475D01*
X50396Y-43474D01*
X50203Y-43554D01*
X50055Y-43702D01*
X49975Y-43895D01*
X49974Y-44103D01*
X50054Y-44297D01*
X50202Y-44444D01*
X50395Y-44524D01*
X50603Y-44525D01*
X50700Y-44485D01*
X50700Y-46474D01*
X50175Y-46474D01*
X50083Y-46512D01*
X50013Y-46583D01*
X49975Y-46675D01*
X49974Y-46774D01*
X49974Y-47324D01*
X50012Y-47416D01*
X50083Y-47486D01*
X50175Y-47524D01*
X50274Y-47525D01*
X50700Y-47525D01*
X50700Y-47556D01*
X50555Y-47702D01*
X50475Y-47895D01*
X50474Y-48103D01*
X50554Y-48297D01*
X50702Y-48444D01*
X50835Y-48500D01*
X50703Y-48554D01*
X50555Y-48702D01*
X50475Y-48895D01*
X50474Y-49103D01*
X50554Y-49297D01*
X50702Y-49444D01*
X50764Y-49470D01*
X49964Y-49470D01*
X50089Y-49345D01*
X50249Y-48959D01*
X50250Y-48542D01*
X50090Y-48156D01*
X49795Y-47860D01*
X49409Y-47700D01*
X48992Y-47699D01*
X48606Y-47859D01*
X48310Y-48154D01*
X48150Y-48540D01*
X48149Y-48957D01*
X48309Y-49344D01*
X48435Y-49470D01*
X47525Y-49470D01*
X47525Y-36896D01*
X47445Y-36703D01*
X47297Y-36555D01*
X47164Y-36499D01*
X47297Y-36445D01*
X47444Y-36297D01*
X47524Y-36104D01*
X47525Y-35896D01*
X47445Y-35703D01*
X47297Y-35555D01*
X47104Y-35475D01*
X46896Y-35474D01*
X46703Y-35554D01*
X46555Y-35702D01*
X46475Y-35895D01*
X46474Y-36103D01*
X46554Y-36297D01*
X46702Y-36444D01*
X46835Y-36500D01*
X46703Y-36554D01*
X46555Y-36702D01*
X46475Y-36895D01*
X46474Y-37103D01*
X46554Y-37297D01*
X46702Y-37444D01*
X46895Y-37524D01*
X47103Y-37525D01*
X47297Y-37445D01*
X47444Y-37297D01*
X47524Y-37104D01*
X47525Y-36896D01*
X47525Y-49470D01*
X47025Y-49470D01*
X47025Y-42896D01*
X46945Y-42703D01*
X46797Y-42555D01*
X46664Y-42499D01*
X46797Y-42445D01*
X46944Y-42297D01*
X47024Y-42104D01*
X47025Y-41896D01*
X47025Y-40396D01*
X46945Y-40203D01*
X46797Y-40055D01*
X46664Y-39999D01*
X46797Y-39945D01*
X46944Y-39797D01*
X47024Y-39604D01*
X47025Y-39396D01*
X46945Y-39203D01*
X46797Y-39055D01*
X46604Y-38975D01*
X46396Y-38974D01*
X46203Y-39054D01*
X46055Y-39202D01*
X45975Y-39395D01*
X45974Y-39603D01*
X46054Y-39797D01*
X46202Y-39944D01*
X46335Y-40000D01*
X46203Y-40054D01*
X46055Y-40202D01*
X45975Y-40395D01*
X45974Y-40603D01*
X46054Y-40797D01*
X46202Y-40944D01*
X46395Y-41024D01*
X46603Y-41025D01*
X46797Y-40945D01*
X46944Y-40797D01*
X47024Y-40604D01*
X47025Y-40396D01*
X47025Y-41896D01*
X46945Y-41703D01*
X46797Y-41555D01*
X46604Y-41475D01*
X46396Y-41474D01*
X46203Y-41554D01*
X46055Y-41702D01*
X45975Y-41895D01*
X45974Y-42103D01*
X46054Y-42297D01*
X46202Y-42444D01*
X46335Y-42500D01*
X46203Y-42554D01*
X46055Y-42702D01*
X45975Y-42895D01*
X45974Y-43103D01*
X46054Y-43297D01*
X46202Y-43444D01*
X46395Y-43524D01*
X46603Y-43525D01*
X46797Y-43445D01*
X46944Y-43297D01*
X47024Y-43104D01*
X47025Y-42896D01*
X47025Y-49470D01*
X45550Y-49470D01*
X45550Y-42891D01*
X45466Y-42688D01*
X45311Y-42534D01*
X45230Y-42500D01*
X45311Y-42466D01*
X45465Y-42311D01*
X45549Y-42109D01*
X45550Y-41891D01*
X45466Y-41688D01*
X45311Y-41534D01*
X45230Y-41500D01*
X45311Y-41466D01*
X45465Y-41311D01*
X45549Y-41109D01*
X45550Y-40891D01*
X45466Y-40688D01*
X45327Y-40550D01*
X45349Y-40550D01*
X45441Y-40512D01*
X45511Y-40441D01*
X45549Y-40349D01*
X45550Y-40250D01*
X45550Y-39650D01*
X45512Y-39558D01*
X45441Y-39488D01*
X45349Y-39450D01*
X45250Y-39449D01*
X44650Y-39449D01*
X44558Y-39487D01*
X44488Y-39558D01*
X44450Y-39650D01*
X44449Y-39749D01*
X44449Y-40349D01*
X44487Y-40441D01*
X44558Y-40511D01*
X44650Y-40549D01*
X44672Y-40549D01*
X44534Y-40688D01*
X44450Y-40890D01*
X44449Y-41108D01*
X44533Y-41311D01*
X44688Y-41465D01*
X44769Y-41499D01*
X44688Y-41533D01*
X44534Y-41688D01*
X44450Y-41890D01*
X44449Y-42108D01*
X44533Y-42311D01*
X44688Y-42465D01*
X44769Y-42499D01*
X44688Y-42533D01*
X44534Y-42688D01*
X44450Y-42890D01*
X44449Y-43108D01*
X44533Y-43311D01*
X44688Y-43465D01*
X44890Y-43549D01*
X45108Y-43550D01*
X45311Y-43466D01*
X45465Y-43311D01*
X45549Y-43109D01*
X45550Y-42891D01*
X45550Y-49470D01*
X43979Y-49470D01*
X43979Y-29029D01*
X48935Y-29029D01*
X48810Y-29154D01*
X48650Y-29540D01*
X48649Y-29957D01*
X48809Y-30344D01*
X49104Y-30639D01*
X49490Y-30799D01*
X49631Y-30799D01*
X49631Y-30872D01*
X49687Y-31008D01*
X49791Y-31111D01*
X49926Y-31168D01*
X50072Y-31168D01*
X50208Y-31112D01*
X50311Y-31008D01*
X50368Y-30873D01*
X50368Y-30727D01*
X50321Y-30613D01*
X50589Y-30345D01*
X50652Y-30194D01*
X50682Y-30239D01*
X50874Y-30367D01*
X51100Y-30412D01*
X51325Y-30367D01*
X51517Y-30239D01*
X51600Y-30115D01*
X51682Y-30239D01*
X51874Y-30367D01*
X52100Y-30412D01*
X52325Y-30367D01*
X52517Y-30239D01*
X52600Y-30115D01*
X52682Y-30239D01*
X52874Y-30367D01*
X53100Y-30412D01*
X53325Y-30367D01*
X53517Y-30239D01*
X53645Y-30048D01*
X53690Y-29822D01*
X53690Y-29677D01*
X53645Y-29451D01*
X53517Y-29260D01*
X53325Y-29132D01*
X53100Y-29087D01*
X52874Y-29132D01*
X52682Y-29260D01*
X52600Y-29384D01*
X52517Y-29260D01*
X52325Y-29132D01*
X52100Y-29087D01*
X51874Y-29132D01*
X51682Y-29260D01*
X51600Y-29384D01*
X51517Y-29260D01*
X51325Y-29132D01*
X51100Y-29087D01*
X50874Y-29132D01*
X50682Y-29260D01*
X50652Y-29305D01*
X50590Y-29156D01*
X50464Y-29029D01*
X68984Y-29029D01*
X69420Y-29465D01*
X69420Y-33850D01*
X69441Y-33956D01*
X69502Y-34047D01*
X70420Y-34965D01*
X70420Y-34985D01*
X70295Y-34860D01*
X69909Y-34700D01*
X69492Y-34699D01*
X69290Y-34783D01*
X69290Y-29822D01*
X69290Y-29677D01*
X69245Y-29451D01*
X69117Y-29260D01*
X68925Y-29132D01*
X68700Y-29087D01*
X68474Y-29132D01*
X68282Y-29260D01*
X68200Y-29384D01*
X68117Y-29260D01*
X67925Y-29132D01*
X67700Y-29087D01*
X67474Y-29132D01*
X67282Y-29260D01*
X67200Y-29384D01*
X67117Y-29260D01*
X66925Y-29132D01*
X66700Y-29087D01*
X66474Y-29132D01*
X66282Y-29260D01*
X66200Y-29384D01*
X66117Y-29260D01*
X65925Y-29132D01*
X65700Y-29087D01*
X65474Y-29132D01*
X65282Y-29260D01*
X65200Y-29384D01*
X65117Y-29260D01*
X64925Y-29132D01*
X64700Y-29087D01*
X64474Y-29132D01*
X64282Y-29260D01*
X64200Y-29384D01*
X64117Y-29260D01*
X63925Y-29132D01*
X63700Y-29087D01*
X63474Y-29132D01*
X63282Y-29260D01*
X63200Y-29384D01*
X63117Y-29260D01*
X62925Y-29132D01*
X62700Y-29087D01*
X62474Y-29132D01*
X62282Y-29260D01*
X62200Y-29384D01*
X62117Y-29260D01*
X61925Y-29132D01*
X61700Y-29087D01*
X61474Y-29132D01*
X61282Y-29260D01*
X61154Y-29451D01*
X61110Y-29677D01*
X61110Y-29822D01*
X61154Y-30048D01*
X61282Y-30239D01*
X61474Y-30367D01*
X61700Y-30412D01*
X61925Y-30367D01*
X62117Y-30239D01*
X62200Y-30115D01*
X62282Y-30239D01*
X62474Y-30367D01*
X62700Y-30412D01*
X62925Y-30367D01*
X63117Y-30239D01*
X63200Y-30115D01*
X63282Y-30239D01*
X63474Y-30367D01*
X63700Y-30412D01*
X63925Y-30367D01*
X64117Y-30239D01*
X64200Y-30115D01*
X64282Y-30239D01*
X64474Y-30367D01*
X64700Y-30412D01*
X64925Y-30367D01*
X65117Y-30239D01*
X65200Y-30115D01*
X65282Y-30239D01*
X65474Y-30367D01*
X65700Y-30412D01*
X65925Y-30367D01*
X66117Y-30239D01*
X66200Y-30115D01*
X66282Y-30239D01*
X66400Y-30318D01*
X66400Y-30700D01*
X66423Y-30814D01*
X66475Y-30892D01*
X66475Y-30895D01*
X66474Y-31103D01*
X66554Y-31297D01*
X66702Y-31444D01*
X66835Y-31500D01*
X66703Y-31554D01*
X66555Y-31702D01*
X66475Y-31895D01*
X66474Y-32103D01*
X66554Y-32297D01*
X66700Y-32443D01*
X66700Y-47278D01*
X66688Y-47291D01*
X66631Y-47426D01*
X66631Y-47572D01*
X66687Y-47708D01*
X66791Y-47811D01*
X66926Y-47868D01*
X67072Y-47868D01*
X67208Y-47812D01*
X67311Y-47708D01*
X67368Y-47573D01*
X67368Y-47427D01*
X67312Y-47291D01*
X67299Y-47278D01*
X67299Y-32443D01*
X67444Y-32297D01*
X67524Y-32104D01*
X67525Y-31896D01*
X67445Y-31703D01*
X67297Y-31555D01*
X67164Y-31499D01*
X67297Y-31445D01*
X67444Y-31297D01*
X67500Y-31164D01*
X67554Y-31297D01*
X67702Y-31444D01*
X67895Y-31524D01*
X68103Y-31525D01*
X68297Y-31445D01*
X68444Y-31297D01*
X68524Y-31104D01*
X68525Y-30896D01*
X68445Y-30703D01*
X68297Y-30555D01*
X68104Y-30475D01*
X67896Y-30474D01*
X67703Y-30554D01*
X67555Y-30702D01*
X67499Y-30835D01*
X67445Y-30703D01*
X67297Y-30555D01*
X67104Y-30475D01*
X66999Y-30474D01*
X66999Y-30318D01*
X67117Y-30239D01*
X67200Y-30115D01*
X67282Y-30239D01*
X67474Y-30367D01*
X67700Y-30412D01*
X67925Y-30367D01*
X68117Y-30239D01*
X68200Y-30115D01*
X68282Y-30239D01*
X68474Y-30367D01*
X68700Y-30412D01*
X68925Y-30367D01*
X69117Y-30239D01*
X69245Y-30048D01*
X69290Y-29822D01*
X69290Y-34783D01*
X69106Y-34859D01*
X68810Y-35154D01*
X68650Y-35540D01*
X68649Y-35957D01*
X68809Y-36344D01*
X69104Y-36639D01*
X69490Y-36799D01*
X69907Y-36800D01*
X70294Y-36640D01*
X70420Y-36514D01*
X70420Y-45985D01*
X70295Y-45860D01*
X69909Y-45700D01*
X69492Y-45699D01*
X69340Y-45762D01*
X69340Y-43333D01*
X69340Y-43333D01*
X69340Y-42040D01*
X69340Y-40859D01*
X69302Y-40768D01*
X69232Y-40697D01*
X69140Y-40659D01*
X69040Y-40659D01*
X67859Y-40659D01*
X67768Y-40697D01*
X67697Y-40767D01*
X67659Y-40859D01*
X67659Y-40959D01*
X67659Y-42140D01*
X67697Y-42231D01*
X67767Y-42302D01*
X67859Y-42340D01*
X67959Y-42340D01*
X69140Y-42340D01*
X69231Y-42302D01*
X69302Y-42232D01*
X69340Y-42140D01*
X69340Y-42040D01*
X69340Y-43333D01*
X69212Y-43024D01*
X68976Y-42787D01*
X68667Y-42659D01*
X68333Y-42659D01*
X68024Y-42787D01*
X67787Y-43023D01*
X67659Y-43332D01*
X67659Y-43666D01*
X67787Y-43975D01*
X68023Y-44212D01*
X68332Y-44340D01*
X68666Y-44340D01*
X68975Y-44212D01*
X69212Y-43976D01*
X69340Y-43667D01*
X69340Y-43333D01*
X69340Y-45762D01*
X69106Y-45859D01*
X68810Y-46154D01*
X68650Y-46540D01*
X68649Y-46957D01*
X68809Y-47344D01*
X69104Y-47639D01*
X69490Y-47799D01*
X69907Y-47800D01*
X70294Y-47640D01*
X70420Y-47514D01*
X70420Y-47634D01*
M02*
